G04 #@! TF.GenerationSoftware,KiCad,Pcbnew,9.0.5*
G04 #@! TF.CreationDate,2026-01-07T17:30:32+01:00*
G04 #@! TF.ProjectId,PCB Main,50434220-4d61-4696-9e2e-6b696361645f,rev?*
G04 #@! TF.SameCoordinates,Original*
G04 #@! TF.FileFunction,Legend,Bot*
G04 #@! TF.FilePolarity,Positive*
%FSLAX46Y46*%
G04 Gerber Fmt 4.6, Leading zero omitted, Abs format (unit mm)*
G04 Created by KiCad (PCBNEW 9.0.5) date 2026-01-07 17:30:32*
%MOMM*%
%LPD*%
G01*
G04 APERTURE LIST*
G04 Aperture macros list*
%AMRoundRect*
0 Rectangle with rounded corners*
0 $1 Rounding radius*
0 $2 $3 $4 $5 $6 $7 $8 $9 X,Y pos of 4 corners*
0 Add a 4 corners polygon primitive as box body*
4,1,4,$2,$3,$4,$5,$6,$7,$8,$9,$2,$3,0*
0 Add four circle primitives for the rounded corners*
1,1,$1+$1,$2,$3*
1,1,$1+$1,$4,$5*
1,1,$1+$1,$6,$7*
1,1,$1+$1,$8,$9*
0 Add four rect primitives between the rounded corners*
20,1,$1+$1,$2,$3,$4,$5,0*
20,1,$1+$1,$4,$5,$6,$7,0*
20,1,$1+$1,$6,$7,$8,$9,0*
20,1,$1+$1,$8,$9,$2,$3,0*%
G04 Aperture macros list end*
%ADD10C,0.160000*%
%ADD11C,0.150000*%
%ADD12C,0.200000*%
%ADD13R,1.700000X1.700000*%
%ADD14C,1.700000*%
%ADD15RoundRect,0.250000X-0.600000X-0.750000X0.600000X-0.750000X0.600000X0.750000X-0.600000X0.750000X0*%
%ADD16O,1.700000X2.000000*%
%ADD17C,2.200000*%
%ADD18C,1.446000*%
G04 APERTURE END LIST*
D10*
X66203843Y-31732576D02*
X36612843Y-31732576D01*
D11*
X67839419Y-70129190D02*
X67791800Y-70167286D01*
X67791800Y-70167286D02*
X67744180Y-70281571D01*
X67744180Y-70281571D02*
X67744180Y-70357762D01*
X67744180Y-70357762D02*
X67791800Y-70472048D01*
X67791800Y-70472048D02*
X67887038Y-70548238D01*
X67887038Y-70548238D02*
X67982276Y-70586333D01*
X67982276Y-70586333D02*
X68172752Y-70624429D01*
X68172752Y-70624429D02*
X68315609Y-70624429D01*
X68315609Y-70624429D02*
X68506085Y-70586333D01*
X68506085Y-70586333D02*
X68601323Y-70548238D01*
X68601323Y-70548238D02*
X68696561Y-70472048D01*
X68696561Y-70472048D02*
X68744180Y-70357762D01*
X68744180Y-70357762D02*
X68744180Y-70281571D01*
X68744180Y-70281571D02*
X68696561Y-70167286D01*
X68696561Y-70167286D02*
X68648942Y-70129190D01*
X67744180Y-69329190D02*
X68220371Y-69595857D01*
X67744180Y-69786333D02*
X68744180Y-69786333D01*
X68744180Y-69786333D02*
X68744180Y-69481571D01*
X68744180Y-69481571D02*
X68696561Y-69405381D01*
X68696561Y-69405381D02*
X68648942Y-69367286D01*
X68648942Y-69367286D02*
X68553704Y-69329190D01*
X68553704Y-69329190D02*
X68410847Y-69329190D01*
X68410847Y-69329190D02*
X68315609Y-69367286D01*
X68315609Y-69367286D02*
X68267990Y-69405381D01*
X68267990Y-69405381D02*
X68220371Y-69481571D01*
X68220371Y-69481571D02*
X68220371Y-69786333D01*
X68648942Y-69024429D02*
X68696561Y-68986333D01*
X68696561Y-68986333D02*
X68744180Y-68910143D01*
X68744180Y-68910143D02*
X68744180Y-68719667D01*
X68744180Y-68719667D02*
X68696561Y-68643476D01*
X68696561Y-68643476D02*
X68648942Y-68605381D01*
X68648942Y-68605381D02*
X68553704Y-68567286D01*
X68553704Y-68567286D02*
X68458466Y-68567286D01*
X68458466Y-68567286D02*
X68315609Y-68605381D01*
X68315609Y-68605381D02*
X67744180Y-69062524D01*
X67744180Y-69062524D02*
X67744180Y-68567286D01*
X68744180Y-68072047D02*
X68744180Y-67995857D01*
X68744180Y-67995857D02*
X68696561Y-67919666D01*
X68696561Y-67919666D02*
X68648942Y-67881571D01*
X68648942Y-67881571D02*
X68553704Y-67843476D01*
X68553704Y-67843476D02*
X68363228Y-67805381D01*
X68363228Y-67805381D02*
X68125133Y-67805381D01*
X68125133Y-67805381D02*
X67934657Y-67843476D01*
X67934657Y-67843476D02*
X67839419Y-67881571D01*
X67839419Y-67881571D02*
X67791800Y-67919666D01*
X67791800Y-67919666D02*
X67744180Y-67995857D01*
X67744180Y-67995857D02*
X67744180Y-68072047D01*
X67744180Y-68072047D02*
X67791800Y-68148238D01*
X67791800Y-68148238D02*
X67839419Y-68186333D01*
X67839419Y-68186333D02*
X67934657Y-68224428D01*
X67934657Y-68224428D02*
X68125133Y-68262524D01*
X68125133Y-68262524D02*
X68363228Y-68262524D01*
X68363228Y-68262524D02*
X68553704Y-68224428D01*
X68553704Y-68224428D02*
X68648942Y-68186333D01*
X68648942Y-68186333D02*
X68696561Y-68148238D01*
X68696561Y-68148238D02*
X68744180Y-68072047D01*
X68744180Y-67538714D02*
X68744180Y-67043476D01*
X68744180Y-67043476D02*
X68363228Y-67310142D01*
X68363228Y-67310142D02*
X68363228Y-67195857D01*
X68363228Y-67195857D02*
X68315609Y-67119666D01*
X68315609Y-67119666D02*
X68267990Y-67081571D01*
X68267990Y-67081571D02*
X68172752Y-67043476D01*
X68172752Y-67043476D02*
X67934657Y-67043476D01*
X67934657Y-67043476D02*
X67839419Y-67081571D01*
X67839419Y-67081571D02*
X67791800Y-67119666D01*
X67791800Y-67119666D02*
X67744180Y-67195857D01*
X67744180Y-67195857D02*
X67744180Y-67424428D01*
X67744180Y-67424428D02*
X67791800Y-67500619D01*
X67791800Y-67500619D02*
X67839419Y-67538714D01*
X68648942Y-66738714D02*
X68696561Y-66700618D01*
X68696561Y-66700618D02*
X68744180Y-66624428D01*
X68744180Y-66624428D02*
X68744180Y-66433952D01*
X68744180Y-66433952D02*
X68696561Y-66357761D01*
X68696561Y-66357761D02*
X68648942Y-66319666D01*
X68648942Y-66319666D02*
X68553704Y-66281571D01*
X68553704Y-66281571D02*
X68458466Y-66281571D01*
X68458466Y-66281571D02*
X68315609Y-66319666D01*
X68315609Y-66319666D02*
X67744180Y-66776809D01*
X67744180Y-66776809D02*
X67744180Y-66281571D01*
D12*
X38596843Y-67562576D02*
X38596843Y-69562576D01*
X38596843Y-69562576D02*
X43396843Y-69562576D01*
X43396843Y-67562576D02*
X38596843Y-67562576D01*
X43396843Y-68562576D02*
X43396843Y-68562576D01*
X66396843Y-68562576D02*
X66396843Y-68562576D01*
X66896843Y-68362576D02*
X66896843Y-68362576D01*
X66996843Y-68362576D02*
X66996843Y-68362576D01*
X43396843Y-68562576D02*
G75*
G02*
X66396843Y-68562576I11500000J0D01*
G01*
X66396843Y-68562576D02*
G75*
G02*
X43396843Y-68562576I-11500000J0D01*
G01*
X66896843Y-68362576D02*
G75*
G02*
X66996843Y-68362576I50000J0D01*
G01*
X66996843Y-68362576D02*
G75*
G02*
X66896843Y-68362576I-50000J0D01*
G01*
%LPC*%
D13*
X72175534Y-62667040D03*
D14*
X72175534Y-65207040D03*
X72175534Y-67747040D03*
D13*
X89535000Y-56510000D03*
D14*
X89535000Y-59050000D03*
D13*
X96442500Y-62497000D03*
D14*
X96442500Y-65037000D03*
X96442500Y-67577000D03*
X96442500Y-70117000D03*
D13*
X93762843Y-79611576D03*
D14*
X91222843Y-79611576D03*
X88682843Y-79611576D03*
D15*
X88067843Y-34078576D03*
D16*
X90567843Y-34078576D03*
D17*
X39066500Y-80192000D03*
X39066500Y-35192000D03*
D13*
X46899843Y-76690576D03*
D14*
X49439843Y-76690576D03*
X51979843Y-76690576D03*
X54519843Y-76690576D03*
X57059843Y-76690576D03*
X59599843Y-76690576D03*
X62139843Y-76690576D03*
D13*
X67219843Y-76685576D03*
D14*
X67219843Y-79225576D03*
D15*
X78415843Y-34078576D03*
D16*
X80915843Y-34078576D03*
D13*
X84504500Y-79575000D03*
D14*
X81964500Y-79575000D03*
X79424500Y-79575000D03*
D13*
X96442500Y-49797000D03*
D14*
X96442500Y-52337000D03*
X96442500Y-54877000D03*
X96442500Y-57417000D03*
D13*
X85852000Y-56510000D03*
D14*
X85852000Y-59050000D03*
D17*
X98066500Y-80192000D03*
D13*
X75233500Y-56528000D03*
D14*
X77773500Y-56528000D03*
X80313500Y-56528000D03*
D17*
X98066500Y-35192000D03*
D13*
X73950843Y-79225576D03*
D14*
X73950843Y-76685576D03*
X73950843Y-74145576D03*
D18*
X60996843Y-68562576D03*
X40996843Y-68562576D03*
%LPD*%
M02*
