%TF.GenerationSoftware,KiCad,Pcbnew,9.0.5*%
%TF.CreationDate,2025-12-10T12:56:38+01:00*%
%TF.ProjectId,PCB Main,50434220-4d61-4696-9e2e-6b696361645f,rev?*%
%TF.SameCoordinates,Original*%
%TF.FileFunction,Drillmap*%
%TF.FilePolarity,Positive*%
%FSLAX45Y45*%
G04 Gerber Fmt 4.5, Leading zero omitted, Abs format (unit mm)*
G04 Created by KiCad (PCBNEW 9.0.5) date 2025-12-10 12:56:38*
%MOMM*%
%LPD*%
G01*
G04 APERTURE LIST*
%ADD10C,0.050000*%
%ADD11C,0.200000*%
%ADD12C,0.100000*%
G04 APERTURE END LIST*
D10*
X6448950Y-2559709D02*
X6448950Y-2986954D01*
X6625624Y-3163600D01*
X10063350Y-3163600D01*
X10063350Y-8332500D01*
X3649878Y-8332500D01*
X3648953Y-2554444D01*
X3798772Y-2404600D01*
X6293841Y-2404600D01*
X6448950Y-2559709D01*
D11*
D12*
X4001884Y-5482358D02*
X4031884Y-5512358D01*
X4031884Y-5482358D02*
X4001884Y-5512358D01*
X4001884Y-6091958D02*
X4031884Y-6121958D01*
X4031884Y-6091958D02*
X4001884Y-6121958D01*
X4022284Y-4479058D02*
X4052284Y-4509058D01*
X4052284Y-4479058D02*
X4022284Y-4509058D01*
X4022284Y-4733058D02*
X4052284Y-4763058D01*
X4052284Y-4733058D02*
X4022284Y-4763058D01*
X4459084Y-4580658D02*
X4489084Y-4610658D01*
X4489084Y-4580658D02*
X4459084Y-4610658D01*
X4459084Y-5103134D02*
X4489084Y-5133134D01*
X4489084Y-5103134D02*
X4459084Y-5133134D01*
X4650850Y-4569700D02*
X4680850Y-4599700D01*
X4680850Y-4569700D02*
X4650850Y-4599700D01*
X4650850Y-4671300D02*
X4680850Y-4701300D01*
X4680850Y-4671300D02*
X4650850Y-4701300D01*
X4650850Y-4772900D02*
X4680850Y-4802900D01*
X4680850Y-4772900D02*
X4650850Y-4802900D01*
X4709400Y-4507500D02*
X4739400Y-4537500D01*
X4739400Y-4507500D02*
X4709400Y-4537500D01*
X4722100Y-4825000D02*
X4752100Y-4855000D01*
X4752100Y-4825000D02*
X4722100Y-4855000D01*
X4727050Y-4634500D02*
X4757050Y-4664500D01*
X4757050Y-4634500D02*
X4727050Y-4664500D01*
X4798300Y-4507500D02*
X4828300Y-4537500D01*
X4828300Y-4507500D02*
X4798300Y-4537500D01*
X4845449Y-4825000D02*
X4875449Y-4855000D01*
X4875449Y-4825000D02*
X4845449Y-4855000D01*
X4879450Y-5231400D02*
X4909450Y-5261400D01*
X4909450Y-5231400D02*
X4879450Y-5261400D01*
X4887200Y-4507500D02*
X4917200Y-4537500D01*
X4917200Y-4507500D02*
X4887200Y-4537500D01*
X4902319Y-5022115D02*
X4932319Y-5052115D01*
X4932319Y-5022115D02*
X4902319Y-5052115D01*
X4930250Y-5409200D02*
X4960250Y-5439200D01*
X4960250Y-5409200D02*
X4930250Y-5439200D01*
X4930250Y-6844300D02*
X4960250Y-6874300D01*
X4960250Y-6844300D02*
X4930250Y-6874300D01*
X4938000Y-4863100D02*
X4968000Y-4893100D01*
X4968000Y-4863100D02*
X4938000Y-4893100D01*
X4976100Y-4507500D02*
X5006100Y-4537500D01*
X5006100Y-4507500D02*
X4976100Y-4537500D01*
X5019150Y-4736100D02*
X5049150Y-4766100D01*
X5049150Y-4736100D02*
X5019150Y-4766100D01*
X5044550Y-4561950D02*
X5074550Y-4591950D01*
X5074550Y-4561950D02*
X5044550Y-4591950D01*
X5044550Y-5587000D02*
X5074550Y-5617000D01*
X5074550Y-5587000D02*
X5044550Y-5617000D01*
X5065000Y-4863100D02*
X5095000Y-4893100D01*
X5095000Y-4863100D02*
X5065000Y-4893100D01*
X5095350Y-6476000D02*
X5125350Y-6506000D01*
X5125350Y-6476000D02*
X5095350Y-6506000D01*
X5100769Y-5351119D02*
X5130769Y-5381119D01*
X5130769Y-5351119D02*
X5100769Y-5381119D01*
X5103100Y-4620500D02*
X5133100Y-4650500D01*
X5133100Y-4620500D02*
X5103100Y-4650500D01*
X5133450Y-5256800D02*
X5163450Y-5286800D01*
X5163450Y-5256800D02*
X5133450Y-5286800D01*
X5170793Y-5120600D02*
X5200793Y-5150600D01*
X5200793Y-5120600D02*
X5170793Y-5150600D01*
X5192000Y-4480800D02*
X5222000Y-4510800D01*
X5222000Y-4480800D02*
X5192000Y-4510800D01*
X5228550Y-6971300D02*
X5258550Y-7001300D01*
X5258550Y-6971300D02*
X5228550Y-7001300D01*
X5235050Y-4710700D02*
X5265050Y-4740700D01*
X5265050Y-4710700D02*
X5235050Y-4740700D01*
X5273150Y-5574300D02*
X5303150Y-5604300D01*
X5303150Y-5574300D02*
X5273150Y-5604300D01*
X5297284Y-3640858D02*
X5327284Y-3670858D01*
X5327284Y-3640858D02*
X5297284Y-3670858D01*
X5298550Y-4469400D02*
X5328550Y-4499400D01*
X5328550Y-4469400D02*
X5298550Y-4499400D01*
X5298550Y-5701300D02*
X5328550Y-5731300D01*
X5328550Y-5701300D02*
X5298550Y-5731300D01*
X5309984Y-3209058D02*
X5339984Y-3239058D01*
X5339984Y-3209058D02*
X5309984Y-3239058D01*
X5309984Y-3323358D02*
X5339984Y-3353358D01*
X5339984Y-3323358D02*
X5309984Y-3353358D01*
X5309984Y-3551958D02*
X5339984Y-3581958D01*
X5339984Y-3551958D02*
X5309984Y-3581958D01*
X5360784Y-3704358D02*
X5390784Y-3734358D01*
X5390784Y-3704358D02*
X5360784Y-3734358D01*
X5395005Y-5663200D02*
X5425005Y-5693200D01*
X5425005Y-5663200D02*
X5395005Y-5693200D01*
X5398884Y-3183658D02*
X5428884Y-3213658D01*
X5428884Y-3183658D02*
X5398884Y-3213658D01*
X5398884Y-3348758D02*
X5428884Y-3378758D01*
X5428884Y-3348758D02*
X5398884Y-3378758D01*
X5398884Y-3437658D02*
X5428884Y-3467658D01*
X5428884Y-3437658D02*
X5398884Y-3467658D01*
X5398884Y-3539258D02*
X5428884Y-3569258D01*
X5428884Y-3539258D02*
X5398884Y-3569258D01*
X5400150Y-4482100D02*
X5430150Y-4512100D01*
X5430150Y-4482100D02*
X5400150Y-4512100D01*
X5400150Y-5841000D02*
X5430150Y-5871000D01*
X5430150Y-5841000D02*
X5400150Y-5871000D01*
X5409550Y-4910600D02*
X5439550Y-4940600D01*
X5439550Y-4910600D02*
X5409550Y-4940600D01*
X5409550Y-5090600D02*
X5439550Y-5120600D01*
X5439550Y-5090600D02*
X5409550Y-5120600D01*
X5409550Y-5270600D02*
X5439550Y-5300600D01*
X5439550Y-5270600D02*
X5409550Y-5300600D01*
X5409550Y-5450600D02*
X5439550Y-5480600D01*
X5439550Y-5450600D02*
X5409550Y-5480600D01*
X5411584Y-3767858D02*
X5441584Y-3797858D01*
X5441584Y-3767858D02*
X5411584Y-3797858D01*
X5412850Y-3859800D02*
X5442850Y-3889800D01*
X5442850Y-3859800D02*
X5412850Y-3889800D01*
X5412850Y-3948700D02*
X5442850Y-3978700D01*
X5442850Y-3948700D02*
X5412850Y-3978700D01*
X5412850Y-4037600D02*
X5442850Y-4067600D01*
X5442850Y-4037600D02*
X5412850Y-4067600D01*
X5412850Y-4126500D02*
X5442850Y-4156500D01*
X5442850Y-4126500D02*
X5412850Y-4156500D01*
X5412850Y-4215400D02*
X5442850Y-4245400D01*
X5442850Y-4215400D02*
X5412850Y-4245400D01*
X5412850Y-4304300D02*
X5442850Y-4334300D01*
X5442850Y-4304300D02*
X5412850Y-4334300D01*
X5412850Y-4393200D02*
X5442850Y-4423200D01*
X5442850Y-4393200D02*
X5412850Y-4423200D01*
X5412850Y-4571000D02*
X5442850Y-4601000D01*
X5442850Y-4571000D02*
X5412850Y-4601000D01*
X5419550Y-4658147D02*
X5449550Y-4688147D01*
X5449550Y-4658147D02*
X5419550Y-4688147D01*
X5425550Y-6374400D02*
X5455550Y-6404400D01*
X5455550Y-6374400D02*
X5425550Y-6404400D01*
X5454550Y-5000600D02*
X5484550Y-5030600D01*
X5484550Y-5000600D02*
X5454550Y-5030600D01*
X5454550Y-5180600D02*
X5484550Y-5210600D01*
X5484550Y-5180600D02*
X5454550Y-5210600D01*
X5454550Y-5360600D02*
X5484550Y-5390600D01*
X5484550Y-5360600D02*
X5454550Y-5390600D01*
X5479550Y-5688600D02*
X5509550Y-5718600D01*
X5509550Y-5688600D02*
X5479550Y-5718600D01*
X5499550Y-4910600D02*
X5529550Y-4940600D01*
X5529550Y-4910600D02*
X5499550Y-4940600D01*
X5499550Y-5090600D02*
X5529550Y-5120600D01*
X5529550Y-5090600D02*
X5499550Y-5120600D01*
X5499550Y-5270600D02*
X5529550Y-5300600D01*
X5529550Y-5270600D02*
X5499550Y-5300600D01*
X5499550Y-5450600D02*
X5529550Y-5480600D01*
X5529550Y-5450600D02*
X5499550Y-5480600D01*
X5544550Y-5000600D02*
X5574550Y-5030600D01*
X5574550Y-5000600D02*
X5544550Y-5030600D01*
X5544550Y-5180600D02*
X5574550Y-5210600D01*
X5574550Y-5180600D02*
X5544550Y-5210600D01*
X5544550Y-5360600D02*
X5574550Y-5390600D01*
X5574550Y-5360600D02*
X5544550Y-5390600D01*
X5551284Y-3183658D02*
X5581284Y-3213658D01*
X5581284Y-3183658D02*
X5551284Y-3213658D01*
X5551284Y-3717058D02*
X5581284Y-3747058D01*
X5581284Y-3717058D02*
X5551284Y-3747058D01*
X5552550Y-3809000D02*
X5582550Y-3839000D01*
X5582550Y-3809000D02*
X5552550Y-3839000D01*
X5552550Y-3897900D02*
X5582550Y-3927900D01*
X5582550Y-3897900D02*
X5552550Y-3927900D01*
X5552550Y-3986800D02*
X5582550Y-4016800D01*
X5582550Y-3986800D02*
X5552550Y-4016800D01*
X5552550Y-4075700D02*
X5582550Y-4105700D01*
X5582550Y-4075700D02*
X5552550Y-4105700D01*
X5552550Y-4164600D02*
X5582550Y-4194600D01*
X5582550Y-4164600D02*
X5552550Y-4194600D01*
X5552550Y-4253500D02*
X5582550Y-4283500D01*
X5582550Y-4253500D02*
X5552550Y-4283500D01*
X5552550Y-4342400D02*
X5582550Y-4372400D01*
X5582550Y-4342400D02*
X5552550Y-4372400D01*
X5552550Y-4431300D02*
X5582550Y-4461300D01*
X5582550Y-4431300D02*
X5552550Y-4461300D01*
X5552684Y-3272558D02*
X5582684Y-3302558D01*
X5582684Y-3272558D02*
X5552684Y-3302558D01*
X5558950Y-4691800D02*
X5588950Y-4721800D01*
X5588950Y-4691800D02*
X5558950Y-4721800D01*
X5563984Y-3361458D02*
X5593984Y-3391458D01*
X5593984Y-3361458D02*
X5563984Y-3391458D01*
X5563984Y-3450358D02*
X5593984Y-3480358D01*
X5593984Y-3450358D02*
X5563984Y-3480358D01*
X5563984Y-3539258D02*
X5593984Y-3569258D01*
X5593984Y-3539258D02*
X5563984Y-3569258D01*
X5563984Y-3628158D02*
X5593984Y-3658158D01*
X5593984Y-3628158D02*
X5563984Y-3658158D01*
X5565250Y-5688600D02*
X5595250Y-5718600D01*
X5595250Y-5688600D02*
X5565250Y-5718600D01*
X5577950Y-5809690D02*
X5607950Y-5839690D01*
X5607950Y-5809690D02*
X5577950Y-5839690D01*
X5587850Y-6488700D02*
X5617850Y-6518700D01*
X5617850Y-6488700D02*
X5587850Y-6518700D01*
X5589550Y-4910600D02*
X5619550Y-4940600D01*
X5619550Y-4910600D02*
X5589550Y-4940600D01*
X5589550Y-5090600D02*
X5619550Y-5120600D01*
X5619550Y-5090600D02*
X5589550Y-5120600D01*
X5589550Y-5270600D02*
X5619550Y-5300600D01*
X5619550Y-5270600D02*
X5589550Y-5300600D01*
X5589550Y-5450600D02*
X5619550Y-5480600D01*
X5619550Y-5450600D02*
X5589550Y-5480600D01*
X5590650Y-4507500D02*
X5620650Y-4537500D01*
X5620650Y-4507500D02*
X5590650Y-4537500D01*
X5616050Y-4583700D02*
X5646050Y-4613700D01*
X5646050Y-4583700D02*
X5616050Y-4613700D01*
X5634550Y-5000600D02*
X5664550Y-5030600D01*
X5664550Y-5000600D02*
X5634550Y-5030600D01*
X5634550Y-5180600D02*
X5664550Y-5210600D01*
X5664550Y-5180600D02*
X5634550Y-5210600D01*
X5634550Y-5360600D02*
X5664550Y-5390600D01*
X5664550Y-5360600D02*
X5634550Y-5390600D01*
X5679550Y-4910600D02*
X5709550Y-4940600D01*
X5709550Y-4910600D02*
X5679550Y-4940600D01*
X5679550Y-5090600D02*
X5709550Y-5120600D01*
X5709550Y-5090600D02*
X5679550Y-5120600D01*
X5679550Y-5270600D02*
X5709550Y-5300600D01*
X5709550Y-5270600D02*
X5679550Y-5300600D01*
X5679550Y-5450600D02*
X5709550Y-5480600D01*
X5709550Y-5450600D02*
X5679550Y-5480600D01*
X5692250Y-5853700D02*
X5722250Y-5883700D01*
X5722250Y-5853700D02*
X5692250Y-5883700D01*
X5704950Y-4609100D02*
X5734950Y-4639100D01*
X5734950Y-4609100D02*
X5704950Y-4639100D01*
X5724550Y-5000600D02*
X5754550Y-5030600D01*
X5754550Y-5000600D02*
X5724550Y-5030600D01*
X5724550Y-5180600D02*
X5754550Y-5210600D01*
X5754550Y-5180600D02*
X5724550Y-5210600D01*
X5724550Y-5360600D02*
X5754550Y-5390600D01*
X5754550Y-5360600D02*
X5724550Y-5390600D01*
X5769550Y-4910600D02*
X5799550Y-4940600D01*
X5799550Y-4910600D02*
X5769550Y-4940600D01*
X5769550Y-5090600D02*
X5799550Y-5120600D01*
X5799550Y-5090600D02*
X5769550Y-5120600D01*
X5769550Y-5270600D02*
X5799550Y-5300600D01*
X5799550Y-5270600D02*
X5769550Y-5300600D01*
X5769550Y-5450600D02*
X5799550Y-5480600D01*
X5799550Y-5450600D02*
X5769550Y-5480600D01*
X5781150Y-4545600D02*
X5811150Y-4575600D01*
X5811150Y-4545600D02*
X5781150Y-4575600D01*
X5814550Y-5000600D02*
X5844550Y-5030600D01*
X5844550Y-5000600D02*
X5814550Y-5030600D01*
X5814550Y-5180600D02*
X5844550Y-5210600D01*
X5844550Y-5180600D02*
X5814550Y-5210600D01*
X5814550Y-5360600D02*
X5844550Y-5390600D01*
X5844550Y-5360600D02*
X5814550Y-5390600D01*
X5859550Y-4910600D02*
X5889550Y-4940600D01*
X5889550Y-4910600D02*
X5859550Y-4940600D01*
X5859550Y-5090600D02*
X5889550Y-5120600D01*
X5889550Y-5090600D02*
X5859550Y-5120600D01*
X5859550Y-5270600D02*
X5889550Y-5300600D01*
X5889550Y-5270600D02*
X5859550Y-5300600D01*
X5859550Y-5450600D02*
X5889550Y-5480600D01*
X5889550Y-5450600D02*
X5859550Y-5480600D01*
X5861150Y-4545600D02*
X5891150Y-4575600D01*
X5891150Y-4545600D02*
X5861150Y-4575600D01*
X5904550Y-5000600D02*
X5934550Y-5030600D01*
X5934550Y-5000600D02*
X5904550Y-5030600D01*
X5904550Y-5180600D02*
X5934550Y-5210600D01*
X5934550Y-5180600D02*
X5904550Y-5210600D01*
X5949550Y-4910600D02*
X5979550Y-4940600D01*
X5979550Y-4910600D02*
X5949550Y-4940600D01*
X5949550Y-5090600D02*
X5979550Y-5120600D01*
X5979550Y-5090600D02*
X5949550Y-5120600D01*
X5952734Y-7412758D02*
X5982734Y-7442758D01*
X5982734Y-7412758D02*
X5952734Y-7442758D01*
X5984350Y-5929900D02*
X6014350Y-5959900D01*
X6014350Y-5929900D02*
X5984350Y-5959900D01*
X5999550Y-5701300D02*
X6029550Y-5731300D01*
X6029550Y-5701300D02*
X5999550Y-5731300D01*
X6035150Y-4494800D02*
X6065150Y-4524800D01*
X6065150Y-4494800D02*
X6035150Y-4524800D01*
X6054069Y-6630572D02*
X6084069Y-6660572D01*
X6084069Y-6630572D02*
X6054069Y-6660572D01*
X6085950Y-5879100D02*
X6115950Y-5909100D01*
X6115950Y-5879100D02*
X6085950Y-5909100D01*
X6098650Y-5993400D02*
X6128650Y-6023400D01*
X6128650Y-5993400D02*
X6098650Y-6023400D01*
X6098650Y-6247400D02*
X6128650Y-6277400D01*
X6128650Y-6247400D02*
X6098650Y-6277400D01*
X6136750Y-4494800D02*
X6166750Y-4524800D01*
X6166750Y-4494800D02*
X6136750Y-4524800D01*
X6166025Y-5576875D02*
X6196025Y-5606875D01*
X6196025Y-5576875D02*
X6166025Y-5606875D01*
X6183372Y-6501269D02*
X6213372Y-6531269D01*
X6213372Y-6501269D02*
X6183372Y-6531269D01*
X6187550Y-5307600D02*
X6217550Y-5337600D01*
X6217550Y-5307600D02*
X6187550Y-5337600D01*
X6191876Y-5210327D02*
X6221876Y-5240327D01*
X6221876Y-5210327D02*
X6191876Y-5240327D01*
X6206734Y-7412758D02*
X6236734Y-7442758D01*
X6236734Y-7412758D02*
X6206734Y-7442758D01*
X6238350Y-4494800D02*
X6268350Y-4524800D01*
X6268350Y-4494800D02*
X6238350Y-4524800D01*
X6276450Y-5217400D02*
X6306450Y-5247400D01*
X6306450Y-5217400D02*
X6276450Y-5247400D01*
X6276450Y-5320300D02*
X6306450Y-5350300D01*
X6306450Y-5320300D02*
X6276450Y-5350300D01*
X6276450Y-5480600D02*
X6306450Y-5510600D01*
X6306450Y-5480600D02*
X6276450Y-5510600D01*
X6276450Y-5573000D02*
X6306450Y-5603000D01*
X6306450Y-5573000D02*
X6276450Y-5603000D01*
X6317775Y-5653725D02*
X6347775Y-5683725D01*
X6347775Y-5653725D02*
X6317775Y-5683725D01*
X6325425Y-5131625D02*
X6355425Y-5161625D01*
X6355425Y-5131625D02*
X6325425Y-5161625D01*
X6372284Y-6579058D02*
X6402284Y-6609058D01*
X6402284Y-6579058D02*
X6372284Y-6609058D01*
X6410750Y-4291600D02*
X6440750Y-4321600D01*
X6440750Y-4291600D02*
X6410750Y-4321600D01*
X6436600Y-5104400D02*
X6466600Y-5134400D01*
X6466600Y-5104400D02*
X6436600Y-5134400D01*
X6436600Y-5688600D02*
X6466600Y-5718600D01*
X6466600Y-5688600D02*
X6436600Y-5718600D01*
X6454250Y-5828300D02*
X6484250Y-5858300D01*
X6484250Y-5828300D02*
X6454250Y-5858300D01*
X6479650Y-4901200D02*
X6509650Y-4931200D01*
X6509650Y-4901200D02*
X6479650Y-4931200D01*
X6524684Y-6680658D02*
X6554684Y-6710658D01*
X6554684Y-6680658D02*
X6524684Y-6710658D01*
X6555850Y-5193300D02*
X6585850Y-5223300D01*
X6585850Y-5193300D02*
X6555850Y-5223300D01*
X6555850Y-5599700D02*
X6585850Y-5629700D01*
X6585850Y-5599700D02*
X6555850Y-5629700D01*
X6581250Y-4774200D02*
X6611250Y-4804200D01*
X6611250Y-4774200D02*
X6581250Y-4804200D01*
X6581250Y-4888500D02*
X6611250Y-4918500D01*
X6611250Y-4888500D02*
X6581250Y-4918500D01*
X6581250Y-5104400D02*
X6611250Y-5134400D01*
X6611250Y-5104400D02*
X6581250Y-5134400D01*
X6581250Y-5688600D02*
X6611250Y-5718600D01*
X6611250Y-5688600D02*
X6581250Y-5718600D01*
X6632050Y-5230100D02*
X6662050Y-5260100D01*
X6662050Y-5230100D02*
X6632050Y-5260100D01*
X6632050Y-5344400D02*
X6662050Y-5374400D01*
X6662050Y-5344400D02*
X6632050Y-5374400D01*
X6632050Y-5458700D02*
X6662050Y-5488700D01*
X6662050Y-5458700D02*
X6632050Y-5488700D01*
X6632050Y-5573000D02*
X6662050Y-5603000D01*
X6662050Y-5573000D02*
X6632050Y-5603000D01*
X6695550Y-4481900D02*
X6725550Y-4511900D01*
X6725550Y-4481900D02*
X6695550Y-4511900D01*
X7020800Y-5090400D02*
X7050800Y-5120400D01*
X7050800Y-5090400D02*
X7020800Y-5120400D01*
X7101950Y-4875800D02*
X7131950Y-4905800D01*
X7131950Y-4875800D02*
X7101950Y-4905800D01*
X7178150Y-4901200D02*
X7208150Y-4931200D01*
X7208150Y-4901200D02*
X7178150Y-4931200D01*
X7254350Y-4926600D02*
X7284350Y-4956600D01*
X7284350Y-4926600D02*
X7254350Y-4956600D01*
X7279750Y-5409200D02*
X7309750Y-5439200D01*
X7309750Y-5409200D02*
X7279750Y-5439200D01*
X7305150Y-4037600D02*
X7335150Y-4067600D01*
X7335150Y-4037600D02*
X7305150Y-4067600D01*
X7307250Y-5330900D02*
X7337250Y-5360900D01*
X7337250Y-5330900D02*
X7307250Y-5360900D01*
X7355950Y-5265200D02*
X7385950Y-5295200D01*
X7385950Y-5265200D02*
X7355950Y-5295200D01*
X7444850Y-5968000D02*
X7474850Y-5998000D01*
X7474850Y-5968000D02*
X7444850Y-5998000D01*
X7533750Y-4177300D02*
X7563750Y-4207300D01*
X7563750Y-4177300D02*
X7533750Y-4207300D01*
X7546450Y-5968000D02*
X7576450Y-5998000D01*
X7576450Y-5968000D02*
X7546450Y-5998000D01*
X7559150Y-5028200D02*
X7589150Y-5058200D01*
X7589150Y-5028200D02*
X7559150Y-5058200D01*
X7622650Y-3859800D02*
X7652650Y-3889800D01*
X7652650Y-3859800D02*
X7622650Y-3889800D01*
X7635350Y-6399800D02*
X7665350Y-6429800D01*
X7665350Y-6399800D02*
X7635350Y-6429800D01*
X7736950Y-5828300D02*
X7766950Y-5858300D01*
X7766950Y-5828300D02*
X7736950Y-5858300D01*
X7756000Y-6164850D02*
X7786000Y-6194850D01*
X7786000Y-6164850D02*
X7756000Y-6194850D01*
X7851250Y-3669300D02*
X7881250Y-3699300D01*
X7881250Y-3669300D02*
X7851250Y-3699300D01*
X7900950Y-6411400D02*
X7930950Y-6441400D01*
X7930950Y-6411400D02*
X7900950Y-6441400D01*
X7900950Y-6501400D02*
X7930950Y-6531400D01*
X7930950Y-6501400D02*
X7900950Y-6531400D01*
X7900950Y-6591400D02*
X7930950Y-6621400D01*
X7930950Y-6591400D02*
X7900950Y-6621400D01*
X7914750Y-6907800D02*
X7944750Y-6937800D01*
X7944750Y-6907800D02*
X7914750Y-6937800D01*
X7970150Y-5215200D02*
X8000150Y-5245200D01*
X8000150Y-5215200D02*
X7970150Y-5245200D01*
X7990950Y-4736100D02*
X8020950Y-4766100D01*
X8020950Y-4736100D02*
X7990950Y-4766100D01*
X7990950Y-6411400D02*
X8020950Y-6441400D01*
X8020950Y-6411400D02*
X7990950Y-6441400D01*
X7990950Y-6501400D02*
X8020950Y-6531400D01*
X8020950Y-6501400D02*
X7990950Y-6531400D01*
X7990950Y-6591400D02*
X8020950Y-6621400D01*
X8020950Y-6591400D02*
X7990950Y-6621400D01*
X8003650Y-4847600D02*
X8033650Y-4877600D01*
X8033650Y-4847600D02*
X8003650Y-4877600D01*
X8016350Y-7403100D02*
X8046350Y-7433100D01*
X8046350Y-7403100D02*
X8016350Y-7433100D01*
X8054450Y-6145800D02*
X8084450Y-6175800D01*
X8084450Y-6145800D02*
X8054450Y-6175800D01*
X8067150Y-5079000D02*
X8097150Y-5109000D01*
X8097150Y-5079000D02*
X8067150Y-5109000D01*
X8080950Y-6411400D02*
X8110950Y-6441400D01*
X8110950Y-6411400D02*
X8080950Y-6441400D01*
X8080950Y-6501400D02*
X8110950Y-6531400D01*
X8110950Y-6501400D02*
X8080950Y-6531400D01*
X8080950Y-6591400D02*
X8110950Y-6621400D01*
X8110950Y-6591400D02*
X8080950Y-6621400D01*
X8092550Y-5155200D02*
X8122550Y-5185200D01*
X8122550Y-5155200D02*
X8092550Y-5185200D01*
X8097634Y-4917208D02*
X8127634Y-4947208D01*
X8127634Y-4917208D02*
X8097634Y-4947208D01*
X8105250Y-4511750D02*
X8135250Y-4541750D01*
X8135250Y-4511750D02*
X8105250Y-4541750D01*
X8143350Y-6145800D02*
X8173350Y-6175800D01*
X8173350Y-6145800D02*
X8143350Y-6175800D01*
X8219550Y-6196600D02*
X8249550Y-6226600D01*
X8249550Y-6196600D02*
X8219550Y-6226600D01*
X8225350Y-4653000D02*
X8255350Y-4683000D01*
X8255350Y-4653000D02*
X8225350Y-4683000D01*
X8225350Y-4743000D02*
X8255350Y-4773000D01*
X8255350Y-4743000D02*
X8225350Y-4773000D01*
X8232250Y-6285500D02*
X8262250Y-6315500D01*
X8262250Y-6285500D02*
X8232250Y-6315500D01*
X8315350Y-4653000D02*
X8345350Y-4683000D01*
X8345350Y-4653000D02*
X8315350Y-4683000D01*
X8315350Y-4743000D02*
X8345350Y-4773000D01*
X8345350Y-4743000D02*
X8315350Y-4773000D01*
X8498950Y-5117100D02*
X8528950Y-5147100D01*
X8528950Y-5117100D02*
X8498950Y-5147100D01*
X8575150Y-6666500D02*
X8605150Y-6696500D01*
X8605150Y-6666500D02*
X8575150Y-6696500D01*
X8613250Y-6526800D02*
X8643250Y-6556800D01*
X8643250Y-6526800D02*
X8613250Y-6556800D01*
X8702150Y-3986800D02*
X8732150Y-4016800D01*
X8732150Y-3986800D02*
X8702150Y-4016800D01*
X8867250Y-3669300D02*
X8897250Y-3699300D01*
X8897250Y-3669300D02*
X8867250Y-3699300D01*
X8981550Y-5015500D02*
X9011550Y-5045500D01*
X9011550Y-5015500D02*
X8981550Y-5045500D01*
X4144184Y-6856258D02*
G75*
G02*
X4055184Y-6856258I-44500J0D01*
G01*
X4055184Y-6856258D02*
G75*
G02*
X4144184Y-6856258I44500J0D01*
G01*
X6144184Y-6856258D02*
G75*
G02*
X6055184Y-6856258I-44500J0D01*
G01*
X6055184Y-6856258D02*
G75*
G02*
X6144184Y-6856258I44500J0D01*
G01*
X4689984Y-7619058D02*
X4689984Y-7719058D01*
X4639984Y-7669058D02*
X4739984Y-7669058D01*
X4943984Y-7619058D02*
X4943984Y-7719058D01*
X4893984Y-7669058D02*
X4993984Y-7669058D01*
X5197984Y-7619058D02*
X5197984Y-7719058D01*
X5147984Y-7669058D02*
X5247984Y-7669058D01*
X5451984Y-7619058D02*
X5451984Y-7719058D01*
X5401984Y-7669058D02*
X5501984Y-7669058D01*
X5705984Y-7619058D02*
X5705984Y-7719058D01*
X5655984Y-7669058D02*
X5755984Y-7669058D01*
X5959984Y-7619058D02*
X5959984Y-7719058D01*
X5909984Y-7669058D02*
X6009984Y-7669058D01*
X6213984Y-7619058D02*
X6213984Y-7719058D01*
X6163984Y-7669058D02*
X6263984Y-7669058D01*
X6721984Y-7618558D02*
X6721984Y-7718558D01*
X6671984Y-7668558D02*
X6771984Y-7668558D01*
X6721984Y-7872558D02*
X6721984Y-7972558D01*
X6671984Y-7922558D02*
X6771984Y-7922558D01*
X7217553Y-6216704D02*
X7217553Y-6316704D01*
X7167553Y-6266704D02*
X7267553Y-6266704D01*
X7217553Y-6470704D02*
X7217553Y-6570704D01*
X7167553Y-6520704D02*
X7267553Y-6520704D01*
X7217553Y-6724704D02*
X7217553Y-6824704D01*
X7167553Y-6774704D02*
X7267553Y-6774704D01*
X7395084Y-7364558D02*
X7395084Y-7464558D01*
X7345084Y-7414558D02*
X7445084Y-7414558D01*
X7395084Y-7618558D02*
X7395084Y-7718558D01*
X7345084Y-7668558D02*
X7445084Y-7668558D01*
X7395084Y-7872558D02*
X7395084Y-7972558D01*
X7345084Y-7922558D02*
X7445084Y-7922558D01*
X7523350Y-5602800D02*
X7523350Y-5702800D01*
X7473350Y-5652800D02*
X7573350Y-5652800D01*
X7777350Y-5602800D02*
X7777350Y-5702800D01*
X7727350Y-5652800D02*
X7827350Y-5652800D01*
X7841584Y-3357858D02*
X7841584Y-3457858D01*
X7791584Y-3407858D02*
X7891584Y-3407858D01*
X7942450Y-7907500D02*
X7942450Y-8007500D01*
X7892450Y-7957500D02*
X7992450Y-7957500D01*
X8031350Y-5602800D02*
X8031350Y-5702800D01*
X7981350Y-5652800D02*
X8081350Y-5652800D01*
X8091584Y-3357858D02*
X8091584Y-3457858D01*
X8041584Y-3407858D02*
X8141584Y-3407858D01*
X8196450Y-7907500D02*
X8196450Y-8007500D01*
X8146450Y-7957500D02*
X8246450Y-7957500D01*
X8450450Y-7907500D02*
X8450450Y-8007500D01*
X8400450Y-7957500D02*
X8500450Y-7957500D01*
X8585200Y-5601000D02*
X8585200Y-5701000D01*
X8535200Y-5651000D02*
X8635200Y-5651000D01*
X8585200Y-5855000D02*
X8585200Y-5955000D01*
X8535200Y-5905000D02*
X8635200Y-5905000D01*
X8806784Y-3357858D02*
X8806784Y-3457858D01*
X8756784Y-3407858D02*
X8856784Y-3407858D01*
X8868284Y-7911158D02*
X8868284Y-8011158D01*
X8818284Y-7961158D02*
X8918284Y-7961158D01*
X8953500Y-5601000D02*
X8953500Y-5701000D01*
X8903500Y-5651000D02*
X9003500Y-5651000D01*
X8953500Y-5855000D02*
X8953500Y-5955000D01*
X8903500Y-5905000D02*
X9003500Y-5905000D01*
X9056784Y-3357858D02*
X9056784Y-3457858D01*
X9006784Y-3407858D02*
X9106784Y-3407858D01*
X9122284Y-7911158D02*
X9122284Y-8011158D01*
X9072284Y-7961158D02*
X9172284Y-7961158D01*
X9376284Y-7911158D02*
X9376284Y-8011158D01*
X9326284Y-7961158D02*
X9426284Y-7961158D01*
X9644250Y-4929700D02*
X9644250Y-5029700D01*
X9594250Y-4979700D02*
X9694250Y-4979700D01*
X9644250Y-5183700D02*
X9644250Y-5283700D01*
X9594250Y-5233700D02*
X9694250Y-5233700D01*
X9644250Y-5437700D02*
X9644250Y-5537700D01*
X9594250Y-5487700D02*
X9694250Y-5487700D01*
X9644250Y-5691700D02*
X9644250Y-5791700D01*
X9594250Y-5741700D02*
X9694250Y-5741700D01*
X9644250Y-6199700D02*
X9644250Y-6299700D01*
X9594250Y-6249700D02*
X9694250Y-6249700D01*
X9644250Y-6453700D02*
X9644250Y-6553700D01*
X9594250Y-6503700D02*
X9694250Y-6503700D01*
X9644250Y-6707700D02*
X9644250Y-6807700D01*
X9594250Y-6757700D02*
X9694250Y-6757700D01*
X9644250Y-6961700D02*
X9644250Y-7061700D01*
X9594250Y-7011700D02*
X9694250Y-7011700D01*
D11*
X3907230Y-8646484D02*
X3907230Y-8446484D01*
X3907230Y-8446484D02*
X3954849Y-8446484D01*
X3954849Y-8446484D02*
X3983420Y-8456008D01*
X3983420Y-8456008D02*
X4002468Y-8475055D01*
X4002468Y-8475055D02*
X4011992Y-8494103D01*
X4011992Y-8494103D02*
X4021515Y-8532198D01*
X4021515Y-8532198D02*
X4021515Y-8560770D01*
X4021515Y-8560770D02*
X4011992Y-8598865D01*
X4011992Y-8598865D02*
X4002468Y-8617912D01*
X4002468Y-8617912D02*
X3983420Y-8636960D01*
X3983420Y-8636960D02*
X3954849Y-8646484D01*
X3954849Y-8646484D02*
X3907230Y-8646484D01*
X4107230Y-8646484D02*
X4107230Y-8513150D01*
X4107230Y-8551246D02*
X4116753Y-8532198D01*
X4116753Y-8532198D02*
X4126277Y-8522674D01*
X4126277Y-8522674D02*
X4145325Y-8513150D01*
X4145325Y-8513150D02*
X4164373Y-8513150D01*
X4231039Y-8646484D02*
X4231039Y-8513150D01*
X4231039Y-8446484D02*
X4221515Y-8456008D01*
X4221515Y-8456008D02*
X4231039Y-8465531D01*
X4231039Y-8465531D02*
X4240563Y-8456008D01*
X4240563Y-8456008D02*
X4231039Y-8446484D01*
X4231039Y-8446484D02*
X4231039Y-8465531D01*
X4354849Y-8646484D02*
X4335801Y-8636960D01*
X4335801Y-8636960D02*
X4326277Y-8617912D01*
X4326277Y-8617912D02*
X4326277Y-8446484D01*
X4459611Y-8646484D02*
X4440563Y-8636960D01*
X4440563Y-8636960D02*
X4431039Y-8617912D01*
X4431039Y-8617912D02*
X4431039Y-8446484D01*
X4688182Y-8646484D02*
X4688182Y-8446484D01*
X4688182Y-8446484D02*
X4754849Y-8589341D01*
X4754849Y-8589341D02*
X4821515Y-8446484D01*
X4821515Y-8446484D02*
X4821515Y-8646484D01*
X5002468Y-8646484D02*
X5002468Y-8541722D01*
X5002468Y-8541722D02*
X4992944Y-8522674D01*
X4992944Y-8522674D02*
X4973896Y-8513150D01*
X4973896Y-8513150D02*
X4935801Y-8513150D01*
X4935801Y-8513150D02*
X4916754Y-8522674D01*
X5002468Y-8636960D02*
X4983420Y-8646484D01*
X4983420Y-8646484D02*
X4935801Y-8646484D01*
X4935801Y-8646484D02*
X4916754Y-8636960D01*
X4916754Y-8636960D02*
X4907230Y-8617912D01*
X4907230Y-8617912D02*
X4907230Y-8598865D01*
X4907230Y-8598865D02*
X4916754Y-8579817D01*
X4916754Y-8579817D02*
X4935801Y-8570293D01*
X4935801Y-8570293D02*
X4983420Y-8570293D01*
X4983420Y-8570293D02*
X5002468Y-8560770D01*
X5097706Y-8513150D02*
X5097706Y-8713150D01*
X5097706Y-8522674D02*
X5116754Y-8513150D01*
X5116754Y-8513150D02*
X5154849Y-8513150D01*
X5154849Y-8513150D02*
X5173896Y-8522674D01*
X5173896Y-8522674D02*
X5183420Y-8532198D01*
X5183420Y-8532198D02*
X5192944Y-8551246D01*
X5192944Y-8551246D02*
X5192944Y-8608389D01*
X5192944Y-8608389D02*
X5183420Y-8627436D01*
X5183420Y-8627436D02*
X5173896Y-8636960D01*
X5173896Y-8636960D02*
X5154849Y-8646484D01*
X5154849Y-8646484D02*
X5116754Y-8646484D01*
X5116754Y-8646484D02*
X5097706Y-8636960D01*
X5278658Y-8627436D02*
X5288182Y-8636960D01*
X5288182Y-8636960D02*
X5278658Y-8646484D01*
X5278658Y-8646484D02*
X5269135Y-8636960D01*
X5269135Y-8636960D02*
X5278658Y-8627436D01*
X5278658Y-8627436D02*
X5278658Y-8646484D01*
X5278658Y-8522674D02*
X5288182Y-8532198D01*
X5288182Y-8532198D02*
X5278658Y-8541722D01*
X5278658Y-8541722D02*
X5269135Y-8532198D01*
X5269135Y-8532198D02*
X5278658Y-8522674D01*
X5278658Y-8522674D02*
X5278658Y-8541722D01*
D12*
X3616453Y-8960000D02*
X3646453Y-8990000D01*
X3646453Y-8960000D02*
X3616453Y-8990000D01*
D11*
X3945325Y-8866484D02*
X3964373Y-8866484D01*
X3964373Y-8866484D02*
X3983420Y-8876008D01*
X3983420Y-8876008D02*
X3992944Y-8885531D01*
X3992944Y-8885531D02*
X4002468Y-8904579D01*
X4002468Y-8904579D02*
X4011992Y-8942674D01*
X4011992Y-8942674D02*
X4011992Y-8990293D01*
X4011992Y-8990293D02*
X4002468Y-9028389D01*
X4002468Y-9028389D02*
X3992944Y-9047436D01*
X3992944Y-9047436D02*
X3983420Y-9056960D01*
X3983420Y-9056960D02*
X3964373Y-9066484D01*
X3964373Y-9066484D02*
X3945325Y-9066484D01*
X3945325Y-9066484D02*
X3926277Y-9056960D01*
X3926277Y-9056960D02*
X3916753Y-9047436D01*
X3916753Y-9047436D02*
X3907230Y-9028389D01*
X3907230Y-9028389D02*
X3897706Y-8990293D01*
X3897706Y-8990293D02*
X3897706Y-8942674D01*
X3897706Y-8942674D02*
X3907230Y-8904579D01*
X3907230Y-8904579D02*
X3916753Y-8885531D01*
X3916753Y-8885531D02*
X3926277Y-8876008D01*
X3926277Y-8876008D02*
X3945325Y-8866484D01*
X4097706Y-9047436D02*
X4107230Y-9056960D01*
X4107230Y-9056960D02*
X4097706Y-9066484D01*
X4097706Y-9066484D02*
X4088182Y-9056960D01*
X4088182Y-9056960D02*
X4097706Y-9047436D01*
X4097706Y-9047436D02*
X4097706Y-9066484D01*
X4173896Y-8866484D02*
X4297706Y-8866484D01*
X4297706Y-8866484D02*
X4231039Y-8942674D01*
X4231039Y-8942674D02*
X4259611Y-8942674D01*
X4259611Y-8942674D02*
X4278658Y-8952198D01*
X4278658Y-8952198D02*
X4288182Y-8961722D01*
X4288182Y-8961722D02*
X4297706Y-8980770D01*
X4297706Y-8980770D02*
X4297706Y-9028389D01*
X4297706Y-9028389D02*
X4288182Y-9047436D01*
X4288182Y-9047436D02*
X4278658Y-9056960D01*
X4278658Y-9056960D02*
X4259611Y-9066484D01*
X4259611Y-9066484D02*
X4202468Y-9066484D01*
X4202468Y-9066484D02*
X4183420Y-9056960D01*
X4183420Y-9056960D02*
X4173896Y-9047436D01*
X4421515Y-8866484D02*
X4440563Y-8866484D01*
X4440563Y-8866484D02*
X4459611Y-8876008D01*
X4459611Y-8876008D02*
X4469135Y-8885531D01*
X4469135Y-8885531D02*
X4478658Y-8904579D01*
X4478658Y-8904579D02*
X4488182Y-8942674D01*
X4488182Y-8942674D02*
X4488182Y-8990293D01*
X4488182Y-8990293D02*
X4478658Y-9028389D01*
X4478658Y-9028389D02*
X4469135Y-9047436D01*
X4469135Y-9047436D02*
X4459611Y-9056960D01*
X4459611Y-9056960D02*
X4440563Y-9066484D01*
X4440563Y-9066484D02*
X4421515Y-9066484D01*
X4421515Y-9066484D02*
X4402468Y-9056960D01*
X4402468Y-9056960D02*
X4392944Y-9047436D01*
X4392944Y-9047436D02*
X4383420Y-9028389D01*
X4383420Y-9028389D02*
X4373896Y-8990293D01*
X4373896Y-8990293D02*
X4373896Y-8942674D01*
X4373896Y-8942674D02*
X4383420Y-8904579D01*
X4383420Y-8904579D02*
X4392944Y-8885531D01*
X4392944Y-8885531D02*
X4402468Y-8876008D01*
X4402468Y-8876008D02*
X4421515Y-8866484D01*
X4611992Y-8866484D02*
X4631039Y-8866484D01*
X4631039Y-8866484D02*
X4650087Y-8876008D01*
X4650087Y-8876008D02*
X4659611Y-8885531D01*
X4659611Y-8885531D02*
X4669135Y-8904579D01*
X4669135Y-8904579D02*
X4678658Y-8942674D01*
X4678658Y-8942674D02*
X4678658Y-8990293D01*
X4678658Y-8990293D02*
X4669135Y-9028389D01*
X4669135Y-9028389D02*
X4659611Y-9047436D01*
X4659611Y-9047436D02*
X4650087Y-9056960D01*
X4650087Y-9056960D02*
X4631039Y-9066484D01*
X4631039Y-9066484D02*
X4611992Y-9066484D01*
X4611992Y-9066484D02*
X4592944Y-9056960D01*
X4592944Y-9056960D02*
X4583420Y-9047436D01*
X4583420Y-9047436D02*
X4573896Y-9028389D01*
X4573896Y-9028389D02*
X4564373Y-8990293D01*
X4564373Y-8990293D02*
X4564373Y-8942674D01*
X4564373Y-8942674D02*
X4573896Y-8904579D01*
X4573896Y-8904579D02*
X4583420Y-8885531D01*
X4583420Y-8885531D02*
X4592944Y-8876008D01*
X4592944Y-8876008D02*
X4611992Y-8866484D01*
X4764373Y-9066484D02*
X4764373Y-8933150D01*
X4764373Y-8952198D02*
X4773896Y-8942674D01*
X4773896Y-8942674D02*
X4792944Y-8933150D01*
X4792944Y-8933150D02*
X4821516Y-8933150D01*
X4821516Y-8933150D02*
X4840563Y-8942674D01*
X4840563Y-8942674D02*
X4850087Y-8961722D01*
X4850087Y-8961722D02*
X4850087Y-9066484D01*
X4850087Y-8961722D02*
X4859611Y-8942674D01*
X4859611Y-8942674D02*
X4878658Y-8933150D01*
X4878658Y-8933150D02*
X4907230Y-8933150D01*
X4907230Y-8933150D02*
X4926277Y-8942674D01*
X4926277Y-8942674D02*
X4935801Y-8961722D01*
X4935801Y-8961722D02*
X4935801Y-9066484D01*
X5031039Y-9066484D02*
X5031039Y-8933150D01*
X5031039Y-8952198D02*
X5040563Y-8942674D01*
X5040563Y-8942674D02*
X5059611Y-8933150D01*
X5059611Y-8933150D02*
X5088182Y-8933150D01*
X5088182Y-8933150D02*
X5107230Y-8942674D01*
X5107230Y-8942674D02*
X5116754Y-8961722D01*
X5116754Y-8961722D02*
X5116754Y-9066484D01*
X5116754Y-8961722D02*
X5126277Y-8942674D01*
X5126277Y-8942674D02*
X5145325Y-8933150D01*
X5145325Y-8933150D02*
X5173896Y-8933150D01*
X5173896Y-8933150D02*
X5192944Y-8942674D01*
X5192944Y-8942674D02*
X5202468Y-8961722D01*
X5202468Y-8961722D02*
X5202468Y-9066484D01*
X5592944Y-8856960D02*
X5421516Y-9114103D01*
X5850087Y-8866484D02*
X5869135Y-8866484D01*
X5869135Y-8866484D02*
X5888182Y-8876008D01*
X5888182Y-8876008D02*
X5897706Y-8885531D01*
X5897706Y-8885531D02*
X5907230Y-8904579D01*
X5907230Y-8904579D02*
X5916754Y-8942674D01*
X5916754Y-8942674D02*
X5916754Y-8990293D01*
X5916754Y-8990293D02*
X5907230Y-9028389D01*
X5907230Y-9028389D02*
X5897706Y-9047436D01*
X5897706Y-9047436D02*
X5888182Y-9056960D01*
X5888182Y-9056960D02*
X5869135Y-9066484D01*
X5869135Y-9066484D02*
X5850087Y-9066484D01*
X5850087Y-9066484D02*
X5831039Y-9056960D01*
X5831039Y-9056960D02*
X5821516Y-9047436D01*
X5821516Y-9047436D02*
X5811992Y-9028389D01*
X5811992Y-9028389D02*
X5802468Y-8990293D01*
X5802468Y-8990293D02*
X5802468Y-8942674D01*
X5802468Y-8942674D02*
X5811992Y-8904579D01*
X5811992Y-8904579D02*
X5821516Y-8885531D01*
X5821516Y-8885531D02*
X5831039Y-8876008D01*
X5831039Y-8876008D02*
X5850087Y-8866484D01*
X6002468Y-9047436D02*
X6011992Y-9056960D01*
X6011992Y-9056960D02*
X6002468Y-9066484D01*
X6002468Y-9066484D02*
X5992944Y-9056960D01*
X5992944Y-9056960D02*
X6002468Y-9047436D01*
X6002468Y-9047436D02*
X6002468Y-9066484D01*
X6135801Y-8866484D02*
X6154849Y-8866484D01*
X6154849Y-8866484D02*
X6173897Y-8876008D01*
X6173897Y-8876008D02*
X6183420Y-8885531D01*
X6183420Y-8885531D02*
X6192944Y-8904579D01*
X6192944Y-8904579D02*
X6202468Y-8942674D01*
X6202468Y-8942674D02*
X6202468Y-8990293D01*
X6202468Y-8990293D02*
X6192944Y-9028389D01*
X6192944Y-9028389D02*
X6183420Y-9047436D01*
X6183420Y-9047436D02*
X6173897Y-9056960D01*
X6173897Y-9056960D02*
X6154849Y-9066484D01*
X6154849Y-9066484D02*
X6135801Y-9066484D01*
X6135801Y-9066484D02*
X6116754Y-9056960D01*
X6116754Y-9056960D02*
X6107230Y-9047436D01*
X6107230Y-9047436D02*
X6097706Y-9028389D01*
X6097706Y-9028389D02*
X6088182Y-8990293D01*
X6088182Y-8990293D02*
X6088182Y-8942674D01*
X6088182Y-8942674D02*
X6097706Y-8904579D01*
X6097706Y-8904579D02*
X6107230Y-8885531D01*
X6107230Y-8885531D02*
X6116754Y-8876008D01*
X6116754Y-8876008D02*
X6135801Y-8866484D01*
X6392944Y-9066484D02*
X6278658Y-9066484D01*
X6335801Y-9066484D02*
X6335801Y-8866484D01*
X6335801Y-8866484D02*
X6316754Y-8895055D01*
X6316754Y-8895055D02*
X6297706Y-8914103D01*
X6297706Y-8914103D02*
X6278658Y-8923627D01*
X6583420Y-9066484D02*
X6469135Y-9066484D01*
X6526277Y-9066484D02*
X6526277Y-8866484D01*
X6526277Y-8866484D02*
X6507230Y-8895055D01*
X6507230Y-8895055D02*
X6488182Y-8914103D01*
X6488182Y-8914103D02*
X6469135Y-8923627D01*
X6697706Y-8952198D02*
X6678658Y-8942674D01*
X6678658Y-8942674D02*
X6669135Y-8933150D01*
X6669135Y-8933150D02*
X6659611Y-8914103D01*
X6659611Y-8914103D02*
X6659611Y-8904579D01*
X6659611Y-8904579D02*
X6669135Y-8885531D01*
X6669135Y-8885531D02*
X6678658Y-8876008D01*
X6678658Y-8876008D02*
X6697706Y-8866484D01*
X6697706Y-8866484D02*
X6735801Y-8866484D01*
X6735801Y-8866484D02*
X6754849Y-8876008D01*
X6754849Y-8876008D02*
X6764373Y-8885531D01*
X6764373Y-8885531D02*
X6773897Y-8904579D01*
X6773897Y-8904579D02*
X6773897Y-8914103D01*
X6773897Y-8914103D02*
X6764373Y-8933150D01*
X6764373Y-8933150D02*
X6754849Y-8942674D01*
X6754849Y-8942674D02*
X6735801Y-8952198D01*
X6735801Y-8952198D02*
X6697706Y-8952198D01*
X6697706Y-8952198D02*
X6678658Y-8961722D01*
X6678658Y-8961722D02*
X6669135Y-8971246D01*
X6669135Y-8971246D02*
X6659611Y-8990293D01*
X6659611Y-8990293D02*
X6659611Y-9028389D01*
X6659611Y-9028389D02*
X6669135Y-9047436D01*
X6669135Y-9047436D02*
X6678658Y-9056960D01*
X6678658Y-9056960D02*
X6697706Y-9066484D01*
X6697706Y-9066484D02*
X6735801Y-9066484D01*
X6735801Y-9066484D02*
X6754849Y-9056960D01*
X6754849Y-9056960D02*
X6764373Y-9047436D01*
X6764373Y-9047436D02*
X6773897Y-9028389D01*
X6773897Y-9028389D02*
X6773897Y-8990293D01*
X6773897Y-8990293D02*
X6764373Y-8971246D01*
X6764373Y-8971246D02*
X6754849Y-8961722D01*
X6754849Y-8961722D02*
X6735801Y-8952198D01*
X6850087Y-8866484D02*
X6850087Y-8904579D01*
X6926278Y-8866484D02*
X6926278Y-8904579D01*
X7221516Y-9142674D02*
X7211992Y-9133150D01*
X7211992Y-9133150D02*
X7192944Y-9104579D01*
X7192944Y-9104579D02*
X7183420Y-9085531D01*
X7183420Y-9085531D02*
X7173897Y-9056960D01*
X7173897Y-9056960D02*
X7164373Y-9009341D01*
X7164373Y-9009341D02*
X7164373Y-8971246D01*
X7164373Y-8971246D02*
X7173897Y-8923627D01*
X7173897Y-8923627D02*
X7183420Y-8895055D01*
X7183420Y-8895055D02*
X7192944Y-8876008D01*
X7192944Y-8876008D02*
X7211992Y-8847436D01*
X7211992Y-8847436D02*
X7221516Y-8837912D01*
X7288182Y-8885531D02*
X7297706Y-8876008D01*
X7297706Y-8876008D02*
X7316754Y-8866484D01*
X7316754Y-8866484D02*
X7364373Y-8866484D01*
X7364373Y-8866484D02*
X7383420Y-8876008D01*
X7383420Y-8876008D02*
X7392944Y-8885531D01*
X7392944Y-8885531D02*
X7402468Y-8904579D01*
X7402468Y-8904579D02*
X7402468Y-8923627D01*
X7402468Y-8923627D02*
X7392944Y-8952198D01*
X7392944Y-8952198D02*
X7278659Y-9066484D01*
X7278659Y-9066484D02*
X7402468Y-9066484D01*
X7592944Y-9066484D02*
X7478659Y-9066484D01*
X7535801Y-9066484D02*
X7535801Y-8866484D01*
X7535801Y-8866484D02*
X7516754Y-8895055D01*
X7516754Y-8895055D02*
X7497706Y-8914103D01*
X7497706Y-8914103D02*
X7478659Y-8923627D01*
X7764373Y-8866484D02*
X7726278Y-8866484D01*
X7726278Y-8866484D02*
X7707230Y-8876008D01*
X7707230Y-8876008D02*
X7697706Y-8885531D01*
X7697706Y-8885531D02*
X7678659Y-8914103D01*
X7678659Y-8914103D02*
X7669135Y-8952198D01*
X7669135Y-8952198D02*
X7669135Y-9028389D01*
X7669135Y-9028389D02*
X7678659Y-9047436D01*
X7678659Y-9047436D02*
X7688182Y-9056960D01*
X7688182Y-9056960D02*
X7707230Y-9066484D01*
X7707230Y-9066484D02*
X7745325Y-9066484D01*
X7745325Y-9066484D02*
X7764373Y-9056960D01*
X7764373Y-9056960D02*
X7773897Y-9047436D01*
X7773897Y-9047436D02*
X7783420Y-9028389D01*
X7783420Y-9028389D02*
X7783420Y-8980770D01*
X7783420Y-8980770D02*
X7773897Y-8961722D01*
X7773897Y-8961722D02*
X7764373Y-8952198D01*
X7764373Y-8952198D02*
X7745325Y-8942674D01*
X7745325Y-8942674D02*
X7707230Y-8942674D01*
X7707230Y-8942674D02*
X7688182Y-8952198D01*
X7688182Y-8952198D02*
X7678659Y-8961722D01*
X7678659Y-8961722D02*
X7669135Y-8980770D01*
X8021516Y-9066484D02*
X8021516Y-8866484D01*
X8107230Y-9066484D02*
X8107230Y-8961722D01*
X8107230Y-8961722D02*
X8097706Y-8942674D01*
X8097706Y-8942674D02*
X8078659Y-8933150D01*
X8078659Y-8933150D02*
X8050087Y-8933150D01*
X8050087Y-8933150D02*
X8031040Y-8942674D01*
X8031040Y-8942674D02*
X8021516Y-8952198D01*
X8231040Y-9066484D02*
X8211992Y-9056960D01*
X8211992Y-9056960D02*
X8202468Y-9047436D01*
X8202468Y-9047436D02*
X8192944Y-9028389D01*
X8192944Y-9028389D02*
X8192944Y-8971246D01*
X8192944Y-8971246D02*
X8202468Y-8952198D01*
X8202468Y-8952198D02*
X8211992Y-8942674D01*
X8211992Y-8942674D02*
X8231040Y-8933150D01*
X8231040Y-8933150D02*
X8259611Y-8933150D01*
X8259611Y-8933150D02*
X8278659Y-8942674D01*
X8278659Y-8942674D02*
X8288182Y-8952198D01*
X8288182Y-8952198D02*
X8297706Y-8971246D01*
X8297706Y-8971246D02*
X8297706Y-9028389D01*
X8297706Y-9028389D02*
X8288182Y-9047436D01*
X8288182Y-9047436D02*
X8278659Y-9056960D01*
X8278659Y-9056960D02*
X8259611Y-9066484D01*
X8259611Y-9066484D02*
X8231040Y-9066484D01*
X8411992Y-9066484D02*
X8392944Y-9056960D01*
X8392944Y-9056960D02*
X8383421Y-9037912D01*
X8383421Y-9037912D02*
X8383421Y-8866484D01*
X8564373Y-9056960D02*
X8545325Y-9066484D01*
X8545325Y-9066484D02*
X8507230Y-9066484D01*
X8507230Y-9066484D02*
X8488183Y-9056960D01*
X8488183Y-9056960D02*
X8478659Y-9037912D01*
X8478659Y-9037912D02*
X8478659Y-8961722D01*
X8478659Y-8961722D02*
X8488183Y-8942674D01*
X8488183Y-8942674D02*
X8507230Y-8933150D01*
X8507230Y-8933150D02*
X8545325Y-8933150D01*
X8545325Y-8933150D02*
X8564373Y-8942674D01*
X8564373Y-8942674D02*
X8573897Y-8961722D01*
X8573897Y-8961722D02*
X8573897Y-8980770D01*
X8573897Y-8980770D02*
X8478659Y-8999817D01*
X8650087Y-9056960D02*
X8669135Y-9066484D01*
X8669135Y-9066484D02*
X8707230Y-9066484D01*
X8707230Y-9066484D02*
X8726278Y-9056960D01*
X8726278Y-9056960D02*
X8735802Y-9037912D01*
X8735802Y-9037912D02*
X8735802Y-9028389D01*
X8735802Y-9028389D02*
X8726278Y-9009341D01*
X8726278Y-9009341D02*
X8707230Y-8999817D01*
X8707230Y-8999817D02*
X8678659Y-8999817D01*
X8678659Y-8999817D02*
X8659611Y-8990293D01*
X8659611Y-8990293D02*
X8650087Y-8971246D01*
X8650087Y-8971246D02*
X8650087Y-8961722D01*
X8650087Y-8961722D02*
X8659611Y-8942674D01*
X8659611Y-8942674D02*
X8678659Y-8933150D01*
X8678659Y-8933150D02*
X8707230Y-8933150D01*
X8707230Y-8933150D02*
X8726278Y-8942674D01*
X8802468Y-9142674D02*
X8811992Y-9133150D01*
X8811992Y-9133150D02*
X8831040Y-9104579D01*
X8831040Y-9104579D02*
X8840564Y-9085531D01*
X8840564Y-9085531D02*
X8850087Y-9056960D01*
X8850087Y-9056960D02*
X8859611Y-9009341D01*
X8859611Y-9009341D02*
X8859611Y-8971246D01*
X8859611Y-8971246D02*
X8850087Y-8923627D01*
X8850087Y-8923627D02*
X8840564Y-8895055D01*
X8840564Y-8895055D02*
X8831040Y-8876008D01*
X8831040Y-8876008D02*
X8811992Y-8847436D01*
X8811992Y-8847436D02*
X8802468Y-8837912D01*
D12*
X3646453Y-9239000D02*
G75*
G02*
X3557453Y-9239000I-44500J0D01*
G01*
X3557453Y-9239000D02*
G75*
G02*
X3646453Y-9239000I44500J0D01*
G01*
D11*
X3945325Y-9130484D02*
X3964373Y-9130484D01*
X3964373Y-9130484D02*
X3983420Y-9140008D01*
X3983420Y-9140008D02*
X3992944Y-9149531D01*
X3992944Y-9149531D02*
X4002468Y-9168579D01*
X4002468Y-9168579D02*
X4011992Y-9206674D01*
X4011992Y-9206674D02*
X4011992Y-9254293D01*
X4011992Y-9254293D02*
X4002468Y-9292389D01*
X4002468Y-9292389D02*
X3992944Y-9311436D01*
X3992944Y-9311436D02*
X3983420Y-9320960D01*
X3983420Y-9320960D02*
X3964373Y-9330484D01*
X3964373Y-9330484D02*
X3945325Y-9330484D01*
X3945325Y-9330484D02*
X3926277Y-9320960D01*
X3926277Y-9320960D02*
X3916753Y-9311436D01*
X3916753Y-9311436D02*
X3907230Y-9292389D01*
X3907230Y-9292389D02*
X3897706Y-9254293D01*
X3897706Y-9254293D02*
X3897706Y-9206674D01*
X3897706Y-9206674D02*
X3907230Y-9168579D01*
X3907230Y-9168579D02*
X3916753Y-9149531D01*
X3916753Y-9149531D02*
X3926277Y-9140008D01*
X3926277Y-9140008D02*
X3945325Y-9130484D01*
X4097706Y-9311436D02*
X4107230Y-9320960D01*
X4107230Y-9320960D02*
X4097706Y-9330484D01*
X4097706Y-9330484D02*
X4088182Y-9320960D01*
X4088182Y-9320960D02*
X4097706Y-9311436D01*
X4097706Y-9311436D02*
X4097706Y-9330484D01*
X4221515Y-9216198D02*
X4202468Y-9206674D01*
X4202468Y-9206674D02*
X4192944Y-9197150D01*
X4192944Y-9197150D02*
X4183420Y-9178103D01*
X4183420Y-9178103D02*
X4183420Y-9168579D01*
X4183420Y-9168579D02*
X4192944Y-9149531D01*
X4192944Y-9149531D02*
X4202468Y-9140008D01*
X4202468Y-9140008D02*
X4221515Y-9130484D01*
X4221515Y-9130484D02*
X4259611Y-9130484D01*
X4259611Y-9130484D02*
X4278658Y-9140008D01*
X4278658Y-9140008D02*
X4288182Y-9149531D01*
X4288182Y-9149531D02*
X4297706Y-9168579D01*
X4297706Y-9168579D02*
X4297706Y-9178103D01*
X4297706Y-9178103D02*
X4288182Y-9197150D01*
X4288182Y-9197150D02*
X4278658Y-9206674D01*
X4278658Y-9206674D02*
X4259611Y-9216198D01*
X4259611Y-9216198D02*
X4221515Y-9216198D01*
X4221515Y-9216198D02*
X4202468Y-9225722D01*
X4202468Y-9225722D02*
X4192944Y-9235246D01*
X4192944Y-9235246D02*
X4183420Y-9254293D01*
X4183420Y-9254293D02*
X4183420Y-9292389D01*
X4183420Y-9292389D02*
X4192944Y-9311436D01*
X4192944Y-9311436D02*
X4202468Y-9320960D01*
X4202468Y-9320960D02*
X4221515Y-9330484D01*
X4221515Y-9330484D02*
X4259611Y-9330484D01*
X4259611Y-9330484D02*
X4278658Y-9320960D01*
X4278658Y-9320960D02*
X4288182Y-9311436D01*
X4288182Y-9311436D02*
X4297706Y-9292389D01*
X4297706Y-9292389D02*
X4297706Y-9254293D01*
X4297706Y-9254293D02*
X4288182Y-9235246D01*
X4288182Y-9235246D02*
X4278658Y-9225722D01*
X4278658Y-9225722D02*
X4259611Y-9216198D01*
X4392944Y-9330484D02*
X4431039Y-9330484D01*
X4431039Y-9330484D02*
X4450087Y-9320960D01*
X4450087Y-9320960D02*
X4459611Y-9311436D01*
X4459611Y-9311436D02*
X4478658Y-9282865D01*
X4478658Y-9282865D02*
X4488182Y-9244770D01*
X4488182Y-9244770D02*
X4488182Y-9168579D01*
X4488182Y-9168579D02*
X4478658Y-9149531D01*
X4478658Y-9149531D02*
X4469135Y-9140008D01*
X4469135Y-9140008D02*
X4450087Y-9130484D01*
X4450087Y-9130484D02*
X4411992Y-9130484D01*
X4411992Y-9130484D02*
X4392944Y-9140008D01*
X4392944Y-9140008D02*
X4383420Y-9149531D01*
X4383420Y-9149531D02*
X4373896Y-9168579D01*
X4373896Y-9168579D02*
X4373896Y-9216198D01*
X4373896Y-9216198D02*
X4383420Y-9235246D01*
X4383420Y-9235246D02*
X4392944Y-9244770D01*
X4392944Y-9244770D02*
X4411992Y-9254293D01*
X4411992Y-9254293D02*
X4450087Y-9254293D01*
X4450087Y-9254293D02*
X4469135Y-9244770D01*
X4469135Y-9244770D02*
X4478658Y-9235246D01*
X4478658Y-9235246D02*
X4488182Y-9216198D01*
X4611992Y-9130484D02*
X4631039Y-9130484D01*
X4631039Y-9130484D02*
X4650087Y-9140008D01*
X4650087Y-9140008D02*
X4659611Y-9149531D01*
X4659611Y-9149531D02*
X4669135Y-9168579D01*
X4669135Y-9168579D02*
X4678658Y-9206674D01*
X4678658Y-9206674D02*
X4678658Y-9254293D01*
X4678658Y-9254293D02*
X4669135Y-9292389D01*
X4669135Y-9292389D02*
X4659611Y-9311436D01*
X4659611Y-9311436D02*
X4650087Y-9320960D01*
X4650087Y-9320960D02*
X4631039Y-9330484D01*
X4631039Y-9330484D02*
X4611992Y-9330484D01*
X4611992Y-9330484D02*
X4592944Y-9320960D01*
X4592944Y-9320960D02*
X4583420Y-9311436D01*
X4583420Y-9311436D02*
X4573896Y-9292389D01*
X4573896Y-9292389D02*
X4564373Y-9254293D01*
X4564373Y-9254293D02*
X4564373Y-9206674D01*
X4564373Y-9206674D02*
X4573896Y-9168579D01*
X4573896Y-9168579D02*
X4583420Y-9149531D01*
X4583420Y-9149531D02*
X4592944Y-9140008D01*
X4592944Y-9140008D02*
X4611992Y-9130484D01*
X4764373Y-9330484D02*
X4764373Y-9197150D01*
X4764373Y-9216198D02*
X4773896Y-9206674D01*
X4773896Y-9206674D02*
X4792944Y-9197150D01*
X4792944Y-9197150D02*
X4821516Y-9197150D01*
X4821516Y-9197150D02*
X4840563Y-9206674D01*
X4840563Y-9206674D02*
X4850087Y-9225722D01*
X4850087Y-9225722D02*
X4850087Y-9330484D01*
X4850087Y-9225722D02*
X4859611Y-9206674D01*
X4859611Y-9206674D02*
X4878658Y-9197150D01*
X4878658Y-9197150D02*
X4907230Y-9197150D01*
X4907230Y-9197150D02*
X4926277Y-9206674D01*
X4926277Y-9206674D02*
X4935801Y-9225722D01*
X4935801Y-9225722D02*
X4935801Y-9330484D01*
X5031039Y-9330484D02*
X5031039Y-9197150D01*
X5031039Y-9216198D02*
X5040563Y-9206674D01*
X5040563Y-9206674D02*
X5059611Y-9197150D01*
X5059611Y-9197150D02*
X5088182Y-9197150D01*
X5088182Y-9197150D02*
X5107230Y-9206674D01*
X5107230Y-9206674D02*
X5116754Y-9225722D01*
X5116754Y-9225722D02*
X5116754Y-9330484D01*
X5116754Y-9225722D02*
X5126277Y-9206674D01*
X5126277Y-9206674D02*
X5145325Y-9197150D01*
X5145325Y-9197150D02*
X5173896Y-9197150D01*
X5173896Y-9197150D02*
X5192944Y-9206674D01*
X5192944Y-9206674D02*
X5202468Y-9225722D01*
X5202468Y-9225722D02*
X5202468Y-9330484D01*
X5592944Y-9120960D02*
X5421516Y-9378103D01*
X5850087Y-9130484D02*
X5869135Y-9130484D01*
X5869135Y-9130484D02*
X5888182Y-9140008D01*
X5888182Y-9140008D02*
X5897706Y-9149531D01*
X5897706Y-9149531D02*
X5907230Y-9168579D01*
X5907230Y-9168579D02*
X5916754Y-9206674D01*
X5916754Y-9206674D02*
X5916754Y-9254293D01*
X5916754Y-9254293D02*
X5907230Y-9292389D01*
X5907230Y-9292389D02*
X5897706Y-9311436D01*
X5897706Y-9311436D02*
X5888182Y-9320960D01*
X5888182Y-9320960D02*
X5869135Y-9330484D01*
X5869135Y-9330484D02*
X5850087Y-9330484D01*
X5850087Y-9330484D02*
X5831039Y-9320960D01*
X5831039Y-9320960D02*
X5821516Y-9311436D01*
X5821516Y-9311436D02*
X5811992Y-9292389D01*
X5811992Y-9292389D02*
X5802468Y-9254293D01*
X5802468Y-9254293D02*
X5802468Y-9206674D01*
X5802468Y-9206674D02*
X5811992Y-9168579D01*
X5811992Y-9168579D02*
X5821516Y-9149531D01*
X5821516Y-9149531D02*
X5831039Y-9140008D01*
X5831039Y-9140008D02*
X5850087Y-9130484D01*
X6002468Y-9311436D02*
X6011992Y-9320960D01*
X6011992Y-9320960D02*
X6002468Y-9330484D01*
X6002468Y-9330484D02*
X5992944Y-9320960D01*
X5992944Y-9320960D02*
X6002468Y-9311436D01*
X6002468Y-9311436D02*
X6002468Y-9330484D01*
X6135801Y-9130484D02*
X6154849Y-9130484D01*
X6154849Y-9130484D02*
X6173897Y-9140008D01*
X6173897Y-9140008D02*
X6183420Y-9149531D01*
X6183420Y-9149531D02*
X6192944Y-9168579D01*
X6192944Y-9168579D02*
X6202468Y-9206674D01*
X6202468Y-9206674D02*
X6202468Y-9254293D01*
X6202468Y-9254293D02*
X6192944Y-9292389D01*
X6192944Y-9292389D02*
X6183420Y-9311436D01*
X6183420Y-9311436D02*
X6173897Y-9320960D01*
X6173897Y-9320960D02*
X6154849Y-9330484D01*
X6154849Y-9330484D02*
X6135801Y-9330484D01*
X6135801Y-9330484D02*
X6116754Y-9320960D01*
X6116754Y-9320960D02*
X6107230Y-9311436D01*
X6107230Y-9311436D02*
X6097706Y-9292389D01*
X6097706Y-9292389D02*
X6088182Y-9254293D01*
X6088182Y-9254293D02*
X6088182Y-9206674D01*
X6088182Y-9206674D02*
X6097706Y-9168579D01*
X6097706Y-9168579D02*
X6107230Y-9149531D01*
X6107230Y-9149531D02*
X6116754Y-9140008D01*
X6116754Y-9140008D02*
X6135801Y-9130484D01*
X6269135Y-9130484D02*
X6392944Y-9130484D01*
X6392944Y-9130484D02*
X6326277Y-9206674D01*
X6326277Y-9206674D02*
X6354849Y-9206674D01*
X6354849Y-9206674D02*
X6373897Y-9216198D01*
X6373897Y-9216198D02*
X6383420Y-9225722D01*
X6383420Y-9225722D02*
X6392944Y-9244770D01*
X6392944Y-9244770D02*
X6392944Y-9292389D01*
X6392944Y-9292389D02*
X6383420Y-9311436D01*
X6383420Y-9311436D02*
X6373897Y-9320960D01*
X6373897Y-9320960D02*
X6354849Y-9330484D01*
X6354849Y-9330484D02*
X6297706Y-9330484D01*
X6297706Y-9330484D02*
X6278658Y-9320960D01*
X6278658Y-9320960D02*
X6269135Y-9311436D01*
X6573897Y-9130484D02*
X6478658Y-9130484D01*
X6478658Y-9130484D02*
X6469135Y-9225722D01*
X6469135Y-9225722D02*
X6478658Y-9216198D01*
X6478658Y-9216198D02*
X6497706Y-9206674D01*
X6497706Y-9206674D02*
X6545325Y-9206674D01*
X6545325Y-9206674D02*
X6564373Y-9216198D01*
X6564373Y-9216198D02*
X6573897Y-9225722D01*
X6573897Y-9225722D02*
X6583420Y-9244770D01*
X6583420Y-9244770D02*
X6583420Y-9292389D01*
X6583420Y-9292389D02*
X6573897Y-9311436D01*
X6573897Y-9311436D02*
X6564373Y-9320960D01*
X6564373Y-9320960D02*
X6545325Y-9330484D01*
X6545325Y-9330484D02*
X6497706Y-9330484D01*
X6497706Y-9330484D02*
X6478658Y-9320960D01*
X6478658Y-9320960D02*
X6469135Y-9311436D01*
X6707230Y-9130484D02*
X6726278Y-9130484D01*
X6726278Y-9130484D02*
X6745325Y-9140008D01*
X6745325Y-9140008D02*
X6754849Y-9149531D01*
X6754849Y-9149531D02*
X6764373Y-9168579D01*
X6764373Y-9168579D02*
X6773897Y-9206674D01*
X6773897Y-9206674D02*
X6773897Y-9254293D01*
X6773897Y-9254293D02*
X6764373Y-9292389D01*
X6764373Y-9292389D02*
X6754849Y-9311436D01*
X6754849Y-9311436D02*
X6745325Y-9320960D01*
X6745325Y-9320960D02*
X6726278Y-9330484D01*
X6726278Y-9330484D02*
X6707230Y-9330484D01*
X6707230Y-9330484D02*
X6688182Y-9320960D01*
X6688182Y-9320960D02*
X6678658Y-9311436D01*
X6678658Y-9311436D02*
X6669135Y-9292389D01*
X6669135Y-9292389D02*
X6659611Y-9254293D01*
X6659611Y-9254293D02*
X6659611Y-9206674D01*
X6659611Y-9206674D02*
X6669135Y-9168579D01*
X6669135Y-9168579D02*
X6678658Y-9149531D01*
X6678658Y-9149531D02*
X6688182Y-9140008D01*
X6688182Y-9140008D02*
X6707230Y-9130484D01*
X6850087Y-9130484D02*
X6850087Y-9168579D01*
X6926278Y-9130484D02*
X6926278Y-9168579D01*
X7221516Y-9406674D02*
X7211992Y-9397150D01*
X7211992Y-9397150D02*
X7192944Y-9368579D01*
X7192944Y-9368579D02*
X7183420Y-9349531D01*
X7183420Y-9349531D02*
X7173897Y-9320960D01*
X7173897Y-9320960D02*
X7164373Y-9273341D01*
X7164373Y-9273341D02*
X7164373Y-9235246D01*
X7164373Y-9235246D02*
X7173897Y-9187627D01*
X7173897Y-9187627D02*
X7183420Y-9159055D01*
X7183420Y-9159055D02*
X7192944Y-9140008D01*
X7192944Y-9140008D02*
X7211992Y-9111436D01*
X7211992Y-9111436D02*
X7221516Y-9101912D01*
X7288182Y-9149531D02*
X7297706Y-9140008D01*
X7297706Y-9140008D02*
X7316754Y-9130484D01*
X7316754Y-9130484D02*
X7364373Y-9130484D01*
X7364373Y-9130484D02*
X7383420Y-9140008D01*
X7383420Y-9140008D02*
X7392944Y-9149531D01*
X7392944Y-9149531D02*
X7402468Y-9168579D01*
X7402468Y-9168579D02*
X7402468Y-9187627D01*
X7402468Y-9187627D02*
X7392944Y-9216198D01*
X7392944Y-9216198D02*
X7278659Y-9330484D01*
X7278659Y-9330484D02*
X7402468Y-9330484D01*
X7640563Y-9330484D02*
X7640563Y-9130484D01*
X7726278Y-9330484D02*
X7726278Y-9225722D01*
X7726278Y-9225722D02*
X7716754Y-9206674D01*
X7716754Y-9206674D02*
X7697706Y-9197150D01*
X7697706Y-9197150D02*
X7669135Y-9197150D01*
X7669135Y-9197150D02*
X7650087Y-9206674D01*
X7650087Y-9206674D02*
X7640563Y-9216198D01*
X7850087Y-9330484D02*
X7831040Y-9320960D01*
X7831040Y-9320960D02*
X7821516Y-9311436D01*
X7821516Y-9311436D02*
X7811992Y-9292389D01*
X7811992Y-9292389D02*
X7811992Y-9235246D01*
X7811992Y-9235246D02*
X7821516Y-9216198D01*
X7821516Y-9216198D02*
X7831040Y-9206674D01*
X7831040Y-9206674D02*
X7850087Y-9197150D01*
X7850087Y-9197150D02*
X7878659Y-9197150D01*
X7878659Y-9197150D02*
X7897706Y-9206674D01*
X7897706Y-9206674D02*
X7907230Y-9216198D01*
X7907230Y-9216198D02*
X7916754Y-9235246D01*
X7916754Y-9235246D02*
X7916754Y-9292389D01*
X7916754Y-9292389D02*
X7907230Y-9311436D01*
X7907230Y-9311436D02*
X7897706Y-9320960D01*
X7897706Y-9320960D02*
X7878659Y-9330484D01*
X7878659Y-9330484D02*
X7850087Y-9330484D01*
X8031040Y-9330484D02*
X8011992Y-9320960D01*
X8011992Y-9320960D02*
X8002468Y-9301912D01*
X8002468Y-9301912D02*
X8002468Y-9130484D01*
X8183421Y-9320960D02*
X8164373Y-9330484D01*
X8164373Y-9330484D02*
X8126278Y-9330484D01*
X8126278Y-9330484D02*
X8107230Y-9320960D01*
X8107230Y-9320960D02*
X8097706Y-9301912D01*
X8097706Y-9301912D02*
X8097706Y-9225722D01*
X8097706Y-9225722D02*
X8107230Y-9206674D01*
X8107230Y-9206674D02*
X8126278Y-9197150D01*
X8126278Y-9197150D02*
X8164373Y-9197150D01*
X8164373Y-9197150D02*
X8183421Y-9206674D01*
X8183421Y-9206674D02*
X8192944Y-9225722D01*
X8192944Y-9225722D02*
X8192944Y-9244770D01*
X8192944Y-9244770D02*
X8097706Y-9263817D01*
X8269135Y-9320960D02*
X8288182Y-9330484D01*
X8288182Y-9330484D02*
X8326278Y-9330484D01*
X8326278Y-9330484D02*
X8345325Y-9320960D01*
X8345325Y-9320960D02*
X8354849Y-9301912D01*
X8354849Y-9301912D02*
X8354849Y-9292389D01*
X8354849Y-9292389D02*
X8345325Y-9273341D01*
X8345325Y-9273341D02*
X8326278Y-9263817D01*
X8326278Y-9263817D02*
X8297706Y-9263817D01*
X8297706Y-9263817D02*
X8278659Y-9254293D01*
X8278659Y-9254293D02*
X8269135Y-9235246D01*
X8269135Y-9235246D02*
X8269135Y-9225722D01*
X8269135Y-9225722D02*
X8278659Y-9206674D01*
X8278659Y-9206674D02*
X8297706Y-9197150D01*
X8297706Y-9197150D02*
X8326278Y-9197150D01*
X8326278Y-9197150D02*
X8345325Y-9206674D01*
X8421516Y-9406674D02*
X8431040Y-9397150D01*
X8431040Y-9397150D02*
X8450087Y-9368579D01*
X8450087Y-9368579D02*
X8459611Y-9349531D01*
X8459611Y-9349531D02*
X8469135Y-9320960D01*
X8469135Y-9320960D02*
X8478659Y-9273341D01*
X8478659Y-9273341D02*
X8478659Y-9235246D01*
X8478659Y-9235246D02*
X8469135Y-9187627D01*
X8469135Y-9187627D02*
X8459611Y-9159055D01*
X8459611Y-9159055D02*
X8450087Y-9140008D01*
X8450087Y-9140008D02*
X8431040Y-9111436D01*
X8431040Y-9111436D02*
X8421516Y-9101912D01*
D12*
X3596453Y-9453000D02*
X3596453Y-9553000D01*
X3546453Y-9503000D02*
X3646453Y-9503000D01*
D11*
X4011992Y-9594484D02*
X3897706Y-9594484D01*
X3954849Y-9594484D02*
X3954849Y-9394484D01*
X3954849Y-9394484D02*
X3935801Y-9423055D01*
X3935801Y-9423055D02*
X3916753Y-9442103D01*
X3916753Y-9442103D02*
X3897706Y-9451627D01*
X4097706Y-9575436D02*
X4107230Y-9584960D01*
X4107230Y-9584960D02*
X4097706Y-9594484D01*
X4097706Y-9594484D02*
X4088182Y-9584960D01*
X4088182Y-9584960D02*
X4097706Y-9575436D01*
X4097706Y-9575436D02*
X4097706Y-9594484D01*
X4231039Y-9394484D02*
X4250087Y-9394484D01*
X4250087Y-9394484D02*
X4269135Y-9404008D01*
X4269135Y-9404008D02*
X4278658Y-9413531D01*
X4278658Y-9413531D02*
X4288182Y-9432579D01*
X4288182Y-9432579D02*
X4297706Y-9470674D01*
X4297706Y-9470674D02*
X4297706Y-9518293D01*
X4297706Y-9518293D02*
X4288182Y-9556389D01*
X4288182Y-9556389D02*
X4278658Y-9575436D01*
X4278658Y-9575436D02*
X4269135Y-9584960D01*
X4269135Y-9584960D02*
X4250087Y-9594484D01*
X4250087Y-9594484D02*
X4231039Y-9594484D01*
X4231039Y-9594484D02*
X4211992Y-9584960D01*
X4211992Y-9584960D02*
X4202468Y-9575436D01*
X4202468Y-9575436D02*
X4192944Y-9556389D01*
X4192944Y-9556389D02*
X4183420Y-9518293D01*
X4183420Y-9518293D02*
X4183420Y-9470674D01*
X4183420Y-9470674D02*
X4192944Y-9432579D01*
X4192944Y-9432579D02*
X4202468Y-9413531D01*
X4202468Y-9413531D02*
X4211992Y-9404008D01*
X4211992Y-9404008D02*
X4231039Y-9394484D01*
X4421515Y-9394484D02*
X4440563Y-9394484D01*
X4440563Y-9394484D02*
X4459611Y-9404008D01*
X4459611Y-9404008D02*
X4469135Y-9413531D01*
X4469135Y-9413531D02*
X4478658Y-9432579D01*
X4478658Y-9432579D02*
X4488182Y-9470674D01*
X4488182Y-9470674D02*
X4488182Y-9518293D01*
X4488182Y-9518293D02*
X4478658Y-9556389D01*
X4478658Y-9556389D02*
X4469135Y-9575436D01*
X4469135Y-9575436D02*
X4459611Y-9584960D01*
X4459611Y-9584960D02*
X4440563Y-9594484D01*
X4440563Y-9594484D02*
X4421515Y-9594484D01*
X4421515Y-9594484D02*
X4402468Y-9584960D01*
X4402468Y-9584960D02*
X4392944Y-9575436D01*
X4392944Y-9575436D02*
X4383420Y-9556389D01*
X4383420Y-9556389D02*
X4373896Y-9518293D01*
X4373896Y-9518293D02*
X4373896Y-9470674D01*
X4373896Y-9470674D02*
X4383420Y-9432579D01*
X4383420Y-9432579D02*
X4392944Y-9413531D01*
X4392944Y-9413531D02*
X4402468Y-9404008D01*
X4402468Y-9404008D02*
X4421515Y-9394484D01*
X4611992Y-9394484D02*
X4631039Y-9394484D01*
X4631039Y-9394484D02*
X4650087Y-9404008D01*
X4650087Y-9404008D02*
X4659611Y-9413531D01*
X4659611Y-9413531D02*
X4669135Y-9432579D01*
X4669135Y-9432579D02*
X4678658Y-9470674D01*
X4678658Y-9470674D02*
X4678658Y-9518293D01*
X4678658Y-9518293D02*
X4669135Y-9556389D01*
X4669135Y-9556389D02*
X4659611Y-9575436D01*
X4659611Y-9575436D02*
X4650087Y-9584960D01*
X4650087Y-9584960D02*
X4631039Y-9594484D01*
X4631039Y-9594484D02*
X4611992Y-9594484D01*
X4611992Y-9594484D02*
X4592944Y-9584960D01*
X4592944Y-9584960D02*
X4583420Y-9575436D01*
X4583420Y-9575436D02*
X4573896Y-9556389D01*
X4573896Y-9556389D02*
X4564373Y-9518293D01*
X4564373Y-9518293D02*
X4564373Y-9470674D01*
X4564373Y-9470674D02*
X4573896Y-9432579D01*
X4573896Y-9432579D02*
X4583420Y-9413531D01*
X4583420Y-9413531D02*
X4592944Y-9404008D01*
X4592944Y-9404008D02*
X4611992Y-9394484D01*
X4764373Y-9594484D02*
X4764373Y-9461150D01*
X4764373Y-9480198D02*
X4773896Y-9470674D01*
X4773896Y-9470674D02*
X4792944Y-9461150D01*
X4792944Y-9461150D02*
X4821516Y-9461150D01*
X4821516Y-9461150D02*
X4840563Y-9470674D01*
X4840563Y-9470674D02*
X4850087Y-9489722D01*
X4850087Y-9489722D02*
X4850087Y-9594484D01*
X4850087Y-9489722D02*
X4859611Y-9470674D01*
X4859611Y-9470674D02*
X4878658Y-9461150D01*
X4878658Y-9461150D02*
X4907230Y-9461150D01*
X4907230Y-9461150D02*
X4926277Y-9470674D01*
X4926277Y-9470674D02*
X4935801Y-9489722D01*
X4935801Y-9489722D02*
X4935801Y-9594484D01*
X5031039Y-9594484D02*
X5031039Y-9461150D01*
X5031039Y-9480198D02*
X5040563Y-9470674D01*
X5040563Y-9470674D02*
X5059611Y-9461150D01*
X5059611Y-9461150D02*
X5088182Y-9461150D01*
X5088182Y-9461150D02*
X5107230Y-9470674D01*
X5107230Y-9470674D02*
X5116754Y-9489722D01*
X5116754Y-9489722D02*
X5116754Y-9594484D01*
X5116754Y-9489722D02*
X5126277Y-9470674D01*
X5126277Y-9470674D02*
X5145325Y-9461150D01*
X5145325Y-9461150D02*
X5173896Y-9461150D01*
X5173896Y-9461150D02*
X5192944Y-9470674D01*
X5192944Y-9470674D02*
X5202468Y-9489722D01*
X5202468Y-9489722D02*
X5202468Y-9594484D01*
X5592944Y-9384960D02*
X5421516Y-9642103D01*
X5850087Y-9394484D02*
X5869135Y-9394484D01*
X5869135Y-9394484D02*
X5888182Y-9404008D01*
X5888182Y-9404008D02*
X5897706Y-9413531D01*
X5897706Y-9413531D02*
X5907230Y-9432579D01*
X5907230Y-9432579D02*
X5916754Y-9470674D01*
X5916754Y-9470674D02*
X5916754Y-9518293D01*
X5916754Y-9518293D02*
X5907230Y-9556389D01*
X5907230Y-9556389D02*
X5897706Y-9575436D01*
X5897706Y-9575436D02*
X5888182Y-9584960D01*
X5888182Y-9584960D02*
X5869135Y-9594484D01*
X5869135Y-9594484D02*
X5850087Y-9594484D01*
X5850087Y-9594484D02*
X5831039Y-9584960D01*
X5831039Y-9584960D02*
X5821516Y-9575436D01*
X5821516Y-9575436D02*
X5811992Y-9556389D01*
X5811992Y-9556389D02*
X5802468Y-9518293D01*
X5802468Y-9518293D02*
X5802468Y-9470674D01*
X5802468Y-9470674D02*
X5811992Y-9432579D01*
X5811992Y-9432579D02*
X5821516Y-9413531D01*
X5821516Y-9413531D02*
X5831039Y-9404008D01*
X5831039Y-9404008D02*
X5850087Y-9394484D01*
X6002468Y-9575436D02*
X6011992Y-9584960D01*
X6011992Y-9584960D02*
X6002468Y-9594484D01*
X6002468Y-9594484D02*
X5992944Y-9584960D01*
X5992944Y-9584960D02*
X6002468Y-9575436D01*
X6002468Y-9575436D02*
X6002468Y-9594484D01*
X6135801Y-9394484D02*
X6154849Y-9394484D01*
X6154849Y-9394484D02*
X6173897Y-9404008D01*
X6173897Y-9404008D02*
X6183420Y-9413531D01*
X6183420Y-9413531D02*
X6192944Y-9432579D01*
X6192944Y-9432579D02*
X6202468Y-9470674D01*
X6202468Y-9470674D02*
X6202468Y-9518293D01*
X6202468Y-9518293D02*
X6192944Y-9556389D01*
X6192944Y-9556389D02*
X6183420Y-9575436D01*
X6183420Y-9575436D02*
X6173897Y-9584960D01*
X6173897Y-9584960D02*
X6154849Y-9594484D01*
X6154849Y-9594484D02*
X6135801Y-9594484D01*
X6135801Y-9594484D02*
X6116754Y-9584960D01*
X6116754Y-9584960D02*
X6107230Y-9575436D01*
X6107230Y-9575436D02*
X6097706Y-9556389D01*
X6097706Y-9556389D02*
X6088182Y-9518293D01*
X6088182Y-9518293D02*
X6088182Y-9470674D01*
X6088182Y-9470674D02*
X6097706Y-9432579D01*
X6097706Y-9432579D02*
X6107230Y-9413531D01*
X6107230Y-9413531D02*
X6116754Y-9404008D01*
X6116754Y-9404008D02*
X6135801Y-9394484D01*
X6269135Y-9394484D02*
X6392944Y-9394484D01*
X6392944Y-9394484D02*
X6326277Y-9470674D01*
X6326277Y-9470674D02*
X6354849Y-9470674D01*
X6354849Y-9470674D02*
X6373897Y-9480198D01*
X6373897Y-9480198D02*
X6383420Y-9489722D01*
X6383420Y-9489722D02*
X6392944Y-9508770D01*
X6392944Y-9508770D02*
X6392944Y-9556389D01*
X6392944Y-9556389D02*
X6383420Y-9575436D01*
X6383420Y-9575436D02*
X6373897Y-9584960D01*
X6373897Y-9584960D02*
X6354849Y-9594484D01*
X6354849Y-9594484D02*
X6297706Y-9594484D01*
X6297706Y-9594484D02*
X6278658Y-9584960D01*
X6278658Y-9584960D02*
X6269135Y-9575436D01*
X6488182Y-9594484D02*
X6526277Y-9594484D01*
X6526277Y-9594484D02*
X6545325Y-9584960D01*
X6545325Y-9584960D02*
X6554849Y-9575436D01*
X6554849Y-9575436D02*
X6573897Y-9546865D01*
X6573897Y-9546865D02*
X6583420Y-9508770D01*
X6583420Y-9508770D02*
X6583420Y-9432579D01*
X6583420Y-9432579D02*
X6573897Y-9413531D01*
X6573897Y-9413531D02*
X6564373Y-9404008D01*
X6564373Y-9404008D02*
X6545325Y-9394484D01*
X6545325Y-9394484D02*
X6507230Y-9394484D01*
X6507230Y-9394484D02*
X6488182Y-9404008D01*
X6488182Y-9404008D02*
X6478658Y-9413531D01*
X6478658Y-9413531D02*
X6469135Y-9432579D01*
X6469135Y-9432579D02*
X6469135Y-9480198D01*
X6469135Y-9480198D02*
X6478658Y-9499246D01*
X6478658Y-9499246D02*
X6488182Y-9508770D01*
X6488182Y-9508770D02*
X6507230Y-9518293D01*
X6507230Y-9518293D02*
X6545325Y-9518293D01*
X6545325Y-9518293D02*
X6564373Y-9508770D01*
X6564373Y-9508770D02*
X6573897Y-9499246D01*
X6573897Y-9499246D02*
X6583420Y-9480198D01*
X6754849Y-9461150D02*
X6754849Y-9594484D01*
X6707230Y-9384960D02*
X6659611Y-9527817D01*
X6659611Y-9527817D02*
X6783420Y-9527817D01*
X6850087Y-9394484D02*
X6850087Y-9432579D01*
X6926278Y-9394484D02*
X6926278Y-9432579D01*
X7221516Y-9670674D02*
X7211992Y-9661150D01*
X7211992Y-9661150D02*
X7192944Y-9632579D01*
X7192944Y-9632579D02*
X7183420Y-9613531D01*
X7183420Y-9613531D02*
X7173897Y-9584960D01*
X7173897Y-9584960D02*
X7164373Y-9537341D01*
X7164373Y-9537341D02*
X7164373Y-9499246D01*
X7164373Y-9499246D02*
X7173897Y-9451627D01*
X7173897Y-9451627D02*
X7183420Y-9423055D01*
X7183420Y-9423055D02*
X7192944Y-9404008D01*
X7192944Y-9404008D02*
X7211992Y-9375436D01*
X7211992Y-9375436D02*
X7221516Y-9365912D01*
X7383420Y-9461150D02*
X7383420Y-9594484D01*
X7335801Y-9384960D02*
X7288182Y-9527817D01*
X7288182Y-9527817D02*
X7411992Y-9527817D01*
X7526278Y-9394484D02*
X7545325Y-9394484D01*
X7545325Y-9394484D02*
X7564373Y-9404008D01*
X7564373Y-9404008D02*
X7573897Y-9413531D01*
X7573897Y-9413531D02*
X7583420Y-9432579D01*
X7583420Y-9432579D02*
X7592944Y-9470674D01*
X7592944Y-9470674D02*
X7592944Y-9518293D01*
X7592944Y-9518293D02*
X7583420Y-9556389D01*
X7583420Y-9556389D02*
X7573897Y-9575436D01*
X7573897Y-9575436D02*
X7564373Y-9584960D01*
X7564373Y-9584960D02*
X7545325Y-9594484D01*
X7545325Y-9594484D02*
X7526278Y-9594484D01*
X7526278Y-9594484D02*
X7507230Y-9584960D01*
X7507230Y-9584960D02*
X7497706Y-9575436D01*
X7497706Y-9575436D02*
X7488182Y-9556389D01*
X7488182Y-9556389D02*
X7478659Y-9518293D01*
X7478659Y-9518293D02*
X7478659Y-9470674D01*
X7478659Y-9470674D02*
X7488182Y-9432579D01*
X7488182Y-9432579D02*
X7497706Y-9413531D01*
X7497706Y-9413531D02*
X7507230Y-9404008D01*
X7507230Y-9404008D02*
X7526278Y-9394484D01*
X7831040Y-9594484D02*
X7831040Y-9394484D01*
X7916754Y-9594484D02*
X7916754Y-9489722D01*
X7916754Y-9489722D02*
X7907230Y-9470674D01*
X7907230Y-9470674D02*
X7888182Y-9461150D01*
X7888182Y-9461150D02*
X7859611Y-9461150D01*
X7859611Y-9461150D02*
X7840563Y-9470674D01*
X7840563Y-9470674D02*
X7831040Y-9480198D01*
X8040563Y-9594484D02*
X8021516Y-9584960D01*
X8021516Y-9584960D02*
X8011992Y-9575436D01*
X8011992Y-9575436D02*
X8002468Y-9556389D01*
X8002468Y-9556389D02*
X8002468Y-9499246D01*
X8002468Y-9499246D02*
X8011992Y-9480198D01*
X8011992Y-9480198D02*
X8021516Y-9470674D01*
X8021516Y-9470674D02*
X8040563Y-9461150D01*
X8040563Y-9461150D02*
X8069135Y-9461150D01*
X8069135Y-9461150D02*
X8088182Y-9470674D01*
X8088182Y-9470674D02*
X8097706Y-9480198D01*
X8097706Y-9480198D02*
X8107230Y-9499246D01*
X8107230Y-9499246D02*
X8107230Y-9556389D01*
X8107230Y-9556389D02*
X8097706Y-9575436D01*
X8097706Y-9575436D02*
X8088182Y-9584960D01*
X8088182Y-9584960D02*
X8069135Y-9594484D01*
X8069135Y-9594484D02*
X8040563Y-9594484D01*
X8221516Y-9594484D02*
X8202468Y-9584960D01*
X8202468Y-9584960D02*
X8192944Y-9565912D01*
X8192944Y-9565912D02*
X8192944Y-9394484D01*
X8373897Y-9584960D02*
X8354849Y-9594484D01*
X8354849Y-9594484D02*
X8316754Y-9594484D01*
X8316754Y-9594484D02*
X8297706Y-9584960D01*
X8297706Y-9584960D02*
X8288182Y-9565912D01*
X8288182Y-9565912D02*
X8288182Y-9489722D01*
X8288182Y-9489722D02*
X8297706Y-9470674D01*
X8297706Y-9470674D02*
X8316754Y-9461150D01*
X8316754Y-9461150D02*
X8354849Y-9461150D01*
X8354849Y-9461150D02*
X8373897Y-9470674D01*
X8373897Y-9470674D02*
X8383421Y-9489722D01*
X8383421Y-9489722D02*
X8383421Y-9508770D01*
X8383421Y-9508770D02*
X8288182Y-9527817D01*
X8459611Y-9584960D02*
X8478659Y-9594484D01*
X8478659Y-9594484D02*
X8516754Y-9594484D01*
X8516754Y-9594484D02*
X8535802Y-9584960D01*
X8535802Y-9584960D02*
X8545325Y-9565912D01*
X8545325Y-9565912D02*
X8545325Y-9556389D01*
X8545325Y-9556389D02*
X8535802Y-9537341D01*
X8535802Y-9537341D02*
X8516754Y-9527817D01*
X8516754Y-9527817D02*
X8488183Y-9527817D01*
X8488183Y-9527817D02*
X8469135Y-9518293D01*
X8469135Y-9518293D02*
X8459611Y-9499246D01*
X8459611Y-9499246D02*
X8459611Y-9489722D01*
X8459611Y-9489722D02*
X8469135Y-9470674D01*
X8469135Y-9470674D02*
X8488183Y-9461150D01*
X8488183Y-9461150D02*
X8516754Y-9461150D01*
X8516754Y-9461150D02*
X8535802Y-9470674D01*
X8611992Y-9670674D02*
X8621516Y-9661150D01*
X8621516Y-9661150D02*
X8640564Y-9632579D01*
X8640564Y-9632579D02*
X8650087Y-9613531D01*
X8650087Y-9613531D02*
X8659611Y-9584960D01*
X8659611Y-9584960D02*
X8669135Y-9537341D01*
X8669135Y-9537341D02*
X8669135Y-9499246D01*
X8669135Y-9499246D02*
X8659611Y-9451627D01*
X8659611Y-9451627D02*
X8650087Y-9423055D01*
X8650087Y-9423055D02*
X8640564Y-9404008D01*
X8640564Y-9404008D02*
X8621516Y-9375436D01*
X8621516Y-9375436D02*
X8611992Y-9365912D01*
M02*
