M48
; DRILL file {KiCad 9.0.5} date 2025-12-05T09:09:27+0100
; FORMAT={-:-/ absolute / metric / decimal}
; #@! TF.CreationDate,2025-12-05T09:09:27+01:00
; #@! TF.GenerationSoftware,Kicad,Pcbnew,9.0.5
; #@! TF.FileFunction,Plated,1,4,PTH
FMAT,2
METRIC
; #@! TA.AperFunction,Plated,PTH,ViaDrill
T1C0.200
; #@! TA.AperFunction,Plated,PTH,ViaDrill
T2C0.300
; #@! TA.AperFunction,Plated,PTH,ComponentDrill
T3C1.000
%
G90
G05
T1
X25.032Y-34.574
X25.032Y-35.336
X25.032Y-36.098
X25.032Y-36.86
X25.032Y-37.749
X25.921Y-34.574
X26.048Y-37.749
X26.683Y-34.574
X27.064Y-37.749
X27.445Y-34.574
X28.08Y-38.13
X28.207Y-34.574
X28.969Y-34.574
X28.969Y-35.336
X29.223Y-38.13
X29.513Y-35.935
X32.619Y-38.605
X32.619Y-40.405
X32.619Y-42.205
X32.619Y-44.005
X33.069Y-39.505
X33.069Y-41.305
X33.069Y-43.105
X33.519Y-38.605
X33.519Y-40.405
X33.519Y-42.205
X33.519Y-44.005
X33.969Y-39.505
X33.969Y-41.305
X33.969Y-43.105
X34.419Y-38.605
X34.419Y-40.405
X34.419Y-42.205
X34.419Y-44.005
X34.869Y-39.505
X34.869Y-41.305
X34.869Y-43.105
X35.319Y-38.605
X35.319Y-40.405
X35.319Y-42.205
X35.319Y-44.005
X35.769Y-39.505
X35.769Y-41.305
X35.769Y-43.105
X36.219Y-38.605
X36.219Y-40.405
X36.219Y-42.205
X36.219Y-44.005
X36.669Y-39.505
X36.669Y-41.305
X36.669Y-43.105
X37.119Y-38.605
X37.119Y-40.405
X37.119Y-42.205
X37.119Y-44.005
X37.569Y-39.505
X37.569Y-41.305
X38.019Y-38.605
X38.019Y-40.405
X41.288Y-41.94
X41.288Y-42.702
X41.288Y-44.226
X41.288Y-45.115
X41.415Y-41.178
X41.478Y-45.814
X42.05Y-40.543
X42.05Y-46.385
X43.193Y-40.543
X43.193Y-46.385
X44.336Y-40.543
X44.336Y-46.385
X44.844Y-41.305
X44.844Y-42.194
X44.844Y-43.337
X44.844Y-44.48
X44.844Y-45.496
X57.533Y-53.613
X57.533Y-54.513
X57.533Y-55.413
X58.433Y-53.613
X58.433Y-54.513
X58.433Y-55.413
X59.333Y-53.613
X59.333Y-54.513
X59.333Y-55.413
X60.777Y-36.029
X60.777Y-36.929
X61.677Y-36.029
X61.677Y-36.929
T2
X18.555Y-42.956
X18.555Y-49.052
X19.267Y-34.447
X19.267Y-36.987
X19.317Y-52.989
X22.621Y-40.545
X23.381Y-34.447
X25.667Y-35.59
X27.318Y-41.813
X27.572Y-39.019
X27.826Y-43.591
X27.826Y-57.942
X28.715Y-36.86
X28.969Y-45.369
X29.477Y-54.259
X29.531Y-43.011
X29.858Y-34.955
X29.858Y-42.067
X30.231Y-40.705
X30.809Y-59.212
X30.874Y-36.606
X31.255Y-45.242
X31.382Y-23.525
X31.509Y-34.193
X31.509Y-46.512
X31.636Y-22.763
X31.636Y-25.811
X31.636Y-26.7
X32.144Y-23.906
X32.144Y-27.462
X32.398Y-22.382
X32.398Y-24.668
X32.398Y-25.557
X32.473Y-46.131
X32.525Y-34.32
X32.525Y-47.909
X32.652Y-28.097
X32.652Y-28.986
X32.652Y-29.875
X32.652Y-30.764
X32.652Y-31.653
X32.652Y-32.542
X32.652Y-33.431
X32.652Y-35.209
X32.719Y-36.081
X32.779Y-53.243
X33.319Y-46.385
X34.049Y-22.255
X34.049Y-23.144
X34.049Y-27.589
X34.049Y-28.478
X34.049Y-29.367
X34.049Y-30.256
X34.049Y-31.145
X34.049Y-32.034
X34.049Y-32.923
X34.049Y-33.812
X34.055Y-24.03
X34.055Y-25.814
X34.093Y-24.922
X34.103Y-26.7
X34.113Y-36.417
X34.176Y-46.385
X34.303Y-47.596
X34.402Y-54.386
X34.43Y-34.574
X34.684Y-35.336
X35.446Y-48.036
X35.573Y-35.59
X36.335Y-34.955
X37.135Y-34.955
X38.367Y-48.798
X38.519Y-46.512
X38.875Y-34.447
X39.002Y-63.403
X39.383Y-48.29
X39.51Y-49.433
X39.51Y-51.973
X39.51Y-56.418
X39.891Y-34.447
X40.399Y-42.575
X40.399Y-44.734
X40.442Y-41.603
X40.907Y-34.447
X41.034Y-54.894
X41.542Y-63.403
X42.631Y-32.415
X43.066Y-47.782
X43.287Y-49.025
X43.32Y-38.511
X44.082Y-41.432
X44.082Y-45.496
X44.336Y-37.241
X44.336Y-38.384
X44.811Y-50.041
X45.479Y-34.318
X48.4Y-40.035
X49.543Y-38.257
X50.305Y-38.511
X51.067Y-38.765
X51.321Y-43.591
X51.575Y-29.875
X51.596Y-42.808
X52.083Y-42.151
X52.972Y-49.179
X53.48Y-56.291
X53.861Y-31.272
X53.988Y-49.179
X54.115Y-39.781
X54.115Y-55.656
X54.75Y-28.097
X54.75Y-55.021
X54.877Y-53.497
X55.893Y-47.782
X56.083Y-51.148
X57.036Y-26.192
X57.671Y-58.577
X58.225Y-41.651
X58.433Y-36.86
X58.56Y-37.975
X58.687Y-63.53
X59.068Y-50.957
X59.195Y-40.289
X59.449Y-41.051
X59.576Y-34.617
X59.957Y-50.957
X60.719Y-51.465
X60.846Y-52.354
X63.513Y-40.67
X64.275Y-56.164
X64.656Y-54.767
X65.545Y-29.367
X67.196Y-26.192
X68.339Y-39.654
T3
X25.286Y-65.816
X27.826Y-65.816
X30.366Y-65.816
X32.906Y-65.816
X35.446Y-65.816
X37.986Y-65.816
X40.526Y-65.816
X47.511Y-65.811
X47.511Y-68.351
X52.337Y-63.276
X52.337Y-65.816
X52.337Y-68.356
X53.607Y-45.877
X56.147Y-45.877
X56.782Y-24.287
X57.798Y-66.892
X58.687Y-45.877
X59.282Y-24.287
X60.338Y-66.892
X62.878Y-66.892
X66.454Y-24.28
X67.136Y-66.892
X68.954Y-24.28
X69.676Y-66.892
X72.216Y-66.892
X74.816Y-39.146
X74.816Y-41.686
X74.816Y-44.226
X74.816Y-46.766
X74.816Y-51.846
X74.816Y-54.386
X74.816Y-56.926
X74.816Y-59.466
M30
