G04 #@! TF.GenerationSoftware,KiCad,Pcbnew,9.0.5*
G04 #@! TF.CreationDate,2025-12-05T09:09:27+01:00*
G04 #@! TF.ProjectId,PCB Main,50434220-4d61-4696-9e2e-6b696361645f,rev?*
G04 #@! TF.SameCoordinates,Original*
G04 #@! TF.FileFunction,Copper,L4,Bot*
G04 #@! TF.FilePolarity,Positive*
%FSLAX46Y46*%
G04 Gerber Fmt 4.6, Leading zero omitted, Abs format (unit mm)*
G04 Created by KiCad (PCBNEW 9.0.5) date 2025-12-05 09:09:27*
%MOMM*%
%LPD*%
G01*
G04 APERTURE LIST*
G04 Aperture macros list*
%AMRoundRect*
0 Rectangle with rounded corners*
0 $1 Rounding radius*
0 $2 $3 $4 $5 $6 $7 $8 $9 X,Y pos of 4 corners*
0 Add a 4 corners polygon primitive as box body*
4,1,4,$2,$3,$4,$5,$6,$7,$8,$9,$2,$3,0*
0 Add four circle primitives for the rounded corners*
1,1,$1+$1,$2,$3*
1,1,$1+$1,$4,$5*
1,1,$1+$1,$6,$7*
1,1,$1+$1,$8,$9*
0 Add four rect primitives between the rounded corners*
20,1,$1+$1,$2,$3,$4,$5,0*
20,1,$1+$1,$4,$5,$6,$7,0*
20,1,$1+$1,$6,$7,$8,$9,0*
20,1,$1+$1,$8,$9,$2,$3,0*%
G04 Aperture macros list end*
G04 #@! TA.AperFunction,ComponentPad*
%ADD10R,1.700000X1.700000*%
G04 #@! TD*
G04 #@! TA.AperFunction,ComponentPad*
%ADD11C,1.700000*%
G04 #@! TD*
G04 #@! TA.AperFunction,ComponentPad*
%ADD12RoundRect,0.250000X-0.600000X-0.750000X0.600000X-0.750000X0.600000X0.750000X-0.600000X0.750000X0*%
G04 #@! TD*
G04 #@! TA.AperFunction,ComponentPad*
%ADD13O,1.700000X2.000000*%
G04 #@! TD*
G04 #@! TA.AperFunction,SMDPad,CuDef*
%ADD14R,2.600000X3.500000*%
G04 #@! TD*
G04 #@! TA.AperFunction,ViaPad*
%ADD15C,0.600000*%
G04 #@! TD*
G04 #@! TA.AperFunction,ViaPad*
%ADD16C,0.400000*%
G04 #@! TD*
G04 #@! TA.AperFunction,Conductor*
%ADD17C,0.800000*%
G04 #@! TD*
G04 #@! TA.AperFunction,Conductor*
%ADD18C,0.200000*%
G04 #@! TD*
G04 #@! TA.AperFunction,Conductor*
%ADD19C,0.400000*%
G04 #@! TD*
G04 APERTURE END LIST*
D10*
X74815657Y-51846424D03*
D11*
X74815657Y-54386424D03*
X74815657Y-56926424D03*
X74815657Y-59466424D03*
D10*
X72215657Y-66892424D03*
D11*
X69675657Y-66892424D03*
X67135657Y-66892424D03*
D12*
X66453657Y-24279924D03*
D13*
X68953657Y-24279924D03*
D10*
X25285657Y-65816424D03*
D11*
X27825657Y-65816424D03*
X30365657Y-65816424D03*
X32905657Y-65816424D03*
X35445657Y-65816424D03*
X37985657Y-65816424D03*
X40525657Y-65816424D03*
D10*
X47510657Y-65811424D03*
D11*
X47510657Y-68351424D03*
D12*
X56781657Y-24287424D03*
D13*
X59281657Y-24287424D03*
D10*
X62877657Y-66892424D03*
D11*
X60337657Y-66892424D03*
X57797657Y-66892424D03*
D10*
X74815657Y-39146424D03*
D11*
X74815657Y-41686424D03*
X74815657Y-44226424D03*
X74815657Y-46766424D03*
D10*
X53606657Y-45877424D03*
D11*
X56146657Y-45877424D03*
X58686657Y-45877424D03*
D10*
X52336657Y-68356424D03*
D11*
X52336657Y-65816424D03*
X52336657Y-63276424D03*
D14*
X46843657Y-52989424D03*
X17443657Y-52989424D03*
D15*
X32143657Y-27462424D03*
D16*
X37118657Y-40405424D03*
X61676657Y-36929424D03*
X25031657Y-37749424D03*
D15*
X34102657Y-26700424D03*
D16*
X44843657Y-41305424D03*
D15*
X34048657Y-32034424D03*
D16*
X27444657Y-34574424D03*
X32618657Y-42205424D03*
X34418657Y-40405424D03*
D15*
X35572657Y-35590424D03*
X32651657Y-35209424D03*
D16*
X43192657Y-40543424D03*
D15*
X34048657Y-28478424D03*
X32397657Y-24668424D03*
X30873657Y-36606424D03*
D16*
X37568657Y-39505424D03*
D15*
X32524657Y-47909424D03*
D16*
X41287657Y-41940424D03*
X36668657Y-39505424D03*
X33518657Y-40405424D03*
D15*
X32651657Y-33431424D03*
D16*
X28968657Y-35336424D03*
X26047657Y-37749424D03*
X25031657Y-34574424D03*
D15*
X31381657Y-23525424D03*
D16*
X29512711Y-35935370D03*
X58432657Y-55413424D03*
X25031657Y-36860424D03*
X33068657Y-43105424D03*
X29222657Y-38130424D03*
X41478157Y-45813924D03*
D15*
X34048657Y-30256424D03*
D16*
X57532657Y-53613424D03*
D15*
X44081657Y-45496424D03*
X18554657Y-49052424D03*
D16*
X58432657Y-53613424D03*
X34868657Y-41305424D03*
D15*
X58432657Y-36860424D03*
X60845657Y-52354424D03*
D16*
X25031657Y-36098424D03*
X59332657Y-54513424D03*
D15*
X30231086Y-40705424D03*
X55892657Y-47782424D03*
X34048657Y-32923424D03*
D16*
X41414657Y-41178424D03*
X35768657Y-43105424D03*
X36668657Y-41305424D03*
X33068657Y-39505424D03*
X58432657Y-54513424D03*
X37118657Y-42205424D03*
X33968657Y-43105424D03*
X35768657Y-39505424D03*
X41287657Y-45115424D03*
D15*
X32397657Y-25557424D03*
D16*
X36218657Y-44005424D03*
X33968657Y-39505424D03*
X36218657Y-40405424D03*
D15*
X34048657Y-23144424D03*
D16*
X36668657Y-43105424D03*
D15*
X18554657Y-42956424D03*
D16*
X57532657Y-54513424D03*
X33518657Y-44005424D03*
X25920657Y-34574424D03*
X61676657Y-36029424D03*
X37118657Y-44005424D03*
X27063657Y-37749424D03*
X33518657Y-38605424D03*
D15*
X31635657Y-26700424D03*
D16*
X41287657Y-44226424D03*
X28968657Y-34574424D03*
X59332657Y-55413424D03*
D15*
X52971657Y-49179424D03*
D16*
X44843657Y-43337424D03*
D15*
X32143657Y-23906424D03*
D16*
X28206657Y-34574424D03*
X34418657Y-38605424D03*
D15*
X34683657Y-35336424D03*
D16*
X44335657Y-46385424D03*
X36218657Y-38605424D03*
D15*
X59067657Y-50957424D03*
X31635657Y-25811424D03*
D16*
X35318657Y-38605424D03*
D15*
X43286552Y-49025438D03*
X19316657Y-52989424D03*
D16*
X35318657Y-40405424D03*
X44335657Y-40543424D03*
D15*
X32651657Y-32542424D03*
X34048657Y-27589424D03*
X58686657Y-63530424D03*
D16*
X33068657Y-41305424D03*
D15*
X43319657Y-38511424D03*
X25666657Y-35590424D03*
X34048657Y-22255424D03*
D16*
X34868657Y-39505424D03*
X34868657Y-43105424D03*
D15*
X34055494Y-25814443D03*
D16*
X38018657Y-40405424D03*
D15*
X59956657Y-50957424D03*
D16*
X33968657Y-41305424D03*
X25031657Y-35336424D03*
D15*
X34048657Y-33812424D03*
X34092568Y-24922424D03*
D16*
X60776657Y-36029424D03*
X33518657Y-42205424D03*
X35768657Y-41305424D03*
D15*
X43065657Y-47782424D03*
X53987657Y-49179424D03*
D16*
X26682657Y-34574424D03*
X28079657Y-38130424D03*
D15*
X32651657Y-31653424D03*
X28968657Y-45369424D03*
X34048657Y-29367424D03*
D16*
X36218657Y-42205424D03*
X57532657Y-55413424D03*
X41287657Y-42702424D03*
X59332657Y-53613424D03*
D15*
X32651657Y-29875424D03*
D16*
X34418657Y-42205424D03*
D15*
X60718657Y-51465424D03*
D16*
X38018657Y-38605424D03*
D15*
X39382657Y-48290424D03*
D16*
X43192657Y-46385424D03*
D15*
X19266657Y-34447424D03*
X32524657Y-34320424D03*
X38366657Y-48798424D03*
X28714657Y-36860424D03*
D16*
X37568657Y-41305424D03*
D15*
X39001657Y-63403424D03*
X34048657Y-31145424D03*
D16*
X44843657Y-42194424D03*
D15*
X32651657Y-28986424D03*
X57035657Y-26192424D03*
X67195657Y-26192424D03*
X32778657Y-53243424D03*
X27317657Y-41813424D03*
D16*
X60776657Y-36929424D03*
X42049657Y-46385424D03*
X32618657Y-38605424D03*
D15*
X44081657Y-41432424D03*
X32397657Y-22382424D03*
D16*
X42049657Y-40543424D03*
D15*
X34429657Y-34574424D03*
D16*
X37118657Y-38605424D03*
D15*
X32651657Y-30764424D03*
D16*
X32618657Y-40405424D03*
D15*
X34055494Y-24030405D03*
X32651657Y-28097424D03*
X31635657Y-22763424D03*
X32718657Y-36080898D03*
D16*
X32618657Y-44005424D03*
X34418657Y-44005424D03*
X35318657Y-44005424D03*
D15*
X29857657Y-34955424D03*
X27571657Y-39019424D03*
D16*
X44843657Y-45496424D03*
D15*
X27825657Y-43591424D03*
X64655657Y-54767424D03*
X39509657Y-51973424D03*
D16*
X35318657Y-42205424D03*
D15*
X64274657Y-56164424D03*
D16*
X44843657Y-44480424D03*
D15*
X19266657Y-36987424D03*
X30808657Y-59212424D03*
X65544657Y-29367424D03*
X54876657Y-53497424D03*
X35445657Y-48036424D03*
X63512657Y-40670424D03*
X42630657Y-32415424D03*
X58559657Y-37975424D03*
X44335657Y-37241424D03*
X38518657Y-46512424D03*
X48399657Y-40035424D03*
X31508657Y-34193424D03*
X29857657Y-42067424D03*
X44335657Y-38384424D03*
X23380657Y-34447424D03*
X53860657Y-31272424D03*
X59575657Y-34616924D03*
X51574657Y-29875424D03*
X34112657Y-36417425D03*
X29530842Y-43010609D03*
X34401657Y-54386424D03*
X33318657Y-46385424D03*
X45478657Y-34318424D03*
X39509657Y-56418424D03*
X41033657Y-54894424D03*
X32473208Y-46131424D03*
X31254657Y-45242424D03*
X22620657Y-40545424D03*
X54114657Y-39781424D03*
X34175657Y-46385424D03*
X41541657Y-63403424D03*
X40398657Y-44734424D03*
X40398657Y-42575424D03*
X57670657Y-58577424D03*
X68338657Y-39654424D03*
X59194657Y-40289424D03*
X58224657Y-41651424D03*
X52082657Y-42151424D03*
X51066657Y-38765424D03*
X49542657Y-38257424D03*
X51320657Y-43591424D03*
X50304657Y-38511424D03*
X51595657Y-42808424D03*
X59448657Y-41051424D03*
X56083157Y-51147924D03*
X37134660Y-34955424D03*
X44810552Y-50041438D03*
X36334657Y-34955424D03*
X40441922Y-41602689D03*
X39509657Y-49433424D03*
X54749657Y-28097424D03*
X34302657Y-47596324D03*
X27825657Y-57942424D03*
X29476657Y-54259424D03*
X31508657Y-46512424D03*
X40906657Y-34447424D03*
X53479657Y-56291424D03*
X54114657Y-55656424D03*
X39890657Y-34447424D03*
X38874657Y-34447424D03*
X54749657Y-55021424D03*
D17*
X17443657Y-52989424D02*
X19316657Y-52989424D01*
X65544657Y-29367424D02*
X65544657Y-29494424D01*
D18*
X33522657Y-54277424D02*
X29857657Y-57942424D01*
X29857657Y-63149424D02*
X30365657Y-63657424D01*
X29857657Y-57942424D02*
X29857657Y-63149424D01*
X35445657Y-48036424D02*
X33522657Y-49959424D01*
X30365657Y-63657424D02*
X30365657Y-65816424D01*
X33522657Y-49959424D02*
X33522657Y-54277424D01*
X39509657Y-56418424D02*
X41033657Y-54894424D01*
X32854208Y-45750424D02*
X34884177Y-45750424D01*
X36842657Y-47708904D02*
X36842657Y-57815424D01*
X32473208Y-46131424D02*
X32854208Y-45750424D01*
X34884177Y-45750424D02*
X36842657Y-47708904D01*
X36842657Y-57815424D02*
X35445657Y-59212424D01*
X35445657Y-59212424D02*
X35445657Y-65816424D01*
X29984657Y-45242424D02*
X29095657Y-44353424D01*
X26428657Y-44353424D02*
X22620657Y-40545424D01*
X29095657Y-44353424D02*
X26428657Y-44353424D01*
X31254657Y-45242424D02*
X29984657Y-45242424D01*
X32905657Y-58450424D02*
X32905657Y-65816424D01*
X36046657Y-47787481D02*
X36046657Y-48959424D01*
X34175657Y-46385424D02*
X34556657Y-46766424D01*
X35826657Y-49179424D02*
X35826657Y-55529424D01*
X35025600Y-46766424D02*
X36046657Y-47787481D01*
X35826657Y-55529424D02*
X32905657Y-58450424D01*
X36046657Y-48959424D02*
X35826657Y-49179424D01*
X34556657Y-46766424D02*
X35025600Y-46766424D01*
X40398657Y-44734424D02*
X38620657Y-44734424D01*
X38620657Y-42575424D02*
X40398657Y-42575424D01*
X38239657Y-44353424D02*
X38239657Y-42956424D01*
X38620657Y-44734424D02*
X38239657Y-44353424D01*
X38239657Y-42956424D02*
X38620657Y-42575424D01*
X74815657Y-44226424D02*
X60799657Y-44226424D01*
X74815657Y-44226424D02*
X72910657Y-46131424D01*
X58224657Y-41259424D02*
X58224657Y-41651424D01*
X72910657Y-55021424D02*
X74815657Y-56926424D01*
X60799657Y-44226424D02*
X58224657Y-41651424D01*
X59194657Y-40289424D02*
X58224657Y-41259424D01*
X72910657Y-46131424D02*
X72910657Y-55021424D01*
X51066657Y-41135424D02*
X52082657Y-42151424D01*
X51066657Y-38765424D02*
X51066657Y-41135424D01*
X49542657Y-41813424D02*
X51320657Y-43591424D01*
X49542657Y-38257424D02*
X49542657Y-41813424D01*
X50304657Y-38511424D02*
X50304657Y-41517424D01*
X50304657Y-41517424D02*
X51595657Y-42808424D01*
X60083657Y-41686424D02*
X59448657Y-41051424D01*
X74815657Y-41686424D02*
X60083657Y-41686424D01*
X76847657Y-43718424D02*
X74815657Y-41686424D01*
X76847657Y-52354424D02*
X76847657Y-43718424D01*
X74815657Y-54386424D02*
X76847657Y-52354424D01*
X67837657Y-65054424D02*
X69675657Y-66892424D01*
X46113657Y-46893424D02*
X49542657Y-50322424D01*
X40838757Y-39273424D02*
X44970657Y-39273424D01*
X49542657Y-50322424D02*
X49542657Y-55656424D01*
X37134660Y-35569327D02*
X40838757Y-39273424D01*
X37134660Y-34955424D02*
X37134660Y-35569327D01*
X37134660Y-34955424D02*
X37096657Y-34993427D01*
X49542657Y-55656424D02*
X58940657Y-65054424D01*
X46113657Y-40416424D02*
X46113657Y-46893424D01*
X58940657Y-65054424D02*
X67837657Y-65054424D01*
X44970657Y-39273424D02*
X46113657Y-40416424D01*
D19*
X46843657Y-52074543D02*
X46843657Y-52989424D01*
X44810552Y-50041438D02*
X46843657Y-52074543D01*
D18*
X45605657Y-47274424D02*
X48907657Y-50576424D01*
X59769657Y-66892424D02*
X60337657Y-66892424D01*
X45605657Y-40797424D02*
X45605657Y-47274424D01*
X44482657Y-39674424D02*
X45605657Y-40797424D01*
X48907657Y-56030424D02*
X59769657Y-66892424D01*
X40672657Y-39674424D02*
X44482657Y-39674424D01*
X36334657Y-34955424D02*
X36334657Y-35336424D01*
X48907657Y-50576424D02*
X48907657Y-56030424D01*
X36334657Y-35336424D02*
X40672657Y-39674424D01*
X37731657Y-42321424D02*
X38450392Y-41602689D01*
X39509657Y-49433424D02*
X37985657Y-49433424D01*
X38450392Y-41602689D02*
X40441922Y-41602689D01*
X37731657Y-49179424D02*
X37731657Y-42321424D01*
X37985657Y-49433424D02*
X37731657Y-49179424D01*
X34302657Y-47596324D02*
X34302657Y-47655424D01*
X31402657Y-54365424D02*
X27825657Y-57942424D01*
X34302657Y-47655424D02*
X31402657Y-50555424D01*
X31402657Y-50555424D02*
X31402657Y-54365424D01*
X29476657Y-48544424D02*
X29476657Y-54259424D01*
X31508657Y-46512424D02*
X29476657Y-48544424D01*
X50685657Y-49941424D02*
X46748657Y-46004424D01*
X53479657Y-56291424D02*
X52463657Y-56291424D01*
X46748657Y-38511424D02*
X42684657Y-34447424D01*
X50685657Y-54513424D02*
X50685657Y-49941424D01*
X52463657Y-56291424D02*
X50685657Y-54513424D01*
X42684657Y-34447424D02*
X40906657Y-34447424D01*
X46748657Y-46004424D02*
X46748657Y-38511424D01*
X39890657Y-34447424D02*
X40491657Y-33846424D01*
X42972657Y-33846424D02*
X47256657Y-38130424D01*
X51193657Y-49560424D02*
X51193657Y-54259424D01*
X40491657Y-33846424D02*
X42972657Y-33846424D01*
X51193657Y-54259424D02*
X52590657Y-55656424D01*
X47256657Y-45623424D02*
X51193657Y-49560424D01*
X47256657Y-38130424D02*
X47256657Y-45623424D01*
X52590657Y-55656424D02*
X54114657Y-55656424D01*
X47764657Y-45369424D02*
X51701657Y-49306424D01*
X51701657Y-49306424D02*
X51701657Y-54005424D01*
X38874657Y-34447424D02*
X39876657Y-33445424D01*
X47764657Y-37876424D02*
X47764657Y-45369424D01*
X52717657Y-55021424D02*
X54749657Y-55021424D01*
X43333657Y-33445424D02*
X47764657Y-37876424D01*
X51701657Y-54005424D02*
X52717657Y-55021424D01*
X39876657Y-33445424D02*
X43333657Y-33445424D01*
G04 #@! TA.AperFunction,Conductor*
G36*
X29165696Y-34340109D02*
G01*
X29211451Y-34392913D01*
X29222657Y-34444424D01*
X29222657Y-35209424D01*
X29821338Y-35808105D01*
X29854823Y-35869428D01*
X29857657Y-35895786D01*
X29857657Y-36606424D01*
X30365657Y-37114424D01*
X31889657Y-37114424D01*
X31889657Y-36984424D01*
X31892207Y-36975738D01*
X31890919Y-36966777D01*
X31901897Y-36942736D01*
X31909342Y-36917385D01*
X31916182Y-36911457D01*
X31919944Y-36903221D01*
X31942178Y-36888931D01*
X31962146Y-36871630D01*
X31972660Y-36869342D01*
X31978722Y-36865447D01*
X32013657Y-36860424D01*
X32146657Y-36860424D01*
X32213696Y-36880109D01*
X32259451Y-36932913D01*
X32270657Y-36984424D01*
X32270657Y-38384424D01*
X27369019Y-38384424D01*
X27301980Y-38364739D01*
X27281338Y-38348105D01*
X26936657Y-38003424D01*
X24901657Y-38003424D01*
X24834618Y-37983739D01*
X24788863Y-37930935D01*
X24777657Y-37879424D01*
X24777657Y-34444424D01*
X24797342Y-34377385D01*
X24850146Y-34331630D01*
X24901657Y-34320424D01*
X29098657Y-34320424D01*
X29165696Y-34340109D01*
G37*
G04 #@! TD.AperFunction*
G04 #@! TA.AperFunction,Conductor*
G36*
X44478334Y-40309109D02*
G01*
X44498976Y-40325743D01*
X45061338Y-40888105D01*
X45094823Y-40949428D01*
X45097657Y-40975786D01*
X45097657Y-45953062D01*
X45077972Y-46020101D01*
X45061338Y-46040743D01*
X44498976Y-46603105D01*
X44437653Y-46636590D01*
X44411295Y-46639424D01*
X41974019Y-46639424D01*
X41906980Y-46619739D01*
X41886338Y-46603105D01*
X41069976Y-45786743D01*
X41036491Y-45725420D01*
X41033657Y-45699062D01*
X41033657Y-43972424D01*
X38744657Y-43972424D01*
X38677618Y-43952739D01*
X38639924Y-43914810D01*
X38620657Y-43884413D01*
X38620657Y-43207424D01*
X38640342Y-43140385D01*
X38693146Y-43094630D01*
X38744657Y-43083424D01*
X41033657Y-43083424D01*
X41033657Y-41229786D01*
X41053342Y-41162747D01*
X41069976Y-41142105D01*
X41886338Y-40325743D01*
X41947661Y-40292258D01*
X41974019Y-40289424D01*
X44411295Y-40289424D01*
X44478334Y-40309109D01*
G37*
G04 #@! TD.AperFunction*
G04 #@! TA.AperFunction,Conductor*
G36*
X38620657Y-43845424D02*
G01*
X38620656Y-43845424D01*
X38611751Y-43836519D01*
X38580966Y-43826517D01*
X38545002Y-43777017D01*
X38540157Y-43746424D01*
X38540157Y-43309424D01*
X38559064Y-43251233D01*
X38608564Y-43215269D01*
X38617174Y-43213905D01*
X38620656Y-43210424D01*
X38620657Y-43210424D01*
X38620657Y-43845424D01*
G37*
G04 #@! TD.AperFunction*
G04 #@! TA.AperFunction,Conductor*
G36*
X43869092Y-22048728D02*
G01*
X43880899Y-22058812D01*
X44033463Y-22211351D01*
X44033466Y-22211357D01*
X44033468Y-22211356D01*
X44033469Y-22211357D01*
X44063996Y-22241884D01*
X44064000Y-22241886D01*
X44064012Y-22241895D01*
X44064016Y-22241899D01*
X44064021Y-22241901D01*
X44064098Y-22241960D01*
X44064925Y-22242424D01*
X44074862Y-22248159D01*
X44096378Y-22260579D01*
X44096386Y-22260588D01*
X44096388Y-22260585D01*
X44132518Y-22281445D01*
X44132519Y-22281445D01*
X44132531Y-22281452D01*
X44132557Y-22281463D01*
X44133073Y-22281597D01*
X44144123Y-22284557D01*
X44170075Y-22291509D01*
X44170074Y-22291510D01*
X44170080Y-22291510D01*
X44208945Y-22301924D01*
X44208949Y-22301925D01*
X44208967Y-22301927D01*
X44208969Y-22301926D01*
X44208970Y-22301927D01*
X44248532Y-22301924D01*
X78607157Y-22301924D01*
X78665348Y-22320831D01*
X78701312Y-22370331D01*
X78706157Y-22400924D01*
X78706157Y-70496924D01*
X78687250Y-70555115D01*
X78637750Y-70591079D01*
X78607157Y-70595924D01*
X15271093Y-70595924D01*
X15212902Y-70577017D01*
X15176938Y-70527517D01*
X15172093Y-70496940D01*
X15171921Y-69421210D01*
X15171763Y-68435133D01*
X15934157Y-68435133D01*
X15934157Y-68647714D01*
X15967409Y-68857662D01*
X16033100Y-69059836D01*
X16129605Y-69249239D01*
X16129607Y-69249243D01*
X16254548Y-69421210D01*
X16254550Y-69421212D01*
X16254553Y-69421216D01*
X16404865Y-69571528D01*
X16404868Y-69571530D01*
X16404870Y-69571532D01*
X16576837Y-69696473D01*
X16576841Y-69696475D01*
X16766245Y-69792981D01*
X16968414Y-69858670D01*
X16968415Y-69858670D01*
X16968418Y-69858671D01*
X17178367Y-69891924D01*
X17178370Y-69891924D01*
X17390947Y-69891924D01*
X17600895Y-69858671D01*
X17600896Y-69858670D01*
X17600900Y-69858670D01*
X17803069Y-69792981D01*
X17992473Y-69696475D01*
X18164449Y-69571528D01*
X18314761Y-69421216D01*
X18439708Y-69249240D01*
X18536214Y-69059836D01*
X18601903Y-68857667D01*
X18635157Y-68647711D01*
X18635157Y-68435137D01*
X18635157Y-68435133D01*
X18601904Y-68225185D01*
X18601903Y-68225181D01*
X18536214Y-68023012D01*
X18439708Y-67833608D01*
X18439706Y-67833604D01*
X18314765Y-67661637D01*
X18314763Y-67661635D01*
X18314761Y-67661632D01*
X18164449Y-67511320D01*
X18164445Y-67511317D01*
X18164443Y-67511315D01*
X18130532Y-67486677D01*
X51286157Y-67486677D01*
X51286157Y-69226170D01*
X51286158Y-69226182D01*
X51297789Y-69284651D01*
X51297790Y-69284655D01*
X51342105Y-69350976D01*
X51408426Y-69395291D01*
X51452888Y-69404135D01*
X51466898Y-69406922D01*
X51466903Y-69406922D01*
X51466909Y-69406924D01*
X51466910Y-69406924D01*
X53206404Y-69406924D01*
X53206405Y-69406924D01*
X53264888Y-69395291D01*
X53331209Y-69350976D01*
X53375524Y-69284655D01*
X53387157Y-69226172D01*
X53387157Y-68435133D01*
X75243157Y-68435133D01*
X75243157Y-68647714D01*
X75276409Y-68857662D01*
X75342100Y-69059836D01*
X75438605Y-69249239D01*
X75438607Y-69249243D01*
X75563548Y-69421210D01*
X75563550Y-69421212D01*
X75563553Y-69421216D01*
X75713865Y-69571528D01*
X75713868Y-69571530D01*
X75713870Y-69571532D01*
X75885837Y-69696473D01*
X75885841Y-69696475D01*
X76075245Y-69792981D01*
X76277414Y-69858670D01*
X76277415Y-69858670D01*
X76277418Y-69858671D01*
X76487367Y-69891924D01*
X76487370Y-69891924D01*
X76699947Y-69891924D01*
X76909895Y-69858671D01*
X76909896Y-69858670D01*
X76909900Y-69858670D01*
X77112069Y-69792981D01*
X77301473Y-69696475D01*
X77473449Y-69571528D01*
X77623761Y-69421216D01*
X77748708Y-69249240D01*
X77845214Y-69059836D01*
X77910903Y-68857667D01*
X77944157Y-68647711D01*
X77944157Y-68435137D01*
X77944157Y-68435133D01*
X77910904Y-68225185D01*
X77910903Y-68225181D01*
X77845214Y-68023012D01*
X77748708Y-67833608D01*
X77748706Y-67833604D01*
X77623765Y-67661637D01*
X77623763Y-67661635D01*
X77623761Y-67661632D01*
X77473449Y-67511320D01*
X77473445Y-67511317D01*
X77473443Y-67511315D01*
X77301476Y-67386374D01*
X77301472Y-67386372D01*
X77112069Y-67289867D01*
X76909895Y-67224176D01*
X76699947Y-67190924D01*
X76699944Y-67190924D01*
X76487370Y-67190924D01*
X76487367Y-67190924D01*
X76277418Y-67224176D01*
X76075244Y-67289867D01*
X75885841Y-67386372D01*
X75885837Y-67386374D01*
X75713870Y-67511315D01*
X75563548Y-67661637D01*
X75438607Y-67833604D01*
X75438605Y-67833608D01*
X75342100Y-68023011D01*
X75276409Y-68225185D01*
X75243157Y-68435133D01*
X53387157Y-68435133D01*
X53387157Y-67486676D01*
X53386650Y-67484129D01*
X53382665Y-67464093D01*
X53375524Y-67428193D01*
X53331209Y-67361872D01*
X53331205Y-67361869D01*
X53264890Y-67317558D01*
X53264888Y-67317557D01*
X53264885Y-67317556D01*
X53264884Y-67317556D01*
X53206415Y-67305925D01*
X53206405Y-67305924D01*
X51466909Y-67305924D01*
X51466908Y-67305924D01*
X51466898Y-67305925D01*
X51408429Y-67317556D01*
X51408423Y-67317558D01*
X51342108Y-67361869D01*
X51342102Y-67361875D01*
X51297791Y-67428190D01*
X51297789Y-67428196D01*
X51286158Y-67486665D01*
X51286157Y-67486677D01*
X18130532Y-67486677D01*
X17992476Y-67386374D01*
X17992472Y-67386372D01*
X17803069Y-67289867D01*
X17600895Y-67224176D01*
X17390947Y-67190924D01*
X17390944Y-67190924D01*
X17178370Y-67190924D01*
X17178367Y-67190924D01*
X16968418Y-67224176D01*
X16766244Y-67289867D01*
X16576841Y-67386372D01*
X16576837Y-67386374D01*
X16404870Y-67511315D01*
X16254548Y-67661637D01*
X16129607Y-67833604D01*
X16129605Y-67833608D01*
X16033100Y-68023011D01*
X15967409Y-68225185D01*
X15934157Y-68435133D01*
X15171763Y-68435133D01*
X15171204Y-64946677D01*
X24235157Y-64946677D01*
X24235157Y-66686170D01*
X24235158Y-66686182D01*
X24246789Y-66744651D01*
X24246791Y-66744657D01*
X24291102Y-66810972D01*
X24291105Y-66810976D01*
X24357426Y-66855291D01*
X24401888Y-66864135D01*
X24415898Y-66866922D01*
X24415903Y-66866922D01*
X24415909Y-66866924D01*
X24415910Y-66866924D01*
X26155404Y-66866924D01*
X26155405Y-66866924D01*
X26213888Y-66855291D01*
X26280209Y-66810976D01*
X26324524Y-66744655D01*
X26336157Y-66686172D01*
X26336157Y-65712956D01*
X26775157Y-65712956D01*
X26775157Y-65919891D01*
X26815526Y-66122842D01*
X26894715Y-66314021D01*
X26931313Y-66368794D01*
X27009680Y-66486079D01*
X27156002Y-66632401D01*
X27328059Y-66747365D01*
X27519237Y-66826554D01*
X27722192Y-66866924D01*
X27722193Y-66866924D01*
X27929121Y-66866924D01*
X27929122Y-66866924D01*
X28132077Y-66826554D01*
X28323255Y-66747365D01*
X28495312Y-66632401D01*
X28641634Y-66486079D01*
X28756598Y-66314022D01*
X28835787Y-66122844D01*
X28876157Y-65919889D01*
X28876157Y-65712959D01*
X28835787Y-65510004D01*
X28756598Y-65318826D01*
X28641634Y-65146769D01*
X28495312Y-65000447D01*
X28495308Y-65000444D01*
X28323254Y-64885482D01*
X28132075Y-64806293D01*
X27929124Y-64765924D01*
X27929122Y-64765924D01*
X27722192Y-64765924D01*
X27722189Y-64765924D01*
X27519238Y-64806293D01*
X27328059Y-64885482D01*
X27156005Y-65000444D01*
X27009677Y-65146772D01*
X26894715Y-65318826D01*
X26815526Y-65510005D01*
X26775157Y-65712956D01*
X26336157Y-65712956D01*
X26336157Y-64946676D01*
X26324524Y-64888193D01*
X26280209Y-64821872D01*
X26280205Y-64821869D01*
X26213890Y-64777558D01*
X26213888Y-64777557D01*
X26213885Y-64777556D01*
X26213884Y-64777556D01*
X26155415Y-64765925D01*
X26155405Y-64765924D01*
X24415909Y-64765924D01*
X24415908Y-64765924D01*
X24415898Y-64765925D01*
X24357429Y-64777556D01*
X24357423Y-64777558D01*
X24291108Y-64821869D01*
X24291102Y-64821875D01*
X24246791Y-64888190D01*
X24246789Y-64888196D01*
X24235158Y-64946665D01*
X24235157Y-64946677D01*
X15171204Y-64946677D01*
X15170072Y-57876532D01*
X27325157Y-57876532D01*
X27325157Y-58008316D01*
X27333899Y-58040942D01*
X27359266Y-58135614D01*
X27425153Y-58249733D01*
X27425155Y-58249735D01*
X27425157Y-58249738D01*
X27518343Y-58342924D01*
X27518345Y-58342925D01*
X27518347Y-58342927D01*
X27632467Y-58408814D01*
X27632465Y-58408814D01*
X27632469Y-58408815D01*
X27632471Y-58408816D01*
X27759765Y-58442924D01*
X27759767Y-58442924D01*
X27891547Y-58442924D01*
X27891549Y-58442924D01*
X28018843Y-58408816D01*
X28018845Y-58408814D01*
X28018847Y-58408814D01*
X28132966Y-58342927D01*
X28132966Y-58342926D01*
X28132971Y-58342924D01*
X28226157Y-58249738D01*
X28238554Y-58228264D01*
X28250555Y-58211706D01*
X28258227Y-58203145D01*
X28294108Y-58142507D01*
X28300055Y-58131732D01*
X28300700Y-58130476D01*
X28306073Y-58119182D01*
X28332972Y-58057888D01*
X28338934Y-58042688D01*
X28339540Y-58040942D01*
X28344235Y-58025477D01*
X28374192Y-57910747D01*
X28375027Y-57907437D01*
X28375129Y-57907018D01*
X28376069Y-57902978D01*
X28385458Y-57860710D01*
X28388829Y-57849002D01*
X28394642Y-57832667D01*
X28402681Y-57815493D01*
X28413265Y-57797582D01*
X28423684Y-57783107D01*
X28464712Y-57735770D01*
X28469206Y-57728195D01*
X28484341Y-57708709D01*
X31643117Y-54549935D01*
X31653939Y-54531191D01*
X31682678Y-54481413D01*
X31703157Y-54404986D01*
X31703157Y-50720902D01*
X31722064Y-50662711D01*
X31732147Y-50650904D01*
X34101647Y-48281403D01*
X34108161Y-48275448D01*
X34114102Y-48270483D01*
X34128974Y-48261572D01*
X34178752Y-48216462D01*
X34180255Y-48215207D01*
X34180796Y-48214989D01*
X34186871Y-48210136D01*
X34207491Y-48195675D01*
X34224321Y-48186178D01*
X34294550Y-48155160D01*
X34302843Y-48151935D01*
X34305895Y-48150905D01*
X34309363Y-48149698D01*
X34309619Y-48149606D01*
X34309772Y-48149552D01*
X34310748Y-48149192D01*
X34313225Y-48148281D01*
X34411789Y-48110995D01*
X34426033Y-48104985D01*
X34427624Y-48104242D01*
X34441324Y-48097207D01*
X34558999Y-48031097D01*
X34565609Y-48027220D01*
X34566346Y-48026769D01*
X34570223Y-48023055D01*
X34577287Y-48019645D01*
X34589205Y-48008811D01*
X34609971Y-47996824D01*
X34703157Y-47903638D01*
X34742015Y-47836334D01*
X34769047Y-47789514D01*
X34769047Y-47789512D01*
X34769049Y-47789510D01*
X34803157Y-47662216D01*
X34803157Y-47530432D01*
X34769049Y-47403138D01*
X34769047Y-47403134D01*
X34769047Y-47403133D01*
X34703160Y-47289014D01*
X34703158Y-47289012D01*
X34703157Y-47289010D01*
X34650072Y-47235925D01*
X34639549Y-47215272D01*
X34625923Y-47196517D01*
X34625923Y-47188527D01*
X34622297Y-47181411D01*
X34625923Y-47158516D01*
X34625923Y-47135331D01*
X34630618Y-47128868D01*
X34631868Y-47120979D01*
X34648259Y-47104587D01*
X34661887Y-47085831D01*
X34669484Y-47083362D01*
X34675133Y-47077714D01*
X34720078Y-47066924D01*
X34860121Y-47066924D01*
X34918312Y-47085831D01*
X34930125Y-47095920D01*
X35257456Y-47423251D01*
X35285233Y-47477768D01*
X35275662Y-47538200D01*
X35236952Y-47578991D01*
X35138347Y-47635920D01*
X35138342Y-47635924D01*
X35045160Y-47729105D01*
X35045159Y-47729106D01*
X35032764Y-47750574D01*
X35020762Y-47767134D01*
X35013088Y-47775697D01*
X35013084Y-47775703D01*
X34977206Y-47836334D01*
X34971312Y-47847007D01*
X34970678Y-47848239D01*
X34965243Y-47859655D01*
X34938338Y-47920965D01*
X34932370Y-47936180D01*
X34931769Y-47937912D01*
X34927077Y-47953369D01*
X34897108Y-48068143D01*
X34896346Y-48071163D01*
X34896220Y-48071674D01*
X34895245Y-48075862D01*
X34885859Y-48118114D01*
X34882485Y-48129836D01*
X34876670Y-48146176D01*
X34868629Y-48163352D01*
X34858037Y-48181275D01*
X34847623Y-48195743D01*
X34806598Y-48243081D01*
X34806596Y-48243083D01*
X34802098Y-48250664D01*
X34798193Y-48255689D01*
X34797604Y-48257565D01*
X34795559Y-48259080D01*
X34786966Y-48270142D01*
X33338146Y-49718964D01*
X33338145Y-49718963D01*
X33282196Y-49774913D01*
X33242637Y-49843431D01*
X33242635Y-49843435D01*
X33222157Y-49919859D01*
X33222157Y-54111945D01*
X33203250Y-54170136D01*
X33193161Y-54181949D01*
X29673146Y-57701964D01*
X29673145Y-57701963D01*
X29617196Y-57757913D01*
X29577637Y-57826431D01*
X29577635Y-57826435D01*
X29557157Y-57902859D01*
X29557157Y-63188988D01*
X29577635Y-63265412D01*
X29577637Y-63265416D01*
X29617195Y-63333932D01*
X29617197Y-63333935D01*
X30036162Y-63752900D01*
X30063938Y-63807415D01*
X30065157Y-63822902D01*
X30065157Y-64103669D01*
X30064998Y-64109285D01*
X30064517Y-64117743D01*
X30059903Y-64137672D01*
X30055644Y-64273897D01*
X30055571Y-64275190D01*
X30055488Y-64275402D01*
X30055131Y-64280448D01*
X30043426Y-64386368D01*
X30041925Y-64395777D01*
X30027337Y-64465471D01*
X30024595Y-64475770D01*
X30009422Y-64522486D01*
X30002964Y-64537835D01*
X29951166Y-64636738D01*
X29941496Y-64651735D01*
X29839264Y-64782663D01*
X29836171Y-64786430D01*
X29803436Y-64824346D01*
X29801549Y-64826561D01*
X29662854Y-64991571D01*
X29658643Y-64996748D01*
X29658193Y-64997320D01*
X29653831Y-65003068D01*
X29500242Y-65213024D01*
X29497690Y-65216591D01*
X29497434Y-65216958D01*
X29491559Y-65230705D01*
X29482841Y-65246798D01*
X29434716Y-65318823D01*
X29355526Y-65510005D01*
X29315157Y-65712956D01*
X29315157Y-65919891D01*
X29355526Y-66122842D01*
X29434715Y-66314021D01*
X29471313Y-66368794D01*
X29549680Y-66486079D01*
X29696002Y-66632401D01*
X29868059Y-66747365D01*
X30059237Y-66826554D01*
X30262192Y-66866924D01*
X30262193Y-66866924D01*
X30469121Y-66866924D01*
X30469122Y-66866924D01*
X30672077Y-66826554D01*
X30863255Y-66747365D01*
X31035312Y-66632401D01*
X31181634Y-66486079D01*
X31296598Y-66314022D01*
X31375787Y-66122844D01*
X31416157Y-65919889D01*
X31416157Y-65712959D01*
X31375787Y-65510004D01*
X31296598Y-65318826D01*
X31296596Y-65318823D01*
X31296594Y-65318819D01*
X31246306Y-65243559D01*
X31239122Y-65230877D01*
X31232540Y-65216958D01*
X31230157Y-65211918D01*
X31050005Y-64968993D01*
X31049992Y-64968975D01*
X31045917Y-64963665D01*
X31045436Y-64963059D01*
X31041155Y-64957842D01*
X30930351Y-64827250D01*
X30929496Y-64826229D01*
X30927941Y-64824346D01*
X30810204Y-64681735D01*
X30804384Y-64673934D01*
X30789463Y-64651735D01*
X30769934Y-64622680D01*
X30764162Y-64612928D01*
X30737668Y-64561685D01*
X30732457Y-64549738D01*
X30711175Y-64490597D01*
X30707693Y-64478592D01*
X30690254Y-64400269D01*
X30688522Y-64389943D01*
X30676417Y-64283524D01*
X30675837Y-64275548D01*
X30671415Y-64137501D01*
X30668552Y-64124721D01*
X30666157Y-64103078D01*
X30666157Y-63617861D01*
X30666156Y-63617859D01*
X30645678Y-63541435D01*
X30645676Y-63541431D01*
X30606117Y-63472913D01*
X30550168Y-63416963D01*
X30550168Y-63416964D01*
X30187153Y-63053949D01*
X30159376Y-62999432D01*
X30158157Y-62983945D01*
X30158157Y-58107902D01*
X30177064Y-58049711D01*
X30187147Y-58037904D01*
X33752772Y-54472279D01*
X33807285Y-54444505D01*
X33867717Y-54454076D01*
X33910982Y-54497341D01*
X33918397Y-54516659D01*
X33928680Y-54555033D01*
X33935266Y-54579614D01*
X34001153Y-54693733D01*
X34001155Y-54693735D01*
X34001157Y-54693738D01*
X34094343Y-54786924D01*
X34094345Y-54786925D01*
X34094347Y-54786927D01*
X34208467Y-54852814D01*
X34208465Y-54852814D01*
X34208469Y-54852815D01*
X34208471Y-54852816D01*
X34335765Y-54886924D01*
X34335767Y-54886924D01*
X34467547Y-54886924D01*
X34467549Y-54886924D01*
X34594843Y-54852816D01*
X34594845Y-54852814D01*
X34594847Y-54852814D01*
X34708966Y-54786927D01*
X34708966Y-54786926D01*
X34708971Y-54786924D01*
X34802157Y-54693738D01*
X34821680Y-54659924D01*
X34868047Y-54579614D01*
X34868047Y-54579612D01*
X34868049Y-54579610D01*
X34902157Y-54452316D01*
X34902157Y-54320532D01*
X34868049Y-54193238D01*
X34868047Y-54193235D01*
X34868047Y-54193233D01*
X34802160Y-54079114D01*
X34802158Y-54079112D01*
X34802157Y-54079110D01*
X34708971Y-53985924D01*
X34708968Y-53985922D01*
X34708966Y-53985920D01*
X34594846Y-53920033D01*
X34594848Y-53920033D01*
X34514222Y-53898430D01*
X34467549Y-53885924D01*
X34335765Y-53885924D01*
X34289092Y-53898430D01*
X34208466Y-53920033D01*
X34094347Y-53985920D01*
X34001151Y-54079116D01*
X34000696Y-54079710D01*
X34000254Y-54080013D01*
X33996569Y-54083699D01*
X33995885Y-54083015D01*
X33950270Y-54114364D01*
X33889105Y-54112759D01*
X33840566Y-54075509D01*
X33823157Y-54019439D01*
X33823157Y-50124902D01*
X33842064Y-50066711D01*
X33852147Y-50054904D01*
X35214173Y-48692877D01*
X35221641Y-48686135D01*
X35227448Y-48681403D01*
X35241298Y-48673243D01*
X35281140Y-48637666D01*
X35282865Y-48636262D01*
X35283547Y-48635997D01*
X35290295Y-48630766D01*
X35299406Y-48624663D01*
X35319308Y-48614382D01*
X35366214Y-48596545D01*
X35380774Y-48592255D01*
X35404387Y-48587231D01*
X35408845Y-48586230D01*
X35409315Y-48586119D01*
X35413119Y-48585182D01*
X35413133Y-48585178D01*
X35413155Y-48585173D01*
X35447060Y-48576479D01*
X35522591Y-48557114D01*
X35537800Y-48552582D01*
X35539509Y-48552000D01*
X35554324Y-48546308D01*
X35608106Y-48523220D01*
X35612771Y-48522793D01*
X35616564Y-48520038D01*
X35642861Y-48520038D01*
X35669035Y-48517641D01*
X35673061Y-48520038D01*
X35677750Y-48520038D01*
X35699023Y-48535493D01*
X35721609Y-48548940D01*
X35723457Y-48553246D01*
X35727250Y-48556002D01*
X35735375Y-48581008D01*
X35745744Y-48605164D01*
X35746157Y-48614193D01*
X35746157Y-48793945D01*
X35727250Y-48852136D01*
X35717161Y-48863949D01*
X35642146Y-48938964D01*
X35642145Y-48938963D01*
X35586196Y-48994913D01*
X35546637Y-49063431D01*
X35546635Y-49063435D01*
X35526157Y-49139859D01*
X35526157Y-55363945D01*
X35507250Y-55422136D01*
X35497161Y-55433949D01*
X32721146Y-58209964D01*
X32721145Y-58209963D01*
X32665196Y-58265913D01*
X32625637Y-58334431D01*
X32625635Y-58334435D01*
X32605157Y-58410859D01*
X32605157Y-64103669D01*
X32604998Y-64109285D01*
X32604517Y-64117743D01*
X32599903Y-64137672D01*
X32595644Y-64273897D01*
X32595571Y-64275190D01*
X32595488Y-64275402D01*
X32595131Y-64280448D01*
X32583426Y-64386368D01*
X32581925Y-64395777D01*
X32567337Y-64465471D01*
X32564595Y-64475770D01*
X32549422Y-64522486D01*
X32542964Y-64537835D01*
X32491166Y-64636738D01*
X32481496Y-64651735D01*
X32379264Y-64782663D01*
X32376171Y-64786430D01*
X32343436Y-64824346D01*
X32341549Y-64826561D01*
X32202854Y-64991571D01*
X32198643Y-64996748D01*
X32198193Y-64997320D01*
X32193831Y-65003068D01*
X32040242Y-65213024D01*
X32037690Y-65216591D01*
X32037434Y-65216958D01*
X32031559Y-65230705D01*
X32022841Y-65246798D01*
X31974716Y-65318823D01*
X31895526Y-65510005D01*
X31855157Y-65712956D01*
X31855157Y-65919891D01*
X31895526Y-66122842D01*
X31974715Y-66314021D01*
X32011313Y-66368794D01*
X32089680Y-66486079D01*
X32236002Y-66632401D01*
X32408059Y-66747365D01*
X32599237Y-66826554D01*
X32802192Y-66866924D01*
X32802193Y-66866924D01*
X33009121Y-66866924D01*
X33009122Y-66866924D01*
X33212077Y-66826554D01*
X33403255Y-66747365D01*
X33575312Y-66632401D01*
X33721634Y-66486079D01*
X33836598Y-66314022D01*
X33915787Y-66122844D01*
X33956157Y-65919889D01*
X33956157Y-65712959D01*
X33915787Y-65510004D01*
X33836598Y-65318826D01*
X33836596Y-65318823D01*
X33836594Y-65318819D01*
X33786306Y-65243559D01*
X33779122Y-65230877D01*
X33772540Y-65216958D01*
X33770157Y-65211918D01*
X33590005Y-64968993D01*
X33589992Y-64968975D01*
X33585917Y-64963665D01*
X33585436Y-64963059D01*
X33581155Y-64957842D01*
X33470351Y-64827250D01*
X33469496Y-64826229D01*
X33467941Y-64824346D01*
X33350204Y-64681735D01*
X33344384Y-64673934D01*
X33329463Y-64651735D01*
X33309934Y-64622680D01*
X33304162Y-64612928D01*
X33277668Y-64561685D01*
X33272457Y-64549738D01*
X33251175Y-64490597D01*
X33247693Y-64478592D01*
X33230254Y-64400269D01*
X33228522Y-64389943D01*
X33216417Y-64283524D01*
X33215837Y-64275548D01*
X33211415Y-64137501D01*
X33208552Y-64124721D01*
X33206157Y-64103078D01*
X33206157Y-58615902D01*
X33225064Y-58557711D01*
X33235147Y-58545904D01*
X36067117Y-55713935D01*
X36077480Y-55695986D01*
X36106678Y-55645413D01*
X36127157Y-55568986D01*
X36127157Y-49344902D01*
X36146064Y-49286711D01*
X36156147Y-49274904D01*
X36287117Y-49143935D01*
X36293474Y-49132924D01*
X36326678Y-49075413D01*
X36347157Y-48998986D01*
X36347157Y-48996605D01*
X36351290Y-48986316D01*
X36367276Y-48967184D01*
X36380855Y-48946277D01*
X36386586Y-48944076D01*
X36390524Y-48939365D01*
X36414704Y-48933283D01*
X36437976Y-48924351D01*
X36443905Y-48925939D01*
X36449862Y-48924442D01*
X36472998Y-48933735D01*
X36497077Y-48940187D01*
X36500941Y-48944958D01*
X36506638Y-48947247D01*
X36519890Y-48968359D01*
X36535582Y-48987737D01*
X36537060Y-48995712D01*
X36539167Y-48999069D01*
X36538768Y-49004933D01*
X36542157Y-49023215D01*
X36542157Y-57649945D01*
X36523250Y-57708136D01*
X36513161Y-57719949D01*
X35261146Y-58971964D01*
X35261145Y-58971963D01*
X35205196Y-59027913D01*
X35165637Y-59096431D01*
X35165635Y-59096435D01*
X35145157Y-59172859D01*
X35145157Y-64103669D01*
X35144998Y-64109285D01*
X35144517Y-64117743D01*
X35139903Y-64137672D01*
X35135644Y-64273897D01*
X35135571Y-64275190D01*
X35135488Y-64275402D01*
X35135131Y-64280448D01*
X35123426Y-64386368D01*
X35121925Y-64395777D01*
X35107337Y-64465471D01*
X35104595Y-64475770D01*
X35089422Y-64522486D01*
X35082964Y-64537835D01*
X35031166Y-64636738D01*
X35021496Y-64651735D01*
X34919264Y-64782663D01*
X34916171Y-64786430D01*
X34883436Y-64824346D01*
X34881549Y-64826561D01*
X34742854Y-64991571D01*
X34738643Y-64996748D01*
X34738193Y-64997320D01*
X34733831Y-65003068D01*
X34580242Y-65213024D01*
X34577690Y-65216591D01*
X34577434Y-65216958D01*
X34571559Y-65230705D01*
X34562841Y-65246798D01*
X34514716Y-65318823D01*
X34435526Y-65510005D01*
X34395157Y-65712956D01*
X34395157Y-65919891D01*
X34435526Y-66122842D01*
X34514715Y-66314021D01*
X34551313Y-66368794D01*
X34629680Y-66486079D01*
X34776002Y-66632401D01*
X34948059Y-66747365D01*
X35139237Y-66826554D01*
X35342192Y-66866924D01*
X35342193Y-66866924D01*
X35549121Y-66866924D01*
X35549122Y-66866924D01*
X35752077Y-66826554D01*
X35943255Y-66747365D01*
X36115312Y-66632401D01*
X36261634Y-66486079D01*
X36376598Y-66314022D01*
X36455787Y-66122844D01*
X36496157Y-65919889D01*
X36496157Y-65712959D01*
X36496156Y-65712956D01*
X39475157Y-65712956D01*
X39475157Y-65919891D01*
X39515526Y-66122842D01*
X39594715Y-66314021D01*
X39631313Y-66368794D01*
X39709680Y-66486079D01*
X39856002Y-66632401D01*
X40028059Y-66747365D01*
X40219237Y-66826554D01*
X40422192Y-66866924D01*
X40422193Y-66866924D01*
X40629121Y-66866924D01*
X40629122Y-66866924D01*
X40832077Y-66826554D01*
X41023255Y-66747365D01*
X41195312Y-66632401D01*
X41341634Y-66486079D01*
X41456598Y-66314022D01*
X41535787Y-66122844D01*
X41576157Y-65919889D01*
X41576157Y-65712959D01*
X41576156Y-65712956D01*
X51286157Y-65712956D01*
X51286157Y-65919891D01*
X51326526Y-66122842D01*
X51405715Y-66314021D01*
X51442313Y-66368794D01*
X51520680Y-66486079D01*
X51667002Y-66632401D01*
X51839059Y-66747365D01*
X52030237Y-66826554D01*
X52233192Y-66866924D01*
X52233193Y-66866924D01*
X52440121Y-66866924D01*
X52440122Y-66866924D01*
X52643077Y-66826554D01*
X52834255Y-66747365D01*
X53006312Y-66632401D01*
X53152634Y-66486079D01*
X53267598Y-66314022D01*
X53346787Y-66122844D01*
X53387157Y-65919889D01*
X53387157Y-65712959D01*
X53346787Y-65510004D01*
X53267598Y-65318826D01*
X53152634Y-65146769D01*
X53006312Y-65000447D01*
X53006308Y-65000444D01*
X52834254Y-64885482D01*
X52643075Y-64806293D01*
X52440124Y-64765924D01*
X52440122Y-64765924D01*
X52233192Y-64765924D01*
X52233189Y-64765924D01*
X52030238Y-64806293D01*
X51839059Y-64885482D01*
X51667005Y-65000444D01*
X51520677Y-65146772D01*
X51405715Y-65318826D01*
X51326526Y-65510005D01*
X51286157Y-65712956D01*
X41576156Y-65712956D01*
X41535787Y-65510004D01*
X41456598Y-65318826D01*
X41341634Y-65146769D01*
X41195312Y-65000447D01*
X41195308Y-65000444D01*
X41023254Y-64885482D01*
X40832075Y-64806293D01*
X40629124Y-64765924D01*
X40629122Y-64765924D01*
X40422192Y-64765924D01*
X40422189Y-64765924D01*
X40219238Y-64806293D01*
X40028059Y-64885482D01*
X39856005Y-65000444D01*
X39709677Y-65146772D01*
X39594715Y-65318826D01*
X39515526Y-65510005D01*
X39475157Y-65712956D01*
X36496156Y-65712956D01*
X36455787Y-65510004D01*
X36376598Y-65318826D01*
X36376596Y-65318823D01*
X36376594Y-65318819D01*
X36326306Y-65243559D01*
X36319122Y-65230877D01*
X36312540Y-65216958D01*
X36310157Y-65211918D01*
X36130005Y-64968993D01*
X36129992Y-64968975D01*
X36125917Y-64963665D01*
X36125436Y-64963059D01*
X36121155Y-64957842D01*
X36010351Y-64827250D01*
X36009496Y-64826229D01*
X36007941Y-64824346D01*
X35890204Y-64681735D01*
X35884384Y-64673934D01*
X35869463Y-64651735D01*
X35849934Y-64622680D01*
X35844162Y-64612928D01*
X35817668Y-64561685D01*
X35812457Y-64549738D01*
X35791175Y-64490597D01*
X35787693Y-64478592D01*
X35770254Y-64400269D01*
X35768522Y-64389943D01*
X35756417Y-64283524D01*
X35755837Y-64275548D01*
X35751415Y-64137501D01*
X35748552Y-64124721D01*
X35746157Y-64103078D01*
X35746157Y-63337532D01*
X41041157Y-63337532D01*
X41041157Y-63469316D01*
X41042121Y-63472913D01*
X41075266Y-63596614D01*
X41141153Y-63710733D01*
X41141155Y-63710735D01*
X41141157Y-63710738D01*
X41234343Y-63803924D01*
X41234345Y-63803925D01*
X41234347Y-63803927D01*
X41348467Y-63869814D01*
X41348465Y-63869814D01*
X41348469Y-63869815D01*
X41348471Y-63869816D01*
X41475765Y-63903924D01*
X41475767Y-63903924D01*
X41607547Y-63903924D01*
X41607549Y-63903924D01*
X41734843Y-63869816D01*
X41734845Y-63869814D01*
X41734847Y-63869814D01*
X41848966Y-63803927D01*
X41848966Y-63803926D01*
X41848971Y-63803924D01*
X41942157Y-63710738D01*
X42008049Y-63596610D01*
X42042157Y-63469316D01*
X42042157Y-63337532D01*
X42008049Y-63210238D01*
X42008047Y-63210235D01*
X42008047Y-63210233D01*
X41942160Y-63096114D01*
X41942158Y-63096112D01*
X41942157Y-63096110D01*
X41848971Y-63002924D01*
X41848968Y-63002922D01*
X41848966Y-63002920D01*
X41734846Y-62937033D01*
X41734848Y-62937033D01*
X41685456Y-62923799D01*
X41607549Y-62902924D01*
X41475765Y-62902924D01*
X41397857Y-62923799D01*
X41348466Y-62937033D01*
X41234347Y-63002920D01*
X41141153Y-63096114D01*
X41075266Y-63210233D01*
X41075265Y-63210238D01*
X41041157Y-63337532D01*
X35746157Y-63337532D01*
X35746157Y-59377902D01*
X35765064Y-59319711D01*
X35775147Y-59307904D01*
X37083117Y-57999935D01*
X37096402Y-57976924D01*
X37122678Y-57931413D01*
X37143157Y-57854986D01*
X37143157Y-56352532D01*
X39009157Y-56352532D01*
X39009157Y-56484316D01*
X39022436Y-56533875D01*
X39043266Y-56611614D01*
X39109153Y-56725733D01*
X39109155Y-56725735D01*
X39109157Y-56725738D01*
X39202343Y-56818924D01*
X39202345Y-56818925D01*
X39202347Y-56818927D01*
X39316467Y-56884814D01*
X39316465Y-56884814D01*
X39316469Y-56884815D01*
X39316471Y-56884816D01*
X39443765Y-56918924D01*
X39443767Y-56918924D01*
X39575547Y-56918924D01*
X39575549Y-56918924D01*
X39702843Y-56884816D01*
X39702845Y-56884814D01*
X39702847Y-56884814D01*
X39816966Y-56818927D01*
X39816966Y-56818926D01*
X39816971Y-56818924D01*
X39910157Y-56725738D01*
X39922554Y-56704264D01*
X39934555Y-56687706D01*
X39942227Y-56679145D01*
X39978108Y-56618507D01*
X39984055Y-56607732D01*
X39984700Y-56606476D01*
X39990073Y-56595182D01*
X40016972Y-56533888D01*
X40022934Y-56518688D01*
X40023540Y-56516942D01*
X40028235Y-56501477D01*
X40058192Y-56386747D01*
X40059027Y-56383437D01*
X40059129Y-56383018D01*
X40060069Y-56378978D01*
X40069458Y-56336710D01*
X40072829Y-56325002D01*
X40078642Y-56308667D01*
X40086681Y-56291493D01*
X40097265Y-56273582D01*
X40107684Y-56259107D01*
X40109708Y-56256772D01*
X40148712Y-56211770D01*
X40153206Y-56204195D01*
X40168341Y-56184709D01*
X40802173Y-55550877D01*
X40809641Y-55544135D01*
X40815448Y-55539403D01*
X40829298Y-55531243D01*
X40869140Y-55495666D01*
X40870865Y-55494262D01*
X40871547Y-55493997D01*
X40878295Y-55488766D01*
X40879714Y-55487816D01*
X40887406Y-55482662D01*
X40907308Y-55472382D01*
X40954214Y-55454545D01*
X40968774Y-55450255D01*
X40992387Y-55445231D01*
X40996845Y-55444230D01*
X40997315Y-55444119D01*
X41001119Y-55443182D01*
X41001133Y-55443178D01*
X41001155Y-55443173D01*
X41037130Y-55433949D01*
X41110591Y-55415114D01*
X41125800Y-55410582D01*
X41127509Y-55410000D01*
X41142324Y-55404308D01*
X41205860Y-55377034D01*
X41217590Y-55371554D01*
X41218908Y-55370887D01*
X41230328Y-55364646D01*
X41293897Y-55327243D01*
X41298746Y-55324299D01*
X41299281Y-55323964D01*
X41303246Y-55320127D01*
X41322581Y-55305541D01*
X41340971Y-55294924D01*
X41434157Y-55201738D01*
X41471295Y-55137413D01*
X41500047Y-55087614D01*
X41500047Y-55087612D01*
X41500049Y-55087610D01*
X41534157Y-54960316D01*
X41534157Y-54828532D01*
X41500049Y-54701238D01*
X41500047Y-54701235D01*
X41500047Y-54701233D01*
X41434160Y-54587114D01*
X41434158Y-54587112D01*
X41434157Y-54587110D01*
X41340971Y-54493924D01*
X41340968Y-54493922D01*
X41340966Y-54493920D01*
X41226846Y-54428033D01*
X41226848Y-54428033D01*
X41177456Y-54414799D01*
X41099549Y-54393924D01*
X40967765Y-54393924D01*
X40889857Y-54414799D01*
X40840466Y-54428033D01*
X40726347Y-54493920D01*
X40726342Y-54493924D01*
X40633160Y-54587105D01*
X40633159Y-54587106D01*
X40620764Y-54608574D01*
X40608762Y-54625134D01*
X40601088Y-54633697D01*
X40601084Y-54633703D01*
X40565206Y-54694334D01*
X40559312Y-54705007D01*
X40558678Y-54706239D01*
X40553243Y-54717655D01*
X40526338Y-54778965D01*
X40520370Y-54794180D01*
X40519769Y-54795912D01*
X40515077Y-54811369D01*
X40485108Y-54926143D01*
X40484346Y-54929163D01*
X40484220Y-54929674D01*
X40483245Y-54933862D01*
X40473859Y-54976114D01*
X40470485Y-54987836D01*
X40464670Y-55004176D01*
X40456629Y-55021352D01*
X40446037Y-55039275D01*
X40435623Y-55053743D01*
X40394598Y-55101081D01*
X40394596Y-55101083D01*
X40390098Y-55108664D01*
X40374966Y-55128142D01*
X39741149Y-55761959D01*
X39733670Y-55768712D01*
X39727857Y-55773446D01*
X39714014Y-55781605D01*
X39674196Y-55817158D01*
X39672443Y-55818587D01*
X39671760Y-55818851D01*
X39665012Y-55824083D01*
X39655908Y-55830181D01*
X39636002Y-55840463D01*
X39589106Y-55858296D01*
X39574532Y-55862590D01*
X39550913Y-55867618D01*
X39550867Y-55867628D01*
X39550845Y-55867633D01*
X39546577Y-55868590D01*
X39546319Y-55868651D01*
X39546078Y-55868708D01*
X39546044Y-55868716D01*
X39546016Y-55868723D01*
X39542236Y-55869652D01*
X39432721Y-55897731D01*
X39417522Y-55902260D01*
X39415790Y-55902850D01*
X39400991Y-55908537D01*
X39337428Y-55935823D01*
X39325720Y-55941293D01*
X39324398Y-55941962D01*
X39313009Y-55948187D01*
X39267264Y-55975103D01*
X39257976Y-55980569D01*
X39249342Y-55985649D01*
X39244387Y-55988659D01*
X39243901Y-55988964D01*
X39243888Y-55988974D01*
X39239970Y-55992768D01*
X39220618Y-56007371D01*
X39202341Y-56017924D01*
X39109157Y-56111109D01*
X39109153Y-56111114D01*
X39043266Y-56225233D01*
X39031055Y-56270807D01*
X39009157Y-56352532D01*
X37143157Y-56352532D01*
X37143157Y-49975546D01*
X44310052Y-49975546D01*
X44310052Y-50107330D01*
X44334750Y-50199504D01*
X44344161Y-50234628D01*
X44410048Y-50348747D01*
X44410050Y-50348749D01*
X44410052Y-50348752D01*
X44503238Y-50441938D01*
X44522823Y-50453245D01*
X44540154Y-50465945D01*
X44546215Y-50471492D01*
X44547802Y-50472944D01*
X44547804Y-50472945D01*
X44547809Y-50472949D01*
X44716979Y-50575464D01*
X44717579Y-50575830D01*
X44811878Y-50633893D01*
X44825582Y-50644058D01*
X44867925Y-50681532D01*
X44942377Y-50747424D01*
X44942980Y-50747957D01*
X44974026Y-50800681D01*
X44974794Y-50804506D01*
X45339928Y-52827204D01*
X45340404Y-52829180D01*
X45343157Y-52852365D01*
X45343157Y-54759170D01*
X45343158Y-54759182D01*
X45354789Y-54817651D01*
X45354791Y-54817657D01*
X45378283Y-54852814D01*
X45399105Y-54883976D01*
X45465426Y-54928291D01*
X45509888Y-54937135D01*
X45523898Y-54939922D01*
X45523903Y-54939922D01*
X45523909Y-54939924D01*
X45523910Y-54939924D01*
X48163404Y-54939924D01*
X48163405Y-54939924D01*
X48221888Y-54928291D01*
X48288209Y-54883976D01*
X48332524Y-54817655D01*
X48344157Y-54759172D01*
X48344157Y-51219676D01*
X48332524Y-51161193D01*
X48288209Y-51094872D01*
X48288205Y-51094869D01*
X48221890Y-51050558D01*
X48221888Y-51050557D01*
X48221885Y-51050556D01*
X48221884Y-51050556D01*
X48163415Y-51038925D01*
X48163405Y-51038924D01*
X48163404Y-51038924D01*
X47015731Y-51038924D01*
X46966570Y-51025855D01*
X45563699Y-50223278D01*
X45542852Y-50207346D01*
X45535011Y-50199504D01*
X45520821Y-50181578D01*
X45514799Y-50171841D01*
X45514795Y-50171836D01*
X45441093Y-50092753D01*
X45434467Y-50084857D01*
X45396560Y-50034579D01*
X45390372Y-50025332D01*
X45346443Y-49950968D01*
X45345232Y-49948944D01*
X45242062Y-49778695D01*
X45239695Y-49774884D01*
X45239442Y-49774486D01*
X45235604Y-49770548D01*
X45220765Y-49750949D01*
X45211052Y-49734124D01*
X45117866Y-49640938D01*
X45117863Y-49640936D01*
X45117861Y-49640934D01*
X45003741Y-49575047D01*
X45003743Y-49575047D01*
X44954351Y-49561813D01*
X44876444Y-49540938D01*
X44744660Y-49540938D01*
X44666752Y-49561813D01*
X44617361Y-49575047D01*
X44503242Y-49640934D01*
X44410048Y-49734128D01*
X44344161Y-49848247D01*
X44331245Y-49896452D01*
X44310052Y-49975546D01*
X37143157Y-49975546D01*
X37143157Y-47669342D01*
X37122678Y-47592915D01*
X37083117Y-47524393D01*
X37057329Y-47498605D01*
X37027168Y-47468443D01*
X37027168Y-47468444D01*
X35068686Y-45509962D01*
X35064313Y-45507438D01*
X35064309Y-45507434D01*
X35064309Y-45507436D01*
X35000166Y-45470403D01*
X35000165Y-45470402D01*
X35000164Y-45470402D01*
X34923741Y-45449924D01*
X34923739Y-45449924D01*
X32913194Y-45449924D01*
X32884872Y-45446042D01*
X32820422Y-45449924D01*
X32814646Y-45449924D01*
X32814645Y-45449924D01*
X32808217Y-45450770D01*
X32808206Y-45450692D01*
X32806761Y-45450955D01*
X32806790Y-45451171D01*
X32803304Y-45451639D01*
X32788285Y-45454232D01*
X32729396Y-45466663D01*
X32729357Y-45466673D01*
X32705678Y-45473175D01*
X32705639Y-45473186D01*
X32702989Y-45474088D01*
X32702984Y-45474090D01*
X32680286Y-45483359D01*
X32680245Y-45483377D01*
X32590326Y-45526536D01*
X32576471Y-45533847D01*
X32574956Y-45534723D01*
X32561593Y-45543143D01*
X32534469Y-45561720D01*
X32530665Y-45564199D01*
X32467060Y-45603602D01*
X32452649Y-45610973D01*
X32433598Y-45618825D01*
X32421030Y-45623045D01*
X32373080Y-45635643D01*
X32373071Y-45635646D01*
X32358642Y-45642391D01*
X32342346Y-45648331D01*
X32280020Y-45665032D01*
X32280018Y-45665033D01*
X32165898Y-45730920D01*
X32072704Y-45824114D01*
X32006817Y-45938233D01*
X31974015Y-46060654D01*
X31940691Y-46111969D01*
X31883569Y-46133895D01*
X31824469Y-46118059D01*
X31818122Y-46113574D01*
X31815969Y-46111922D01*
X31701846Y-46046033D01*
X31701848Y-46046033D01*
X31652456Y-46032799D01*
X31574549Y-46011924D01*
X31442765Y-46011924D01*
X31364857Y-46032799D01*
X31315466Y-46046033D01*
X31201347Y-46111920D01*
X31201342Y-46111924D01*
X31108160Y-46205105D01*
X31108159Y-46205106D01*
X31095764Y-46226574D01*
X31083762Y-46243134D01*
X31076088Y-46251697D01*
X31076084Y-46251703D01*
X31040206Y-46312334D01*
X31034312Y-46323007D01*
X31033678Y-46324239D01*
X31028243Y-46335655D01*
X31001338Y-46396965D01*
X30995370Y-46412180D01*
X30994769Y-46413912D01*
X30990077Y-46429369D01*
X30960108Y-46544143D01*
X30959346Y-46547163D01*
X30959220Y-46547674D01*
X30958245Y-46551862D01*
X30948859Y-46594114D01*
X30945485Y-46605836D01*
X30939670Y-46622176D01*
X30931629Y-46639352D01*
X30921037Y-46657275D01*
X30910623Y-46671743D01*
X30869598Y-46719081D01*
X30869596Y-46719083D01*
X30865098Y-46726664D01*
X30849966Y-46746142D01*
X29292146Y-48303964D01*
X29292145Y-48303963D01*
X29236196Y-48359913D01*
X29196637Y-48428431D01*
X29196635Y-48428435D01*
X29176157Y-48504859D01*
X29176157Y-53631537D01*
X29175644Y-53641601D01*
X29174882Y-53649053D01*
X29170861Y-53664619D01*
X29167845Y-53717921D01*
X29167616Y-53720165D01*
X29167320Y-53720833D01*
X29166249Y-53729305D01*
X29164123Y-53740057D01*
X29157317Y-53761405D01*
X29136768Y-53807170D01*
X29129498Y-53820513D01*
X29116355Y-53840764D01*
X29113923Y-53844602D01*
X29113747Y-53844887D01*
X29111647Y-53848359D01*
X29054063Y-53945651D01*
X29046498Y-53959643D01*
X29045699Y-53961269D01*
X29039283Y-53975696D01*
X29013618Y-54039969D01*
X29009176Y-54052205D01*
X29008732Y-54053562D01*
X29005095Y-54065976D01*
X28986580Y-54137426D01*
X28985285Y-54142710D01*
X28985150Y-54143296D01*
X28985055Y-54148920D01*
X28981696Y-54172857D01*
X28976157Y-54193528D01*
X28976157Y-54193532D01*
X28976157Y-54325316D01*
X28994403Y-54393412D01*
X29010266Y-54452614D01*
X29076153Y-54566733D01*
X29076155Y-54566735D01*
X29076157Y-54566738D01*
X29169343Y-54659924D01*
X29169345Y-54659925D01*
X29169347Y-54659927D01*
X29283467Y-54725814D01*
X29283465Y-54725814D01*
X29283469Y-54725815D01*
X29283471Y-54725816D01*
X29410765Y-54759924D01*
X29410767Y-54759924D01*
X29542547Y-54759924D01*
X29542549Y-54759924D01*
X29669843Y-54725816D01*
X29669845Y-54725814D01*
X29669847Y-54725814D01*
X29783966Y-54659927D01*
X29783966Y-54659926D01*
X29783971Y-54659924D01*
X29877157Y-54566738D01*
X29883915Y-54555033D01*
X29943047Y-54452614D01*
X29943047Y-54452612D01*
X29943049Y-54452610D01*
X29977157Y-54325316D01*
X29977157Y-54193532D01*
X29970741Y-54169590D01*
X29967517Y-54149381D01*
X29967151Y-54142706D01*
X29966889Y-54137909D01*
X29949382Y-54069652D01*
X29945924Y-54057690D01*
X29945491Y-54056346D01*
X29941346Y-54044692D01*
X29917030Y-53982347D01*
X29910566Y-53967525D01*
X29909761Y-53965861D01*
X29902080Y-53951470D01*
X29842113Y-53849118D01*
X29840000Y-53845593D01*
X29839775Y-53845226D01*
X29839563Y-53844887D01*
X29837905Y-53842233D01*
X29814734Y-53805830D01*
X29808828Y-53795151D01*
X29801380Y-53779473D01*
X29794924Y-53761656D01*
X29789736Y-53741480D01*
X29786872Y-53723897D01*
X29782411Y-53661417D01*
X29780230Y-53652867D01*
X29777157Y-53628394D01*
X29777157Y-48709902D01*
X29796064Y-48651711D01*
X29806147Y-48639904D01*
X31277173Y-47168877D01*
X31284641Y-47162135D01*
X31290448Y-47157403D01*
X31304298Y-47149243D01*
X31344140Y-47113666D01*
X31345865Y-47112262D01*
X31346547Y-47111997D01*
X31353295Y-47106766D01*
X31362406Y-47100663D01*
X31382308Y-47090382D01*
X31429214Y-47072545D01*
X31443774Y-47068255D01*
X31467387Y-47063231D01*
X31471845Y-47062230D01*
X31472315Y-47062119D01*
X31476119Y-47061182D01*
X31476133Y-47061178D01*
X31476155Y-47061173D01*
X31510060Y-47052479D01*
X31585591Y-47033114D01*
X31600800Y-47028582D01*
X31602509Y-47028000D01*
X31617324Y-47022308D01*
X31680860Y-46995034D01*
X31692590Y-46989554D01*
X31693908Y-46988887D01*
X31705328Y-46982646D01*
X31768897Y-46945243D01*
X31773746Y-46942299D01*
X31774281Y-46941964D01*
X31778246Y-46938127D01*
X31797581Y-46923541D01*
X31815971Y-46912924D01*
X31909157Y-46819738D01*
X31975049Y-46705610D01*
X32007850Y-46583191D01*
X32041173Y-46531879D01*
X32098294Y-46509952D01*
X32157395Y-46525787D01*
X32163744Y-46530274D01*
X32165890Y-46531920D01*
X32165894Y-46531924D01*
X32165898Y-46531926D01*
X32165899Y-46531927D01*
X32280018Y-46597814D01*
X32280016Y-46597814D01*
X32280020Y-46597815D01*
X32280022Y-46597816D01*
X32407316Y-46631924D01*
X32407318Y-46631924D01*
X32539098Y-46631924D01*
X32539100Y-46631924D01*
X32666394Y-46597816D01*
X32728377Y-46562029D01*
X32788224Y-46549308D01*
X32844120Y-46574194D01*
X32863612Y-46598263D01*
X32918157Y-46692738D01*
X33011343Y-46785924D01*
X33011345Y-46785925D01*
X33011347Y-46785927D01*
X33125467Y-46851814D01*
X33125465Y-46851814D01*
X33125469Y-46851815D01*
X33125471Y-46851816D01*
X33252765Y-46885924D01*
X33252767Y-46885924D01*
X33384547Y-46885924D01*
X33384549Y-46885924D01*
X33511843Y-46851816D01*
X33511845Y-46851814D01*
X33511847Y-46851814D01*
X33625966Y-46785927D01*
X33625966Y-46785926D01*
X33625971Y-46785924D01*
X33677155Y-46734739D01*
X33731670Y-46706964D01*
X33792102Y-46716535D01*
X33817157Y-46734738D01*
X33868343Y-46785924D01*
X33982471Y-46851816D01*
X34046495Y-46868970D01*
X34051137Y-46870338D01*
X34057755Y-46872464D01*
X34076004Y-46881303D01*
X34124832Y-46894013D01*
X34127473Y-46894862D01*
X34128017Y-46895254D01*
X34134239Y-46897311D01*
X34147692Y-46902741D01*
X34151933Y-46904453D01*
X34166671Y-46911886D01*
X34200391Y-46932589D01*
X34240089Y-46979148D01*
X34244838Y-47040149D01*
X34212825Y-47092291D01*
X34174216Y-47112583D01*
X34149817Y-47119121D01*
X34109466Y-47129933D01*
X33995347Y-47195820D01*
X33902153Y-47289014D01*
X33836266Y-47403134D01*
X33836264Y-47403138D01*
X33811819Y-47494367D01*
X33809182Y-47502714D01*
X33803485Y-47518306D01*
X33783010Y-47650238D01*
X33782740Y-47652017D01*
X33774685Y-47706720D01*
X33771493Y-47720987D01*
X33768674Y-47730297D01*
X33758966Y-47752287D01*
X33752235Y-47763582D01*
X33741184Y-47778675D01*
X33695048Y-47830576D01*
X33689718Y-47839367D01*
X33675069Y-47858039D01*
X31218146Y-50314964D01*
X31218145Y-50314963D01*
X31162196Y-50370913D01*
X31122637Y-50439431D01*
X31122635Y-50439435D01*
X31102157Y-50515859D01*
X31102157Y-54199944D01*
X31083250Y-54258135D01*
X31073161Y-54269948D01*
X28057149Y-57285959D01*
X28049670Y-57292712D01*
X28043857Y-57297446D01*
X28030014Y-57305605D01*
X27990196Y-57341158D01*
X27988443Y-57342587D01*
X27987760Y-57342851D01*
X27981012Y-57348083D01*
X27971908Y-57354181D01*
X27952002Y-57364463D01*
X27905106Y-57382296D01*
X27890532Y-57386590D01*
X27866913Y-57391618D01*
X27866867Y-57391628D01*
X27866845Y-57391633D01*
X27862577Y-57392590D01*
X27862319Y-57392651D01*
X27862078Y-57392708D01*
X27862044Y-57392716D01*
X27862016Y-57392723D01*
X27858236Y-57393652D01*
X27748721Y-57421731D01*
X27733522Y-57426260D01*
X27731790Y-57426850D01*
X27716991Y-57432537D01*
X27653428Y-57459823D01*
X27641720Y-57465293D01*
X27640398Y-57465962D01*
X27629009Y-57472187D01*
X27565342Y-57509649D01*
X27560387Y-57512659D01*
X27559901Y-57512964D01*
X27559888Y-57512974D01*
X27555970Y-57516768D01*
X27536618Y-57531371D01*
X27518341Y-57541924D01*
X27425157Y-57635109D01*
X27425153Y-57635114D01*
X27359266Y-57749233D01*
X27346311Y-57797582D01*
X27325157Y-57876532D01*
X15170072Y-57876532D01*
X15168127Y-45734236D01*
X15167285Y-40479532D01*
X22120157Y-40479532D01*
X22120157Y-40611316D01*
X22137568Y-40676294D01*
X22154266Y-40738614D01*
X22220153Y-40852733D01*
X22220155Y-40852735D01*
X22220157Y-40852738D01*
X22313343Y-40945924D01*
X22334809Y-40958317D01*
X22351372Y-40970321D01*
X22359935Y-40977994D01*
X22420573Y-41013875D01*
X22431348Y-41019822D01*
X22432604Y-41020467D01*
X22443898Y-41025840D01*
X22505192Y-41052739D01*
X22512792Y-41055720D01*
X22520380Y-41058697D01*
X22520392Y-41058701D01*
X22522138Y-41059307D01*
X22537602Y-41064002D01*
X22579389Y-41074913D01*
X22647459Y-41092687D01*
X22652331Y-41093959D01*
X22655642Y-41094794D01*
X22656061Y-41094896D01*
X22660104Y-41095837D01*
X22688698Y-41102189D01*
X22702346Y-41105221D01*
X22714061Y-41108592D01*
X22730412Y-41114410D01*
X22747575Y-41122443D01*
X22765513Y-41133043D01*
X22779974Y-41143453D01*
X22827311Y-41184479D01*
X22834637Y-41188826D01*
X22834890Y-41188976D01*
X22854373Y-41204111D01*
X26188197Y-44537935D01*
X26188196Y-44537935D01*
X26244146Y-44593884D01*
X26312664Y-44633443D01*
X26312668Y-44633445D01*
X26389092Y-44653923D01*
X26389094Y-44653924D01*
X26389095Y-44653924D01*
X28930178Y-44653924D01*
X28988369Y-44672831D01*
X29000182Y-44682920D01*
X29744197Y-45426935D01*
X29744196Y-45426935D01*
X29800146Y-45482884D01*
X29868664Y-45522443D01*
X29868668Y-45522445D01*
X29945092Y-45542923D01*
X29945094Y-45542924D01*
X29945095Y-45542924D01*
X30626773Y-45542924D01*
X30636835Y-45543437D01*
X30644287Y-45544198D01*
X30659853Y-45548220D01*
X30713175Y-45551236D01*
X30715401Y-45551464D01*
X30716068Y-45551758D01*
X30724532Y-45552829D01*
X30735290Y-45554956D01*
X30756641Y-45561762D01*
X30802400Y-45582308D01*
X30815750Y-45589582D01*
X30836014Y-45602735D01*
X30839520Y-45604960D01*
X30839907Y-45605200D01*
X30843544Y-45607405D01*
X30843597Y-45607436D01*
X30843603Y-45607440D01*
X30940872Y-45665009D01*
X30951092Y-45670537D01*
X30954826Y-45672557D01*
X30956436Y-45673349D01*
X30956443Y-45673352D01*
X30970952Y-45679806D01*
X31034626Y-45705232D01*
X31035177Y-45705452D01*
X31040052Y-45707223D01*
X31047319Y-45709863D01*
X31048715Y-45710321D01*
X31048729Y-45710325D01*
X31061214Y-45713987D01*
X31061225Y-45713990D01*
X31061229Y-45713991D01*
X31132628Y-45732492D01*
X31135369Y-45733163D01*
X31137941Y-45733794D01*
X31138549Y-45733934D01*
X31138558Y-45733936D01*
X31144157Y-45734030D01*
X31168108Y-45737389D01*
X31188765Y-45742924D01*
X31188766Y-45742924D01*
X31320547Y-45742924D01*
X31320549Y-45742924D01*
X31447843Y-45708816D01*
X31447845Y-45708814D01*
X31447847Y-45708814D01*
X31561966Y-45642927D01*
X31561966Y-45642926D01*
X31561971Y-45642924D01*
X31655157Y-45549738D01*
X31655160Y-45549733D01*
X31721047Y-45435614D01*
X31721047Y-45435612D01*
X31721049Y-45435610D01*
X31755157Y-45308316D01*
X31755157Y-45176532D01*
X31721049Y-45049238D01*
X31721047Y-45049235D01*
X31721047Y-45049233D01*
X31655160Y-44935114D01*
X31655158Y-44935112D01*
X31655157Y-44935110D01*
X31561971Y-44841924D01*
X31561968Y-44841922D01*
X31561966Y-44841920D01*
X31447846Y-44776033D01*
X31447848Y-44776033D01*
X31398456Y-44762799D01*
X31320549Y-44741924D01*
X31188765Y-44741924D01*
X31188763Y-44741924D01*
X31164827Y-44748337D01*
X31144629Y-44751560D01*
X31133150Y-44752189D01*
X31133145Y-44752190D01*
X31064865Y-44769703D01*
X31052910Y-44773159D01*
X31051614Y-44773577D01*
X31051602Y-44773581D01*
X31049380Y-44774371D01*
X31039940Y-44777728D01*
X30977570Y-44802053D01*
X30962719Y-44808530D01*
X30961098Y-44809314D01*
X30946722Y-44816988D01*
X30844277Y-44877010D01*
X30840735Y-44879134D01*
X30840513Y-44879270D01*
X30837581Y-44881102D01*
X30801048Y-44904354D01*
X30790375Y-44910256D01*
X30774710Y-44917698D01*
X30756880Y-44924158D01*
X30736725Y-44929340D01*
X30719128Y-44932206D01*
X30656646Y-44936669D01*
X30656634Y-44936671D01*
X30648098Y-44938850D01*
X30623621Y-44941924D01*
X30150136Y-44941924D01*
X30091945Y-44923017D01*
X30080132Y-44912928D01*
X29694127Y-44526923D01*
X29280168Y-44112964D01*
X29243725Y-44091924D01*
X29243724Y-44091923D01*
X29243724Y-44091922D01*
X29243722Y-44091922D01*
X29232529Y-44085460D01*
X29211647Y-44073403D01*
X29211645Y-44073402D01*
X29135221Y-44052924D01*
X29135219Y-44052924D01*
X26594136Y-44052924D01*
X26535945Y-44034017D01*
X26524132Y-44023928D01*
X25444921Y-42944717D01*
X29030342Y-42944717D01*
X29030342Y-43076501D01*
X29056982Y-43175924D01*
X29064451Y-43203799D01*
X29130338Y-43317918D01*
X29130340Y-43317920D01*
X29130342Y-43317923D01*
X29223528Y-43411109D01*
X29223530Y-43411110D01*
X29223532Y-43411112D01*
X29337652Y-43476999D01*
X29337650Y-43476999D01*
X29337654Y-43477000D01*
X29337656Y-43477001D01*
X29464950Y-43511109D01*
X29464952Y-43511109D01*
X29596732Y-43511109D01*
X29596734Y-43511109D01*
X29724028Y-43477001D01*
X29724030Y-43476999D01*
X29724032Y-43476999D01*
X29838151Y-43411112D01*
X29838151Y-43411111D01*
X29838156Y-43411109D01*
X29931342Y-43317923D01*
X29944298Y-43295483D01*
X29997232Y-43203799D01*
X29997232Y-43203797D01*
X29997234Y-43203795D01*
X30031342Y-43076501D01*
X30031342Y-42944717D01*
X29997234Y-42817423D01*
X29997232Y-42817420D01*
X29997232Y-42817418D01*
X29928098Y-42697675D01*
X29930352Y-42696373D01*
X29913626Y-42649166D01*
X29930993Y-42590498D01*
X29979528Y-42553241D01*
X29986956Y-42550934D01*
X30050843Y-42533816D01*
X30164971Y-42467924D01*
X30258157Y-42374738D01*
X30275549Y-42344614D01*
X30324047Y-42260614D01*
X30324047Y-42260612D01*
X30324049Y-42260610D01*
X30358157Y-42133316D01*
X30358157Y-42001532D01*
X30324049Y-41874238D01*
X30324047Y-41874235D01*
X30324047Y-41874233D01*
X30258160Y-41760114D01*
X30258158Y-41760112D01*
X30258157Y-41760110D01*
X30164971Y-41666924D01*
X30164968Y-41666922D01*
X30164966Y-41666920D01*
X30050846Y-41601033D01*
X30050848Y-41601033D01*
X29992999Y-41585533D01*
X29923549Y-41566924D01*
X29791765Y-41566924D01*
X29722315Y-41585533D01*
X29664466Y-41601033D01*
X29550347Y-41666920D01*
X29457153Y-41760114D01*
X29391266Y-41874233D01*
X29376481Y-41929412D01*
X29357157Y-42001532D01*
X29357157Y-42133316D01*
X29378457Y-42212810D01*
X29391266Y-42260614D01*
X29460401Y-42380358D01*
X29458147Y-42381659D01*
X29474872Y-42428875D01*
X29457500Y-42487542D01*
X29408961Y-42524794D01*
X29401530Y-42527101D01*
X29337656Y-42544216D01*
X29337652Y-42544218D01*
X29223532Y-42610105D01*
X29130338Y-42703299D01*
X29064451Y-42817418D01*
X29058752Y-42838688D01*
X29030342Y-42944717D01*
X25444921Y-42944717D01*
X23277119Y-40776915D01*
X23270366Y-40769436D01*
X23265636Y-40763630D01*
X23257476Y-40749782D01*
X23221909Y-40709950D01*
X23220492Y-40708210D01*
X23220228Y-40707528D01*
X23215004Y-40700791D01*
X23208896Y-40691673D01*
X23198616Y-40671773D01*
X23180777Y-40624863D01*
X23176488Y-40610300D01*
X23173478Y-40596157D01*
X23171469Y-40586713D01*
X23170461Y-40582226D01*
X23170352Y-40581764D01*
X23169415Y-40577959D01*
X23141347Y-40468488D01*
X23136815Y-40453280D01*
X23136673Y-40452865D01*
X23136236Y-40451578D01*
X23132548Y-40441981D01*
X23130541Y-40436757D01*
X23103267Y-40373220D01*
X23097787Y-40361489D01*
X23097120Y-40360171D01*
X23090878Y-40348750D01*
X23053475Y-40285182D01*
X23050532Y-40280334D01*
X23050197Y-40279799D01*
X23046356Y-40275829D01*
X23031769Y-40256490D01*
X23021158Y-40238112D01*
X23021157Y-40238110D01*
X22927971Y-40144924D01*
X22927968Y-40144922D01*
X22927966Y-40144920D01*
X22813846Y-40079033D01*
X22813848Y-40079033D01*
X22764456Y-40065799D01*
X22686549Y-40044924D01*
X22554765Y-40044924D01*
X22476857Y-40065799D01*
X22427466Y-40079033D01*
X22313347Y-40144920D01*
X22220153Y-40238114D01*
X22154266Y-40352233D01*
X22147667Y-40376862D01*
X22120157Y-40479532D01*
X15167285Y-40479532D01*
X15167284Y-40473059D01*
X15166934Y-38285821D01*
X24523657Y-38285821D01*
X26895649Y-38285821D01*
X26953840Y-38304728D01*
X26965652Y-38314817D01*
X27185328Y-38534492D01*
X27317657Y-38666821D01*
X31508656Y-38666821D01*
X31508657Y-38666821D01*
X31508657Y-38384424D01*
X32270657Y-38384424D01*
X32270657Y-38666821D01*
X32524656Y-38666821D01*
X32524657Y-38666821D01*
X32524657Y-36634821D01*
X32524656Y-36634821D01*
X31635658Y-36634821D01*
X31635657Y-36634821D01*
X31635657Y-36634822D01*
X31635657Y-36789821D01*
X31616750Y-36848012D01*
X31567250Y-36883976D01*
X31536657Y-36888821D01*
X30535517Y-36888821D01*
X30477326Y-36869914D01*
X30463327Y-36857568D01*
X30426126Y-36817928D01*
X30138467Y-36511405D01*
X30135743Y-36505612D01*
X30130564Y-36501849D01*
X30122935Y-36478371D01*
X30112434Y-36456035D01*
X30111657Y-36443658D01*
X30111657Y-36351533D01*
X33612157Y-36351533D01*
X33612157Y-36483317D01*
X33617123Y-36501849D01*
X33646266Y-36610615D01*
X33712153Y-36724734D01*
X33712155Y-36724736D01*
X33712157Y-36724739D01*
X33805343Y-36817925D01*
X33805345Y-36817926D01*
X33805347Y-36817928D01*
X33919467Y-36883815D01*
X33919465Y-36883815D01*
X33919469Y-36883816D01*
X33919471Y-36883817D01*
X34046765Y-36917925D01*
X34046767Y-36917925D01*
X34178547Y-36917925D01*
X34178549Y-36917925D01*
X34305843Y-36883817D01*
X34305845Y-36883815D01*
X34305847Y-36883815D01*
X34419966Y-36817928D01*
X34419966Y-36817927D01*
X34419971Y-36817925D01*
X34513157Y-36724739D01*
X34565071Y-36634822D01*
X34579047Y-36610615D01*
X34579047Y-36610613D01*
X34579049Y-36610611D01*
X34613157Y-36483317D01*
X34613157Y-36351533D01*
X34579049Y-36224239D01*
X34579047Y-36224236D01*
X34579047Y-36224234D01*
X34513160Y-36110115D01*
X34513158Y-36110113D01*
X34513157Y-36110111D01*
X34419971Y-36016925D01*
X34419968Y-36016923D01*
X34419966Y-36016921D01*
X34305846Y-35951034D01*
X34305848Y-35951034D01*
X34256456Y-35937800D01*
X34178549Y-35916925D01*
X34046765Y-35916925D01*
X33968857Y-35937800D01*
X33919466Y-35951034D01*
X33805347Y-36016921D01*
X33712153Y-36110115D01*
X33646266Y-36224234D01*
X33646265Y-36224239D01*
X33612157Y-36351533D01*
X30111657Y-36351533D01*
X30111657Y-35717424D01*
X29507272Y-35140066D01*
X29502945Y-35132033D01*
X29495564Y-35126671D01*
X29488734Y-35105652D01*
X29478256Y-35086199D01*
X29476657Y-35068480D01*
X29476657Y-34889532D01*
X35834157Y-34889532D01*
X35834157Y-35021316D01*
X35865976Y-35140066D01*
X35868266Y-35148612D01*
X35906248Y-35214400D01*
X35912559Y-35227456D01*
X35918786Y-35243186D01*
X35918788Y-35243189D01*
X35918788Y-35243190D01*
X35926577Y-35255256D01*
X36003256Y-35374047D01*
X36003649Y-35374655D01*
X36005292Y-35377159D01*
X36005388Y-35377304D01*
X36006402Y-35378811D01*
X36046252Y-35437519D01*
X36050394Y-35444173D01*
X36054239Y-35450933D01*
X36054636Y-35452413D01*
X36084414Y-35503990D01*
X36084608Y-35504326D01*
X36094196Y-35520934D01*
X36186692Y-35613431D01*
X36186693Y-35613431D01*
X36188200Y-35614938D01*
X36255004Y-35687793D01*
X36258150Y-35691148D01*
X36258501Y-35691514D01*
X36278323Y-35705061D01*
X40432197Y-39858935D01*
X40432196Y-39858935D01*
X40488146Y-39914884D01*
X40556664Y-39954443D01*
X40556668Y-39954445D01*
X40633092Y-39974923D01*
X40633094Y-39974924D01*
X40633095Y-39974924D01*
X40712219Y-39974924D01*
X41645547Y-39974924D01*
X41703738Y-39993831D01*
X41739702Y-40043331D01*
X41739702Y-40104517D01*
X41715552Y-40143925D01*
X41246615Y-40612863D01*
X40779655Y-41079823D01*
X40776081Y-41088452D01*
X40736344Y-41134977D01*
X40676849Y-41149260D01*
X40641332Y-41138233D01*
X40641106Y-41138781D01*
X40635146Y-41136312D01*
X40635128Y-41136307D01*
X40635115Y-41136300D01*
X40635113Y-41136298D01*
X40564269Y-41117316D01*
X40507814Y-41102189D01*
X40376030Y-41102189D01*
X40376028Y-41102189D01*
X40352092Y-41108602D01*
X40331894Y-41111825D01*
X40320415Y-41112454D01*
X40320410Y-41112455D01*
X40252130Y-41129968D01*
X40240175Y-41133424D01*
X40238879Y-41133842D01*
X40238867Y-41133846D01*
X40236645Y-41134636D01*
X40227205Y-41137993D01*
X40164835Y-41162318D01*
X40149984Y-41168795D01*
X40148363Y-41169579D01*
X40133987Y-41177253D01*
X40031542Y-41237275D01*
X40028000Y-41239399D01*
X40027778Y-41239535D01*
X40024846Y-41241367D01*
X39988313Y-41264619D01*
X39977640Y-41270521D01*
X39961975Y-41277963D01*
X39944145Y-41284423D01*
X39923990Y-41289605D01*
X39906393Y-41292471D01*
X39843911Y-41296934D01*
X39843899Y-41296936D01*
X39835363Y-41299115D01*
X39810886Y-41302189D01*
X38489954Y-41302189D01*
X38410830Y-41302189D01*
X38365224Y-41314409D01*
X38334399Y-41322668D01*
X38265885Y-41362225D01*
X37547146Y-42080964D01*
X37547145Y-42080963D01*
X37491196Y-42136913D01*
X37451637Y-42205431D01*
X37451635Y-42205435D01*
X37431157Y-42281859D01*
X37431157Y-49218988D01*
X37446139Y-49274898D01*
X37451636Y-49295413D01*
X37479870Y-49344316D01*
X37479871Y-49344318D01*
X37491191Y-49363927D01*
X37491195Y-49363932D01*
X37491197Y-49363935D01*
X37491200Y-49363938D01*
X37745196Y-49617935D01*
X37801146Y-49673884D01*
X37869664Y-49713443D01*
X37869668Y-49713445D01*
X37946092Y-49733923D01*
X37946094Y-49733924D01*
X37946095Y-49733924D01*
X38025219Y-49733924D01*
X38881773Y-49733924D01*
X38891835Y-49734437D01*
X38899287Y-49735198D01*
X38914853Y-49739220D01*
X38968175Y-49742236D01*
X38970401Y-49742464D01*
X38971068Y-49742758D01*
X38979532Y-49743829D01*
X38990290Y-49745956D01*
X39011641Y-49752762D01*
X39057400Y-49773308D01*
X39070750Y-49780582D01*
X39091014Y-49793735D01*
X39094520Y-49795960D01*
X39094907Y-49796200D01*
X39098544Y-49798405D01*
X39098597Y-49798436D01*
X39098603Y-49798440D01*
X39195872Y-49856009D01*
X39206092Y-49861537D01*
X39209826Y-49863557D01*
X39211436Y-49864349D01*
X39211443Y-49864352D01*
X39225952Y-49870806D01*
X39257291Y-49883320D01*
X39290177Y-49896452D01*
X39295052Y-49898223D01*
X39302319Y-49900863D01*
X39303715Y-49901321D01*
X39303729Y-49901325D01*
X39316214Y-49904987D01*
X39316225Y-49904990D01*
X39316229Y-49904991D01*
X39387628Y-49923492D01*
X39390369Y-49924163D01*
X39392941Y-49924794D01*
X39393549Y-49924934D01*
X39393558Y-49924936D01*
X39399157Y-49925030D01*
X39423108Y-49928389D01*
X39443765Y-49933924D01*
X39443766Y-49933924D01*
X39575547Y-49933924D01*
X39575549Y-49933924D01*
X39702843Y-49899816D01*
X39731415Y-49883320D01*
X39731418Y-49883319D01*
X39816966Y-49833927D01*
X39816966Y-49833926D01*
X39816971Y-49833924D01*
X39910157Y-49740738D01*
X39910160Y-49740733D01*
X39976047Y-49626614D01*
X39976047Y-49626612D01*
X39976049Y-49626610D01*
X40010157Y-49499316D01*
X40010157Y-49367532D01*
X39976049Y-49240238D01*
X39976047Y-49240235D01*
X39976047Y-49240233D01*
X39910160Y-49126114D01*
X39910158Y-49126112D01*
X39910157Y-49126110D01*
X39816971Y-49032924D01*
X39816968Y-49032922D01*
X39816966Y-49032920D01*
X39702846Y-48967033D01*
X39702848Y-48967033D01*
X39653456Y-48953799D01*
X39575549Y-48932924D01*
X39443765Y-48932924D01*
X39443763Y-48932924D01*
X39419827Y-48939337D01*
X39399629Y-48942560D01*
X39388150Y-48943189D01*
X39388145Y-48943190D01*
X39319865Y-48960703D01*
X39307910Y-48964159D01*
X39306614Y-48964577D01*
X39306602Y-48964581D01*
X39304380Y-48965371D01*
X39294940Y-48968728D01*
X39232570Y-48993053D01*
X39217719Y-48999530D01*
X39216098Y-49000314D01*
X39201722Y-49007988D01*
X39099277Y-49068010D01*
X39095735Y-49070134D01*
X39095513Y-49070270D01*
X39092581Y-49072102D01*
X39056048Y-49095354D01*
X39045375Y-49101256D01*
X39029710Y-49108698D01*
X39011880Y-49115158D01*
X38991725Y-49120340D01*
X38974128Y-49123206D01*
X38911646Y-49127669D01*
X38911634Y-49127671D01*
X38903098Y-49129850D01*
X38878621Y-49132924D01*
X38151136Y-49132924D01*
X38143538Y-49130455D01*
X38135649Y-49131705D01*
X38114993Y-49121180D01*
X38092945Y-49114017D01*
X38081132Y-49103928D01*
X38061153Y-49083949D01*
X38033376Y-49029432D01*
X38032157Y-49013945D01*
X38032157Y-46972745D01*
X38051064Y-46914554D01*
X38100564Y-46878590D01*
X38161750Y-46878590D01*
X38201158Y-46902739D01*
X38211343Y-46912924D01*
X38211345Y-46912925D01*
X38211347Y-46912927D01*
X38325467Y-46978814D01*
X38325465Y-46978814D01*
X38325469Y-46978815D01*
X38325471Y-46978816D01*
X38452765Y-47012924D01*
X38452767Y-47012924D01*
X38584547Y-47012924D01*
X38584549Y-47012924D01*
X38711843Y-46978816D01*
X38711845Y-46978814D01*
X38711847Y-46978814D01*
X38825966Y-46912927D01*
X38825966Y-46912926D01*
X38825971Y-46912924D01*
X38919157Y-46819738D01*
X38938678Y-46785927D01*
X38985047Y-46705614D01*
X38985047Y-46705612D01*
X38985049Y-46705610D01*
X39019157Y-46578316D01*
X39019157Y-46446532D01*
X38985049Y-46319238D01*
X38985047Y-46319235D01*
X38985047Y-46319233D01*
X38919160Y-46205114D01*
X38919158Y-46205112D01*
X38919157Y-46205110D01*
X38825971Y-46111924D01*
X38825968Y-46111922D01*
X38825966Y-46111920D01*
X38711846Y-46046033D01*
X38711848Y-46046033D01*
X38662456Y-46032799D01*
X38584549Y-46011924D01*
X38452765Y-46011924D01*
X38374857Y-46032799D01*
X38325466Y-46046033D01*
X38211347Y-46111920D01*
X38211346Y-46111921D01*
X38211343Y-46111923D01*
X38211343Y-46111924D01*
X38201158Y-46122108D01*
X38146644Y-46149884D01*
X38086212Y-46140313D01*
X38042947Y-46097048D01*
X38032157Y-46052103D01*
X38032157Y-44809903D01*
X38051064Y-44751712D01*
X38100564Y-44715748D01*
X38161750Y-44715748D01*
X38201161Y-44739899D01*
X38380197Y-44918935D01*
X38380196Y-44918935D01*
X38436146Y-44974884D01*
X38504664Y-45014443D01*
X38504668Y-45014445D01*
X38581092Y-45034923D01*
X38581094Y-45034924D01*
X38581095Y-45034924D01*
X38660219Y-45034924D01*
X39770773Y-45034924D01*
X39780835Y-45035437D01*
X39788287Y-45036198D01*
X39803853Y-45040220D01*
X39857175Y-45043236D01*
X39859401Y-45043464D01*
X39860068Y-45043758D01*
X39868532Y-45044829D01*
X39879290Y-45046956D01*
X39900641Y-45053762D01*
X39946400Y-45074308D01*
X39959750Y-45081582D01*
X39980014Y-45094735D01*
X39983520Y-45096960D01*
X39983907Y-45097200D01*
X39987544Y-45099405D01*
X39987597Y-45099436D01*
X39987603Y-45099440D01*
X40084872Y-45157009D01*
X40095092Y-45162537D01*
X40098826Y-45164557D01*
X40100436Y-45165349D01*
X40100443Y-45165352D01*
X40114952Y-45171806D01*
X40178626Y-45197232D01*
X40179177Y-45197452D01*
X40184052Y-45199223D01*
X40191319Y-45201863D01*
X40192715Y-45202321D01*
X40192729Y-45202325D01*
X40205214Y-45205987D01*
X40205225Y-45205990D01*
X40205229Y-45205991D01*
X40276628Y-45224492D01*
X40279369Y-45225163D01*
X40281941Y-45225794D01*
X40282549Y-45225934D01*
X40282558Y-45225936D01*
X40288157Y-45226030D01*
X40312108Y-45229389D01*
X40332765Y-45234924D01*
X40332766Y-45234924D01*
X40464547Y-45234924D01*
X40464549Y-45234924D01*
X40591843Y-45200816D01*
X40631157Y-45178117D01*
X40691004Y-45165396D01*
X40746900Y-45190282D01*
X40777493Y-45243269D01*
X40779657Y-45263854D01*
X40779657Y-45905821D01*
X41795657Y-46921821D01*
X44589656Y-46921821D01*
X44589657Y-46921821D01*
X45136155Y-46375322D01*
X45190670Y-46347547D01*
X45251102Y-46357118D01*
X45294367Y-46400383D01*
X45305157Y-46445328D01*
X45305157Y-47313988D01*
X45325635Y-47390412D01*
X45344731Y-47423486D01*
X45344732Y-47423489D01*
X45365192Y-47458929D01*
X45365195Y-47458932D01*
X45365197Y-47458935D01*
X48578162Y-50671900D01*
X48605938Y-50726415D01*
X48607157Y-50741902D01*
X48607157Y-56069988D01*
X48627634Y-56146409D01*
X48627638Y-56146417D01*
X48644672Y-56175923D01*
X48644673Y-56175923D01*
X48654820Y-56193497D01*
X48667197Y-56214935D01*
X55355186Y-62902924D01*
X58699856Y-66247594D01*
X58703130Y-66251030D01*
X58708943Y-66257429D01*
X58720325Y-66275453D01*
X58835063Y-66396263D01*
X58835826Y-66397102D01*
X58835886Y-66397236D01*
X58838449Y-66400109D01*
X58924402Y-66502749D01*
X58928881Y-66508517D01*
X58965496Y-66559454D01*
X58989363Y-66592656D01*
X58993620Y-66599094D01*
X59013825Y-66632403D01*
X59037353Y-66671188D01*
X59042101Y-66679990D01*
X59142681Y-66891326D01*
X59143029Y-66892064D01*
X59191396Y-66995887D01*
X59254818Y-67132026D01*
X59254826Y-67132042D01*
X59258003Y-67138560D01*
X59258371Y-67139281D01*
X59261629Y-67145417D01*
X59342445Y-67291645D01*
X59345202Y-67296477D01*
X59345235Y-67296534D01*
X59345573Y-67297108D01*
X59348784Y-67302377D01*
X59404003Y-67390022D01*
X59450695Y-67464132D01*
X59452031Y-67466226D01*
X59452140Y-67466393D01*
X59463031Y-67477459D01*
X59474790Y-67491903D01*
X59521680Y-67562079D01*
X59668002Y-67708401D01*
X59840059Y-67823365D01*
X60031237Y-67902554D01*
X60234192Y-67942924D01*
X60234193Y-67942924D01*
X60441121Y-67942924D01*
X60441122Y-67942924D01*
X60644077Y-67902554D01*
X60835255Y-67823365D01*
X61007312Y-67708401D01*
X61153634Y-67562079D01*
X61268598Y-67390022D01*
X61347787Y-67198844D01*
X61388157Y-66995889D01*
X61388157Y-66788959D01*
X61347787Y-66586004D01*
X61268598Y-66394826D01*
X61153634Y-66222769D01*
X61007312Y-66076447D01*
X60926839Y-66022677D01*
X61827157Y-66022677D01*
X61827157Y-67762170D01*
X61827158Y-67762182D01*
X61838789Y-67820651D01*
X61838791Y-67820657D01*
X61847442Y-67833604D01*
X61883105Y-67886976D01*
X61949426Y-67931291D01*
X61993888Y-67940135D01*
X62007898Y-67942922D01*
X62007903Y-67942922D01*
X62007909Y-67942924D01*
X62007910Y-67942924D01*
X63747404Y-67942924D01*
X63747405Y-67942924D01*
X63805888Y-67931291D01*
X63872209Y-67886976D01*
X63916524Y-67820655D01*
X63928157Y-67762172D01*
X63928157Y-66022676D01*
X63916524Y-65964193D01*
X63872209Y-65897872D01*
X63872205Y-65897869D01*
X63805890Y-65853558D01*
X63805888Y-65853557D01*
X63805885Y-65853556D01*
X63805884Y-65853556D01*
X63747415Y-65841925D01*
X63747405Y-65841924D01*
X62007909Y-65841924D01*
X62007908Y-65841924D01*
X62007898Y-65841925D01*
X61949429Y-65853556D01*
X61949423Y-65853558D01*
X61883108Y-65897869D01*
X61883102Y-65897875D01*
X61838791Y-65964190D01*
X61838789Y-65964196D01*
X61827158Y-66022665D01*
X61827157Y-66022677D01*
X60926839Y-66022677D01*
X60835254Y-65961482D01*
X60644075Y-65882293D01*
X60546135Y-65862812D01*
X60546134Y-65862812D01*
X60540759Y-65861742D01*
X60513517Y-65853107D01*
X60476886Y-65849037D01*
X60472713Y-65848207D01*
X60472710Y-65848205D01*
X60441130Y-65841925D01*
X60441124Y-65841924D01*
X60441122Y-65841924D01*
X60441118Y-65841924D01*
X60418332Y-65841924D01*
X60407402Y-65841319D01*
X60402269Y-65840748D01*
X60316067Y-65831173D01*
X60316057Y-65831172D01*
X60316054Y-65831172D01*
X60311635Y-65830880D01*
X60297716Y-65829963D01*
X60297705Y-65829962D01*
X60297694Y-65829962D01*
X60295622Y-65829918D01*
X60277302Y-65830350D01*
X60277288Y-65830350D01*
X60277285Y-65830351D01*
X60214345Y-65834651D01*
X60081225Y-65843747D01*
X60064639Y-65845559D01*
X60062807Y-65845835D01*
X60046494Y-65848968D01*
X59845638Y-65896012D01*
X59837614Y-65898062D01*
X59836925Y-65898253D01*
X59836754Y-65898301D01*
X59836744Y-65898304D01*
X59828771Y-65900685D01*
X59713893Y-65937567D01*
X59711908Y-65938182D01*
X59546207Y-65987567D01*
X59534102Y-65990361D01*
X59485775Y-65998363D01*
X59470510Y-65999689D01*
X59433084Y-66000032D01*
X59413874Y-65998329D01*
X59397548Y-65995257D01*
X59381056Y-65992155D01*
X59361587Y-65986372D01*
X59319851Y-65969144D01*
X59303672Y-65960640D01*
X59243879Y-65921775D01*
X59232164Y-65912855D01*
X59215744Y-65898301D01*
X59147456Y-65837771D01*
X59138804Y-65832539D01*
X59120036Y-65817832D01*
X58826132Y-65523928D01*
X58798355Y-65469411D01*
X58807926Y-65408979D01*
X58851191Y-65365714D01*
X58896136Y-65354924D01*
X58901095Y-65354924D01*
X67672178Y-65354924D01*
X67730369Y-65373831D01*
X67742182Y-65383920D01*
X68252073Y-65893811D01*
X68255930Y-65897894D01*
X68261578Y-65904222D01*
X68272397Y-65921565D01*
X68365729Y-66020920D01*
X68366565Y-66021856D01*
X68366656Y-66022064D01*
X68369973Y-66025886D01*
X68436601Y-66109069D01*
X68442192Y-66116783D01*
X68481160Y-66176382D01*
X68486504Y-66185603D01*
X68508807Y-66229362D01*
X68515095Y-66244783D01*
X68548405Y-66351351D01*
X68552172Y-66368794D01*
X68572460Y-66533648D01*
X68572936Y-66538495D01*
X68576421Y-66586005D01*
X68576611Y-66588586D01*
X68576827Y-66591278D01*
X68595441Y-66806098D01*
X68596143Y-66812896D01*
X68596237Y-66813675D01*
X68597196Y-66820658D01*
X68637042Y-67077658D01*
X68637793Y-67082167D01*
X68637795Y-67082177D01*
X68637880Y-67082655D01*
X68637881Y-67082658D01*
X68637880Y-67082658D01*
X68643430Y-67096474D01*
X68648660Y-67114057D01*
X68665524Y-67198833D01*
X68665528Y-67198847D01*
X68744715Y-67390021D01*
X68825764Y-67511320D01*
X68859680Y-67562079D01*
X69006002Y-67708401D01*
X69178059Y-67823365D01*
X69369237Y-67902554D01*
X69572192Y-67942924D01*
X69572193Y-67942924D01*
X69779121Y-67942924D01*
X69779122Y-67942924D01*
X69982077Y-67902554D01*
X70173255Y-67823365D01*
X70345312Y-67708401D01*
X70491634Y-67562079D01*
X70606598Y-67390022D01*
X70685787Y-67198844D01*
X70726157Y-66995889D01*
X70726157Y-66788959D01*
X70685787Y-66586004D01*
X70606598Y-66394826D01*
X70491634Y-66222769D01*
X70345312Y-66076447D01*
X70264839Y-66022677D01*
X71165157Y-66022677D01*
X71165157Y-67762170D01*
X71165158Y-67762182D01*
X71176789Y-67820651D01*
X71176791Y-67820657D01*
X71185442Y-67833604D01*
X71221105Y-67886976D01*
X71287426Y-67931291D01*
X71331888Y-67940135D01*
X71345898Y-67942922D01*
X71345903Y-67942922D01*
X71345909Y-67942924D01*
X71345910Y-67942924D01*
X73085404Y-67942924D01*
X73085405Y-67942924D01*
X73143888Y-67931291D01*
X73210209Y-67886976D01*
X73254524Y-67820655D01*
X73266157Y-67762172D01*
X73266157Y-66022676D01*
X73254524Y-65964193D01*
X73210209Y-65897872D01*
X73210205Y-65897869D01*
X73143890Y-65853558D01*
X73143888Y-65853557D01*
X73143885Y-65853556D01*
X73143884Y-65853556D01*
X73085415Y-65841925D01*
X73085405Y-65841924D01*
X71345909Y-65841924D01*
X71345908Y-65841924D01*
X71345898Y-65841925D01*
X71287429Y-65853556D01*
X71287423Y-65853558D01*
X71221108Y-65897869D01*
X71221102Y-65897875D01*
X71176791Y-65964190D01*
X71176789Y-65964196D01*
X71165158Y-66022665D01*
X71165157Y-66022677D01*
X70264839Y-66022677D01*
X70173254Y-65961482D01*
X69982075Y-65882293D01*
X69982069Y-65882291D01*
X69893286Y-65864630D01*
X69879248Y-65860745D01*
X69859510Y-65853682D01*
X69859502Y-65853680D01*
X69617898Y-65817832D01*
X69560342Y-65809292D01*
X69560337Y-65809291D01*
X69560328Y-65809290D01*
X69553801Y-65808429D01*
X69552999Y-65808336D01*
X69546246Y-65807669D01*
X69375586Y-65793680D01*
X69374267Y-65793562D01*
X69355564Y-65791776D01*
X69187646Y-65775733D01*
X69178014Y-65774332D01*
X69117433Y-65762454D01*
X69106451Y-65759640D01*
X69051476Y-65742140D01*
X69039339Y-65737375D01*
X68982477Y-65710606D01*
X68971528Y-65704580D01*
X68903817Y-65661531D01*
X68895290Y-65655453D01*
X68811484Y-65588766D01*
X68805401Y-65583508D01*
X68704681Y-65489042D01*
X68704681Y-65489041D01*
X68693617Y-65482027D01*
X68676624Y-65468420D01*
X68354973Y-65146769D01*
X68022168Y-64813964D01*
X68008883Y-64806294D01*
X67953646Y-64774403D01*
X67953645Y-64774402D01*
X67953644Y-64774402D01*
X67877221Y-64753924D01*
X67877219Y-64753924D01*
X59106136Y-64753924D01*
X59047945Y-64735017D01*
X59036132Y-64724928D01*
X52822736Y-58511532D01*
X57170157Y-58511532D01*
X57170157Y-58643316D01*
X57200236Y-58755575D01*
X57204266Y-58770614D01*
X57270153Y-58884733D01*
X57270155Y-58884735D01*
X57270157Y-58884738D01*
X57363343Y-58977924D01*
X57363345Y-58977925D01*
X57363347Y-58977927D01*
X57477467Y-59043814D01*
X57477465Y-59043814D01*
X57477469Y-59043815D01*
X57477471Y-59043816D01*
X57604765Y-59077924D01*
X57604767Y-59077924D01*
X57736547Y-59077924D01*
X57736549Y-59077924D01*
X57863843Y-59043816D01*
X57863845Y-59043814D01*
X57863847Y-59043814D01*
X57977966Y-58977927D01*
X57977966Y-58977926D01*
X57977971Y-58977924D01*
X58071157Y-58884738D01*
X58137049Y-58770610D01*
X58171157Y-58643316D01*
X58171157Y-58511532D01*
X58137049Y-58384238D01*
X58137047Y-58384235D01*
X58137047Y-58384233D01*
X58071160Y-58270114D01*
X58071158Y-58270112D01*
X58071157Y-58270110D01*
X57977971Y-58176924D01*
X57977968Y-58176922D01*
X57977966Y-58176920D01*
X57863846Y-58111033D01*
X57863848Y-58111033D01*
X57814456Y-58097799D01*
X57736549Y-58076924D01*
X57604765Y-58076924D01*
X57526857Y-58097799D01*
X57477466Y-58111033D01*
X57363347Y-58176920D01*
X57270153Y-58270114D01*
X57204266Y-58384233D01*
X57204265Y-58384238D01*
X57170157Y-58511532D01*
X52822736Y-58511532D01*
X49872153Y-55560949D01*
X49844376Y-55506432D01*
X49843157Y-55490945D01*
X49843157Y-50282861D01*
X49843156Y-50282859D01*
X49822678Y-50206435D01*
X49822676Y-50206431D01*
X49783117Y-50137913D01*
X49727168Y-50081963D01*
X49727168Y-50081964D01*
X46443153Y-46797949D01*
X46415376Y-46743432D01*
X46414157Y-46727945D01*
X46414157Y-46333902D01*
X46433064Y-46275711D01*
X46482564Y-46239747D01*
X46543750Y-46239747D01*
X46583158Y-46263896D01*
X50356162Y-50036900D01*
X50383938Y-50091415D01*
X50385157Y-50106902D01*
X50385157Y-54552988D01*
X50405635Y-54629411D01*
X50436778Y-54683354D01*
X50438672Y-54686633D01*
X50445197Y-54697935D01*
X52279146Y-56531884D01*
X52279148Y-56531885D01*
X52279150Y-56531887D01*
X52347665Y-56571444D01*
X52347663Y-56571444D01*
X52347667Y-56571445D01*
X52347669Y-56571446D01*
X52424095Y-56591924D01*
X52503219Y-56591924D01*
X52851773Y-56591924D01*
X52861835Y-56592437D01*
X52869287Y-56593198D01*
X52884853Y-56597220D01*
X52938175Y-56600236D01*
X52940401Y-56600464D01*
X52941068Y-56600758D01*
X52949532Y-56601829D01*
X52960290Y-56603956D01*
X52981641Y-56610762D01*
X53027400Y-56631308D01*
X53040750Y-56638582D01*
X53061014Y-56651735D01*
X53064520Y-56653960D01*
X53064907Y-56654200D01*
X53068544Y-56656405D01*
X53068597Y-56656436D01*
X53068603Y-56656440D01*
X53165872Y-56714009D01*
X53176092Y-56719537D01*
X53179826Y-56721557D01*
X53181436Y-56722349D01*
X53181443Y-56722352D01*
X53195952Y-56728806D01*
X53259626Y-56754232D01*
X53260177Y-56754452D01*
X53265052Y-56756223D01*
X53272319Y-56758863D01*
X53273715Y-56759321D01*
X53273729Y-56759325D01*
X53286214Y-56762987D01*
X53286225Y-56762990D01*
X53286229Y-56762991D01*
X53357628Y-56781492D01*
X53360369Y-56782163D01*
X53362941Y-56782794D01*
X53363549Y-56782934D01*
X53363558Y-56782936D01*
X53369157Y-56783030D01*
X53393108Y-56786389D01*
X53413765Y-56791924D01*
X53413766Y-56791924D01*
X53545547Y-56791924D01*
X53545549Y-56791924D01*
X53672843Y-56757816D01*
X53672845Y-56757814D01*
X53672847Y-56757814D01*
X53786966Y-56691927D01*
X53786966Y-56691926D01*
X53786971Y-56691924D01*
X53880157Y-56598738D01*
X53880160Y-56598733D01*
X53946047Y-56484614D01*
X53946047Y-56484612D01*
X53946049Y-56484610D01*
X53980157Y-56357316D01*
X53980157Y-56255924D01*
X53999064Y-56197733D01*
X54048564Y-56161769D01*
X54079157Y-56156924D01*
X54180547Y-56156924D01*
X54180549Y-56156924D01*
X54307843Y-56122816D01*
X54307845Y-56122814D01*
X54307847Y-56122814D01*
X54421966Y-56056927D01*
X54421966Y-56056926D01*
X54421971Y-56056924D01*
X54515157Y-55963738D01*
X54524130Y-55948197D01*
X54581047Y-55849614D01*
X54581047Y-55849612D01*
X54581049Y-55849610D01*
X54615157Y-55722316D01*
X54615157Y-55620924D01*
X54634064Y-55562733D01*
X54683564Y-55526769D01*
X54714157Y-55521924D01*
X54815547Y-55521924D01*
X54815549Y-55521924D01*
X54942843Y-55487816D01*
X54942845Y-55487814D01*
X54942847Y-55487814D01*
X55056966Y-55421927D01*
X55056966Y-55421926D01*
X55056971Y-55421924D01*
X55150157Y-55328738D01*
X55150160Y-55328733D01*
X55216047Y-55214614D01*
X55216047Y-55214612D01*
X55216049Y-55214610D01*
X55250157Y-55087316D01*
X55250157Y-54955532D01*
X55216049Y-54828238D01*
X55216047Y-54828235D01*
X55216047Y-54828233D01*
X55150160Y-54714114D01*
X55150158Y-54714112D01*
X55150157Y-54714110D01*
X55056971Y-54620924D01*
X55056968Y-54620922D01*
X55056966Y-54620920D01*
X54942846Y-54555033D01*
X54942848Y-54555033D01*
X54893456Y-54541799D01*
X54815549Y-54520924D01*
X54683765Y-54520924D01*
X54683763Y-54520924D01*
X54659827Y-54527337D01*
X54639629Y-54530560D01*
X54628150Y-54531189D01*
X54628145Y-54531190D01*
X54559865Y-54548703D01*
X54547910Y-54552159D01*
X54546614Y-54552577D01*
X54546602Y-54552581D01*
X54545458Y-54552988D01*
X54534940Y-54556728D01*
X54472570Y-54581053D01*
X54457719Y-54587530D01*
X54456098Y-54588314D01*
X54441722Y-54595988D01*
X54339277Y-54656010D01*
X54335735Y-54658134D01*
X54335513Y-54658270D01*
X54332581Y-54660102D01*
X54296048Y-54683354D01*
X54285375Y-54689256D01*
X54269710Y-54696698D01*
X54251880Y-54703158D01*
X54231725Y-54708340D01*
X54214128Y-54711206D01*
X54151646Y-54715669D01*
X54151634Y-54715671D01*
X54143098Y-54717850D01*
X54118621Y-54720924D01*
X52883136Y-54720924D01*
X52824945Y-54702017D01*
X52813132Y-54691928D01*
X52031153Y-53909949D01*
X52003376Y-53855432D01*
X52002157Y-53839945D01*
X52002157Y-53431532D01*
X54376157Y-53431532D01*
X54376157Y-53563316D01*
X54394437Y-53631537D01*
X54410266Y-53690614D01*
X54476153Y-53804733D01*
X54476155Y-53804735D01*
X54476157Y-53804738D01*
X54569343Y-53897924D01*
X54569345Y-53897925D01*
X54569347Y-53897927D01*
X54683467Y-53963814D01*
X54683465Y-53963814D01*
X54683469Y-53963815D01*
X54683471Y-53963816D01*
X54810765Y-53997924D01*
X54810767Y-53997924D01*
X54942547Y-53997924D01*
X54942549Y-53997924D01*
X55069843Y-53963816D01*
X55069845Y-53963814D01*
X55069847Y-53963814D01*
X55183966Y-53897927D01*
X55183966Y-53897926D01*
X55183971Y-53897924D01*
X55277157Y-53804738D01*
X55301692Y-53762243D01*
X55343047Y-53690614D01*
X55343047Y-53690612D01*
X55343049Y-53690610D01*
X55377157Y-53563316D01*
X55377157Y-53431532D01*
X55343049Y-53304238D01*
X55343047Y-53304235D01*
X55343047Y-53304233D01*
X55277160Y-53190114D01*
X55277158Y-53190112D01*
X55277157Y-53190110D01*
X55183971Y-53096924D01*
X55183968Y-53096922D01*
X55183966Y-53096920D01*
X55069846Y-53031033D01*
X55069848Y-53031033D01*
X55008021Y-53014467D01*
X54942549Y-52996924D01*
X54810765Y-52996924D01*
X54745293Y-53014467D01*
X54683466Y-53031033D01*
X54569347Y-53096920D01*
X54476153Y-53190114D01*
X54410266Y-53304233D01*
X54398353Y-53348695D01*
X54376157Y-53431532D01*
X52002157Y-53431532D01*
X52002157Y-51082032D01*
X55582657Y-51082032D01*
X55582657Y-51213816D01*
X55612736Y-51326075D01*
X55616766Y-51341114D01*
X55682653Y-51455233D01*
X55682655Y-51455235D01*
X55682657Y-51455238D01*
X55775843Y-51548424D01*
X55775845Y-51548425D01*
X55775847Y-51548427D01*
X55889967Y-51614314D01*
X55889965Y-51614314D01*
X55889969Y-51614315D01*
X55889971Y-51614316D01*
X56017265Y-51648424D01*
X56017267Y-51648424D01*
X56149047Y-51648424D01*
X56149049Y-51648424D01*
X56276343Y-51614316D01*
X56276345Y-51614314D01*
X56276347Y-51614314D01*
X56390466Y-51548427D01*
X56390466Y-51548426D01*
X56390471Y-51548424D01*
X56483657Y-51455238D01*
X56549549Y-51341110D01*
X56583657Y-51213816D01*
X56583657Y-51082032D01*
X56549549Y-50954738D01*
X56549547Y-50954735D01*
X56549547Y-50954733D01*
X56483660Y-50840614D01*
X56483658Y-50840612D01*
X56483657Y-50840610D01*
X56390471Y-50747424D01*
X56390468Y-50747422D01*
X56390466Y-50747420D01*
X56276346Y-50681533D01*
X56276348Y-50681533D01*
X56206101Y-50662711D01*
X56149049Y-50647424D01*
X56017265Y-50647424D01*
X55960213Y-50662711D01*
X55889966Y-50681533D01*
X55775847Y-50747420D01*
X55682653Y-50840614D01*
X55616766Y-50954733D01*
X55597709Y-51025855D01*
X55582657Y-51082032D01*
X52002157Y-51082032D01*
X52002157Y-49266861D01*
X51999622Y-49257403D01*
X51999622Y-49257398D01*
X51999621Y-49257399D01*
X51999621Y-49257398D01*
X51981679Y-49190436D01*
X51981676Y-49190430D01*
X51942120Y-49121917D01*
X51942119Y-49121916D01*
X51942118Y-49121915D01*
X51942117Y-49121913D01*
X48094153Y-45273949D01*
X48066376Y-45219432D01*
X48065157Y-45203945D01*
X48065157Y-45007677D01*
X52556157Y-45007677D01*
X52556157Y-46747170D01*
X52556158Y-46747182D01*
X52567789Y-46805651D01*
X52567791Y-46805657D01*
X52612102Y-46871972D01*
X52612105Y-46871976D01*
X52612108Y-46871978D01*
X52673391Y-46912927D01*
X52678426Y-46916291D01*
X52722888Y-46925135D01*
X52736898Y-46927922D01*
X52736903Y-46927922D01*
X52736909Y-46927924D01*
X52736910Y-46927924D01*
X54476404Y-46927924D01*
X54476405Y-46927924D01*
X54534888Y-46916291D01*
X54601209Y-46871976D01*
X54645524Y-46805655D01*
X54657157Y-46747172D01*
X54657157Y-45773956D01*
X55096157Y-45773956D01*
X55096157Y-45980891D01*
X55136526Y-46183842D01*
X55215715Y-46375021D01*
X55330677Y-46547075D01*
X55330680Y-46547079D01*
X55477002Y-46693401D01*
X55649059Y-46808365D01*
X55840237Y-46887554D01*
X56043192Y-46927924D01*
X56043193Y-46927924D01*
X56250121Y-46927924D01*
X56250122Y-46927924D01*
X56453077Y-46887554D01*
X56644255Y-46808365D01*
X56816312Y-46693401D01*
X56962634Y-46547079D01*
X57077598Y-46375022D01*
X57156787Y-46183844D01*
X57197157Y-45980889D01*
X57197157Y-45773959D01*
X57197156Y-45773956D01*
X57636157Y-45773956D01*
X57636157Y-45980891D01*
X57676526Y-46183842D01*
X57755715Y-46375021D01*
X57870677Y-46547075D01*
X57870680Y-46547079D01*
X58017002Y-46693401D01*
X58189059Y-46808365D01*
X58380237Y-46887554D01*
X58583192Y-46927924D01*
X58583193Y-46927924D01*
X58790121Y-46927924D01*
X58790122Y-46927924D01*
X58993077Y-46887554D01*
X59184255Y-46808365D01*
X59356312Y-46693401D01*
X59502634Y-46547079D01*
X59617598Y-46375022D01*
X59696787Y-46183844D01*
X59737157Y-45980889D01*
X59737157Y-45773959D01*
X59696787Y-45571004D01*
X59617598Y-45379826D01*
X59502634Y-45207769D01*
X59356312Y-45061447D01*
X59338040Y-45049238D01*
X59184254Y-44946482D01*
X58993075Y-44867293D01*
X58790124Y-44826924D01*
X58790122Y-44826924D01*
X58583192Y-44826924D01*
X58583189Y-44826924D01*
X58380238Y-44867293D01*
X58189059Y-44946482D01*
X58017005Y-45061444D01*
X57870677Y-45207772D01*
X57755715Y-45379826D01*
X57676526Y-45571005D01*
X57636157Y-45773956D01*
X57197156Y-45773956D01*
X57156787Y-45571004D01*
X57077598Y-45379826D01*
X56962634Y-45207769D01*
X56816312Y-45061447D01*
X56798040Y-45049238D01*
X56644254Y-44946482D01*
X56453075Y-44867293D01*
X56250124Y-44826924D01*
X56250122Y-44826924D01*
X56043192Y-44826924D01*
X56043189Y-44826924D01*
X55840238Y-44867293D01*
X55649059Y-44946482D01*
X55477005Y-45061444D01*
X55330677Y-45207772D01*
X55215715Y-45379826D01*
X55136526Y-45571005D01*
X55096157Y-45773956D01*
X54657157Y-45773956D01*
X54657157Y-45007676D01*
X54656983Y-45006803D01*
X54650634Y-44974884D01*
X54645524Y-44949193D01*
X54601209Y-44882872D01*
X54598574Y-44881111D01*
X54534890Y-44838558D01*
X54534888Y-44838557D01*
X54534885Y-44838556D01*
X54534884Y-44838556D01*
X54476415Y-44826925D01*
X54476405Y-44826924D01*
X52736909Y-44826924D01*
X52736908Y-44826924D01*
X52736898Y-44826925D01*
X52678429Y-44838556D01*
X52678423Y-44838558D01*
X52612108Y-44882869D01*
X52612102Y-44882875D01*
X52567791Y-44949190D01*
X52567789Y-44949196D01*
X52556158Y-45007665D01*
X52556157Y-45007677D01*
X48065157Y-45007677D01*
X48065157Y-40591446D01*
X48084064Y-40533255D01*
X48133564Y-40497291D01*
X48194750Y-40497291D01*
X48202040Y-40499981D01*
X48206465Y-40501814D01*
X48206469Y-40501815D01*
X48206471Y-40501816D01*
X48333765Y-40535924D01*
X48333767Y-40535924D01*
X48465547Y-40535924D01*
X48465549Y-40535924D01*
X48592843Y-40501816D01*
X48592845Y-40501814D01*
X48592847Y-40501814D01*
X48706966Y-40435927D01*
X48706966Y-40435926D01*
X48706971Y-40435924D01*
X48800157Y-40342738D01*
X48838787Y-40275829D01*
X48866047Y-40228614D01*
X48866047Y-40228612D01*
X48866049Y-40228610D01*
X48900157Y-40101316D01*
X48900157Y-39969532D01*
X48866049Y-39842238D01*
X48866047Y-39842235D01*
X48866047Y-39842233D01*
X48800160Y-39728114D01*
X48800158Y-39728112D01*
X48800157Y-39728110D01*
X48706971Y-39634924D01*
X48706968Y-39634922D01*
X48706966Y-39634920D01*
X48592846Y-39569033D01*
X48592848Y-39569033D01*
X48543456Y-39555799D01*
X48465549Y-39534924D01*
X48333765Y-39534924D01*
X48261758Y-39554217D01*
X48206462Y-39569034D01*
X48202033Y-39570869D01*
X48141035Y-39575663D01*
X48088870Y-39543688D01*
X48065461Y-39487158D01*
X48065157Y-39479401D01*
X48065157Y-38191532D01*
X49042157Y-38191532D01*
X49042157Y-38323316D01*
X49051233Y-38357188D01*
X49051787Y-38367309D01*
X49051795Y-38367457D01*
X49052423Y-38378934D01*
X49069932Y-38447201D01*
X49072873Y-38457367D01*
X49073423Y-38459266D01*
X49073849Y-38460586D01*
X49077962Y-38472138D01*
X49102281Y-38534495D01*
X49108746Y-38549321D01*
X49108752Y-38549333D01*
X49109554Y-38550991D01*
X49117219Y-38565353D01*
X49117232Y-38565375D01*
X49117233Y-38565377D01*
X49177201Y-38667729D01*
X49177221Y-38667762D01*
X49179292Y-38671218D01*
X49179574Y-38671678D01*
X49181393Y-38674589D01*
X49204583Y-38711024D01*
X49210487Y-38721699D01*
X49217930Y-38737366D01*
X49224389Y-38755193D01*
X49229573Y-38775353D01*
X49232440Y-38792954D01*
X49236902Y-38855428D01*
X49236905Y-38855443D01*
X49239083Y-38863979D01*
X49242157Y-38888456D01*
X49242157Y-41852988D01*
X49262635Y-41929412D01*
X49279275Y-41958233D01*
X49297220Y-41989315D01*
X49297797Y-41990313D01*
X49297798Y-41990316D01*
X49302192Y-41997927D01*
X49302197Y-41997935D01*
X49985212Y-42680950D01*
X50664195Y-43359933D01*
X50670948Y-43367412D01*
X50675677Y-43373218D01*
X50683838Y-43387065D01*
X50719397Y-43426889D01*
X50720817Y-43428632D01*
X50721081Y-43429316D01*
X50726313Y-43436063D01*
X50732413Y-43445170D01*
X50742695Y-43465076D01*
X50760528Y-43511972D01*
X50764824Y-43526550D01*
X50769856Y-43550192D01*
X50770810Y-43554446D01*
X50770947Y-43555029D01*
X50771889Y-43558856D01*
X50799960Y-43668343D01*
X50804497Y-43683566D01*
X50805076Y-43685266D01*
X50810773Y-43700096D01*
X50823107Y-43728826D01*
X50838047Y-43763628D01*
X50843498Y-43775303D01*
X50844150Y-43776594D01*
X50844164Y-43776620D01*
X50850436Y-43788101D01*
X50887855Y-43851693D01*
X50890794Y-43856536D01*
X50891098Y-43857021D01*
X50891099Y-43857022D01*
X50894948Y-43861001D01*
X50909532Y-43880336D01*
X50919112Y-43896928D01*
X50920157Y-43898738D01*
X51013343Y-43991924D01*
X51013345Y-43991925D01*
X51013347Y-43991927D01*
X51127467Y-44057814D01*
X51127465Y-44057814D01*
X51127469Y-44057815D01*
X51127471Y-44057816D01*
X51254765Y-44091924D01*
X51254767Y-44091924D01*
X51386547Y-44091924D01*
X51386549Y-44091924D01*
X51513843Y-44057816D01*
X51513845Y-44057814D01*
X51513847Y-44057814D01*
X51627966Y-43991927D01*
X51627966Y-43991926D01*
X51627971Y-43991924D01*
X51721157Y-43898738D01*
X51731455Y-43880902D01*
X51787047Y-43784614D01*
X51787047Y-43784612D01*
X51787049Y-43784610D01*
X51821157Y-43657316D01*
X51821157Y-43525532D01*
X51787049Y-43398238D01*
X51783554Y-43392184D01*
X51770832Y-43332336D01*
X51795719Y-43276440D01*
X51819786Y-43256950D01*
X51902971Y-43208924D01*
X51996157Y-43115738D01*
X51999226Y-43110423D01*
X52062047Y-43001614D01*
X52062047Y-43001612D01*
X52062049Y-43001610D01*
X52096157Y-42874316D01*
X52096157Y-42742532D01*
X52096157Y-42741927D01*
X52115064Y-42683736D01*
X52164564Y-42647772D01*
X52169504Y-42646309D01*
X52275843Y-42617816D01*
X52385468Y-42554524D01*
X52389966Y-42551927D01*
X52389966Y-42551926D01*
X52389971Y-42551924D01*
X52483157Y-42458738D01*
X52490572Y-42445895D01*
X52549047Y-42344614D01*
X52549047Y-42344612D01*
X52549049Y-42344610D01*
X52583157Y-42217316D01*
X52583157Y-42085532D01*
X52549049Y-41958238D01*
X52549047Y-41958235D01*
X52549047Y-41958233D01*
X52483160Y-41844114D01*
X52483156Y-41844109D01*
X52389973Y-41750925D01*
X52368502Y-41738528D01*
X52366725Y-41737477D01*
X52358820Y-41732690D01*
X52343378Y-41718853D01*
X52282740Y-41682972D01*
X52271965Y-41677025D01*
X52270709Y-41676380D01*
X52259414Y-41671007D01*
X52239547Y-41662288D01*
X52198133Y-41644113D01*
X52185195Y-41639036D01*
X52182963Y-41638160D01*
X52182956Y-41638157D01*
X52182947Y-41638154D01*
X52181238Y-41637560D01*
X52165694Y-41632840D01*
X52050974Y-41602885D01*
X52047600Y-41602034D01*
X52047165Y-41601928D01*
X52043285Y-41601026D01*
X52000962Y-41591624D01*
X51989243Y-41588251D01*
X51981602Y-41585532D01*
X57724157Y-41585532D01*
X57724157Y-41717316D01*
X57743179Y-41788306D01*
X57758266Y-41844614D01*
X57824153Y-41958733D01*
X57824155Y-41958735D01*
X57824157Y-41958738D01*
X57917343Y-42051924D01*
X57938809Y-42064317D01*
X57955372Y-42076321D01*
X57963935Y-42083994D01*
X58024573Y-42119875D01*
X58035348Y-42125822D01*
X58036604Y-42126467D01*
X58047898Y-42131840D01*
X58109192Y-42158739D01*
X58116792Y-42161720D01*
X58124380Y-42164697D01*
X58124392Y-42164701D01*
X58126138Y-42165307D01*
X58141602Y-42170002D01*
X58256331Y-42199959D01*
X58259642Y-42200794D01*
X58260061Y-42200896D01*
X58264104Y-42201837D01*
X58280283Y-42205431D01*
X58306346Y-42211221D01*
X58318061Y-42214592D01*
X58334412Y-42220410D01*
X58351575Y-42228443D01*
X58369513Y-42239043D01*
X58383974Y-42249453D01*
X58431311Y-42290479D01*
X58438890Y-42294976D01*
X58458373Y-42310111D01*
X60559197Y-44410935D01*
X60559196Y-44410935D01*
X60615146Y-44466884D01*
X60683664Y-44506443D01*
X60683668Y-44506445D01*
X60760092Y-44526923D01*
X60760094Y-44526924D01*
X60760095Y-44526924D01*
X60839219Y-44526924D01*
X73102904Y-44526924D01*
X73108519Y-44527083D01*
X73116977Y-44527563D01*
X73136906Y-44532178D01*
X73273162Y-44536435D01*
X73274416Y-44536507D01*
X73274628Y-44536589D01*
X73279674Y-44536946D01*
X73385609Y-44548654D01*
X73394997Y-44550151D01*
X73464707Y-44564742D01*
X73474986Y-44567478D01*
X73521730Y-44582660D01*
X73537066Y-44589113D01*
X73621712Y-44633445D01*
X73635972Y-44640913D01*
X73650963Y-44650578D01*
X73655958Y-44654479D01*
X73690183Y-44705194D01*
X73692175Y-44751554D01*
X73685686Y-44784648D01*
X73682872Y-44795629D01*
X73665371Y-44850606D01*
X73660606Y-44862742D01*
X73633842Y-44919595D01*
X73627815Y-44930546D01*
X73584753Y-44998276D01*
X73578676Y-45006803D01*
X73512003Y-45090590D01*
X73506746Y-45096671D01*
X73412271Y-45197401D01*
X73405262Y-45208459D01*
X73391653Y-45225454D01*
X72726146Y-45890963D01*
X72670196Y-45946913D01*
X72630637Y-46015431D01*
X72630635Y-46015435D01*
X72610157Y-46091859D01*
X72610157Y-55060988D01*
X72630635Y-55137411D01*
X72661809Y-55191407D01*
X72668158Y-55202403D01*
X72670197Y-55205935D01*
X73033248Y-55568986D01*
X73392073Y-55927811D01*
X73395930Y-55931894D01*
X73401578Y-55938222D01*
X73412397Y-55955565D01*
X73505729Y-56054920D01*
X73506565Y-56055856D01*
X73506656Y-56056064D01*
X73509973Y-56059886D01*
X73576601Y-56143069D01*
X73582192Y-56150783D01*
X73621160Y-56210382D01*
X73626504Y-56219603D01*
X73648807Y-56263362D01*
X73655095Y-56278783D01*
X73688405Y-56385351D01*
X73692172Y-56402794D01*
X73712460Y-56567648D01*
X73712936Y-56572495D01*
X73716421Y-56620005D01*
X73716611Y-56622586D01*
X73716827Y-56625278D01*
X73735441Y-56840098D01*
X73736143Y-56846896D01*
X73736237Y-56847675D01*
X73737196Y-56854658D01*
X73777042Y-57111658D01*
X73777793Y-57116167D01*
X73777795Y-57116177D01*
X73777880Y-57116655D01*
X73777881Y-57116658D01*
X73777880Y-57116658D01*
X73783430Y-57130474D01*
X73788660Y-57148057D01*
X73805524Y-57232833D01*
X73805528Y-57232847D01*
X73884715Y-57424021D01*
X73963495Y-57541924D01*
X73999680Y-57596079D01*
X74146002Y-57742401D01*
X74318059Y-57857365D01*
X74509237Y-57936554D01*
X74712192Y-57976924D01*
X74712193Y-57976924D01*
X74919121Y-57976924D01*
X74919122Y-57976924D01*
X75122077Y-57936554D01*
X75313255Y-57857365D01*
X75485312Y-57742401D01*
X75631634Y-57596079D01*
X75746598Y-57424022D01*
X75825787Y-57232844D01*
X75866157Y-57029889D01*
X75866157Y-56822959D01*
X75825787Y-56620004D01*
X75746598Y-56428826D01*
X75631634Y-56256769D01*
X75485312Y-56110447D01*
X75485308Y-56110444D01*
X75313254Y-55995482D01*
X75122075Y-55916293D01*
X75122069Y-55916291D01*
X75033286Y-55898630D01*
X75019248Y-55894745D01*
X74999510Y-55887682D01*
X74999502Y-55887680D01*
X74742923Y-55849610D01*
X74700342Y-55843292D01*
X74700337Y-55843291D01*
X74700328Y-55843290D01*
X74693801Y-55842429D01*
X74692999Y-55842336D01*
X74686246Y-55841669D01*
X74515586Y-55827680D01*
X74514267Y-55827562D01*
X74477844Y-55824083D01*
X74327646Y-55809733D01*
X74318014Y-55808332D01*
X74257433Y-55796454D01*
X74246451Y-55793640D01*
X74191476Y-55776140D01*
X74179339Y-55771375D01*
X74122477Y-55744606D01*
X74111528Y-55738580D01*
X74043817Y-55695531D01*
X74035290Y-55689453D01*
X73951484Y-55622766D01*
X73945401Y-55617508D01*
X73844681Y-55523042D01*
X73844681Y-55523041D01*
X73833617Y-55516027D01*
X73816624Y-55502420D01*
X73240153Y-54925949D01*
X73212376Y-54871432D01*
X73211157Y-54855945D01*
X73211157Y-46296902D01*
X73230064Y-46238711D01*
X73240147Y-46226904D01*
X73817065Y-45649985D01*
X73821131Y-45646146D01*
X73827457Y-45640499D01*
X73844800Y-45629682D01*
X73944153Y-45536349D01*
X73945099Y-45535506D01*
X73945305Y-45535415D01*
X73949115Y-45532108D01*
X74032312Y-45465468D01*
X74039978Y-45459910D01*
X74099639Y-45420901D01*
X74108823Y-45415580D01*
X74152616Y-45393260D01*
X74168006Y-45386985D01*
X74274586Y-45353671D01*
X74292018Y-45349906D01*
X74456912Y-45329613D01*
X74461723Y-45329141D01*
X74511741Y-45325474D01*
X74514450Y-45325257D01*
X74656410Y-45312956D01*
X74729337Y-45306638D01*
X74729361Y-45306635D01*
X74729367Y-45306635D01*
X74732673Y-45306293D01*
X74736123Y-45305937D01*
X74736247Y-45305921D01*
X74736905Y-45305843D01*
X74740862Y-45305298D01*
X74743891Y-45304883D01*
X75000891Y-45265037D01*
X75000888Y-45265037D01*
X75000917Y-45265033D01*
X75005410Y-45264285D01*
X75005888Y-45264200D01*
X75005892Y-45264198D01*
X75005894Y-45264198D01*
X75013105Y-45261300D01*
X75019693Y-45258653D01*
X75037281Y-45253420D01*
X75122077Y-45236554D01*
X75313255Y-45157365D01*
X75485312Y-45042401D01*
X75631634Y-44896079D01*
X75746598Y-44724022D01*
X75825787Y-44532844D01*
X75866157Y-44329889D01*
X75866157Y-44122959D01*
X75825787Y-43920004D01*
X75746598Y-43728826D01*
X75631634Y-43556769D01*
X75485312Y-43410447D01*
X75467040Y-43398238D01*
X75313254Y-43295482D01*
X75122075Y-43216293D01*
X74919124Y-43175924D01*
X74919122Y-43175924D01*
X74712192Y-43175924D01*
X74712189Y-43175924D01*
X74509238Y-43216293D01*
X74318056Y-43295483D01*
X74242788Y-43345775D01*
X74230111Y-43352956D01*
X74211156Y-43361919D01*
X74211151Y-43361922D01*
X73968201Y-43542091D01*
X73962700Y-43546318D01*
X73962090Y-43546803D01*
X73957083Y-43550918D01*
X73826575Y-43661650D01*
X73825554Y-43662505D01*
X73680966Y-43781876D01*
X73673163Y-43787697D01*
X73621911Y-43822145D01*
X73612154Y-43827921D01*
X73560924Y-43854409D01*
X73548976Y-43859620D01*
X73489834Y-43880902D01*
X73477829Y-43884384D01*
X73399499Y-43901825D01*
X73389172Y-43903557D01*
X73282774Y-43915660D01*
X73274756Y-43916243D01*
X73136733Y-43920665D01*
X73123953Y-43923529D01*
X73102309Y-43925924D01*
X60965136Y-43925924D01*
X60906945Y-43907017D01*
X60895132Y-43896928D01*
X58881119Y-41882915D01*
X58874366Y-41875436D01*
X58869636Y-41869630D01*
X58861476Y-41855782D01*
X58825909Y-41815950D01*
X58824492Y-41814210D01*
X58824228Y-41813528D01*
X58819004Y-41806791D01*
X58812896Y-41797673D01*
X58802616Y-41777773D01*
X58784777Y-41730863D01*
X58780488Y-41716300D01*
X58777301Y-41701322D01*
X58775469Y-41692713D01*
X58774461Y-41688226D01*
X58774352Y-41687764D01*
X58773415Y-41683959D01*
X58745347Y-41574488D01*
X58740815Y-41559280D01*
X58740631Y-41558739D01*
X58740236Y-41557578D01*
X58738327Y-41552610D01*
X58734541Y-41542757D01*
X58707267Y-41479220D01*
X58701787Y-41467489D01*
X58701120Y-41466171D01*
X58694878Y-41454750D01*
X58681581Y-41432151D01*
X58678640Y-41426777D01*
X58676346Y-41422260D01*
X58675730Y-41420526D01*
X58667873Y-41401494D01*
X58666873Y-41399379D01*
X58657168Y-41381258D01*
X58646631Y-41363749D01*
X58645027Y-41360590D01*
X58640806Y-41333711D01*
X58634667Y-41307204D01*
X58636109Y-41303798D01*
X58635536Y-41300145D01*
X58647917Y-41275924D01*
X58658533Y-41250865D01*
X58663278Y-41245772D01*
X58793853Y-41115197D01*
X58848368Y-41087422D01*
X58908800Y-41096993D01*
X58952065Y-41140258D01*
X58959480Y-41159575D01*
X58974159Y-41214356D01*
X58982266Y-41244614D01*
X59048153Y-41358733D01*
X59048155Y-41358735D01*
X59048157Y-41358738D01*
X59141343Y-41451924D01*
X59162809Y-41464317D01*
X59179372Y-41476321D01*
X59187935Y-41483994D01*
X59248573Y-41519875D01*
X59259348Y-41525822D01*
X59260604Y-41526467D01*
X59271898Y-41531840D01*
X59333192Y-41558739D01*
X59340792Y-41561720D01*
X59348380Y-41564697D01*
X59348392Y-41564701D01*
X59350138Y-41565307D01*
X59365602Y-41570002D01*
X59480331Y-41599959D01*
X59483642Y-41600794D01*
X59484061Y-41600896D01*
X59488104Y-41601837D01*
X59492822Y-41602885D01*
X59530346Y-41611221D01*
X59542061Y-41614592D01*
X59558412Y-41620410D01*
X59575575Y-41628443D01*
X59593513Y-41639043D01*
X59607974Y-41649453D01*
X59655311Y-41690479D01*
X59662890Y-41694976D01*
X59682372Y-41710111D01*
X59899145Y-41926883D01*
X59899150Y-41926887D01*
X59967665Y-41966444D01*
X59967663Y-41966444D01*
X59967667Y-41966445D01*
X59967669Y-41966446D01*
X60044095Y-41986924D01*
X73102904Y-41986924D01*
X73108519Y-41987083D01*
X73116977Y-41987563D01*
X73136906Y-41992178D01*
X73273162Y-41996435D01*
X73274416Y-41996507D01*
X73274628Y-41996589D01*
X73279674Y-41996946D01*
X73385609Y-42008654D01*
X73394997Y-42010151D01*
X73464707Y-42024742D01*
X73474986Y-42027478D01*
X73521730Y-42042660D01*
X73537067Y-42049114D01*
X73635971Y-42100913D01*
X73650968Y-42110583D01*
X73781889Y-42212810D01*
X73785657Y-42215904D01*
X73823567Y-42248634D01*
X73825706Y-42250456D01*
X73896680Y-42310111D01*
X73990816Y-42389234D01*
X73996101Y-42393529D01*
X73996721Y-42394016D01*
X74001965Y-42397991D01*
X74002337Y-42398273D01*
X74212269Y-42551846D01*
X74215608Y-42554238D01*
X74216013Y-42554522D01*
X74216017Y-42554524D01*
X74229817Y-42560429D01*
X74245865Y-42569126D01*
X74318059Y-42617365D01*
X74509237Y-42696554D01*
X74595740Y-42713760D01*
X74598025Y-42714215D01*
X74612064Y-42718100D01*
X74631813Y-42725167D01*
X74930967Y-42769553D01*
X74933666Y-42769909D01*
X74937520Y-42770418D01*
X74937977Y-42770470D01*
X74938282Y-42770506D01*
X74941104Y-42770784D01*
X74945095Y-42771179D01*
X75002528Y-42775887D01*
X75115800Y-42785172D01*
X75117007Y-42785280D01*
X75303663Y-42803112D01*
X75313280Y-42804511D01*
X75373885Y-42816393D01*
X75384861Y-42819206D01*
X75439833Y-42836706D01*
X75451963Y-42841468D01*
X75508840Y-42868243D01*
X75519790Y-42874270D01*
X75587498Y-42917318D01*
X75596005Y-42923380D01*
X75679858Y-42990106D01*
X75685891Y-42995320D01*
X75786633Y-43089805D01*
X75797689Y-43096814D01*
X75814685Y-43110423D01*
X76518161Y-43813899D01*
X76545938Y-43868416D01*
X76547157Y-43883903D01*
X76547157Y-52188944D01*
X76528250Y-52247135D01*
X76518161Y-52258948D01*
X76035161Y-52741948D01*
X75980644Y-52769725D01*
X75920212Y-52760154D01*
X75876947Y-52716889D01*
X75866157Y-52671944D01*
X75866157Y-50976677D01*
X75866155Y-50976665D01*
X75861792Y-50954733D01*
X75854524Y-50918193D01*
X75810209Y-50851872D01*
X75810205Y-50851869D01*
X75743890Y-50807558D01*
X75743888Y-50807557D01*
X75743885Y-50807556D01*
X75743884Y-50807556D01*
X75685415Y-50795925D01*
X75685405Y-50795924D01*
X73945909Y-50795924D01*
X73945908Y-50795924D01*
X73945898Y-50795925D01*
X73887429Y-50807556D01*
X73887423Y-50807558D01*
X73821108Y-50851869D01*
X73821102Y-50851875D01*
X73776791Y-50918190D01*
X73776789Y-50918196D01*
X73765158Y-50976665D01*
X73765157Y-50976677D01*
X73765157Y-52716170D01*
X73765158Y-52716182D01*
X73776789Y-52774651D01*
X73776791Y-52774657D01*
X73821102Y-52840972D01*
X73821105Y-52840976D01*
X73887426Y-52885291D01*
X73931888Y-52894135D01*
X73945898Y-52896922D01*
X73945903Y-52896922D01*
X73945909Y-52896924D01*
X73945910Y-52896924D01*
X75628337Y-52896924D01*
X75651798Y-52904547D01*
X75676023Y-52909166D01*
X75680418Y-52913845D01*
X75686528Y-52915831D01*
X75701030Y-52935792D01*
X75717911Y-52953765D01*
X75718716Y-52960134D01*
X75722492Y-52965331D01*
X75722492Y-52990001D01*
X75725585Y-53014467D01*
X75722492Y-53020094D01*
X75722492Y-53026517D01*
X75696113Y-53068086D01*
X75688068Y-53075642D01*
X75682183Y-53080749D01*
X75611724Y-53137185D01*
X75611681Y-53137219D01*
X75598995Y-53147379D01*
X75591287Y-53152966D01*
X75531704Y-53191924D01*
X75522481Y-53197269D01*
X75478713Y-53219576D01*
X75463293Y-53225863D01*
X75356728Y-53259172D01*
X75339285Y-53262939D01*
X75174415Y-53283229D01*
X75169565Y-53283705D01*
X75119493Y-53287377D01*
X75116814Y-53287591D01*
X74901977Y-53306208D01*
X74897535Y-53306666D01*
X74895307Y-53306896D01*
X74895289Y-53306898D01*
X74895271Y-53306900D01*
X74894551Y-53306986D01*
X74887425Y-53307963D01*
X74630391Y-53347814D01*
X74625610Y-53348613D01*
X74625151Y-53348695D01*
X74611425Y-53354220D01*
X74593778Y-53359477D01*
X74509236Y-53376294D01*
X74318059Y-53455482D01*
X74146005Y-53570444D01*
X73999677Y-53716772D01*
X73884715Y-53888826D01*
X73805526Y-54080005D01*
X73765157Y-54282956D01*
X73765157Y-54489891D01*
X73805526Y-54692842D01*
X73884715Y-54884021D01*
X73970998Y-55013153D01*
X73999680Y-55056079D01*
X74146002Y-55202401D01*
X74318059Y-55317365D01*
X74509237Y-55396554D01*
X74712192Y-55436924D01*
X74712193Y-55436924D01*
X74919121Y-55436924D01*
X74919122Y-55436924D01*
X75122077Y-55396554D01*
X75313255Y-55317365D01*
X75485312Y-55202401D01*
X75631634Y-55056079D01*
X75746598Y-54884022D01*
X75825787Y-54692844D01*
X75843448Y-54604049D01*
X75847335Y-54590009D01*
X75854397Y-54570275D01*
X75854400Y-54570267D01*
X75898786Y-54271112D01*
X75899651Y-54264558D01*
X75899739Y-54263797D01*
X75899742Y-54263773D01*
X75900412Y-54256983D01*
X75907576Y-54169591D01*
X75914406Y-54086265D01*
X75914511Y-54085085D01*
X75932345Y-53898412D01*
X75933744Y-53888797D01*
X75945626Y-53828194D01*
X75948440Y-53817214D01*
X75952064Y-53805830D01*
X75965941Y-53762232D01*
X75970695Y-53750122D01*
X75997481Y-53693227D01*
X76003494Y-53682302D01*
X76046566Y-53614557D01*
X76052615Y-53606069D01*
X76119311Y-53522252D01*
X76124553Y-53516187D01*
X76219039Y-53415447D01*
X76226048Y-53404389D01*
X76239653Y-53387397D01*
X77088117Y-52538935D01*
X77125004Y-52475044D01*
X77127678Y-52470413D01*
X77148157Y-52393986D01*
X77148157Y-43678862D01*
X77127678Y-43602435D01*
X77088117Y-43533913D01*
X77065313Y-43511109D01*
X77032168Y-43477963D01*
X77032168Y-43477964D01*
X76239237Y-42685033D01*
X76235380Y-42680950D01*
X76229735Y-42674625D01*
X76218915Y-42657281D01*
X76125583Y-42557927D01*
X76124737Y-42556979D01*
X76124644Y-42556769D01*
X76121329Y-42552949D01*
X76054716Y-42469785D01*
X76049125Y-42462071D01*
X76010149Y-42402460D01*
X76004808Y-42393246D01*
X75982495Y-42349465D01*
X75976217Y-42334067D01*
X75942904Y-42227494D01*
X75939139Y-42210057D01*
X75933557Y-42164697D01*
X75918847Y-42045175D01*
X75918373Y-42040335D01*
X75917880Y-42033617D01*
X75914706Y-41990317D01*
X75914489Y-41987604D01*
X75914485Y-41987566D01*
X75914479Y-41987482D01*
X75898821Y-41806786D01*
X75895868Y-41772711D01*
X75895170Y-41765957D01*
X75895076Y-41765174D01*
X75895072Y-41765143D01*
X75894116Y-41758187D01*
X75854270Y-41501188D01*
X75854266Y-41501163D01*
X75853518Y-41496670D01*
X75853433Y-41496192D01*
X75848532Y-41483993D01*
X75847885Y-41482381D01*
X75842651Y-41464789D01*
X75834691Y-41424770D01*
X75825787Y-41380004D01*
X75746598Y-41188826D01*
X75631634Y-41016769D01*
X75485312Y-40870447D01*
X75480878Y-40867484D01*
X75313254Y-40755482D01*
X75122075Y-40676293D01*
X74919124Y-40635924D01*
X74919122Y-40635924D01*
X74712192Y-40635924D01*
X74712189Y-40635924D01*
X74509238Y-40676293D01*
X74318056Y-40755483D01*
X74242788Y-40805775D01*
X74230111Y-40812956D01*
X74211156Y-40821919D01*
X74211151Y-40821922D01*
X73968201Y-41002091D01*
X73962700Y-41006318D01*
X73962090Y-41006803D01*
X73957083Y-41010918D01*
X73826575Y-41121650D01*
X73825554Y-41122505D01*
X73680966Y-41241876D01*
X73673163Y-41247697D01*
X73621911Y-41282145D01*
X73612154Y-41287921D01*
X73560924Y-41314409D01*
X73548976Y-41319620D01*
X73489834Y-41340902D01*
X73477829Y-41344384D01*
X73399499Y-41361825D01*
X73389172Y-41363557D01*
X73282774Y-41375660D01*
X73274756Y-41376243D01*
X73136733Y-41380665D01*
X73123953Y-41383529D01*
X73102309Y-41385924D01*
X60249136Y-41385924D01*
X60190945Y-41367017D01*
X60179132Y-41356928D01*
X60105119Y-41282915D01*
X60098366Y-41275436D01*
X60093636Y-41269630D01*
X60085476Y-41255782D01*
X60049909Y-41215950D01*
X60048492Y-41214210D01*
X60048228Y-41213528D01*
X60043004Y-41206791D01*
X60036896Y-41197673D01*
X60026616Y-41177773D01*
X60008777Y-41130863D01*
X60004488Y-41116300D01*
X60001478Y-41102157D01*
X59999469Y-41092713D01*
X59998461Y-41088226D01*
X59998352Y-41087764D01*
X59997415Y-41083959D01*
X59969347Y-40974488D01*
X59964815Y-40959280D01*
X59964673Y-40958865D01*
X59964236Y-40957578D01*
X59962045Y-40951877D01*
X59958541Y-40942757D01*
X59931267Y-40879220D01*
X59925787Y-40867489D01*
X59925120Y-40866171D01*
X59918878Y-40854750D01*
X59881475Y-40791182D01*
X59878532Y-40786334D01*
X59878197Y-40785799D01*
X59874356Y-40781829D01*
X59871586Y-40778846D01*
X59864839Y-40771273D01*
X59849157Y-40744110D01*
X59755971Y-40650924D01*
X59694090Y-40615197D01*
X59690724Y-40612863D01*
X59684386Y-40604532D01*
X63012157Y-40604532D01*
X63012157Y-40736316D01*
X63035094Y-40821919D01*
X63046266Y-40863614D01*
X63112153Y-40977733D01*
X63112155Y-40977735D01*
X63112157Y-40977738D01*
X63205343Y-41070924D01*
X63205345Y-41070925D01*
X63205347Y-41070927D01*
X63319467Y-41136814D01*
X63319465Y-41136814D01*
X63319469Y-41136815D01*
X63319471Y-41136816D01*
X63446765Y-41170924D01*
X63446767Y-41170924D01*
X63578547Y-41170924D01*
X63578549Y-41170924D01*
X63705843Y-41136816D01*
X63705845Y-41136814D01*
X63705847Y-41136814D01*
X63819966Y-41070927D01*
X63819966Y-41070926D01*
X63819971Y-41070924D01*
X63913157Y-40977738D01*
X63915029Y-40974496D01*
X63979047Y-40863614D01*
X63979047Y-40863612D01*
X63979049Y-40863610D01*
X64013157Y-40736316D01*
X64013157Y-40604532D01*
X63979049Y-40477238D01*
X63979047Y-40477235D01*
X63979047Y-40477233D01*
X63913160Y-40363114D01*
X63913158Y-40363112D01*
X63913157Y-40363110D01*
X63819971Y-40269924D01*
X63819968Y-40269922D01*
X63819966Y-40269920D01*
X63705846Y-40204033D01*
X63705848Y-40204033D01*
X63650403Y-40189177D01*
X63578549Y-40169924D01*
X63446765Y-40169924D01*
X63374911Y-40189177D01*
X63319466Y-40204033D01*
X63205347Y-40269920D01*
X63112153Y-40363114D01*
X63046266Y-40477233D01*
X63037239Y-40510922D01*
X63012157Y-40604532D01*
X59684386Y-40604532D01*
X59674553Y-40591608D01*
X59656693Y-40571772D01*
X59656249Y-40567548D01*
X59653677Y-40564168D01*
X59653087Y-40537473D01*
X59650297Y-40510922D01*
X59652382Y-40505491D01*
X59652327Y-40502998D01*
X59654595Y-40499726D01*
X59658823Y-40488714D01*
X59658565Y-40488608D01*
X59661047Y-40482615D01*
X59661047Y-40482612D01*
X59661049Y-40482610D01*
X59695157Y-40355316D01*
X59695157Y-40223532D01*
X59661049Y-40096238D01*
X59661047Y-40096235D01*
X59661047Y-40096233D01*
X59595160Y-39982114D01*
X59595158Y-39982112D01*
X59595157Y-39982110D01*
X59501971Y-39888924D01*
X59501968Y-39888922D01*
X59501966Y-39888920D01*
X59387846Y-39823033D01*
X59387848Y-39823033D01*
X59338456Y-39809799D01*
X59260549Y-39788924D01*
X59128765Y-39788924D01*
X59050857Y-39809799D01*
X59001466Y-39823033D01*
X58887347Y-39888920D01*
X58887342Y-39888924D01*
X58794160Y-39982105D01*
X58794159Y-39982106D01*
X58781764Y-40003574D01*
X58769762Y-40020134D01*
X58762088Y-40028697D01*
X58762084Y-40028703D01*
X58726206Y-40089334D01*
X58720312Y-40100007D01*
X58719678Y-40101239D01*
X58714243Y-40112655D01*
X58687338Y-40173965D01*
X58681370Y-40189180D01*
X58680769Y-40190912D01*
X58676077Y-40206369D01*
X58646108Y-40321143D01*
X58645346Y-40324163D01*
X58645220Y-40324674D01*
X58644245Y-40328862D01*
X58634859Y-40371114D01*
X58631485Y-40382836D01*
X58625670Y-40399176D01*
X58617629Y-40416352D01*
X58607037Y-40434275D01*
X58596623Y-40448743D01*
X58555598Y-40496081D01*
X58555596Y-40496083D01*
X58551098Y-40503664D01*
X58535966Y-40523142D01*
X58167001Y-40892107D01*
X58167000Y-40892106D01*
X58161218Y-40897887D01*
X58138824Y-40913903D01*
X58041871Y-41017233D01*
X58041841Y-41017265D01*
X58040735Y-41018372D01*
X58040735Y-41018373D01*
X58040212Y-41018897D01*
X57984196Y-41074913D01*
X57944634Y-41143436D01*
X57943373Y-41146481D01*
X57935968Y-41160888D01*
X57902985Y-41213889D01*
X57902693Y-41214356D01*
X57807400Y-41365600D01*
X57800932Y-41382108D01*
X57794494Y-41395485D01*
X57758266Y-41458235D01*
X57758265Y-41458237D01*
X57758265Y-41458238D01*
X57724157Y-41585532D01*
X51981602Y-41585532D01*
X51972907Y-41582438D01*
X51955733Y-41574400D01*
X51943081Y-41566924D01*
X51937802Y-41563804D01*
X51923328Y-41553385D01*
X51876000Y-41512366D01*
X51868418Y-41507867D01*
X51848938Y-41492734D01*
X51396153Y-41039949D01*
X51368376Y-40985432D01*
X51367157Y-40969945D01*
X51367157Y-39715532D01*
X53614157Y-39715532D01*
X53614157Y-39847316D01*
X53625305Y-39888920D01*
X53648266Y-39974614D01*
X53714153Y-40088733D01*
X53714155Y-40088735D01*
X53714157Y-40088738D01*
X53807343Y-40181924D01*
X53807345Y-40181925D01*
X53807347Y-40181927D01*
X53921467Y-40247814D01*
X53921465Y-40247814D01*
X53921469Y-40247815D01*
X53921471Y-40247816D01*
X54048765Y-40281924D01*
X54048767Y-40281924D01*
X54180547Y-40281924D01*
X54180549Y-40281924D01*
X54307843Y-40247816D01*
X54307845Y-40247814D01*
X54307847Y-40247814D01*
X54421966Y-40181927D01*
X54421966Y-40181926D01*
X54421971Y-40181924D01*
X54515157Y-40088738D01*
X54541373Y-40043331D01*
X54581047Y-39974614D01*
X54581047Y-39974612D01*
X54581049Y-39974610D01*
X54615157Y-39847316D01*
X54615157Y-39715532D01*
X54581128Y-39588532D01*
X67838157Y-39588532D01*
X67838157Y-39720316D01*
X67856540Y-39788924D01*
X67872266Y-39847614D01*
X67938153Y-39961733D01*
X67938155Y-39961735D01*
X67938157Y-39961738D01*
X68031343Y-40054924D01*
X68031345Y-40054925D01*
X68031347Y-40054927D01*
X68145467Y-40120814D01*
X68145465Y-40120814D01*
X68145469Y-40120815D01*
X68145471Y-40120816D01*
X68272765Y-40154924D01*
X68272767Y-40154924D01*
X68404547Y-40154924D01*
X68404549Y-40154924D01*
X68531843Y-40120816D01*
X68531845Y-40120814D01*
X68531847Y-40120814D01*
X68645966Y-40054927D01*
X68645966Y-40054926D01*
X68645971Y-40054924D01*
X68739157Y-39961738D01*
X68766208Y-39914884D01*
X68805047Y-39847614D01*
X68805047Y-39847612D01*
X68805049Y-39847610D01*
X68839157Y-39720316D01*
X68839157Y-39588532D01*
X68805049Y-39461238D01*
X68805047Y-39461235D01*
X68805047Y-39461233D01*
X68739160Y-39347114D01*
X68739158Y-39347112D01*
X68739157Y-39347110D01*
X68645971Y-39253924D01*
X68645968Y-39253922D01*
X68645966Y-39253920D01*
X68531846Y-39188033D01*
X68531848Y-39188033D01*
X68482456Y-39174799D01*
X68404549Y-39153924D01*
X68272765Y-39153924D01*
X68194857Y-39174799D01*
X68145466Y-39188033D01*
X68031347Y-39253920D01*
X67938153Y-39347114D01*
X67872266Y-39461233D01*
X67872265Y-39461238D01*
X67838157Y-39588532D01*
X54581128Y-39588532D01*
X54581049Y-39588238D01*
X54569961Y-39569033D01*
X54515160Y-39474114D01*
X54515158Y-39474112D01*
X54515157Y-39474110D01*
X54421971Y-39380924D01*
X54421968Y-39380922D01*
X54421966Y-39380920D01*
X54307846Y-39315033D01*
X54307848Y-39315033D01*
X54235108Y-39295543D01*
X54180549Y-39280924D01*
X54048765Y-39280924D01*
X53994206Y-39295543D01*
X53921466Y-39315033D01*
X53807347Y-39380920D01*
X53714153Y-39474114D01*
X53648266Y-39588233D01*
X53643059Y-39607666D01*
X53614157Y-39715532D01*
X51367157Y-39715532D01*
X51367157Y-39393307D01*
X51367670Y-39383246D01*
X51368431Y-39375793D01*
X51372453Y-39360228D01*
X51375468Y-39306905D01*
X51375696Y-39304680D01*
X51375990Y-39304012D01*
X51377060Y-39295554D01*
X51379191Y-39284777D01*
X51385990Y-39263447D01*
X51406546Y-39217666D01*
X51413806Y-39204341D01*
X51426946Y-39184099D01*
X51429192Y-39180560D01*
X51429261Y-39180448D01*
X51429457Y-39180134D01*
X51431638Y-39176534D01*
X51431644Y-39176523D01*
X51431673Y-39176476D01*
X51489242Y-39079207D01*
X51496788Y-39065256D01*
X51497585Y-39063636D01*
X51504038Y-39049129D01*
X51529681Y-38984913D01*
X51534121Y-38972685D01*
X51534581Y-38971281D01*
X51538225Y-38958847D01*
X51556725Y-38887453D01*
X51558027Y-38882137D01*
X51558169Y-38881522D01*
X51558263Y-38875922D01*
X51561622Y-38851971D01*
X51567157Y-38831316D01*
X51567157Y-38699532D01*
X51533049Y-38572238D01*
X51533047Y-38572235D01*
X51533047Y-38572233D01*
X51467160Y-38458114D01*
X51467158Y-38458112D01*
X51467157Y-38458110D01*
X51373971Y-38364924D01*
X51373968Y-38364922D01*
X51373966Y-38364920D01*
X51259846Y-38299033D01*
X51259848Y-38299033D01*
X51199032Y-38282738D01*
X51132549Y-38264924D01*
X51000765Y-38264924D01*
X50873471Y-38299032D01*
X50873470Y-38299032D01*
X50873468Y-38299033D01*
X50867477Y-38301515D01*
X50866933Y-38300203D01*
X50814217Y-38311404D01*
X50758324Y-38286513D01*
X50738837Y-38262446D01*
X50734477Y-38254895D01*
X50705157Y-38204110D01*
X50611971Y-38110924D01*
X50611968Y-38110922D01*
X50611966Y-38110920D01*
X50497846Y-38045033D01*
X50497848Y-38045033D01*
X50448456Y-38031799D01*
X50370549Y-38010924D01*
X50238765Y-38010924D01*
X50111471Y-38045032D01*
X50111470Y-38045032D01*
X50111468Y-38045033D01*
X50105477Y-38047515D01*
X50104933Y-38046203D01*
X50096732Y-38047946D01*
X50083157Y-38055784D01*
X50067558Y-38054144D01*
X50052217Y-38057404D01*
X50037896Y-38051026D01*
X50022307Y-38049388D01*
X50010651Y-38038893D01*
X49996324Y-38032513D01*
X49976840Y-38008451D01*
X49943157Y-37950110D01*
X49902579Y-37909532D01*
X58059157Y-37909532D01*
X58059157Y-38041316D01*
X58077807Y-38110920D01*
X58093266Y-38168614D01*
X58159153Y-38282733D01*
X58159155Y-38282735D01*
X58159157Y-38282738D01*
X58252343Y-38375924D01*
X58252345Y-38375925D01*
X58252347Y-38375927D01*
X58366467Y-38441814D01*
X58366465Y-38441814D01*
X58366469Y-38441815D01*
X58366471Y-38441816D01*
X58493765Y-38475924D01*
X58493767Y-38475924D01*
X58625547Y-38475924D01*
X58625549Y-38475924D01*
X58752843Y-38441816D01*
X58752845Y-38441814D01*
X58752847Y-38441814D01*
X58866966Y-38375927D01*
X58866966Y-38375926D01*
X58866971Y-38375924D01*
X58960157Y-38282738D01*
X58963656Y-38276677D01*
X73765157Y-38276677D01*
X73765157Y-40016170D01*
X73765158Y-40016182D01*
X73776789Y-40074651D01*
X73776791Y-40074657D01*
X73796743Y-40104517D01*
X73821105Y-40140976D01*
X73821108Y-40140978D01*
X73882391Y-40181927D01*
X73887426Y-40185291D01*
X73931888Y-40194135D01*
X73945898Y-40196922D01*
X73945903Y-40196922D01*
X73945909Y-40196924D01*
X73945910Y-40196924D01*
X75685404Y-40196924D01*
X75685405Y-40196924D01*
X75743888Y-40185291D01*
X75810209Y-40140976D01*
X75854524Y-40074655D01*
X75866157Y-40016172D01*
X75866157Y-38276676D01*
X75854524Y-38218193D01*
X75810209Y-38151872D01*
X75748927Y-38110924D01*
X75743890Y-38107558D01*
X75743888Y-38107557D01*
X75743885Y-38107556D01*
X75743884Y-38107556D01*
X75685415Y-38095925D01*
X75685405Y-38095924D01*
X73945909Y-38095924D01*
X73945908Y-38095924D01*
X73945898Y-38095925D01*
X73887429Y-38107556D01*
X73887423Y-38107558D01*
X73821108Y-38151869D01*
X73821102Y-38151875D01*
X73776791Y-38218190D01*
X73776789Y-38218196D01*
X73765158Y-38276665D01*
X73765157Y-38276677D01*
X58963656Y-38276677D01*
X59026049Y-38168610D01*
X59060157Y-38041316D01*
X59060157Y-37909532D01*
X59026049Y-37782238D01*
X59026047Y-37782235D01*
X59026047Y-37782233D01*
X58960160Y-37668114D01*
X58960158Y-37668112D01*
X58960157Y-37668110D01*
X58866971Y-37574924D01*
X58866968Y-37574922D01*
X58866966Y-37574920D01*
X58752846Y-37509033D01*
X58752848Y-37509033D01*
X58703456Y-37495799D01*
X58625549Y-37474924D01*
X58493765Y-37474924D01*
X58415857Y-37495799D01*
X58366466Y-37509033D01*
X58252347Y-37574920D01*
X58159153Y-37668114D01*
X58093266Y-37782233D01*
X58090908Y-37791033D01*
X58059157Y-37909532D01*
X49902579Y-37909532D01*
X49849971Y-37856924D01*
X49849968Y-37856922D01*
X49849966Y-37856920D01*
X49735846Y-37791033D01*
X49735848Y-37791033D01*
X49686456Y-37777799D01*
X49608549Y-37756924D01*
X49476765Y-37756924D01*
X49398857Y-37777799D01*
X49349466Y-37791033D01*
X49235347Y-37856920D01*
X49142153Y-37950114D01*
X49076266Y-38064233D01*
X49048298Y-38168614D01*
X49042157Y-38191532D01*
X48065157Y-38191532D01*
X48065157Y-37836861D01*
X48065156Y-37836859D01*
X48044678Y-37760435D01*
X48044676Y-37760431D01*
X48005117Y-37691913D01*
X47949168Y-37635963D01*
X47949168Y-37635964D01*
X45290664Y-34977460D01*
X45262887Y-34922943D01*
X45272458Y-34862511D01*
X45315723Y-34819246D01*
X45376155Y-34809675D01*
X45386276Y-34811826D01*
X45412765Y-34818924D01*
X45412766Y-34818924D01*
X45544547Y-34818924D01*
X45544549Y-34818924D01*
X45671843Y-34784816D01*
X45671845Y-34784814D01*
X45671847Y-34784814D01*
X45785966Y-34718927D01*
X45785966Y-34718926D01*
X45785971Y-34718924D01*
X45879157Y-34625738D01*
X45897525Y-34593924D01*
X45922289Y-34551032D01*
X59075157Y-34551032D01*
X59075157Y-34682816D01*
X59100372Y-34776920D01*
X59109266Y-34810114D01*
X59175153Y-34924233D01*
X59175155Y-34924235D01*
X59175157Y-34924238D01*
X59268343Y-35017424D01*
X59268345Y-35017425D01*
X59268347Y-35017427D01*
X59382467Y-35083314D01*
X59382465Y-35083314D01*
X59382469Y-35083315D01*
X59382471Y-35083316D01*
X59509765Y-35117424D01*
X59509767Y-35117424D01*
X59641547Y-35117424D01*
X59641549Y-35117424D01*
X59768843Y-35083316D01*
X59768845Y-35083314D01*
X59768847Y-35083314D01*
X59882966Y-35017427D01*
X59882966Y-35017426D01*
X59882971Y-35017424D01*
X59976157Y-34924238D01*
X59983156Y-34912116D01*
X60042047Y-34810114D01*
X60042047Y-34810112D01*
X60042049Y-34810110D01*
X60076157Y-34682816D01*
X60076157Y-34551032D01*
X60042049Y-34423738D01*
X60042047Y-34423735D01*
X60042047Y-34423733D01*
X59976160Y-34309614D01*
X59976158Y-34309612D01*
X59976157Y-34309610D01*
X59882971Y-34216424D01*
X59882968Y-34216422D01*
X59882966Y-34216420D01*
X59768846Y-34150533D01*
X59768848Y-34150533D01*
X59719456Y-34137299D01*
X59641549Y-34116424D01*
X59509765Y-34116424D01*
X59431857Y-34137299D01*
X59382466Y-34150533D01*
X59268347Y-34216420D01*
X59175153Y-34309614D01*
X59109266Y-34423733D01*
X59109265Y-34423738D01*
X59075157Y-34551032D01*
X45922289Y-34551032D01*
X45945047Y-34511614D01*
X45945047Y-34511612D01*
X45945049Y-34511610D01*
X45979157Y-34384316D01*
X45979157Y-34252532D01*
X45945049Y-34125238D01*
X45945047Y-34125235D01*
X45945047Y-34125233D01*
X45879160Y-34011114D01*
X45879158Y-34011112D01*
X45879157Y-34011110D01*
X45785971Y-33917924D01*
X45785968Y-33917922D01*
X45785966Y-33917920D01*
X45671846Y-33852033D01*
X45671848Y-33852033D01*
X45622456Y-33838799D01*
X45544549Y-33817924D01*
X45412765Y-33817924D01*
X45334857Y-33838799D01*
X45285466Y-33852033D01*
X45171347Y-33917920D01*
X45078153Y-34011114D01*
X45012266Y-34125233D01*
X45005487Y-34150533D01*
X44978157Y-34252532D01*
X44978157Y-34384316D01*
X44985250Y-34410791D01*
X44982049Y-34471890D01*
X44943543Y-34519440D01*
X44884443Y-34535276D01*
X44827321Y-34513350D01*
X44819620Y-34506416D01*
X44172385Y-33859181D01*
X43518168Y-33204964D01*
X43518165Y-33204962D01*
X43449649Y-33165404D01*
X43449645Y-33165402D01*
X43373221Y-33144924D01*
X43373219Y-33144924D01*
X39837095Y-33144924D01*
X39837092Y-33144924D01*
X39760668Y-33165402D01*
X39760664Y-33165404D01*
X39692146Y-33204963D01*
X39106148Y-33790959D01*
X39098670Y-33797712D01*
X39092857Y-33802446D01*
X39079014Y-33810605D01*
X39039196Y-33846158D01*
X39037443Y-33847587D01*
X39036760Y-33847851D01*
X39030012Y-33853083D01*
X39020908Y-33859181D01*
X39001002Y-33869463D01*
X38954106Y-33887296D01*
X38939532Y-33891590D01*
X38915913Y-33896618D01*
X38915867Y-33896628D01*
X38915845Y-33896633D01*
X38911577Y-33897590D01*
X38911319Y-33897651D01*
X38911078Y-33897708D01*
X38911044Y-33897716D01*
X38911016Y-33897723D01*
X38907236Y-33898652D01*
X38797721Y-33926731D01*
X38782522Y-33931260D01*
X38780790Y-33931850D01*
X38765991Y-33937537D01*
X38702428Y-33964823D01*
X38690720Y-33970293D01*
X38689398Y-33970962D01*
X38678009Y-33977187D01*
X38638842Y-34000233D01*
X38620357Y-34011110D01*
X38614342Y-34014649D01*
X38609387Y-34017659D01*
X38608901Y-34017964D01*
X38608888Y-34017974D01*
X38604970Y-34021768D01*
X38585618Y-34036371D01*
X38567341Y-34046924D01*
X38474157Y-34140109D01*
X38474153Y-34140114D01*
X38408266Y-34254233D01*
X38408265Y-34254238D01*
X38374157Y-34381532D01*
X38374157Y-34513316D01*
X38396262Y-34595813D01*
X38408266Y-34640614D01*
X38474153Y-34754733D01*
X38474155Y-34754735D01*
X38474157Y-34754738D01*
X38567343Y-34847924D01*
X38567345Y-34847925D01*
X38567347Y-34847927D01*
X38681467Y-34913814D01*
X38681465Y-34913814D01*
X38681469Y-34913815D01*
X38681471Y-34913816D01*
X38808765Y-34947924D01*
X38808767Y-34947924D01*
X38940547Y-34947924D01*
X38940549Y-34947924D01*
X39067843Y-34913816D01*
X39067845Y-34913814D01*
X39067847Y-34913814D01*
X39181966Y-34847927D01*
X39181966Y-34847926D01*
X39181971Y-34847924D01*
X39275157Y-34754738D01*
X39287554Y-34733264D01*
X39299272Y-34717023D01*
X39299340Y-34716945D01*
X39307227Y-34708145D01*
X39307363Y-34707913D01*
X39310629Y-34704238D01*
X39333155Y-34691029D01*
X39354327Y-34675742D01*
X39359203Y-34675756D01*
X39363410Y-34673290D01*
X39389396Y-34675844D01*
X39415512Y-34675921D01*
X39419448Y-34678798D01*
X39424302Y-34679276D01*
X39443824Y-34696618D01*
X39464907Y-34712030D01*
X39469957Y-34719832D01*
X39470046Y-34719911D01*
X39470065Y-34719998D01*
X39470380Y-34720485D01*
X39486223Y-34747924D01*
X39490157Y-34754738D01*
X39583343Y-34847924D01*
X39583345Y-34847925D01*
X39583347Y-34847927D01*
X39697467Y-34913814D01*
X39697465Y-34913814D01*
X39697469Y-34913815D01*
X39697471Y-34913816D01*
X39824765Y-34947924D01*
X39824767Y-34947924D01*
X39956547Y-34947924D01*
X39956549Y-34947924D01*
X40083843Y-34913816D01*
X40083845Y-34913814D01*
X40083847Y-34913814D01*
X40197966Y-34847927D01*
X40197966Y-34847926D01*
X40197971Y-34847924D01*
X40291157Y-34754738D01*
X40303554Y-34733264D01*
X40315272Y-34717023D01*
X40315340Y-34716945D01*
X40323227Y-34708145D01*
X40323363Y-34707913D01*
X40326629Y-34704238D01*
X40349155Y-34691029D01*
X40370327Y-34675742D01*
X40375203Y-34675756D01*
X40379410Y-34673290D01*
X40405396Y-34675844D01*
X40431512Y-34675921D01*
X40435448Y-34678798D01*
X40440302Y-34679276D01*
X40459824Y-34696618D01*
X40480907Y-34712030D01*
X40485957Y-34719832D01*
X40486046Y-34719911D01*
X40486065Y-34719998D01*
X40486380Y-34720485D01*
X40502223Y-34747924D01*
X40506157Y-34754738D01*
X40599343Y-34847924D01*
X40599345Y-34847925D01*
X40599347Y-34847927D01*
X40713467Y-34913814D01*
X40713465Y-34913814D01*
X40713469Y-34913815D01*
X40713471Y-34913816D01*
X40840765Y-34947924D01*
X40840767Y-34947924D01*
X40972547Y-34947924D01*
X40972549Y-34947924D01*
X40996493Y-34941508D01*
X41016697Y-34938284D01*
X41028171Y-34937656D01*
X41096428Y-34920149D01*
X41108390Y-34916691D01*
X41109734Y-34916258D01*
X41121388Y-34912113D01*
X41183733Y-34887797D01*
X41198555Y-34881333D01*
X41200219Y-34880528D01*
X41214610Y-34872847D01*
X41316961Y-34812880D01*
X41320486Y-34810767D01*
X41320853Y-34810542D01*
X41323787Y-34808709D01*
X41360263Y-34785491D01*
X41370914Y-34779600D01*
X41386615Y-34772141D01*
X41404417Y-34765692D01*
X41424599Y-34760503D01*
X41442178Y-34757640D01*
X41504664Y-34753178D01*
X41513213Y-34750996D01*
X41537686Y-34747924D01*
X42519178Y-34747924D01*
X42577369Y-34766831D01*
X42589182Y-34776920D01*
X44384182Y-36571920D01*
X44411959Y-36626437D01*
X44402388Y-36686869D01*
X44359123Y-36730134D01*
X44314178Y-36740924D01*
X44269765Y-36740924D01*
X44191857Y-36761799D01*
X44142466Y-36775033D01*
X44028347Y-36840920D01*
X43935153Y-36934114D01*
X43869266Y-37048233D01*
X43869265Y-37048238D01*
X43835157Y-37175532D01*
X43835157Y-37307316D01*
X43865236Y-37419575D01*
X43869266Y-37434614D01*
X43935153Y-37548733D01*
X43935155Y-37548735D01*
X43935157Y-37548738D01*
X44028343Y-37641924D01*
X44028345Y-37641925D01*
X44028347Y-37641927D01*
X44142467Y-37707814D01*
X44142468Y-37707814D01*
X44142471Y-37707816D01*
X44177856Y-37717297D01*
X44229171Y-37750621D01*
X44251097Y-37807743D01*
X44235261Y-37866843D01*
X44187711Y-37905349D01*
X44177861Y-37908549D01*
X44161498Y-37912933D01*
X44142466Y-37918033D01*
X44028347Y-37983920D01*
X43935153Y-38077114D01*
X43869266Y-38191233D01*
X43860939Y-38222312D01*
X43835157Y-38318532D01*
X43835157Y-38450316D01*
X43861685Y-38549321D01*
X43869266Y-38577614D01*
X43935153Y-38691733D01*
X43935155Y-38691735D01*
X43935157Y-38691738D01*
X44028343Y-38784924D01*
X44028345Y-38784925D01*
X44033996Y-38788188D01*
X44074936Y-38833658D01*
X44081331Y-38894508D01*
X44050738Y-38947496D01*
X43994843Y-38972382D01*
X43984495Y-38972924D01*
X41004236Y-38972924D01*
X40946045Y-38954017D01*
X40934232Y-38943928D01*
X37500239Y-35509935D01*
X37472462Y-35455418D01*
X37482033Y-35394986D01*
X37487193Y-35386046D01*
X37494949Y-35374099D01*
X37497195Y-35370560D01*
X37497264Y-35370448D01*
X37497460Y-35370134D01*
X37499641Y-35366534D01*
X37499647Y-35366523D01*
X37499676Y-35366476D01*
X37557245Y-35269207D01*
X37564791Y-35255256D01*
X37565588Y-35253636D01*
X37572041Y-35239129D01*
X37597684Y-35174913D01*
X37602124Y-35162685D01*
X37602584Y-35161281D01*
X37606228Y-35148847D01*
X37624728Y-35077453D01*
X37626030Y-35072137D01*
X37626172Y-35071522D01*
X37626266Y-35065922D01*
X37629625Y-35041971D01*
X37635160Y-35021316D01*
X37635160Y-34889532D01*
X37601052Y-34762238D01*
X37601050Y-34762235D01*
X37601050Y-34762233D01*
X37535163Y-34648114D01*
X37535161Y-34648112D01*
X37535160Y-34648110D01*
X37441974Y-34554924D01*
X37441971Y-34554922D01*
X37441969Y-34554920D01*
X37327849Y-34489033D01*
X37327851Y-34489033D01*
X37278459Y-34475799D01*
X37200552Y-34454924D01*
X37068768Y-34454924D01*
X36990860Y-34475799D01*
X36941469Y-34489033D01*
X36827346Y-34554923D01*
X36804660Y-34577609D01*
X36750143Y-34605385D01*
X36689711Y-34595813D01*
X36664657Y-34577610D01*
X36641971Y-34554924D01*
X36641968Y-34554922D01*
X36641966Y-34554920D01*
X36527846Y-34489033D01*
X36527848Y-34489033D01*
X36478456Y-34475799D01*
X36400549Y-34454924D01*
X36268765Y-34454924D01*
X36190857Y-34475799D01*
X36141466Y-34489033D01*
X36027347Y-34554920D01*
X35934153Y-34648114D01*
X35868266Y-34762233D01*
X35855322Y-34810542D01*
X35834157Y-34889532D01*
X29476657Y-34889532D01*
X29476657Y-34127532D01*
X31008157Y-34127532D01*
X31008157Y-34259316D01*
X31021633Y-34309610D01*
X31042266Y-34386614D01*
X31108153Y-34500733D01*
X31108155Y-34500735D01*
X31108157Y-34500738D01*
X31201343Y-34593924D01*
X31201345Y-34593925D01*
X31201347Y-34593927D01*
X31315467Y-34659814D01*
X31315465Y-34659814D01*
X31315469Y-34659815D01*
X31315471Y-34659816D01*
X31442765Y-34693924D01*
X31442767Y-34693924D01*
X31574547Y-34693924D01*
X31574549Y-34693924D01*
X31701843Y-34659816D01*
X31701845Y-34659814D01*
X31701847Y-34659814D01*
X31815966Y-34593927D01*
X31815966Y-34593926D01*
X31815971Y-34593924D01*
X31909157Y-34500738D01*
X31915915Y-34489033D01*
X31975047Y-34386614D01*
X31975047Y-34386612D01*
X31975049Y-34386610D01*
X32009157Y-34259316D01*
X32009157Y-34127532D01*
X31975049Y-34000238D01*
X31975047Y-34000235D01*
X31975047Y-34000233D01*
X31909160Y-33886114D01*
X31909158Y-33886112D01*
X31909157Y-33886110D01*
X31815971Y-33792924D01*
X31815968Y-33792922D01*
X31815966Y-33792920D01*
X31701846Y-33727033D01*
X31701848Y-33727033D01*
X31652456Y-33713799D01*
X31574549Y-33692924D01*
X31442765Y-33692924D01*
X31364857Y-33713799D01*
X31315466Y-33727033D01*
X31201347Y-33792920D01*
X31108153Y-33886114D01*
X31042266Y-34000233D01*
X31036496Y-34021768D01*
X31008157Y-34127532D01*
X29476657Y-34127532D01*
X29476657Y-34094822D01*
X29476657Y-34094821D01*
X29476656Y-34094821D01*
X24523658Y-34094821D01*
X24523657Y-34094821D01*
X24523657Y-38285821D01*
X15166934Y-38285821D01*
X15166308Y-34381532D01*
X22880157Y-34381532D01*
X22880157Y-34513316D01*
X22902262Y-34595813D01*
X22914266Y-34640614D01*
X22980153Y-34754733D01*
X22980155Y-34754735D01*
X22980157Y-34754738D01*
X23073343Y-34847924D01*
X23073345Y-34847925D01*
X23073347Y-34847927D01*
X23187467Y-34913814D01*
X23187465Y-34913814D01*
X23187469Y-34913815D01*
X23187471Y-34913816D01*
X23314765Y-34947924D01*
X23314767Y-34947924D01*
X23446547Y-34947924D01*
X23446549Y-34947924D01*
X23573843Y-34913816D01*
X23573845Y-34913814D01*
X23573847Y-34913814D01*
X23687966Y-34847927D01*
X23687966Y-34847926D01*
X23687971Y-34847924D01*
X23781157Y-34754738D01*
X23801214Y-34719998D01*
X23847047Y-34640614D01*
X23847047Y-34640612D01*
X23847049Y-34640610D01*
X23881157Y-34513316D01*
X23881157Y-34381532D01*
X23847049Y-34254238D01*
X23847047Y-34254235D01*
X23847047Y-34254233D01*
X23781160Y-34140114D01*
X23781158Y-34140112D01*
X23781157Y-34140110D01*
X23687971Y-34046924D01*
X23687968Y-34046922D01*
X23687966Y-34046920D01*
X23573846Y-33981033D01*
X23573848Y-33981033D01*
X23524456Y-33967799D01*
X23446549Y-33946924D01*
X23314765Y-33946924D01*
X23236857Y-33967799D01*
X23187466Y-33981033D01*
X23073347Y-34046920D01*
X22980153Y-34140114D01*
X22914266Y-34254233D01*
X22914265Y-34254238D01*
X22880157Y-34381532D01*
X15166308Y-34381532D01*
X15166307Y-34375059D01*
X15166218Y-33817924D01*
X15165983Y-32349532D01*
X42130157Y-32349532D01*
X42130157Y-32481316D01*
X42160236Y-32593575D01*
X42164266Y-32608614D01*
X42230153Y-32722733D01*
X42230155Y-32722735D01*
X42230157Y-32722738D01*
X42323343Y-32815924D01*
X42323345Y-32815925D01*
X42323347Y-32815927D01*
X42437467Y-32881814D01*
X42437465Y-32881814D01*
X42437469Y-32881815D01*
X42437471Y-32881816D01*
X42564765Y-32915924D01*
X42564767Y-32915924D01*
X42696547Y-32915924D01*
X42696549Y-32915924D01*
X42823843Y-32881816D01*
X42823845Y-32881814D01*
X42823847Y-32881814D01*
X42937966Y-32815927D01*
X42937966Y-32815926D01*
X42937971Y-32815924D01*
X43031157Y-32722738D01*
X43097049Y-32608610D01*
X43131157Y-32481316D01*
X43131157Y-32349532D01*
X43097049Y-32222238D01*
X43097047Y-32222235D01*
X43097047Y-32222233D01*
X43031160Y-32108114D01*
X43031158Y-32108112D01*
X43031157Y-32108110D01*
X42937971Y-32014924D01*
X42937968Y-32014922D01*
X42937966Y-32014920D01*
X42823846Y-31949033D01*
X42823848Y-31949033D01*
X42774456Y-31935799D01*
X42696549Y-31914924D01*
X42564765Y-31914924D01*
X42486857Y-31935799D01*
X42437466Y-31949033D01*
X42323347Y-32014920D01*
X42230153Y-32108114D01*
X42164266Y-32222233D01*
X42164265Y-32222238D01*
X42130157Y-32349532D01*
X15165983Y-32349532D01*
X15165800Y-31206532D01*
X53360157Y-31206532D01*
X53360157Y-31338316D01*
X53390236Y-31450575D01*
X53394266Y-31465614D01*
X53460153Y-31579733D01*
X53460155Y-31579735D01*
X53460157Y-31579738D01*
X53553343Y-31672924D01*
X53553345Y-31672925D01*
X53553347Y-31672927D01*
X53667467Y-31738814D01*
X53667465Y-31738814D01*
X53667469Y-31738815D01*
X53667471Y-31738816D01*
X53794765Y-31772924D01*
X53794767Y-31772924D01*
X53926547Y-31772924D01*
X53926549Y-31772924D01*
X54053843Y-31738816D01*
X54053845Y-31738814D01*
X54053847Y-31738814D01*
X54167966Y-31672927D01*
X54167966Y-31672926D01*
X54167971Y-31672924D01*
X54261157Y-31579738D01*
X54327049Y-31465610D01*
X54361157Y-31338316D01*
X54361157Y-31206532D01*
X54327049Y-31079238D01*
X54327047Y-31079235D01*
X54327047Y-31079233D01*
X54261160Y-30965114D01*
X54261158Y-30965112D01*
X54261157Y-30965110D01*
X54167971Y-30871924D01*
X54167968Y-30871922D01*
X54167966Y-30871920D01*
X54053846Y-30806033D01*
X54053848Y-30806033D01*
X54004456Y-30792799D01*
X53926549Y-30771924D01*
X53794765Y-30771924D01*
X53716857Y-30792799D01*
X53667466Y-30806033D01*
X53553347Y-30871920D01*
X53460153Y-30965114D01*
X53394266Y-31079233D01*
X53394265Y-31079238D01*
X53360157Y-31206532D01*
X15165800Y-31206532D01*
X15165576Y-29809532D01*
X51074157Y-29809532D01*
X51074157Y-29941316D01*
X51083168Y-29974944D01*
X51108266Y-30068614D01*
X51174153Y-30182733D01*
X51174155Y-30182735D01*
X51174157Y-30182738D01*
X51267343Y-30275924D01*
X51267345Y-30275925D01*
X51267347Y-30275927D01*
X51381467Y-30341814D01*
X51381465Y-30341814D01*
X51381469Y-30341815D01*
X51381471Y-30341816D01*
X51508765Y-30375924D01*
X51508767Y-30375924D01*
X51640547Y-30375924D01*
X51640549Y-30375924D01*
X51767843Y-30341816D01*
X51767845Y-30341814D01*
X51767847Y-30341814D01*
X51881966Y-30275927D01*
X51881966Y-30275926D01*
X51881971Y-30275924D01*
X51975157Y-30182738D01*
X52041049Y-30068610D01*
X52075157Y-29941316D01*
X52075157Y-29809532D01*
X52041049Y-29682238D01*
X52041047Y-29682235D01*
X52041047Y-29682233D01*
X51975160Y-29568114D01*
X51975158Y-29568112D01*
X51975157Y-29568110D01*
X51881971Y-29474924D01*
X51881968Y-29474922D01*
X51881966Y-29474920D01*
X51767846Y-29409033D01*
X51767848Y-29409033D01*
X51714233Y-29394667D01*
X51650179Y-29377504D01*
X51644891Y-29376087D01*
X51640549Y-29374924D01*
X51508765Y-29374924D01*
X51430857Y-29395799D01*
X51381466Y-29409033D01*
X51267347Y-29474920D01*
X51174153Y-29568114D01*
X51108266Y-29682233D01*
X51108265Y-29682238D01*
X51074157Y-29809532D01*
X15165576Y-29809532D01*
X15165492Y-29288367D01*
X64944157Y-29288367D01*
X64944157Y-29573481D01*
X64985080Y-29726208D01*
X65064137Y-29863140D01*
X65175941Y-29974944D01*
X65312873Y-30054001D01*
X65465600Y-30094924D01*
X65465602Y-30094924D01*
X65623712Y-30094924D01*
X65623714Y-30094924D01*
X65776441Y-30054001D01*
X65913373Y-29974944D01*
X66025177Y-29863140D01*
X66104234Y-29726208D01*
X66145157Y-29573481D01*
X66145157Y-29288367D01*
X66104234Y-29135640D01*
X66025177Y-28998708D01*
X65913373Y-28886904D01*
X65776441Y-28807847D01*
X65623714Y-28766924D01*
X65465600Y-28766924D01*
X65312873Y-28807847D01*
X65175941Y-28886904D01*
X65064137Y-28998708D01*
X64985080Y-29135640D01*
X64944157Y-29288367D01*
X15165492Y-29288367D01*
X15165291Y-28031532D01*
X54249157Y-28031532D01*
X54249157Y-28163316D01*
X54279236Y-28275575D01*
X54283266Y-28290614D01*
X54349153Y-28404733D01*
X54349155Y-28404735D01*
X54349157Y-28404738D01*
X54442343Y-28497924D01*
X54442345Y-28497925D01*
X54442347Y-28497927D01*
X54556467Y-28563814D01*
X54556465Y-28563814D01*
X54556469Y-28563815D01*
X54556471Y-28563816D01*
X54683765Y-28597924D01*
X54683767Y-28597924D01*
X54815547Y-28597924D01*
X54815549Y-28597924D01*
X54942843Y-28563816D01*
X54942845Y-28563814D01*
X54942847Y-28563814D01*
X55056966Y-28497927D01*
X55056966Y-28497926D01*
X55056971Y-28497924D01*
X55150157Y-28404738D01*
X55216049Y-28290610D01*
X55250157Y-28163316D01*
X55250157Y-28031532D01*
X55216049Y-27904238D01*
X55216047Y-27904235D01*
X55216047Y-27904233D01*
X55150160Y-27790114D01*
X55150158Y-27790112D01*
X55150157Y-27790110D01*
X55056971Y-27696924D01*
X55056968Y-27696922D01*
X55056966Y-27696920D01*
X54942846Y-27631033D01*
X54942848Y-27631033D01*
X54893456Y-27617799D01*
X54815549Y-27596924D01*
X54683765Y-27596924D01*
X54605857Y-27617799D01*
X54556466Y-27631033D01*
X54442347Y-27696920D01*
X54349153Y-27790114D01*
X54283266Y-27904233D01*
X54283265Y-27904238D01*
X54249157Y-28031532D01*
X15165291Y-28031532D01*
X15164715Y-24435133D01*
X15934157Y-24435133D01*
X15934157Y-24647714D01*
X15967409Y-24857662D01*
X16033100Y-25059836D01*
X16129605Y-25249239D01*
X16129607Y-25249243D01*
X16254548Y-25421210D01*
X16254550Y-25421212D01*
X16254553Y-25421216D01*
X16404865Y-25571528D01*
X16404868Y-25571530D01*
X16404870Y-25571532D01*
X16576837Y-25696473D01*
X16576841Y-25696475D01*
X16766245Y-25792981D01*
X16968414Y-25858670D01*
X16968415Y-25858670D01*
X16968418Y-25858671D01*
X17178367Y-25891924D01*
X17178370Y-25891924D01*
X17390947Y-25891924D01*
X17600895Y-25858671D01*
X17600896Y-25858670D01*
X17600900Y-25858670D01*
X17803069Y-25792981D01*
X17992473Y-25696475D01*
X18164449Y-25571528D01*
X18314761Y-25421216D01*
X18398059Y-25306565D01*
X18439706Y-25249243D01*
X18439708Y-25249240D01*
X18536214Y-25059836D01*
X18601903Y-24857667D01*
X18619931Y-24743844D01*
X18635157Y-24647714D01*
X18635157Y-24435133D01*
X18601904Y-24225185D01*
X18548131Y-24059688D01*
X18548131Y-24059684D01*
X18539771Y-24033956D01*
X58231157Y-24033956D01*
X58231157Y-24540891D01*
X58271526Y-24743842D01*
X58350715Y-24935021D01*
X58465677Y-25107075D01*
X58465680Y-25107079D01*
X58612002Y-25253401D01*
X58784059Y-25368365D01*
X58975237Y-25447554D01*
X59178192Y-25487924D01*
X59178193Y-25487924D01*
X59385121Y-25487924D01*
X59385122Y-25487924D01*
X59588077Y-25447554D01*
X59779255Y-25368365D01*
X59951312Y-25253401D01*
X60097634Y-25107079D01*
X60212598Y-24935022D01*
X60291787Y-24743844D01*
X60332157Y-24540889D01*
X60332157Y-24033959D01*
X60332156Y-24033956D01*
X60330664Y-24026456D01*
X67903157Y-24026456D01*
X67903157Y-24533391D01*
X67943526Y-24736342D01*
X68022715Y-24927521D01*
X68137677Y-25099575D01*
X68137680Y-25099579D01*
X68284002Y-25245901D01*
X68456059Y-25360865D01*
X68647237Y-25440054D01*
X68850192Y-25480424D01*
X68850193Y-25480424D01*
X69057121Y-25480424D01*
X69057122Y-25480424D01*
X69260077Y-25440054D01*
X69451255Y-25360865D01*
X69623312Y-25245901D01*
X69769634Y-25099579D01*
X69884598Y-24927522D01*
X69963787Y-24736344D01*
X70004157Y-24533389D01*
X70004157Y-24435133D01*
X75243157Y-24435133D01*
X75243157Y-24647714D01*
X75276409Y-24857662D01*
X75342100Y-25059836D01*
X75438605Y-25249239D01*
X75438607Y-25249243D01*
X75563548Y-25421210D01*
X75563550Y-25421212D01*
X75563553Y-25421216D01*
X75713865Y-25571528D01*
X75713868Y-25571530D01*
X75713870Y-25571532D01*
X75885837Y-25696473D01*
X75885841Y-25696475D01*
X76075245Y-25792981D01*
X76277414Y-25858670D01*
X76277415Y-25858670D01*
X76277418Y-25858671D01*
X76487367Y-25891924D01*
X76487370Y-25891924D01*
X76699947Y-25891924D01*
X76909895Y-25858671D01*
X76909896Y-25858670D01*
X76909900Y-25858670D01*
X77112069Y-25792981D01*
X77301473Y-25696475D01*
X77473449Y-25571528D01*
X77623761Y-25421216D01*
X77707059Y-25306565D01*
X77748706Y-25249243D01*
X77748708Y-25249240D01*
X77845214Y-25059836D01*
X77910903Y-24857667D01*
X77928931Y-24743844D01*
X77944157Y-24647714D01*
X77944157Y-24435133D01*
X77910904Y-24225185D01*
X77910903Y-24225181D01*
X77845214Y-24023012D01*
X77748708Y-23833608D01*
X77748706Y-23833604D01*
X77623765Y-23661637D01*
X77623763Y-23661635D01*
X77623761Y-23661632D01*
X77473449Y-23511320D01*
X77473445Y-23511317D01*
X77473443Y-23511315D01*
X77301476Y-23386374D01*
X77301472Y-23386372D01*
X77112069Y-23289867D01*
X76909895Y-23224176D01*
X76699947Y-23190924D01*
X76699944Y-23190924D01*
X76487370Y-23190924D01*
X76487367Y-23190924D01*
X76277418Y-23224176D01*
X76075244Y-23289867D01*
X75885841Y-23386372D01*
X75885837Y-23386374D01*
X75713870Y-23511315D01*
X75563548Y-23661637D01*
X75438607Y-23833604D01*
X75438605Y-23833608D01*
X75342100Y-24023011D01*
X75276409Y-24225185D01*
X75243157Y-24435133D01*
X70004157Y-24435133D01*
X70004157Y-24026459D01*
X69963787Y-23823504D01*
X69884598Y-23632326D01*
X69769634Y-23460269D01*
X69623312Y-23313947D01*
X69623308Y-23313944D01*
X69451254Y-23198982D01*
X69260075Y-23119793D01*
X69057124Y-23079424D01*
X69057122Y-23079424D01*
X68850192Y-23079424D01*
X68850189Y-23079424D01*
X68647238Y-23119793D01*
X68456059Y-23198982D01*
X68284005Y-23313944D01*
X68137677Y-23460272D01*
X68022715Y-23632326D01*
X67943526Y-23823505D01*
X67903157Y-24026456D01*
X60330664Y-24026456D01*
X60291787Y-23831005D01*
X60288680Y-23823505D01*
X60212598Y-23639826D01*
X60097634Y-23467769D01*
X59951312Y-23321447D01*
X59951308Y-23321444D01*
X59779254Y-23206482D01*
X59588075Y-23127293D01*
X59385124Y-23086924D01*
X59385122Y-23086924D01*
X59178192Y-23086924D01*
X59178189Y-23086924D01*
X58975238Y-23127293D01*
X58784059Y-23206482D01*
X58612005Y-23321444D01*
X58465677Y-23467772D01*
X58350715Y-23639826D01*
X58271526Y-23831005D01*
X58231157Y-24033956D01*
X18539771Y-24033956D01*
X18536217Y-24023018D01*
X18536215Y-24023015D01*
X18536214Y-24023014D01*
X18536214Y-24023012D01*
X18439708Y-23833608D01*
X18439706Y-23833604D01*
X18314765Y-23661637D01*
X18314763Y-23661635D01*
X18314761Y-23661632D01*
X18164449Y-23511320D01*
X18164445Y-23511317D01*
X18164443Y-23511315D01*
X17992476Y-23386374D01*
X17992472Y-23386372D01*
X17803069Y-23289867D01*
X17600895Y-23224176D01*
X17390947Y-23190924D01*
X17390944Y-23190924D01*
X17178370Y-23190924D01*
X17178367Y-23190924D01*
X16968418Y-23224176D01*
X16766244Y-23289867D01*
X16576841Y-23386372D01*
X16576837Y-23386374D01*
X16404870Y-23511315D01*
X16254548Y-23661637D01*
X16129607Y-23833604D01*
X16129605Y-23833608D01*
X16033100Y-24023011D01*
X15967409Y-24225185D01*
X15934157Y-24435133D01*
X15164715Y-24435133D01*
X15164345Y-22128836D01*
X15183243Y-22070643D01*
X15232737Y-22034671D01*
X15263345Y-22029821D01*
X43810901Y-22029821D01*
X43869092Y-22048728D01*
G37*
G04 #@! TD.AperFunction*
G04 #@! TA.AperFunction,Conductor*
G36*
X35205970Y-47876242D02*
G01*
X35206458Y-47876548D01*
X35397867Y-48003541D01*
X35444391Y-48034408D01*
X35447672Y-48037689D01*
X35605501Y-48275575D01*
X35607220Y-48284363D01*
X35602220Y-48291792D01*
X35601685Y-48292127D01*
X35538116Y-48329530D01*
X35536798Y-48330197D01*
X35473262Y-48357471D01*
X35471553Y-48358053D01*
X35362081Y-48386121D01*
X35361611Y-48386232D01*
X35331360Y-48392670D01*
X35315077Y-48396136D01*
X35315074Y-48396136D01*
X35315074Y-48396137D01*
X35213850Y-48434629D01*
X35158362Y-48471798D01*
X35104427Y-48519957D01*
X35095973Y-48522911D01*
X35088361Y-48519503D01*
X34962462Y-48393604D01*
X34959035Y-48385331D01*
X34961892Y-48377670D01*
X35020951Y-48309526D01*
X35060454Y-48242678D01*
X35082393Y-48181027D01*
X35095861Y-48120398D01*
X35095943Y-48120062D01*
X35125914Y-48005278D01*
X35126514Y-48003549D01*
X35153418Y-47942243D01*
X35154062Y-47940991D01*
X35189944Y-47880352D01*
X35197105Y-47874978D01*
X35205970Y-47876242D01*
G37*
G04 #@! TD.AperFunction*
G04 #@! TA.AperFunction,Conductor*
G36*
X30462599Y-64136184D02*
G01*
X30466020Y-64144082D01*
X30470839Y-64294475D01*
X30470839Y-64294476D01*
X30486163Y-64429195D01*
X30511291Y-64542050D01*
X30511294Y-64542060D01*
X30545899Y-64638225D01*
X30589642Y-64722827D01*
X30589645Y-64722831D01*
X30642191Y-64801009D01*
X30642192Y-64801011D01*
X30772358Y-64958675D01*
X30884464Y-65090802D01*
X30884941Y-65091403D01*
X31065093Y-65334328D01*
X31067268Y-65343014D01*
X31062664Y-65350695D01*
X31062205Y-65351019D01*
X30372167Y-65813064D01*
X30363386Y-65814819D01*
X30359147Y-65813064D01*
X29669042Y-65350974D01*
X29664075Y-65343523D01*
X29665830Y-65334742D01*
X29666086Y-65334376D01*
X29819685Y-65124407D01*
X29820143Y-65123825D01*
X29958945Y-64958687D01*
X29996615Y-64915055D01*
X30120428Y-64756490D01*
X30196933Y-64610411D01*
X30225116Y-64523640D01*
X30246072Y-64423519D01*
X30260709Y-64291078D01*
X30265303Y-64144092D01*
X30268986Y-64135929D01*
X30276997Y-64132757D01*
X30454326Y-64132757D01*
X30462599Y-64136184D01*
G37*
G04 #@! TD.AperFunction*
G04 #@! TA.AperFunction,Conductor*
G36*
X40793970Y-54734242D02*
G01*
X40794458Y-54734548D01*
X40985867Y-54861541D01*
X41032391Y-54892408D01*
X41035672Y-54895689D01*
X41193501Y-55133575D01*
X41195220Y-55142363D01*
X41190220Y-55149792D01*
X41189685Y-55150127D01*
X41126116Y-55187530D01*
X41124798Y-55188197D01*
X41061262Y-55215471D01*
X41059553Y-55216053D01*
X40950081Y-55244121D01*
X40949611Y-55244232D01*
X40919360Y-55250670D01*
X40903077Y-55254136D01*
X40903074Y-55254136D01*
X40903074Y-55254137D01*
X40801850Y-55292629D01*
X40746362Y-55329798D01*
X40692427Y-55377957D01*
X40683973Y-55380911D01*
X40676361Y-55377503D01*
X40550462Y-55251604D01*
X40547035Y-55243331D01*
X40549892Y-55235670D01*
X40608951Y-55167526D01*
X40648454Y-55100678D01*
X40670393Y-55039027D01*
X40683861Y-54978398D01*
X40683943Y-54978062D01*
X40713914Y-54863278D01*
X40714514Y-54861549D01*
X40741418Y-54800243D01*
X40742062Y-54798991D01*
X40777944Y-54738352D01*
X40785105Y-54732978D01*
X40793970Y-54734242D01*
G37*
G04 #@! TD.AperFunction*
G04 #@! TA.AperFunction,Conductor*
G36*
X39866952Y-55935344D02*
G01*
X39992851Y-56061243D01*
X39996278Y-56069516D01*
X39993420Y-56077179D01*
X39934360Y-56145323D01*
X39894857Y-56212172D01*
X39872922Y-56273814D01*
X39859460Y-56334411D01*
X39859358Y-56334830D01*
X39829401Y-56449560D01*
X39828795Y-56451306D01*
X39801896Y-56512600D01*
X39801251Y-56513856D01*
X39765370Y-56574494D01*
X39758208Y-56579869D01*
X39749343Y-56578605D01*
X39748845Y-56578292D01*
X39557446Y-56451306D01*
X39510922Y-56420439D01*
X39507641Y-56417158D01*
X39412542Y-56273821D01*
X39349811Y-56179271D01*
X39348093Y-56170484D01*
X39353093Y-56163055D01*
X39353592Y-56162742D01*
X39417206Y-56125312D01*
X39418506Y-56124654D01*
X39482053Y-56097374D01*
X39483759Y-56096793D01*
X39593247Y-56068721D01*
X39593688Y-56068617D01*
X39640236Y-56058711D01*
X39741463Y-56020219D01*
X39796956Y-55983046D01*
X39850887Y-55934889D01*
X39859340Y-55931936D01*
X39866952Y-55935344D01*
G37*
G04 #@! TD.AperFunction*
G04 #@! TA.AperFunction,Conductor*
G36*
X32905689Y-45654093D02*
G01*
X32909607Y-45662146D01*
X32909628Y-45662849D01*
X32909628Y-45840616D01*
X32906201Y-45848889D01*
X32899970Y-45852136D01*
X32830269Y-45864492D01*
X32830264Y-45864494D01*
X32806180Y-45881140D01*
X32790309Y-45903367D01*
X32776705Y-45962047D01*
X32776398Y-46035558D01*
X32777088Y-46093097D01*
X32777008Y-46094609D01*
X32764169Y-46203349D01*
X32763242Y-46206727D01*
X32728279Y-46285422D01*
X32721789Y-46291592D01*
X32712837Y-46291364D01*
X32711105Y-46290412D01*
X32476272Y-46134128D01*
X32471283Y-46126692D01*
X32471271Y-46126633D01*
X32464714Y-46093097D01*
X32420020Y-45864494D01*
X32416787Y-45847959D01*
X32418563Y-45839182D01*
X32425295Y-45834399D01*
X32493020Y-45816606D01*
X32554044Y-45791454D01*
X32644834Y-45735211D01*
X32677735Y-45712676D01*
X32679255Y-45711798D01*
X32769183Y-45668635D01*
X32771820Y-45667738D01*
X32830735Y-45655301D01*
X32832428Y-45655073D01*
X32897227Y-45651170D01*
X32905689Y-45654093D01*
G37*
G04 #@! TD.AperFunction*
G04 #@! TA.AperFunction,Conductor*
G36*
X35542599Y-64136184D02*
G01*
X35546020Y-64144082D01*
X35550839Y-64294475D01*
X35550839Y-64294476D01*
X35566163Y-64429195D01*
X35591291Y-64542050D01*
X35591294Y-64542060D01*
X35625899Y-64638225D01*
X35669642Y-64722827D01*
X35669645Y-64722831D01*
X35722191Y-64801009D01*
X35722192Y-64801011D01*
X35852358Y-64958675D01*
X35964464Y-65090802D01*
X35964941Y-65091403D01*
X36145093Y-65334328D01*
X36147268Y-65343014D01*
X36142664Y-65350695D01*
X36142205Y-65351019D01*
X35452167Y-65813064D01*
X35443386Y-65814819D01*
X35439147Y-65813064D01*
X34749042Y-65350974D01*
X34744075Y-65343523D01*
X34745830Y-65334742D01*
X34746086Y-65334376D01*
X34899685Y-65124407D01*
X34900143Y-65123825D01*
X35038945Y-64958687D01*
X35076615Y-64915055D01*
X35200428Y-64756490D01*
X35276933Y-64610411D01*
X35305116Y-64523640D01*
X35326072Y-64423519D01*
X35340709Y-64291078D01*
X35345303Y-64144092D01*
X35348986Y-64135929D01*
X35356997Y-64132757D01*
X35534326Y-64132757D01*
X35542599Y-64136184D01*
G37*
G04 #@! TD.AperFunction*
G04 #@! TA.AperFunction,Conductor*
G36*
X22876025Y-40388860D02*
G01*
X22876360Y-40389395D01*
X22913763Y-40452963D01*
X22914430Y-40454281D01*
X22941704Y-40517818D01*
X22942286Y-40519527D01*
X22970354Y-40628998D01*
X22970465Y-40629468D01*
X22980369Y-40676003D01*
X22980370Y-40676005D01*
X23018862Y-40777230D01*
X23056031Y-40832718D01*
X23056033Y-40832720D01*
X23056035Y-40832723D01*
X23060446Y-40837663D01*
X23104190Y-40886653D01*
X23107144Y-40895107D01*
X23103736Y-40902719D01*
X22977837Y-41028618D01*
X22969564Y-41032045D01*
X22961901Y-41029187D01*
X22893759Y-40970129D01*
X22826910Y-40930626D01*
X22826908Y-40930625D01*
X22826906Y-40930624D01*
X22826907Y-40930624D01*
X22765265Y-40908689D01*
X22765263Y-40908688D01*
X22765259Y-40908687D01*
X22719014Y-40898414D01*
X22704668Y-40895227D01*
X22704249Y-40895125D01*
X22589520Y-40865168D01*
X22587774Y-40864562D01*
X22526480Y-40837663D01*
X22525224Y-40837018D01*
X22464586Y-40801137D01*
X22459211Y-40793975D01*
X22460475Y-40785110D01*
X22460769Y-40784640D01*
X22618642Y-40546687D01*
X22621920Y-40543409D01*
X22859810Y-40385578D01*
X22868596Y-40383860D01*
X22876025Y-40388860D01*
G37*
G04 #@! TD.AperFunction*
G04 #@! TA.AperFunction,Conductor*
G36*
X31193062Y-44952512D02*
G01*
X31198437Y-44959674D01*
X31198572Y-44960261D01*
X31255187Y-45240104D01*
X31255187Y-45244744D01*
X31198578Y-45524556D01*
X31193578Y-45531985D01*
X31184790Y-45533704D01*
X31184175Y-45533562D01*
X31149419Y-45524556D01*
X31112776Y-45515061D01*
X31111380Y-45514603D01*
X31083326Y-45503400D01*
X31047160Y-45488959D01*
X31045540Y-45488162D01*
X30948271Y-45430593D01*
X30947860Y-45430338D01*
X30907965Y-45404444D01*
X30809175Y-45360087D01*
X30809174Y-45360086D01*
X30743648Y-45347132D01*
X30671460Y-45343048D01*
X30663394Y-45339160D01*
X30660421Y-45331367D01*
X30660421Y-45153317D01*
X30663848Y-45145044D01*
X30671285Y-45141648D01*
X30761231Y-45135224D01*
X30836433Y-45115888D01*
X30895540Y-45087807D01*
X30947911Y-45054474D01*
X30948198Y-45054298D01*
X31050596Y-44994303D01*
X31052241Y-44993507D01*
X31114613Y-44969182D01*
X31115923Y-44968760D01*
X31184198Y-44951248D01*
X31193062Y-44952512D01*
G37*
G04 #@! TD.AperFunction*
G04 #@! TA.AperFunction,Conductor*
G36*
X33002599Y-64136184D02*
G01*
X33006020Y-64144082D01*
X33010839Y-64294475D01*
X33010839Y-64294476D01*
X33026163Y-64429195D01*
X33051291Y-64542050D01*
X33051294Y-64542060D01*
X33085899Y-64638225D01*
X33129642Y-64722827D01*
X33129645Y-64722831D01*
X33182191Y-64801009D01*
X33182192Y-64801011D01*
X33312358Y-64958675D01*
X33424464Y-65090802D01*
X33424941Y-65091403D01*
X33605093Y-65334328D01*
X33607268Y-65343014D01*
X33602664Y-65350695D01*
X33602205Y-65351019D01*
X32912167Y-65813064D01*
X32903386Y-65814819D01*
X32899147Y-65813064D01*
X32209042Y-65350974D01*
X32204075Y-65343523D01*
X32205830Y-65334742D01*
X32206086Y-65334376D01*
X32359685Y-65124407D01*
X32360143Y-65123825D01*
X32498945Y-64958687D01*
X32536615Y-64915055D01*
X32660428Y-64756490D01*
X32736933Y-64610411D01*
X32765116Y-64523640D01*
X32786072Y-64423519D01*
X32800709Y-64291078D01*
X32805303Y-64144092D01*
X32808986Y-64135929D01*
X32816997Y-64132757D01*
X32994326Y-64132757D01*
X33002599Y-64136184D01*
G37*
G04 #@! TD.AperFunction*
G04 #@! TA.AperFunction,Conductor*
G36*
X34430293Y-46229349D02*
G01*
X34431019Y-46230601D01*
X34457720Y-46284028D01*
X34458629Y-46286519D01*
X34474261Y-46351438D01*
X34474579Y-46353786D01*
X34478837Y-46481031D01*
X34478843Y-46481563D01*
X34478228Y-46532364D01*
X34478228Y-46532368D01*
X34489154Y-46605301D01*
X34524091Y-46647719D01*
X34560552Y-46661586D01*
X34601471Y-46665428D01*
X34609387Y-46669613D01*
X34612077Y-46677077D01*
X34612077Y-46853817D01*
X34608650Y-46862090D01*
X34600377Y-46865517D01*
X34599506Y-46865485D01*
X34520077Y-46859556D01*
X34517909Y-46859186D01*
X34502426Y-46855020D01*
X34451154Y-46841224D01*
X34448338Y-46840055D01*
X34347431Y-46781721D01*
X34347165Y-46781563D01*
X34298736Y-46751829D01*
X34252485Y-46723432D01*
X34252482Y-46723430D01*
X34252476Y-46723427D01*
X34252472Y-46723425D01*
X34192933Y-46699393D01*
X34127775Y-46682431D01*
X34120632Y-46677030D01*
X34119240Y-46668865D01*
X34173720Y-46390212D01*
X34178670Y-46382753D01*
X34414072Y-46226090D01*
X34422857Y-46224360D01*
X34430293Y-46229349D01*
G37*
G04 #@! TD.AperFunction*
G04 #@! TA.AperFunction,Conductor*
G36*
X40337062Y-44444512D02*
G01*
X40342437Y-44451674D01*
X40342572Y-44452261D01*
X40399187Y-44732104D01*
X40399187Y-44736744D01*
X40342578Y-45016556D01*
X40337578Y-45023985D01*
X40328790Y-45025704D01*
X40328175Y-45025562D01*
X40293419Y-45016556D01*
X40256776Y-45007061D01*
X40255380Y-45006603D01*
X40227326Y-44995400D01*
X40191160Y-44980959D01*
X40189540Y-44980162D01*
X40092271Y-44922593D01*
X40091860Y-44922338D01*
X40051965Y-44896444D01*
X39953175Y-44852087D01*
X39953174Y-44852086D01*
X39887648Y-44839132D01*
X39815460Y-44835048D01*
X39807394Y-44831160D01*
X39804421Y-44823367D01*
X39804421Y-44645317D01*
X39807848Y-44637044D01*
X39815285Y-44633648D01*
X39905231Y-44627224D01*
X39980433Y-44607888D01*
X40039540Y-44579807D01*
X40091911Y-44546474D01*
X40092198Y-44546298D01*
X40194596Y-44486303D01*
X40196241Y-44485507D01*
X40258613Y-44461182D01*
X40259923Y-44460760D01*
X40328198Y-44443248D01*
X40337062Y-44444512D01*
G37*
G04 #@! TD.AperFunction*
G04 #@! TA.AperFunction,Conductor*
G36*
X40337062Y-42285512D02*
G01*
X40342437Y-42292674D01*
X40342572Y-42293261D01*
X40399187Y-42573104D01*
X40399187Y-42577744D01*
X40342578Y-42857556D01*
X40337578Y-42864985D01*
X40328790Y-42866704D01*
X40328175Y-42866562D01*
X40293419Y-42857556D01*
X40256776Y-42848061D01*
X40255380Y-42847603D01*
X40227326Y-42836400D01*
X40191160Y-42821959D01*
X40189540Y-42821162D01*
X40092271Y-42763593D01*
X40091860Y-42763338D01*
X40051965Y-42737444D01*
X39953175Y-42693087D01*
X39953174Y-42693086D01*
X39887648Y-42680132D01*
X39815460Y-42676048D01*
X39807394Y-42672160D01*
X39804421Y-42664367D01*
X39804421Y-42486317D01*
X39807848Y-42478044D01*
X39815285Y-42474648D01*
X39905231Y-42468224D01*
X39980433Y-42448888D01*
X40039540Y-42420807D01*
X40091911Y-42387474D01*
X40092198Y-42387298D01*
X40194596Y-42327303D01*
X40196241Y-42326507D01*
X40258613Y-42302182D01*
X40259923Y-42301760D01*
X40328198Y-42284248D01*
X40337062Y-42285512D01*
G37*
G04 #@! TD.AperFunction*
G04 #@! TA.AperFunction,Conductor*
G36*
X74349928Y-43529416D02*
G01*
X74350252Y-43529875D01*
X74812297Y-44219914D01*
X74814052Y-44228695D01*
X74812297Y-44232934D01*
X74350207Y-44923038D01*
X74342756Y-44928005D01*
X74333975Y-44926250D01*
X74333577Y-44925971D01*
X74123660Y-44772409D01*
X74123040Y-44771922D01*
X73958002Y-44633205D01*
X73957884Y-44633105D01*
X73914296Y-44595472D01*
X73914295Y-44595471D01*
X73914289Y-44595466D01*
X73755724Y-44471653D01*
X73609645Y-44395148D01*
X73609644Y-44395147D01*
X73609641Y-44395146D01*
X73522877Y-44366966D01*
X73522874Y-44366965D01*
X73475762Y-44357104D01*
X73422755Y-44346009D01*
X73290328Y-44331373D01*
X73290304Y-44331371D01*
X73143325Y-44326778D01*
X73135162Y-44323095D01*
X73131990Y-44315084D01*
X73131990Y-44137755D01*
X73135417Y-44129482D01*
X73143314Y-44126061D01*
X73293702Y-44121242D01*
X73428422Y-44105918D01*
X73428424Y-44105917D01*
X73428428Y-44105917D01*
X73495830Y-44090909D01*
X73541293Y-44080787D01*
X73637458Y-44046182D01*
X73722060Y-44002439D01*
X73800242Y-43949890D01*
X73957920Y-43819712D01*
X74090046Y-43707606D01*
X74090624Y-43707146D01*
X74333562Y-43526986D01*
X74342247Y-43524812D01*
X74349928Y-43529416D01*
G37*
G04 #@! TD.AperFunction*
G04 #@! TA.AperFunction,Conductor*
G36*
X73994028Y-44062979D02*
G01*
X74545656Y-44172144D01*
X74808678Y-44224196D01*
X74816129Y-44229163D01*
X74817884Y-44233402D01*
X74979116Y-45048126D01*
X74977361Y-45056907D01*
X74969910Y-45061874D01*
X74969432Y-45061959D01*
X74712410Y-45101808D01*
X74711627Y-45101902D01*
X74496864Y-45120511D01*
X74496710Y-45120524D01*
X74439239Y-45124739D01*
X74439214Y-45124742D01*
X74239583Y-45149310D01*
X74239568Y-45149313D01*
X74082181Y-45198509D01*
X74082180Y-45198509D01*
X74000907Y-45239931D01*
X74000900Y-45239936D01*
X73915269Y-45295924D01*
X73811291Y-45379210D01*
X73811284Y-45379216D01*
X73704371Y-45479648D01*
X73704100Y-45479903D01*
X73695723Y-45483069D01*
X73687816Y-45479648D01*
X73562426Y-45354258D01*
X73558999Y-45345985D01*
X73562164Y-45337982D01*
X73665097Y-45228234D01*
X73749523Y-45122136D01*
X73811565Y-45024554D01*
X73855095Y-44932086D01*
X73883986Y-44841331D01*
X73902111Y-44748890D01*
X73921557Y-44545346D01*
X73935713Y-44372647D01*
X73935801Y-44371894D01*
X73980188Y-44072740D01*
X73984792Y-44065059D01*
X73993478Y-44062884D01*
X73994028Y-44062979D01*
G37*
G04 #@! TD.AperFunction*
G04 #@! TA.AperFunction,Conductor*
G36*
X58305221Y-41053992D02*
G01*
X58305488Y-41054251D01*
X58431266Y-41180029D01*
X58434693Y-41188302D01*
X58432422Y-41195229D01*
X58392631Y-41249390D01*
X58383963Y-41304032D01*
X58401765Y-41356277D01*
X58435390Y-41411276D01*
X58435413Y-41411358D01*
X58435433Y-41411347D01*
X58478931Y-41483629D01*
X58481092Y-41487219D01*
X58482092Y-41489334D01*
X58514369Y-41580167D01*
X58513910Y-41589110D01*
X58507262Y-41595110D01*
X58505648Y-41595556D01*
X58228736Y-41651169D01*
X58219950Y-41649438D01*
X58219900Y-41649405D01*
X57984635Y-41491091D01*
X57979684Y-41483629D01*
X57981268Y-41475147D01*
X58021511Y-41411276D01*
X58076915Y-41323342D01*
X58126560Y-41243568D01*
X58127165Y-41242688D01*
X58190977Y-41158739D01*
X58191732Y-41157846D01*
X58288685Y-41054516D01*
X58296843Y-41050830D01*
X58305221Y-41053992D01*
G37*
G04 #@! TD.AperFunction*
G04 #@! TA.AperFunction,Conductor*
G36*
X73704099Y-55672932D02*
G01*
X73813847Y-55775865D01*
X73919944Y-55860291D01*
X73919951Y-55860296D01*
X73919956Y-55860299D01*
X74017516Y-55922326D01*
X74017518Y-55922327D01*
X74017526Y-55922332D01*
X74105154Y-55963583D01*
X74109997Y-55965863D01*
X74146229Y-55977397D01*
X74200749Y-55994753D01*
X74200753Y-55994753D01*
X74200757Y-55994755D01*
X74285465Y-56011363D01*
X74293190Y-56012878D01*
X74496735Y-56032324D01*
X74669429Y-56046480D01*
X74670181Y-56046567D01*
X74969340Y-56090955D01*
X74977021Y-56095559D01*
X74979196Y-56104245D01*
X74979100Y-56104799D01*
X74817884Y-56919445D01*
X74812917Y-56926896D01*
X74808678Y-56928651D01*
X73993954Y-57089883D01*
X73985173Y-57088128D01*
X73980206Y-57080677D01*
X73980121Y-57080199D01*
X73940272Y-56823177D01*
X73940178Y-56822394D01*
X73921568Y-56607630D01*
X73921555Y-56607476D01*
X73917340Y-56550006D01*
X73917337Y-56549982D01*
X73892769Y-56350350D01*
X73892768Y-56350341D01*
X73843572Y-56192950D01*
X73843571Y-56192948D01*
X73843571Y-56192947D01*
X73802149Y-56111674D01*
X73802147Y-56111671D01*
X73802144Y-56111665D01*
X73746166Y-56026050D01*
X73746161Y-56026044D01*
X73746156Y-56026036D01*
X73690632Y-55956717D01*
X73662865Y-55922051D01*
X73562176Y-55814865D01*
X73559011Y-55806491D01*
X73562431Y-55798584D01*
X73687823Y-55673192D01*
X73696095Y-55669766D01*
X73704099Y-55672932D01*
G37*
G04 #@! TD.AperFunction*
G04 #@! TA.AperFunction,Conductor*
G36*
X58480025Y-41494860D02*
G01*
X58480360Y-41495395D01*
X58517763Y-41558963D01*
X58518430Y-41560281D01*
X58545704Y-41623818D01*
X58546286Y-41625527D01*
X58574354Y-41734998D01*
X58574465Y-41735468D01*
X58584369Y-41782003D01*
X58584370Y-41782005D01*
X58622862Y-41883230D01*
X58660031Y-41938718D01*
X58660033Y-41938720D01*
X58660035Y-41938723D01*
X58664446Y-41943663D01*
X58708190Y-41992653D01*
X58711144Y-42001107D01*
X58707736Y-42008719D01*
X58581837Y-42134618D01*
X58573564Y-42138045D01*
X58565901Y-42135187D01*
X58497759Y-42076129D01*
X58430910Y-42036626D01*
X58430908Y-42036625D01*
X58430906Y-42036624D01*
X58430907Y-42036624D01*
X58369265Y-42014689D01*
X58369263Y-42014688D01*
X58369259Y-42014687D01*
X58323014Y-42004414D01*
X58308668Y-42001227D01*
X58308249Y-42001125D01*
X58193520Y-41971168D01*
X58191774Y-41970562D01*
X58130480Y-41943663D01*
X58129224Y-41943018D01*
X58068586Y-41907137D01*
X58063211Y-41899975D01*
X58064475Y-41891110D01*
X58064769Y-41890640D01*
X58222642Y-41652687D01*
X58225920Y-41649409D01*
X58463810Y-41491578D01*
X58472596Y-41489860D01*
X58480025Y-41494860D01*
G37*
G04 #@! TD.AperFunction*
G04 #@! TA.AperFunction,Conductor*
G36*
X58954970Y-40129242D02*
G01*
X58955458Y-40129548D01*
X59146867Y-40256541D01*
X59193391Y-40287408D01*
X59196672Y-40290689D01*
X59354501Y-40528575D01*
X59356220Y-40537363D01*
X59351220Y-40544792D01*
X59350685Y-40545127D01*
X59307139Y-40570748D01*
X59304234Y-40571965D01*
X59255473Y-40585030D01*
X59203675Y-40614935D01*
X59200731Y-40616135D01*
X59111081Y-40639121D01*
X59110611Y-40639232D01*
X59080360Y-40645670D01*
X59064077Y-40649136D01*
X59064074Y-40649136D01*
X59064074Y-40649137D01*
X58962850Y-40687629D01*
X58907362Y-40724798D01*
X58853427Y-40772957D01*
X58844973Y-40775911D01*
X58837361Y-40772503D01*
X58711462Y-40646604D01*
X58708035Y-40638331D01*
X58710892Y-40630670D01*
X58769951Y-40562526D01*
X58809454Y-40495678D01*
X58831393Y-40434027D01*
X58844861Y-40373398D01*
X58844943Y-40373062D01*
X58874914Y-40258278D01*
X58875514Y-40256549D01*
X58902418Y-40195243D01*
X58903062Y-40193991D01*
X58938944Y-40133352D01*
X58946105Y-40127978D01*
X58954970Y-40129242D01*
G37*
G04 #@! TD.AperFunction*
G04 #@! TA.AperFunction,Conductor*
G36*
X51741410Y-41667659D02*
G01*
X51809554Y-41726718D01*
X51876403Y-41766221D01*
X51876406Y-41766222D01*
X51876405Y-41766222D01*
X51898693Y-41774153D01*
X51938054Y-41788160D01*
X51998670Y-41801625D01*
X51999032Y-41801713D01*
X52113798Y-41831680D01*
X52115534Y-41832283D01*
X52157548Y-41850721D01*
X52176833Y-41859184D01*
X52178089Y-41859829D01*
X52238727Y-41895710D01*
X52244102Y-41902872D01*
X52242838Y-41911737D01*
X52242518Y-41912247D01*
X52084672Y-42150158D01*
X52081391Y-42153439D01*
X51843505Y-42311268D01*
X51834717Y-42312987D01*
X51827288Y-42307987D01*
X51826965Y-42307471D01*
X51789548Y-42243880D01*
X51788883Y-42242565D01*
X51761608Y-42179028D01*
X51761026Y-42177319D01*
X51732958Y-42067848D01*
X51732847Y-42067377D01*
X51722944Y-42020844D01*
X51684452Y-41919618D01*
X51647279Y-41864125D01*
X51599123Y-41810194D01*
X51596169Y-41801740D01*
X51599576Y-41794129D01*
X51725477Y-41668228D01*
X51733749Y-41664802D01*
X51741410Y-41667659D01*
G37*
G04 #@! TD.AperFunction*
G04 #@! TA.AperFunction,Conductor*
G36*
X51348789Y-38821502D02*
G01*
X51356218Y-38826502D01*
X51357937Y-38835290D01*
X51357795Y-38835905D01*
X51339295Y-38907299D01*
X51338835Y-38908703D01*
X51313192Y-38972919D01*
X51312395Y-38974539D01*
X51254826Y-39071808D01*
X51254571Y-39072219D01*
X51228677Y-39112114D01*
X51184320Y-39210904D01*
X51184319Y-39210905D01*
X51171365Y-39276429D01*
X51171365Y-39276434D01*
X51167281Y-39348621D01*
X51163393Y-39356687D01*
X51155600Y-39359660D01*
X50977551Y-39359660D01*
X50969278Y-39356233D01*
X50965881Y-39348793D01*
X50959457Y-39258850D01*
X50959457Y-39258849D01*
X50940121Y-39183647D01*
X50912040Y-39124540D01*
X50912039Y-39124539D01*
X50912038Y-39124536D01*
X50878734Y-39072211D01*
X50878509Y-39071844D01*
X50818541Y-38969492D01*
X50817736Y-38967828D01*
X50793417Y-38905471D01*
X50792991Y-38904151D01*
X50775481Y-38835881D01*
X50776745Y-38827018D01*
X50783907Y-38821643D01*
X50784475Y-38821512D01*
X51064339Y-38764893D01*
X51068975Y-38764893D01*
X51348789Y-38821502D01*
G37*
G04 #@! TD.AperFunction*
G04 #@! TA.AperFunction,Conductor*
G36*
X50979410Y-43107659D02*
G01*
X51047554Y-43166718D01*
X51114403Y-43206221D01*
X51114406Y-43206222D01*
X51114405Y-43206222D01*
X51136693Y-43214153D01*
X51176054Y-43228160D01*
X51236670Y-43241625D01*
X51237032Y-43241713D01*
X51351798Y-43271680D01*
X51353534Y-43272283D01*
X51395548Y-43290721D01*
X51414833Y-43299184D01*
X51416089Y-43299829D01*
X51476727Y-43335710D01*
X51482102Y-43342872D01*
X51480838Y-43351737D01*
X51480518Y-43352247D01*
X51322672Y-43590158D01*
X51319391Y-43593439D01*
X51081505Y-43751268D01*
X51072717Y-43752987D01*
X51065288Y-43747987D01*
X51064965Y-43747471D01*
X51027548Y-43683880D01*
X51026883Y-43682565D01*
X50999608Y-43619028D01*
X50999026Y-43617319D01*
X50970958Y-43507848D01*
X50970847Y-43507377D01*
X50960944Y-43460844D01*
X50922452Y-43359618D01*
X50885279Y-43304125D01*
X50837123Y-43250194D01*
X50834169Y-43241740D01*
X50837576Y-43234129D01*
X50963477Y-43108228D01*
X50971749Y-43104802D01*
X50979410Y-43107659D01*
G37*
G04 #@! TD.AperFunction*
G04 #@! TA.AperFunction,Conductor*
G36*
X49824789Y-38313502D02*
G01*
X49832218Y-38318502D01*
X49833937Y-38327290D01*
X49833795Y-38327905D01*
X49815295Y-38399299D01*
X49814835Y-38400703D01*
X49789192Y-38464919D01*
X49788395Y-38466539D01*
X49730826Y-38563808D01*
X49730571Y-38564219D01*
X49704677Y-38604114D01*
X49660320Y-38702904D01*
X49660319Y-38702905D01*
X49647365Y-38768429D01*
X49647365Y-38768434D01*
X49643281Y-38840621D01*
X49639393Y-38848687D01*
X49631600Y-38851660D01*
X49453551Y-38851660D01*
X49445278Y-38848233D01*
X49441881Y-38840793D01*
X49435457Y-38750850D01*
X49435457Y-38750849D01*
X49416121Y-38675647D01*
X49388040Y-38616540D01*
X49388039Y-38616539D01*
X49388038Y-38616536D01*
X49354734Y-38564211D01*
X49354509Y-38563844D01*
X49294541Y-38461492D01*
X49293736Y-38459828D01*
X49269417Y-38397471D01*
X49268991Y-38396151D01*
X49251481Y-38327881D01*
X49252745Y-38319018D01*
X49259907Y-38313643D01*
X49260475Y-38313512D01*
X49540339Y-38256893D01*
X49544975Y-38256893D01*
X49824789Y-38313502D01*
G37*
G04 #@! TD.AperFunction*
G04 #@! TA.AperFunction,Conductor*
G36*
X50586789Y-38567502D02*
G01*
X50594218Y-38572502D01*
X50595937Y-38581290D01*
X50595795Y-38581905D01*
X50577295Y-38653299D01*
X50576835Y-38654703D01*
X50551192Y-38718919D01*
X50550395Y-38720539D01*
X50492826Y-38817808D01*
X50492571Y-38818219D01*
X50466677Y-38858114D01*
X50422320Y-38956904D01*
X50422319Y-38956905D01*
X50409365Y-39022429D01*
X50409365Y-39022434D01*
X50405281Y-39094621D01*
X50401393Y-39102687D01*
X50393600Y-39105660D01*
X50215551Y-39105660D01*
X50207278Y-39102233D01*
X50203881Y-39094793D01*
X50197457Y-39004850D01*
X50197457Y-39004849D01*
X50178121Y-38929647D01*
X50150040Y-38870540D01*
X50150039Y-38870539D01*
X50150038Y-38870536D01*
X50116734Y-38818211D01*
X50116509Y-38817844D01*
X50056541Y-38715492D01*
X50055736Y-38713828D01*
X50031417Y-38651471D01*
X50030991Y-38650151D01*
X50013481Y-38581881D01*
X50014745Y-38573018D01*
X50021907Y-38567643D01*
X50022475Y-38567512D01*
X50302339Y-38510893D01*
X50306975Y-38510893D01*
X50586789Y-38567502D01*
G37*
G04 #@! TD.AperFunction*
G04 #@! TA.AperFunction,Conductor*
G36*
X51254410Y-42324659D02*
G01*
X51322554Y-42383718D01*
X51389403Y-42423221D01*
X51389406Y-42423222D01*
X51389405Y-42423222D01*
X51411693Y-42431153D01*
X51451054Y-42445160D01*
X51511670Y-42458625D01*
X51512032Y-42458713D01*
X51626798Y-42488680D01*
X51628534Y-42489283D01*
X51670548Y-42507721D01*
X51689833Y-42516184D01*
X51691089Y-42516829D01*
X51751727Y-42552710D01*
X51757102Y-42559872D01*
X51755838Y-42568737D01*
X51755518Y-42569247D01*
X51597672Y-42807158D01*
X51594391Y-42810439D01*
X51356505Y-42968268D01*
X51347717Y-42969987D01*
X51340288Y-42964987D01*
X51339965Y-42964471D01*
X51302548Y-42900880D01*
X51301883Y-42899565D01*
X51274608Y-42836028D01*
X51274026Y-42834319D01*
X51245958Y-42724848D01*
X51245847Y-42724377D01*
X51235944Y-42677844D01*
X51197452Y-42576618D01*
X51160279Y-42521125D01*
X51112123Y-42467194D01*
X51109169Y-42458740D01*
X51112576Y-42451129D01*
X51238477Y-42325228D01*
X51246749Y-42321802D01*
X51254410Y-42324659D01*
G37*
G04 #@! TD.AperFunction*
G04 #@! TA.AperFunction,Conductor*
G36*
X59704025Y-40894860D02*
G01*
X59704360Y-40895395D01*
X59741763Y-40958963D01*
X59742430Y-40960281D01*
X59769704Y-41023818D01*
X59770286Y-41025527D01*
X59798354Y-41134998D01*
X59798465Y-41135468D01*
X59808369Y-41182003D01*
X59808370Y-41182005D01*
X59846862Y-41283230D01*
X59884031Y-41338718D01*
X59884033Y-41338720D01*
X59884035Y-41338723D01*
X59888446Y-41343663D01*
X59932190Y-41392653D01*
X59935144Y-41401107D01*
X59931736Y-41408719D01*
X59805837Y-41534618D01*
X59797564Y-41538045D01*
X59789901Y-41535187D01*
X59721759Y-41476129D01*
X59654910Y-41436626D01*
X59654908Y-41436625D01*
X59654906Y-41436624D01*
X59654907Y-41436624D01*
X59593265Y-41414689D01*
X59593263Y-41414688D01*
X59593259Y-41414687D01*
X59547014Y-41404414D01*
X59532668Y-41401227D01*
X59532249Y-41401125D01*
X59417520Y-41371168D01*
X59415774Y-41370562D01*
X59354480Y-41343663D01*
X59353224Y-41343018D01*
X59292586Y-41307137D01*
X59287211Y-41299975D01*
X59288475Y-41291110D01*
X59288769Y-41290640D01*
X59446642Y-41052687D01*
X59449920Y-41049409D01*
X59687810Y-40891578D01*
X59696596Y-40889860D01*
X59704025Y-40894860D01*
G37*
G04 #@! TD.AperFunction*
G04 #@! TA.AperFunction,Conductor*
G36*
X74349928Y-40989416D02*
G01*
X74350252Y-40989875D01*
X74812297Y-41679914D01*
X74814052Y-41688695D01*
X74812297Y-41692934D01*
X74350207Y-42383038D01*
X74342756Y-42388005D01*
X74333975Y-42386250D01*
X74333577Y-42385971D01*
X74123660Y-42232409D01*
X74123040Y-42231922D01*
X73958002Y-42093205D01*
X73957884Y-42093105D01*
X73914296Y-42055472D01*
X73914295Y-42055471D01*
X73914289Y-42055466D01*
X73755724Y-41931653D01*
X73609645Y-41855148D01*
X73609644Y-41855147D01*
X73609641Y-41855146D01*
X73522877Y-41826966D01*
X73522874Y-41826965D01*
X73475762Y-41817104D01*
X73422755Y-41806009D01*
X73290328Y-41791373D01*
X73290304Y-41791371D01*
X73143325Y-41786778D01*
X73135162Y-41783095D01*
X73131990Y-41775084D01*
X73131990Y-41597755D01*
X73135417Y-41589482D01*
X73143314Y-41586061D01*
X73293702Y-41581242D01*
X73428422Y-41565918D01*
X73428424Y-41565917D01*
X73428428Y-41565917D01*
X73495830Y-41550909D01*
X73541293Y-41540787D01*
X73637458Y-41506182D01*
X73722060Y-41462439D01*
X73800242Y-41409890D01*
X73957920Y-41279712D01*
X74090046Y-41167606D01*
X74090624Y-41167146D01*
X74333562Y-40986986D01*
X74342247Y-40984812D01*
X74349928Y-40989416D01*
G37*
G04 #@! TD.AperFunction*
G04 #@! TA.AperFunction,Conductor*
G36*
X75646140Y-41524719D02*
G01*
X75651107Y-41532170D01*
X75651192Y-41532648D01*
X75691041Y-41789669D01*
X75691135Y-41790452D01*
X75709743Y-42005191D01*
X75709756Y-42005345D01*
X75713972Y-42062841D01*
X75713975Y-42062865D01*
X75738543Y-42262496D01*
X75738546Y-42262511D01*
X75787742Y-42419898D01*
X75787742Y-42419899D01*
X75829164Y-42501172D01*
X75829167Y-42501176D01*
X75829170Y-42501182D01*
X75885148Y-42586797D01*
X75885150Y-42586800D01*
X75885157Y-42586810D01*
X75949786Y-42667497D01*
X75968449Y-42690797D01*
X76069136Y-42797981D01*
X76072302Y-42806356D01*
X76068881Y-42814264D01*
X75943491Y-42939654D01*
X75935218Y-42943081D01*
X75927214Y-42939915D01*
X75817472Y-42836989D01*
X75817466Y-42836983D01*
X75817458Y-42836977D01*
X75817454Y-42836973D01*
X75711378Y-42752564D01*
X75711375Y-42752562D01*
X75711369Y-42752557D01*
X75711364Y-42752553D01*
X75711356Y-42752548D01*
X75613796Y-42690520D01*
X75613790Y-42690517D01*
X75613787Y-42690515D01*
X75569972Y-42669889D01*
X75521315Y-42646983D01*
X75430555Y-42618091D01*
X75338132Y-42599970D01*
X75338120Y-42599968D01*
X75134582Y-42580523D01*
X74961888Y-42566366D01*
X74961127Y-42566278D01*
X74661973Y-42521892D01*
X74654292Y-42517288D01*
X74652117Y-42508602D01*
X74652213Y-42508048D01*
X74653573Y-42501179D01*
X74813429Y-41693401D01*
X74818396Y-41685951D01*
X74822634Y-41684196D01*
X75637361Y-41522964D01*
X75646140Y-41524719D01*
G37*
G04 #@! TD.AperFunction*
G04 #@! TA.AperFunction,Conductor*
G36*
X75943497Y-53133199D02*
G01*
X76068887Y-53258589D01*
X76072314Y-53266862D01*
X76069148Y-53274866D01*
X75966222Y-53384607D01*
X75966206Y-53384625D01*
X75881797Y-53490701D01*
X75881781Y-53490723D01*
X75819753Y-53588284D01*
X75819749Y-53588292D01*
X75776216Y-53680764D01*
X75747324Y-53771524D01*
X75747324Y-53771525D01*
X75729203Y-53863948D01*
X75729201Y-53863960D01*
X75709756Y-54067498D01*
X75695599Y-54240191D01*
X75695511Y-54240952D01*
X75651125Y-54540107D01*
X75646521Y-54547788D01*
X75637835Y-54549963D01*
X75637281Y-54549867D01*
X74822635Y-54388651D01*
X74815184Y-54383684D01*
X74813429Y-54379445D01*
X74785871Y-54240191D01*
X74652197Y-53564719D01*
X74653952Y-53555940D01*
X74661403Y-53550973D01*
X74661855Y-53550892D01*
X74918913Y-53511037D01*
X74919675Y-53510946D01*
X75134529Y-53492328D01*
X75134588Y-53492323D01*
X75192067Y-53488108D01*
X75391739Y-53463535D01*
X75549130Y-53414339D01*
X75630415Y-53372911D01*
X75716030Y-53316933D01*
X75716040Y-53316924D01*
X75716043Y-53316923D01*
X75739611Y-53298044D01*
X75820030Y-53233632D01*
X75927216Y-53132942D01*
X75935589Y-53129778D01*
X75943497Y-53133199D01*
G37*
G04 #@! TD.AperFunction*
G04 #@! TA.AperFunction,Conductor*
G36*
X68564099Y-65638932D02*
G01*
X68673847Y-65741865D01*
X68779944Y-65826291D01*
X68779951Y-65826296D01*
X68779956Y-65826299D01*
X68877516Y-65888326D01*
X68877518Y-65888327D01*
X68877526Y-65888332D01*
X68965154Y-65929583D01*
X68969997Y-65931863D01*
X69006229Y-65943397D01*
X69060749Y-65960753D01*
X69060753Y-65960753D01*
X69060757Y-65960755D01*
X69145465Y-65977363D01*
X69153190Y-65978878D01*
X69356735Y-65998324D01*
X69529429Y-66012480D01*
X69530181Y-66012567D01*
X69829340Y-66056955D01*
X69837021Y-66061559D01*
X69839196Y-66070245D01*
X69839100Y-66070799D01*
X69677884Y-66885445D01*
X69672917Y-66892896D01*
X69668678Y-66894651D01*
X68853954Y-67055883D01*
X68845173Y-67054128D01*
X68840206Y-67046677D01*
X68840121Y-67046199D01*
X68800272Y-66789177D01*
X68800178Y-66788394D01*
X68781568Y-66573630D01*
X68781555Y-66573476D01*
X68777340Y-66516006D01*
X68777337Y-66515982D01*
X68752769Y-66316350D01*
X68752768Y-66316341D01*
X68703572Y-66158950D01*
X68703571Y-66158948D01*
X68703571Y-66158947D01*
X68662149Y-66077674D01*
X68662147Y-66077671D01*
X68662144Y-66077665D01*
X68606166Y-65992050D01*
X68606161Y-65992044D01*
X68606156Y-65992036D01*
X68550632Y-65922717D01*
X68522865Y-65888051D01*
X68422176Y-65780865D01*
X68419011Y-65772491D01*
X68422431Y-65764584D01*
X68547823Y-65639192D01*
X68556095Y-65635766D01*
X68564099Y-65638932D01*
G37*
G04 #@! TD.AperFunction*
G04 #@! TA.AperFunction,Conductor*
G36*
X37416792Y-35011502D02*
G01*
X37424221Y-35016502D01*
X37425940Y-35025290D01*
X37425798Y-35025905D01*
X37407298Y-35097299D01*
X37406838Y-35098703D01*
X37381195Y-35162919D01*
X37380398Y-35164539D01*
X37322829Y-35261808D01*
X37322574Y-35262219D01*
X37296680Y-35302114D01*
X37252323Y-35400904D01*
X37252322Y-35400905D01*
X37239368Y-35466429D01*
X37239368Y-35466434D01*
X37235284Y-35538621D01*
X37231396Y-35546687D01*
X37223603Y-35549660D01*
X37045554Y-35549660D01*
X37037281Y-35546233D01*
X37033884Y-35538793D01*
X37027460Y-35448850D01*
X37027460Y-35448849D01*
X37008124Y-35373647D01*
X36980043Y-35314540D01*
X36980042Y-35314539D01*
X36980041Y-35314536D01*
X36946737Y-35262211D01*
X36946512Y-35261844D01*
X36886544Y-35159492D01*
X36885739Y-35157828D01*
X36861420Y-35095471D01*
X36860994Y-35094151D01*
X36843484Y-35025881D01*
X36844748Y-35017018D01*
X36851910Y-35011643D01*
X36852478Y-35011512D01*
X37132342Y-34954893D01*
X37136978Y-34954893D01*
X37416792Y-35011502D01*
G37*
G04 #@! TD.AperFunction*
G04 #@! TA.AperFunction,Conductor*
G36*
X45450611Y-50395334D02*
G01*
X46358461Y-50914711D01*
X46919835Y-51235871D01*
X46925314Y-51242954D01*
X46925712Y-51246572D01*
X46844966Y-52977221D01*
X46841158Y-52985326D01*
X46832734Y-52988363D01*
X46831578Y-52988252D01*
X45551976Y-52800213D01*
X45544289Y-52795619D01*
X45542163Y-52790715D01*
X45262764Y-51242954D01*
X45161097Y-50679760D01*
X45163000Y-50671011D01*
X45164332Y-50669416D01*
X45436531Y-50397217D01*
X45444803Y-50393791D01*
X45450611Y-50395334D01*
G37*
G04 #@! TD.AperFunction*
G04 #@! TA.AperFunction,Conductor*
G36*
X45066052Y-49884786D02*
G01*
X45066309Y-49885190D01*
X45169476Y-50055434D01*
X45222160Y-50144617D01*
X45279931Y-50221240D01*
X45364460Y-50311941D01*
X45367594Y-50320329D01*
X45364174Y-50328190D01*
X45097101Y-50595263D01*
X45088828Y-50598690D01*
X45081074Y-50595751D01*
X44942065Y-50472724D01*
X44942062Y-50472722D01*
X44942058Y-50472718D01*
X44824548Y-50400362D01*
X44824512Y-50400340D01*
X44824512Y-50400339D01*
X44654304Y-50297195D01*
X44649005Y-50289977D01*
X44650362Y-50281125D01*
X44650585Y-50280774D01*
X44808537Y-50042701D01*
X44811815Y-50039423D01*
X45049838Y-49881504D01*
X45058623Y-49879786D01*
X45066052Y-49884786D01*
G37*
G04 #@! TD.AperFunction*
G04 #@! TA.AperFunction,Conductor*
G36*
X59011145Y-65991555D02*
G01*
X59060500Y-66035302D01*
X59112844Y-66081699D01*
X59168085Y-66117606D01*
X59193207Y-66133936D01*
X59215347Y-66148327D01*
X59215346Y-66148327D01*
X59215349Y-66148328D01*
X59215352Y-66148330D01*
X59312203Y-66188307D01*
X59405169Y-66205797D01*
X59496028Y-66204964D01*
X59586552Y-66189976D01*
X59773701Y-66134199D01*
X59891591Y-66096349D01*
X59892465Y-66096107D01*
X60093379Y-66049049D01*
X60095239Y-66048769D01*
X60291294Y-66035373D01*
X60293378Y-66035417D01*
X60490828Y-66057351D01*
X60498670Y-66061669D01*
X60501162Y-66070270D01*
X60501011Y-66071249D01*
X60339307Y-66888361D01*
X60334340Y-66895812D01*
X60334319Y-66895826D01*
X59640896Y-67358001D01*
X59632111Y-67359738D01*
X59624671Y-67354754D01*
X59624539Y-67354550D01*
X59522653Y-67192834D01*
X59522315Y-67192260D01*
X59441462Y-67045965D01*
X59441096Y-67045247D01*
X59371487Y-66895826D01*
X59328761Y-66804111D01*
X59221044Y-66577781D01*
X59163155Y-66482349D01*
X59089186Y-66379449D01*
X58989887Y-66260870D01*
X58869331Y-66133935D01*
X58866120Y-66125578D01*
X58869542Y-66117607D01*
X58995112Y-65992037D01*
X59003384Y-65988611D01*
X59011145Y-65991555D01*
G37*
G04 #@! TD.AperFunction*
G04 #@! TA.AperFunction,Conductor*
G36*
X36615804Y-35011322D02*
G01*
X36623240Y-35016311D01*
X36624971Y-35025097D01*
X36624570Y-35026581D01*
X36595203Y-35112399D01*
X36594283Y-35114431D01*
X36549936Y-35191774D01*
X36505445Y-35277243D01*
X36505445Y-35277244D01*
X36504307Y-35338211D01*
X36521914Y-35375418D01*
X36549307Y-35408285D01*
X36551971Y-35416833D01*
X36548592Y-35424048D01*
X36423365Y-35549275D01*
X36415092Y-35552702D01*
X36406819Y-35549275D01*
X36406468Y-35548909D01*
X36267540Y-35397397D01*
X36266484Y-35396061D01*
X36176399Y-35263349D01*
X36176289Y-35263184D01*
X36091441Y-35131738D01*
X36089833Y-35122929D01*
X36094738Y-35115687D01*
X36329900Y-34957441D01*
X36338676Y-34955666D01*
X36615804Y-35011322D01*
G37*
G04 #@! TD.AperFunction*
G04 #@! TA.AperFunction,Conductor*
G36*
X39448062Y-49143512D02*
G01*
X39453437Y-49150674D01*
X39453572Y-49151261D01*
X39510187Y-49431104D01*
X39510187Y-49435744D01*
X39453578Y-49715556D01*
X39448578Y-49722985D01*
X39439790Y-49724704D01*
X39439175Y-49724562D01*
X39404419Y-49715556D01*
X39367776Y-49706061D01*
X39366380Y-49705603D01*
X39338326Y-49694400D01*
X39302160Y-49679959D01*
X39300540Y-49679162D01*
X39203271Y-49621593D01*
X39202860Y-49621338D01*
X39162965Y-49595444D01*
X39064175Y-49551087D01*
X39064174Y-49551086D01*
X38998648Y-49538132D01*
X38926460Y-49534048D01*
X38918394Y-49530160D01*
X38915421Y-49522367D01*
X38915421Y-49344317D01*
X38918848Y-49336044D01*
X38926285Y-49332648D01*
X39016231Y-49326224D01*
X39091433Y-49306888D01*
X39150540Y-49278807D01*
X39202911Y-49245474D01*
X39203198Y-49245298D01*
X39305596Y-49185303D01*
X39307241Y-49184507D01*
X39369613Y-49160182D01*
X39370923Y-49159760D01*
X39439198Y-49142248D01*
X39448062Y-49143512D01*
G37*
G04 #@! TD.AperFunction*
G04 #@! TA.AperFunction,Conductor*
G36*
X40380327Y-41312777D02*
G01*
X40385702Y-41319939D01*
X40385837Y-41320526D01*
X40442452Y-41600369D01*
X40442452Y-41605009D01*
X40385843Y-41884821D01*
X40380843Y-41892250D01*
X40372055Y-41893969D01*
X40371440Y-41893827D01*
X40336684Y-41884821D01*
X40300041Y-41875326D01*
X40298645Y-41874868D01*
X40270591Y-41863665D01*
X40234425Y-41849224D01*
X40232805Y-41848427D01*
X40135536Y-41790858D01*
X40135125Y-41790603D01*
X40095230Y-41764709D01*
X39996440Y-41720352D01*
X39996439Y-41720351D01*
X39930913Y-41707397D01*
X39858725Y-41703313D01*
X39850659Y-41699425D01*
X39847686Y-41691632D01*
X39847686Y-41513582D01*
X39851113Y-41505309D01*
X39858550Y-41501913D01*
X39948496Y-41495489D01*
X40023698Y-41476153D01*
X40082805Y-41448072D01*
X40135176Y-41414739D01*
X40135463Y-41414563D01*
X40237861Y-41354568D01*
X40239506Y-41353772D01*
X40301878Y-41329447D01*
X40303188Y-41329025D01*
X40371463Y-41311513D01*
X40380327Y-41312777D01*
G37*
G04 #@! TD.AperFunction*
G04 #@! TA.AperFunction,Conductor*
G36*
X28182952Y-57459344D02*
G01*
X28308851Y-57585243D01*
X28312278Y-57593516D01*
X28309420Y-57601179D01*
X28250360Y-57669323D01*
X28210857Y-57736172D01*
X28188922Y-57797814D01*
X28175460Y-57858411D01*
X28175358Y-57858830D01*
X28145401Y-57973560D01*
X28144795Y-57975306D01*
X28117896Y-58036600D01*
X28117251Y-58037856D01*
X28081370Y-58098494D01*
X28074208Y-58103869D01*
X28065343Y-58102605D01*
X28064845Y-58102292D01*
X27873446Y-57975306D01*
X27826922Y-57944439D01*
X27823641Y-57941158D01*
X27728542Y-57797821D01*
X27665811Y-57703271D01*
X27664093Y-57694484D01*
X27669093Y-57687055D01*
X27669592Y-57686742D01*
X27733206Y-57649312D01*
X27734506Y-57648654D01*
X27798053Y-57621374D01*
X27799759Y-57620793D01*
X27909247Y-57592721D01*
X27909688Y-57592617D01*
X27956236Y-57582711D01*
X28057463Y-57544219D01*
X28112956Y-57507046D01*
X28166887Y-57458889D01*
X28175340Y-57455936D01*
X28182952Y-57459344D01*
G37*
G04 #@! TD.AperFunction*
G04 #@! TA.AperFunction,Conductor*
G36*
X34020320Y-47540129D02*
G01*
X34298569Y-47594677D01*
X34306026Y-47599629D01*
X34306066Y-47599689D01*
X34462363Y-47835267D01*
X34464082Y-47844055D01*
X34459082Y-47851484D01*
X34458345Y-47851935D01*
X34340670Y-47918045D01*
X34339079Y-47918788D01*
X34240515Y-47956074D01*
X34240121Y-47956215D01*
X34224075Y-47961636D01*
X34113956Y-48010273D01*
X34053350Y-48052780D01*
X34053341Y-48052786D01*
X33990983Y-48109293D01*
X33982552Y-48112309D01*
X33974854Y-48108896D01*
X33849109Y-47983151D01*
X33845682Y-47974878D01*
X33848637Y-47967107D01*
X33913971Y-47893611D01*
X33954560Y-47825503D01*
X33974710Y-47758960D01*
X33986054Y-47681916D01*
X34006554Y-47549824D01*
X34011209Y-47542175D01*
X34019910Y-47540057D01*
X34020320Y-47540129D01*
G37*
G04 #@! TD.AperFunction*
G04 #@! TA.AperFunction,Conductor*
G36*
X29574036Y-53668615D02*
G01*
X29577433Y-53676055D01*
X29583856Y-53765996D01*
X29603191Y-53841194D01*
X29603191Y-53841196D01*
X29631275Y-53900310D01*
X29664579Y-53952635D01*
X29664804Y-53953002D01*
X29724771Y-54055354D01*
X29725576Y-54057018D01*
X29749892Y-54119363D01*
X29750325Y-54120707D01*
X29767832Y-54188964D01*
X29766568Y-54197829D01*
X29759406Y-54203204D01*
X29758819Y-54203339D01*
X29478977Y-54259954D01*
X29474337Y-54259954D01*
X29194524Y-54203345D01*
X29187095Y-54198345D01*
X29185376Y-54189557D01*
X29185513Y-54188964D01*
X29204023Y-54117529D01*
X29204471Y-54116161D01*
X29230124Y-54051920D01*
X29230914Y-54050313D01*
X29288509Y-53953002D01*
X29288726Y-53952651D01*
X29314635Y-53912734D01*
X29320214Y-53900310D01*
X29358993Y-53813942D01*
X29358994Y-53813941D01*
X29368473Y-53765998D01*
X29371949Y-53748413D01*
X29376033Y-53676227D01*
X29379921Y-53668161D01*
X29387714Y-53665188D01*
X29565763Y-53665188D01*
X29574036Y-53668615D01*
G37*
G04 #@! TD.AperFunction*
G04 #@! TA.AperFunction,Conductor*
G36*
X31268970Y-46352242D02*
G01*
X31269458Y-46352548D01*
X31460867Y-46479541D01*
X31507391Y-46510408D01*
X31510672Y-46513689D01*
X31668501Y-46751575D01*
X31670220Y-46760363D01*
X31665220Y-46767792D01*
X31664685Y-46768127D01*
X31601116Y-46805530D01*
X31599798Y-46806197D01*
X31536262Y-46833471D01*
X31534553Y-46834053D01*
X31425081Y-46862121D01*
X31424611Y-46862232D01*
X31394360Y-46868670D01*
X31378077Y-46872136D01*
X31378074Y-46872136D01*
X31378074Y-46872137D01*
X31276850Y-46910629D01*
X31221362Y-46947798D01*
X31167427Y-46995957D01*
X31158973Y-46998911D01*
X31151361Y-46995503D01*
X31025462Y-46869604D01*
X31022035Y-46861331D01*
X31024892Y-46853670D01*
X31083951Y-46785526D01*
X31123454Y-46718678D01*
X31145393Y-46657027D01*
X31158861Y-46596398D01*
X31158943Y-46596062D01*
X31188914Y-46481278D01*
X31189514Y-46479549D01*
X31216418Y-46418243D01*
X31217062Y-46416991D01*
X31252944Y-46356352D01*
X31260105Y-46350978D01*
X31268970Y-46352242D01*
G37*
G04 #@! TD.AperFunction*
G04 #@! TA.AperFunction,Conductor*
G36*
X53418062Y-56001512D02*
G01*
X53423437Y-56008674D01*
X53423572Y-56009261D01*
X53480187Y-56289104D01*
X53480187Y-56293744D01*
X53423578Y-56573556D01*
X53418578Y-56580985D01*
X53409790Y-56582704D01*
X53409175Y-56582562D01*
X53374419Y-56573556D01*
X53337776Y-56564061D01*
X53336380Y-56563603D01*
X53308326Y-56552400D01*
X53272160Y-56537959D01*
X53270540Y-56537162D01*
X53173271Y-56479593D01*
X53172860Y-56479338D01*
X53132965Y-56453444D01*
X53034175Y-56409087D01*
X53034174Y-56409086D01*
X52968648Y-56396132D01*
X52896460Y-56392048D01*
X52888394Y-56388160D01*
X52885421Y-56380367D01*
X52885421Y-56202317D01*
X52888848Y-56194044D01*
X52896285Y-56190648D01*
X52986231Y-56184224D01*
X53061433Y-56164888D01*
X53120540Y-56136807D01*
X53172911Y-56103474D01*
X53173198Y-56103298D01*
X53275596Y-56043303D01*
X53277241Y-56042507D01*
X53339613Y-56018182D01*
X53340923Y-56017760D01*
X53409198Y-56000248D01*
X53418062Y-56001512D01*
G37*
G04 #@! TD.AperFunction*
G04 #@! TA.AperFunction,Conductor*
G36*
X40977116Y-34156280D02*
G01*
X41048546Y-34174789D01*
X41049923Y-34175240D01*
X41114152Y-34200888D01*
X41115772Y-34201685D01*
X41213041Y-34259254D01*
X41213450Y-34259507D01*
X41253347Y-34285402D01*
X41253351Y-34285404D01*
X41253350Y-34285404D01*
X41352138Y-34329760D01*
X41352139Y-34329761D01*
X41352142Y-34329761D01*
X41352143Y-34329762D01*
X41417668Y-34342716D01*
X41489855Y-34346799D01*
X41497920Y-34350687D01*
X41500893Y-34358480D01*
X41500893Y-34536530D01*
X41497466Y-34544803D01*
X41490026Y-34548200D01*
X41400083Y-34554623D01*
X41324885Y-34573958D01*
X41324883Y-34573958D01*
X41265769Y-34602042D01*
X41213444Y-34635346D01*
X41213077Y-34635571D01*
X41110726Y-34695538D01*
X41109062Y-34696343D01*
X41046717Y-34720659D01*
X41045373Y-34721092D01*
X40977116Y-34738599D01*
X40968251Y-34737335D01*
X40962876Y-34730173D01*
X40962741Y-34729586D01*
X40956016Y-34696343D01*
X40906126Y-34449742D01*
X40906126Y-34445104D01*
X40926014Y-34346799D01*
X40962735Y-34165290D01*
X40967735Y-34157862D01*
X40976523Y-34156143D01*
X40977116Y-34156280D01*
G37*
G04 #@! TD.AperFunction*
G04 #@! TA.AperFunction,Conductor*
G36*
X40247952Y-33964344D02*
G01*
X40373851Y-34090243D01*
X40377278Y-34098516D01*
X40374420Y-34106179D01*
X40315360Y-34174323D01*
X40275857Y-34241172D01*
X40253922Y-34302814D01*
X40240460Y-34363411D01*
X40240358Y-34363830D01*
X40210401Y-34478560D01*
X40209795Y-34480306D01*
X40182896Y-34541600D01*
X40182251Y-34542856D01*
X40146370Y-34603494D01*
X40139208Y-34608869D01*
X40130343Y-34607605D01*
X40129845Y-34607292D01*
X39938446Y-34480306D01*
X39891922Y-34449439D01*
X39888641Y-34446158D01*
X39793542Y-34302821D01*
X39730811Y-34208271D01*
X39729093Y-34199484D01*
X39734093Y-34192055D01*
X39734592Y-34191742D01*
X39798206Y-34154312D01*
X39799506Y-34153654D01*
X39863053Y-34126374D01*
X39864759Y-34125793D01*
X39974247Y-34097721D01*
X39974688Y-34097617D01*
X40021236Y-34087711D01*
X40122463Y-34049219D01*
X40177956Y-34012046D01*
X40231887Y-33963889D01*
X40240340Y-33960936D01*
X40247952Y-33964344D01*
G37*
G04 #@! TD.AperFunction*
G04 #@! TA.AperFunction,Conductor*
G36*
X54053062Y-55366512D02*
G01*
X54058437Y-55373674D01*
X54058572Y-55374261D01*
X54115187Y-55654104D01*
X54115187Y-55658744D01*
X54058578Y-55938556D01*
X54053578Y-55945985D01*
X54044790Y-55947704D01*
X54044175Y-55947562D01*
X54009419Y-55938556D01*
X53972776Y-55929061D01*
X53971380Y-55928603D01*
X53943326Y-55917400D01*
X53907160Y-55902959D01*
X53905540Y-55902162D01*
X53808271Y-55844593D01*
X53807860Y-55844338D01*
X53767965Y-55818444D01*
X53669175Y-55774087D01*
X53669174Y-55774086D01*
X53603648Y-55761132D01*
X53531460Y-55757048D01*
X53523394Y-55753160D01*
X53520421Y-55745367D01*
X53520421Y-55567317D01*
X53523848Y-55559044D01*
X53531285Y-55555648D01*
X53621231Y-55549224D01*
X53696433Y-55529888D01*
X53755540Y-55501807D01*
X53807911Y-55468474D01*
X53808198Y-55468298D01*
X53910596Y-55408303D01*
X53912241Y-55407507D01*
X53974613Y-55383182D01*
X53975923Y-55382760D01*
X54044198Y-55365248D01*
X54053062Y-55366512D01*
G37*
G04 #@! TD.AperFunction*
G04 #@! TA.AperFunction,Conductor*
G36*
X39231952Y-33964344D02*
G01*
X39357851Y-34090243D01*
X39361278Y-34098516D01*
X39358420Y-34106179D01*
X39299360Y-34174323D01*
X39259857Y-34241172D01*
X39237922Y-34302814D01*
X39224460Y-34363411D01*
X39224358Y-34363830D01*
X39194401Y-34478560D01*
X39193795Y-34480306D01*
X39166896Y-34541600D01*
X39166251Y-34542856D01*
X39130370Y-34603494D01*
X39123208Y-34608869D01*
X39114343Y-34607605D01*
X39113845Y-34607292D01*
X38922446Y-34480306D01*
X38875922Y-34449439D01*
X38872641Y-34446158D01*
X38777542Y-34302821D01*
X38714811Y-34208271D01*
X38713093Y-34199484D01*
X38718093Y-34192055D01*
X38718592Y-34191742D01*
X38782206Y-34154312D01*
X38783506Y-34153654D01*
X38847053Y-34126374D01*
X38848759Y-34125793D01*
X38958247Y-34097721D01*
X38958688Y-34097617D01*
X39005236Y-34087711D01*
X39106463Y-34049219D01*
X39161956Y-34012046D01*
X39215887Y-33963889D01*
X39224340Y-33960936D01*
X39231952Y-33964344D01*
G37*
G04 #@! TD.AperFunction*
G04 #@! TA.AperFunction,Conductor*
G36*
X54688062Y-54731512D02*
G01*
X54693437Y-54738674D01*
X54693572Y-54739261D01*
X54750187Y-55019104D01*
X54750187Y-55023744D01*
X54693578Y-55303556D01*
X54688578Y-55310985D01*
X54679790Y-55312704D01*
X54679175Y-55312562D01*
X54644419Y-55303556D01*
X54607776Y-55294061D01*
X54606380Y-55293603D01*
X54578326Y-55282400D01*
X54542160Y-55267959D01*
X54540540Y-55267162D01*
X54443271Y-55209593D01*
X54442860Y-55209338D01*
X54402965Y-55183444D01*
X54304175Y-55139087D01*
X54304174Y-55139086D01*
X54238648Y-55126132D01*
X54166460Y-55122048D01*
X54158394Y-55118160D01*
X54155421Y-55110367D01*
X54155421Y-54932317D01*
X54158848Y-54924044D01*
X54166285Y-54920648D01*
X54256231Y-54914224D01*
X54331433Y-54894888D01*
X54390540Y-54866807D01*
X54442911Y-54833474D01*
X54443198Y-54833298D01*
X54545596Y-54773303D01*
X54547241Y-54772507D01*
X54609613Y-54748182D01*
X54610923Y-54747760D01*
X54679198Y-54730248D01*
X54688062Y-54731512D01*
G37*
G04 #@! TD.AperFunction*
M02*
