%TF.GenerationSoftware,KiCad,Pcbnew,9.0.5*%
%TF.CreationDate,2025-12-05T09:09:27+01:00*%
%TF.ProjectId,PCB Main,50434220-4d61-4696-9e2e-6b696361645f,rev?*%
%TF.SameCoordinates,Original*%
%TF.FileFunction,Drillmap*%
%TF.FilePolarity,Positive*%
%FSLAX45Y45*%
G04 Gerber Fmt 4.5, Leading zero omitted, Abs format (unit mm)*
G04 Created by KiCad (PCBNEW 9.0.5) date 2025-12-05 09:09:27*
%MOMM*%
%LPD*%
G01*
G04 APERTURE LIST*
%ADD10C,0.050000*%
%ADD11C,0.200000*%
%ADD12C,0.220000*%
G04 APERTURE END LIST*
D10*
X4286266Y-1596252D02*
X4286266Y-2061580D01*
X4424851Y-2200142D01*
X7900666Y-2200142D01*
X7900666Y-7089642D01*
X1487166Y-7089642D01*
X1486285Y-1590978D01*
X1636096Y-1441142D01*
X4131156Y-1441142D01*
X4286266Y-1596252D01*
D11*
D12*
X1618466Y-2344142D02*
X1838466Y-2564142D01*
X1838466Y-2344142D02*
X1618466Y-2564142D01*
X1618466Y-6744142D02*
X1838466Y-6964142D01*
X1838466Y-6744142D02*
X1618466Y-6964142D01*
X7549366Y-2344142D02*
X7769366Y-2564142D01*
X7769366Y-2344142D02*
X7549366Y-2564142D01*
X7549366Y-6744142D02*
X7769366Y-6964142D01*
X7769366Y-6744142D02*
X7549366Y-6964142D01*
D11*
X1744562Y-7403626D02*
X1744562Y-7203626D01*
X1744562Y-7203626D02*
X1792181Y-7203626D01*
X1792181Y-7203626D02*
X1820752Y-7213150D01*
X1820752Y-7213150D02*
X1839800Y-7232198D01*
X1839800Y-7232198D02*
X1849324Y-7251245D01*
X1849324Y-7251245D02*
X1858847Y-7289340D01*
X1858847Y-7289340D02*
X1858847Y-7317912D01*
X1858847Y-7317912D02*
X1849324Y-7356007D01*
X1849324Y-7356007D02*
X1839800Y-7375055D01*
X1839800Y-7375055D02*
X1820752Y-7394102D01*
X1820752Y-7394102D02*
X1792181Y-7403626D01*
X1792181Y-7403626D02*
X1744562Y-7403626D01*
X1944562Y-7403626D02*
X1944562Y-7270293D01*
X1944562Y-7308388D02*
X1954085Y-7289340D01*
X1954085Y-7289340D02*
X1963609Y-7279817D01*
X1963609Y-7279817D02*
X1982657Y-7270293D01*
X1982657Y-7270293D02*
X2001705Y-7270293D01*
X2068371Y-7403626D02*
X2068371Y-7270293D01*
X2068371Y-7203626D02*
X2058847Y-7213150D01*
X2058847Y-7213150D02*
X2068371Y-7222674D01*
X2068371Y-7222674D02*
X2077895Y-7213150D01*
X2077895Y-7213150D02*
X2068371Y-7203626D01*
X2068371Y-7203626D02*
X2068371Y-7222674D01*
X2192181Y-7403626D02*
X2173133Y-7394102D01*
X2173133Y-7394102D02*
X2163609Y-7375055D01*
X2163609Y-7375055D02*
X2163609Y-7203626D01*
X2296943Y-7403626D02*
X2277895Y-7394102D01*
X2277895Y-7394102D02*
X2268371Y-7375055D01*
X2268371Y-7375055D02*
X2268371Y-7203626D01*
X2525514Y-7403626D02*
X2525514Y-7203626D01*
X2525514Y-7203626D02*
X2592181Y-7346483D01*
X2592181Y-7346483D02*
X2658847Y-7203626D01*
X2658847Y-7203626D02*
X2658847Y-7403626D01*
X2839800Y-7403626D02*
X2839800Y-7298864D01*
X2839800Y-7298864D02*
X2830276Y-7279817D01*
X2830276Y-7279817D02*
X2811228Y-7270293D01*
X2811228Y-7270293D02*
X2773133Y-7270293D01*
X2773133Y-7270293D02*
X2754086Y-7279817D01*
X2839800Y-7394102D02*
X2820752Y-7403626D01*
X2820752Y-7403626D02*
X2773133Y-7403626D01*
X2773133Y-7403626D02*
X2754086Y-7394102D01*
X2754086Y-7394102D02*
X2744562Y-7375055D01*
X2744562Y-7375055D02*
X2744562Y-7356007D01*
X2744562Y-7356007D02*
X2754086Y-7336959D01*
X2754086Y-7336959D02*
X2773133Y-7327436D01*
X2773133Y-7327436D02*
X2820752Y-7327436D01*
X2820752Y-7327436D02*
X2839800Y-7317912D01*
X2935038Y-7270293D02*
X2935038Y-7470293D01*
X2935038Y-7279817D02*
X2954085Y-7270293D01*
X2954085Y-7270293D02*
X2992181Y-7270293D01*
X2992181Y-7270293D02*
X3011228Y-7279817D01*
X3011228Y-7279817D02*
X3020752Y-7289340D01*
X3020752Y-7289340D02*
X3030276Y-7308388D01*
X3030276Y-7308388D02*
X3030276Y-7365531D01*
X3030276Y-7365531D02*
X3020752Y-7384578D01*
X3020752Y-7384578D02*
X3011228Y-7394102D01*
X3011228Y-7394102D02*
X2992181Y-7403626D01*
X2992181Y-7403626D02*
X2954085Y-7403626D01*
X2954085Y-7403626D02*
X2935038Y-7394102D01*
X3115990Y-7384578D02*
X3125514Y-7394102D01*
X3125514Y-7394102D02*
X3115990Y-7403626D01*
X3115990Y-7403626D02*
X3106466Y-7394102D01*
X3106466Y-7394102D02*
X3115990Y-7384578D01*
X3115990Y-7384578D02*
X3115990Y-7403626D01*
X3115990Y-7279817D02*
X3125514Y-7289340D01*
X3125514Y-7289340D02*
X3115990Y-7298864D01*
X3115990Y-7298864D02*
X3106466Y-7289340D01*
X3106466Y-7289340D02*
X3115990Y-7279817D01*
X3115990Y-7279817D02*
X3115990Y-7298864D01*
X1283785Y-7632142D02*
X1483785Y-7832142D01*
X1483785Y-7632142D02*
X1283785Y-7832142D01*
X1735038Y-7642674D02*
X1744562Y-7633150D01*
X1744562Y-7633150D02*
X1763609Y-7623626D01*
X1763609Y-7623626D02*
X1811228Y-7623626D01*
X1811228Y-7623626D02*
X1830276Y-7633150D01*
X1830276Y-7633150D02*
X1839800Y-7642674D01*
X1839800Y-7642674D02*
X1849324Y-7661721D01*
X1849324Y-7661721D02*
X1849324Y-7680769D01*
X1849324Y-7680769D02*
X1839800Y-7709340D01*
X1839800Y-7709340D02*
X1725514Y-7823626D01*
X1725514Y-7823626D02*
X1849324Y-7823626D01*
X1935038Y-7804578D02*
X1944562Y-7814102D01*
X1944562Y-7814102D02*
X1935038Y-7823626D01*
X1935038Y-7823626D02*
X1925514Y-7814102D01*
X1925514Y-7814102D02*
X1935038Y-7804578D01*
X1935038Y-7804578D02*
X1935038Y-7823626D01*
X2020752Y-7642674D02*
X2030276Y-7633150D01*
X2030276Y-7633150D02*
X2049324Y-7623626D01*
X2049324Y-7623626D02*
X2096943Y-7623626D01*
X2096943Y-7623626D02*
X2115990Y-7633150D01*
X2115990Y-7633150D02*
X2125514Y-7642674D01*
X2125514Y-7642674D02*
X2135038Y-7661721D01*
X2135038Y-7661721D02*
X2135038Y-7680769D01*
X2135038Y-7680769D02*
X2125514Y-7709340D01*
X2125514Y-7709340D02*
X2011228Y-7823626D01*
X2011228Y-7823626D02*
X2135038Y-7823626D01*
X2258847Y-7623626D02*
X2277895Y-7623626D01*
X2277895Y-7623626D02*
X2296943Y-7633150D01*
X2296943Y-7633150D02*
X2306467Y-7642674D01*
X2306467Y-7642674D02*
X2315990Y-7661721D01*
X2315990Y-7661721D02*
X2325514Y-7699817D01*
X2325514Y-7699817D02*
X2325514Y-7747436D01*
X2325514Y-7747436D02*
X2315990Y-7785531D01*
X2315990Y-7785531D02*
X2306467Y-7804578D01*
X2306467Y-7804578D02*
X2296943Y-7814102D01*
X2296943Y-7814102D02*
X2277895Y-7823626D01*
X2277895Y-7823626D02*
X2258847Y-7823626D01*
X2258847Y-7823626D02*
X2239800Y-7814102D01*
X2239800Y-7814102D02*
X2230276Y-7804578D01*
X2230276Y-7804578D02*
X2220752Y-7785531D01*
X2220752Y-7785531D02*
X2211228Y-7747436D01*
X2211228Y-7747436D02*
X2211228Y-7699817D01*
X2211228Y-7699817D02*
X2220752Y-7661721D01*
X2220752Y-7661721D02*
X2230276Y-7642674D01*
X2230276Y-7642674D02*
X2239800Y-7633150D01*
X2239800Y-7633150D02*
X2258847Y-7623626D01*
X2449324Y-7623626D02*
X2468371Y-7623626D01*
X2468371Y-7623626D02*
X2487419Y-7633150D01*
X2487419Y-7633150D02*
X2496943Y-7642674D01*
X2496943Y-7642674D02*
X2506467Y-7661721D01*
X2506467Y-7661721D02*
X2515990Y-7699817D01*
X2515990Y-7699817D02*
X2515990Y-7747436D01*
X2515990Y-7747436D02*
X2506467Y-7785531D01*
X2506467Y-7785531D02*
X2496943Y-7804578D01*
X2496943Y-7804578D02*
X2487419Y-7814102D01*
X2487419Y-7814102D02*
X2468371Y-7823626D01*
X2468371Y-7823626D02*
X2449324Y-7823626D01*
X2449324Y-7823626D02*
X2430276Y-7814102D01*
X2430276Y-7814102D02*
X2420752Y-7804578D01*
X2420752Y-7804578D02*
X2411228Y-7785531D01*
X2411228Y-7785531D02*
X2401705Y-7747436D01*
X2401705Y-7747436D02*
X2401705Y-7699817D01*
X2401705Y-7699817D02*
X2411228Y-7661721D01*
X2411228Y-7661721D02*
X2420752Y-7642674D01*
X2420752Y-7642674D02*
X2430276Y-7633150D01*
X2430276Y-7633150D02*
X2449324Y-7623626D01*
X2601705Y-7823626D02*
X2601705Y-7690293D01*
X2601705Y-7709340D02*
X2611228Y-7699817D01*
X2611228Y-7699817D02*
X2630276Y-7690293D01*
X2630276Y-7690293D02*
X2658848Y-7690293D01*
X2658848Y-7690293D02*
X2677895Y-7699817D01*
X2677895Y-7699817D02*
X2687419Y-7718864D01*
X2687419Y-7718864D02*
X2687419Y-7823626D01*
X2687419Y-7718864D02*
X2696943Y-7699817D01*
X2696943Y-7699817D02*
X2715990Y-7690293D01*
X2715990Y-7690293D02*
X2744562Y-7690293D01*
X2744562Y-7690293D02*
X2763609Y-7699817D01*
X2763609Y-7699817D02*
X2773133Y-7718864D01*
X2773133Y-7718864D02*
X2773133Y-7823626D01*
X2868371Y-7823626D02*
X2868371Y-7690293D01*
X2868371Y-7709340D02*
X2877895Y-7699817D01*
X2877895Y-7699817D02*
X2896943Y-7690293D01*
X2896943Y-7690293D02*
X2925514Y-7690293D01*
X2925514Y-7690293D02*
X2944562Y-7699817D01*
X2944562Y-7699817D02*
X2954086Y-7718864D01*
X2954086Y-7718864D02*
X2954086Y-7823626D01*
X2954086Y-7718864D02*
X2963609Y-7699817D01*
X2963609Y-7699817D02*
X2982657Y-7690293D01*
X2982657Y-7690293D02*
X3011228Y-7690293D01*
X3011228Y-7690293D02*
X3030276Y-7699817D01*
X3030276Y-7699817D02*
X3039800Y-7718864D01*
X3039800Y-7718864D02*
X3039800Y-7823626D01*
X3430276Y-7614102D02*
X3258848Y-7871245D01*
X3687419Y-7623626D02*
X3706467Y-7623626D01*
X3706467Y-7623626D02*
X3725514Y-7633150D01*
X3725514Y-7633150D02*
X3735038Y-7642674D01*
X3735038Y-7642674D02*
X3744562Y-7661721D01*
X3744562Y-7661721D02*
X3754086Y-7699817D01*
X3754086Y-7699817D02*
X3754086Y-7747436D01*
X3754086Y-7747436D02*
X3744562Y-7785531D01*
X3744562Y-7785531D02*
X3735038Y-7804578D01*
X3735038Y-7804578D02*
X3725514Y-7814102D01*
X3725514Y-7814102D02*
X3706467Y-7823626D01*
X3706467Y-7823626D02*
X3687419Y-7823626D01*
X3687419Y-7823626D02*
X3668371Y-7814102D01*
X3668371Y-7814102D02*
X3658848Y-7804578D01*
X3658848Y-7804578D02*
X3649324Y-7785531D01*
X3649324Y-7785531D02*
X3639800Y-7747436D01*
X3639800Y-7747436D02*
X3639800Y-7699817D01*
X3639800Y-7699817D02*
X3649324Y-7661721D01*
X3649324Y-7661721D02*
X3658848Y-7642674D01*
X3658848Y-7642674D02*
X3668371Y-7633150D01*
X3668371Y-7633150D02*
X3687419Y-7623626D01*
X3839800Y-7804578D02*
X3849324Y-7814102D01*
X3849324Y-7814102D02*
X3839800Y-7823626D01*
X3839800Y-7823626D02*
X3830276Y-7814102D01*
X3830276Y-7814102D02*
X3839800Y-7804578D01*
X3839800Y-7804578D02*
X3839800Y-7823626D01*
X3973133Y-7623626D02*
X3992181Y-7623626D01*
X3992181Y-7623626D02*
X4011229Y-7633150D01*
X4011229Y-7633150D02*
X4020752Y-7642674D01*
X4020752Y-7642674D02*
X4030276Y-7661721D01*
X4030276Y-7661721D02*
X4039800Y-7699817D01*
X4039800Y-7699817D02*
X4039800Y-7747436D01*
X4039800Y-7747436D02*
X4030276Y-7785531D01*
X4030276Y-7785531D02*
X4020752Y-7804578D01*
X4020752Y-7804578D02*
X4011229Y-7814102D01*
X4011229Y-7814102D02*
X3992181Y-7823626D01*
X3992181Y-7823626D02*
X3973133Y-7823626D01*
X3973133Y-7823626D02*
X3954086Y-7814102D01*
X3954086Y-7814102D02*
X3944562Y-7804578D01*
X3944562Y-7804578D02*
X3935038Y-7785531D01*
X3935038Y-7785531D02*
X3925514Y-7747436D01*
X3925514Y-7747436D02*
X3925514Y-7699817D01*
X3925514Y-7699817D02*
X3935038Y-7661721D01*
X3935038Y-7661721D02*
X3944562Y-7642674D01*
X3944562Y-7642674D02*
X3954086Y-7633150D01*
X3954086Y-7633150D02*
X3973133Y-7623626D01*
X4154086Y-7709340D02*
X4135038Y-7699817D01*
X4135038Y-7699817D02*
X4125514Y-7690293D01*
X4125514Y-7690293D02*
X4115990Y-7671245D01*
X4115990Y-7671245D02*
X4115990Y-7661721D01*
X4115990Y-7661721D02*
X4125514Y-7642674D01*
X4125514Y-7642674D02*
X4135038Y-7633150D01*
X4135038Y-7633150D02*
X4154086Y-7623626D01*
X4154086Y-7623626D02*
X4192181Y-7623626D01*
X4192181Y-7623626D02*
X4211229Y-7633150D01*
X4211229Y-7633150D02*
X4220752Y-7642674D01*
X4220752Y-7642674D02*
X4230276Y-7661721D01*
X4230276Y-7661721D02*
X4230276Y-7671245D01*
X4230276Y-7671245D02*
X4220752Y-7690293D01*
X4220752Y-7690293D02*
X4211229Y-7699817D01*
X4211229Y-7699817D02*
X4192181Y-7709340D01*
X4192181Y-7709340D02*
X4154086Y-7709340D01*
X4154086Y-7709340D02*
X4135038Y-7718864D01*
X4135038Y-7718864D02*
X4125514Y-7728388D01*
X4125514Y-7728388D02*
X4115990Y-7747436D01*
X4115990Y-7747436D02*
X4115990Y-7785531D01*
X4115990Y-7785531D02*
X4125514Y-7804578D01*
X4125514Y-7804578D02*
X4135038Y-7814102D01*
X4135038Y-7814102D02*
X4154086Y-7823626D01*
X4154086Y-7823626D02*
X4192181Y-7823626D01*
X4192181Y-7823626D02*
X4211229Y-7814102D01*
X4211229Y-7814102D02*
X4220752Y-7804578D01*
X4220752Y-7804578D02*
X4230276Y-7785531D01*
X4230276Y-7785531D02*
X4230276Y-7747436D01*
X4230276Y-7747436D02*
X4220752Y-7728388D01*
X4220752Y-7728388D02*
X4211229Y-7718864D01*
X4211229Y-7718864D02*
X4192181Y-7709340D01*
X4401705Y-7623626D02*
X4363610Y-7623626D01*
X4363610Y-7623626D02*
X4344562Y-7633150D01*
X4344562Y-7633150D02*
X4335038Y-7642674D01*
X4335038Y-7642674D02*
X4315991Y-7671245D01*
X4315991Y-7671245D02*
X4306467Y-7709340D01*
X4306467Y-7709340D02*
X4306467Y-7785531D01*
X4306467Y-7785531D02*
X4315991Y-7804578D01*
X4315991Y-7804578D02*
X4325514Y-7814102D01*
X4325514Y-7814102D02*
X4344562Y-7823626D01*
X4344562Y-7823626D02*
X4382657Y-7823626D01*
X4382657Y-7823626D02*
X4401705Y-7814102D01*
X4401705Y-7814102D02*
X4411229Y-7804578D01*
X4411229Y-7804578D02*
X4420752Y-7785531D01*
X4420752Y-7785531D02*
X4420752Y-7737912D01*
X4420752Y-7737912D02*
X4411229Y-7718864D01*
X4411229Y-7718864D02*
X4401705Y-7709340D01*
X4401705Y-7709340D02*
X4382657Y-7699817D01*
X4382657Y-7699817D02*
X4344562Y-7699817D01*
X4344562Y-7699817D02*
X4325514Y-7709340D01*
X4325514Y-7709340D02*
X4315991Y-7718864D01*
X4315991Y-7718864D02*
X4306467Y-7737912D01*
X4592181Y-7623626D02*
X4554086Y-7623626D01*
X4554086Y-7623626D02*
X4535038Y-7633150D01*
X4535038Y-7633150D02*
X4525514Y-7642674D01*
X4525514Y-7642674D02*
X4506467Y-7671245D01*
X4506467Y-7671245D02*
X4496943Y-7709340D01*
X4496943Y-7709340D02*
X4496943Y-7785531D01*
X4496943Y-7785531D02*
X4506467Y-7804578D01*
X4506467Y-7804578D02*
X4515991Y-7814102D01*
X4515991Y-7814102D02*
X4535038Y-7823626D01*
X4535038Y-7823626D02*
X4573133Y-7823626D01*
X4573133Y-7823626D02*
X4592181Y-7814102D01*
X4592181Y-7814102D02*
X4601705Y-7804578D01*
X4601705Y-7804578D02*
X4611229Y-7785531D01*
X4611229Y-7785531D02*
X4611229Y-7737912D01*
X4611229Y-7737912D02*
X4601705Y-7718864D01*
X4601705Y-7718864D02*
X4592181Y-7709340D01*
X4592181Y-7709340D02*
X4573133Y-7699817D01*
X4573133Y-7699817D02*
X4535038Y-7699817D01*
X4535038Y-7699817D02*
X4515991Y-7709340D01*
X4515991Y-7709340D02*
X4506467Y-7718864D01*
X4506467Y-7718864D02*
X4496943Y-7737912D01*
X4687419Y-7623626D02*
X4687419Y-7661721D01*
X4763610Y-7623626D02*
X4763610Y-7661721D01*
X5058848Y-7899817D02*
X5049324Y-7890293D01*
X5049324Y-7890293D02*
X5030276Y-7861721D01*
X5030276Y-7861721D02*
X5020753Y-7842674D01*
X5020753Y-7842674D02*
X5011229Y-7814102D01*
X5011229Y-7814102D02*
X5001705Y-7766483D01*
X5001705Y-7766483D02*
X5001705Y-7728388D01*
X5001705Y-7728388D02*
X5011229Y-7680769D01*
X5011229Y-7680769D02*
X5020753Y-7652198D01*
X5020753Y-7652198D02*
X5030276Y-7633150D01*
X5030276Y-7633150D02*
X5049324Y-7604578D01*
X5049324Y-7604578D02*
X5058848Y-7595055D01*
X5220753Y-7690293D02*
X5220753Y-7823626D01*
X5173133Y-7614102D02*
X5125514Y-7756959D01*
X5125514Y-7756959D02*
X5249324Y-7756959D01*
X5477895Y-7823626D02*
X5477895Y-7623626D01*
X5563610Y-7823626D02*
X5563610Y-7718864D01*
X5563610Y-7718864D02*
X5554086Y-7699817D01*
X5554086Y-7699817D02*
X5535038Y-7690293D01*
X5535038Y-7690293D02*
X5506467Y-7690293D01*
X5506467Y-7690293D02*
X5487419Y-7699817D01*
X5487419Y-7699817D02*
X5477895Y-7709340D01*
X5687419Y-7823626D02*
X5668372Y-7814102D01*
X5668372Y-7814102D02*
X5658848Y-7804578D01*
X5658848Y-7804578D02*
X5649324Y-7785531D01*
X5649324Y-7785531D02*
X5649324Y-7728388D01*
X5649324Y-7728388D02*
X5658848Y-7709340D01*
X5658848Y-7709340D02*
X5668372Y-7699817D01*
X5668372Y-7699817D02*
X5687419Y-7690293D01*
X5687419Y-7690293D02*
X5715991Y-7690293D01*
X5715991Y-7690293D02*
X5735038Y-7699817D01*
X5735038Y-7699817D02*
X5744562Y-7709340D01*
X5744562Y-7709340D02*
X5754086Y-7728388D01*
X5754086Y-7728388D02*
X5754086Y-7785531D01*
X5754086Y-7785531D02*
X5744562Y-7804578D01*
X5744562Y-7804578D02*
X5735038Y-7814102D01*
X5735038Y-7814102D02*
X5715991Y-7823626D01*
X5715991Y-7823626D02*
X5687419Y-7823626D01*
X5868372Y-7823626D02*
X5849324Y-7814102D01*
X5849324Y-7814102D02*
X5839800Y-7795055D01*
X5839800Y-7795055D02*
X5839800Y-7623626D01*
X6020753Y-7814102D02*
X6001705Y-7823626D01*
X6001705Y-7823626D02*
X5963610Y-7823626D01*
X5963610Y-7823626D02*
X5944562Y-7814102D01*
X5944562Y-7814102D02*
X5935038Y-7795055D01*
X5935038Y-7795055D02*
X5935038Y-7718864D01*
X5935038Y-7718864D02*
X5944562Y-7699817D01*
X5944562Y-7699817D02*
X5963610Y-7690293D01*
X5963610Y-7690293D02*
X6001705Y-7690293D01*
X6001705Y-7690293D02*
X6020753Y-7699817D01*
X6020753Y-7699817D02*
X6030276Y-7718864D01*
X6030276Y-7718864D02*
X6030276Y-7737912D01*
X6030276Y-7737912D02*
X5935038Y-7756959D01*
X6106467Y-7814102D02*
X6125514Y-7823626D01*
X6125514Y-7823626D02*
X6163610Y-7823626D01*
X6163610Y-7823626D02*
X6182657Y-7814102D01*
X6182657Y-7814102D02*
X6192181Y-7795055D01*
X6192181Y-7795055D02*
X6192181Y-7785531D01*
X6192181Y-7785531D02*
X6182657Y-7766483D01*
X6182657Y-7766483D02*
X6163610Y-7756959D01*
X6163610Y-7756959D02*
X6135038Y-7756959D01*
X6135038Y-7756959D02*
X6115991Y-7747436D01*
X6115991Y-7747436D02*
X6106467Y-7728388D01*
X6106467Y-7728388D02*
X6106467Y-7718864D01*
X6106467Y-7718864D02*
X6115991Y-7699817D01*
X6115991Y-7699817D02*
X6135038Y-7690293D01*
X6135038Y-7690293D02*
X6163610Y-7690293D01*
X6163610Y-7690293D02*
X6182657Y-7699817D01*
X6258848Y-7899817D02*
X6268372Y-7890293D01*
X6268372Y-7890293D02*
X6287419Y-7861721D01*
X6287419Y-7861721D02*
X6296943Y-7842674D01*
X6296943Y-7842674D02*
X6306467Y-7814102D01*
X6306467Y-7814102D02*
X6315991Y-7766483D01*
X6315991Y-7766483D02*
X6315991Y-7728388D01*
X6315991Y-7728388D02*
X6306467Y-7680769D01*
X6306467Y-7680769D02*
X6296943Y-7652198D01*
X6296943Y-7652198D02*
X6287419Y-7633150D01*
X6287419Y-7633150D02*
X6268372Y-7604578D01*
X6268372Y-7604578D02*
X6258848Y-7595055D01*
X6620753Y-7899817D02*
X6611229Y-7890293D01*
X6611229Y-7890293D02*
X6592181Y-7861721D01*
X6592181Y-7861721D02*
X6582657Y-7842674D01*
X6582657Y-7842674D02*
X6573134Y-7814102D01*
X6573134Y-7814102D02*
X6563610Y-7766483D01*
X6563610Y-7766483D02*
X6563610Y-7728388D01*
X6563610Y-7728388D02*
X6573134Y-7680769D01*
X6573134Y-7680769D02*
X6582657Y-7652198D01*
X6582657Y-7652198D02*
X6592181Y-7633150D01*
X6592181Y-7633150D02*
X6611229Y-7604578D01*
X6611229Y-7604578D02*
X6620753Y-7595055D01*
X6696943Y-7690293D02*
X6696943Y-7823626D01*
X6696943Y-7709340D02*
X6706467Y-7699817D01*
X6706467Y-7699817D02*
X6725514Y-7690293D01*
X6725514Y-7690293D02*
X6754086Y-7690293D01*
X6754086Y-7690293D02*
X6773134Y-7699817D01*
X6773134Y-7699817D02*
X6782657Y-7718864D01*
X6782657Y-7718864D02*
X6782657Y-7823626D01*
X6906467Y-7823626D02*
X6887419Y-7814102D01*
X6887419Y-7814102D02*
X6877895Y-7804578D01*
X6877895Y-7804578D02*
X6868372Y-7785531D01*
X6868372Y-7785531D02*
X6868372Y-7728388D01*
X6868372Y-7728388D02*
X6877895Y-7709340D01*
X6877895Y-7709340D02*
X6887419Y-7699817D01*
X6887419Y-7699817D02*
X6906467Y-7690293D01*
X6906467Y-7690293D02*
X6935038Y-7690293D01*
X6935038Y-7690293D02*
X6954086Y-7699817D01*
X6954086Y-7699817D02*
X6963610Y-7709340D01*
X6963610Y-7709340D02*
X6973134Y-7728388D01*
X6973134Y-7728388D02*
X6973134Y-7785531D01*
X6973134Y-7785531D02*
X6963610Y-7804578D01*
X6963610Y-7804578D02*
X6954086Y-7814102D01*
X6954086Y-7814102D02*
X6935038Y-7823626D01*
X6935038Y-7823626D02*
X6906467Y-7823626D01*
X7030276Y-7690293D02*
X7106467Y-7690293D01*
X7058848Y-7623626D02*
X7058848Y-7795055D01*
X7058848Y-7795055D02*
X7068372Y-7814102D01*
X7068372Y-7814102D02*
X7087419Y-7823626D01*
X7087419Y-7823626D02*
X7106467Y-7823626D01*
X7325515Y-7690293D02*
X7325515Y-7890293D01*
X7325515Y-7699817D02*
X7344562Y-7690293D01*
X7344562Y-7690293D02*
X7382657Y-7690293D01*
X7382657Y-7690293D02*
X7401705Y-7699817D01*
X7401705Y-7699817D02*
X7411229Y-7709340D01*
X7411229Y-7709340D02*
X7420753Y-7728388D01*
X7420753Y-7728388D02*
X7420753Y-7785531D01*
X7420753Y-7785531D02*
X7411229Y-7804578D01*
X7411229Y-7804578D02*
X7401705Y-7814102D01*
X7401705Y-7814102D02*
X7382657Y-7823626D01*
X7382657Y-7823626D02*
X7344562Y-7823626D01*
X7344562Y-7823626D02*
X7325515Y-7814102D01*
X7535038Y-7823626D02*
X7515991Y-7814102D01*
X7515991Y-7814102D02*
X7506467Y-7795055D01*
X7506467Y-7795055D02*
X7506467Y-7623626D01*
X7696943Y-7823626D02*
X7696943Y-7718864D01*
X7696943Y-7718864D02*
X7687419Y-7699817D01*
X7687419Y-7699817D02*
X7668372Y-7690293D01*
X7668372Y-7690293D02*
X7630276Y-7690293D01*
X7630276Y-7690293D02*
X7611229Y-7699817D01*
X7696943Y-7814102D02*
X7677896Y-7823626D01*
X7677896Y-7823626D02*
X7630276Y-7823626D01*
X7630276Y-7823626D02*
X7611229Y-7814102D01*
X7611229Y-7814102D02*
X7601705Y-7795055D01*
X7601705Y-7795055D02*
X7601705Y-7776007D01*
X7601705Y-7776007D02*
X7611229Y-7756959D01*
X7611229Y-7756959D02*
X7630276Y-7747436D01*
X7630276Y-7747436D02*
X7677896Y-7747436D01*
X7677896Y-7747436D02*
X7696943Y-7737912D01*
X7763610Y-7690293D02*
X7839800Y-7690293D01*
X7792181Y-7623626D02*
X7792181Y-7795055D01*
X7792181Y-7795055D02*
X7801705Y-7814102D01*
X7801705Y-7814102D02*
X7820753Y-7823626D01*
X7820753Y-7823626D02*
X7839800Y-7823626D01*
X7982657Y-7814102D02*
X7963610Y-7823626D01*
X7963610Y-7823626D02*
X7925515Y-7823626D01*
X7925515Y-7823626D02*
X7906467Y-7814102D01*
X7906467Y-7814102D02*
X7896943Y-7795055D01*
X7896943Y-7795055D02*
X7896943Y-7718864D01*
X7896943Y-7718864D02*
X7906467Y-7699817D01*
X7906467Y-7699817D02*
X7925515Y-7690293D01*
X7925515Y-7690293D02*
X7963610Y-7690293D01*
X7963610Y-7690293D02*
X7982657Y-7699817D01*
X7982657Y-7699817D02*
X7992181Y-7718864D01*
X7992181Y-7718864D02*
X7992181Y-7737912D01*
X7992181Y-7737912D02*
X7896943Y-7756959D01*
X8163610Y-7823626D02*
X8163610Y-7623626D01*
X8163610Y-7814102D02*
X8144562Y-7823626D01*
X8144562Y-7823626D02*
X8106467Y-7823626D01*
X8106467Y-7823626D02*
X8087419Y-7814102D01*
X8087419Y-7814102D02*
X8077896Y-7804578D01*
X8077896Y-7804578D02*
X8068372Y-7785531D01*
X8068372Y-7785531D02*
X8068372Y-7728388D01*
X8068372Y-7728388D02*
X8077896Y-7709340D01*
X8077896Y-7709340D02*
X8087419Y-7699817D01*
X8087419Y-7699817D02*
X8106467Y-7690293D01*
X8106467Y-7690293D02*
X8144562Y-7690293D01*
X8144562Y-7690293D02*
X8163610Y-7699817D01*
X8239800Y-7899817D02*
X8249324Y-7890293D01*
X8249324Y-7890293D02*
X8268372Y-7861721D01*
X8268372Y-7861721D02*
X8277896Y-7842674D01*
X8277896Y-7842674D02*
X8287419Y-7814102D01*
X8287419Y-7814102D02*
X8296943Y-7766483D01*
X8296943Y-7766483D02*
X8296943Y-7728388D01*
X8296943Y-7728388D02*
X8287419Y-7680769D01*
X8287419Y-7680769D02*
X8277896Y-7652198D01*
X8277896Y-7652198D02*
X8268372Y-7633150D01*
X8268372Y-7633150D02*
X8249324Y-7604578D01*
X8249324Y-7604578D02*
X8239800Y-7595055D01*
M02*
