G04 #@! TF.GenerationSoftware,KiCad,Pcbnew,9.0.5*
G04 #@! TF.CreationDate,2025-12-10T12:56:38+01:00*
G04 #@! TF.ProjectId,PCB Main,50434220-4d61-4696-9e2e-6b696361645f,rev?*
G04 #@! TF.SameCoordinates,Original*
G04 #@! TF.FileFunction,Legend,Top*
G04 #@! TF.FilePolarity,Positive*
%FSLAX46Y46*%
G04 Gerber Fmt 4.6, Leading zero omitted, Abs format (unit mm)*
G04 Created by KiCad (PCBNEW 9.0.5) date 2025-12-10 12:56:38*
%MOMM*%
%LPD*%
G01*
G04 APERTURE LIST*
G04 Aperture macros list*
%AMRoundRect*
0 Rectangle with rounded corners*
0 $1 Rounding radius*
0 $2 $3 $4 $5 $6 $7 $8 $9 X,Y pos of 4 corners*
0 Add a 4 corners polygon primitive as box body*
4,1,4,$2,$3,$4,$5,$6,$7,$8,$9,$2,$3,0*
0 Add four circle primitives for the rounded corners*
1,1,$1+$1,$2,$3*
1,1,$1+$1,$4,$5*
1,1,$1+$1,$6,$7*
1,1,$1+$1,$8,$9*
0 Add four rect primitives between the rounded corners*
20,1,$1+$1,$2,$3,$4,$5,0*
20,1,$1+$1,$4,$5,$6,$7,0*
20,1,$1+$1,$6,$7,$8,$9,0*
20,1,$1+$1,$8,$9,$2,$3,0*%
%AMFreePoly0*
4,1,11,1.015000,1.170000,0.435000,0.575000,0.435000,-0.575000,1.015000,-1.170000,1.015000,-1.945000,0.125000,-1.945000,-0.435000,-1.395000,-0.435000,1.395000,0.125000,1.945000,1.015000,1.945000,1.015000,1.170000,1.015000,1.170000,$1*%
%AMFreePoly1*
4,1,11,0.435000,1.395000,0.435000,-1.395000,-0.125000,-1.945000,-1.015000,-1.945000,-1.015000,-1.170000,-0.435000,-0.575000,-0.435000,0.575000,-1.015000,1.170000,-1.015000,1.945000,-0.125000,1.945000,0.435000,1.395000,0.435000,1.395000,$1*%
G04 Aperture macros list end*
%ADD10C,0.160000*%
%ADD11C,0.150000*%
%ADD12C,0.120000*%
%ADD13C,0.100000*%
%ADD14C,0.127000*%
%ADD15C,0.152400*%
%ADD16C,0.200000*%
%ADD17RoundRect,0.140000X0.140000X0.170000X-0.140000X0.170000X-0.140000X-0.170000X0.140000X-0.170000X0*%
%ADD18FreePoly0,270.000000*%
%ADD19FreePoly1,270.000000*%
%ADD20RoundRect,0.147500X0.172500X-0.147500X0.172500X0.147500X-0.172500X0.147500X-0.172500X-0.147500X0*%
%ADD21R,1.700000X1.700000*%
%ADD22C,1.700000*%
%ADD23RoundRect,0.140000X0.170000X-0.140000X0.170000X0.140000X-0.170000X0.140000X-0.170000X-0.140000X0*%
%ADD24RoundRect,0.200000X0.200000X0.275000X-0.200000X0.275000X-0.200000X-0.275000X0.200000X-0.275000X0*%
%ADD25RoundRect,0.225000X-0.225000X-0.250000X0.225000X-0.250000X0.225000X0.250000X-0.225000X0.250000X0*%
%ADD26RoundRect,0.218750X0.218750X0.256250X-0.218750X0.256250X-0.218750X-0.256250X0.218750X-0.256250X0*%
%ADD27RoundRect,0.140000X-0.140000X-0.170000X0.140000X-0.170000X0.140000X0.170000X-0.140000X0.170000X0*%
%ADD28RoundRect,0.150000X0.400000X-0.150000X0.400000X0.150000X-0.400000X0.150000X-0.400000X-0.150000X0*%
%ADD29RoundRect,0.135000X-0.135000X-0.185000X0.135000X-0.185000X0.135000X0.185000X-0.135000X0.185000X0*%
%ADD30RoundRect,0.147500X-0.147500X-0.172500X0.147500X-0.172500X0.147500X0.172500X-0.147500X0.172500X0*%
%ADD31RoundRect,0.225000X-0.250000X0.225000X-0.250000X-0.225000X0.250000X-0.225000X0.250000X0.225000X0*%
%ADD32RoundRect,0.135000X0.135000X0.185000X-0.135000X0.185000X-0.135000X-0.185000X0.135000X-0.185000X0*%
%ADD33RoundRect,0.150000X-0.587500X-0.150000X0.587500X-0.150000X0.587500X0.150000X-0.587500X0.150000X0*%
%ADD34RoundRect,0.250000X1.425000X-0.362500X1.425000X0.362500X-1.425000X0.362500X-1.425000X-0.362500X0*%
%ADD35RoundRect,0.135000X0.185000X-0.135000X0.185000X0.135000X-0.185000X0.135000X-0.185000X-0.135000X0*%
%ADD36RoundRect,0.140000X-0.170000X0.140000X-0.170000X-0.140000X0.170000X-0.140000X0.170000X0.140000X0*%
%ADD37RoundRect,0.250000X-0.362500X-1.425000X0.362500X-1.425000X0.362500X1.425000X-0.362500X1.425000X0*%
%ADD38RoundRect,0.250000X-0.600000X-0.750000X0.600000X-0.750000X0.600000X0.750000X-0.600000X0.750000X0*%
%ADD39O,1.700000X2.000000*%
%ADD40C,2.200000*%
%ADD41RoundRect,0.135000X-0.185000X0.135000X-0.185000X-0.135000X0.185000X-0.135000X0.185000X0.135000X0*%
%ADD42RoundRect,0.062500X0.400000X0.062500X-0.400000X0.062500X-0.400000X-0.062500X0.400000X-0.062500X0*%
%ADD43RoundRect,0.062500X0.062500X0.400000X-0.062500X0.400000X-0.062500X-0.400000X0.062500X-0.400000X0*%
%ADD44R,6.400000X6.400000*%
%ADD45RoundRect,0.102000X-0.100000X-0.100000X0.100000X-0.100000X0.100000X0.100000X-0.100000X0.100000X0*%
%ADD46RoundRect,0.059250X0.547750X0.177750X-0.547750X0.177750X-0.547750X-0.177750X0.547750X-0.177750X0*%
%ADD47RoundRect,0.059250X0.177750X0.547750X-0.177750X0.547750X-0.177750X-0.547750X0.177750X-0.547750X0*%
%ADD48RoundRect,0.102000X1.575000X1.575000X-1.575000X1.575000X-1.575000X-1.575000X1.575000X-1.575000X0*%
%ADD49RoundRect,0.250000X-1.425000X0.362500X-1.425000X-0.362500X1.425000X-0.362500X1.425000X0.362500X0*%
%ADD50RoundRect,0.218750X-0.381250X0.218750X-0.381250X-0.218750X0.381250X-0.218750X0.381250X0.218750X0*%
%ADD51RoundRect,0.200000X-0.250000X-0.200000X0.250000X-0.200000X0.250000X0.200000X-0.250000X0.200000X0*%
%ADD52RoundRect,0.150000X-0.825000X-0.150000X0.825000X-0.150000X0.825000X0.150000X-0.825000X0.150000X0*%
%ADD53RoundRect,0.200000X0.275000X-0.200000X0.275000X0.200000X-0.275000X0.200000X-0.275000X-0.200000X0*%
%ADD54RoundRect,0.243750X-0.243750X-0.456250X0.243750X-0.456250X0.243750X0.456250X-0.243750X0.456250X0*%
%ADD55RoundRect,0.112500X0.112500X-0.187500X0.112500X0.187500X-0.112500X0.187500X-0.112500X-0.187500X0*%
%ADD56RoundRect,0.218750X-0.256250X0.218750X-0.256250X-0.218750X0.256250X-0.218750X0.256250X0.218750X0*%
%ADD57R,1.000000X1.700000*%
%ADD58RoundRect,0.087500X-0.425000X-0.087500X0.425000X-0.087500X0.425000X0.087500X-0.425000X0.087500X0*%
%ADD59RoundRect,0.087500X-0.087500X-0.425000X0.087500X-0.425000X0.087500X0.425000X-0.087500X0.425000X0*%
%ADD60R,2.100000X2.100000*%
%ADD61RoundRect,0.250000X0.650000X-0.325000X0.650000X0.325000X-0.650000X0.325000X-0.650000X-0.325000X0*%
%ADD62C,1.446000*%
G04 APERTURE END LIST*
D10*
X66203843Y-31732576D02*
X36612843Y-31732576D01*
D11*
X81496819Y-77549125D02*
X82496819Y-77282458D01*
X82496819Y-77282458D02*
X81496819Y-77015792D01*
X82496819Y-76749125D02*
X81496819Y-76749125D01*
X81496819Y-76749125D02*
X81496819Y-76558649D01*
X81496819Y-76558649D02*
X81544438Y-76444363D01*
X81544438Y-76444363D02*
X81639676Y-76368173D01*
X81639676Y-76368173D02*
X81734914Y-76330078D01*
X81734914Y-76330078D02*
X81925390Y-76291982D01*
X81925390Y-76291982D02*
X82068247Y-76291982D01*
X82068247Y-76291982D02*
X82258723Y-76330078D01*
X82258723Y-76330078D02*
X82353961Y-76368173D01*
X82353961Y-76368173D02*
X82449200Y-76444363D01*
X82449200Y-76444363D02*
X82496819Y-76558649D01*
X82496819Y-76558649D02*
X82496819Y-76749125D01*
X82496819Y-75949125D02*
X81496819Y-75949125D01*
X81496819Y-75949125D02*
X81496819Y-75758649D01*
X81496819Y-75758649D02*
X81544438Y-75644363D01*
X81544438Y-75644363D02*
X81639676Y-75568173D01*
X81639676Y-75568173D02*
X81734914Y-75530078D01*
X81734914Y-75530078D02*
X81925390Y-75491982D01*
X81925390Y-75491982D02*
X82068247Y-75491982D01*
X82068247Y-75491982D02*
X82258723Y-75530078D01*
X82258723Y-75530078D02*
X82353961Y-75568173D01*
X82353961Y-75568173D02*
X82449200Y-75644363D01*
X82449200Y-75644363D02*
X82496819Y-75758649D01*
X82496819Y-75758649D02*
X82496819Y-75949125D01*
X70245587Y-73526014D02*
X70169397Y-73478395D01*
X70169397Y-73478395D02*
X70055111Y-73478395D01*
X70055111Y-73478395D02*
X69940825Y-73526014D01*
X69940825Y-73526014D02*
X69864635Y-73621252D01*
X69864635Y-73621252D02*
X69826540Y-73716490D01*
X69826540Y-73716490D02*
X69788444Y-73906966D01*
X69788444Y-73906966D02*
X69788444Y-74049823D01*
X69788444Y-74049823D02*
X69826540Y-74240299D01*
X69826540Y-74240299D02*
X69864635Y-74335537D01*
X69864635Y-74335537D02*
X69940825Y-74430776D01*
X69940825Y-74430776D02*
X70055111Y-74478395D01*
X70055111Y-74478395D02*
X70131302Y-74478395D01*
X70131302Y-74478395D02*
X70245587Y-74430776D01*
X70245587Y-74430776D02*
X70283683Y-74383156D01*
X70283683Y-74383156D02*
X70283683Y-74049823D01*
X70283683Y-74049823D02*
X70131302Y-74049823D01*
X70626540Y-74478395D02*
X70626540Y-73478395D01*
X70626540Y-73478395D02*
X71083683Y-74478395D01*
X71083683Y-74478395D02*
X71083683Y-73478395D01*
X71464635Y-74478395D02*
X71464635Y-73478395D01*
X71464635Y-73478395D02*
X71655111Y-73478395D01*
X71655111Y-73478395D02*
X71769397Y-73526014D01*
X71769397Y-73526014D02*
X71845587Y-73621252D01*
X71845587Y-73621252D02*
X71883682Y-73716490D01*
X71883682Y-73716490D02*
X71921778Y-73906966D01*
X71921778Y-73906966D02*
X71921778Y-74049823D01*
X71921778Y-74049823D02*
X71883682Y-74240299D01*
X71883682Y-74240299D02*
X71845587Y-74335537D01*
X71845587Y-74335537D02*
X71769397Y-74430776D01*
X71769397Y-74430776D02*
X71655111Y-74478395D01*
X71655111Y-74478395D02*
X71464635Y-74478395D01*
X53434128Y-74557776D02*
X53548414Y-74605395D01*
X53548414Y-74605395D02*
X53738890Y-74605395D01*
X53738890Y-74605395D02*
X53815081Y-74557776D01*
X53815081Y-74557776D02*
X53853176Y-74510156D01*
X53853176Y-74510156D02*
X53891271Y-74414918D01*
X53891271Y-74414918D02*
X53891271Y-74319680D01*
X53891271Y-74319680D02*
X53853176Y-74224442D01*
X53853176Y-74224442D02*
X53815081Y-74176823D01*
X53815081Y-74176823D02*
X53738890Y-74129204D01*
X53738890Y-74129204D02*
X53586509Y-74081585D01*
X53586509Y-74081585D02*
X53510319Y-74033966D01*
X53510319Y-74033966D02*
X53472224Y-73986347D01*
X53472224Y-73986347D02*
X53434128Y-73891109D01*
X53434128Y-73891109D02*
X53434128Y-73795871D01*
X53434128Y-73795871D02*
X53472224Y-73700633D01*
X53472224Y-73700633D02*
X53510319Y-73653014D01*
X53510319Y-73653014D02*
X53586509Y-73605395D01*
X53586509Y-73605395D02*
X53776986Y-73605395D01*
X53776986Y-73605395D02*
X53891271Y-73653014D01*
X54157938Y-73605395D02*
X54348414Y-74605395D01*
X54348414Y-74605395D02*
X54500795Y-73891109D01*
X54500795Y-73891109D02*
X54653176Y-74605395D01*
X54653176Y-74605395D02*
X54843653Y-73605395D01*
X55148415Y-74605395D02*
X55148415Y-73605395D01*
X55148415Y-73605395D02*
X55338891Y-73605395D01*
X55338891Y-73605395D02*
X55453177Y-73653014D01*
X55453177Y-73653014D02*
X55529367Y-73748252D01*
X55529367Y-73748252D02*
X55567462Y-73843490D01*
X55567462Y-73843490D02*
X55605558Y-74033966D01*
X55605558Y-74033966D02*
X55605558Y-74176823D01*
X55605558Y-74176823D02*
X55567462Y-74367299D01*
X55567462Y-74367299D02*
X55529367Y-74462537D01*
X55529367Y-74462537D02*
X55453177Y-74557776D01*
X55453177Y-74557776D02*
X55338891Y-74605395D01*
X55338891Y-74605395D02*
X55148415Y-74605395D01*
X92496015Y-55253776D02*
X92610301Y-55301395D01*
X92610301Y-55301395D02*
X92800777Y-55301395D01*
X92800777Y-55301395D02*
X92876968Y-55253776D01*
X92876968Y-55253776D02*
X92915063Y-55206156D01*
X92915063Y-55206156D02*
X92953158Y-55110918D01*
X92953158Y-55110918D02*
X92953158Y-55015680D01*
X92953158Y-55015680D02*
X92915063Y-54920442D01*
X92915063Y-54920442D02*
X92876968Y-54872823D01*
X92876968Y-54872823D02*
X92800777Y-54825204D01*
X92800777Y-54825204D02*
X92648396Y-54777585D01*
X92648396Y-54777585D02*
X92572206Y-54729966D01*
X92572206Y-54729966D02*
X92534111Y-54682347D01*
X92534111Y-54682347D02*
X92496015Y-54587109D01*
X92496015Y-54587109D02*
X92496015Y-54491871D01*
X92496015Y-54491871D02*
X92534111Y-54396633D01*
X92534111Y-54396633D02*
X92572206Y-54349014D01*
X92572206Y-54349014D02*
X92648396Y-54301395D01*
X92648396Y-54301395D02*
X92838873Y-54301395D01*
X92838873Y-54301395D02*
X92953158Y-54349014D01*
X93753159Y-55206156D02*
X93715063Y-55253776D01*
X93715063Y-55253776D02*
X93600778Y-55301395D01*
X93600778Y-55301395D02*
X93524587Y-55301395D01*
X93524587Y-55301395D02*
X93410301Y-55253776D01*
X93410301Y-55253776D02*
X93334111Y-55158537D01*
X93334111Y-55158537D02*
X93296016Y-55063299D01*
X93296016Y-55063299D02*
X93257920Y-54872823D01*
X93257920Y-54872823D02*
X93257920Y-54729966D01*
X93257920Y-54729966D02*
X93296016Y-54539490D01*
X93296016Y-54539490D02*
X93334111Y-54444252D01*
X93334111Y-54444252D02*
X93410301Y-54349014D01*
X93410301Y-54349014D02*
X93524587Y-54301395D01*
X93524587Y-54301395D02*
X93600778Y-54301395D01*
X93600778Y-54301395D02*
X93715063Y-54349014D01*
X93715063Y-54349014D02*
X93753159Y-54396633D01*
X94476968Y-55301395D02*
X94096016Y-55301395D01*
X94096016Y-55301395D02*
X94096016Y-54301395D01*
X70778920Y-76018395D02*
X71236063Y-76018395D01*
X71007491Y-77018395D02*
X71007491Y-76018395D01*
X71426539Y-76018395D02*
X71959873Y-77018395D01*
X71959873Y-76018395D02*
X71426539Y-77018395D01*
X87743081Y-36378442D02*
X88352605Y-36378442D01*
X92457920Y-52586776D02*
X92572206Y-52634395D01*
X92572206Y-52634395D02*
X92762682Y-52634395D01*
X92762682Y-52634395D02*
X92838873Y-52586776D01*
X92838873Y-52586776D02*
X92876968Y-52539156D01*
X92876968Y-52539156D02*
X92915063Y-52443918D01*
X92915063Y-52443918D02*
X92915063Y-52348680D01*
X92915063Y-52348680D02*
X92876968Y-52253442D01*
X92876968Y-52253442D02*
X92838873Y-52205823D01*
X92838873Y-52205823D02*
X92762682Y-52158204D01*
X92762682Y-52158204D02*
X92610301Y-52110585D01*
X92610301Y-52110585D02*
X92534111Y-52062966D01*
X92534111Y-52062966D02*
X92496016Y-52015347D01*
X92496016Y-52015347D02*
X92457920Y-51920109D01*
X92457920Y-51920109D02*
X92457920Y-51824871D01*
X92457920Y-51824871D02*
X92496016Y-51729633D01*
X92496016Y-51729633D02*
X92534111Y-51682014D01*
X92534111Y-51682014D02*
X92610301Y-51634395D01*
X92610301Y-51634395D02*
X92800778Y-51634395D01*
X92800778Y-51634395D02*
X92915063Y-51682014D01*
X93257921Y-52634395D02*
X93257921Y-51634395D01*
X93257921Y-51634395D02*
X93448397Y-51634395D01*
X93448397Y-51634395D02*
X93562683Y-51682014D01*
X93562683Y-51682014D02*
X93638873Y-51777252D01*
X93638873Y-51777252D02*
X93676968Y-51872490D01*
X93676968Y-51872490D02*
X93715064Y-52062966D01*
X93715064Y-52062966D02*
X93715064Y-52205823D01*
X93715064Y-52205823D02*
X93676968Y-52396299D01*
X93676968Y-52396299D02*
X93638873Y-52491537D01*
X93638873Y-52491537D02*
X93562683Y-52586776D01*
X93562683Y-52586776D02*
X93448397Y-52634395D01*
X93448397Y-52634395D02*
X93257921Y-52634395D01*
X94019825Y-52348680D02*
X94400778Y-52348680D01*
X93943635Y-52634395D02*
X94210302Y-51634395D01*
X94210302Y-51634395D02*
X94476968Y-52634395D01*
X88100819Y-77422125D02*
X89100819Y-77155458D01*
X89100819Y-77155458D02*
X88100819Y-76888792D01*
X89100819Y-76622125D02*
X88100819Y-76622125D01*
X88100819Y-76622125D02*
X88100819Y-76431649D01*
X88100819Y-76431649D02*
X88148438Y-76317363D01*
X88148438Y-76317363D02*
X88243676Y-76241173D01*
X88243676Y-76241173D02*
X88338914Y-76203078D01*
X88338914Y-76203078D02*
X88529390Y-76164982D01*
X88529390Y-76164982D02*
X88672247Y-76164982D01*
X88672247Y-76164982D02*
X88862723Y-76203078D01*
X88862723Y-76203078D02*
X88957961Y-76241173D01*
X88957961Y-76241173D02*
X89053200Y-76317363D01*
X89053200Y-76317363D02*
X89100819Y-76431649D01*
X89100819Y-76431649D02*
X89100819Y-76622125D01*
X89100819Y-75822125D02*
X88100819Y-75822125D01*
X88100819Y-75822125D02*
X88100819Y-75631649D01*
X88100819Y-75631649D02*
X88148438Y-75517363D01*
X88148438Y-75517363D02*
X88243676Y-75441173D01*
X88243676Y-75441173D02*
X88338914Y-75403078D01*
X88338914Y-75403078D02*
X88529390Y-75364982D01*
X88529390Y-75364982D02*
X88672247Y-75364982D01*
X88672247Y-75364982D02*
X88862723Y-75403078D01*
X88862723Y-75403078D02*
X88957961Y-75441173D01*
X88957961Y-75441173D02*
X89053200Y-75517363D01*
X89053200Y-75517363D02*
X89100819Y-75631649D01*
X89100819Y-75631649D02*
X89100819Y-75822125D01*
X39229176Y-43617395D02*
X39229176Y-42617395D01*
X39229176Y-42617395D02*
X39533938Y-42617395D01*
X39533938Y-42617395D02*
X39610128Y-42665014D01*
X39610128Y-42665014D02*
X39648223Y-42712633D01*
X39648223Y-42712633D02*
X39686319Y-42807871D01*
X39686319Y-42807871D02*
X39686319Y-42950728D01*
X39686319Y-42950728D02*
X39648223Y-43045966D01*
X39648223Y-43045966D02*
X39610128Y-43093585D01*
X39610128Y-43093585D02*
X39533938Y-43141204D01*
X39533938Y-43141204D02*
X39229176Y-43141204D01*
X39952985Y-42617395D02*
X40143461Y-43617395D01*
X40143461Y-43617395D02*
X40295842Y-42903109D01*
X40295842Y-42903109D02*
X40448223Y-43617395D01*
X40448223Y-43617395D02*
X40638700Y-42617395D01*
X41400605Y-43617395D02*
X41133938Y-43141204D01*
X40943462Y-43617395D02*
X40943462Y-42617395D01*
X40943462Y-42617395D02*
X41248224Y-42617395D01*
X41248224Y-42617395D02*
X41324414Y-42665014D01*
X41324414Y-42665014D02*
X41362509Y-42712633D01*
X41362509Y-42712633D02*
X41400605Y-42807871D01*
X41400605Y-42807871D02*
X41400605Y-42950728D01*
X41400605Y-42950728D02*
X41362509Y-43045966D01*
X41362509Y-43045966D02*
X41324414Y-43093585D01*
X41324414Y-43093585D02*
X41248224Y-43141204D01*
X41248224Y-43141204D02*
X40943462Y-43141204D01*
X90283081Y-36378442D02*
X90892605Y-36378442D01*
X90587843Y-36759395D02*
X90587843Y-35997490D01*
X61594662Y-81043450D02*
X61594662Y-80548212D01*
X61594662Y-80548212D02*
X61975614Y-80814878D01*
X61975614Y-80814878D02*
X61975614Y-80700593D01*
X61975614Y-80700593D02*
X62023233Y-80624402D01*
X62023233Y-80624402D02*
X62070852Y-80586307D01*
X62070852Y-80586307D02*
X62166090Y-80548212D01*
X62166090Y-80548212D02*
X62404185Y-80548212D01*
X62404185Y-80548212D02*
X62499423Y-80586307D01*
X62499423Y-80586307D02*
X62547043Y-80624402D01*
X62547043Y-80624402D02*
X62594662Y-80700593D01*
X62594662Y-80700593D02*
X62594662Y-80929164D01*
X62594662Y-80929164D02*
X62547043Y-81005355D01*
X62547043Y-81005355D02*
X62499423Y-81043450D01*
X62499423Y-80205354D02*
X62547043Y-80167259D01*
X62547043Y-80167259D02*
X62594662Y-80205354D01*
X62594662Y-80205354D02*
X62547043Y-80243450D01*
X62547043Y-80243450D02*
X62499423Y-80205354D01*
X62499423Y-80205354D02*
X62594662Y-80205354D01*
X61594662Y-79900593D02*
X61594662Y-79405355D01*
X61594662Y-79405355D02*
X61975614Y-79672021D01*
X61975614Y-79672021D02*
X61975614Y-79557736D01*
X61975614Y-79557736D02*
X62023233Y-79481545D01*
X62023233Y-79481545D02*
X62070852Y-79443450D01*
X62070852Y-79443450D02*
X62166090Y-79405355D01*
X62166090Y-79405355D02*
X62404185Y-79405355D01*
X62404185Y-79405355D02*
X62499423Y-79443450D01*
X62499423Y-79443450D02*
X62547043Y-79481545D01*
X62547043Y-79481545D02*
X62594662Y-79557736D01*
X62594662Y-79557736D02*
X62594662Y-79786307D01*
X62594662Y-79786307D02*
X62547043Y-79862498D01*
X62547043Y-79862498D02*
X62499423Y-79900593D01*
X61594662Y-79176783D02*
X62594662Y-78910116D01*
X62594662Y-78910116D02*
X61594662Y-78643450D01*
X68800420Y-68154240D02*
X68914706Y-68201859D01*
X68914706Y-68201859D02*
X69105182Y-68201859D01*
X69105182Y-68201859D02*
X69181373Y-68154240D01*
X69181373Y-68154240D02*
X69219468Y-68106620D01*
X69219468Y-68106620D02*
X69257563Y-68011382D01*
X69257563Y-68011382D02*
X69257563Y-67916144D01*
X69257563Y-67916144D02*
X69219468Y-67820906D01*
X69219468Y-67820906D02*
X69181373Y-67773287D01*
X69181373Y-67773287D02*
X69105182Y-67725668D01*
X69105182Y-67725668D02*
X68952801Y-67678049D01*
X68952801Y-67678049D02*
X68876611Y-67630430D01*
X68876611Y-67630430D02*
X68838516Y-67582811D01*
X68838516Y-67582811D02*
X68800420Y-67487573D01*
X68800420Y-67487573D02*
X68800420Y-67392335D01*
X68800420Y-67392335D02*
X68838516Y-67297097D01*
X68838516Y-67297097D02*
X68876611Y-67249478D01*
X68876611Y-67249478D02*
X68952801Y-67201859D01*
X68952801Y-67201859D02*
X69143278Y-67201859D01*
X69143278Y-67201859D02*
X69257563Y-67249478D01*
X69752802Y-67201859D02*
X69828992Y-67201859D01*
X69828992Y-67201859D02*
X69905183Y-67249478D01*
X69905183Y-67249478D02*
X69943278Y-67297097D01*
X69943278Y-67297097D02*
X69981373Y-67392335D01*
X69981373Y-67392335D02*
X70019468Y-67582811D01*
X70019468Y-67582811D02*
X70019468Y-67820906D01*
X70019468Y-67820906D02*
X69981373Y-68011382D01*
X69981373Y-68011382D02*
X69943278Y-68106620D01*
X69943278Y-68106620D02*
X69905183Y-68154240D01*
X69905183Y-68154240D02*
X69828992Y-68201859D01*
X69828992Y-68201859D02*
X69752802Y-68201859D01*
X69752802Y-68201859D02*
X69676611Y-68154240D01*
X69676611Y-68154240D02*
X69638516Y-68106620D01*
X69638516Y-68106620D02*
X69600421Y-68011382D01*
X69600421Y-68011382D02*
X69562325Y-67820906D01*
X69562325Y-67820906D02*
X69562325Y-67582811D01*
X69562325Y-67582811D02*
X69600421Y-67392335D01*
X69600421Y-67392335D02*
X69638516Y-67297097D01*
X69638516Y-67297097D02*
X69676611Y-67249478D01*
X69676611Y-67249478D02*
X69752802Y-67201859D01*
X80631081Y-36378442D02*
X81240605Y-36378442D01*
X80935843Y-36759395D02*
X80935843Y-35997490D01*
X72293700Y-71065395D02*
X72293700Y-71874918D01*
X72293700Y-71874918D02*
X72331795Y-71970156D01*
X72331795Y-71970156D02*
X72369890Y-72017776D01*
X72369890Y-72017776D02*
X72446081Y-72065395D01*
X72446081Y-72065395D02*
X72598462Y-72065395D01*
X72598462Y-72065395D02*
X72674652Y-72017776D01*
X72674652Y-72017776D02*
X72712747Y-71970156D01*
X72712747Y-71970156D02*
X72750843Y-71874918D01*
X72750843Y-71874918D02*
X72750843Y-71065395D01*
X73093699Y-72017776D02*
X73207985Y-72065395D01*
X73207985Y-72065395D02*
X73398461Y-72065395D01*
X73398461Y-72065395D02*
X73474652Y-72017776D01*
X73474652Y-72017776D02*
X73512747Y-71970156D01*
X73512747Y-71970156D02*
X73550842Y-71874918D01*
X73550842Y-71874918D02*
X73550842Y-71779680D01*
X73550842Y-71779680D02*
X73512747Y-71684442D01*
X73512747Y-71684442D02*
X73474652Y-71636823D01*
X73474652Y-71636823D02*
X73398461Y-71589204D01*
X73398461Y-71589204D02*
X73246080Y-71541585D01*
X73246080Y-71541585D02*
X73169890Y-71493966D01*
X73169890Y-71493966D02*
X73131795Y-71446347D01*
X73131795Y-71446347D02*
X73093699Y-71351109D01*
X73093699Y-71351109D02*
X73093699Y-71255871D01*
X73093699Y-71255871D02*
X73131795Y-71160633D01*
X73131795Y-71160633D02*
X73169890Y-71113014D01*
X73169890Y-71113014D02*
X73246080Y-71065395D01*
X73246080Y-71065395D02*
X73436557Y-71065395D01*
X73436557Y-71065395D02*
X73550842Y-71113014D01*
X73855604Y-71779680D02*
X74236557Y-71779680D01*
X73779414Y-72065395D02*
X74046081Y-71065395D01*
X74046081Y-71065395D02*
X74312747Y-72065395D01*
X75036557Y-72065395D02*
X74769890Y-71589204D01*
X74579414Y-72065395D02*
X74579414Y-71065395D01*
X74579414Y-71065395D02*
X74884176Y-71065395D01*
X74884176Y-71065395D02*
X74960366Y-71113014D01*
X74960366Y-71113014D02*
X74998461Y-71160633D01*
X74998461Y-71160633D02*
X75036557Y-71255871D01*
X75036557Y-71255871D02*
X75036557Y-71398728D01*
X75036557Y-71398728D02*
X74998461Y-71493966D01*
X74998461Y-71493966D02*
X74960366Y-71541585D01*
X74960366Y-71541585D02*
X74884176Y-71589204D01*
X74884176Y-71589204D02*
X74579414Y-71589204D01*
X75265128Y-71065395D02*
X75722271Y-71065395D01*
X75493699Y-72065395D02*
X75493699Y-71065395D01*
X66610319Y-81019014D02*
X66534129Y-80971395D01*
X66534129Y-80971395D02*
X66419843Y-80971395D01*
X66419843Y-80971395D02*
X66305557Y-81019014D01*
X66305557Y-81019014D02*
X66229367Y-81114252D01*
X66229367Y-81114252D02*
X66191272Y-81209490D01*
X66191272Y-81209490D02*
X66153176Y-81399966D01*
X66153176Y-81399966D02*
X66153176Y-81542823D01*
X66153176Y-81542823D02*
X66191272Y-81733299D01*
X66191272Y-81733299D02*
X66229367Y-81828537D01*
X66229367Y-81828537D02*
X66305557Y-81923776D01*
X66305557Y-81923776D02*
X66419843Y-81971395D01*
X66419843Y-81971395D02*
X66496034Y-81971395D01*
X66496034Y-81971395D02*
X66610319Y-81923776D01*
X66610319Y-81923776D02*
X66648415Y-81876156D01*
X66648415Y-81876156D02*
X66648415Y-81542823D01*
X66648415Y-81542823D02*
X66496034Y-81542823D01*
X66991272Y-81971395D02*
X66991272Y-80971395D01*
X66991272Y-80971395D02*
X67448415Y-81971395D01*
X67448415Y-81971395D02*
X67448415Y-80971395D01*
X67829367Y-81971395D02*
X67829367Y-80971395D01*
X67829367Y-80971395D02*
X68019843Y-80971395D01*
X68019843Y-80971395D02*
X68134129Y-81019014D01*
X68134129Y-81019014D02*
X68210319Y-81114252D01*
X68210319Y-81114252D02*
X68248414Y-81209490D01*
X68248414Y-81209490D02*
X68286510Y-81399966D01*
X68286510Y-81399966D02*
X68286510Y-81542823D01*
X68286510Y-81542823D02*
X68248414Y-81733299D01*
X68248414Y-81733299D02*
X68210319Y-81828537D01*
X68210319Y-81828537D02*
X68134129Y-81923776D01*
X68134129Y-81923776D02*
X68019843Y-81971395D01*
X68019843Y-81971395D02*
X67829367Y-81971395D01*
X90688438Y-77015792D02*
X90640819Y-77091982D01*
X90640819Y-77091982D02*
X90640819Y-77206268D01*
X90640819Y-77206268D02*
X90688438Y-77320554D01*
X90688438Y-77320554D02*
X90783676Y-77396744D01*
X90783676Y-77396744D02*
X90878914Y-77434839D01*
X90878914Y-77434839D02*
X91069390Y-77472935D01*
X91069390Y-77472935D02*
X91212247Y-77472935D01*
X91212247Y-77472935D02*
X91402723Y-77434839D01*
X91402723Y-77434839D02*
X91497961Y-77396744D01*
X91497961Y-77396744D02*
X91593200Y-77320554D01*
X91593200Y-77320554D02*
X91640819Y-77206268D01*
X91640819Y-77206268D02*
X91640819Y-77130077D01*
X91640819Y-77130077D02*
X91593200Y-77015792D01*
X91593200Y-77015792D02*
X91545580Y-76977696D01*
X91545580Y-76977696D02*
X91212247Y-76977696D01*
X91212247Y-76977696D02*
X91212247Y-77130077D01*
X91640819Y-76634839D02*
X90640819Y-76634839D01*
X90640819Y-76634839D02*
X91640819Y-76177696D01*
X91640819Y-76177696D02*
X90640819Y-76177696D01*
X91640819Y-75796744D02*
X90640819Y-75796744D01*
X90640819Y-75796744D02*
X90640819Y-75606268D01*
X90640819Y-75606268D02*
X90688438Y-75491982D01*
X90688438Y-75491982D02*
X90783676Y-75415792D01*
X90783676Y-75415792D02*
X90878914Y-75377697D01*
X90878914Y-75377697D02*
X91069390Y-75339601D01*
X91069390Y-75339601D02*
X91212247Y-75339601D01*
X91212247Y-75339601D02*
X91402723Y-75377697D01*
X91402723Y-75377697D02*
X91497961Y-75415792D01*
X91497961Y-75415792D02*
X91593200Y-75491982D01*
X91593200Y-75491982D02*
X91640819Y-75606268D01*
X91640819Y-75606268D02*
X91640819Y-75796744D01*
X40067367Y-53396395D02*
X39800700Y-52920204D01*
X39610224Y-53396395D02*
X39610224Y-52396395D01*
X39610224Y-52396395D02*
X39914986Y-52396395D01*
X39914986Y-52396395D02*
X39991176Y-52444014D01*
X39991176Y-52444014D02*
X40029271Y-52491633D01*
X40029271Y-52491633D02*
X40067367Y-52586871D01*
X40067367Y-52586871D02*
X40067367Y-52729728D01*
X40067367Y-52729728D02*
X40029271Y-52824966D01*
X40029271Y-52824966D02*
X39991176Y-52872585D01*
X39991176Y-52872585D02*
X39914986Y-52920204D01*
X39914986Y-52920204D02*
X39610224Y-52920204D01*
X40714986Y-53348776D02*
X40638795Y-53396395D01*
X40638795Y-53396395D02*
X40486414Y-53396395D01*
X40486414Y-53396395D02*
X40410224Y-53348776D01*
X40410224Y-53348776D02*
X40372128Y-53253537D01*
X40372128Y-53253537D02*
X40372128Y-52872585D01*
X40372128Y-52872585D02*
X40410224Y-52777347D01*
X40410224Y-52777347D02*
X40486414Y-52729728D01*
X40486414Y-52729728D02*
X40638795Y-52729728D01*
X40638795Y-52729728D02*
X40714986Y-52777347D01*
X40714986Y-52777347D02*
X40753081Y-52872585D01*
X40753081Y-52872585D02*
X40753081Y-52967823D01*
X40753081Y-52967823D02*
X40372128Y-53063061D01*
X41057842Y-53348776D02*
X41134033Y-53396395D01*
X41134033Y-53396395D02*
X41286414Y-53396395D01*
X41286414Y-53396395D02*
X41362604Y-53348776D01*
X41362604Y-53348776D02*
X41400700Y-53253537D01*
X41400700Y-53253537D02*
X41400700Y-53205918D01*
X41400700Y-53205918D02*
X41362604Y-53110680D01*
X41362604Y-53110680D02*
X41286414Y-53063061D01*
X41286414Y-53063061D02*
X41172128Y-53063061D01*
X41172128Y-53063061D02*
X41095938Y-53015442D01*
X41095938Y-53015442D02*
X41057842Y-52920204D01*
X41057842Y-52920204D02*
X41057842Y-52872585D01*
X41057842Y-52872585D02*
X41095938Y-52777347D01*
X41095938Y-52777347D02*
X41172128Y-52729728D01*
X41172128Y-52729728D02*
X41286414Y-52729728D01*
X41286414Y-52729728D02*
X41362604Y-52777347D01*
X42048319Y-53348776D02*
X41972128Y-53396395D01*
X41972128Y-53396395D02*
X41819747Y-53396395D01*
X41819747Y-53396395D02*
X41743557Y-53348776D01*
X41743557Y-53348776D02*
X41705461Y-53253537D01*
X41705461Y-53253537D02*
X41705461Y-52872585D01*
X41705461Y-52872585D02*
X41743557Y-52777347D01*
X41743557Y-52777347D02*
X41819747Y-52729728D01*
X41819747Y-52729728D02*
X41972128Y-52729728D01*
X41972128Y-52729728D02*
X42048319Y-52777347D01*
X42048319Y-52777347D02*
X42086414Y-52872585D01*
X42086414Y-52872585D02*
X42086414Y-52967823D01*
X42086414Y-52967823D02*
X41705461Y-53063061D01*
X42314985Y-52729728D02*
X42619747Y-52729728D01*
X42429271Y-52396395D02*
X42429271Y-53253537D01*
X42429271Y-53253537D02*
X42467366Y-53348776D01*
X42467366Y-53348776D02*
X42543556Y-53396395D01*
X42543556Y-53396395D02*
X42619747Y-53396395D01*
X84989200Y-77472935D02*
X85036819Y-77358649D01*
X85036819Y-77358649D02*
X85036819Y-77168173D01*
X85036819Y-77168173D02*
X84989200Y-77091982D01*
X84989200Y-77091982D02*
X84941580Y-77053887D01*
X84941580Y-77053887D02*
X84846342Y-77015792D01*
X84846342Y-77015792D02*
X84751104Y-77015792D01*
X84751104Y-77015792D02*
X84655866Y-77053887D01*
X84655866Y-77053887D02*
X84608247Y-77091982D01*
X84608247Y-77091982D02*
X84560628Y-77168173D01*
X84560628Y-77168173D02*
X84513009Y-77320554D01*
X84513009Y-77320554D02*
X84465390Y-77396744D01*
X84465390Y-77396744D02*
X84417771Y-77434839D01*
X84417771Y-77434839D02*
X84322533Y-77472935D01*
X84322533Y-77472935D02*
X84227295Y-77472935D01*
X84227295Y-77472935D02*
X84132057Y-77434839D01*
X84132057Y-77434839D02*
X84084438Y-77396744D01*
X84084438Y-77396744D02*
X84036819Y-77320554D01*
X84036819Y-77320554D02*
X84036819Y-77130077D01*
X84036819Y-77130077D02*
X84084438Y-77015792D01*
X84513009Y-76672934D02*
X84513009Y-76406268D01*
X85036819Y-76291982D02*
X85036819Y-76672934D01*
X85036819Y-76672934D02*
X84036819Y-76672934D01*
X84036819Y-76672934D02*
X84036819Y-76291982D01*
X85036819Y-75949124D02*
X84036819Y-75949124D01*
X84036819Y-75949124D02*
X85036819Y-75491981D01*
X85036819Y-75491981D02*
X84036819Y-75491981D01*
X78091081Y-36378442D02*
X78700605Y-36378442D01*
X59102281Y-80395831D02*
X59054662Y-80472021D01*
X59054662Y-80472021D02*
X59054662Y-80586307D01*
X59054662Y-80586307D02*
X59102281Y-80700593D01*
X59102281Y-80700593D02*
X59197519Y-80776783D01*
X59197519Y-80776783D02*
X59292757Y-80814878D01*
X59292757Y-80814878D02*
X59483233Y-80852974D01*
X59483233Y-80852974D02*
X59626090Y-80852974D01*
X59626090Y-80852974D02*
X59816566Y-80814878D01*
X59816566Y-80814878D02*
X59911804Y-80776783D01*
X59911804Y-80776783D02*
X60007043Y-80700593D01*
X60007043Y-80700593D02*
X60054662Y-80586307D01*
X60054662Y-80586307D02*
X60054662Y-80510116D01*
X60054662Y-80510116D02*
X60007043Y-80395831D01*
X60007043Y-80395831D02*
X59959423Y-80357735D01*
X59959423Y-80357735D02*
X59626090Y-80357735D01*
X59626090Y-80357735D02*
X59626090Y-80510116D01*
X60054662Y-80014878D02*
X59054662Y-80014878D01*
X59054662Y-80014878D02*
X60054662Y-79557735D01*
X60054662Y-79557735D02*
X59054662Y-79557735D01*
X60054662Y-79176783D02*
X59054662Y-79176783D01*
X59054662Y-79176783D02*
X59054662Y-78986307D01*
X59054662Y-78986307D02*
X59102281Y-78872021D01*
X59102281Y-78872021D02*
X59197519Y-78795831D01*
X59197519Y-78795831D02*
X59292757Y-78757736D01*
X59292757Y-78757736D02*
X59483233Y-78719640D01*
X59483233Y-78719640D02*
X59626090Y-78719640D01*
X59626090Y-78719640D02*
X59816566Y-78757736D01*
X59816566Y-78757736D02*
X59911804Y-78795831D01*
X59911804Y-78795831D02*
X60007043Y-78872021D01*
X60007043Y-78872021D02*
X60054662Y-78986307D01*
X60054662Y-78986307D02*
X60054662Y-79176783D01*
X54927043Y-82338689D02*
X54974662Y-82224403D01*
X54974662Y-82224403D02*
X54974662Y-82033927D01*
X54974662Y-82033927D02*
X54927043Y-81957736D01*
X54927043Y-81957736D02*
X54879423Y-81919641D01*
X54879423Y-81919641D02*
X54784185Y-81881546D01*
X54784185Y-81881546D02*
X54688947Y-81881546D01*
X54688947Y-81881546D02*
X54593709Y-81919641D01*
X54593709Y-81919641D02*
X54546090Y-81957736D01*
X54546090Y-81957736D02*
X54498471Y-82033927D01*
X54498471Y-82033927D02*
X54450852Y-82186308D01*
X54450852Y-82186308D02*
X54403233Y-82262498D01*
X54403233Y-82262498D02*
X54355614Y-82300593D01*
X54355614Y-82300593D02*
X54260376Y-82338689D01*
X54260376Y-82338689D02*
X54165138Y-82338689D01*
X54165138Y-82338689D02*
X54069900Y-82300593D01*
X54069900Y-82300593D02*
X54022281Y-82262498D01*
X54022281Y-82262498D02*
X53974662Y-82186308D01*
X53974662Y-82186308D02*
X53974662Y-81995831D01*
X53974662Y-81995831D02*
X54022281Y-81881546D01*
X53974662Y-81614879D02*
X54974662Y-81424403D01*
X54974662Y-81424403D02*
X54260376Y-81272022D01*
X54260376Y-81272022D02*
X54974662Y-81119641D01*
X54974662Y-81119641D02*
X53974662Y-80929165D01*
X54879423Y-80167259D02*
X54927043Y-80205355D01*
X54927043Y-80205355D02*
X54974662Y-80319640D01*
X54974662Y-80319640D02*
X54974662Y-80395831D01*
X54974662Y-80395831D02*
X54927043Y-80510117D01*
X54927043Y-80510117D02*
X54831804Y-80586307D01*
X54831804Y-80586307D02*
X54736566Y-80624402D01*
X54736566Y-80624402D02*
X54546090Y-80662498D01*
X54546090Y-80662498D02*
X54403233Y-80662498D01*
X54403233Y-80662498D02*
X54212757Y-80624402D01*
X54212757Y-80624402D02*
X54117519Y-80586307D01*
X54117519Y-80586307D02*
X54022281Y-80510117D01*
X54022281Y-80510117D02*
X53974662Y-80395831D01*
X53974662Y-80395831D02*
X53974662Y-80319640D01*
X53974662Y-80319640D02*
X54022281Y-80205355D01*
X54022281Y-80205355D02*
X54069900Y-80167259D01*
X54974662Y-79443450D02*
X54974662Y-79824402D01*
X54974662Y-79824402D02*
X53974662Y-79824402D01*
X54974662Y-79176783D02*
X53974662Y-79176783D01*
X54974662Y-78719640D02*
X54403233Y-79062498D01*
X53974662Y-78719640D02*
X54546090Y-79176783D01*
X68800420Y-62947240D02*
X68914706Y-62994859D01*
X68914706Y-62994859D02*
X69105182Y-62994859D01*
X69105182Y-62994859D02*
X69181373Y-62947240D01*
X69181373Y-62947240D02*
X69219468Y-62899620D01*
X69219468Y-62899620D02*
X69257563Y-62804382D01*
X69257563Y-62804382D02*
X69257563Y-62709144D01*
X69257563Y-62709144D02*
X69219468Y-62613906D01*
X69219468Y-62613906D02*
X69181373Y-62566287D01*
X69181373Y-62566287D02*
X69105182Y-62518668D01*
X69105182Y-62518668D02*
X68952801Y-62471049D01*
X68952801Y-62471049D02*
X68876611Y-62423430D01*
X68876611Y-62423430D02*
X68838516Y-62375811D01*
X68838516Y-62375811D02*
X68800420Y-62280573D01*
X68800420Y-62280573D02*
X68800420Y-62185335D01*
X68800420Y-62185335D02*
X68838516Y-62090097D01*
X68838516Y-62090097D02*
X68876611Y-62042478D01*
X68876611Y-62042478D02*
X68952801Y-61994859D01*
X68952801Y-61994859D02*
X69143278Y-61994859D01*
X69143278Y-61994859D02*
X69257563Y-62042478D01*
X69562325Y-62090097D02*
X69600421Y-62042478D01*
X69600421Y-62042478D02*
X69676611Y-61994859D01*
X69676611Y-61994859D02*
X69867087Y-61994859D01*
X69867087Y-61994859D02*
X69943278Y-62042478D01*
X69943278Y-62042478D02*
X69981373Y-62090097D01*
X69981373Y-62090097D02*
X70019468Y-62185335D01*
X70019468Y-62185335D02*
X70019468Y-62280573D01*
X70019468Y-62280573D02*
X69981373Y-62423430D01*
X69981373Y-62423430D02*
X69524230Y-62994859D01*
X69524230Y-62994859D02*
X70019468Y-62994859D01*
X92724587Y-69716014D02*
X92648397Y-69668395D01*
X92648397Y-69668395D02*
X92534111Y-69668395D01*
X92534111Y-69668395D02*
X92419825Y-69716014D01*
X92419825Y-69716014D02*
X92343635Y-69811252D01*
X92343635Y-69811252D02*
X92305540Y-69906490D01*
X92305540Y-69906490D02*
X92267444Y-70096966D01*
X92267444Y-70096966D02*
X92267444Y-70239823D01*
X92267444Y-70239823D02*
X92305540Y-70430299D01*
X92305540Y-70430299D02*
X92343635Y-70525537D01*
X92343635Y-70525537D02*
X92419825Y-70620776D01*
X92419825Y-70620776D02*
X92534111Y-70668395D01*
X92534111Y-70668395D02*
X92610302Y-70668395D01*
X92610302Y-70668395D02*
X92724587Y-70620776D01*
X92724587Y-70620776D02*
X92762683Y-70573156D01*
X92762683Y-70573156D02*
X92762683Y-70239823D01*
X92762683Y-70239823D02*
X92610302Y-70239823D01*
X93105540Y-70668395D02*
X93105540Y-69668395D01*
X93105540Y-69668395D02*
X93562683Y-70668395D01*
X93562683Y-70668395D02*
X93562683Y-69668395D01*
X93943635Y-70668395D02*
X93943635Y-69668395D01*
X93943635Y-69668395D02*
X94134111Y-69668395D01*
X94134111Y-69668395D02*
X94248397Y-69716014D01*
X94248397Y-69716014D02*
X94324587Y-69811252D01*
X94324587Y-69811252D02*
X94362682Y-69906490D01*
X94362682Y-69906490D02*
X94400778Y-70096966D01*
X94400778Y-70096966D02*
X94400778Y-70239823D01*
X94400778Y-70239823D02*
X94362682Y-70430299D01*
X94362682Y-70430299D02*
X94324587Y-70525537D01*
X94324587Y-70525537D02*
X94248397Y-70620776D01*
X94248397Y-70620776D02*
X94134111Y-70668395D01*
X94134111Y-70668395D02*
X93943635Y-70668395D01*
X49894662Y-81386307D02*
X48894662Y-81386307D01*
X48894662Y-81386307D02*
X49894662Y-80929164D01*
X49894662Y-80929164D02*
X48894662Y-80929164D01*
X49894662Y-80091069D02*
X49418471Y-80357736D01*
X49894662Y-80548212D02*
X48894662Y-80548212D01*
X48894662Y-80548212D02*
X48894662Y-80243450D01*
X48894662Y-80243450D02*
X48942281Y-80167260D01*
X48942281Y-80167260D02*
X48989900Y-80129165D01*
X48989900Y-80129165D02*
X49085138Y-80091069D01*
X49085138Y-80091069D02*
X49227995Y-80091069D01*
X49227995Y-80091069D02*
X49323233Y-80129165D01*
X49323233Y-80129165D02*
X49370852Y-80167260D01*
X49370852Y-80167260D02*
X49418471Y-80243450D01*
X49418471Y-80243450D02*
X49418471Y-80548212D01*
X49847043Y-79786308D02*
X49894662Y-79672022D01*
X49894662Y-79672022D02*
X49894662Y-79481546D01*
X49894662Y-79481546D02*
X49847043Y-79405355D01*
X49847043Y-79405355D02*
X49799423Y-79367260D01*
X49799423Y-79367260D02*
X49704185Y-79329165D01*
X49704185Y-79329165D02*
X49608947Y-79329165D01*
X49608947Y-79329165D02*
X49513709Y-79367260D01*
X49513709Y-79367260D02*
X49466090Y-79405355D01*
X49466090Y-79405355D02*
X49418471Y-79481546D01*
X49418471Y-79481546D02*
X49370852Y-79633927D01*
X49370852Y-79633927D02*
X49323233Y-79710117D01*
X49323233Y-79710117D02*
X49275614Y-79748212D01*
X49275614Y-79748212D02*
X49180376Y-79786308D01*
X49180376Y-79786308D02*
X49085138Y-79786308D01*
X49085138Y-79786308D02*
X48989900Y-79748212D01*
X48989900Y-79748212D02*
X48942281Y-79710117D01*
X48942281Y-79710117D02*
X48894662Y-79633927D01*
X48894662Y-79633927D02*
X48894662Y-79443450D01*
X48894662Y-79443450D02*
X48942281Y-79329165D01*
X48894662Y-79100593D02*
X48894662Y-78643450D01*
X49894662Y-78872022D02*
X48894662Y-78872022D01*
X92343635Y-49094395D02*
X92610302Y-50094395D01*
X92610302Y-50094395D02*
X92876968Y-49094395D01*
X93143635Y-50094395D02*
X93143635Y-49094395D01*
X93143635Y-49094395D02*
X93334111Y-49094395D01*
X93334111Y-49094395D02*
X93448397Y-49142014D01*
X93448397Y-49142014D02*
X93524587Y-49237252D01*
X93524587Y-49237252D02*
X93562682Y-49332490D01*
X93562682Y-49332490D02*
X93600778Y-49522966D01*
X93600778Y-49522966D02*
X93600778Y-49665823D01*
X93600778Y-49665823D02*
X93562682Y-49856299D01*
X93562682Y-49856299D02*
X93524587Y-49951537D01*
X93524587Y-49951537D02*
X93448397Y-50046776D01*
X93448397Y-50046776D02*
X93334111Y-50094395D01*
X93334111Y-50094395D02*
X93143635Y-50094395D01*
X93943635Y-50094395D02*
X93943635Y-49094395D01*
X93943635Y-49094395D02*
X94134111Y-49094395D01*
X94134111Y-49094395D02*
X94248397Y-49142014D01*
X94248397Y-49142014D02*
X94324587Y-49237252D01*
X94324587Y-49237252D02*
X94362682Y-49332490D01*
X94362682Y-49332490D02*
X94400778Y-49522966D01*
X94400778Y-49522966D02*
X94400778Y-49665823D01*
X94400778Y-49665823D02*
X94362682Y-49856299D01*
X94362682Y-49856299D02*
X94324587Y-49951537D01*
X94324587Y-49951537D02*
X94248397Y-50046776D01*
X94248397Y-50046776D02*
X94134111Y-50094395D01*
X94134111Y-50094395D02*
X93943635Y-50094395D01*
X78914281Y-77125368D02*
X78866662Y-77201558D01*
X78866662Y-77201558D02*
X78866662Y-77315844D01*
X78866662Y-77315844D02*
X78914281Y-77430130D01*
X78914281Y-77430130D02*
X79009519Y-77506320D01*
X79009519Y-77506320D02*
X79104757Y-77544415D01*
X79104757Y-77544415D02*
X79295233Y-77582511D01*
X79295233Y-77582511D02*
X79438090Y-77582511D01*
X79438090Y-77582511D02*
X79628566Y-77544415D01*
X79628566Y-77544415D02*
X79723804Y-77506320D01*
X79723804Y-77506320D02*
X79819043Y-77430130D01*
X79819043Y-77430130D02*
X79866662Y-77315844D01*
X79866662Y-77315844D02*
X79866662Y-77239653D01*
X79866662Y-77239653D02*
X79819043Y-77125368D01*
X79819043Y-77125368D02*
X79771423Y-77087272D01*
X79771423Y-77087272D02*
X79438090Y-77087272D01*
X79438090Y-77087272D02*
X79438090Y-77239653D01*
X79866662Y-76744415D02*
X78866662Y-76744415D01*
X78866662Y-76744415D02*
X79866662Y-76287272D01*
X79866662Y-76287272D02*
X78866662Y-76287272D01*
X79866662Y-75906320D02*
X78866662Y-75906320D01*
X78866662Y-75906320D02*
X78866662Y-75715844D01*
X78866662Y-75715844D02*
X78914281Y-75601558D01*
X78914281Y-75601558D02*
X79009519Y-75525368D01*
X79009519Y-75525368D02*
X79104757Y-75487273D01*
X79104757Y-75487273D02*
X79295233Y-75449177D01*
X79295233Y-75449177D02*
X79438090Y-75449177D01*
X79438090Y-75449177D02*
X79628566Y-75487273D01*
X79628566Y-75487273D02*
X79723804Y-75525368D01*
X79723804Y-75525368D02*
X79819043Y-75601558D01*
X79819043Y-75601558D02*
X79866662Y-75715844D01*
X79866662Y-75715844D02*
X79866662Y-75906320D01*
X92457920Y-65413776D02*
X92572206Y-65461395D01*
X92572206Y-65461395D02*
X92762682Y-65461395D01*
X92762682Y-65461395D02*
X92838873Y-65413776D01*
X92838873Y-65413776D02*
X92876968Y-65366156D01*
X92876968Y-65366156D02*
X92915063Y-65270918D01*
X92915063Y-65270918D02*
X92915063Y-65175680D01*
X92915063Y-65175680D02*
X92876968Y-65080442D01*
X92876968Y-65080442D02*
X92838873Y-65032823D01*
X92838873Y-65032823D02*
X92762682Y-64985204D01*
X92762682Y-64985204D02*
X92610301Y-64937585D01*
X92610301Y-64937585D02*
X92534111Y-64889966D01*
X92534111Y-64889966D02*
X92496016Y-64842347D01*
X92496016Y-64842347D02*
X92457920Y-64747109D01*
X92457920Y-64747109D02*
X92457920Y-64651871D01*
X92457920Y-64651871D02*
X92496016Y-64556633D01*
X92496016Y-64556633D02*
X92534111Y-64509014D01*
X92534111Y-64509014D02*
X92610301Y-64461395D01*
X92610301Y-64461395D02*
X92800778Y-64461395D01*
X92800778Y-64461395D02*
X92915063Y-64509014D01*
X93257921Y-65461395D02*
X93257921Y-64461395D01*
X93257921Y-64461395D02*
X93448397Y-64461395D01*
X93448397Y-64461395D02*
X93562683Y-64509014D01*
X93562683Y-64509014D02*
X93638873Y-64604252D01*
X93638873Y-64604252D02*
X93676968Y-64699490D01*
X93676968Y-64699490D02*
X93715064Y-64889966D01*
X93715064Y-64889966D02*
X93715064Y-65032823D01*
X93715064Y-65032823D02*
X93676968Y-65223299D01*
X93676968Y-65223299D02*
X93638873Y-65318537D01*
X93638873Y-65318537D02*
X93562683Y-65413776D01*
X93562683Y-65413776D02*
X93448397Y-65461395D01*
X93448397Y-65461395D02*
X93257921Y-65461395D01*
X94019825Y-65175680D02*
X94400778Y-65175680D01*
X93943635Y-65461395D02*
X94210302Y-64461395D01*
X94210302Y-64461395D02*
X94476968Y-65461395D01*
X93886907Y-34044776D02*
X94001193Y-34092395D01*
X94001193Y-34092395D02*
X94191669Y-34092395D01*
X94191669Y-34092395D02*
X94267860Y-34044776D01*
X94267860Y-34044776D02*
X94305955Y-33997156D01*
X94305955Y-33997156D02*
X94344050Y-33901918D01*
X94344050Y-33901918D02*
X94344050Y-33806680D01*
X94344050Y-33806680D02*
X94305955Y-33711442D01*
X94305955Y-33711442D02*
X94267860Y-33663823D01*
X94267860Y-33663823D02*
X94191669Y-33616204D01*
X94191669Y-33616204D02*
X94039288Y-33568585D01*
X94039288Y-33568585D02*
X93963098Y-33520966D01*
X93963098Y-33520966D02*
X93925003Y-33473347D01*
X93925003Y-33473347D02*
X93886907Y-33378109D01*
X93886907Y-33378109D02*
X93886907Y-33282871D01*
X93886907Y-33282871D02*
X93925003Y-33187633D01*
X93925003Y-33187633D02*
X93963098Y-33140014D01*
X93963098Y-33140014D02*
X94039288Y-33092395D01*
X94039288Y-33092395D02*
X94229765Y-33092395D01*
X94229765Y-33092395D02*
X94344050Y-33140014D01*
X95144051Y-34092395D02*
X94877384Y-33616204D01*
X94686908Y-34092395D02*
X94686908Y-33092395D01*
X94686908Y-33092395D02*
X94991670Y-33092395D01*
X94991670Y-33092395D02*
X95067860Y-33140014D01*
X95067860Y-33140014D02*
X95105955Y-33187633D01*
X95105955Y-33187633D02*
X95144051Y-33282871D01*
X95144051Y-33282871D02*
X95144051Y-33425728D01*
X95144051Y-33425728D02*
X95105955Y-33520966D01*
X95105955Y-33520966D02*
X95067860Y-33568585D01*
X95067860Y-33568585D02*
X94991670Y-33616204D01*
X94991670Y-33616204D02*
X94686908Y-33616204D01*
X95944051Y-33997156D02*
X95905955Y-34044776D01*
X95905955Y-34044776D02*
X95791670Y-34092395D01*
X95791670Y-34092395D02*
X95715479Y-34092395D01*
X95715479Y-34092395D02*
X95601193Y-34044776D01*
X95601193Y-34044776D02*
X95525003Y-33949537D01*
X95525003Y-33949537D02*
X95486908Y-33854299D01*
X95486908Y-33854299D02*
X95448812Y-33663823D01*
X95448812Y-33663823D02*
X95448812Y-33520966D01*
X95448812Y-33520966D02*
X95486908Y-33330490D01*
X95486908Y-33330490D02*
X95525003Y-33235252D01*
X95525003Y-33235252D02*
X95601193Y-33140014D01*
X95601193Y-33140014D02*
X95715479Y-33092395D01*
X95715479Y-33092395D02*
X95791670Y-33092395D01*
X95791670Y-33092395D02*
X95905955Y-33140014D01*
X95905955Y-33140014D02*
X95944051Y-33187633D01*
X71159873Y-79558395D02*
X70893206Y-79082204D01*
X70702730Y-79558395D02*
X70702730Y-78558395D01*
X70702730Y-78558395D02*
X71007492Y-78558395D01*
X71007492Y-78558395D02*
X71083682Y-78606014D01*
X71083682Y-78606014D02*
X71121777Y-78653633D01*
X71121777Y-78653633D02*
X71159873Y-78748871D01*
X71159873Y-78748871D02*
X71159873Y-78891728D01*
X71159873Y-78891728D02*
X71121777Y-78986966D01*
X71121777Y-78986966D02*
X71083682Y-79034585D01*
X71083682Y-79034585D02*
X71007492Y-79082204D01*
X71007492Y-79082204D02*
X70702730Y-79082204D01*
X71426539Y-78558395D02*
X71959873Y-79558395D01*
X71959873Y-78558395D02*
X71426539Y-79558395D01*
X78549715Y-59509819D02*
X78549715Y-58509819D01*
X78549715Y-58986009D02*
X79006858Y-58986009D01*
X79006858Y-59509819D02*
X79006858Y-58509819D01*
X79273524Y-58509819D02*
X79540191Y-59509819D01*
X79540191Y-59509819D02*
X79806857Y-58509819D01*
X80225905Y-58509819D02*
X80378286Y-58509819D01*
X80378286Y-58509819D02*
X80454476Y-58557438D01*
X80454476Y-58557438D02*
X80530667Y-58652676D01*
X80530667Y-58652676D02*
X80568762Y-58843152D01*
X80568762Y-58843152D02*
X80568762Y-59176485D01*
X80568762Y-59176485D02*
X80530667Y-59366961D01*
X80530667Y-59366961D02*
X80454476Y-59462200D01*
X80454476Y-59462200D02*
X80378286Y-59509819D01*
X80378286Y-59509819D02*
X80225905Y-59509819D01*
X80225905Y-59509819D02*
X80149714Y-59462200D01*
X80149714Y-59462200D02*
X80073524Y-59366961D01*
X80073524Y-59366961D02*
X80035428Y-59176485D01*
X80035428Y-59176485D02*
X80035428Y-58843152D01*
X80035428Y-58843152D02*
X80073524Y-58652676D01*
X80073524Y-58652676D02*
X80149714Y-58557438D01*
X80149714Y-58557438D02*
X80225905Y-58509819D01*
X80911619Y-58509819D02*
X80911619Y-59319342D01*
X80911619Y-59319342D02*
X80949714Y-59414580D01*
X80949714Y-59414580D02*
X80987809Y-59462200D01*
X80987809Y-59462200D02*
X81064000Y-59509819D01*
X81064000Y-59509819D02*
X81216381Y-59509819D01*
X81216381Y-59509819D02*
X81292571Y-59462200D01*
X81292571Y-59462200D02*
X81330666Y-59414580D01*
X81330666Y-59414580D02*
X81368762Y-59319342D01*
X81368762Y-59319342D02*
X81368762Y-58509819D01*
X81635428Y-58509819D02*
X82092571Y-58509819D01*
X81863999Y-59509819D02*
X81863999Y-58509819D01*
X52387043Y-80929165D02*
X52434662Y-80814879D01*
X52434662Y-80814879D02*
X52434662Y-80624403D01*
X52434662Y-80624403D02*
X52387043Y-80548212D01*
X52387043Y-80548212D02*
X52339423Y-80510117D01*
X52339423Y-80510117D02*
X52244185Y-80472022D01*
X52244185Y-80472022D02*
X52148947Y-80472022D01*
X52148947Y-80472022D02*
X52053709Y-80510117D01*
X52053709Y-80510117D02*
X52006090Y-80548212D01*
X52006090Y-80548212D02*
X51958471Y-80624403D01*
X51958471Y-80624403D02*
X51910852Y-80776784D01*
X51910852Y-80776784D02*
X51863233Y-80852974D01*
X51863233Y-80852974D02*
X51815614Y-80891069D01*
X51815614Y-80891069D02*
X51720376Y-80929165D01*
X51720376Y-80929165D02*
X51625138Y-80929165D01*
X51625138Y-80929165D02*
X51529900Y-80891069D01*
X51529900Y-80891069D02*
X51482281Y-80852974D01*
X51482281Y-80852974D02*
X51434662Y-80776784D01*
X51434662Y-80776784D02*
X51434662Y-80586307D01*
X51434662Y-80586307D02*
X51482281Y-80472022D01*
X51434662Y-80205355D02*
X52434662Y-80014879D01*
X52434662Y-80014879D02*
X51720376Y-79862498D01*
X51720376Y-79862498D02*
X52434662Y-79710117D01*
X52434662Y-79710117D02*
X51434662Y-79519641D01*
X51434662Y-79062497D02*
X51434662Y-78910116D01*
X51434662Y-78910116D02*
X51482281Y-78833926D01*
X51482281Y-78833926D02*
X51577519Y-78757735D01*
X51577519Y-78757735D02*
X51767995Y-78719640D01*
X51767995Y-78719640D02*
X52101328Y-78719640D01*
X52101328Y-78719640D02*
X52291804Y-78757735D01*
X52291804Y-78757735D02*
X52387043Y-78833926D01*
X52387043Y-78833926D02*
X52434662Y-78910116D01*
X52434662Y-78910116D02*
X52434662Y-79062497D01*
X52434662Y-79062497D02*
X52387043Y-79138688D01*
X52387043Y-79138688D02*
X52291804Y-79214878D01*
X52291804Y-79214878D02*
X52101328Y-79252974D01*
X52101328Y-79252974D02*
X51767995Y-79252974D01*
X51767995Y-79252974D02*
X51577519Y-79214878D01*
X51577519Y-79214878D02*
X51482281Y-79138688D01*
X51482281Y-79138688D02*
X51434662Y-79062497D01*
X68800420Y-65487240D02*
X68914706Y-65534859D01*
X68914706Y-65534859D02*
X69105182Y-65534859D01*
X69105182Y-65534859D02*
X69181373Y-65487240D01*
X69181373Y-65487240D02*
X69219468Y-65439620D01*
X69219468Y-65439620D02*
X69257563Y-65344382D01*
X69257563Y-65344382D02*
X69257563Y-65249144D01*
X69257563Y-65249144D02*
X69219468Y-65153906D01*
X69219468Y-65153906D02*
X69181373Y-65106287D01*
X69181373Y-65106287D02*
X69105182Y-65058668D01*
X69105182Y-65058668D02*
X68952801Y-65011049D01*
X68952801Y-65011049D02*
X68876611Y-64963430D01*
X68876611Y-64963430D02*
X68838516Y-64915811D01*
X68838516Y-64915811D02*
X68800420Y-64820573D01*
X68800420Y-64820573D02*
X68800420Y-64725335D01*
X68800420Y-64725335D02*
X68838516Y-64630097D01*
X68838516Y-64630097D02*
X68876611Y-64582478D01*
X68876611Y-64582478D02*
X68952801Y-64534859D01*
X68952801Y-64534859D02*
X69143278Y-64534859D01*
X69143278Y-64534859D02*
X69257563Y-64582478D01*
X70019468Y-65534859D02*
X69562325Y-65534859D01*
X69790897Y-65534859D02*
X69790897Y-64534859D01*
X69790897Y-64534859D02*
X69714706Y-64677716D01*
X69714706Y-64677716D02*
X69638516Y-64772954D01*
X69638516Y-64772954D02*
X69562325Y-64820573D01*
X57467043Y-82110117D02*
X57514662Y-81995831D01*
X57514662Y-81995831D02*
X57514662Y-81805355D01*
X57514662Y-81805355D02*
X57467043Y-81729164D01*
X57467043Y-81729164D02*
X57419423Y-81691069D01*
X57419423Y-81691069D02*
X57324185Y-81652974D01*
X57324185Y-81652974D02*
X57228947Y-81652974D01*
X57228947Y-81652974D02*
X57133709Y-81691069D01*
X57133709Y-81691069D02*
X57086090Y-81729164D01*
X57086090Y-81729164D02*
X57038471Y-81805355D01*
X57038471Y-81805355D02*
X56990852Y-81957736D01*
X56990852Y-81957736D02*
X56943233Y-82033926D01*
X56943233Y-82033926D02*
X56895614Y-82072021D01*
X56895614Y-82072021D02*
X56800376Y-82110117D01*
X56800376Y-82110117D02*
X56705138Y-82110117D01*
X56705138Y-82110117D02*
X56609900Y-82072021D01*
X56609900Y-82072021D02*
X56562281Y-82033926D01*
X56562281Y-82033926D02*
X56514662Y-81957736D01*
X56514662Y-81957736D02*
X56514662Y-81767259D01*
X56514662Y-81767259D02*
X56562281Y-81652974D01*
X56514662Y-81386307D02*
X57514662Y-81195831D01*
X57514662Y-81195831D02*
X56800376Y-81043450D01*
X56800376Y-81043450D02*
X57514662Y-80891069D01*
X57514662Y-80891069D02*
X56514662Y-80700593D01*
X57514662Y-80395830D02*
X56514662Y-80395830D01*
X56514662Y-80395830D02*
X56514662Y-80205354D01*
X56514662Y-80205354D02*
X56562281Y-80091068D01*
X56562281Y-80091068D02*
X56657519Y-80014878D01*
X56657519Y-80014878D02*
X56752757Y-79976783D01*
X56752757Y-79976783D02*
X56943233Y-79938687D01*
X56943233Y-79938687D02*
X57086090Y-79938687D01*
X57086090Y-79938687D02*
X57276566Y-79976783D01*
X57276566Y-79976783D02*
X57371804Y-80014878D01*
X57371804Y-80014878D02*
X57467043Y-80091068D01*
X57467043Y-80091068D02*
X57514662Y-80205354D01*
X57514662Y-80205354D02*
X57514662Y-80395830D01*
X57514662Y-79595830D02*
X56514662Y-79595830D01*
X56514662Y-79062497D02*
X56514662Y-78910116D01*
X56514662Y-78910116D02*
X56562281Y-78833926D01*
X56562281Y-78833926D02*
X56657519Y-78757735D01*
X56657519Y-78757735D02*
X56847995Y-78719640D01*
X56847995Y-78719640D02*
X57181328Y-78719640D01*
X57181328Y-78719640D02*
X57371804Y-78757735D01*
X57371804Y-78757735D02*
X57467043Y-78833926D01*
X57467043Y-78833926D02*
X57514662Y-78910116D01*
X57514662Y-78910116D02*
X57514662Y-79062497D01*
X57514662Y-79062497D02*
X57467043Y-79138688D01*
X57467043Y-79138688D02*
X57371804Y-79214878D01*
X57371804Y-79214878D02*
X57181328Y-79252974D01*
X57181328Y-79252974D02*
X56847995Y-79252974D01*
X56847995Y-79252974D02*
X56657519Y-79214878D01*
X56657519Y-79214878D02*
X56562281Y-79138688D01*
X56562281Y-79138688D02*
X56514662Y-79062497D01*
X39051414Y-48840395D02*
X39051414Y-49649918D01*
X39051414Y-49649918D02*
X39089509Y-49745156D01*
X39089509Y-49745156D02*
X39127604Y-49792776D01*
X39127604Y-49792776D02*
X39203795Y-49840395D01*
X39203795Y-49840395D02*
X39356176Y-49840395D01*
X39356176Y-49840395D02*
X39432366Y-49792776D01*
X39432366Y-49792776D02*
X39470461Y-49745156D01*
X39470461Y-49745156D02*
X39508557Y-49649918D01*
X39508557Y-49649918D02*
X39508557Y-48840395D01*
X39851413Y-49792776D02*
X39965699Y-49840395D01*
X39965699Y-49840395D02*
X40156175Y-49840395D01*
X40156175Y-49840395D02*
X40232366Y-49792776D01*
X40232366Y-49792776D02*
X40270461Y-49745156D01*
X40270461Y-49745156D02*
X40308556Y-49649918D01*
X40308556Y-49649918D02*
X40308556Y-49554680D01*
X40308556Y-49554680D02*
X40270461Y-49459442D01*
X40270461Y-49459442D02*
X40232366Y-49411823D01*
X40232366Y-49411823D02*
X40156175Y-49364204D01*
X40156175Y-49364204D02*
X40003794Y-49316585D01*
X40003794Y-49316585D02*
X39927604Y-49268966D01*
X39927604Y-49268966D02*
X39889509Y-49221347D01*
X39889509Y-49221347D02*
X39851413Y-49126109D01*
X39851413Y-49126109D02*
X39851413Y-49030871D01*
X39851413Y-49030871D02*
X39889509Y-48935633D01*
X39889509Y-48935633D02*
X39927604Y-48888014D01*
X39927604Y-48888014D02*
X40003794Y-48840395D01*
X40003794Y-48840395D02*
X40194271Y-48840395D01*
X40194271Y-48840395D02*
X40308556Y-48888014D01*
X40651414Y-49316585D02*
X40918080Y-49316585D01*
X41032366Y-49840395D02*
X40651414Y-49840395D01*
X40651414Y-49840395D02*
X40651414Y-48840395D01*
X40651414Y-48840395D02*
X41032366Y-48840395D01*
X41832367Y-49840395D02*
X41565700Y-49364204D01*
X41375224Y-49840395D02*
X41375224Y-48840395D01*
X41375224Y-48840395D02*
X41679986Y-48840395D01*
X41679986Y-48840395D02*
X41756176Y-48888014D01*
X41756176Y-48888014D02*
X41794271Y-48935633D01*
X41794271Y-48935633D02*
X41832367Y-49030871D01*
X41832367Y-49030871D02*
X41832367Y-49173728D01*
X41832367Y-49173728D02*
X41794271Y-49268966D01*
X41794271Y-49268966D02*
X41756176Y-49316585D01*
X41756176Y-49316585D02*
X41679986Y-49364204D01*
X41679986Y-49364204D02*
X41375224Y-49364204D01*
X88506428Y-54382200D02*
X88620714Y-54429819D01*
X88620714Y-54429819D02*
X88811190Y-54429819D01*
X88811190Y-54429819D02*
X88887381Y-54382200D01*
X88887381Y-54382200D02*
X88925476Y-54334580D01*
X88925476Y-54334580D02*
X88963571Y-54239342D01*
X88963571Y-54239342D02*
X88963571Y-54144104D01*
X88963571Y-54144104D02*
X88925476Y-54048866D01*
X88925476Y-54048866D02*
X88887381Y-54001247D01*
X88887381Y-54001247D02*
X88811190Y-53953628D01*
X88811190Y-53953628D02*
X88658809Y-53906009D01*
X88658809Y-53906009D02*
X88582619Y-53858390D01*
X88582619Y-53858390D02*
X88544524Y-53810771D01*
X88544524Y-53810771D02*
X88506428Y-53715533D01*
X88506428Y-53715533D02*
X88506428Y-53620295D01*
X88506428Y-53620295D02*
X88544524Y-53525057D01*
X88544524Y-53525057D02*
X88582619Y-53477438D01*
X88582619Y-53477438D02*
X88658809Y-53429819D01*
X88658809Y-53429819D02*
X88849286Y-53429819D01*
X88849286Y-53429819D02*
X88963571Y-53477438D01*
X89763572Y-54429819D02*
X89496905Y-53953628D01*
X89306429Y-54429819D02*
X89306429Y-53429819D01*
X89306429Y-53429819D02*
X89611191Y-53429819D01*
X89611191Y-53429819D02*
X89687381Y-53477438D01*
X89687381Y-53477438D02*
X89725476Y-53525057D01*
X89725476Y-53525057D02*
X89763572Y-53620295D01*
X89763572Y-53620295D02*
X89763572Y-53763152D01*
X89763572Y-53763152D02*
X89725476Y-53858390D01*
X89725476Y-53858390D02*
X89687381Y-53906009D01*
X89687381Y-53906009D02*
X89611191Y-53953628D01*
X89611191Y-53953628D02*
X89306429Y-53953628D01*
X90563572Y-54334580D02*
X90525476Y-54382200D01*
X90525476Y-54382200D02*
X90411191Y-54429819D01*
X90411191Y-54429819D02*
X90335000Y-54429819D01*
X90335000Y-54429819D02*
X90220714Y-54382200D01*
X90220714Y-54382200D02*
X90144524Y-54286961D01*
X90144524Y-54286961D02*
X90106429Y-54191723D01*
X90106429Y-54191723D02*
X90068333Y-54001247D01*
X90068333Y-54001247D02*
X90068333Y-53858390D01*
X90068333Y-53858390D02*
X90106429Y-53667914D01*
X90106429Y-53667914D02*
X90144524Y-53572676D01*
X90144524Y-53572676D02*
X90220714Y-53477438D01*
X90220714Y-53477438D02*
X90335000Y-53429819D01*
X90335000Y-53429819D02*
X90411191Y-53429819D01*
X90411191Y-53429819D02*
X90525476Y-53477438D01*
X90525476Y-53477438D02*
X90563572Y-53525057D01*
X46354662Y-80814878D02*
X47354662Y-80548211D01*
X47354662Y-80548211D02*
X46354662Y-80281545D01*
X47354662Y-80014878D02*
X46687995Y-80014878D01*
X46878471Y-80014878D02*
X46783233Y-79976783D01*
X46783233Y-79976783D02*
X46735614Y-79938688D01*
X46735614Y-79938688D02*
X46687995Y-79862497D01*
X46687995Y-79862497D02*
X46687995Y-79786307D01*
X47307043Y-79214878D02*
X47354662Y-79291069D01*
X47354662Y-79291069D02*
X47354662Y-79443450D01*
X47354662Y-79443450D02*
X47307043Y-79519640D01*
X47307043Y-79519640D02*
X47211804Y-79557736D01*
X47211804Y-79557736D02*
X46830852Y-79557736D01*
X46830852Y-79557736D02*
X46735614Y-79519640D01*
X46735614Y-79519640D02*
X46687995Y-79443450D01*
X46687995Y-79443450D02*
X46687995Y-79291069D01*
X46687995Y-79291069D02*
X46735614Y-79214878D01*
X46735614Y-79214878D02*
X46830852Y-79176783D01*
X46830852Y-79176783D02*
X46926090Y-79176783D01*
X46926090Y-79176783D02*
X47021328Y-79557736D01*
X46687995Y-78948212D02*
X46687995Y-78643450D01*
X47354662Y-78833926D02*
X46497519Y-78833926D01*
X46497519Y-78833926D02*
X46402281Y-78795831D01*
X46402281Y-78795831D02*
X46354662Y-78719641D01*
X46354662Y-78719641D02*
X46354662Y-78643450D01*
X94217662Y-77307839D02*
X93217662Y-77307839D01*
X93217662Y-77307839D02*
X93217662Y-77117363D01*
X93217662Y-77117363D02*
X93265281Y-77003077D01*
X93265281Y-77003077D02*
X93360519Y-76926887D01*
X93360519Y-76926887D02*
X93455757Y-76888792D01*
X93455757Y-76888792D02*
X93646233Y-76850696D01*
X93646233Y-76850696D02*
X93789090Y-76850696D01*
X93789090Y-76850696D02*
X93979566Y-76888792D01*
X93979566Y-76888792D02*
X94074804Y-76926887D01*
X94074804Y-76926887D02*
X94170043Y-77003077D01*
X94170043Y-77003077D02*
X94217662Y-77117363D01*
X94217662Y-77117363D02*
X94217662Y-77307839D01*
X93693852Y-76241173D02*
X93693852Y-76507839D01*
X94217662Y-76507839D02*
X93217662Y-76507839D01*
X93217662Y-76507839D02*
X93217662Y-76126887D01*
X94217662Y-75364982D02*
X93741471Y-75631649D01*
X94217662Y-75822125D02*
X93217662Y-75822125D01*
X93217662Y-75822125D02*
X93217662Y-75517363D01*
X93217662Y-75517363D02*
X93265281Y-75441173D01*
X93265281Y-75441173D02*
X93312900Y-75403078D01*
X93312900Y-75403078D02*
X93408138Y-75364982D01*
X93408138Y-75364982D02*
X93550995Y-75364982D01*
X93550995Y-75364982D02*
X93646233Y-75403078D01*
X93646233Y-75403078D02*
X93693852Y-75441173D01*
X93693852Y-75441173D02*
X93741471Y-75517363D01*
X93741471Y-75517363D02*
X93741471Y-75822125D01*
X92343635Y-61921395D02*
X92610302Y-62921395D01*
X92610302Y-62921395D02*
X92876968Y-61921395D01*
X93143635Y-62921395D02*
X93143635Y-61921395D01*
X93143635Y-61921395D02*
X93334111Y-61921395D01*
X93334111Y-61921395D02*
X93448397Y-61969014D01*
X93448397Y-61969014D02*
X93524587Y-62064252D01*
X93524587Y-62064252D02*
X93562682Y-62159490D01*
X93562682Y-62159490D02*
X93600778Y-62349966D01*
X93600778Y-62349966D02*
X93600778Y-62492823D01*
X93600778Y-62492823D02*
X93562682Y-62683299D01*
X93562682Y-62683299D02*
X93524587Y-62778537D01*
X93524587Y-62778537D02*
X93448397Y-62873776D01*
X93448397Y-62873776D02*
X93334111Y-62921395D01*
X93334111Y-62921395D02*
X93143635Y-62921395D01*
X93943635Y-62921395D02*
X93943635Y-61921395D01*
X93943635Y-61921395D02*
X94134111Y-61921395D01*
X94134111Y-61921395D02*
X94248397Y-61969014D01*
X94248397Y-61969014D02*
X94324587Y-62064252D01*
X94324587Y-62064252D02*
X94362682Y-62159490D01*
X94362682Y-62159490D02*
X94400778Y-62349966D01*
X94400778Y-62349966D02*
X94400778Y-62492823D01*
X94400778Y-62492823D02*
X94362682Y-62683299D01*
X94362682Y-62683299D02*
X94324587Y-62778537D01*
X94324587Y-62778537D02*
X94248397Y-62873776D01*
X94248397Y-62873776D02*
X94134111Y-62921395D01*
X94134111Y-62921395D02*
X93943635Y-62921395D01*
X38845662Y-76909415D02*
X37845662Y-76909415D01*
X37845662Y-76909415D02*
X37845662Y-76604653D01*
X37845662Y-76604653D02*
X37893281Y-76528463D01*
X37893281Y-76528463D02*
X37940900Y-76490368D01*
X37940900Y-76490368D02*
X38036138Y-76452272D01*
X38036138Y-76452272D02*
X38178995Y-76452272D01*
X38178995Y-76452272D02*
X38274233Y-76490368D01*
X38274233Y-76490368D02*
X38321852Y-76528463D01*
X38321852Y-76528463D02*
X38369471Y-76604653D01*
X38369471Y-76604653D02*
X38369471Y-76909415D01*
X38845662Y-76109415D02*
X38178995Y-76109415D01*
X38369471Y-76109415D02*
X38274233Y-76071320D01*
X38274233Y-76071320D02*
X38226614Y-76033225D01*
X38226614Y-76033225D02*
X38178995Y-75957034D01*
X38178995Y-75957034D02*
X38178995Y-75880844D01*
X38845662Y-75499892D02*
X38798043Y-75576082D01*
X38798043Y-75576082D02*
X38750423Y-75614177D01*
X38750423Y-75614177D02*
X38655185Y-75652273D01*
X38655185Y-75652273D02*
X38369471Y-75652273D01*
X38369471Y-75652273D02*
X38274233Y-75614177D01*
X38274233Y-75614177D02*
X38226614Y-75576082D01*
X38226614Y-75576082D02*
X38178995Y-75499892D01*
X38178995Y-75499892D02*
X38178995Y-75385606D01*
X38178995Y-75385606D02*
X38226614Y-75309415D01*
X38226614Y-75309415D02*
X38274233Y-75271320D01*
X38274233Y-75271320D02*
X38369471Y-75233225D01*
X38369471Y-75233225D02*
X38655185Y-75233225D01*
X38655185Y-75233225D02*
X38750423Y-75271320D01*
X38750423Y-75271320D02*
X38798043Y-75309415D01*
X38798043Y-75309415D02*
X38845662Y-75385606D01*
X38845662Y-75385606D02*
X38845662Y-75499892D01*
X38178995Y-75004653D02*
X38178995Y-74699891D01*
X37845662Y-74890367D02*
X38702804Y-74890367D01*
X38702804Y-74890367D02*
X38798043Y-74852272D01*
X38798043Y-74852272D02*
X38845662Y-74776082D01*
X38845662Y-74776082D02*
X38845662Y-74699891D01*
X38845662Y-74318939D02*
X38798043Y-74395129D01*
X38798043Y-74395129D02*
X38750423Y-74433224D01*
X38750423Y-74433224D02*
X38655185Y-74471320D01*
X38655185Y-74471320D02*
X38369471Y-74471320D01*
X38369471Y-74471320D02*
X38274233Y-74433224D01*
X38274233Y-74433224D02*
X38226614Y-74395129D01*
X38226614Y-74395129D02*
X38178995Y-74318939D01*
X38178995Y-74318939D02*
X38178995Y-74204653D01*
X38178995Y-74204653D02*
X38226614Y-74128462D01*
X38226614Y-74128462D02*
X38274233Y-74090367D01*
X38274233Y-74090367D02*
X38369471Y-74052272D01*
X38369471Y-74052272D02*
X38655185Y-74052272D01*
X38655185Y-74052272D02*
X38750423Y-74090367D01*
X38750423Y-74090367D02*
X38798043Y-74128462D01*
X38798043Y-74128462D02*
X38845662Y-74204653D01*
X38845662Y-74204653D02*
X38845662Y-74318939D01*
X38178995Y-73823700D02*
X38178995Y-73518938D01*
X37845662Y-73709414D02*
X38702804Y-73709414D01*
X38702804Y-73709414D02*
X38798043Y-73671319D01*
X38798043Y-73671319D02*
X38845662Y-73595129D01*
X38845662Y-73595129D02*
X38845662Y-73518938D01*
X38845662Y-73252271D02*
X38178995Y-73252271D01*
X37845662Y-73252271D02*
X37893281Y-73290367D01*
X37893281Y-73290367D02*
X37940900Y-73252271D01*
X37940900Y-73252271D02*
X37893281Y-73214176D01*
X37893281Y-73214176D02*
X37845662Y-73252271D01*
X37845662Y-73252271D02*
X37940900Y-73252271D01*
X38178995Y-72871319D02*
X39178995Y-72871319D01*
X38226614Y-72871319D02*
X38178995Y-72795129D01*
X38178995Y-72795129D02*
X38178995Y-72642748D01*
X38178995Y-72642748D02*
X38226614Y-72566557D01*
X38226614Y-72566557D02*
X38274233Y-72528462D01*
X38274233Y-72528462D02*
X38369471Y-72490367D01*
X38369471Y-72490367D02*
X38655185Y-72490367D01*
X38655185Y-72490367D02*
X38750423Y-72528462D01*
X38750423Y-72528462D02*
X38798043Y-72566557D01*
X38798043Y-72566557D02*
X38845662Y-72642748D01*
X38845662Y-72642748D02*
X38845662Y-72795129D01*
X38845662Y-72795129D02*
X38798043Y-72871319D01*
X38845662Y-72033224D02*
X38798043Y-72109414D01*
X38798043Y-72109414D02*
X38750423Y-72147509D01*
X38750423Y-72147509D02*
X38655185Y-72185605D01*
X38655185Y-72185605D02*
X38369471Y-72185605D01*
X38369471Y-72185605D02*
X38274233Y-72147509D01*
X38274233Y-72147509D02*
X38226614Y-72109414D01*
X38226614Y-72109414D02*
X38178995Y-72033224D01*
X38178995Y-72033224D02*
X38178995Y-71918938D01*
X38178995Y-71918938D02*
X38226614Y-71842747D01*
X38226614Y-71842747D02*
X38274233Y-71804652D01*
X38274233Y-71804652D02*
X38369471Y-71766557D01*
X38369471Y-71766557D02*
X38655185Y-71766557D01*
X38655185Y-71766557D02*
X38750423Y-71804652D01*
X38750423Y-71804652D02*
X38798043Y-71842747D01*
X38798043Y-71842747D02*
X38845662Y-71918938D01*
X38845662Y-71918938D02*
X38845662Y-72033224D01*
X38845662Y-70814175D02*
X37845662Y-70814175D01*
X37845662Y-70814175D02*
X37845662Y-70509413D01*
X37845662Y-70509413D02*
X37893281Y-70433223D01*
X37893281Y-70433223D02*
X37940900Y-70395128D01*
X37940900Y-70395128D02*
X38036138Y-70357032D01*
X38036138Y-70357032D02*
X38178995Y-70357032D01*
X38178995Y-70357032D02*
X38274233Y-70395128D01*
X38274233Y-70395128D02*
X38321852Y-70433223D01*
X38321852Y-70433223D02*
X38369471Y-70509413D01*
X38369471Y-70509413D02*
X38369471Y-70814175D01*
X38750423Y-69557032D02*
X38798043Y-69595128D01*
X38798043Y-69595128D02*
X38845662Y-69709413D01*
X38845662Y-69709413D02*
X38845662Y-69785604D01*
X38845662Y-69785604D02*
X38798043Y-69899890D01*
X38798043Y-69899890D02*
X38702804Y-69976080D01*
X38702804Y-69976080D02*
X38607566Y-70014175D01*
X38607566Y-70014175D02*
X38417090Y-70052271D01*
X38417090Y-70052271D02*
X38274233Y-70052271D01*
X38274233Y-70052271D02*
X38083757Y-70014175D01*
X38083757Y-70014175D02*
X37988519Y-69976080D01*
X37988519Y-69976080D02*
X37893281Y-69899890D01*
X37893281Y-69899890D02*
X37845662Y-69785604D01*
X37845662Y-69785604D02*
X37845662Y-69709413D01*
X37845662Y-69709413D02*
X37893281Y-69595128D01*
X37893281Y-69595128D02*
X37940900Y-69557032D01*
X38321852Y-68947509D02*
X38369471Y-68833223D01*
X38369471Y-68833223D02*
X38417090Y-68795128D01*
X38417090Y-68795128D02*
X38512328Y-68757032D01*
X38512328Y-68757032D02*
X38655185Y-68757032D01*
X38655185Y-68757032D02*
X38750423Y-68795128D01*
X38750423Y-68795128D02*
X38798043Y-68833223D01*
X38798043Y-68833223D02*
X38845662Y-68909413D01*
X38845662Y-68909413D02*
X38845662Y-69214175D01*
X38845662Y-69214175D02*
X37845662Y-69214175D01*
X37845662Y-69214175D02*
X37845662Y-68947509D01*
X37845662Y-68947509D02*
X37893281Y-68871318D01*
X37893281Y-68871318D02*
X37940900Y-68833223D01*
X37940900Y-68833223D02*
X38036138Y-68795128D01*
X38036138Y-68795128D02*
X38131376Y-68795128D01*
X38131376Y-68795128D02*
X38226614Y-68833223D01*
X38226614Y-68833223D02*
X38274233Y-68871318D01*
X38274233Y-68871318D02*
X38321852Y-68947509D01*
X38321852Y-68947509D02*
X38321852Y-69214175D01*
X38845662Y-67804651D02*
X37845662Y-67804651D01*
X37845662Y-67804651D02*
X38559947Y-67537985D01*
X38559947Y-67537985D02*
X37845662Y-67271318D01*
X37845662Y-67271318D02*
X38845662Y-67271318D01*
X38845662Y-66547508D02*
X38321852Y-66547508D01*
X38321852Y-66547508D02*
X38226614Y-66585603D01*
X38226614Y-66585603D02*
X38178995Y-66661794D01*
X38178995Y-66661794D02*
X38178995Y-66814175D01*
X38178995Y-66814175D02*
X38226614Y-66890365D01*
X38798043Y-66547508D02*
X38845662Y-66623699D01*
X38845662Y-66623699D02*
X38845662Y-66814175D01*
X38845662Y-66814175D02*
X38798043Y-66890365D01*
X38798043Y-66890365D02*
X38702804Y-66928461D01*
X38702804Y-66928461D02*
X38607566Y-66928461D01*
X38607566Y-66928461D02*
X38512328Y-66890365D01*
X38512328Y-66890365D02*
X38464709Y-66814175D01*
X38464709Y-66814175D02*
X38464709Y-66623699D01*
X38464709Y-66623699D02*
X38417090Y-66547508D01*
X38845662Y-66166555D02*
X38178995Y-66166555D01*
X37845662Y-66166555D02*
X37893281Y-66204651D01*
X37893281Y-66204651D02*
X37940900Y-66166555D01*
X37940900Y-66166555D02*
X37893281Y-66128460D01*
X37893281Y-66128460D02*
X37845662Y-66166555D01*
X37845662Y-66166555D02*
X37940900Y-66166555D01*
X38178995Y-65785603D02*
X38845662Y-65785603D01*
X38274233Y-65785603D02*
X38226614Y-65747508D01*
X38226614Y-65747508D02*
X38178995Y-65671318D01*
X38178995Y-65671318D02*
X38178995Y-65557032D01*
X38178995Y-65557032D02*
X38226614Y-65480841D01*
X38226614Y-65480841D02*
X38321852Y-65442746D01*
X38321852Y-65442746D02*
X38845662Y-65442746D01*
X73611063Y-33568585D02*
X73725349Y-33616204D01*
X73725349Y-33616204D02*
X73763444Y-33663823D01*
X73763444Y-33663823D02*
X73801540Y-33759061D01*
X73801540Y-33759061D02*
X73801540Y-33901918D01*
X73801540Y-33901918D02*
X73763444Y-33997156D01*
X73763444Y-33997156D02*
X73725349Y-34044776D01*
X73725349Y-34044776D02*
X73649159Y-34092395D01*
X73649159Y-34092395D02*
X73344397Y-34092395D01*
X73344397Y-34092395D02*
X73344397Y-33092395D01*
X73344397Y-33092395D02*
X73611063Y-33092395D01*
X73611063Y-33092395D02*
X73687254Y-33140014D01*
X73687254Y-33140014D02*
X73725349Y-33187633D01*
X73725349Y-33187633D02*
X73763444Y-33282871D01*
X73763444Y-33282871D02*
X73763444Y-33378109D01*
X73763444Y-33378109D02*
X73725349Y-33473347D01*
X73725349Y-33473347D02*
X73687254Y-33520966D01*
X73687254Y-33520966D02*
X73611063Y-33568585D01*
X73611063Y-33568585D02*
X73344397Y-33568585D01*
X74106301Y-33806680D02*
X74487254Y-33806680D01*
X74030111Y-34092395D02*
X74296778Y-33092395D01*
X74296778Y-33092395D02*
X74563444Y-34092395D01*
X74715825Y-33092395D02*
X75172968Y-33092395D01*
X74944396Y-34092395D02*
X74944396Y-33092395D01*
X92496015Y-68080776D02*
X92610301Y-68128395D01*
X92610301Y-68128395D02*
X92800777Y-68128395D01*
X92800777Y-68128395D02*
X92876968Y-68080776D01*
X92876968Y-68080776D02*
X92915063Y-68033156D01*
X92915063Y-68033156D02*
X92953158Y-67937918D01*
X92953158Y-67937918D02*
X92953158Y-67842680D01*
X92953158Y-67842680D02*
X92915063Y-67747442D01*
X92915063Y-67747442D02*
X92876968Y-67699823D01*
X92876968Y-67699823D02*
X92800777Y-67652204D01*
X92800777Y-67652204D02*
X92648396Y-67604585D01*
X92648396Y-67604585D02*
X92572206Y-67556966D01*
X92572206Y-67556966D02*
X92534111Y-67509347D01*
X92534111Y-67509347D02*
X92496015Y-67414109D01*
X92496015Y-67414109D02*
X92496015Y-67318871D01*
X92496015Y-67318871D02*
X92534111Y-67223633D01*
X92534111Y-67223633D02*
X92572206Y-67176014D01*
X92572206Y-67176014D02*
X92648396Y-67128395D01*
X92648396Y-67128395D02*
X92838873Y-67128395D01*
X92838873Y-67128395D02*
X92953158Y-67176014D01*
X93753159Y-68033156D02*
X93715063Y-68080776D01*
X93715063Y-68080776D02*
X93600778Y-68128395D01*
X93600778Y-68128395D02*
X93524587Y-68128395D01*
X93524587Y-68128395D02*
X93410301Y-68080776D01*
X93410301Y-68080776D02*
X93334111Y-67985537D01*
X93334111Y-67985537D02*
X93296016Y-67890299D01*
X93296016Y-67890299D02*
X93257920Y-67699823D01*
X93257920Y-67699823D02*
X93257920Y-67556966D01*
X93257920Y-67556966D02*
X93296016Y-67366490D01*
X93296016Y-67366490D02*
X93334111Y-67271252D01*
X93334111Y-67271252D02*
X93410301Y-67176014D01*
X93410301Y-67176014D02*
X93524587Y-67128395D01*
X93524587Y-67128395D02*
X93600778Y-67128395D01*
X93600778Y-67128395D02*
X93715063Y-67176014D01*
X93715063Y-67176014D02*
X93753159Y-67223633D01*
X94476968Y-68128395D02*
X94096016Y-68128395D01*
X94096016Y-68128395D02*
X94096016Y-67128395D01*
X92724587Y-56889014D02*
X92648397Y-56841395D01*
X92648397Y-56841395D02*
X92534111Y-56841395D01*
X92534111Y-56841395D02*
X92419825Y-56889014D01*
X92419825Y-56889014D02*
X92343635Y-56984252D01*
X92343635Y-56984252D02*
X92305540Y-57079490D01*
X92305540Y-57079490D02*
X92267444Y-57269966D01*
X92267444Y-57269966D02*
X92267444Y-57412823D01*
X92267444Y-57412823D02*
X92305540Y-57603299D01*
X92305540Y-57603299D02*
X92343635Y-57698537D01*
X92343635Y-57698537D02*
X92419825Y-57793776D01*
X92419825Y-57793776D02*
X92534111Y-57841395D01*
X92534111Y-57841395D02*
X92610302Y-57841395D01*
X92610302Y-57841395D02*
X92724587Y-57793776D01*
X92724587Y-57793776D02*
X92762683Y-57746156D01*
X92762683Y-57746156D02*
X92762683Y-57412823D01*
X92762683Y-57412823D02*
X92610302Y-57412823D01*
X93105540Y-57841395D02*
X93105540Y-56841395D01*
X93105540Y-56841395D02*
X93562683Y-57841395D01*
X93562683Y-57841395D02*
X93562683Y-56841395D01*
X93943635Y-57841395D02*
X93943635Y-56841395D01*
X93943635Y-56841395D02*
X94134111Y-56841395D01*
X94134111Y-56841395D02*
X94248397Y-56889014D01*
X94248397Y-56889014D02*
X94324587Y-56984252D01*
X94324587Y-56984252D02*
X94362682Y-57079490D01*
X94362682Y-57079490D02*
X94400778Y-57269966D01*
X94400778Y-57269966D02*
X94400778Y-57412823D01*
X94400778Y-57412823D02*
X94362682Y-57603299D01*
X94362682Y-57603299D02*
X94324587Y-57698537D01*
X94324587Y-57698537D02*
X94248397Y-57793776D01*
X94248397Y-57793776D02*
X94134111Y-57841395D01*
X94134111Y-57841395D02*
X93943635Y-57841395D01*
X68417157Y-56079395D02*
X68912395Y-56079395D01*
X68912395Y-56079395D02*
X68645729Y-56460347D01*
X68645729Y-56460347D02*
X68760014Y-56460347D01*
X68760014Y-56460347D02*
X68836205Y-56507966D01*
X68836205Y-56507966D02*
X68874300Y-56555585D01*
X68874300Y-56555585D02*
X68912395Y-56650823D01*
X68912395Y-56650823D02*
X68912395Y-56888918D01*
X68912395Y-56888918D02*
X68874300Y-56984156D01*
X68874300Y-56984156D02*
X68836205Y-57031776D01*
X68836205Y-57031776D02*
X68760014Y-57079395D01*
X68760014Y-57079395D02*
X68531443Y-57079395D01*
X68531443Y-57079395D02*
X68455252Y-57031776D01*
X68455252Y-57031776D02*
X68417157Y-56984156D01*
X69140967Y-56079395D02*
X69407634Y-57079395D01*
X69407634Y-57079395D02*
X69674300Y-56079395D01*
X69864776Y-56079395D02*
X70360014Y-56079395D01*
X70360014Y-56079395D02*
X70093348Y-56460347D01*
X70093348Y-56460347D02*
X70207633Y-56460347D01*
X70207633Y-56460347D02*
X70283824Y-56507966D01*
X70283824Y-56507966D02*
X70321919Y-56555585D01*
X70321919Y-56555585D02*
X70360014Y-56650823D01*
X70360014Y-56650823D02*
X70360014Y-56888918D01*
X70360014Y-56888918D02*
X70321919Y-56984156D01*
X70321919Y-56984156D02*
X70283824Y-57031776D01*
X70283824Y-57031776D02*
X70207633Y-57079395D01*
X70207633Y-57079395D02*
X69979062Y-57079395D01*
X69979062Y-57079395D02*
X69902871Y-57031776D01*
X69902871Y-57031776D02*
X69864776Y-56984156D01*
X70512396Y-57174633D02*
X71121919Y-57174633D01*
X71312396Y-56555585D02*
X71579062Y-56555585D01*
X71693348Y-57079395D02*
X71312396Y-57079395D01*
X71312396Y-57079395D02*
X71312396Y-56079395D01*
X71312396Y-56079395D02*
X71693348Y-56079395D01*
X71960015Y-56079395D02*
X72493349Y-57079395D01*
X72493349Y-56079395D02*
X71960015Y-57079395D01*
X72683825Y-56079395D02*
X73140968Y-56079395D01*
X72912396Y-57079395D02*
X72912396Y-56079395D01*
X85261523Y-53906009D02*
X85375809Y-53953628D01*
X85375809Y-53953628D02*
X85413904Y-54001247D01*
X85413904Y-54001247D02*
X85452000Y-54096485D01*
X85452000Y-54096485D02*
X85452000Y-54239342D01*
X85452000Y-54239342D02*
X85413904Y-54334580D01*
X85413904Y-54334580D02*
X85375809Y-54382200D01*
X85375809Y-54382200D02*
X85299619Y-54429819D01*
X85299619Y-54429819D02*
X84994857Y-54429819D01*
X84994857Y-54429819D02*
X84994857Y-53429819D01*
X84994857Y-53429819D02*
X85261523Y-53429819D01*
X85261523Y-53429819D02*
X85337714Y-53477438D01*
X85337714Y-53477438D02*
X85375809Y-53525057D01*
X85375809Y-53525057D02*
X85413904Y-53620295D01*
X85413904Y-53620295D02*
X85413904Y-53715533D01*
X85413904Y-53715533D02*
X85375809Y-53810771D01*
X85375809Y-53810771D02*
X85337714Y-53858390D01*
X85337714Y-53858390D02*
X85261523Y-53906009D01*
X85261523Y-53906009D02*
X84994857Y-53906009D01*
X85756761Y-54144104D02*
X86137714Y-54144104D01*
X85680571Y-54429819D02*
X85947238Y-53429819D01*
X85947238Y-53429819D02*
X86213904Y-54429819D01*
X86366285Y-53429819D02*
X86823428Y-53429819D01*
X86594856Y-54429819D02*
X86594856Y-53429819D01*
D12*
X57053336Y-46516000D02*
X56837664Y-46516000D01*
X57053336Y-47236000D02*
X56837664Y-47236000D01*
X81555500Y-70436000D02*
X81555500Y-71576000D01*
X85675500Y-70436000D02*
X85675500Y-71576000D01*
D13*
X54974843Y-35654576D02*
G75*
G02*
X54874843Y-35654576I-50000J0D01*
G01*
X54874843Y-35654576D02*
G75*
G02*
X54974843Y-35654576I50000J0D01*
G01*
D12*
X70795534Y-61287040D02*
X72175534Y-61287040D01*
X70795534Y-62667040D02*
X70795534Y-61287040D01*
X70795534Y-63937040D02*
X70795534Y-69127040D01*
X70795534Y-63937040D02*
X73555534Y-63937040D01*
X70795534Y-69127040D02*
X73555534Y-69127040D01*
X73555534Y-63937040D02*
X73555534Y-69127040D01*
X64274843Y-66556412D02*
X64274843Y-66340740D01*
X64994843Y-66556412D02*
X64994843Y-66340740D01*
X44089101Y-44418076D02*
X43614585Y-44418076D01*
X44089101Y-45463076D02*
X43614585Y-45463076D01*
X84998920Y-67194000D02*
X85280080Y-67194000D01*
X84998920Y-68214000D02*
X85280080Y-68214000D01*
X64474279Y-47382000D02*
X64148721Y-47382000D01*
X64474279Y-48402000D02*
X64148721Y-48402000D01*
X50221007Y-49787576D02*
X50436679Y-49787576D01*
X50221007Y-50507576D02*
X50436679Y-50507576D01*
X63197500Y-52855000D02*
X63197500Y-55375000D01*
X63197500Y-55375000D02*
X64917500Y-55375000D01*
X64917500Y-55375000D02*
X64917500Y-52855000D01*
X88155000Y-55130000D02*
X89535000Y-55130000D01*
X88155000Y-56510000D02*
X88155000Y-55130000D01*
X88155000Y-57780000D02*
X88155000Y-60430000D01*
X88155000Y-57780000D02*
X90915000Y-57780000D01*
X88155000Y-60430000D02*
X90915000Y-60430000D01*
X90915000Y-57780000D02*
X90915000Y-60430000D01*
X86049500Y-46221836D02*
X86049500Y-46006164D01*
X86769500Y-46221836D02*
X86769500Y-46006164D01*
X68221859Y-50052000D02*
X68529141Y-50052000D01*
X68221859Y-50812000D02*
X68529141Y-50812000D01*
X86661500Y-64515420D02*
X86661500Y-64796580D01*
X87681500Y-64515420D02*
X87681500Y-64796580D01*
X67259141Y-48655000D02*
X66951859Y-48655000D01*
X67259141Y-49415000D02*
X66951859Y-49415000D01*
X73584500Y-37188000D02*
X75104500Y-37188000D01*
X73584500Y-37238000D02*
X73584500Y-37188000D01*
X73584500Y-39138000D02*
X73584500Y-38358000D01*
X73584500Y-40308000D02*
X73584500Y-40258000D01*
X75104500Y-37188000D02*
X75104500Y-38188000D01*
X75104500Y-39308000D02*
X75104500Y-40308000D01*
X75104500Y-40308000D02*
X73584500Y-40308000D01*
X73284500Y-38698000D02*
X72804500Y-38698000D01*
X73044500Y-38368000D01*
X73284500Y-38698000D01*
G36*
X73284500Y-38698000D02*
G01*
X72804500Y-38698000D01*
X73044500Y-38368000D01*
X73284500Y-38698000D01*
G37*
X74031500Y-48291064D02*
X74031500Y-43936936D01*
X77451500Y-48291064D02*
X77451500Y-43936936D01*
X50235500Y-54984836D02*
X50235500Y-54769164D01*
X50955500Y-54984836D02*
X50955500Y-54769164D01*
X60776500Y-61588836D02*
X60776500Y-61373164D01*
X61496500Y-61588836D02*
X61496500Y-61373164D01*
X87045500Y-45251641D02*
X87045500Y-44944359D01*
X87805500Y-45251641D02*
X87805500Y-44944359D01*
X79064500Y-48038164D02*
X79064500Y-48253836D01*
X79784500Y-48038164D02*
X79784500Y-48253836D01*
X52519664Y-46262000D02*
X52735336Y-46262000D01*
X52519664Y-46982000D02*
X52735336Y-46982000D01*
X83715859Y-42178000D02*
X84023141Y-42178000D01*
X83715859Y-42938000D02*
X84023141Y-42938000D01*
X80676436Y-38308000D02*
X85030564Y-38308000D01*
X80676436Y-41728000D02*
X85030564Y-41728000D01*
X49979664Y-52104000D02*
X50195336Y-52104000D01*
X49979664Y-52824000D02*
X50195336Y-52824000D01*
X60649500Y-57905836D02*
X60649500Y-57690164D01*
X61369500Y-57905836D02*
X61369500Y-57690164D01*
X95172500Y-61227000D02*
X96442500Y-61227000D01*
X95172500Y-62497000D02*
X95172500Y-61227000D01*
X78937500Y-46006164D02*
X78937500Y-46221836D01*
X79657500Y-46006164D02*
X79657500Y-46221836D01*
X81991141Y-42178000D02*
X81683859Y-42178000D01*
X81991141Y-42938000D02*
X81683859Y-42938000D01*
X64673336Y-55787000D02*
X64457664Y-55787000D01*
X64673336Y-56507000D02*
X64457664Y-56507000D01*
X93762843Y-78341576D02*
X95032843Y-78341576D01*
X95032843Y-78341576D02*
X95032843Y-79611576D01*
X77901500Y-45251641D02*
X77901500Y-44944359D01*
X78661500Y-45251641D02*
X78661500Y-44944359D01*
X77901500Y-46976359D02*
X77901500Y-47283641D01*
X78661500Y-46976359D02*
X78661500Y-47283641D01*
X45519843Y-78070576D02*
X45519843Y-76690576D01*
X46899843Y-78070576D02*
X45519843Y-78070576D01*
X65836500Y-45325359D02*
X65836500Y-45632641D01*
X66596500Y-45325359D02*
X66596500Y-45632641D01*
X52835500Y-47846000D02*
X53360500Y-47846000D01*
X52835500Y-48371000D02*
X52835500Y-47846000D01*
X52835500Y-56066000D02*
X52835500Y-55541000D01*
X53360500Y-56066000D02*
X52835500Y-56066000D01*
X60530500Y-47846000D02*
X61055500Y-47846000D01*
X61055500Y-47846000D02*
X61055500Y-48371000D01*
X61055500Y-55541000D02*
X61055500Y-56066000D01*
X61055500Y-56066000D02*
X60530500Y-56066000D01*
X61885500Y-55396000D02*
X61555500Y-55156000D01*
X61885500Y-54916000D01*
X61885500Y-55396000D01*
G36*
X61885500Y-55396000D02*
G01*
X61555500Y-55156000D01*
X61885500Y-54916000D01*
X61885500Y-55396000D01*
G37*
X63911336Y-48802000D02*
X63695664Y-48802000D01*
X63911336Y-49522000D02*
X63695664Y-49522000D01*
D14*
X54749500Y-45052000D02*
X54749500Y-46626000D01*
X54749500Y-45052000D02*
X55649500Y-45052000D01*
X54749500Y-46626000D02*
X55649500Y-46626000D01*
X55649500Y-45052000D02*
X55649500Y-46626000D01*
D15*
X54427650Y-45052000D02*
G75*
G02*
X54279568Y-45052000I-74041J0D01*
G01*
X54279568Y-45052000D02*
G75*
G02*
X54427650Y-45052000I74041J0D01*
G01*
D12*
X65839843Y-75305576D02*
X67219843Y-75305576D01*
X65839843Y-76685576D02*
X65839843Y-75305576D01*
X49725664Y-53120000D02*
X49941336Y-53120000D01*
X49725664Y-53840000D02*
X49941336Y-53840000D01*
X87045500Y-46976359D02*
X87045500Y-47283641D01*
X87805500Y-46976359D02*
X87805500Y-47283641D01*
D14*
X77559500Y-62664000D02*
X77559500Y-63209000D01*
X77559500Y-62664000D02*
X78104500Y-62664000D01*
X77559500Y-67664000D02*
X77559500Y-67119000D01*
X77559500Y-67664000D02*
X78104500Y-67664000D01*
X82559500Y-62664000D02*
X82014500Y-62664000D01*
X82559500Y-62664000D02*
X82559500Y-63209000D01*
X82559500Y-67664000D02*
X82014500Y-67664000D01*
X82559500Y-67664000D02*
X82559500Y-67119000D01*
D16*
X83729500Y-66664000D02*
G75*
G02*
X83529500Y-66664000I-100000J0D01*
G01*
X83529500Y-66664000D02*
G75*
G02*
X83729500Y-66664000I100000J0D01*
G01*
D12*
X82961336Y-43214000D02*
X82745664Y-43214000D01*
X82961336Y-43934000D02*
X82745664Y-43934000D01*
X55656336Y-63534000D02*
X55440664Y-63534000D01*
X55656336Y-64254000D02*
X55440664Y-64254000D01*
X54309007Y-32426576D02*
X54524679Y-32426576D01*
X54309007Y-33146576D02*
X54524679Y-33146576D01*
X54553500Y-58286836D02*
X54553500Y-58071164D01*
X55273500Y-58286836D02*
X55273500Y-58071164D01*
X63703141Y-58053000D02*
X63395859Y-58053000D01*
X63703141Y-58813000D02*
X63395859Y-58813000D01*
X88255500Y-43936936D02*
X88255500Y-48291064D01*
X91675500Y-43936936D02*
X91675500Y-48291064D01*
X85521500Y-50331641D02*
X85521500Y-50024359D01*
X86281500Y-50331641D02*
X86281500Y-50024359D01*
X89349664Y-37118000D02*
X89565336Y-37118000D01*
X89349664Y-37838000D02*
X89565336Y-37838000D01*
X47241500Y-50286378D02*
X47241500Y-51085622D01*
X48361500Y-50286378D02*
X48361500Y-51085622D01*
X64673336Y-51723000D02*
X64457664Y-51723000D01*
X64673336Y-52443000D02*
X64457664Y-52443000D01*
X47407500Y-45539000D02*
X47407500Y-47959000D01*
X47407500Y-47959000D02*
X50227500Y-47959000D01*
X57708500Y-66968641D02*
X57708500Y-66661359D01*
X58468500Y-66968641D02*
X58468500Y-66661359D01*
X84504500Y-78305000D02*
X85774500Y-78305000D01*
X85774500Y-78305000D02*
X85774500Y-79575000D01*
X54369007Y-35970576D02*
X54584679Y-35970576D01*
X54369007Y-36690576D02*
X54584679Y-36690576D01*
X51518500Y-65398000D02*
X55638500Y-65398000D01*
X51518500Y-65493000D02*
X51518500Y-65398000D01*
X51518500Y-70518000D02*
X51518500Y-70423000D01*
X55638500Y-65398000D02*
X55638500Y-65493000D01*
X55638500Y-70423000D02*
X55638500Y-70518000D01*
X55638500Y-70518000D02*
X51518500Y-70518000D01*
X50978500Y-65488000D02*
X50738500Y-65158000D01*
X51218500Y-65158000D01*
X50978500Y-65488000D01*
G36*
X50978500Y-65488000D02*
G01*
X50738500Y-65158000D01*
X51218500Y-65158000D01*
X50978500Y-65488000D01*
G37*
X60712507Y-73917576D02*
X60928179Y-73917576D01*
X60712507Y-74637576D02*
X60928179Y-74637576D01*
X70507343Y-38954834D02*
X70507343Y-38480318D01*
X71552343Y-38954834D02*
X71552343Y-38480318D01*
X95172500Y-48527000D02*
X96442500Y-48527000D01*
X95172500Y-49797000D02*
X95172500Y-48527000D01*
X84472000Y-55130000D02*
X85852000Y-55130000D01*
X84472000Y-56510000D02*
X84472000Y-55130000D01*
X84472000Y-57780000D02*
X84472000Y-60430000D01*
X84472000Y-57780000D02*
X87232000Y-57780000D01*
X84472000Y-60430000D02*
X87232000Y-60430000D01*
X87232000Y-57780000D02*
X87232000Y-60430000D01*
X52519664Y-45246000D02*
X52735336Y-45246000D01*
X52519664Y-45966000D02*
X52735336Y-45966000D01*
X38737843Y-46520576D02*
X38737843Y-48440576D01*
X38737843Y-48440576D02*
X41422843Y-48440576D01*
X41422843Y-46520576D02*
X38737843Y-46520576D01*
X61810500Y-64488000D02*
X61810500Y-61828000D01*
X61810500Y-64488000D02*
X63510500Y-64488000D01*
X63510500Y-64488000D02*
X63510500Y-61828000D01*
X79316664Y-37118000D02*
X79532336Y-37118000D01*
X79316664Y-37838000D02*
X79532336Y-37838000D01*
X73853500Y-57908000D02*
X73853500Y-56528000D01*
X75233500Y-57908000D02*
X73853500Y-57908000D01*
X84629500Y-64493221D02*
X84629500Y-64818779D01*
X85649500Y-64493221D02*
X85649500Y-64818779D01*
X77009500Y-59943420D02*
X77009500Y-60224580D01*
X78029500Y-59943420D02*
X78029500Y-60224580D01*
X38737843Y-43980576D02*
X38737843Y-45900576D01*
X38737843Y-45900576D02*
X41422843Y-45900576D01*
X41422843Y-43980576D02*
X38737843Y-43980576D01*
X44089101Y-46958076D02*
X43614585Y-46958076D01*
X44089101Y-48003076D02*
X43614585Y-48003076D01*
X38434843Y-59271576D02*
X38434843Y-56771576D01*
X38884843Y-56321576D02*
X38434843Y-56771576D01*
X38884843Y-59721576D02*
X38434843Y-59271576D01*
X40184843Y-55271576D02*
X42184843Y-55271576D01*
X40184843Y-60771576D02*
X42184843Y-60771576D01*
X43484843Y-56321576D02*
X43934843Y-56771576D01*
X43484843Y-59721576D02*
X43934843Y-59271576D01*
X43934843Y-59271576D02*
X43934843Y-56771576D01*
X63877500Y-44148359D02*
X63877500Y-44455641D01*
X64637500Y-44148359D02*
X64637500Y-44455641D01*
X79803500Y-72389420D02*
X79803500Y-72670580D01*
X80823500Y-72389420D02*
X80823500Y-72670580D01*
X75330843Y-79225576D02*
X75330843Y-80605576D01*
X75330843Y-80605576D02*
X73950843Y-80605576D01*
X59633500Y-58413836D02*
X59633500Y-58198164D01*
X60353500Y-58413836D02*
X60353500Y-58198164D01*
X80743500Y-45020000D02*
X81443500Y-45020000D01*
X80743500Y-45720000D02*
X80743500Y-45020000D01*
X80743500Y-49240000D02*
X80743500Y-48540000D01*
X81443500Y-49240000D02*
X80743500Y-49240000D01*
X84263500Y-45020000D02*
X84963500Y-45020000D01*
X84963500Y-45020000D02*
X84963500Y-45720000D01*
X84963500Y-48540000D02*
X84963500Y-49240000D01*
X84963500Y-49240000D02*
X84263500Y-49240000D01*
X80213500Y-46150000D02*
X79883500Y-46390000D01*
X79883500Y-45910000D01*
X80213500Y-46150000D01*
G36*
X80213500Y-46150000D02*
G01*
X79883500Y-46390000D01*
X79883500Y-45910000D01*
X80213500Y-46150000D01*
G37*
X74196500Y-63335252D02*
X74196500Y-61912748D01*
X76016500Y-63335252D02*
X76016500Y-61912748D01*
%LPC*%
D17*
X57425500Y-46876000D03*
X56465500Y-46876000D03*
D18*
X83615500Y-69241000D03*
D19*
X83615500Y-72771000D03*
D20*
X54924843Y-35049576D03*
X54924843Y-34079576D03*
D21*
X72175534Y-62667040D03*
D22*
X72175534Y-65207040D03*
X72175534Y-67747040D03*
D23*
X64634843Y-66928576D03*
X64634843Y-65968576D03*
D24*
X44676843Y-44940576D03*
X43026843Y-44940576D03*
D25*
X84364500Y-67704000D03*
X85914500Y-67704000D03*
D26*
X65099000Y-47892000D03*
X63524000Y-47892000D03*
D27*
X49848843Y-50147576D03*
X50808843Y-50147576D03*
D28*
X64057500Y-54815000D03*
X64057500Y-53415000D03*
D21*
X89535000Y-56510000D03*
D22*
X89535000Y-59050000D03*
D23*
X86409500Y-46594000D03*
X86409500Y-45634000D03*
D29*
X67865500Y-50432000D03*
X68885500Y-50432000D03*
D30*
X49856500Y-51448000D03*
X50826500Y-51448000D03*
D31*
X87171500Y-63881000D03*
X87171500Y-65431000D03*
D32*
X67615500Y-49035000D03*
X66595500Y-49035000D03*
D33*
X73407000Y-37798000D03*
X73407000Y-39698000D03*
X75282000Y-38748000D03*
D34*
X75741500Y-49076500D03*
X75741500Y-43151500D03*
D23*
X50595500Y-55357000D03*
X50595500Y-54397000D03*
X61136500Y-61961000D03*
X61136500Y-61001000D03*
D35*
X87425500Y-45608000D03*
X87425500Y-44588000D03*
D36*
X79424500Y-47666000D03*
X79424500Y-48626000D03*
D27*
X52147500Y-46622000D03*
X53107500Y-46622000D03*
D29*
X83359500Y-42558000D03*
X84379500Y-42558000D03*
D37*
X79891000Y-40018000D03*
X85816000Y-40018000D03*
D27*
X49607500Y-52464000D03*
X50567500Y-52464000D03*
D23*
X61009500Y-58278000D03*
X61009500Y-57318000D03*
D21*
X96442500Y-62497000D03*
D22*
X96442500Y-65037000D03*
X96442500Y-67577000D03*
X96442500Y-70117000D03*
D36*
X79297500Y-45634000D03*
X79297500Y-46594000D03*
D32*
X82347500Y-42558000D03*
X81327500Y-42558000D03*
D17*
X65045500Y-56147000D03*
X64085500Y-56147000D03*
D21*
X93762843Y-79611576D03*
D22*
X91222843Y-79611576D03*
X88682843Y-79611576D03*
D35*
X78281500Y-45608000D03*
X78281500Y-44588000D03*
D38*
X88067843Y-34078576D03*
D39*
X90567843Y-34078576D03*
D40*
X39066500Y-80192000D03*
X39066500Y-35192000D03*
D41*
X78281500Y-46620000D03*
X78281500Y-47640000D03*
D21*
X46899843Y-76690576D03*
D22*
X49439843Y-76690576D03*
X51979843Y-76690576D03*
X54519843Y-76690576D03*
X57059843Y-76690576D03*
X59599843Y-76690576D03*
X62139843Y-76690576D03*
D41*
X66216500Y-44969000D03*
X66216500Y-45989000D03*
D42*
X60833000Y-55156000D03*
X60833000Y-54756000D03*
X60833000Y-54356000D03*
X60833000Y-53956000D03*
X60833000Y-53556000D03*
X60833000Y-53156000D03*
X60833000Y-52756000D03*
X60833000Y-52356000D03*
X60833000Y-51956000D03*
X60833000Y-51556000D03*
X60833000Y-51156000D03*
X60833000Y-50756000D03*
X60833000Y-50356000D03*
X60833000Y-49956000D03*
X60833000Y-49556000D03*
X60833000Y-49156000D03*
X60833000Y-48756000D03*
D43*
X60145500Y-48068500D03*
X59745500Y-48068500D03*
X59345500Y-48068500D03*
X58945500Y-48068500D03*
X58545500Y-48068500D03*
X58145500Y-48068500D03*
X57745500Y-48068500D03*
X57345500Y-48068500D03*
X56945500Y-48068500D03*
X56545500Y-48068500D03*
X56145500Y-48068500D03*
X55745500Y-48068500D03*
X55345500Y-48068500D03*
X54945500Y-48068500D03*
X54545500Y-48068500D03*
X54145500Y-48068500D03*
X53745500Y-48068500D03*
D42*
X53058000Y-48756000D03*
X53058000Y-49156000D03*
X53058000Y-49556000D03*
X53058000Y-49956000D03*
X53058000Y-50356000D03*
X53058000Y-50756000D03*
X53058000Y-51156000D03*
X53058000Y-51556000D03*
X53058000Y-51956000D03*
X53058000Y-52356000D03*
X53058000Y-52756000D03*
X53058000Y-53156000D03*
X53058000Y-53556000D03*
X53058000Y-53956000D03*
X53058000Y-54356000D03*
X53058000Y-54756000D03*
X53058000Y-55156000D03*
D43*
X53745500Y-55843500D03*
X54145500Y-55843500D03*
X54545500Y-55843500D03*
X54945500Y-55843500D03*
X55345500Y-55843500D03*
X55745500Y-55843500D03*
X56145500Y-55843500D03*
X56545500Y-55843500D03*
X56945500Y-55843500D03*
X57345500Y-55843500D03*
X57745500Y-55843500D03*
X58145500Y-55843500D03*
X58545500Y-55843500D03*
X58945500Y-55843500D03*
X59345500Y-55843500D03*
X59745500Y-55843500D03*
X60145500Y-55843500D03*
D44*
X56945500Y-51956000D03*
D17*
X64283500Y-49162000D03*
X63323500Y-49162000D03*
D45*
X55449500Y-46426000D03*
X55449500Y-45839000D03*
X55449500Y-45252000D03*
X54949500Y-45839000D03*
X54949500Y-46426000D03*
X54949500Y-45252000D03*
D21*
X67219843Y-76685576D03*
D22*
X67219843Y-79225576D03*
D27*
X49353500Y-53480000D03*
X50313500Y-53480000D03*
D41*
X87425500Y-46620000D03*
X87425500Y-47640000D03*
D46*
X82419500Y-66664000D03*
X82419500Y-66164000D03*
X82419500Y-65664000D03*
X82419500Y-65164000D03*
X82419500Y-64664000D03*
X82419500Y-64164000D03*
X82419500Y-63664000D03*
D47*
X81559500Y-62804000D03*
X81059500Y-62804000D03*
X80559500Y-62804000D03*
X80059500Y-62804000D03*
X79559500Y-62804000D03*
X79059500Y-62804000D03*
X78559500Y-62804000D03*
D46*
X77699500Y-63664000D03*
X77699500Y-64164000D03*
X77699500Y-64664000D03*
X77699500Y-65164000D03*
X77699500Y-65664000D03*
X77699500Y-66164000D03*
X77699500Y-66664000D03*
D47*
X78559500Y-67524000D03*
X79059500Y-67524000D03*
X79559500Y-67524000D03*
X80059500Y-67524000D03*
X80559500Y-67524000D03*
X81059500Y-67524000D03*
X81559500Y-67524000D03*
D48*
X80059500Y-65164000D03*
D17*
X83333500Y-43574000D03*
X82373500Y-43574000D03*
X56028500Y-63894000D03*
X55068500Y-63894000D03*
D27*
X53936843Y-32786576D03*
X54896843Y-32786576D03*
D23*
X54913500Y-58659000D03*
X54913500Y-57699000D03*
D32*
X64059500Y-58433000D03*
X63039500Y-58433000D03*
D49*
X89965500Y-43151500D03*
X89965500Y-49076500D03*
D38*
X78415843Y-34078576D03*
D39*
X80915843Y-34078576D03*
D35*
X85901500Y-50688000D03*
X85901500Y-49668000D03*
D27*
X88977500Y-37478000D03*
X89937500Y-37478000D03*
D50*
X47801500Y-49623500D03*
X47801500Y-51748500D03*
D17*
X65045500Y-52083000D03*
X64085500Y-52083000D03*
D51*
X48117500Y-47299000D03*
X49517500Y-47299000D03*
X49517500Y-46199000D03*
X48117500Y-46199000D03*
D35*
X58088500Y-67325000D03*
X58088500Y-66305000D03*
D21*
X84504500Y-79575000D03*
D22*
X81964500Y-79575000D03*
X79424500Y-79575000D03*
D27*
X53996843Y-36330576D03*
X54956843Y-36330576D03*
D52*
X51103500Y-66053000D03*
X51103500Y-67323000D03*
X51103500Y-68593000D03*
X51103500Y-69863000D03*
X56053500Y-69863000D03*
X56053500Y-68593000D03*
X56053500Y-67323000D03*
X56053500Y-66053000D03*
D27*
X60340343Y-74277576D03*
X61300343Y-74277576D03*
D53*
X71029843Y-39542576D03*
X71029843Y-37892576D03*
D21*
X96442500Y-49797000D03*
D22*
X96442500Y-52337000D03*
X96442500Y-54877000D03*
X96442500Y-57417000D03*
D21*
X85852000Y-56510000D03*
D22*
X85852000Y-59050000D03*
D27*
X52147500Y-45606000D03*
X53107500Y-45606000D03*
D40*
X98066500Y-80192000D03*
D54*
X39485343Y-47480576D03*
X41360343Y-47480576D03*
D55*
X62660500Y-63928000D03*
X62660500Y-61828000D03*
D27*
X78944500Y-37478000D03*
X79904500Y-37478000D03*
D21*
X75233500Y-56528000D03*
D22*
X77773500Y-56528000D03*
X80313500Y-56528000D03*
D56*
X85139500Y-63868500D03*
X85139500Y-65443500D03*
D31*
X77519500Y-59309000D03*
X77519500Y-60859000D03*
D54*
X39485343Y-44940576D03*
X41360343Y-44940576D03*
D40*
X98066500Y-35192000D03*
D24*
X44676843Y-47480576D03*
X43026843Y-47480576D03*
D57*
X39284843Y-61171576D03*
X39284843Y-54871576D03*
X43084843Y-61171576D03*
X43084843Y-54871576D03*
D41*
X64257500Y-43792000D03*
X64257500Y-44812000D03*
D31*
X80313500Y-71755000D03*
X80313500Y-73305000D03*
D21*
X73950843Y-79225576D03*
D22*
X73950843Y-76685576D03*
X73950843Y-74145576D03*
D23*
X59993500Y-58786000D03*
X59993500Y-57826000D03*
D58*
X80991000Y-46155000D03*
X80991000Y-46805000D03*
X80991000Y-47455000D03*
X80991000Y-48105000D03*
D59*
X81878500Y-48992500D03*
X82528500Y-48992500D03*
X83178500Y-48992500D03*
X83828500Y-48992500D03*
D58*
X84716000Y-48105000D03*
X84716000Y-47455000D03*
X84716000Y-46805000D03*
X84716000Y-46155000D03*
D59*
X83828500Y-45267500D03*
X83178500Y-45267500D03*
X82528500Y-45267500D03*
X81878500Y-45267500D03*
D60*
X82853500Y-47130000D03*
D61*
X75106500Y-64099000D03*
X75106500Y-61149000D03*
D62*
X60996843Y-68562576D03*
X40996843Y-68562576D03*
%LPD*%
M02*
