G04 #@! TF.GenerationSoftware,KiCad,Pcbnew,9.0.5*
G04 #@! TF.CreationDate,2025-12-05T09:09:27+01:00*
G04 #@! TF.ProjectId,PCB Main,50434220-4d61-4696-9e2e-6b696361645f,rev?*
G04 #@! TF.SameCoordinates,Original*
G04 #@! TF.FileFunction,Legend,Bot*
G04 #@! TF.FilePolarity,Positive*
%FSLAX46Y46*%
G04 Gerber Fmt 4.6, Leading zero omitted, Abs format (unit mm)*
G04 Created by KiCad (PCBNEW 9.0.5) date 2025-12-05 09:09:27*
%MOMM*%
%LPD*%
G01*
G04 APERTURE LIST*
G04 Aperture macros list*
%AMRoundRect*
0 Rectangle with rounded corners*
0 $1 Rounding radius*
0 $2 $3 $4 $5 $6 $7 $8 $9 X,Y pos of 4 corners*
0 Add a 4 corners polygon primitive as box body*
4,1,4,$2,$3,$4,$5,$6,$7,$8,$9,$2,$3,0*
0 Add four circle primitives for the rounded corners*
1,1,$1+$1,$2,$3*
1,1,$1+$1,$4,$5*
1,1,$1+$1,$6,$7*
1,1,$1+$1,$8,$9*
0 Add four rect primitives between the rounded corners*
20,1,$1+$1,$2,$3,$4,$5,0*
20,1,$1+$1,$4,$5,$6,$7,0*
20,1,$1+$1,$6,$7,$8,$9,0*
20,1,$1+$1,$8,$9,$2,$3,0*%
G04 Aperture macros list end*
%ADD10C,0.200000*%
%ADD11C,0.100000*%
%ADD12R,1.700000X1.700000*%
%ADD13C,1.700000*%
%ADD14RoundRect,0.250000X-0.600000X-0.750000X0.600000X-0.750000X0.600000X0.750000X-0.600000X0.750000X0*%
%ADD15O,1.700000X2.000000*%
%ADD16C,2.200000*%
%ADD17R,2.600000X3.500000*%
G04 APERTURE END LIST*
D10*
X16143657Y-42989424D02*
X16143657Y-50989424D01*
X16143657Y-54989424D02*
X16143657Y-62989424D01*
X16143657Y-62989424D02*
X48143657Y-62989424D01*
X48143657Y-42989424D02*
X16143657Y-42989424D01*
X48143657Y-50989424D02*
X48143657Y-42989424D01*
X48143657Y-62989424D02*
X48143657Y-54989424D01*
D11*
X48643657Y-52989424D02*
X48643657Y-52989424D01*
X48743657Y-52989424D02*
X48743657Y-52989424D01*
X48643657Y-52989424D02*
G75*
G02*
X48743657Y-52989424I50000J0D01*
G01*
X48743657Y-52989424D02*
G75*
G02*
X48643657Y-52989424I-50000J0D01*
G01*
%LPC*%
D12*
X74815657Y-51846424D03*
D13*
X74815657Y-54386424D03*
X74815657Y-56926424D03*
X74815657Y-59466424D03*
D12*
X72215657Y-66892424D03*
D13*
X69675657Y-66892424D03*
X67135657Y-66892424D03*
D14*
X66453657Y-24279924D03*
D15*
X68953657Y-24279924D03*
D16*
X17284657Y-68541424D03*
X17284657Y-24541424D03*
D12*
X25285657Y-65816424D03*
D13*
X27825657Y-65816424D03*
X30365657Y-65816424D03*
X32905657Y-65816424D03*
X35445657Y-65816424D03*
X37985657Y-65816424D03*
X40525657Y-65816424D03*
D12*
X47510657Y-65811424D03*
D13*
X47510657Y-68351424D03*
D14*
X56781657Y-24287424D03*
D15*
X59281657Y-24287424D03*
D12*
X62877657Y-66892424D03*
D13*
X60337657Y-66892424D03*
X57797657Y-66892424D03*
D12*
X74815657Y-39146424D03*
D13*
X74815657Y-41686424D03*
X74815657Y-44226424D03*
X74815657Y-46766424D03*
D16*
X76593657Y-68541424D03*
D12*
X53606657Y-45877424D03*
D13*
X56146657Y-45877424D03*
X58686657Y-45877424D03*
D16*
X76593657Y-24541424D03*
D12*
X52336657Y-68356424D03*
D13*
X52336657Y-65816424D03*
X52336657Y-63276424D03*
D17*
X46843657Y-52989424D03*
X17443657Y-52989424D03*
%LPD*%
M02*
