G04 #@! TF.GenerationSoftware,KiCad,Pcbnew,9.0.5*
G04 #@! TF.CreationDate,2026-01-07T17:30:32+01:00*
G04 #@! TF.ProjectId,PCB Main,50434220-4d61-4696-9e2e-6b696361645f,rev?*
G04 #@! TF.SameCoordinates,Original*
G04 #@! TF.FileFunction,Paste,Top*
G04 #@! TF.FilePolarity,Positive*
%FSLAX46Y46*%
G04 Gerber Fmt 4.6, Leading zero omitted, Abs format (unit mm)*
G04 Created by KiCad (PCBNEW 9.0.5) date 2026-01-07 17:30:32*
%MOMM*%
%LPD*%
G01*
G04 APERTURE LIST*
G04 Aperture macros list*
%AMRoundRect*
0 Rectangle with rounded corners*
0 $1 Rounding radius*
0 $2 $3 $4 $5 $6 $7 $8 $9 X,Y pos of 4 corners*
0 Add a 4 corners polygon primitive as box body*
4,1,4,$2,$3,$4,$5,$6,$7,$8,$9,$2,$3,0*
0 Add four circle primitives for the rounded corners*
1,1,$1+$1,$2,$3*
1,1,$1+$1,$4,$5*
1,1,$1+$1,$6,$7*
1,1,$1+$1,$8,$9*
0 Add four rect primitives between the rounded corners*
20,1,$1+$1,$2,$3,$4,$5,0*
20,1,$1+$1,$4,$5,$6,$7,0*
20,1,$1+$1,$6,$7,$8,$9,0*
20,1,$1+$1,$8,$9,$2,$3,0*%
%AMFreePoly0*
4,1,11,1.015000,1.170000,0.435000,0.575000,0.435000,-0.575000,1.015000,-1.170000,1.015000,-1.945000,0.125000,-1.945000,-0.435000,-1.395000,-0.435000,1.395000,0.125000,1.945000,1.015000,1.945000,1.015000,1.170000,1.015000,1.170000,$1*%
%AMFreePoly1*
4,1,11,0.435000,1.395000,0.435000,-1.395000,-0.125000,-1.945000,-1.015000,-1.945000,-1.015000,-1.170000,-0.435000,-0.575000,-0.435000,0.575000,-1.015000,1.170000,-1.015000,1.945000,-0.125000,1.945000,0.435000,1.395000,0.435000,1.395000,$1*%
G04 Aperture macros list end*
%ADD10C,0.010000*%
%ADD11RoundRect,0.140000X0.140000X0.170000X-0.140000X0.170000X-0.140000X-0.170000X0.140000X-0.170000X0*%
%ADD12FreePoly0,270.000000*%
%ADD13FreePoly1,270.000000*%
%ADD14RoundRect,0.147500X0.172500X-0.147500X0.172500X0.147500X-0.172500X0.147500X-0.172500X-0.147500X0*%
%ADD15RoundRect,0.140000X0.170000X-0.140000X0.170000X0.140000X-0.170000X0.140000X-0.170000X-0.140000X0*%
%ADD16RoundRect,0.200000X0.200000X0.275000X-0.200000X0.275000X-0.200000X-0.275000X0.200000X-0.275000X0*%
%ADD17RoundRect,0.225000X-0.225000X-0.250000X0.225000X-0.250000X0.225000X0.250000X-0.225000X0.250000X0*%
%ADD18RoundRect,0.218750X0.218750X0.256250X-0.218750X0.256250X-0.218750X-0.256250X0.218750X-0.256250X0*%
%ADD19RoundRect,0.140000X-0.140000X-0.170000X0.140000X-0.170000X0.140000X0.170000X-0.140000X0.170000X0*%
%ADD20RoundRect,0.150000X0.400000X-0.150000X0.400000X0.150000X-0.400000X0.150000X-0.400000X-0.150000X0*%
%ADD21RoundRect,0.135000X-0.135000X-0.185000X0.135000X-0.185000X0.135000X0.185000X-0.135000X0.185000X0*%
%ADD22RoundRect,0.147500X-0.147500X-0.172500X0.147500X-0.172500X0.147500X0.172500X-0.147500X0.172500X0*%
%ADD23RoundRect,0.225000X-0.250000X0.225000X-0.250000X-0.225000X0.250000X-0.225000X0.250000X0.225000X0*%
%ADD24RoundRect,0.135000X0.135000X0.185000X-0.135000X0.185000X-0.135000X-0.185000X0.135000X-0.185000X0*%
%ADD25RoundRect,0.150000X-0.587500X-0.150000X0.587500X-0.150000X0.587500X0.150000X-0.587500X0.150000X0*%
%ADD26RoundRect,0.250000X1.425000X-0.362500X1.425000X0.362500X-1.425000X0.362500X-1.425000X-0.362500X0*%
%ADD27RoundRect,0.135000X0.185000X-0.135000X0.185000X0.135000X-0.185000X0.135000X-0.185000X-0.135000X0*%
%ADD28RoundRect,0.140000X-0.170000X0.140000X-0.170000X-0.140000X0.170000X-0.140000X0.170000X0.140000X0*%
%ADD29RoundRect,0.250000X-0.362500X-1.425000X0.362500X-1.425000X0.362500X1.425000X-0.362500X1.425000X0*%
%ADD30RoundRect,0.135000X-0.185000X0.135000X-0.185000X-0.135000X0.185000X-0.135000X0.185000X0.135000X0*%
%ADD31RoundRect,0.249999X0.395001X0.395001X-0.395001X0.395001X-0.395001X-0.395001X0.395001X-0.395001X0*%
%ADD32RoundRect,0.062500X0.400000X0.062500X-0.400000X0.062500X-0.400000X-0.062500X0.400000X-0.062500X0*%
%ADD33RoundRect,0.062500X0.062500X0.400000X-0.062500X0.400000X-0.062500X-0.400000X0.062500X-0.400000X0*%
%ADD34R,0.200000X0.200000*%
%ADD35RoundRect,0.033750X0.471250X0.101250X-0.471250X0.101250X-0.471250X-0.101250X0.471250X-0.101250X0*%
%ADD36RoundRect,0.033750X0.101250X0.471250X-0.101250X0.471250X-0.101250X-0.471250X0.101250X-0.471250X0*%
%ADD37RoundRect,0.250000X-1.425000X0.362500X-1.425000X-0.362500X1.425000X-0.362500X1.425000X0.362500X0*%
%ADD38RoundRect,0.218750X-0.381250X0.218750X-0.381250X-0.218750X0.381250X-0.218750X0.381250X0.218750X0*%
%ADD39RoundRect,0.200000X-0.250000X-0.200000X0.250000X-0.200000X0.250000X0.200000X-0.250000X0.200000X0*%
%ADD40RoundRect,0.150000X-0.825000X-0.150000X0.825000X-0.150000X0.825000X0.150000X-0.825000X0.150000X0*%
%ADD41RoundRect,0.200000X0.275000X-0.200000X0.275000X0.200000X-0.275000X0.200000X-0.275000X-0.200000X0*%
%ADD42RoundRect,0.243750X-0.243750X-0.456250X0.243750X-0.456250X0.243750X0.456250X-0.243750X0.456250X0*%
%ADD43RoundRect,0.112500X0.112500X-0.187500X0.112500X0.187500X-0.112500X0.187500X-0.112500X-0.187500X0*%
%ADD44RoundRect,0.218750X-0.256250X0.218750X-0.256250X-0.218750X0.256250X-0.218750X0.256250X0.218750X0*%
%ADD45R,1.000000X1.700000*%
%ADD46RoundRect,0.212500X-0.212500X-0.212500X0.212500X-0.212500X0.212500X0.212500X-0.212500X0.212500X0*%
%ADD47RoundRect,0.087500X-0.425000X-0.087500X0.425000X-0.087500X0.425000X0.087500X-0.425000X0.087500X0*%
%ADD48RoundRect,0.087500X-0.087500X-0.425000X0.087500X-0.425000X0.087500X0.425000X-0.087500X0.425000X0*%
%ADD49RoundRect,0.250000X0.650000X-0.325000X0.650000X0.325000X-0.650000X0.325000X-0.650000X-0.325000X0*%
G04 APERTURE END LIST*
D10*
X81059500Y-66164000D02*
X79059500Y-66164000D01*
X79059500Y-64164000D01*
X81059500Y-64164000D01*
X81059500Y-66164000D01*
G36*
X81059500Y-66164000D02*
G01*
X79059500Y-66164000D01*
X79059500Y-64164000D01*
X81059500Y-64164000D01*
X81059500Y-66164000D01*
G37*
D11*
X57425500Y-46876000D03*
X56465500Y-46876000D03*
D12*
X83615500Y-69241000D03*
D13*
X83615500Y-72771000D03*
D14*
X54924843Y-35049576D03*
X54924843Y-34079576D03*
D15*
X64634843Y-66928576D03*
X64634843Y-65968576D03*
D16*
X44676843Y-44940576D03*
X43026843Y-44940576D03*
D17*
X84364500Y-67704000D03*
X85914500Y-67704000D03*
D18*
X65099000Y-47892000D03*
X63524000Y-47892000D03*
D19*
X49848843Y-50147576D03*
X50808843Y-50147576D03*
D20*
X64057500Y-54815000D03*
X64057500Y-53415000D03*
D15*
X86409500Y-46594000D03*
X86409500Y-45634000D03*
D21*
X67865500Y-50432000D03*
X68885500Y-50432000D03*
D22*
X49856500Y-51448000D03*
X50826500Y-51448000D03*
D23*
X87171500Y-63881000D03*
X87171500Y-65431000D03*
D24*
X67615500Y-49035000D03*
X66595500Y-49035000D03*
D25*
X73407000Y-37798000D03*
X73407000Y-39698000D03*
X75282000Y-38748000D03*
D26*
X75741500Y-49076500D03*
X75741500Y-43151500D03*
D15*
X50595500Y-55357000D03*
X50595500Y-54397000D03*
X61136500Y-61961000D03*
X61136500Y-61001000D03*
D27*
X87425500Y-45608000D03*
X87425500Y-44588000D03*
D28*
X79424500Y-47666000D03*
X79424500Y-48626000D03*
D19*
X52147500Y-46622000D03*
X53107500Y-46622000D03*
D21*
X83359500Y-42558000D03*
X84379500Y-42558000D03*
D29*
X79891000Y-40018000D03*
X85816000Y-40018000D03*
D19*
X49607500Y-52464000D03*
X50567500Y-52464000D03*
D15*
X61009500Y-58278000D03*
X61009500Y-57318000D03*
D28*
X79297500Y-45634000D03*
X79297500Y-46594000D03*
D24*
X82347500Y-42558000D03*
X81327500Y-42558000D03*
D11*
X65045500Y-56147000D03*
X64085500Y-56147000D03*
D27*
X78281500Y-45608000D03*
X78281500Y-44588000D03*
D30*
X78281500Y-46620000D03*
X78281500Y-47640000D03*
X66216500Y-44969000D03*
X66216500Y-45989000D03*
D31*
X59345500Y-54356000D03*
X59345500Y-52756000D03*
X59345500Y-51156000D03*
X59345500Y-49556000D03*
X57745500Y-54356000D03*
X57745500Y-52756000D03*
X57745500Y-51156000D03*
X57745500Y-49556000D03*
X56145500Y-54356000D03*
X56145500Y-52756000D03*
X56145500Y-51156000D03*
X56145500Y-49556000D03*
X54545500Y-54356000D03*
X54545500Y-52756000D03*
X54545500Y-51156000D03*
X54545500Y-49556000D03*
D32*
X60833000Y-55156000D03*
X60833000Y-54756000D03*
X60833000Y-54356000D03*
X60833000Y-53956000D03*
X60833000Y-53556000D03*
X60833000Y-53156000D03*
X60833000Y-52756000D03*
X60833000Y-52356000D03*
X60833000Y-51956000D03*
X60833000Y-51556000D03*
X60833000Y-51156000D03*
X60833000Y-50756000D03*
X60833000Y-50356000D03*
X60833000Y-49956000D03*
X60833000Y-49556000D03*
X60833000Y-49156000D03*
X60833000Y-48756000D03*
D33*
X60145500Y-48068500D03*
X59745500Y-48068500D03*
X59345500Y-48068500D03*
X58945500Y-48068500D03*
X58545500Y-48068500D03*
X58145500Y-48068500D03*
X57745500Y-48068500D03*
X57345500Y-48068500D03*
X56945500Y-48068500D03*
X56545500Y-48068500D03*
X56145500Y-48068500D03*
X55745500Y-48068500D03*
X55345500Y-48068500D03*
X54945500Y-48068500D03*
X54545500Y-48068500D03*
X54145500Y-48068500D03*
X53745500Y-48068500D03*
D32*
X53058000Y-48756000D03*
X53058000Y-49156000D03*
X53058000Y-49556000D03*
X53058000Y-49956000D03*
X53058000Y-50356000D03*
X53058000Y-50756000D03*
X53058000Y-51156000D03*
X53058000Y-51556000D03*
X53058000Y-51956000D03*
X53058000Y-52356000D03*
X53058000Y-52756000D03*
X53058000Y-53156000D03*
X53058000Y-53556000D03*
X53058000Y-53956000D03*
X53058000Y-54356000D03*
X53058000Y-54756000D03*
X53058000Y-55156000D03*
D33*
X53745500Y-55843500D03*
X54145500Y-55843500D03*
X54545500Y-55843500D03*
X54945500Y-55843500D03*
X55345500Y-55843500D03*
X55745500Y-55843500D03*
X56145500Y-55843500D03*
X56545500Y-55843500D03*
X56945500Y-55843500D03*
X57345500Y-55843500D03*
X57745500Y-55843500D03*
X58145500Y-55843500D03*
X58545500Y-55843500D03*
X58945500Y-55843500D03*
X59345500Y-55843500D03*
X59745500Y-55843500D03*
X60145500Y-55843500D03*
D11*
X64283500Y-49162000D03*
X63323500Y-49162000D03*
D34*
X55449500Y-46426000D03*
X55449500Y-45839000D03*
X55449500Y-45252000D03*
X54949500Y-45839000D03*
X54949500Y-46426000D03*
X54949500Y-45252000D03*
D19*
X49353500Y-53480000D03*
X50313500Y-53480000D03*
D30*
X87425500Y-46620000D03*
X87425500Y-47640000D03*
D35*
X82419500Y-66664000D03*
X82419500Y-66164000D03*
X82419500Y-65664000D03*
X82419500Y-65164000D03*
X82419500Y-64664000D03*
X82419500Y-64164000D03*
X82419500Y-63664000D03*
D36*
X81559500Y-62804000D03*
X81059500Y-62804000D03*
X80559500Y-62804000D03*
X80059500Y-62804000D03*
X79559500Y-62804000D03*
X79059500Y-62804000D03*
X78559500Y-62804000D03*
D35*
X77699500Y-63664000D03*
X77699500Y-64164000D03*
X77699500Y-64664000D03*
X77699500Y-65164000D03*
X77699500Y-65664000D03*
X77699500Y-66164000D03*
X77699500Y-66664000D03*
D36*
X78559500Y-67524000D03*
X79059500Y-67524000D03*
X79559500Y-67524000D03*
X80059500Y-67524000D03*
X80559500Y-67524000D03*
X81059500Y-67524000D03*
X81559500Y-67524000D03*
D11*
X83333500Y-43574000D03*
X82373500Y-43574000D03*
X56028500Y-63894000D03*
X55068500Y-63894000D03*
D19*
X53936843Y-32786576D03*
X54896843Y-32786576D03*
D15*
X54913500Y-58659000D03*
X54913500Y-57699000D03*
D24*
X64059500Y-58433000D03*
X63039500Y-58433000D03*
D37*
X89965500Y-43151500D03*
X89965500Y-49076500D03*
D27*
X85901500Y-50688000D03*
X85901500Y-49668000D03*
D19*
X88977500Y-37478000D03*
X89937500Y-37478000D03*
D38*
X47801500Y-49623500D03*
X47801500Y-51748500D03*
D11*
X65045500Y-52083000D03*
X64085500Y-52083000D03*
D39*
X48117500Y-47299000D03*
X49517500Y-47299000D03*
X49517500Y-46199000D03*
X48117500Y-46199000D03*
D27*
X58088500Y-67325000D03*
X58088500Y-66305000D03*
D19*
X53996843Y-36330576D03*
X54956843Y-36330576D03*
D40*
X51103500Y-66053000D03*
X51103500Y-67323000D03*
X51103500Y-68593000D03*
X51103500Y-69863000D03*
X56053500Y-69863000D03*
X56053500Y-68593000D03*
X56053500Y-67323000D03*
X56053500Y-66053000D03*
D19*
X60340343Y-74277576D03*
X61300343Y-74277576D03*
D41*
X71029843Y-39542576D03*
X71029843Y-37892576D03*
D19*
X52147500Y-45606000D03*
X53107500Y-45606000D03*
D42*
X39485343Y-47480576D03*
X41360343Y-47480576D03*
D43*
X62660500Y-63928000D03*
X62660500Y-61828000D03*
D19*
X78944500Y-37478000D03*
X79904500Y-37478000D03*
D44*
X85139500Y-63868500D03*
X85139500Y-65443500D03*
D23*
X77519500Y-59309000D03*
X77519500Y-60859000D03*
D42*
X39485343Y-44940576D03*
X41360343Y-44940576D03*
D16*
X44676843Y-47480576D03*
X43026843Y-47480576D03*
D45*
X39284843Y-61171576D03*
X39284843Y-54871576D03*
X43084843Y-61171576D03*
X43084843Y-54871576D03*
D30*
X64257500Y-43792000D03*
X64257500Y-44812000D03*
D23*
X80313500Y-71755000D03*
X80313500Y-73305000D03*
D15*
X59993500Y-58786000D03*
X59993500Y-57826000D03*
D46*
X82328500Y-46605000D03*
X82328500Y-47655000D03*
X83378500Y-46605000D03*
X83378500Y-47655000D03*
D47*
X80991000Y-46155000D03*
X80991000Y-46805000D03*
X80991000Y-47455000D03*
X80991000Y-48105000D03*
D48*
X81878500Y-48992500D03*
X82528500Y-48992500D03*
X83178500Y-48992500D03*
X83828500Y-48992500D03*
D47*
X84716000Y-48105000D03*
X84716000Y-47455000D03*
X84716000Y-46805000D03*
X84716000Y-46155000D03*
D48*
X83828500Y-45267500D03*
X83178500Y-45267500D03*
X82528500Y-45267500D03*
X81878500Y-45267500D03*
D49*
X75106500Y-64099000D03*
X75106500Y-61149000D03*
M02*
