M48
; DRILL file {KiCad 9.0.5} date 2026-01-12T09:34:54+0100
; FORMAT={-:-/ absolute / metric / decimal}
; #@! TF.CreationDate,2026-01-12T09:34:54+01:00
; #@! TF.GenerationSoftware,Kicad,Pcbnew,9.0.5
; #@! TF.FileFunction,Plated,1,4,PTH
FMAT,2
METRIC
; #@! TA.AperFunction,Plated,PTH,ViaDrill
T1C0.300
; #@! TA.AperFunction,Plated,PTH,ComponentDrill
T2C0.890
; #@! TA.AperFunction,Plated,PTH,ComponentDrill
T3C1.000
%
G90
G05
T1
X40.169Y-54.974
X40.169Y-61.07
X40.373Y-44.941
X40.373Y-47.481
X44.741Y-45.957
X44.741Y-51.181
X46.658Y-45.847
X46.658Y-46.863
X46.658Y-47.879
X47.244Y-45.225
X47.371Y-48.4
X47.42Y-46.495
X48.133Y-45.225
X48.604Y-48.4
X48.944Y-52.464
X49.022Y-45.225
X49.173Y-50.371
X49.453Y-54.242
X49.453Y-68.593
X49.53Y-48.781
X49.911Y-45.225
X50.341Y-47.511
X50.596Y-45.77
X50.596Y-56.02
X50.8Y-48.781
X51.103Y-64.91
X51.158Y-53.661
X51.181Y-46.355
X51.484Y-52.718
X51.858Y-51.356
X52.07Y-44.958
X52.435Y-69.863
X52.5Y-47.257
X52.881Y-55.893
X53.123Y-36.559
X53.136Y-44.844
X53.136Y-57.163
X53.25Y-32.241
X53.25Y-33.384
X53.25Y-35.67
X53.758Y-37.194
X54.1Y-56.782
X54.139Y-31.987
X54.139Y-33.638
X54.139Y-34.527
X54.139Y-35.543
X54.151Y-44.971
X54.151Y-58.56
X54.245Y-49.256
X54.245Y-51.056
X54.245Y-52.856
X54.245Y-54.656
X54.266Y-37.829
X54.279Y-38.748
X54.279Y-39.637
X54.279Y-40.526
X54.279Y-41.415
X54.279Y-42.304
X54.279Y-43.193
X54.279Y-44.082
X54.279Y-45.86
X54.345Y-46.731
X54.405Y-63.894
X54.695Y-50.156
X54.695Y-51.956
X54.695Y-53.756
X54.945Y-57.036
X55.145Y-49.256
X55.145Y-51.056
X55.145Y-52.856
X55.145Y-54.656
X55.595Y-50.156
X55.595Y-51.956
X55.595Y-53.756
X55.663Y-31.987
X55.663Y-37.321
X55.675Y-38.24
X55.675Y-39.129
X55.675Y-40.018
X55.675Y-40.907
X55.675Y-41.796
X55.675Y-42.685
X55.675Y-43.574
X55.675Y-44.463
X55.677Y-32.876
X55.739Y-47.068
X55.79Y-33.765
X55.79Y-34.654
X55.79Y-35.543
X55.79Y-36.432
X55.802Y-57.036
X55.929Y-58.247
X56.028Y-65.037
X56.045Y-49.256
X56.045Y-51.056
X56.045Y-52.856
X56.045Y-54.656
X56.056Y-45.225
X56.31Y-45.987
X56.495Y-50.156
X56.495Y-51.956
X56.495Y-53.756
X56.945Y-49.256
X56.945Y-51.056
X56.945Y-52.856
X56.945Y-54.656
X57.072Y-58.687
X57.2Y-46.241
X57.395Y-50.156
X57.395Y-51.956
X57.395Y-53.756
X57.845Y-49.256
X57.845Y-51.056
X57.845Y-52.856
X57.845Y-54.656
X57.962Y-45.606
X58.295Y-50.156
X58.295Y-51.956
X58.295Y-53.756
X58.745Y-49.256
X58.745Y-51.056
X58.745Y-52.856
X58.745Y-54.656
X58.762Y-45.606
X59.195Y-50.156
X59.195Y-51.956
X59.645Y-49.256
X59.645Y-51.056
X59.677Y-74.278
X59.993Y-59.449
X60.145Y-57.163
X60.502Y-45.098
X60.691Y-66.456
X61.009Y-58.941
X61.136Y-60.084
X61.136Y-62.624
X61.517Y-45.098
X61.81Y-55.919
X61.984Y-65.163
X62.025Y-53.226
X62.069Y-52.253
X62.217Y-74.278
X62.533Y-45.098
X62.914Y-52.324
X62.914Y-53.353
X62.914Y-54.956
X62.914Y-55.88
X63.328Y-56.687
X63.404Y-51.466
X63.873Y-65.941
X64.257Y-43.066
X64.516Y-51.194
X64.516Y-57.036
X64.692Y-58.433
X64.947Y-49.162
X65.397Y-66.957
X65.709Y-52.083
X65.709Y-56.147
X65.962Y-47.892
X65.962Y-49.035
X65.962Y-51.194
X65.962Y-57.036
X66.471Y-52.451
X66.471Y-53.594
X66.471Y-54.737
X66.471Y-55.88
X67.105Y-44.969
X70.358Y-51.054
X71.169Y-48.908
X71.931Y-49.162
X72.694Y-49.416
X72.947Y-54.242
X73.201Y-40.526
X73.222Y-53.459
X73.709Y-52.802
X74.599Y-59.83
X75.487Y-41.923
X75.614Y-59.83
X75.742Y-50.432
X76.376Y-38.748
X76.504Y-64.148
X77.519Y-58.433
X77.71Y-61.798
X78.662Y-36.843
X79.159Y-64.264
X79.159Y-65.164
X79.159Y-66.064
X79.297Y-69.228
X79.852Y-52.302
X80.059Y-47.511
X80.059Y-64.264
X80.059Y-65.164
X80.059Y-66.064
X80.186Y-48.626
X80.313Y-74.181
X80.694Y-61.608
X80.822Y-50.94
X80.959Y-64.264
X80.959Y-65.164
X80.959Y-66.064
X81.075Y-51.702
X81.126Y-49.322
X81.203Y-45.267
X81.584Y-61.608
X82.346Y-62.116
X82.403Y-46.68
X82.403Y-47.58
X82.472Y-63.005
X83.303Y-46.68
X83.303Y-47.58
X85.139Y-51.321
X85.901Y-66.815
X86.282Y-65.418
X87.171Y-40.018
X88.822Y-36.843
X89.965Y-50.305
T2
X40.997Y-68.563
X60.997Y-68.563
T3
X46.9Y-76.691
X49.44Y-76.691
X51.98Y-76.691
X54.52Y-76.691
X57.06Y-76.691
X59.6Y-76.691
X62.14Y-76.691
X67.22Y-76.686
X67.22Y-79.226
X72.176Y-62.667
X72.176Y-65.207
X72.176Y-67.747
X73.951Y-74.146
X73.951Y-76.686
X73.951Y-79.226
X75.233Y-56.528
X77.773Y-56.528
X78.416Y-34.079
X79.424Y-79.575
X80.313Y-56.528
X80.916Y-34.079
X81.965Y-79.575
X84.504Y-79.575
X85.852Y-56.51
X85.852Y-59.05
X88.068Y-34.079
X88.683Y-79.612
X89.535Y-56.51
X89.535Y-59.05
X90.568Y-34.079
X91.223Y-79.612
X93.763Y-79.612
X96.442Y-49.797
X96.442Y-52.337
X96.442Y-54.877
X96.442Y-57.417
X96.442Y-62.497
X96.442Y-65.037
X96.442Y-67.577
X96.442Y-70.117
M30
