%TF.GenerationSoftware,KiCad,Pcbnew,9.0.5*%
%TF.CreationDate,2025-12-05T09:09:27+01:00*%
%TF.ProjectId,PCB Main,50434220-4d61-4696-9e2e-6b696361645f,rev?*%
%TF.SameCoordinates,Original*%
%TF.FileFunction,Drillmap*%
%TF.FilePolarity,Positive*%
%FSLAX45Y45*%
G04 Gerber Fmt 4.5, Leading zero omitted, Abs format (unit mm)*
G04 Created by KiCad (PCBNEW 9.0.5) date 2025-12-05 09:09:27*
%MOMM*%
%LPD*%
G01*
G04 APERTURE LIST*
%ADD10C,0.050000*%
%ADD11C,0.200000*%
%ADD12C,0.100000*%
G04 APERTURE END LIST*
D10*
X4286266Y-1596252D02*
X4286266Y-2061580D01*
X4424851Y-2200142D01*
X7900666Y-2200142D01*
X7900666Y-7089642D01*
X1487166Y-7089642D01*
X1486285Y-1590978D01*
X1636096Y-1441142D01*
X4131156Y-1441142D01*
X4286266Y-1596252D01*
D11*
D12*
X2493166Y-3447442D02*
X2513166Y-3467442D01*
X2513166Y-3447442D02*
X2493166Y-3467442D01*
X2493166Y-3523642D02*
X2513166Y-3543642D01*
X2513166Y-3523642D02*
X2493166Y-3543642D01*
X2493166Y-3599842D02*
X2513166Y-3619842D01*
X2513166Y-3599842D02*
X2493166Y-3619842D01*
X2493166Y-3676042D02*
X2513166Y-3696042D01*
X2513166Y-3676042D02*
X2493166Y-3696042D01*
X2493166Y-3764942D02*
X2513166Y-3784942D01*
X2513166Y-3764942D02*
X2493166Y-3784942D01*
X2582066Y-3447442D02*
X2602066Y-3467442D01*
X2602066Y-3447442D02*
X2582066Y-3467442D01*
X2594766Y-3764942D02*
X2614766Y-3784942D01*
X2614766Y-3764942D02*
X2594766Y-3784942D01*
X2658266Y-3447442D02*
X2678266Y-3467442D01*
X2678266Y-3447442D02*
X2658266Y-3467442D01*
X2696366Y-3764942D02*
X2716366Y-3784942D01*
X2716366Y-3764942D02*
X2696366Y-3784942D01*
X2734466Y-3447442D02*
X2754466Y-3467442D01*
X2754466Y-3447442D02*
X2734466Y-3467442D01*
X2797966Y-3803042D02*
X2817966Y-3823042D01*
X2817966Y-3803042D02*
X2797966Y-3823042D01*
X2810666Y-3447442D02*
X2830666Y-3467442D01*
X2830666Y-3447442D02*
X2810666Y-3467442D01*
X2886866Y-3447442D02*
X2906866Y-3467442D01*
X2906866Y-3447442D02*
X2886866Y-3467442D01*
X2886866Y-3523642D02*
X2906866Y-3543642D01*
X2906866Y-3523642D02*
X2886866Y-3543642D01*
X2912266Y-3803042D02*
X2932266Y-3823042D01*
X2932266Y-3803042D02*
X2912266Y-3823042D01*
X2941271Y-3583537D02*
X2961271Y-3603537D01*
X2961271Y-3583537D02*
X2941271Y-3603537D01*
X3251866Y-3850542D02*
X3271866Y-3870542D01*
X3271866Y-3850542D02*
X3251866Y-3870542D01*
X3251866Y-4030542D02*
X3271866Y-4050542D01*
X3271866Y-4030542D02*
X3251866Y-4050542D01*
X3251866Y-4210542D02*
X3271866Y-4230542D01*
X3271866Y-4210542D02*
X3251866Y-4230542D01*
X3251866Y-4390542D02*
X3271866Y-4410542D01*
X3271866Y-4390542D02*
X3251866Y-4410542D01*
X3296866Y-3940542D02*
X3316866Y-3960542D01*
X3316866Y-3940542D02*
X3296866Y-3960542D01*
X3296866Y-4120542D02*
X3316866Y-4140542D01*
X3316866Y-4120542D02*
X3296866Y-4140542D01*
X3296866Y-4300542D02*
X3316866Y-4320542D01*
X3316866Y-4300542D02*
X3296866Y-4320542D01*
X3341866Y-3850542D02*
X3361866Y-3870542D01*
X3361866Y-3850542D02*
X3341866Y-3870542D01*
X3341866Y-4030542D02*
X3361866Y-4050542D01*
X3361866Y-4030542D02*
X3341866Y-4050542D01*
X3341866Y-4210542D02*
X3361866Y-4230542D01*
X3361866Y-4210542D02*
X3341866Y-4230542D01*
X3341866Y-4390542D02*
X3361866Y-4410542D01*
X3361866Y-4390542D02*
X3341866Y-4410542D01*
X3386866Y-3940542D02*
X3406866Y-3960542D01*
X3406866Y-3940542D02*
X3386866Y-3960542D01*
X3386866Y-4120542D02*
X3406866Y-4140542D01*
X3406866Y-4120542D02*
X3386866Y-4140542D01*
X3386866Y-4300542D02*
X3406866Y-4320542D01*
X3406866Y-4300542D02*
X3386866Y-4320542D01*
X3431866Y-3850542D02*
X3451866Y-3870542D01*
X3451866Y-3850542D02*
X3431866Y-3870542D01*
X3431866Y-4030542D02*
X3451866Y-4050542D01*
X3451866Y-4030542D02*
X3431866Y-4050542D01*
X3431866Y-4210542D02*
X3451866Y-4230542D01*
X3451866Y-4210542D02*
X3431866Y-4230542D01*
X3431866Y-4390542D02*
X3451866Y-4410542D01*
X3451866Y-4390542D02*
X3431866Y-4410542D01*
X3476866Y-3940542D02*
X3496866Y-3960542D01*
X3496866Y-3940542D02*
X3476866Y-3960542D01*
X3476866Y-4120542D02*
X3496866Y-4140542D01*
X3496866Y-4120542D02*
X3476866Y-4140542D01*
X3476866Y-4300542D02*
X3496866Y-4320542D01*
X3496866Y-4300542D02*
X3476866Y-4320542D01*
X3521866Y-3850542D02*
X3541866Y-3870542D01*
X3541866Y-3850542D02*
X3521866Y-3870542D01*
X3521866Y-4030542D02*
X3541866Y-4050542D01*
X3541866Y-4030542D02*
X3521866Y-4050542D01*
X3521866Y-4210542D02*
X3541866Y-4230542D01*
X3541866Y-4210542D02*
X3521866Y-4230542D01*
X3521866Y-4390542D02*
X3541866Y-4410542D01*
X3541866Y-4390542D02*
X3521866Y-4410542D01*
X3566866Y-3940542D02*
X3586866Y-3960542D01*
X3586866Y-3940542D02*
X3566866Y-3960542D01*
X3566866Y-4120542D02*
X3586866Y-4140542D01*
X3586866Y-4120542D02*
X3566866Y-4140542D01*
X3566866Y-4300542D02*
X3586866Y-4320542D01*
X3586866Y-4300542D02*
X3566866Y-4320542D01*
X3611866Y-3850542D02*
X3631866Y-3870542D01*
X3631866Y-3850542D02*
X3611866Y-3870542D01*
X3611866Y-4030542D02*
X3631866Y-4050542D01*
X3631866Y-4030542D02*
X3611866Y-4050542D01*
X3611866Y-4210542D02*
X3631866Y-4230542D01*
X3631866Y-4210542D02*
X3611866Y-4230542D01*
X3611866Y-4390542D02*
X3631866Y-4410542D01*
X3631866Y-4390542D02*
X3611866Y-4410542D01*
X3656866Y-3940542D02*
X3676866Y-3960542D01*
X3676866Y-3940542D02*
X3656866Y-3960542D01*
X3656866Y-4120542D02*
X3676866Y-4140542D01*
X3676866Y-4120542D02*
X3656866Y-4140542D01*
X3656866Y-4300542D02*
X3676866Y-4320542D01*
X3676866Y-4300542D02*
X3656866Y-4320542D01*
X3701866Y-3850542D02*
X3721866Y-3870542D01*
X3721866Y-3850542D02*
X3701866Y-3870542D01*
X3701866Y-4030542D02*
X3721866Y-4050542D01*
X3721866Y-4030542D02*
X3701866Y-4050542D01*
X3701866Y-4210542D02*
X3721866Y-4230542D01*
X3721866Y-4210542D02*
X3701866Y-4230542D01*
X3701866Y-4390542D02*
X3721866Y-4410542D01*
X3721866Y-4390542D02*
X3701866Y-4410542D01*
X3746866Y-3940542D02*
X3766866Y-3960542D01*
X3766866Y-3940542D02*
X3746866Y-3960542D01*
X3746866Y-4120542D02*
X3766866Y-4140542D01*
X3766866Y-4120542D02*
X3746866Y-4140542D01*
X3791866Y-3850542D02*
X3811866Y-3870542D01*
X3811866Y-3850542D02*
X3791866Y-3870542D01*
X3791866Y-4030542D02*
X3811866Y-4050542D01*
X3811866Y-4030542D02*
X3791866Y-4050542D01*
X4118766Y-4184042D02*
X4138766Y-4204042D01*
X4138766Y-4184042D02*
X4118766Y-4204042D01*
X4118766Y-4260242D02*
X4138766Y-4280242D01*
X4138766Y-4260242D02*
X4118766Y-4280242D01*
X4118766Y-4412642D02*
X4138766Y-4432642D01*
X4138766Y-4412642D02*
X4118766Y-4432642D01*
X4118766Y-4501542D02*
X4138766Y-4521542D01*
X4138766Y-4501542D02*
X4118766Y-4521542D01*
X4131466Y-4107842D02*
X4151466Y-4127842D01*
X4151466Y-4107842D02*
X4131466Y-4127842D01*
X4137816Y-4571392D02*
X4157816Y-4591392D01*
X4157816Y-4571392D02*
X4137816Y-4591392D01*
X4194966Y-4044342D02*
X4214966Y-4064342D01*
X4214966Y-4044342D02*
X4194966Y-4064342D01*
X4194966Y-4628542D02*
X4214966Y-4648542D01*
X4214966Y-4628542D02*
X4194966Y-4648542D01*
X4309266Y-4044342D02*
X4329266Y-4064342D01*
X4329266Y-4044342D02*
X4309266Y-4064342D01*
X4309266Y-4628542D02*
X4329266Y-4648542D01*
X4329266Y-4628542D02*
X4309266Y-4648542D01*
X4423566Y-4044342D02*
X4443566Y-4064342D01*
X4443566Y-4044342D02*
X4423566Y-4064342D01*
X4423566Y-4628542D02*
X4443566Y-4648542D01*
X4443566Y-4628542D02*
X4423566Y-4648542D01*
X4474366Y-4120542D02*
X4494366Y-4140542D01*
X4494366Y-4120542D02*
X4474366Y-4140542D01*
X4474366Y-4209442D02*
X4494366Y-4229442D01*
X4494366Y-4209442D02*
X4474366Y-4229442D01*
X4474366Y-4323742D02*
X4494366Y-4343742D01*
X4494366Y-4323742D02*
X4474366Y-4343742D01*
X4474366Y-4438042D02*
X4494366Y-4458042D01*
X4494366Y-4438042D02*
X4474366Y-4458042D01*
X4474366Y-4539642D02*
X4494366Y-4559642D01*
X4494366Y-4539642D02*
X4474366Y-4559642D01*
X5743266Y-5351342D02*
X5763266Y-5371342D01*
X5763266Y-5351342D02*
X5743266Y-5371342D01*
X5743266Y-5441342D02*
X5763266Y-5461342D01*
X5763266Y-5441342D02*
X5743266Y-5461342D01*
X5743266Y-5531342D02*
X5763266Y-5551342D01*
X5763266Y-5531342D02*
X5743266Y-5551342D01*
X5833266Y-5351342D02*
X5853266Y-5371342D01*
X5853266Y-5351342D02*
X5833266Y-5371342D01*
X5833266Y-5441342D02*
X5853266Y-5461342D01*
X5853266Y-5441342D02*
X5833266Y-5461342D01*
X5833266Y-5531342D02*
X5853266Y-5551342D01*
X5853266Y-5531342D02*
X5833266Y-5551342D01*
X5923266Y-5351342D02*
X5943266Y-5371342D01*
X5943266Y-5351342D02*
X5923266Y-5371342D01*
X5923266Y-5441342D02*
X5943266Y-5461342D01*
X5943266Y-5441342D02*
X5923266Y-5461342D01*
X5923266Y-5531342D02*
X5943266Y-5551342D01*
X5943266Y-5531342D02*
X5923266Y-5551342D01*
X6067666Y-3592942D02*
X6087666Y-3612942D01*
X6087666Y-3592942D02*
X6067666Y-3612942D01*
X6067666Y-3682942D02*
X6087666Y-3702942D01*
X6087666Y-3682942D02*
X6067666Y-3702942D01*
X6157666Y-3592942D02*
X6177666Y-3612942D01*
X6177666Y-3592942D02*
X6157666Y-3612942D01*
X6157666Y-3682942D02*
X6177666Y-3702942D01*
X6177666Y-3682942D02*
X6157666Y-3702942D01*
X1870466Y-4295642D02*
G75*
G02*
X1840466Y-4295642I-15000J0D01*
G01*
X1840466Y-4295642D02*
G75*
G02*
X1870466Y-4295642I15000J0D01*
G01*
X1870466Y-4905242D02*
G75*
G02*
X1840466Y-4905242I-15000J0D01*
G01*
X1840466Y-4905242D02*
G75*
G02*
X1870466Y-4905242I15000J0D01*
G01*
X1941666Y-3444742D02*
G75*
G02*
X1911666Y-3444742I-15000J0D01*
G01*
X1911666Y-3444742D02*
G75*
G02*
X1941666Y-3444742I15000J0D01*
G01*
X1941666Y-3698742D02*
G75*
G02*
X1911666Y-3698742I-15000J0D01*
G01*
X1911666Y-3698742D02*
G75*
G02*
X1941666Y-3698742I15000J0D01*
G01*
X1946666Y-5298942D02*
G75*
G02*
X1916666Y-5298942I-15000J0D01*
G01*
X1916666Y-5298942D02*
G75*
G02*
X1946666Y-5298942I15000J0D01*
G01*
X2277066Y-4054542D02*
G75*
G02*
X2247066Y-4054542I-15000J0D01*
G01*
X2247066Y-4054542D02*
G75*
G02*
X2277066Y-4054542I15000J0D01*
G01*
X2353066Y-3444742D02*
G75*
G02*
X2323066Y-3444742I-15000J0D01*
G01*
X2323066Y-3444742D02*
G75*
G02*
X2353066Y-3444742I15000J0D01*
G01*
X2581666Y-3559042D02*
G75*
G02*
X2551666Y-3559042I-15000J0D01*
G01*
X2551666Y-3559042D02*
G75*
G02*
X2581666Y-3559042I15000J0D01*
G01*
X2746766Y-4181342D02*
G75*
G02*
X2716766Y-4181342I-15000J0D01*
G01*
X2716766Y-4181342D02*
G75*
G02*
X2746766Y-4181342I15000J0D01*
G01*
X2772166Y-3901942D02*
G75*
G02*
X2742166Y-3901942I-15000J0D01*
G01*
X2742166Y-3901942D02*
G75*
G02*
X2772166Y-3901942I15000J0D01*
G01*
X2797566Y-4359142D02*
G75*
G02*
X2767566Y-4359142I-15000J0D01*
G01*
X2767566Y-4359142D02*
G75*
G02*
X2797566Y-4359142I15000J0D01*
G01*
X2797566Y-5794242D02*
G75*
G02*
X2767566Y-5794242I-15000J0D01*
G01*
X2767566Y-5794242D02*
G75*
G02*
X2797566Y-5794242I15000J0D01*
G01*
X2886466Y-3686042D02*
G75*
G02*
X2856466Y-3686042I-15000J0D01*
G01*
X2856466Y-3686042D02*
G75*
G02*
X2886466Y-3686042I15000J0D01*
G01*
X2911866Y-4536942D02*
G75*
G02*
X2881866Y-4536942I-15000J0D01*
G01*
X2881866Y-4536942D02*
G75*
G02*
X2911866Y-4536942I15000J0D01*
G01*
X2962666Y-5425942D02*
G75*
G02*
X2932666Y-5425942I-15000J0D01*
G01*
X2932666Y-5425942D02*
G75*
G02*
X2962666Y-5425942I15000J0D01*
G01*
X2968084Y-4301061D02*
G75*
G02*
X2938084Y-4301061I-15000J0D01*
G01*
X2938084Y-4301061D02*
G75*
G02*
X2968084Y-4301061I15000J0D01*
G01*
X3000766Y-3495542D02*
G75*
G02*
X2970766Y-3495542I-15000J0D01*
G01*
X2970766Y-3495542D02*
G75*
G02*
X3000766Y-3495542I15000J0D01*
G01*
X3000766Y-4206742D02*
G75*
G02*
X2970766Y-4206742I-15000J0D01*
G01*
X2970766Y-4206742D02*
G75*
G02*
X3000766Y-4206742I15000J0D01*
G01*
X3038109Y-4070542D02*
G75*
G02*
X3008109Y-4070542I-15000J0D01*
G01*
X3008109Y-4070542D02*
G75*
G02*
X3038109Y-4070542I15000J0D01*
G01*
X3095866Y-5921242D02*
G75*
G02*
X3065866Y-5921242I-15000J0D01*
G01*
X3065866Y-5921242D02*
G75*
G02*
X3095866Y-5921242I15000J0D01*
G01*
X3102366Y-3660642D02*
G75*
G02*
X3072366Y-3660642I-15000J0D01*
G01*
X3072366Y-3660642D02*
G75*
G02*
X3102366Y-3660642I15000J0D01*
G01*
X3140466Y-4524242D02*
G75*
G02*
X3110466Y-4524242I-15000J0D01*
G01*
X3110466Y-4524242D02*
G75*
G02*
X3140466Y-4524242I15000J0D01*
G01*
X3153166Y-2352542D02*
G75*
G02*
X3123166Y-2352542I-15000J0D01*
G01*
X3123166Y-2352542D02*
G75*
G02*
X3153166Y-2352542I15000J0D01*
G01*
X3165866Y-3419342D02*
G75*
G02*
X3135866Y-3419342I-15000J0D01*
G01*
X3135866Y-3419342D02*
G75*
G02*
X3165866Y-3419342I15000J0D01*
G01*
X3165866Y-4651242D02*
G75*
G02*
X3135866Y-4651242I-15000J0D01*
G01*
X3135866Y-4651242D02*
G75*
G02*
X3165866Y-4651242I15000J0D01*
G01*
X3178566Y-2276342D02*
G75*
G02*
X3148566Y-2276342I-15000J0D01*
G01*
X3148566Y-2276342D02*
G75*
G02*
X3178566Y-2276342I15000J0D01*
G01*
X3178566Y-2581142D02*
G75*
G02*
X3148566Y-2581142I-15000J0D01*
G01*
X3148566Y-2581142D02*
G75*
G02*
X3178566Y-2581142I15000J0D01*
G01*
X3178566Y-2670042D02*
G75*
G02*
X3148566Y-2670042I-15000J0D01*
G01*
X3148566Y-2670042D02*
G75*
G02*
X3178566Y-2670042I15000J0D01*
G01*
X3229366Y-2390642D02*
G75*
G02*
X3199366Y-2390642I-15000J0D01*
G01*
X3199366Y-2390642D02*
G75*
G02*
X3229366Y-2390642I15000J0D01*
G01*
X3229366Y-2746242D02*
G75*
G02*
X3199366Y-2746242I-15000J0D01*
G01*
X3199366Y-2746242D02*
G75*
G02*
X3229366Y-2746242I15000J0D01*
G01*
X3254766Y-2238242D02*
G75*
G02*
X3224766Y-2238242I-15000J0D01*
G01*
X3224766Y-2238242D02*
G75*
G02*
X3254766Y-2238242I15000J0D01*
G01*
X3254766Y-2466842D02*
G75*
G02*
X3224766Y-2466842I-15000J0D01*
G01*
X3224766Y-2466842D02*
G75*
G02*
X3254766Y-2466842I15000J0D01*
G01*
X3254766Y-2555742D02*
G75*
G02*
X3224766Y-2555742I-15000J0D01*
G01*
X3224766Y-2555742D02*
G75*
G02*
X3254766Y-2555742I15000J0D01*
G01*
X3262321Y-4613142D02*
G75*
G02*
X3232321Y-4613142I-15000J0D01*
G01*
X3232321Y-4613142D02*
G75*
G02*
X3262321Y-4613142I15000J0D01*
G01*
X3267466Y-3432042D02*
G75*
G02*
X3237466Y-3432042I-15000J0D01*
G01*
X3237466Y-3432042D02*
G75*
G02*
X3267466Y-3432042I15000J0D01*
G01*
X3267466Y-4790942D02*
G75*
G02*
X3237466Y-4790942I-15000J0D01*
G01*
X3237466Y-4790942D02*
G75*
G02*
X3267466Y-4790942I15000J0D01*
G01*
X3280166Y-2809742D02*
G75*
G02*
X3250166Y-2809742I-15000J0D01*
G01*
X3250166Y-2809742D02*
G75*
G02*
X3280166Y-2809742I15000J0D01*
G01*
X3280166Y-2898642D02*
G75*
G02*
X3250166Y-2898642I-15000J0D01*
G01*
X3250166Y-2898642D02*
G75*
G02*
X3280166Y-2898642I15000J0D01*
G01*
X3280166Y-2987542D02*
G75*
G02*
X3250166Y-2987542I-15000J0D01*
G01*
X3250166Y-2987542D02*
G75*
G02*
X3280166Y-2987542I15000J0D01*
G01*
X3280166Y-3076442D02*
G75*
G02*
X3250166Y-3076442I-15000J0D01*
G01*
X3250166Y-3076442D02*
G75*
G02*
X3280166Y-3076442I15000J0D01*
G01*
X3280166Y-3165342D02*
G75*
G02*
X3250166Y-3165342I-15000J0D01*
G01*
X3250166Y-3165342D02*
G75*
G02*
X3280166Y-3165342I15000J0D01*
G01*
X3280166Y-3254242D02*
G75*
G02*
X3250166Y-3254242I-15000J0D01*
G01*
X3250166Y-3254242D02*
G75*
G02*
X3280166Y-3254242I15000J0D01*
G01*
X3280166Y-3343142D02*
G75*
G02*
X3250166Y-3343142I-15000J0D01*
G01*
X3250166Y-3343142D02*
G75*
G02*
X3280166Y-3343142I15000J0D01*
G01*
X3280166Y-3520942D02*
G75*
G02*
X3250166Y-3520942I-15000J0D01*
G01*
X3250166Y-3520942D02*
G75*
G02*
X3280166Y-3520942I15000J0D01*
G01*
X3286866Y-3608090D02*
G75*
G02*
X3256866Y-3608090I-15000J0D01*
G01*
X3256866Y-3608090D02*
G75*
G02*
X3286866Y-3608090I15000J0D01*
G01*
X3292866Y-5324342D02*
G75*
G02*
X3262866Y-5324342I-15000J0D01*
G01*
X3262866Y-5324342D02*
G75*
G02*
X3292866Y-5324342I15000J0D01*
G01*
X3346866Y-4638542D02*
G75*
G02*
X3316866Y-4638542I-15000J0D01*
G01*
X3316866Y-4638542D02*
G75*
G02*
X3346866Y-4638542I15000J0D01*
G01*
X3419866Y-2225542D02*
G75*
G02*
X3389866Y-2225542I-15000J0D01*
G01*
X3389866Y-2225542D02*
G75*
G02*
X3419866Y-2225542I15000J0D01*
G01*
X3419866Y-2314442D02*
G75*
G02*
X3389866Y-2314442I-15000J0D01*
G01*
X3389866Y-2314442D02*
G75*
G02*
X3419866Y-2314442I15000J0D01*
G01*
X3419866Y-2758942D02*
G75*
G02*
X3389866Y-2758942I-15000J0D01*
G01*
X3389866Y-2758942D02*
G75*
G02*
X3419866Y-2758942I15000J0D01*
G01*
X3419866Y-2847842D02*
G75*
G02*
X3389866Y-2847842I-15000J0D01*
G01*
X3389866Y-2847842D02*
G75*
G02*
X3419866Y-2847842I15000J0D01*
G01*
X3419866Y-2936742D02*
G75*
G02*
X3389866Y-2936742I-15000J0D01*
G01*
X3389866Y-2936742D02*
G75*
G02*
X3419866Y-2936742I15000J0D01*
G01*
X3419866Y-3025642D02*
G75*
G02*
X3389866Y-3025642I-15000J0D01*
G01*
X3389866Y-3025642D02*
G75*
G02*
X3419866Y-3025642I15000J0D01*
G01*
X3419866Y-3114542D02*
G75*
G02*
X3389866Y-3114542I-15000J0D01*
G01*
X3389866Y-3114542D02*
G75*
G02*
X3419866Y-3114542I15000J0D01*
G01*
X3419866Y-3203442D02*
G75*
G02*
X3389866Y-3203442I-15000J0D01*
G01*
X3389866Y-3203442D02*
G75*
G02*
X3419866Y-3203442I15000J0D01*
G01*
X3419866Y-3292342D02*
G75*
G02*
X3389866Y-3292342I-15000J0D01*
G01*
X3389866Y-3292342D02*
G75*
G02*
X3419866Y-3292342I15000J0D01*
G01*
X3419866Y-3381242D02*
G75*
G02*
X3389866Y-3381242I-15000J0D01*
G01*
X3389866Y-3381242D02*
G75*
G02*
X3419866Y-3381242I15000J0D01*
G01*
X3420549Y-2403041D02*
G75*
G02*
X3390549Y-2403041I-15000J0D01*
G01*
X3390549Y-2403041D02*
G75*
G02*
X3420549Y-2403041I15000J0D01*
G01*
X3420549Y-2581444D02*
G75*
G02*
X3390549Y-2581444I-15000J0D01*
G01*
X3390549Y-2581444D02*
G75*
G02*
X3420549Y-2581444I15000J0D01*
G01*
X3424257Y-2492242D02*
G75*
G02*
X3394257Y-2492242I-15000J0D01*
G01*
X3394257Y-2492242D02*
G75*
G02*
X3424257Y-2492242I15000J0D01*
G01*
X3425266Y-2670042D02*
G75*
G02*
X3395266Y-2670042I-15000J0D01*
G01*
X3395266Y-2670042D02*
G75*
G02*
X3425266Y-2670042I15000J0D01*
G01*
X3426266Y-3641742D02*
G75*
G02*
X3396266Y-3641742I-15000J0D01*
G01*
X3396266Y-3641742D02*
G75*
G02*
X3426266Y-3641742I15000J0D01*
G01*
X3432566Y-4638542D02*
G75*
G02*
X3402566Y-4638542I-15000J0D01*
G01*
X3402566Y-4638542D02*
G75*
G02*
X3432566Y-4638542I15000J0D01*
G01*
X3445266Y-4759632D02*
G75*
G02*
X3415266Y-4759632I-15000J0D01*
G01*
X3415266Y-4759632D02*
G75*
G02*
X3445266Y-4759632I15000J0D01*
G01*
X3455166Y-5438642D02*
G75*
G02*
X3425166Y-5438642I-15000J0D01*
G01*
X3425166Y-5438642D02*
G75*
G02*
X3455166Y-5438642I15000J0D01*
G01*
X3457966Y-3457442D02*
G75*
G02*
X3427966Y-3457442I-15000J0D01*
G01*
X3427966Y-3457442D02*
G75*
G02*
X3457966Y-3457442I15000J0D01*
G01*
X3483366Y-3533642D02*
G75*
G02*
X3453366Y-3533642I-15000J0D01*
G01*
X3453366Y-3533642D02*
G75*
G02*
X3483366Y-3533642I15000J0D01*
G01*
X3559566Y-4803642D02*
G75*
G02*
X3529566Y-4803642I-15000J0D01*
G01*
X3529566Y-4803642D02*
G75*
G02*
X3559566Y-4803642I15000J0D01*
G01*
X3572266Y-3559042D02*
G75*
G02*
X3542266Y-3559042I-15000J0D01*
G01*
X3542266Y-3559042D02*
G75*
G02*
X3572266Y-3559042I15000J0D01*
G01*
X3648466Y-3495542D02*
G75*
G02*
X3618466Y-3495542I-15000J0D01*
G01*
X3618466Y-3495542D02*
G75*
G02*
X3648466Y-3495542I15000J0D01*
G01*
X3728466Y-3495542D02*
G75*
G02*
X3698466Y-3495542I-15000J0D01*
G01*
X3698466Y-3495542D02*
G75*
G02*
X3728466Y-3495542I15000J0D01*
G01*
X3851666Y-4879842D02*
G75*
G02*
X3821666Y-4879842I-15000J0D01*
G01*
X3821666Y-4879842D02*
G75*
G02*
X3851666Y-4879842I15000J0D01*
G01*
X3866866Y-4651242D02*
G75*
G02*
X3836866Y-4651242I-15000J0D01*
G01*
X3836866Y-4651242D02*
G75*
G02*
X3866866Y-4651242I15000J0D01*
G01*
X3902466Y-3444742D02*
G75*
G02*
X3872466Y-3444742I-15000J0D01*
G01*
X3872466Y-3444742D02*
G75*
G02*
X3902466Y-3444742I15000J0D01*
G01*
X3915166Y-6340342D02*
G75*
G02*
X3885166Y-6340342I-15000J0D01*
G01*
X3885166Y-6340342D02*
G75*
G02*
X3915166Y-6340342I15000J0D01*
G01*
X3953266Y-4829042D02*
G75*
G02*
X3923266Y-4829042I-15000J0D01*
G01*
X3923266Y-4829042D02*
G75*
G02*
X3953266Y-4829042I15000J0D01*
G01*
X3965966Y-4943342D02*
G75*
G02*
X3935966Y-4943342I-15000J0D01*
G01*
X3935966Y-4943342D02*
G75*
G02*
X3965966Y-4943342I15000J0D01*
G01*
X3965966Y-5197342D02*
G75*
G02*
X3935966Y-5197342I-15000J0D01*
G01*
X3935966Y-5197342D02*
G75*
G02*
X3965966Y-5197342I15000J0D01*
G01*
X3965966Y-5641842D02*
G75*
G02*
X3935966Y-5641842I-15000J0D01*
G01*
X3935966Y-5641842D02*
G75*
G02*
X3965966Y-5641842I15000J0D01*
G01*
X4004066Y-3444742D02*
G75*
G02*
X3974066Y-3444742I-15000J0D01*
G01*
X3974066Y-3444742D02*
G75*
G02*
X4004066Y-3444742I15000J0D01*
G01*
X4054866Y-4257542D02*
G75*
G02*
X4024866Y-4257542I-15000J0D01*
G01*
X4024866Y-4257542D02*
G75*
G02*
X4054866Y-4257542I15000J0D01*
G01*
X4054866Y-4473442D02*
G75*
G02*
X4024866Y-4473442I-15000J0D01*
G01*
X4024866Y-4473442D02*
G75*
G02*
X4054866Y-4473442I15000J0D01*
G01*
X4059192Y-4160269D02*
G75*
G02*
X4029192Y-4160269I-15000J0D01*
G01*
X4029192Y-4160269D02*
G75*
G02*
X4059192Y-4160269I15000J0D01*
G01*
X4105666Y-3444742D02*
G75*
G02*
X4075666Y-3444742I-15000J0D01*
G01*
X4075666Y-3444742D02*
G75*
G02*
X4105666Y-3444742I15000J0D01*
G01*
X4118366Y-5489442D02*
G75*
G02*
X4088366Y-5489442I-15000J0D01*
G01*
X4088366Y-5489442D02*
G75*
G02*
X4118366Y-5489442I15000J0D01*
G01*
X4169166Y-6340342D02*
G75*
G02*
X4139166Y-6340342I-15000J0D01*
G01*
X4139166Y-6340342D02*
G75*
G02*
X4169166Y-6340342I15000J0D01*
G01*
X4278066Y-3241542D02*
G75*
G02*
X4248066Y-3241542I-15000J0D01*
G01*
X4248066Y-3241542D02*
G75*
G02*
X4278066Y-3241542I15000J0D01*
G01*
X4321566Y-4778242D02*
G75*
G02*
X4291566Y-4778242I-15000J0D01*
G01*
X4291566Y-4778242D02*
G75*
G02*
X4321566Y-4778242I15000J0D01*
G01*
X4343655Y-4902544D02*
G75*
G02*
X4313655Y-4902544I-15000J0D01*
G01*
X4313655Y-4902544D02*
G75*
G02*
X4343655Y-4902544I15000J0D01*
G01*
X4346966Y-3851142D02*
G75*
G02*
X4316966Y-3851142I-15000J0D01*
G01*
X4316966Y-3851142D02*
G75*
G02*
X4346966Y-3851142I15000J0D01*
G01*
X4423166Y-4143242D02*
G75*
G02*
X4393166Y-4143242I-15000J0D01*
G01*
X4393166Y-4143242D02*
G75*
G02*
X4423166Y-4143242I15000J0D01*
G01*
X4423166Y-4549642D02*
G75*
G02*
X4393166Y-4549642I-15000J0D01*
G01*
X4393166Y-4549642D02*
G75*
G02*
X4423166Y-4549642I15000J0D01*
G01*
X4448566Y-3724142D02*
G75*
G02*
X4418566Y-3724142I-15000J0D01*
G01*
X4418566Y-3724142D02*
G75*
G02*
X4448566Y-3724142I15000J0D01*
G01*
X4448566Y-3838442D02*
G75*
G02*
X4418566Y-3838442I-15000J0D01*
G01*
X4418566Y-3838442D02*
G75*
G02*
X4448566Y-3838442I15000J0D01*
G01*
X4496055Y-5004144D02*
G75*
G02*
X4466055Y-5004144I-15000J0D01*
G01*
X4466055Y-5004144D02*
G75*
G02*
X4496055Y-5004144I15000J0D01*
G01*
X4562866Y-3431842D02*
G75*
G02*
X4532866Y-3431842I-15000J0D01*
G01*
X4532866Y-3431842D02*
G75*
G02*
X4562866Y-3431842I15000J0D01*
G01*
X4854966Y-4003542D02*
G75*
G02*
X4824966Y-4003542I-15000J0D01*
G01*
X4824966Y-4003542D02*
G75*
G02*
X4854966Y-4003542I15000J0D01*
G01*
X4969266Y-3825742D02*
G75*
G02*
X4939266Y-3825742I-15000J0D01*
G01*
X4939266Y-3825742D02*
G75*
G02*
X4969266Y-3825742I15000J0D01*
G01*
X5045466Y-3851142D02*
G75*
G02*
X5015466Y-3851142I-15000J0D01*
G01*
X5015466Y-3851142D02*
G75*
G02*
X5045466Y-3851142I15000J0D01*
G01*
X5121666Y-3876542D02*
G75*
G02*
X5091666Y-3876542I-15000J0D01*
G01*
X5091666Y-3876542D02*
G75*
G02*
X5121666Y-3876542I15000J0D01*
G01*
X5147066Y-4359142D02*
G75*
G02*
X5117066Y-4359142I-15000J0D01*
G01*
X5117066Y-4359142D02*
G75*
G02*
X5147066Y-4359142I15000J0D01*
G01*
X5172466Y-2987542D02*
G75*
G02*
X5142466Y-2987542I-15000J0D01*
G01*
X5142466Y-2987542D02*
G75*
G02*
X5172466Y-2987542I15000J0D01*
G01*
X5174566Y-4280842D02*
G75*
G02*
X5144566Y-4280842I-15000J0D01*
G01*
X5144566Y-4280842D02*
G75*
G02*
X5174566Y-4280842I15000J0D01*
G01*
X5223266Y-4215142D02*
G75*
G02*
X5193266Y-4215142I-15000J0D01*
G01*
X5193266Y-4215142D02*
G75*
G02*
X5223266Y-4215142I15000J0D01*
G01*
X5312166Y-4917942D02*
G75*
G02*
X5282166Y-4917942I-15000J0D01*
G01*
X5282166Y-4917942D02*
G75*
G02*
X5312166Y-4917942I15000J0D01*
G01*
X5362966Y-5629142D02*
G75*
G02*
X5332966Y-5629142I-15000J0D01*
G01*
X5332966Y-5629142D02*
G75*
G02*
X5362966Y-5629142I15000J0D01*
G01*
X5401066Y-3127242D02*
G75*
G02*
X5371066Y-3127242I-15000J0D01*
G01*
X5371066Y-3127242D02*
G75*
G02*
X5401066Y-3127242I15000J0D01*
G01*
X5413766Y-4917942D02*
G75*
G02*
X5383766Y-4917942I-15000J0D01*
G01*
X5383766Y-4917942D02*
G75*
G02*
X5413766Y-4917942I15000J0D01*
G01*
X5426466Y-3978142D02*
G75*
G02*
X5396466Y-3978142I-15000J0D01*
G01*
X5396466Y-3978142D02*
G75*
G02*
X5426466Y-3978142I15000J0D01*
G01*
X5426466Y-5565642D02*
G75*
G02*
X5396466Y-5565642I-15000J0D01*
G01*
X5396466Y-5565642D02*
G75*
G02*
X5426466Y-5565642I15000J0D01*
G01*
X5489966Y-2809742D02*
G75*
G02*
X5459966Y-2809742I-15000J0D01*
G01*
X5459966Y-2809742D02*
G75*
G02*
X5489966Y-2809742I15000J0D01*
G01*
X5489966Y-5502142D02*
G75*
G02*
X5459966Y-5502142I-15000J0D01*
G01*
X5459966Y-5502142D02*
G75*
G02*
X5489966Y-5502142I15000J0D01*
G01*
X5502666Y-5349742D02*
G75*
G02*
X5472666Y-5349742I-15000J0D01*
G01*
X5472666Y-5349742D02*
G75*
G02*
X5502666Y-5349742I15000J0D01*
G01*
X5604266Y-4778242D02*
G75*
G02*
X5574266Y-4778242I-15000J0D01*
G01*
X5574266Y-4778242D02*
G75*
G02*
X5604266Y-4778242I15000J0D01*
G01*
X5623316Y-5114792D02*
G75*
G02*
X5593316Y-5114792I-15000J0D01*
G01*
X5593316Y-5114792D02*
G75*
G02*
X5623316Y-5114792I15000J0D01*
G01*
X5718566Y-2619242D02*
G75*
G02*
X5688566Y-2619242I-15000J0D01*
G01*
X5688566Y-2619242D02*
G75*
G02*
X5718566Y-2619242I15000J0D01*
G01*
X5782066Y-5857742D02*
G75*
G02*
X5752066Y-5857742I-15000J0D01*
G01*
X5752066Y-5857742D02*
G75*
G02*
X5782066Y-5857742I15000J0D01*
G01*
X5837466Y-4165142D02*
G75*
G02*
X5807466Y-4165142I-15000J0D01*
G01*
X5807466Y-4165142D02*
G75*
G02*
X5837466Y-4165142I15000J0D01*
G01*
X5858266Y-3686042D02*
G75*
G02*
X5828266Y-3686042I-15000J0D01*
G01*
X5828266Y-3686042D02*
G75*
G02*
X5858266Y-3686042I15000J0D01*
G01*
X5870966Y-3797542D02*
G75*
G02*
X5840966Y-3797542I-15000J0D01*
G01*
X5840966Y-3797542D02*
G75*
G02*
X5870966Y-3797542I15000J0D01*
G01*
X5883666Y-6353042D02*
G75*
G02*
X5853666Y-6353042I-15000J0D01*
G01*
X5853666Y-6353042D02*
G75*
G02*
X5883666Y-6353042I15000J0D01*
G01*
X5921766Y-5095742D02*
G75*
G02*
X5891766Y-5095742I-15000J0D01*
G01*
X5891766Y-5095742D02*
G75*
G02*
X5921766Y-5095742I15000J0D01*
G01*
X5934466Y-4028942D02*
G75*
G02*
X5904466Y-4028942I-15000J0D01*
G01*
X5904466Y-4028942D02*
G75*
G02*
X5934466Y-4028942I15000J0D01*
G01*
X5959866Y-4105142D02*
G75*
G02*
X5929866Y-4105142I-15000J0D01*
G01*
X5929866Y-4105142D02*
G75*
G02*
X5959866Y-4105142I15000J0D01*
G01*
X5972566Y-3461692D02*
G75*
G02*
X5942566Y-3461692I-15000J0D01*
G01*
X5942566Y-3461692D02*
G75*
G02*
X5972566Y-3461692I15000J0D01*
G01*
X6010666Y-5095742D02*
G75*
G02*
X5980666Y-5095742I-15000J0D01*
G01*
X5980666Y-5095742D02*
G75*
G02*
X6010666Y-5095742I15000J0D01*
G01*
X6086866Y-5146542D02*
G75*
G02*
X6056866Y-5146542I-15000J0D01*
G01*
X6056866Y-5146542D02*
G75*
G02*
X6086866Y-5146542I15000J0D01*
G01*
X6099566Y-5235442D02*
G75*
G02*
X6069566Y-5235442I-15000J0D01*
G01*
X6069566Y-5235442D02*
G75*
G02*
X6099566Y-5235442I15000J0D01*
G01*
X6366266Y-4067042D02*
G75*
G02*
X6336266Y-4067042I-15000J0D01*
G01*
X6336266Y-4067042D02*
G75*
G02*
X6366266Y-4067042I15000J0D01*
G01*
X6442466Y-5616442D02*
G75*
G02*
X6412466Y-5616442I-15000J0D01*
G01*
X6412466Y-5616442D02*
G75*
G02*
X6442466Y-5616442I15000J0D01*
G01*
X6480566Y-5476742D02*
G75*
G02*
X6450566Y-5476742I-15000J0D01*
G01*
X6450566Y-5476742D02*
G75*
G02*
X6480566Y-5476742I15000J0D01*
G01*
X6569466Y-2936742D02*
G75*
G02*
X6539466Y-2936742I-15000J0D01*
G01*
X6539466Y-2936742D02*
G75*
G02*
X6569466Y-2936742I15000J0D01*
G01*
X6734566Y-2619242D02*
G75*
G02*
X6704566Y-2619242I-15000J0D01*
G01*
X6704566Y-2619242D02*
G75*
G02*
X6734566Y-2619242I15000J0D01*
G01*
X6848866Y-3965442D02*
G75*
G02*
X6818866Y-3965442I-15000J0D01*
G01*
X6818866Y-3965442D02*
G75*
G02*
X6848866Y-3965442I15000J0D01*
G01*
X2528566Y-6531642D02*
X2528566Y-6631642D01*
X2478566Y-6581642D02*
X2578566Y-6581642D01*
X2782566Y-6531642D02*
X2782566Y-6631642D01*
X2732566Y-6581642D02*
X2832566Y-6581642D01*
X3036566Y-6531642D02*
X3036566Y-6631642D01*
X2986566Y-6581642D02*
X3086566Y-6581642D01*
X3290566Y-6531642D02*
X3290566Y-6631642D01*
X3240566Y-6581642D02*
X3340566Y-6581642D01*
X3544566Y-6531642D02*
X3544566Y-6631642D01*
X3494566Y-6581642D02*
X3594566Y-6581642D01*
X3798566Y-6531642D02*
X3798566Y-6631642D01*
X3748566Y-6581642D02*
X3848566Y-6581642D01*
X4052566Y-6531642D02*
X4052566Y-6631642D01*
X4002566Y-6581642D02*
X4102566Y-6581642D01*
X4751066Y-6531142D02*
X4751066Y-6631142D01*
X4701066Y-6581142D02*
X4801066Y-6581142D01*
X4751066Y-6785142D02*
X4751066Y-6885142D01*
X4701066Y-6835142D02*
X4801066Y-6835142D01*
X5233666Y-6277642D02*
X5233666Y-6377642D01*
X5183666Y-6327642D02*
X5283666Y-6327642D01*
X5233666Y-6531642D02*
X5233666Y-6631642D01*
X5183666Y-6581642D02*
X5283666Y-6581642D01*
X5233666Y-6785642D02*
X5233666Y-6885642D01*
X5183666Y-6835642D02*
X5283666Y-6835642D01*
X5360666Y-4537742D02*
X5360666Y-4637742D01*
X5310666Y-4587742D02*
X5410666Y-4587742D01*
X5614666Y-4537742D02*
X5614666Y-4637742D01*
X5564666Y-4587742D02*
X5664666Y-4587742D01*
X5678166Y-2378742D02*
X5678166Y-2478742D01*
X5628166Y-2428742D02*
X5728166Y-2428742D01*
X5779766Y-6639242D02*
X5779766Y-6739242D01*
X5729766Y-6689242D02*
X5829766Y-6689242D01*
X5868666Y-4537742D02*
X5868666Y-4637742D01*
X5818666Y-4587742D02*
X5918666Y-4587742D01*
X5928166Y-2378742D02*
X5928166Y-2478742D01*
X5878166Y-2428742D02*
X5978166Y-2428742D01*
X6033766Y-6639242D02*
X6033766Y-6739242D01*
X5983766Y-6689242D02*
X6083766Y-6689242D01*
X6287766Y-6639242D02*
X6287766Y-6739242D01*
X6237766Y-6689242D02*
X6337766Y-6689242D01*
X6645366Y-2377992D02*
X6645366Y-2477992D01*
X6595366Y-2427992D02*
X6695366Y-2427992D01*
X6713566Y-6639242D02*
X6713566Y-6739242D01*
X6663566Y-6689242D02*
X6763566Y-6689242D01*
X6895366Y-2377992D02*
X6895366Y-2477992D01*
X6845366Y-2427992D02*
X6945366Y-2427992D01*
X6967566Y-6639242D02*
X6967566Y-6739242D01*
X6917566Y-6689242D02*
X7017566Y-6689242D01*
X7221566Y-6639242D02*
X7221566Y-6739242D01*
X7171566Y-6689242D02*
X7271566Y-6689242D01*
X7481566Y-3864642D02*
X7481566Y-3964642D01*
X7431566Y-3914642D02*
X7531566Y-3914642D01*
X7481566Y-4118642D02*
X7481566Y-4218642D01*
X7431566Y-4168642D02*
X7531566Y-4168642D01*
X7481566Y-4372642D02*
X7481566Y-4472642D01*
X7431566Y-4422642D02*
X7531566Y-4422642D01*
X7481566Y-4626642D02*
X7481566Y-4726642D01*
X7431566Y-4676642D02*
X7531566Y-4676642D01*
X7481566Y-5134642D02*
X7481566Y-5234642D01*
X7431566Y-5184642D02*
X7531566Y-5184642D01*
X7481566Y-5388642D02*
X7481566Y-5488642D01*
X7431566Y-5438642D02*
X7531566Y-5438642D01*
X7481566Y-5642642D02*
X7481566Y-5742642D01*
X7431566Y-5692642D02*
X7531566Y-5692642D01*
X7481566Y-5896642D02*
X7481566Y-5996642D01*
X7431566Y-5946642D02*
X7531566Y-5946642D01*
D11*
X1744562Y-7403626D02*
X1744562Y-7203626D01*
X1744562Y-7203626D02*
X1792181Y-7203626D01*
X1792181Y-7203626D02*
X1820752Y-7213150D01*
X1820752Y-7213150D02*
X1839800Y-7232198D01*
X1839800Y-7232198D02*
X1849324Y-7251245D01*
X1849324Y-7251245D02*
X1858847Y-7289340D01*
X1858847Y-7289340D02*
X1858847Y-7317912D01*
X1858847Y-7317912D02*
X1849324Y-7356007D01*
X1849324Y-7356007D02*
X1839800Y-7375055D01*
X1839800Y-7375055D02*
X1820752Y-7394102D01*
X1820752Y-7394102D02*
X1792181Y-7403626D01*
X1792181Y-7403626D02*
X1744562Y-7403626D01*
X1944562Y-7403626D02*
X1944562Y-7270293D01*
X1944562Y-7308388D02*
X1954085Y-7289340D01*
X1954085Y-7289340D02*
X1963609Y-7279817D01*
X1963609Y-7279817D02*
X1982657Y-7270293D01*
X1982657Y-7270293D02*
X2001705Y-7270293D01*
X2068371Y-7403626D02*
X2068371Y-7270293D01*
X2068371Y-7203626D02*
X2058847Y-7213150D01*
X2058847Y-7213150D02*
X2068371Y-7222674D01*
X2068371Y-7222674D02*
X2077895Y-7213150D01*
X2077895Y-7213150D02*
X2068371Y-7203626D01*
X2068371Y-7203626D02*
X2068371Y-7222674D01*
X2192181Y-7403626D02*
X2173133Y-7394102D01*
X2173133Y-7394102D02*
X2163609Y-7375055D01*
X2163609Y-7375055D02*
X2163609Y-7203626D01*
X2296943Y-7403626D02*
X2277895Y-7394102D01*
X2277895Y-7394102D02*
X2268371Y-7375055D01*
X2268371Y-7375055D02*
X2268371Y-7203626D01*
X2525514Y-7403626D02*
X2525514Y-7203626D01*
X2525514Y-7203626D02*
X2592181Y-7346483D01*
X2592181Y-7346483D02*
X2658847Y-7203626D01*
X2658847Y-7203626D02*
X2658847Y-7403626D01*
X2839800Y-7403626D02*
X2839800Y-7298864D01*
X2839800Y-7298864D02*
X2830276Y-7279817D01*
X2830276Y-7279817D02*
X2811228Y-7270293D01*
X2811228Y-7270293D02*
X2773133Y-7270293D01*
X2773133Y-7270293D02*
X2754086Y-7279817D01*
X2839800Y-7394102D02*
X2820752Y-7403626D01*
X2820752Y-7403626D02*
X2773133Y-7403626D01*
X2773133Y-7403626D02*
X2754086Y-7394102D01*
X2754086Y-7394102D02*
X2744562Y-7375055D01*
X2744562Y-7375055D02*
X2744562Y-7356007D01*
X2744562Y-7356007D02*
X2754086Y-7336959D01*
X2754086Y-7336959D02*
X2773133Y-7327436D01*
X2773133Y-7327436D02*
X2820752Y-7327436D01*
X2820752Y-7327436D02*
X2839800Y-7317912D01*
X2935038Y-7270293D02*
X2935038Y-7470293D01*
X2935038Y-7279817D02*
X2954085Y-7270293D01*
X2954085Y-7270293D02*
X2992181Y-7270293D01*
X2992181Y-7270293D02*
X3011228Y-7279817D01*
X3011228Y-7279817D02*
X3020752Y-7289340D01*
X3020752Y-7289340D02*
X3030276Y-7308388D01*
X3030276Y-7308388D02*
X3030276Y-7365531D01*
X3030276Y-7365531D02*
X3020752Y-7384578D01*
X3020752Y-7384578D02*
X3011228Y-7394102D01*
X3011228Y-7394102D02*
X2992181Y-7403626D01*
X2992181Y-7403626D02*
X2954085Y-7403626D01*
X2954085Y-7403626D02*
X2935038Y-7394102D01*
X3115990Y-7384578D02*
X3125514Y-7394102D01*
X3125514Y-7394102D02*
X3115990Y-7403626D01*
X3115990Y-7403626D02*
X3106466Y-7394102D01*
X3106466Y-7394102D02*
X3115990Y-7384578D01*
X3115990Y-7384578D02*
X3115990Y-7403626D01*
X3115990Y-7279817D02*
X3125514Y-7289340D01*
X3125514Y-7289340D02*
X3115990Y-7298864D01*
X3115990Y-7298864D02*
X3106466Y-7289340D01*
X3106466Y-7289340D02*
X3115990Y-7279817D01*
X3115990Y-7279817D02*
X3115990Y-7298864D01*
D12*
X1463785Y-7722142D02*
X1483785Y-7742142D01*
X1483785Y-7722142D02*
X1463785Y-7742142D01*
D11*
X1782657Y-7623626D02*
X1801705Y-7623626D01*
X1801705Y-7623626D02*
X1820752Y-7633150D01*
X1820752Y-7633150D02*
X1830276Y-7642674D01*
X1830276Y-7642674D02*
X1839800Y-7661721D01*
X1839800Y-7661721D02*
X1849324Y-7699817D01*
X1849324Y-7699817D02*
X1849324Y-7747436D01*
X1849324Y-7747436D02*
X1839800Y-7785531D01*
X1839800Y-7785531D02*
X1830276Y-7804578D01*
X1830276Y-7804578D02*
X1820752Y-7814102D01*
X1820752Y-7814102D02*
X1801705Y-7823626D01*
X1801705Y-7823626D02*
X1782657Y-7823626D01*
X1782657Y-7823626D02*
X1763609Y-7814102D01*
X1763609Y-7814102D02*
X1754085Y-7804578D01*
X1754085Y-7804578D02*
X1744562Y-7785531D01*
X1744562Y-7785531D02*
X1735038Y-7747436D01*
X1735038Y-7747436D02*
X1735038Y-7699817D01*
X1735038Y-7699817D02*
X1744562Y-7661721D01*
X1744562Y-7661721D02*
X1754085Y-7642674D01*
X1754085Y-7642674D02*
X1763609Y-7633150D01*
X1763609Y-7633150D02*
X1782657Y-7623626D01*
X1935038Y-7804578D02*
X1944562Y-7814102D01*
X1944562Y-7814102D02*
X1935038Y-7823626D01*
X1935038Y-7823626D02*
X1925514Y-7814102D01*
X1925514Y-7814102D02*
X1935038Y-7804578D01*
X1935038Y-7804578D02*
X1935038Y-7823626D01*
X2020752Y-7642674D02*
X2030276Y-7633150D01*
X2030276Y-7633150D02*
X2049324Y-7623626D01*
X2049324Y-7623626D02*
X2096943Y-7623626D01*
X2096943Y-7623626D02*
X2115990Y-7633150D01*
X2115990Y-7633150D02*
X2125514Y-7642674D01*
X2125514Y-7642674D02*
X2135038Y-7661721D01*
X2135038Y-7661721D02*
X2135038Y-7680769D01*
X2135038Y-7680769D02*
X2125514Y-7709340D01*
X2125514Y-7709340D02*
X2011228Y-7823626D01*
X2011228Y-7823626D02*
X2135038Y-7823626D01*
X2258847Y-7623626D02*
X2277895Y-7623626D01*
X2277895Y-7623626D02*
X2296943Y-7633150D01*
X2296943Y-7633150D02*
X2306467Y-7642674D01*
X2306467Y-7642674D02*
X2315990Y-7661721D01*
X2315990Y-7661721D02*
X2325514Y-7699817D01*
X2325514Y-7699817D02*
X2325514Y-7747436D01*
X2325514Y-7747436D02*
X2315990Y-7785531D01*
X2315990Y-7785531D02*
X2306467Y-7804578D01*
X2306467Y-7804578D02*
X2296943Y-7814102D01*
X2296943Y-7814102D02*
X2277895Y-7823626D01*
X2277895Y-7823626D02*
X2258847Y-7823626D01*
X2258847Y-7823626D02*
X2239800Y-7814102D01*
X2239800Y-7814102D02*
X2230276Y-7804578D01*
X2230276Y-7804578D02*
X2220752Y-7785531D01*
X2220752Y-7785531D02*
X2211228Y-7747436D01*
X2211228Y-7747436D02*
X2211228Y-7699817D01*
X2211228Y-7699817D02*
X2220752Y-7661721D01*
X2220752Y-7661721D02*
X2230276Y-7642674D01*
X2230276Y-7642674D02*
X2239800Y-7633150D01*
X2239800Y-7633150D02*
X2258847Y-7623626D01*
X2449324Y-7623626D02*
X2468371Y-7623626D01*
X2468371Y-7623626D02*
X2487419Y-7633150D01*
X2487419Y-7633150D02*
X2496943Y-7642674D01*
X2496943Y-7642674D02*
X2506467Y-7661721D01*
X2506467Y-7661721D02*
X2515990Y-7699817D01*
X2515990Y-7699817D02*
X2515990Y-7747436D01*
X2515990Y-7747436D02*
X2506467Y-7785531D01*
X2506467Y-7785531D02*
X2496943Y-7804578D01*
X2496943Y-7804578D02*
X2487419Y-7814102D01*
X2487419Y-7814102D02*
X2468371Y-7823626D01*
X2468371Y-7823626D02*
X2449324Y-7823626D01*
X2449324Y-7823626D02*
X2430276Y-7814102D01*
X2430276Y-7814102D02*
X2420752Y-7804578D01*
X2420752Y-7804578D02*
X2411228Y-7785531D01*
X2411228Y-7785531D02*
X2401705Y-7747436D01*
X2401705Y-7747436D02*
X2401705Y-7699817D01*
X2401705Y-7699817D02*
X2411228Y-7661721D01*
X2411228Y-7661721D02*
X2420752Y-7642674D01*
X2420752Y-7642674D02*
X2430276Y-7633150D01*
X2430276Y-7633150D02*
X2449324Y-7623626D01*
X2601705Y-7823626D02*
X2601705Y-7690293D01*
X2601705Y-7709340D02*
X2611228Y-7699817D01*
X2611228Y-7699817D02*
X2630276Y-7690293D01*
X2630276Y-7690293D02*
X2658848Y-7690293D01*
X2658848Y-7690293D02*
X2677895Y-7699817D01*
X2677895Y-7699817D02*
X2687419Y-7718864D01*
X2687419Y-7718864D02*
X2687419Y-7823626D01*
X2687419Y-7718864D02*
X2696943Y-7699817D01*
X2696943Y-7699817D02*
X2715990Y-7690293D01*
X2715990Y-7690293D02*
X2744562Y-7690293D01*
X2744562Y-7690293D02*
X2763609Y-7699817D01*
X2763609Y-7699817D02*
X2773133Y-7718864D01*
X2773133Y-7718864D02*
X2773133Y-7823626D01*
X2868371Y-7823626D02*
X2868371Y-7690293D01*
X2868371Y-7709340D02*
X2877895Y-7699817D01*
X2877895Y-7699817D02*
X2896943Y-7690293D01*
X2896943Y-7690293D02*
X2925514Y-7690293D01*
X2925514Y-7690293D02*
X2944562Y-7699817D01*
X2944562Y-7699817D02*
X2954086Y-7718864D01*
X2954086Y-7718864D02*
X2954086Y-7823626D01*
X2954086Y-7718864D02*
X2963609Y-7699817D01*
X2963609Y-7699817D02*
X2982657Y-7690293D01*
X2982657Y-7690293D02*
X3011228Y-7690293D01*
X3011228Y-7690293D02*
X3030276Y-7699817D01*
X3030276Y-7699817D02*
X3039800Y-7718864D01*
X3039800Y-7718864D02*
X3039800Y-7823626D01*
X3430276Y-7614102D02*
X3258848Y-7871245D01*
X3687419Y-7623626D02*
X3706467Y-7623626D01*
X3706467Y-7623626D02*
X3725514Y-7633150D01*
X3725514Y-7633150D02*
X3735038Y-7642674D01*
X3735038Y-7642674D02*
X3744562Y-7661721D01*
X3744562Y-7661721D02*
X3754086Y-7699817D01*
X3754086Y-7699817D02*
X3754086Y-7747436D01*
X3754086Y-7747436D02*
X3744562Y-7785531D01*
X3744562Y-7785531D02*
X3735038Y-7804578D01*
X3735038Y-7804578D02*
X3725514Y-7814102D01*
X3725514Y-7814102D02*
X3706467Y-7823626D01*
X3706467Y-7823626D02*
X3687419Y-7823626D01*
X3687419Y-7823626D02*
X3668371Y-7814102D01*
X3668371Y-7814102D02*
X3658848Y-7804578D01*
X3658848Y-7804578D02*
X3649324Y-7785531D01*
X3649324Y-7785531D02*
X3639800Y-7747436D01*
X3639800Y-7747436D02*
X3639800Y-7699817D01*
X3639800Y-7699817D02*
X3649324Y-7661721D01*
X3649324Y-7661721D02*
X3658848Y-7642674D01*
X3658848Y-7642674D02*
X3668371Y-7633150D01*
X3668371Y-7633150D02*
X3687419Y-7623626D01*
X3839800Y-7804578D02*
X3849324Y-7814102D01*
X3849324Y-7814102D02*
X3839800Y-7823626D01*
X3839800Y-7823626D02*
X3830276Y-7814102D01*
X3830276Y-7814102D02*
X3839800Y-7804578D01*
X3839800Y-7804578D02*
X3839800Y-7823626D01*
X3973133Y-7623626D02*
X3992181Y-7623626D01*
X3992181Y-7623626D02*
X4011229Y-7633150D01*
X4011229Y-7633150D02*
X4020752Y-7642674D01*
X4020752Y-7642674D02*
X4030276Y-7661721D01*
X4030276Y-7661721D02*
X4039800Y-7699817D01*
X4039800Y-7699817D02*
X4039800Y-7747436D01*
X4039800Y-7747436D02*
X4030276Y-7785531D01*
X4030276Y-7785531D02*
X4020752Y-7804578D01*
X4020752Y-7804578D02*
X4011229Y-7814102D01*
X4011229Y-7814102D02*
X3992181Y-7823626D01*
X3992181Y-7823626D02*
X3973133Y-7823626D01*
X3973133Y-7823626D02*
X3954086Y-7814102D01*
X3954086Y-7814102D02*
X3944562Y-7804578D01*
X3944562Y-7804578D02*
X3935038Y-7785531D01*
X3935038Y-7785531D02*
X3925514Y-7747436D01*
X3925514Y-7747436D02*
X3925514Y-7699817D01*
X3925514Y-7699817D02*
X3935038Y-7661721D01*
X3935038Y-7661721D02*
X3944562Y-7642674D01*
X3944562Y-7642674D02*
X3954086Y-7633150D01*
X3954086Y-7633150D02*
X3973133Y-7623626D01*
X4163609Y-7623626D02*
X4182657Y-7623626D01*
X4182657Y-7623626D02*
X4201705Y-7633150D01*
X4201705Y-7633150D02*
X4211229Y-7642674D01*
X4211229Y-7642674D02*
X4220752Y-7661721D01*
X4220752Y-7661721D02*
X4230276Y-7699817D01*
X4230276Y-7699817D02*
X4230276Y-7747436D01*
X4230276Y-7747436D02*
X4220752Y-7785531D01*
X4220752Y-7785531D02*
X4211229Y-7804578D01*
X4211229Y-7804578D02*
X4201705Y-7814102D01*
X4201705Y-7814102D02*
X4182657Y-7823626D01*
X4182657Y-7823626D02*
X4163609Y-7823626D01*
X4163609Y-7823626D02*
X4144562Y-7814102D01*
X4144562Y-7814102D02*
X4135038Y-7804578D01*
X4135038Y-7804578D02*
X4125514Y-7785531D01*
X4125514Y-7785531D02*
X4115990Y-7747436D01*
X4115990Y-7747436D02*
X4115990Y-7699817D01*
X4115990Y-7699817D02*
X4125514Y-7661721D01*
X4125514Y-7661721D02*
X4135038Y-7642674D01*
X4135038Y-7642674D02*
X4144562Y-7633150D01*
X4144562Y-7633150D02*
X4163609Y-7623626D01*
X4296943Y-7623626D02*
X4430276Y-7623626D01*
X4430276Y-7623626D02*
X4344562Y-7823626D01*
X4515991Y-7823626D02*
X4554086Y-7823626D01*
X4554086Y-7823626D02*
X4573133Y-7814102D01*
X4573133Y-7814102D02*
X4582657Y-7804578D01*
X4582657Y-7804578D02*
X4601705Y-7776007D01*
X4601705Y-7776007D02*
X4611229Y-7737912D01*
X4611229Y-7737912D02*
X4611229Y-7661721D01*
X4611229Y-7661721D02*
X4601705Y-7642674D01*
X4601705Y-7642674D02*
X4592181Y-7633150D01*
X4592181Y-7633150D02*
X4573133Y-7623626D01*
X4573133Y-7623626D02*
X4535038Y-7623626D01*
X4535038Y-7623626D02*
X4515991Y-7633150D01*
X4515991Y-7633150D02*
X4506467Y-7642674D01*
X4506467Y-7642674D02*
X4496943Y-7661721D01*
X4496943Y-7661721D02*
X4496943Y-7709340D01*
X4496943Y-7709340D02*
X4506467Y-7728388D01*
X4506467Y-7728388D02*
X4515991Y-7737912D01*
X4515991Y-7737912D02*
X4535038Y-7747436D01*
X4535038Y-7747436D02*
X4573133Y-7747436D01*
X4573133Y-7747436D02*
X4592181Y-7737912D01*
X4592181Y-7737912D02*
X4601705Y-7728388D01*
X4601705Y-7728388D02*
X4611229Y-7709340D01*
X4687419Y-7623626D02*
X4687419Y-7661721D01*
X4763610Y-7623626D02*
X4763610Y-7661721D01*
X5058848Y-7899817D02*
X5049324Y-7890293D01*
X5049324Y-7890293D02*
X5030276Y-7861721D01*
X5030276Y-7861721D02*
X5020753Y-7842674D01*
X5020753Y-7842674D02*
X5011229Y-7814102D01*
X5011229Y-7814102D02*
X5001705Y-7766483D01*
X5001705Y-7766483D02*
X5001705Y-7728388D01*
X5001705Y-7728388D02*
X5011229Y-7680769D01*
X5011229Y-7680769D02*
X5020753Y-7652198D01*
X5020753Y-7652198D02*
X5030276Y-7633150D01*
X5030276Y-7633150D02*
X5049324Y-7604578D01*
X5049324Y-7604578D02*
X5058848Y-7595055D01*
X5163610Y-7709340D02*
X5144562Y-7699817D01*
X5144562Y-7699817D02*
X5135038Y-7690293D01*
X5135038Y-7690293D02*
X5125514Y-7671245D01*
X5125514Y-7671245D02*
X5125514Y-7661721D01*
X5125514Y-7661721D02*
X5135038Y-7642674D01*
X5135038Y-7642674D02*
X5144562Y-7633150D01*
X5144562Y-7633150D02*
X5163610Y-7623626D01*
X5163610Y-7623626D02*
X5201705Y-7623626D01*
X5201705Y-7623626D02*
X5220753Y-7633150D01*
X5220753Y-7633150D02*
X5230276Y-7642674D01*
X5230276Y-7642674D02*
X5239800Y-7661721D01*
X5239800Y-7661721D02*
X5239800Y-7671245D01*
X5239800Y-7671245D02*
X5230276Y-7690293D01*
X5230276Y-7690293D02*
X5220753Y-7699817D01*
X5220753Y-7699817D02*
X5201705Y-7709340D01*
X5201705Y-7709340D02*
X5163610Y-7709340D01*
X5163610Y-7709340D02*
X5144562Y-7718864D01*
X5144562Y-7718864D02*
X5135038Y-7728388D01*
X5135038Y-7728388D02*
X5125514Y-7747436D01*
X5125514Y-7747436D02*
X5125514Y-7785531D01*
X5125514Y-7785531D02*
X5135038Y-7804578D01*
X5135038Y-7804578D02*
X5144562Y-7814102D01*
X5144562Y-7814102D02*
X5163610Y-7823626D01*
X5163610Y-7823626D02*
X5201705Y-7823626D01*
X5201705Y-7823626D02*
X5220753Y-7814102D01*
X5220753Y-7814102D02*
X5230276Y-7804578D01*
X5230276Y-7804578D02*
X5239800Y-7785531D01*
X5239800Y-7785531D02*
X5239800Y-7747436D01*
X5239800Y-7747436D02*
X5230276Y-7728388D01*
X5230276Y-7728388D02*
X5220753Y-7718864D01*
X5220753Y-7718864D02*
X5201705Y-7709340D01*
X5335038Y-7823626D02*
X5373133Y-7823626D01*
X5373133Y-7823626D02*
X5392181Y-7814102D01*
X5392181Y-7814102D02*
X5401705Y-7804578D01*
X5401705Y-7804578D02*
X5420753Y-7776007D01*
X5420753Y-7776007D02*
X5430276Y-7737912D01*
X5430276Y-7737912D02*
X5430276Y-7661721D01*
X5430276Y-7661721D02*
X5420753Y-7642674D01*
X5420753Y-7642674D02*
X5411229Y-7633150D01*
X5411229Y-7633150D02*
X5392181Y-7623626D01*
X5392181Y-7623626D02*
X5354086Y-7623626D01*
X5354086Y-7623626D02*
X5335038Y-7633150D01*
X5335038Y-7633150D02*
X5325514Y-7642674D01*
X5325514Y-7642674D02*
X5315991Y-7661721D01*
X5315991Y-7661721D02*
X5315991Y-7709340D01*
X5315991Y-7709340D02*
X5325514Y-7728388D01*
X5325514Y-7728388D02*
X5335038Y-7737912D01*
X5335038Y-7737912D02*
X5354086Y-7747436D01*
X5354086Y-7747436D02*
X5392181Y-7747436D01*
X5392181Y-7747436D02*
X5411229Y-7737912D01*
X5411229Y-7737912D02*
X5420753Y-7728388D01*
X5420753Y-7728388D02*
X5430276Y-7709340D01*
X5668372Y-7823626D02*
X5668372Y-7623626D01*
X5754086Y-7823626D02*
X5754086Y-7718864D01*
X5754086Y-7718864D02*
X5744562Y-7699817D01*
X5744562Y-7699817D02*
X5725514Y-7690293D01*
X5725514Y-7690293D02*
X5696943Y-7690293D01*
X5696943Y-7690293D02*
X5677895Y-7699817D01*
X5677895Y-7699817D02*
X5668372Y-7709340D01*
X5877895Y-7823626D02*
X5858848Y-7814102D01*
X5858848Y-7814102D02*
X5849324Y-7804578D01*
X5849324Y-7804578D02*
X5839800Y-7785531D01*
X5839800Y-7785531D02*
X5839800Y-7728388D01*
X5839800Y-7728388D02*
X5849324Y-7709340D01*
X5849324Y-7709340D02*
X5858848Y-7699817D01*
X5858848Y-7699817D02*
X5877895Y-7690293D01*
X5877895Y-7690293D02*
X5906467Y-7690293D01*
X5906467Y-7690293D02*
X5925514Y-7699817D01*
X5925514Y-7699817D02*
X5935038Y-7709340D01*
X5935038Y-7709340D02*
X5944562Y-7728388D01*
X5944562Y-7728388D02*
X5944562Y-7785531D01*
X5944562Y-7785531D02*
X5935038Y-7804578D01*
X5935038Y-7804578D02*
X5925514Y-7814102D01*
X5925514Y-7814102D02*
X5906467Y-7823626D01*
X5906467Y-7823626D02*
X5877895Y-7823626D01*
X6058848Y-7823626D02*
X6039800Y-7814102D01*
X6039800Y-7814102D02*
X6030276Y-7795055D01*
X6030276Y-7795055D02*
X6030276Y-7623626D01*
X6211229Y-7814102D02*
X6192181Y-7823626D01*
X6192181Y-7823626D02*
X6154086Y-7823626D01*
X6154086Y-7823626D02*
X6135038Y-7814102D01*
X6135038Y-7814102D02*
X6125514Y-7795055D01*
X6125514Y-7795055D02*
X6125514Y-7718864D01*
X6125514Y-7718864D02*
X6135038Y-7699817D01*
X6135038Y-7699817D02*
X6154086Y-7690293D01*
X6154086Y-7690293D02*
X6192181Y-7690293D01*
X6192181Y-7690293D02*
X6211229Y-7699817D01*
X6211229Y-7699817D02*
X6220753Y-7718864D01*
X6220753Y-7718864D02*
X6220753Y-7737912D01*
X6220753Y-7737912D02*
X6125514Y-7756959D01*
X6296943Y-7814102D02*
X6315991Y-7823626D01*
X6315991Y-7823626D02*
X6354086Y-7823626D01*
X6354086Y-7823626D02*
X6373134Y-7814102D01*
X6373134Y-7814102D02*
X6382657Y-7795055D01*
X6382657Y-7795055D02*
X6382657Y-7785531D01*
X6382657Y-7785531D02*
X6373134Y-7766483D01*
X6373134Y-7766483D02*
X6354086Y-7756959D01*
X6354086Y-7756959D02*
X6325514Y-7756959D01*
X6325514Y-7756959D02*
X6306467Y-7747436D01*
X6306467Y-7747436D02*
X6296943Y-7728388D01*
X6296943Y-7728388D02*
X6296943Y-7718864D01*
X6296943Y-7718864D02*
X6306467Y-7699817D01*
X6306467Y-7699817D02*
X6325514Y-7690293D01*
X6325514Y-7690293D02*
X6354086Y-7690293D01*
X6354086Y-7690293D02*
X6373134Y-7699817D01*
X6449324Y-7899817D02*
X6458848Y-7890293D01*
X6458848Y-7890293D02*
X6477895Y-7861721D01*
X6477895Y-7861721D02*
X6487419Y-7842674D01*
X6487419Y-7842674D02*
X6496943Y-7814102D01*
X6496943Y-7814102D02*
X6506467Y-7766483D01*
X6506467Y-7766483D02*
X6506467Y-7728388D01*
X6506467Y-7728388D02*
X6496943Y-7680769D01*
X6496943Y-7680769D02*
X6487419Y-7652198D01*
X6487419Y-7652198D02*
X6477895Y-7633150D01*
X6477895Y-7633150D02*
X6458848Y-7604578D01*
X6458848Y-7604578D02*
X6449324Y-7595055D01*
D12*
X1483785Y-7996142D02*
G75*
G02*
X1453785Y-7996142I-15000J0D01*
G01*
X1453785Y-7996142D02*
G75*
G02*
X1483785Y-7996142I15000J0D01*
G01*
D11*
X1782657Y-7887626D02*
X1801705Y-7887626D01*
X1801705Y-7887626D02*
X1820752Y-7897150D01*
X1820752Y-7897150D02*
X1830276Y-7906674D01*
X1830276Y-7906674D02*
X1839800Y-7925721D01*
X1839800Y-7925721D02*
X1849324Y-7963817D01*
X1849324Y-7963817D02*
X1849324Y-8011436D01*
X1849324Y-8011436D02*
X1839800Y-8049531D01*
X1839800Y-8049531D02*
X1830276Y-8068578D01*
X1830276Y-8068578D02*
X1820752Y-8078102D01*
X1820752Y-8078102D02*
X1801705Y-8087626D01*
X1801705Y-8087626D02*
X1782657Y-8087626D01*
X1782657Y-8087626D02*
X1763609Y-8078102D01*
X1763609Y-8078102D02*
X1754085Y-8068578D01*
X1754085Y-8068578D02*
X1744562Y-8049531D01*
X1744562Y-8049531D02*
X1735038Y-8011436D01*
X1735038Y-8011436D02*
X1735038Y-7963817D01*
X1735038Y-7963817D02*
X1744562Y-7925721D01*
X1744562Y-7925721D02*
X1754085Y-7906674D01*
X1754085Y-7906674D02*
X1763609Y-7897150D01*
X1763609Y-7897150D02*
X1782657Y-7887626D01*
X1935038Y-8068578D02*
X1944562Y-8078102D01*
X1944562Y-8078102D02*
X1935038Y-8087626D01*
X1935038Y-8087626D02*
X1925514Y-8078102D01*
X1925514Y-8078102D02*
X1935038Y-8068578D01*
X1935038Y-8068578D02*
X1935038Y-8087626D01*
X2011228Y-7887626D02*
X2135038Y-7887626D01*
X2135038Y-7887626D02*
X2068371Y-7963817D01*
X2068371Y-7963817D02*
X2096943Y-7963817D01*
X2096943Y-7963817D02*
X2115990Y-7973340D01*
X2115990Y-7973340D02*
X2125514Y-7982864D01*
X2125514Y-7982864D02*
X2135038Y-8001912D01*
X2135038Y-8001912D02*
X2135038Y-8049531D01*
X2135038Y-8049531D02*
X2125514Y-8068578D01*
X2125514Y-8068578D02*
X2115990Y-8078102D01*
X2115990Y-8078102D02*
X2096943Y-8087626D01*
X2096943Y-8087626D02*
X2039800Y-8087626D01*
X2039800Y-8087626D02*
X2020752Y-8078102D01*
X2020752Y-8078102D02*
X2011228Y-8068578D01*
X2258847Y-7887626D02*
X2277895Y-7887626D01*
X2277895Y-7887626D02*
X2296943Y-7897150D01*
X2296943Y-7897150D02*
X2306467Y-7906674D01*
X2306467Y-7906674D02*
X2315990Y-7925721D01*
X2315990Y-7925721D02*
X2325514Y-7963817D01*
X2325514Y-7963817D02*
X2325514Y-8011436D01*
X2325514Y-8011436D02*
X2315990Y-8049531D01*
X2315990Y-8049531D02*
X2306467Y-8068578D01*
X2306467Y-8068578D02*
X2296943Y-8078102D01*
X2296943Y-8078102D02*
X2277895Y-8087626D01*
X2277895Y-8087626D02*
X2258847Y-8087626D01*
X2258847Y-8087626D02*
X2239800Y-8078102D01*
X2239800Y-8078102D02*
X2230276Y-8068578D01*
X2230276Y-8068578D02*
X2220752Y-8049531D01*
X2220752Y-8049531D02*
X2211228Y-8011436D01*
X2211228Y-8011436D02*
X2211228Y-7963817D01*
X2211228Y-7963817D02*
X2220752Y-7925721D01*
X2220752Y-7925721D02*
X2230276Y-7906674D01*
X2230276Y-7906674D02*
X2239800Y-7897150D01*
X2239800Y-7897150D02*
X2258847Y-7887626D01*
X2449324Y-7887626D02*
X2468371Y-7887626D01*
X2468371Y-7887626D02*
X2487419Y-7897150D01*
X2487419Y-7897150D02*
X2496943Y-7906674D01*
X2496943Y-7906674D02*
X2506467Y-7925721D01*
X2506467Y-7925721D02*
X2515990Y-7963817D01*
X2515990Y-7963817D02*
X2515990Y-8011436D01*
X2515990Y-8011436D02*
X2506467Y-8049531D01*
X2506467Y-8049531D02*
X2496943Y-8068578D01*
X2496943Y-8068578D02*
X2487419Y-8078102D01*
X2487419Y-8078102D02*
X2468371Y-8087626D01*
X2468371Y-8087626D02*
X2449324Y-8087626D01*
X2449324Y-8087626D02*
X2430276Y-8078102D01*
X2430276Y-8078102D02*
X2420752Y-8068578D01*
X2420752Y-8068578D02*
X2411228Y-8049531D01*
X2411228Y-8049531D02*
X2401705Y-8011436D01*
X2401705Y-8011436D02*
X2401705Y-7963817D01*
X2401705Y-7963817D02*
X2411228Y-7925721D01*
X2411228Y-7925721D02*
X2420752Y-7906674D01*
X2420752Y-7906674D02*
X2430276Y-7897150D01*
X2430276Y-7897150D02*
X2449324Y-7887626D01*
X2601705Y-8087626D02*
X2601705Y-7954293D01*
X2601705Y-7973340D02*
X2611228Y-7963817D01*
X2611228Y-7963817D02*
X2630276Y-7954293D01*
X2630276Y-7954293D02*
X2658848Y-7954293D01*
X2658848Y-7954293D02*
X2677895Y-7963817D01*
X2677895Y-7963817D02*
X2687419Y-7982864D01*
X2687419Y-7982864D02*
X2687419Y-8087626D01*
X2687419Y-7982864D02*
X2696943Y-7963817D01*
X2696943Y-7963817D02*
X2715990Y-7954293D01*
X2715990Y-7954293D02*
X2744562Y-7954293D01*
X2744562Y-7954293D02*
X2763609Y-7963817D01*
X2763609Y-7963817D02*
X2773133Y-7982864D01*
X2773133Y-7982864D02*
X2773133Y-8087626D01*
X2868371Y-8087626D02*
X2868371Y-7954293D01*
X2868371Y-7973340D02*
X2877895Y-7963817D01*
X2877895Y-7963817D02*
X2896943Y-7954293D01*
X2896943Y-7954293D02*
X2925514Y-7954293D01*
X2925514Y-7954293D02*
X2944562Y-7963817D01*
X2944562Y-7963817D02*
X2954086Y-7982864D01*
X2954086Y-7982864D02*
X2954086Y-8087626D01*
X2954086Y-7982864D02*
X2963609Y-7963817D01*
X2963609Y-7963817D02*
X2982657Y-7954293D01*
X2982657Y-7954293D02*
X3011228Y-7954293D01*
X3011228Y-7954293D02*
X3030276Y-7963817D01*
X3030276Y-7963817D02*
X3039800Y-7982864D01*
X3039800Y-7982864D02*
X3039800Y-8087626D01*
X3430276Y-7878102D02*
X3258848Y-8135245D01*
X3687419Y-7887626D02*
X3706467Y-7887626D01*
X3706467Y-7887626D02*
X3725514Y-7897150D01*
X3725514Y-7897150D02*
X3735038Y-7906674D01*
X3735038Y-7906674D02*
X3744562Y-7925721D01*
X3744562Y-7925721D02*
X3754086Y-7963817D01*
X3754086Y-7963817D02*
X3754086Y-8011436D01*
X3754086Y-8011436D02*
X3744562Y-8049531D01*
X3744562Y-8049531D02*
X3735038Y-8068578D01*
X3735038Y-8068578D02*
X3725514Y-8078102D01*
X3725514Y-8078102D02*
X3706467Y-8087626D01*
X3706467Y-8087626D02*
X3687419Y-8087626D01*
X3687419Y-8087626D02*
X3668371Y-8078102D01*
X3668371Y-8078102D02*
X3658848Y-8068578D01*
X3658848Y-8068578D02*
X3649324Y-8049531D01*
X3649324Y-8049531D02*
X3639800Y-8011436D01*
X3639800Y-8011436D02*
X3639800Y-7963817D01*
X3639800Y-7963817D02*
X3649324Y-7925721D01*
X3649324Y-7925721D02*
X3658848Y-7906674D01*
X3658848Y-7906674D02*
X3668371Y-7897150D01*
X3668371Y-7897150D02*
X3687419Y-7887626D01*
X3839800Y-8068578D02*
X3849324Y-8078102D01*
X3849324Y-8078102D02*
X3839800Y-8087626D01*
X3839800Y-8087626D02*
X3830276Y-8078102D01*
X3830276Y-8078102D02*
X3839800Y-8068578D01*
X3839800Y-8068578D02*
X3839800Y-8087626D01*
X3973133Y-7887626D02*
X3992181Y-7887626D01*
X3992181Y-7887626D02*
X4011229Y-7897150D01*
X4011229Y-7897150D02*
X4020752Y-7906674D01*
X4020752Y-7906674D02*
X4030276Y-7925721D01*
X4030276Y-7925721D02*
X4039800Y-7963817D01*
X4039800Y-7963817D02*
X4039800Y-8011436D01*
X4039800Y-8011436D02*
X4030276Y-8049531D01*
X4030276Y-8049531D02*
X4020752Y-8068578D01*
X4020752Y-8068578D02*
X4011229Y-8078102D01*
X4011229Y-8078102D02*
X3992181Y-8087626D01*
X3992181Y-8087626D02*
X3973133Y-8087626D01*
X3973133Y-8087626D02*
X3954086Y-8078102D01*
X3954086Y-8078102D02*
X3944562Y-8068578D01*
X3944562Y-8068578D02*
X3935038Y-8049531D01*
X3935038Y-8049531D02*
X3925514Y-8011436D01*
X3925514Y-8011436D02*
X3925514Y-7963817D01*
X3925514Y-7963817D02*
X3935038Y-7925721D01*
X3935038Y-7925721D02*
X3944562Y-7906674D01*
X3944562Y-7906674D02*
X3954086Y-7897150D01*
X3954086Y-7897150D02*
X3973133Y-7887626D01*
X4230276Y-8087626D02*
X4115990Y-8087626D01*
X4173133Y-8087626D02*
X4173133Y-7887626D01*
X4173133Y-7887626D02*
X4154086Y-7916198D01*
X4154086Y-7916198D02*
X4135038Y-7935245D01*
X4135038Y-7935245D02*
X4115990Y-7944769D01*
X4420752Y-8087626D02*
X4306467Y-8087626D01*
X4363610Y-8087626D02*
X4363610Y-7887626D01*
X4363610Y-7887626D02*
X4344562Y-7916198D01*
X4344562Y-7916198D02*
X4325514Y-7935245D01*
X4325514Y-7935245D02*
X4306467Y-7944769D01*
X4535038Y-7973340D02*
X4515991Y-7963817D01*
X4515991Y-7963817D02*
X4506467Y-7954293D01*
X4506467Y-7954293D02*
X4496943Y-7935245D01*
X4496943Y-7935245D02*
X4496943Y-7925721D01*
X4496943Y-7925721D02*
X4506467Y-7906674D01*
X4506467Y-7906674D02*
X4515991Y-7897150D01*
X4515991Y-7897150D02*
X4535038Y-7887626D01*
X4535038Y-7887626D02*
X4573133Y-7887626D01*
X4573133Y-7887626D02*
X4592181Y-7897150D01*
X4592181Y-7897150D02*
X4601705Y-7906674D01*
X4601705Y-7906674D02*
X4611229Y-7925721D01*
X4611229Y-7925721D02*
X4611229Y-7935245D01*
X4611229Y-7935245D02*
X4601705Y-7954293D01*
X4601705Y-7954293D02*
X4592181Y-7963817D01*
X4592181Y-7963817D02*
X4573133Y-7973340D01*
X4573133Y-7973340D02*
X4535038Y-7973340D01*
X4535038Y-7973340D02*
X4515991Y-7982864D01*
X4515991Y-7982864D02*
X4506467Y-7992388D01*
X4506467Y-7992388D02*
X4496943Y-8011436D01*
X4496943Y-8011436D02*
X4496943Y-8049531D01*
X4496943Y-8049531D02*
X4506467Y-8068578D01*
X4506467Y-8068578D02*
X4515991Y-8078102D01*
X4515991Y-8078102D02*
X4535038Y-8087626D01*
X4535038Y-8087626D02*
X4573133Y-8087626D01*
X4573133Y-8087626D02*
X4592181Y-8078102D01*
X4592181Y-8078102D02*
X4601705Y-8068578D01*
X4601705Y-8068578D02*
X4611229Y-8049531D01*
X4611229Y-8049531D02*
X4611229Y-8011436D01*
X4611229Y-8011436D02*
X4601705Y-7992388D01*
X4601705Y-7992388D02*
X4592181Y-7982864D01*
X4592181Y-7982864D02*
X4573133Y-7973340D01*
X4687419Y-7887626D02*
X4687419Y-7925721D01*
X4763610Y-7887626D02*
X4763610Y-7925721D01*
X5058848Y-8163817D02*
X5049324Y-8154293D01*
X5049324Y-8154293D02*
X5030276Y-8125721D01*
X5030276Y-8125721D02*
X5020753Y-8106674D01*
X5020753Y-8106674D02*
X5011229Y-8078102D01*
X5011229Y-8078102D02*
X5001705Y-8030483D01*
X5001705Y-8030483D02*
X5001705Y-7992388D01*
X5001705Y-7992388D02*
X5011229Y-7944769D01*
X5011229Y-7944769D02*
X5020753Y-7916198D01*
X5020753Y-7916198D02*
X5030276Y-7897150D01*
X5030276Y-7897150D02*
X5049324Y-7868578D01*
X5049324Y-7868578D02*
X5058848Y-7859055D01*
X5239800Y-8087626D02*
X5125514Y-8087626D01*
X5182657Y-8087626D02*
X5182657Y-7887626D01*
X5182657Y-7887626D02*
X5163610Y-7916198D01*
X5163610Y-7916198D02*
X5144562Y-7935245D01*
X5144562Y-7935245D02*
X5125514Y-7944769D01*
X5306467Y-7887626D02*
X5430276Y-7887626D01*
X5430276Y-7887626D02*
X5363610Y-7963817D01*
X5363610Y-7963817D02*
X5392181Y-7963817D01*
X5392181Y-7963817D02*
X5411229Y-7973340D01*
X5411229Y-7973340D02*
X5420753Y-7982864D01*
X5420753Y-7982864D02*
X5430276Y-8001912D01*
X5430276Y-8001912D02*
X5430276Y-8049531D01*
X5430276Y-8049531D02*
X5420753Y-8068578D01*
X5420753Y-8068578D02*
X5411229Y-8078102D01*
X5411229Y-8078102D02*
X5392181Y-8087626D01*
X5392181Y-8087626D02*
X5335038Y-8087626D01*
X5335038Y-8087626D02*
X5315991Y-8078102D01*
X5315991Y-8078102D02*
X5306467Y-8068578D01*
X5601705Y-7954293D02*
X5601705Y-8087626D01*
X5554086Y-7878102D02*
X5506467Y-8020959D01*
X5506467Y-8020959D02*
X5630276Y-8020959D01*
X5858848Y-8087626D02*
X5858848Y-7887626D01*
X5944562Y-8087626D02*
X5944562Y-7982864D01*
X5944562Y-7982864D02*
X5935038Y-7963817D01*
X5935038Y-7963817D02*
X5915991Y-7954293D01*
X5915991Y-7954293D02*
X5887419Y-7954293D01*
X5887419Y-7954293D02*
X5868372Y-7963817D01*
X5868372Y-7963817D02*
X5858848Y-7973340D01*
X6068372Y-8087626D02*
X6049324Y-8078102D01*
X6049324Y-8078102D02*
X6039800Y-8068578D01*
X6039800Y-8068578D02*
X6030276Y-8049531D01*
X6030276Y-8049531D02*
X6030276Y-7992388D01*
X6030276Y-7992388D02*
X6039800Y-7973340D01*
X6039800Y-7973340D02*
X6049324Y-7963817D01*
X6049324Y-7963817D02*
X6068372Y-7954293D01*
X6068372Y-7954293D02*
X6096943Y-7954293D01*
X6096943Y-7954293D02*
X6115991Y-7963817D01*
X6115991Y-7963817D02*
X6125514Y-7973340D01*
X6125514Y-7973340D02*
X6135038Y-7992388D01*
X6135038Y-7992388D02*
X6135038Y-8049531D01*
X6135038Y-8049531D02*
X6125514Y-8068578D01*
X6125514Y-8068578D02*
X6115991Y-8078102D01*
X6115991Y-8078102D02*
X6096943Y-8087626D01*
X6096943Y-8087626D02*
X6068372Y-8087626D01*
X6249324Y-8087626D02*
X6230276Y-8078102D01*
X6230276Y-8078102D02*
X6220753Y-8059055D01*
X6220753Y-8059055D02*
X6220753Y-7887626D01*
X6401705Y-8078102D02*
X6382657Y-8087626D01*
X6382657Y-8087626D02*
X6344562Y-8087626D01*
X6344562Y-8087626D02*
X6325514Y-8078102D01*
X6325514Y-8078102D02*
X6315991Y-8059055D01*
X6315991Y-8059055D02*
X6315991Y-7982864D01*
X6315991Y-7982864D02*
X6325514Y-7963817D01*
X6325514Y-7963817D02*
X6344562Y-7954293D01*
X6344562Y-7954293D02*
X6382657Y-7954293D01*
X6382657Y-7954293D02*
X6401705Y-7963817D01*
X6401705Y-7963817D02*
X6411229Y-7982864D01*
X6411229Y-7982864D02*
X6411229Y-8001912D01*
X6411229Y-8001912D02*
X6315991Y-8020959D01*
X6487419Y-8078102D02*
X6506467Y-8087626D01*
X6506467Y-8087626D02*
X6544562Y-8087626D01*
X6544562Y-8087626D02*
X6563610Y-8078102D01*
X6563610Y-8078102D02*
X6573134Y-8059055D01*
X6573134Y-8059055D02*
X6573134Y-8049531D01*
X6573134Y-8049531D02*
X6563610Y-8030483D01*
X6563610Y-8030483D02*
X6544562Y-8020959D01*
X6544562Y-8020959D02*
X6515991Y-8020959D01*
X6515991Y-8020959D02*
X6496943Y-8011436D01*
X6496943Y-8011436D02*
X6487419Y-7992388D01*
X6487419Y-7992388D02*
X6487419Y-7982864D01*
X6487419Y-7982864D02*
X6496943Y-7963817D01*
X6496943Y-7963817D02*
X6515991Y-7954293D01*
X6515991Y-7954293D02*
X6544562Y-7954293D01*
X6544562Y-7954293D02*
X6563610Y-7963817D01*
X6639800Y-8163817D02*
X6649324Y-8154293D01*
X6649324Y-8154293D02*
X6668372Y-8125721D01*
X6668372Y-8125721D02*
X6677895Y-8106674D01*
X6677895Y-8106674D02*
X6687419Y-8078102D01*
X6687419Y-8078102D02*
X6696943Y-8030483D01*
X6696943Y-8030483D02*
X6696943Y-7992388D01*
X6696943Y-7992388D02*
X6687419Y-7944769D01*
X6687419Y-7944769D02*
X6677895Y-7916198D01*
X6677895Y-7916198D02*
X6668372Y-7897150D01*
X6668372Y-7897150D02*
X6649324Y-7868578D01*
X6649324Y-7868578D02*
X6639800Y-7859055D01*
D12*
X1433785Y-8210142D02*
X1433785Y-8310142D01*
X1383785Y-8260142D02*
X1483785Y-8260142D01*
D11*
X1849324Y-8351626D02*
X1735038Y-8351626D01*
X1792181Y-8351626D02*
X1792181Y-8151626D01*
X1792181Y-8151626D02*
X1773133Y-8180198D01*
X1773133Y-8180198D02*
X1754085Y-8199245D01*
X1754085Y-8199245D02*
X1735038Y-8208769D01*
X1935038Y-8332578D02*
X1944562Y-8342102D01*
X1944562Y-8342102D02*
X1935038Y-8351626D01*
X1935038Y-8351626D02*
X1925514Y-8342102D01*
X1925514Y-8342102D02*
X1935038Y-8332578D01*
X1935038Y-8332578D02*
X1935038Y-8351626D01*
X2068371Y-8151626D02*
X2087419Y-8151626D01*
X2087419Y-8151626D02*
X2106467Y-8161150D01*
X2106467Y-8161150D02*
X2115990Y-8170674D01*
X2115990Y-8170674D02*
X2125514Y-8189721D01*
X2125514Y-8189721D02*
X2135038Y-8227817D01*
X2135038Y-8227817D02*
X2135038Y-8275436D01*
X2135038Y-8275436D02*
X2125514Y-8313531D01*
X2125514Y-8313531D02*
X2115990Y-8332578D01*
X2115990Y-8332578D02*
X2106467Y-8342102D01*
X2106467Y-8342102D02*
X2087419Y-8351626D01*
X2087419Y-8351626D02*
X2068371Y-8351626D01*
X2068371Y-8351626D02*
X2049324Y-8342102D01*
X2049324Y-8342102D02*
X2039800Y-8332578D01*
X2039800Y-8332578D02*
X2030276Y-8313531D01*
X2030276Y-8313531D02*
X2020752Y-8275436D01*
X2020752Y-8275436D02*
X2020752Y-8227817D01*
X2020752Y-8227817D02*
X2030276Y-8189721D01*
X2030276Y-8189721D02*
X2039800Y-8170674D01*
X2039800Y-8170674D02*
X2049324Y-8161150D01*
X2049324Y-8161150D02*
X2068371Y-8151626D01*
X2258847Y-8151626D02*
X2277895Y-8151626D01*
X2277895Y-8151626D02*
X2296943Y-8161150D01*
X2296943Y-8161150D02*
X2306467Y-8170674D01*
X2306467Y-8170674D02*
X2315990Y-8189721D01*
X2315990Y-8189721D02*
X2325514Y-8227817D01*
X2325514Y-8227817D02*
X2325514Y-8275436D01*
X2325514Y-8275436D02*
X2315990Y-8313531D01*
X2315990Y-8313531D02*
X2306467Y-8332578D01*
X2306467Y-8332578D02*
X2296943Y-8342102D01*
X2296943Y-8342102D02*
X2277895Y-8351626D01*
X2277895Y-8351626D02*
X2258847Y-8351626D01*
X2258847Y-8351626D02*
X2239800Y-8342102D01*
X2239800Y-8342102D02*
X2230276Y-8332578D01*
X2230276Y-8332578D02*
X2220752Y-8313531D01*
X2220752Y-8313531D02*
X2211228Y-8275436D01*
X2211228Y-8275436D02*
X2211228Y-8227817D01*
X2211228Y-8227817D02*
X2220752Y-8189721D01*
X2220752Y-8189721D02*
X2230276Y-8170674D01*
X2230276Y-8170674D02*
X2239800Y-8161150D01*
X2239800Y-8161150D02*
X2258847Y-8151626D01*
X2449324Y-8151626D02*
X2468371Y-8151626D01*
X2468371Y-8151626D02*
X2487419Y-8161150D01*
X2487419Y-8161150D02*
X2496943Y-8170674D01*
X2496943Y-8170674D02*
X2506467Y-8189721D01*
X2506467Y-8189721D02*
X2515990Y-8227817D01*
X2515990Y-8227817D02*
X2515990Y-8275436D01*
X2515990Y-8275436D02*
X2506467Y-8313531D01*
X2506467Y-8313531D02*
X2496943Y-8332578D01*
X2496943Y-8332578D02*
X2487419Y-8342102D01*
X2487419Y-8342102D02*
X2468371Y-8351626D01*
X2468371Y-8351626D02*
X2449324Y-8351626D01*
X2449324Y-8351626D02*
X2430276Y-8342102D01*
X2430276Y-8342102D02*
X2420752Y-8332578D01*
X2420752Y-8332578D02*
X2411228Y-8313531D01*
X2411228Y-8313531D02*
X2401705Y-8275436D01*
X2401705Y-8275436D02*
X2401705Y-8227817D01*
X2401705Y-8227817D02*
X2411228Y-8189721D01*
X2411228Y-8189721D02*
X2420752Y-8170674D01*
X2420752Y-8170674D02*
X2430276Y-8161150D01*
X2430276Y-8161150D02*
X2449324Y-8151626D01*
X2601705Y-8351626D02*
X2601705Y-8218293D01*
X2601705Y-8237340D02*
X2611228Y-8227817D01*
X2611228Y-8227817D02*
X2630276Y-8218293D01*
X2630276Y-8218293D02*
X2658848Y-8218293D01*
X2658848Y-8218293D02*
X2677895Y-8227817D01*
X2677895Y-8227817D02*
X2687419Y-8246864D01*
X2687419Y-8246864D02*
X2687419Y-8351626D01*
X2687419Y-8246864D02*
X2696943Y-8227817D01*
X2696943Y-8227817D02*
X2715990Y-8218293D01*
X2715990Y-8218293D02*
X2744562Y-8218293D01*
X2744562Y-8218293D02*
X2763609Y-8227817D01*
X2763609Y-8227817D02*
X2773133Y-8246864D01*
X2773133Y-8246864D02*
X2773133Y-8351626D01*
X2868371Y-8351626D02*
X2868371Y-8218293D01*
X2868371Y-8237340D02*
X2877895Y-8227817D01*
X2877895Y-8227817D02*
X2896943Y-8218293D01*
X2896943Y-8218293D02*
X2925514Y-8218293D01*
X2925514Y-8218293D02*
X2944562Y-8227817D01*
X2944562Y-8227817D02*
X2954086Y-8246864D01*
X2954086Y-8246864D02*
X2954086Y-8351626D01*
X2954086Y-8246864D02*
X2963609Y-8227817D01*
X2963609Y-8227817D02*
X2982657Y-8218293D01*
X2982657Y-8218293D02*
X3011228Y-8218293D01*
X3011228Y-8218293D02*
X3030276Y-8227817D01*
X3030276Y-8227817D02*
X3039800Y-8246864D01*
X3039800Y-8246864D02*
X3039800Y-8351626D01*
X3430276Y-8142102D02*
X3258848Y-8399245D01*
X3687419Y-8151626D02*
X3706467Y-8151626D01*
X3706467Y-8151626D02*
X3725514Y-8161150D01*
X3725514Y-8161150D02*
X3735038Y-8170674D01*
X3735038Y-8170674D02*
X3744562Y-8189721D01*
X3744562Y-8189721D02*
X3754086Y-8227817D01*
X3754086Y-8227817D02*
X3754086Y-8275436D01*
X3754086Y-8275436D02*
X3744562Y-8313531D01*
X3744562Y-8313531D02*
X3735038Y-8332578D01*
X3735038Y-8332578D02*
X3725514Y-8342102D01*
X3725514Y-8342102D02*
X3706467Y-8351626D01*
X3706467Y-8351626D02*
X3687419Y-8351626D01*
X3687419Y-8351626D02*
X3668371Y-8342102D01*
X3668371Y-8342102D02*
X3658848Y-8332578D01*
X3658848Y-8332578D02*
X3649324Y-8313531D01*
X3649324Y-8313531D02*
X3639800Y-8275436D01*
X3639800Y-8275436D02*
X3639800Y-8227817D01*
X3639800Y-8227817D02*
X3649324Y-8189721D01*
X3649324Y-8189721D02*
X3658848Y-8170674D01*
X3658848Y-8170674D02*
X3668371Y-8161150D01*
X3668371Y-8161150D02*
X3687419Y-8151626D01*
X3839800Y-8332578D02*
X3849324Y-8342102D01*
X3849324Y-8342102D02*
X3839800Y-8351626D01*
X3839800Y-8351626D02*
X3830276Y-8342102D01*
X3830276Y-8342102D02*
X3839800Y-8332578D01*
X3839800Y-8332578D02*
X3839800Y-8351626D01*
X3973133Y-8151626D02*
X3992181Y-8151626D01*
X3992181Y-8151626D02*
X4011229Y-8161150D01*
X4011229Y-8161150D02*
X4020752Y-8170674D01*
X4020752Y-8170674D02*
X4030276Y-8189721D01*
X4030276Y-8189721D02*
X4039800Y-8227817D01*
X4039800Y-8227817D02*
X4039800Y-8275436D01*
X4039800Y-8275436D02*
X4030276Y-8313531D01*
X4030276Y-8313531D02*
X4020752Y-8332578D01*
X4020752Y-8332578D02*
X4011229Y-8342102D01*
X4011229Y-8342102D02*
X3992181Y-8351626D01*
X3992181Y-8351626D02*
X3973133Y-8351626D01*
X3973133Y-8351626D02*
X3954086Y-8342102D01*
X3954086Y-8342102D02*
X3944562Y-8332578D01*
X3944562Y-8332578D02*
X3935038Y-8313531D01*
X3935038Y-8313531D02*
X3925514Y-8275436D01*
X3925514Y-8275436D02*
X3925514Y-8227817D01*
X3925514Y-8227817D02*
X3935038Y-8189721D01*
X3935038Y-8189721D02*
X3944562Y-8170674D01*
X3944562Y-8170674D02*
X3954086Y-8161150D01*
X3954086Y-8161150D02*
X3973133Y-8151626D01*
X4106467Y-8151626D02*
X4230276Y-8151626D01*
X4230276Y-8151626D02*
X4163609Y-8227817D01*
X4163609Y-8227817D02*
X4192181Y-8227817D01*
X4192181Y-8227817D02*
X4211229Y-8237340D01*
X4211229Y-8237340D02*
X4220752Y-8246864D01*
X4220752Y-8246864D02*
X4230276Y-8265912D01*
X4230276Y-8265912D02*
X4230276Y-8313531D01*
X4230276Y-8313531D02*
X4220752Y-8332578D01*
X4220752Y-8332578D02*
X4211229Y-8342102D01*
X4211229Y-8342102D02*
X4192181Y-8351626D01*
X4192181Y-8351626D02*
X4135038Y-8351626D01*
X4135038Y-8351626D02*
X4115990Y-8342102D01*
X4115990Y-8342102D02*
X4106467Y-8332578D01*
X4325514Y-8351626D02*
X4363610Y-8351626D01*
X4363610Y-8351626D02*
X4382657Y-8342102D01*
X4382657Y-8342102D02*
X4392181Y-8332578D01*
X4392181Y-8332578D02*
X4411229Y-8304007D01*
X4411229Y-8304007D02*
X4420752Y-8265912D01*
X4420752Y-8265912D02*
X4420752Y-8189721D01*
X4420752Y-8189721D02*
X4411229Y-8170674D01*
X4411229Y-8170674D02*
X4401705Y-8161150D01*
X4401705Y-8161150D02*
X4382657Y-8151626D01*
X4382657Y-8151626D02*
X4344562Y-8151626D01*
X4344562Y-8151626D02*
X4325514Y-8161150D01*
X4325514Y-8161150D02*
X4315991Y-8170674D01*
X4315991Y-8170674D02*
X4306467Y-8189721D01*
X4306467Y-8189721D02*
X4306467Y-8237340D01*
X4306467Y-8237340D02*
X4315991Y-8256388D01*
X4315991Y-8256388D02*
X4325514Y-8265912D01*
X4325514Y-8265912D02*
X4344562Y-8275436D01*
X4344562Y-8275436D02*
X4382657Y-8275436D01*
X4382657Y-8275436D02*
X4401705Y-8265912D01*
X4401705Y-8265912D02*
X4411229Y-8256388D01*
X4411229Y-8256388D02*
X4420752Y-8237340D01*
X4592181Y-8218293D02*
X4592181Y-8351626D01*
X4544562Y-8142102D02*
X4496943Y-8284959D01*
X4496943Y-8284959D02*
X4620752Y-8284959D01*
X4687419Y-8151626D02*
X4687419Y-8189721D01*
X4763610Y-8151626D02*
X4763610Y-8189721D01*
X5058848Y-8427817D02*
X5049324Y-8418293D01*
X5049324Y-8418293D02*
X5030276Y-8389721D01*
X5030276Y-8389721D02*
X5020753Y-8370674D01*
X5020753Y-8370674D02*
X5011229Y-8342102D01*
X5011229Y-8342102D02*
X5001705Y-8294483D01*
X5001705Y-8294483D02*
X5001705Y-8256388D01*
X5001705Y-8256388D02*
X5011229Y-8208769D01*
X5011229Y-8208769D02*
X5020753Y-8180198D01*
X5020753Y-8180198D02*
X5030276Y-8161150D01*
X5030276Y-8161150D02*
X5049324Y-8132578D01*
X5049324Y-8132578D02*
X5058848Y-8123055D01*
X5115991Y-8151626D02*
X5239800Y-8151626D01*
X5239800Y-8151626D02*
X5173133Y-8227817D01*
X5173133Y-8227817D02*
X5201705Y-8227817D01*
X5201705Y-8227817D02*
X5220753Y-8237340D01*
X5220753Y-8237340D02*
X5230276Y-8246864D01*
X5230276Y-8246864D02*
X5239800Y-8265912D01*
X5239800Y-8265912D02*
X5239800Y-8313531D01*
X5239800Y-8313531D02*
X5230276Y-8332578D01*
X5230276Y-8332578D02*
X5220753Y-8342102D01*
X5220753Y-8342102D02*
X5201705Y-8351626D01*
X5201705Y-8351626D02*
X5144562Y-8351626D01*
X5144562Y-8351626D02*
X5125514Y-8342102D01*
X5125514Y-8342102D02*
X5115991Y-8332578D01*
X5306467Y-8151626D02*
X5430276Y-8151626D01*
X5430276Y-8151626D02*
X5363610Y-8227817D01*
X5363610Y-8227817D02*
X5392181Y-8227817D01*
X5392181Y-8227817D02*
X5411229Y-8237340D01*
X5411229Y-8237340D02*
X5420753Y-8246864D01*
X5420753Y-8246864D02*
X5430276Y-8265912D01*
X5430276Y-8265912D02*
X5430276Y-8313531D01*
X5430276Y-8313531D02*
X5420753Y-8332578D01*
X5420753Y-8332578D02*
X5411229Y-8342102D01*
X5411229Y-8342102D02*
X5392181Y-8351626D01*
X5392181Y-8351626D02*
X5335038Y-8351626D01*
X5335038Y-8351626D02*
X5315991Y-8342102D01*
X5315991Y-8342102D02*
X5306467Y-8332578D01*
X5668372Y-8351626D02*
X5668372Y-8151626D01*
X5754086Y-8351626D02*
X5754086Y-8246864D01*
X5754086Y-8246864D02*
X5744562Y-8227817D01*
X5744562Y-8227817D02*
X5725514Y-8218293D01*
X5725514Y-8218293D02*
X5696943Y-8218293D01*
X5696943Y-8218293D02*
X5677895Y-8227817D01*
X5677895Y-8227817D02*
X5668372Y-8237340D01*
X5877895Y-8351626D02*
X5858848Y-8342102D01*
X5858848Y-8342102D02*
X5849324Y-8332578D01*
X5849324Y-8332578D02*
X5839800Y-8313531D01*
X5839800Y-8313531D02*
X5839800Y-8256388D01*
X5839800Y-8256388D02*
X5849324Y-8237340D01*
X5849324Y-8237340D02*
X5858848Y-8227817D01*
X5858848Y-8227817D02*
X5877895Y-8218293D01*
X5877895Y-8218293D02*
X5906467Y-8218293D01*
X5906467Y-8218293D02*
X5925514Y-8227817D01*
X5925514Y-8227817D02*
X5935038Y-8237340D01*
X5935038Y-8237340D02*
X5944562Y-8256388D01*
X5944562Y-8256388D02*
X5944562Y-8313531D01*
X5944562Y-8313531D02*
X5935038Y-8332578D01*
X5935038Y-8332578D02*
X5925514Y-8342102D01*
X5925514Y-8342102D02*
X5906467Y-8351626D01*
X5906467Y-8351626D02*
X5877895Y-8351626D01*
X6058848Y-8351626D02*
X6039800Y-8342102D01*
X6039800Y-8342102D02*
X6030276Y-8323055D01*
X6030276Y-8323055D02*
X6030276Y-8151626D01*
X6211229Y-8342102D02*
X6192181Y-8351626D01*
X6192181Y-8351626D02*
X6154086Y-8351626D01*
X6154086Y-8351626D02*
X6135038Y-8342102D01*
X6135038Y-8342102D02*
X6125514Y-8323055D01*
X6125514Y-8323055D02*
X6125514Y-8246864D01*
X6125514Y-8246864D02*
X6135038Y-8227817D01*
X6135038Y-8227817D02*
X6154086Y-8218293D01*
X6154086Y-8218293D02*
X6192181Y-8218293D01*
X6192181Y-8218293D02*
X6211229Y-8227817D01*
X6211229Y-8227817D02*
X6220753Y-8246864D01*
X6220753Y-8246864D02*
X6220753Y-8265912D01*
X6220753Y-8265912D02*
X6125514Y-8284959D01*
X6296943Y-8342102D02*
X6315991Y-8351626D01*
X6315991Y-8351626D02*
X6354086Y-8351626D01*
X6354086Y-8351626D02*
X6373134Y-8342102D01*
X6373134Y-8342102D02*
X6382657Y-8323055D01*
X6382657Y-8323055D02*
X6382657Y-8313531D01*
X6382657Y-8313531D02*
X6373134Y-8294483D01*
X6373134Y-8294483D02*
X6354086Y-8284959D01*
X6354086Y-8284959D02*
X6325514Y-8284959D01*
X6325514Y-8284959D02*
X6306467Y-8275436D01*
X6306467Y-8275436D02*
X6296943Y-8256388D01*
X6296943Y-8256388D02*
X6296943Y-8246864D01*
X6296943Y-8246864D02*
X6306467Y-8227817D01*
X6306467Y-8227817D02*
X6325514Y-8218293D01*
X6325514Y-8218293D02*
X6354086Y-8218293D01*
X6354086Y-8218293D02*
X6373134Y-8227817D01*
X6449324Y-8427817D02*
X6458848Y-8418293D01*
X6458848Y-8418293D02*
X6477895Y-8389721D01*
X6477895Y-8389721D02*
X6487419Y-8370674D01*
X6487419Y-8370674D02*
X6496943Y-8342102D01*
X6496943Y-8342102D02*
X6506467Y-8294483D01*
X6506467Y-8294483D02*
X6506467Y-8256388D01*
X6506467Y-8256388D02*
X6496943Y-8208769D01*
X6496943Y-8208769D02*
X6487419Y-8180198D01*
X6487419Y-8180198D02*
X6477895Y-8161150D01*
X6477895Y-8161150D02*
X6458848Y-8132578D01*
X6458848Y-8132578D02*
X6449324Y-8123055D01*
M02*
