%TF.GenerationSoftware,KiCad,Pcbnew,9.0.5*%
%TF.CreationDate,2026-01-12T09:34:54+01:00*%
%TF.ProjectId,PCB Main,50434220-4d61-4696-9e2e-6b696361645f,rev?*%
%TF.SameCoordinates,Original*%
%TF.FileFunction,Drillmap*%
%TF.FilePolarity,Positive*%
%FSLAX45Y45*%
G04 Gerber Fmt 4.5, Leading zero omitted, Abs format (unit mm)*
G04 Created by KiCad (PCBNEW 9.0.5) date 2026-01-12 09:34:54*
%MOMM*%
%LPD*%
G01*
G04 APERTURE LIST*
%ADD10C,0.050000*%
%ADD11C,0.200000*%
%ADD12C,0.220000*%
G04 APERTURE END LIST*
D10*
X6448950Y-2559709D02*
X6448950Y-2986954D01*
X6625624Y-3163600D01*
X10063350Y-3163600D01*
X10063350Y-8332500D01*
X3649878Y-8332500D01*
X3648953Y-2554444D01*
X3798772Y-2404600D01*
X6293841Y-2404600D01*
X6448950Y-2559709D01*
D11*
D12*
X3796650Y-3409200D02*
X4016650Y-3629200D01*
X4016650Y-3409200D02*
X3796650Y-3629200D01*
X3796650Y-7909200D02*
X4016650Y-8129200D01*
X4016650Y-7909200D02*
X3796650Y-8129200D01*
X9696650Y-3409200D02*
X9916650Y-3629200D01*
X9916650Y-3409200D02*
X9696650Y-3629200D01*
X9696650Y-7909200D02*
X9916650Y-8129200D01*
X9916650Y-7909200D02*
X9696650Y-8129200D01*
D11*
X3907230Y-8646484D02*
X3907230Y-8446484D01*
X3907230Y-8446484D02*
X3954849Y-8446484D01*
X3954849Y-8446484D02*
X3983420Y-8456008D01*
X3983420Y-8456008D02*
X4002468Y-8475055D01*
X4002468Y-8475055D02*
X4011992Y-8494103D01*
X4011992Y-8494103D02*
X4021515Y-8532198D01*
X4021515Y-8532198D02*
X4021515Y-8560770D01*
X4021515Y-8560770D02*
X4011992Y-8598865D01*
X4011992Y-8598865D02*
X4002468Y-8617912D01*
X4002468Y-8617912D02*
X3983420Y-8636960D01*
X3983420Y-8636960D02*
X3954849Y-8646484D01*
X3954849Y-8646484D02*
X3907230Y-8646484D01*
X4107230Y-8646484D02*
X4107230Y-8513150D01*
X4107230Y-8551246D02*
X4116753Y-8532198D01*
X4116753Y-8532198D02*
X4126277Y-8522674D01*
X4126277Y-8522674D02*
X4145325Y-8513150D01*
X4145325Y-8513150D02*
X4164373Y-8513150D01*
X4231039Y-8646484D02*
X4231039Y-8513150D01*
X4231039Y-8446484D02*
X4221515Y-8456008D01*
X4221515Y-8456008D02*
X4231039Y-8465531D01*
X4231039Y-8465531D02*
X4240563Y-8456008D01*
X4240563Y-8456008D02*
X4231039Y-8446484D01*
X4231039Y-8446484D02*
X4231039Y-8465531D01*
X4354849Y-8646484D02*
X4335801Y-8636960D01*
X4335801Y-8636960D02*
X4326277Y-8617912D01*
X4326277Y-8617912D02*
X4326277Y-8446484D01*
X4459611Y-8646484D02*
X4440563Y-8636960D01*
X4440563Y-8636960D02*
X4431039Y-8617912D01*
X4431039Y-8617912D02*
X4431039Y-8446484D01*
X4688182Y-8646484D02*
X4688182Y-8446484D01*
X4688182Y-8446484D02*
X4754849Y-8589341D01*
X4754849Y-8589341D02*
X4821515Y-8446484D01*
X4821515Y-8446484D02*
X4821515Y-8646484D01*
X5002468Y-8646484D02*
X5002468Y-8541722D01*
X5002468Y-8541722D02*
X4992944Y-8522674D01*
X4992944Y-8522674D02*
X4973896Y-8513150D01*
X4973896Y-8513150D02*
X4935801Y-8513150D01*
X4935801Y-8513150D02*
X4916754Y-8522674D01*
X5002468Y-8636960D02*
X4983420Y-8646484D01*
X4983420Y-8646484D02*
X4935801Y-8646484D01*
X4935801Y-8646484D02*
X4916754Y-8636960D01*
X4916754Y-8636960D02*
X4907230Y-8617912D01*
X4907230Y-8617912D02*
X4907230Y-8598865D01*
X4907230Y-8598865D02*
X4916754Y-8579817D01*
X4916754Y-8579817D02*
X4935801Y-8570293D01*
X4935801Y-8570293D02*
X4983420Y-8570293D01*
X4983420Y-8570293D02*
X5002468Y-8560770D01*
X5097706Y-8513150D02*
X5097706Y-8713150D01*
X5097706Y-8522674D02*
X5116754Y-8513150D01*
X5116754Y-8513150D02*
X5154849Y-8513150D01*
X5154849Y-8513150D02*
X5173896Y-8522674D01*
X5173896Y-8522674D02*
X5183420Y-8532198D01*
X5183420Y-8532198D02*
X5192944Y-8551246D01*
X5192944Y-8551246D02*
X5192944Y-8608389D01*
X5192944Y-8608389D02*
X5183420Y-8627436D01*
X5183420Y-8627436D02*
X5173896Y-8636960D01*
X5173896Y-8636960D02*
X5154849Y-8646484D01*
X5154849Y-8646484D02*
X5116754Y-8646484D01*
X5116754Y-8646484D02*
X5097706Y-8636960D01*
X5278658Y-8627436D02*
X5288182Y-8636960D01*
X5288182Y-8636960D02*
X5278658Y-8646484D01*
X5278658Y-8646484D02*
X5269135Y-8636960D01*
X5269135Y-8636960D02*
X5278658Y-8627436D01*
X5278658Y-8627436D02*
X5278658Y-8646484D01*
X5278658Y-8522674D02*
X5288182Y-8532198D01*
X5288182Y-8532198D02*
X5278658Y-8541722D01*
X5278658Y-8541722D02*
X5269135Y-8532198D01*
X5269135Y-8532198D02*
X5278658Y-8522674D01*
X5278658Y-8522674D02*
X5278658Y-8541722D01*
X3446453Y-8875000D02*
X3646453Y-9075000D01*
X3646453Y-8875000D02*
X3446453Y-9075000D01*
X3897706Y-8885531D02*
X3907230Y-8876008D01*
X3907230Y-8876008D02*
X3926277Y-8866484D01*
X3926277Y-8866484D02*
X3973896Y-8866484D01*
X3973896Y-8866484D02*
X3992944Y-8876008D01*
X3992944Y-8876008D02*
X4002468Y-8885531D01*
X4002468Y-8885531D02*
X4011992Y-8904579D01*
X4011992Y-8904579D02*
X4011992Y-8923627D01*
X4011992Y-8923627D02*
X4002468Y-8952198D01*
X4002468Y-8952198D02*
X3888182Y-9066484D01*
X3888182Y-9066484D02*
X4011992Y-9066484D01*
X4097706Y-9047436D02*
X4107230Y-9056960D01*
X4107230Y-9056960D02*
X4097706Y-9066484D01*
X4097706Y-9066484D02*
X4088182Y-9056960D01*
X4088182Y-9056960D02*
X4097706Y-9047436D01*
X4097706Y-9047436D02*
X4097706Y-9066484D01*
X4183420Y-8885531D02*
X4192944Y-8876008D01*
X4192944Y-8876008D02*
X4211992Y-8866484D01*
X4211992Y-8866484D02*
X4259611Y-8866484D01*
X4259611Y-8866484D02*
X4278658Y-8876008D01*
X4278658Y-8876008D02*
X4288182Y-8885531D01*
X4288182Y-8885531D02*
X4297706Y-8904579D01*
X4297706Y-8904579D02*
X4297706Y-8923627D01*
X4297706Y-8923627D02*
X4288182Y-8952198D01*
X4288182Y-8952198D02*
X4173896Y-9066484D01*
X4173896Y-9066484D02*
X4297706Y-9066484D01*
X4421515Y-8866484D02*
X4440563Y-8866484D01*
X4440563Y-8866484D02*
X4459611Y-8876008D01*
X4459611Y-8876008D02*
X4469135Y-8885531D01*
X4469135Y-8885531D02*
X4478658Y-8904579D01*
X4478658Y-8904579D02*
X4488182Y-8942674D01*
X4488182Y-8942674D02*
X4488182Y-8990293D01*
X4488182Y-8990293D02*
X4478658Y-9028389D01*
X4478658Y-9028389D02*
X4469135Y-9047436D01*
X4469135Y-9047436D02*
X4459611Y-9056960D01*
X4459611Y-9056960D02*
X4440563Y-9066484D01*
X4440563Y-9066484D02*
X4421515Y-9066484D01*
X4421515Y-9066484D02*
X4402468Y-9056960D01*
X4402468Y-9056960D02*
X4392944Y-9047436D01*
X4392944Y-9047436D02*
X4383420Y-9028389D01*
X4383420Y-9028389D02*
X4373896Y-8990293D01*
X4373896Y-8990293D02*
X4373896Y-8942674D01*
X4373896Y-8942674D02*
X4383420Y-8904579D01*
X4383420Y-8904579D02*
X4392944Y-8885531D01*
X4392944Y-8885531D02*
X4402468Y-8876008D01*
X4402468Y-8876008D02*
X4421515Y-8866484D01*
X4611992Y-8866484D02*
X4631039Y-8866484D01*
X4631039Y-8866484D02*
X4650087Y-8876008D01*
X4650087Y-8876008D02*
X4659611Y-8885531D01*
X4659611Y-8885531D02*
X4669135Y-8904579D01*
X4669135Y-8904579D02*
X4678658Y-8942674D01*
X4678658Y-8942674D02*
X4678658Y-8990293D01*
X4678658Y-8990293D02*
X4669135Y-9028389D01*
X4669135Y-9028389D02*
X4659611Y-9047436D01*
X4659611Y-9047436D02*
X4650087Y-9056960D01*
X4650087Y-9056960D02*
X4631039Y-9066484D01*
X4631039Y-9066484D02*
X4611992Y-9066484D01*
X4611992Y-9066484D02*
X4592944Y-9056960D01*
X4592944Y-9056960D02*
X4583420Y-9047436D01*
X4583420Y-9047436D02*
X4573896Y-9028389D01*
X4573896Y-9028389D02*
X4564373Y-8990293D01*
X4564373Y-8990293D02*
X4564373Y-8942674D01*
X4564373Y-8942674D02*
X4573896Y-8904579D01*
X4573896Y-8904579D02*
X4583420Y-8885531D01*
X4583420Y-8885531D02*
X4592944Y-8876008D01*
X4592944Y-8876008D02*
X4611992Y-8866484D01*
X4764373Y-9066484D02*
X4764373Y-8933150D01*
X4764373Y-8952198D02*
X4773896Y-8942674D01*
X4773896Y-8942674D02*
X4792944Y-8933150D01*
X4792944Y-8933150D02*
X4821516Y-8933150D01*
X4821516Y-8933150D02*
X4840563Y-8942674D01*
X4840563Y-8942674D02*
X4850087Y-8961722D01*
X4850087Y-8961722D02*
X4850087Y-9066484D01*
X4850087Y-8961722D02*
X4859611Y-8942674D01*
X4859611Y-8942674D02*
X4878658Y-8933150D01*
X4878658Y-8933150D02*
X4907230Y-8933150D01*
X4907230Y-8933150D02*
X4926277Y-8942674D01*
X4926277Y-8942674D02*
X4935801Y-8961722D01*
X4935801Y-8961722D02*
X4935801Y-9066484D01*
X5031039Y-9066484D02*
X5031039Y-8933150D01*
X5031039Y-8952198D02*
X5040563Y-8942674D01*
X5040563Y-8942674D02*
X5059611Y-8933150D01*
X5059611Y-8933150D02*
X5088182Y-8933150D01*
X5088182Y-8933150D02*
X5107230Y-8942674D01*
X5107230Y-8942674D02*
X5116754Y-8961722D01*
X5116754Y-8961722D02*
X5116754Y-9066484D01*
X5116754Y-8961722D02*
X5126277Y-8942674D01*
X5126277Y-8942674D02*
X5145325Y-8933150D01*
X5145325Y-8933150D02*
X5173896Y-8933150D01*
X5173896Y-8933150D02*
X5192944Y-8942674D01*
X5192944Y-8942674D02*
X5202468Y-8961722D01*
X5202468Y-8961722D02*
X5202468Y-9066484D01*
X5592944Y-8856960D02*
X5421516Y-9114103D01*
X5850087Y-8866484D02*
X5869135Y-8866484D01*
X5869135Y-8866484D02*
X5888182Y-8876008D01*
X5888182Y-8876008D02*
X5897706Y-8885531D01*
X5897706Y-8885531D02*
X5907230Y-8904579D01*
X5907230Y-8904579D02*
X5916754Y-8942674D01*
X5916754Y-8942674D02*
X5916754Y-8990293D01*
X5916754Y-8990293D02*
X5907230Y-9028389D01*
X5907230Y-9028389D02*
X5897706Y-9047436D01*
X5897706Y-9047436D02*
X5888182Y-9056960D01*
X5888182Y-9056960D02*
X5869135Y-9066484D01*
X5869135Y-9066484D02*
X5850087Y-9066484D01*
X5850087Y-9066484D02*
X5831039Y-9056960D01*
X5831039Y-9056960D02*
X5821516Y-9047436D01*
X5821516Y-9047436D02*
X5811992Y-9028389D01*
X5811992Y-9028389D02*
X5802468Y-8990293D01*
X5802468Y-8990293D02*
X5802468Y-8942674D01*
X5802468Y-8942674D02*
X5811992Y-8904579D01*
X5811992Y-8904579D02*
X5821516Y-8885531D01*
X5821516Y-8885531D02*
X5831039Y-8876008D01*
X5831039Y-8876008D02*
X5850087Y-8866484D01*
X6002468Y-9047436D02*
X6011992Y-9056960D01*
X6011992Y-9056960D02*
X6002468Y-9066484D01*
X6002468Y-9066484D02*
X5992944Y-9056960D01*
X5992944Y-9056960D02*
X6002468Y-9047436D01*
X6002468Y-9047436D02*
X6002468Y-9066484D01*
X6135801Y-8866484D02*
X6154849Y-8866484D01*
X6154849Y-8866484D02*
X6173897Y-8876008D01*
X6173897Y-8876008D02*
X6183420Y-8885531D01*
X6183420Y-8885531D02*
X6192944Y-8904579D01*
X6192944Y-8904579D02*
X6202468Y-8942674D01*
X6202468Y-8942674D02*
X6202468Y-8990293D01*
X6202468Y-8990293D02*
X6192944Y-9028389D01*
X6192944Y-9028389D02*
X6183420Y-9047436D01*
X6183420Y-9047436D02*
X6173897Y-9056960D01*
X6173897Y-9056960D02*
X6154849Y-9066484D01*
X6154849Y-9066484D02*
X6135801Y-9066484D01*
X6135801Y-9066484D02*
X6116754Y-9056960D01*
X6116754Y-9056960D02*
X6107230Y-9047436D01*
X6107230Y-9047436D02*
X6097706Y-9028389D01*
X6097706Y-9028389D02*
X6088182Y-8990293D01*
X6088182Y-8990293D02*
X6088182Y-8942674D01*
X6088182Y-8942674D02*
X6097706Y-8904579D01*
X6097706Y-8904579D02*
X6107230Y-8885531D01*
X6107230Y-8885531D02*
X6116754Y-8876008D01*
X6116754Y-8876008D02*
X6135801Y-8866484D01*
X6316754Y-8952198D02*
X6297706Y-8942674D01*
X6297706Y-8942674D02*
X6288182Y-8933150D01*
X6288182Y-8933150D02*
X6278658Y-8914103D01*
X6278658Y-8914103D02*
X6278658Y-8904579D01*
X6278658Y-8904579D02*
X6288182Y-8885531D01*
X6288182Y-8885531D02*
X6297706Y-8876008D01*
X6297706Y-8876008D02*
X6316754Y-8866484D01*
X6316754Y-8866484D02*
X6354849Y-8866484D01*
X6354849Y-8866484D02*
X6373897Y-8876008D01*
X6373897Y-8876008D02*
X6383420Y-8885531D01*
X6383420Y-8885531D02*
X6392944Y-8904579D01*
X6392944Y-8904579D02*
X6392944Y-8914103D01*
X6392944Y-8914103D02*
X6383420Y-8933150D01*
X6383420Y-8933150D02*
X6373897Y-8942674D01*
X6373897Y-8942674D02*
X6354849Y-8952198D01*
X6354849Y-8952198D02*
X6316754Y-8952198D01*
X6316754Y-8952198D02*
X6297706Y-8961722D01*
X6297706Y-8961722D02*
X6288182Y-8971246D01*
X6288182Y-8971246D02*
X6278658Y-8990293D01*
X6278658Y-8990293D02*
X6278658Y-9028389D01*
X6278658Y-9028389D02*
X6288182Y-9047436D01*
X6288182Y-9047436D02*
X6297706Y-9056960D01*
X6297706Y-9056960D02*
X6316754Y-9066484D01*
X6316754Y-9066484D02*
X6354849Y-9066484D01*
X6354849Y-9066484D02*
X6373897Y-9056960D01*
X6373897Y-9056960D02*
X6383420Y-9047436D01*
X6383420Y-9047436D02*
X6392944Y-9028389D01*
X6392944Y-9028389D02*
X6392944Y-8990293D01*
X6392944Y-8990293D02*
X6383420Y-8971246D01*
X6383420Y-8971246D02*
X6373897Y-8961722D01*
X6373897Y-8961722D02*
X6354849Y-8952198D01*
X6564373Y-8866484D02*
X6526277Y-8866484D01*
X6526277Y-8866484D02*
X6507230Y-8876008D01*
X6507230Y-8876008D02*
X6497706Y-8885531D01*
X6497706Y-8885531D02*
X6478658Y-8914103D01*
X6478658Y-8914103D02*
X6469135Y-8952198D01*
X6469135Y-8952198D02*
X6469135Y-9028389D01*
X6469135Y-9028389D02*
X6478658Y-9047436D01*
X6478658Y-9047436D02*
X6488182Y-9056960D01*
X6488182Y-9056960D02*
X6507230Y-9066484D01*
X6507230Y-9066484D02*
X6545325Y-9066484D01*
X6545325Y-9066484D02*
X6564373Y-9056960D01*
X6564373Y-9056960D02*
X6573897Y-9047436D01*
X6573897Y-9047436D02*
X6583420Y-9028389D01*
X6583420Y-9028389D02*
X6583420Y-8980770D01*
X6583420Y-8980770D02*
X6573897Y-8961722D01*
X6573897Y-8961722D02*
X6564373Y-8952198D01*
X6564373Y-8952198D02*
X6545325Y-8942674D01*
X6545325Y-8942674D02*
X6507230Y-8942674D01*
X6507230Y-8942674D02*
X6488182Y-8952198D01*
X6488182Y-8952198D02*
X6478658Y-8961722D01*
X6478658Y-8961722D02*
X6469135Y-8980770D01*
X6754849Y-8866484D02*
X6716754Y-8866484D01*
X6716754Y-8866484D02*
X6697706Y-8876008D01*
X6697706Y-8876008D02*
X6688182Y-8885531D01*
X6688182Y-8885531D02*
X6669135Y-8914103D01*
X6669135Y-8914103D02*
X6659611Y-8952198D01*
X6659611Y-8952198D02*
X6659611Y-9028389D01*
X6659611Y-9028389D02*
X6669135Y-9047436D01*
X6669135Y-9047436D02*
X6678658Y-9056960D01*
X6678658Y-9056960D02*
X6697706Y-9066484D01*
X6697706Y-9066484D02*
X6735801Y-9066484D01*
X6735801Y-9066484D02*
X6754849Y-9056960D01*
X6754849Y-9056960D02*
X6764373Y-9047436D01*
X6764373Y-9047436D02*
X6773897Y-9028389D01*
X6773897Y-9028389D02*
X6773897Y-8980770D01*
X6773897Y-8980770D02*
X6764373Y-8961722D01*
X6764373Y-8961722D02*
X6754849Y-8952198D01*
X6754849Y-8952198D02*
X6735801Y-8942674D01*
X6735801Y-8942674D02*
X6697706Y-8942674D01*
X6697706Y-8942674D02*
X6678658Y-8952198D01*
X6678658Y-8952198D02*
X6669135Y-8961722D01*
X6669135Y-8961722D02*
X6659611Y-8980770D01*
X6850087Y-8866484D02*
X6850087Y-8904579D01*
X6926278Y-8866484D02*
X6926278Y-8904579D01*
X7221516Y-9142674D02*
X7211992Y-9133150D01*
X7211992Y-9133150D02*
X7192944Y-9104579D01*
X7192944Y-9104579D02*
X7183420Y-9085531D01*
X7183420Y-9085531D02*
X7173897Y-9056960D01*
X7173897Y-9056960D02*
X7164373Y-9009341D01*
X7164373Y-9009341D02*
X7164373Y-8971246D01*
X7164373Y-8971246D02*
X7173897Y-8923627D01*
X7173897Y-8923627D02*
X7183420Y-8895055D01*
X7183420Y-8895055D02*
X7192944Y-8876008D01*
X7192944Y-8876008D02*
X7211992Y-8847436D01*
X7211992Y-8847436D02*
X7221516Y-8837912D01*
X7383420Y-8933150D02*
X7383420Y-9066484D01*
X7335801Y-8856960D02*
X7288182Y-8999817D01*
X7288182Y-8999817D02*
X7411992Y-8999817D01*
X7640563Y-9066484D02*
X7640563Y-8866484D01*
X7726278Y-9066484D02*
X7726278Y-8961722D01*
X7726278Y-8961722D02*
X7716754Y-8942674D01*
X7716754Y-8942674D02*
X7697706Y-8933150D01*
X7697706Y-8933150D02*
X7669135Y-8933150D01*
X7669135Y-8933150D02*
X7650087Y-8942674D01*
X7650087Y-8942674D02*
X7640563Y-8952198D01*
X7850087Y-9066484D02*
X7831040Y-9056960D01*
X7831040Y-9056960D02*
X7821516Y-9047436D01*
X7821516Y-9047436D02*
X7811992Y-9028389D01*
X7811992Y-9028389D02*
X7811992Y-8971246D01*
X7811992Y-8971246D02*
X7821516Y-8952198D01*
X7821516Y-8952198D02*
X7831040Y-8942674D01*
X7831040Y-8942674D02*
X7850087Y-8933150D01*
X7850087Y-8933150D02*
X7878659Y-8933150D01*
X7878659Y-8933150D02*
X7897706Y-8942674D01*
X7897706Y-8942674D02*
X7907230Y-8952198D01*
X7907230Y-8952198D02*
X7916754Y-8971246D01*
X7916754Y-8971246D02*
X7916754Y-9028389D01*
X7916754Y-9028389D02*
X7907230Y-9047436D01*
X7907230Y-9047436D02*
X7897706Y-9056960D01*
X7897706Y-9056960D02*
X7878659Y-9066484D01*
X7878659Y-9066484D02*
X7850087Y-9066484D01*
X8031040Y-9066484D02*
X8011992Y-9056960D01*
X8011992Y-9056960D02*
X8002468Y-9037912D01*
X8002468Y-9037912D02*
X8002468Y-8866484D01*
X8183421Y-9056960D02*
X8164373Y-9066484D01*
X8164373Y-9066484D02*
X8126278Y-9066484D01*
X8126278Y-9066484D02*
X8107230Y-9056960D01*
X8107230Y-9056960D02*
X8097706Y-9037912D01*
X8097706Y-9037912D02*
X8097706Y-8961722D01*
X8097706Y-8961722D02*
X8107230Y-8942674D01*
X8107230Y-8942674D02*
X8126278Y-8933150D01*
X8126278Y-8933150D02*
X8164373Y-8933150D01*
X8164373Y-8933150D02*
X8183421Y-8942674D01*
X8183421Y-8942674D02*
X8192944Y-8961722D01*
X8192944Y-8961722D02*
X8192944Y-8980770D01*
X8192944Y-8980770D02*
X8097706Y-8999817D01*
X8269135Y-9056960D02*
X8288182Y-9066484D01*
X8288182Y-9066484D02*
X8326278Y-9066484D01*
X8326278Y-9066484D02*
X8345325Y-9056960D01*
X8345325Y-9056960D02*
X8354849Y-9037912D01*
X8354849Y-9037912D02*
X8354849Y-9028389D01*
X8354849Y-9028389D02*
X8345325Y-9009341D01*
X8345325Y-9009341D02*
X8326278Y-8999817D01*
X8326278Y-8999817D02*
X8297706Y-8999817D01*
X8297706Y-8999817D02*
X8278659Y-8990293D01*
X8278659Y-8990293D02*
X8269135Y-8971246D01*
X8269135Y-8971246D02*
X8269135Y-8961722D01*
X8269135Y-8961722D02*
X8278659Y-8942674D01*
X8278659Y-8942674D02*
X8297706Y-8933150D01*
X8297706Y-8933150D02*
X8326278Y-8933150D01*
X8326278Y-8933150D02*
X8345325Y-8942674D01*
X8421516Y-9142674D02*
X8431040Y-9133150D01*
X8431040Y-9133150D02*
X8450087Y-9104579D01*
X8450087Y-9104579D02*
X8459611Y-9085531D01*
X8459611Y-9085531D02*
X8469135Y-9056960D01*
X8469135Y-9056960D02*
X8478659Y-9009341D01*
X8478659Y-9009341D02*
X8478659Y-8971246D01*
X8478659Y-8971246D02*
X8469135Y-8923627D01*
X8469135Y-8923627D02*
X8459611Y-8895055D01*
X8459611Y-8895055D02*
X8450087Y-8876008D01*
X8450087Y-8876008D02*
X8431040Y-8847436D01*
X8431040Y-8847436D02*
X8421516Y-8837912D01*
X8783421Y-9142674D02*
X8773897Y-9133150D01*
X8773897Y-9133150D02*
X8754849Y-9104579D01*
X8754849Y-9104579D02*
X8745325Y-9085531D01*
X8745325Y-9085531D02*
X8735802Y-9056960D01*
X8735802Y-9056960D02*
X8726278Y-9009341D01*
X8726278Y-9009341D02*
X8726278Y-8971246D01*
X8726278Y-8971246D02*
X8735802Y-8923627D01*
X8735802Y-8923627D02*
X8745325Y-8895055D01*
X8745325Y-8895055D02*
X8754849Y-8876008D01*
X8754849Y-8876008D02*
X8773897Y-8847436D01*
X8773897Y-8847436D02*
X8783421Y-8837912D01*
X8859611Y-8933150D02*
X8859611Y-9066484D01*
X8859611Y-8952198D02*
X8869135Y-8942674D01*
X8869135Y-8942674D02*
X8888183Y-8933150D01*
X8888183Y-8933150D02*
X8916754Y-8933150D01*
X8916754Y-8933150D02*
X8935802Y-8942674D01*
X8935802Y-8942674D02*
X8945325Y-8961722D01*
X8945325Y-8961722D02*
X8945325Y-9066484D01*
X9069135Y-9066484D02*
X9050087Y-9056960D01*
X9050087Y-9056960D02*
X9040564Y-9047436D01*
X9040564Y-9047436D02*
X9031040Y-9028389D01*
X9031040Y-9028389D02*
X9031040Y-8971246D01*
X9031040Y-8971246D02*
X9040564Y-8952198D01*
X9040564Y-8952198D02*
X9050087Y-8942674D01*
X9050087Y-8942674D02*
X9069135Y-8933150D01*
X9069135Y-8933150D02*
X9097706Y-8933150D01*
X9097706Y-8933150D02*
X9116754Y-8942674D01*
X9116754Y-8942674D02*
X9126278Y-8952198D01*
X9126278Y-8952198D02*
X9135802Y-8971246D01*
X9135802Y-8971246D02*
X9135802Y-9028389D01*
X9135802Y-9028389D02*
X9126278Y-9047436D01*
X9126278Y-9047436D02*
X9116754Y-9056960D01*
X9116754Y-9056960D02*
X9097706Y-9066484D01*
X9097706Y-9066484D02*
X9069135Y-9066484D01*
X9192945Y-8933150D02*
X9269135Y-8933150D01*
X9221516Y-8866484D02*
X9221516Y-9037912D01*
X9221516Y-9037912D02*
X9231040Y-9056960D01*
X9231040Y-9056960D02*
X9250087Y-9066484D01*
X9250087Y-9066484D02*
X9269135Y-9066484D01*
X9488183Y-8933150D02*
X9488183Y-9133150D01*
X9488183Y-8942674D02*
X9507230Y-8933150D01*
X9507230Y-8933150D02*
X9545326Y-8933150D01*
X9545326Y-8933150D02*
X9564373Y-8942674D01*
X9564373Y-8942674D02*
X9573897Y-8952198D01*
X9573897Y-8952198D02*
X9583421Y-8971246D01*
X9583421Y-8971246D02*
X9583421Y-9028389D01*
X9583421Y-9028389D02*
X9573897Y-9047436D01*
X9573897Y-9047436D02*
X9564373Y-9056960D01*
X9564373Y-9056960D02*
X9545326Y-9066484D01*
X9545326Y-9066484D02*
X9507230Y-9066484D01*
X9507230Y-9066484D02*
X9488183Y-9056960D01*
X9697706Y-9066484D02*
X9678659Y-9056960D01*
X9678659Y-9056960D02*
X9669135Y-9037912D01*
X9669135Y-9037912D02*
X9669135Y-8866484D01*
X9859611Y-9066484D02*
X9859611Y-8961722D01*
X9859611Y-8961722D02*
X9850087Y-8942674D01*
X9850087Y-8942674D02*
X9831040Y-8933150D01*
X9831040Y-8933150D02*
X9792945Y-8933150D01*
X9792945Y-8933150D02*
X9773897Y-8942674D01*
X9859611Y-9056960D02*
X9840564Y-9066484D01*
X9840564Y-9066484D02*
X9792945Y-9066484D01*
X9792945Y-9066484D02*
X9773897Y-9056960D01*
X9773897Y-9056960D02*
X9764373Y-9037912D01*
X9764373Y-9037912D02*
X9764373Y-9018865D01*
X9764373Y-9018865D02*
X9773897Y-8999817D01*
X9773897Y-8999817D02*
X9792945Y-8990293D01*
X9792945Y-8990293D02*
X9840564Y-8990293D01*
X9840564Y-8990293D02*
X9859611Y-8980770D01*
X9926278Y-8933150D02*
X10002468Y-8933150D01*
X9954849Y-8866484D02*
X9954849Y-9037912D01*
X9954849Y-9037912D02*
X9964373Y-9056960D01*
X9964373Y-9056960D02*
X9983421Y-9066484D01*
X9983421Y-9066484D02*
X10002468Y-9066484D01*
X10145326Y-9056960D02*
X10126278Y-9066484D01*
X10126278Y-9066484D02*
X10088183Y-9066484D01*
X10088183Y-9066484D02*
X10069135Y-9056960D01*
X10069135Y-9056960D02*
X10059611Y-9037912D01*
X10059611Y-9037912D02*
X10059611Y-8961722D01*
X10059611Y-8961722D02*
X10069135Y-8942674D01*
X10069135Y-8942674D02*
X10088183Y-8933150D01*
X10088183Y-8933150D02*
X10126278Y-8933150D01*
X10126278Y-8933150D02*
X10145326Y-8942674D01*
X10145326Y-8942674D02*
X10154849Y-8961722D01*
X10154849Y-8961722D02*
X10154849Y-8980770D01*
X10154849Y-8980770D02*
X10059611Y-8999817D01*
X10326278Y-9066484D02*
X10326278Y-8866484D01*
X10326278Y-9056960D02*
X10307230Y-9066484D01*
X10307230Y-9066484D02*
X10269135Y-9066484D01*
X10269135Y-9066484D02*
X10250087Y-9056960D01*
X10250087Y-9056960D02*
X10240564Y-9047436D01*
X10240564Y-9047436D02*
X10231040Y-9028389D01*
X10231040Y-9028389D02*
X10231040Y-8971246D01*
X10231040Y-8971246D02*
X10240564Y-8952198D01*
X10240564Y-8952198D02*
X10250087Y-8942674D01*
X10250087Y-8942674D02*
X10269135Y-8933150D01*
X10269135Y-8933150D02*
X10307230Y-8933150D01*
X10307230Y-8933150D02*
X10326278Y-8942674D01*
X10402468Y-9142674D02*
X10411992Y-9133150D01*
X10411992Y-9133150D02*
X10431040Y-9104579D01*
X10431040Y-9104579D02*
X10440564Y-9085531D01*
X10440564Y-9085531D02*
X10450087Y-9056960D01*
X10450087Y-9056960D02*
X10459611Y-9009341D01*
X10459611Y-9009341D02*
X10459611Y-8971246D01*
X10459611Y-8971246D02*
X10450087Y-8923627D01*
X10450087Y-8923627D02*
X10440564Y-8895055D01*
X10440564Y-8895055D02*
X10431040Y-8876008D01*
X10431040Y-8876008D02*
X10411992Y-8847436D01*
X10411992Y-8847436D02*
X10402468Y-8837912D01*
M02*
