G04 #@! TF.GenerationSoftware,KiCad,Pcbnew,9.0.5*
G04 #@! TF.CreationDate,2026-01-12T09:34:54+01:00*
G04 #@! TF.ProjectId,PCB Main,50434220-4d61-4696-9e2e-6b696361645f,rev?*
G04 #@! TF.SameCoordinates,Original*
G04 #@! TF.FileFunction,Soldermask,Bot*
G04 #@! TF.FilePolarity,Negative*
%FSLAX46Y46*%
G04 Gerber Fmt 4.6, Leading zero omitted, Abs format (unit mm)*
G04 Created by KiCad (PCBNEW 9.0.5) date 2026-01-12 09:34:54*
%MOMM*%
%LPD*%
G01*
G04 APERTURE LIST*
G04 Aperture macros list*
%AMRoundRect*
0 Rectangle with rounded corners*
0 $1 Rounding radius*
0 $2 $3 $4 $5 $6 $7 $8 $9 X,Y pos of 4 corners*
0 Add a 4 corners polygon primitive as box body*
4,1,4,$2,$3,$4,$5,$6,$7,$8,$9,$2,$3,0*
0 Add four circle primitives for the rounded corners*
1,1,$1+$1,$2,$3*
1,1,$1+$1,$4,$5*
1,1,$1+$1,$6,$7*
1,1,$1+$1,$8,$9*
0 Add four rect primitives between the rounded corners*
20,1,$1+$1,$2,$3,$4,$5,0*
20,1,$1+$1,$4,$5,$6,$7,0*
20,1,$1+$1,$6,$7,$8,$9,0*
20,1,$1+$1,$8,$9,$2,$3,0*%
G04 Aperture macros list end*
%ADD10R,1.700000X1.700000*%
%ADD11C,1.700000*%
%ADD12RoundRect,0.250000X-0.600000X-0.750000X0.600000X-0.750000X0.600000X0.750000X-0.600000X0.750000X0*%
%ADD13O,1.700000X2.000000*%
%ADD14C,2.200000*%
%ADD15C,1.446000*%
G04 APERTURE END LIST*
D10*
X72175534Y-62667040D03*
D11*
X72175534Y-65207040D03*
X72175534Y-67747040D03*
D10*
X89535000Y-56510000D03*
D11*
X89535000Y-59050000D03*
D10*
X96442500Y-62497000D03*
D11*
X96442500Y-65037000D03*
X96442500Y-67577000D03*
X96442500Y-70117000D03*
D10*
X93762843Y-79611576D03*
D11*
X91222843Y-79611576D03*
X88682843Y-79611576D03*
D12*
X88067843Y-34078576D03*
D13*
X90567843Y-34078576D03*
D14*
X39066500Y-80192000D03*
X39066500Y-35192000D03*
D10*
X46899843Y-76690576D03*
D11*
X49439843Y-76690576D03*
X51979843Y-76690576D03*
X54519843Y-76690576D03*
X57059843Y-76690576D03*
X59599843Y-76690576D03*
X62139843Y-76690576D03*
D10*
X67219843Y-76685576D03*
D11*
X67219843Y-79225576D03*
D12*
X78415843Y-34078576D03*
D13*
X80915843Y-34078576D03*
D10*
X84504500Y-79575000D03*
D11*
X81964500Y-79575000D03*
X79424500Y-79575000D03*
D10*
X96442500Y-49797000D03*
D11*
X96442500Y-52337000D03*
X96442500Y-54877000D03*
X96442500Y-57417000D03*
D10*
X85852000Y-56510000D03*
D11*
X85852000Y-59050000D03*
D14*
X98066500Y-80192000D03*
D10*
X75233500Y-56528000D03*
D11*
X77773500Y-56528000D03*
X80313500Y-56528000D03*
D14*
X98066500Y-35192000D03*
D10*
X73950843Y-79225576D03*
D11*
X73950843Y-76685576D03*
X73950843Y-74145576D03*
D15*
X60996843Y-68562576D03*
X40996843Y-68562576D03*
M02*
