G04 #@! TF.GenerationSoftware,KiCad,Pcbnew,9.0.5*
G04 #@! TF.CreationDate,2025-12-05T09:09:27+01:00*
G04 #@! TF.ProjectId,PCB Main,50434220-4d61-4696-9e2e-6b696361645f,rev?*
G04 #@! TF.SameCoordinates,Original*
G04 #@! TF.FileFunction,Paste,Top*
G04 #@! TF.FilePolarity,Positive*
%FSLAX46Y46*%
G04 Gerber Fmt 4.6, Leading zero omitted, Abs format (unit mm)*
G04 Created by KiCad (PCBNEW 9.0.5) date 2025-12-05 09:09:27*
%MOMM*%
%LPD*%
G01*
G04 APERTURE LIST*
G04 Aperture macros list*
%AMRoundRect*
0 Rectangle with rounded corners*
0 $1 Rounding radius*
0 $2 $3 $4 $5 $6 $7 $8 $9 X,Y pos of 4 corners*
0 Add a 4 corners polygon primitive as box body*
4,1,4,$2,$3,$4,$5,$6,$7,$8,$9,$2,$3,0*
0 Add four circle primitives for the rounded corners*
1,1,$1+$1,$2,$3*
1,1,$1+$1,$4,$5*
1,1,$1+$1,$6,$7*
1,1,$1+$1,$8,$9*
0 Add four rect primitives between the rounded corners*
20,1,$1+$1,$2,$3,$4,$5,0*
20,1,$1+$1,$4,$5,$6,$7,0*
20,1,$1+$1,$6,$7,$8,$9,0*
20,1,$1+$1,$8,$9,$2,$3,0*%
%AMFreePoly0*
4,1,11,1.015000,1.170000,0.435000,0.575000,0.435000,-0.575000,1.015000,-1.170000,1.015000,-1.945000,0.125000,-1.945000,-0.435000,-1.395000,-0.435000,1.395000,0.125000,1.945000,1.015000,1.945000,1.015000,1.170000,1.015000,1.170000,$1*%
%AMFreePoly1*
4,1,11,0.435000,1.395000,0.435000,-1.395000,-0.125000,-1.945000,-1.015000,-1.945000,-1.015000,-1.170000,-0.435000,-0.575000,-0.435000,0.575000,-1.015000,1.170000,-1.015000,1.945000,-0.125000,1.945000,0.435000,1.395000,0.435000,1.395000,$1*%
G04 Aperture macros list end*
%ADD10C,0.010000*%
%ADD11RoundRect,0.140000X0.140000X0.170000X-0.140000X0.170000X-0.140000X-0.170000X0.140000X-0.170000X0*%
%ADD12FreePoly0,270.000000*%
%ADD13FreePoly1,270.000000*%
%ADD14RoundRect,0.147500X0.172500X-0.147500X0.172500X0.147500X-0.172500X0.147500X-0.172500X-0.147500X0*%
%ADD15RoundRect,0.140000X-0.170000X0.140000X-0.170000X-0.140000X0.170000X-0.140000X0.170000X0.140000X0*%
%ADD16RoundRect,0.135000X0.135000X0.185000X-0.135000X0.185000X-0.135000X-0.185000X0.135000X-0.185000X0*%
%ADD17RoundRect,0.225000X-0.225000X-0.250000X0.225000X-0.250000X0.225000X0.250000X-0.225000X0.250000X0*%
%ADD18RoundRect,0.218750X0.218750X0.256250X-0.218750X0.256250X-0.218750X-0.256250X0.218750X-0.256250X0*%
%ADD19RoundRect,0.140000X-0.140000X-0.170000X0.140000X-0.170000X0.140000X0.170000X-0.140000X0.170000X0*%
%ADD20RoundRect,0.150000X0.400000X-0.150000X0.400000X0.150000X-0.400000X0.150000X-0.400000X-0.150000X0*%
%ADD21RoundRect,0.140000X0.170000X-0.140000X0.170000X0.140000X-0.170000X0.140000X-0.170000X-0.140000X0*%
%ADD22RoundRect,0.135000X-0.135000X-0.185000X0.135000X-0.185000X0.135000X0.185000X-0.135000X0.185000X0*%
%ADD23RoundRect,0.147500X-0.147500X-0.172500X0.147500X-0.172500X0.147500X0.172500X-0.147500X0.172500X0*%
%ADD24RoundRect,0.225000X-0.250000X0.225000X-0.250000X-0.225000X0.250000X-0.225000X0.250000X0.225000X0*%
%ADD25RoundRect,0.150000X-0.587500X-0.150000X0.587500X-0.150000X0.587500X0.150000X-0.587500X0.150000X0*%
%ADD26RoundRect,0.250000X1.425000X-0.362500X1.425000X0.362500X-1.425000X0.362500X-1.425000X-0.362500X0*%
%ADD27RoundRect,0.135000X0.185000X-0.135000X0.185000X0.135000X-0.185000X0.135000X-0.185000X-0.135000X0*%
%ADD28RoundRect,0.250000X-0.362500X-1.425000X0.362500X-1.425000X0.362500X1.425000X-0.362500X1.425000X0*%
%ADD29RoundRect,0.135000X-0.185000X0.135000X-0.185000X-0.135000X0.185000X-0.135000X0.185000X0.135000X0*%
%ADD30RoundRect,0.249999X0.395001X0.395001X-0.395001X0.395001X-0.395001X-0.395001X0.395001X-0.395001X0*%
%ADD31RoundRect,0.062500X0.400000X0.062500X-0.400000X0.062500X-0.400000X-0.062500X0.400000X-0.062500X0*%
%ADD32RoundRect,0.062500X0.062500X0.400000X-0.062500X0.400000X-0.062500X-0.400000X0.062500X-0.400000X0*%
%ADD33R,0.200000X0.200000*%
%ADD34RoundRect,0.033750X0.471250X0.101250X-0.471250X0.101250X-0.471250X-0.101250X0.471250X-0.101250X0*%
%ADD35RoundRect,0.033750X0.101250X0.471250X-0.101250X0.471250X-0.101250X-0.471250X0.101250X-0.471250X0*%
%ADD36RoundRect,0.250000X-1.425000X0.362500X-1.425000X-0.362500X1.425000X-0.362500X1.425000X0.362500X0*%
%ADD37RoundRect,0.218750X-0.381250X0.218750X-0.381250X-0.218750X0.381250X-0.218750X0.381250X0.218750X0*%
%ADD38RoundRect,0.200000X-0.250000X-0.200000X0.250000X-0.200000X0.250000X0.200000X-0.250000X0.200000X0*%
%ADD39RoundRect,0.150000X-0.825000X-0.150000X0.825000X-0.150000X0.825000X0.150000X-0.825000X0.150000X0*%
%ADD40RoundRect,0.243750X-0.243750X-0.456250X0.243750X-0.456250X0.243750X0.456250X-0.243750X0.456250X0*%
%ADD41RoundRect,0.112500X0.112500X-0.187500X0.112500X0.187500X-0.112500X0.187500X-0.112500X-0.187500X0*%
%ADD42RoundRect,0.218750X-0.256250X0.218750X-0.256250X-0.218750X0.256250X-0.218750X0.256250X0.218750X0*%
%ADD43R,1.000000X1.700000*%
%ADD44RoundRect,0.212500X-0.212500X-0.212500X0.212500X-0.212500X0.212500X0.212500X-0.212500X0.212500X0*%
%ADD45RoundRect,0.087500X-0.425000X-0.087500X0.425000X-0.087500X0.425000X0.087500X-0.425000X0.087500X0*%
%ADD46RoundRect,0.087500X-0.087500X-0.425000X0.087500X-0.425000X0.087500X0.425000X-0.087500X0.425000X0*%
%ADD47RoundRect,0.250000X0.650000X-0.325000X0.650000X0.325000X-0.650000X0.325000X-0.650000X-0.325000X0*%
G04 APERTURE END LIST*
D10*
X59432657Y-55513424D02*
X57432657Y-55513424D01*
X57432657Y-53513424D01*
X59432657Y-53513424D01*
X59432657Y-55513424D01*
G36*
X59432657Y-55513424D02*
G01*
X57432657Y-55513424D01*
X57432657Y-53513424D01*
X59432657Y-53513424D01*
X59432657Y-55513424D01*
G37*
D11*
X35798657Y-36225424D03*
X34838657Y-36225424D03*
D12*
X61988657Y-58590424D03*
D13*
X61988657Y-62120424D03*
D14*
X33286657Y-25407424D03*
X33286657Y-24437424D03*
D15*
X44048552Y-49053438D03*
X44048552Y-50013438D03*
D16*
X22620657Y-34447424D03*
X21600657Y-34447424D03*
D17*
X62737657Y-57053424D03*
X64287657Y-57053424D03*
D18*
X43472157Y-37241424D03*
X41897157Y-37241424D03*
D19*
X28234657Y-39273424D03*
X29194657Y-39273424D03*
D20*
X42430657Y-44164424D03*
X42430657Y-42764424D03*
D21*
X64782657Y-35943424D03*
X64782657Y-34983424D03*
D22*
X46238657Y-39781424D03*
X47258657Y-39781424D03*
D23*
X28229657Y-40797424D03*
X29199657Y-40797424D03*
D24*
X65544657Y-53230424D03*
X65544657Y-54780424D03*
D16*
X45988657Y-38384424D03*
X44968657Y-38384424D03*
D25*
X51780157Y-27147424D03*
X51780157Y-29047424D03*
X53655157Y-28097424D03*
D26*
X54114657Y-38425924D03*
X54114657Y-32500924D03*
D21*
X28968657Y-44706424D03*
X28968657Y-43746424D03*
X39509657Y-51310424D03*
X39509657Y-50350424D03*
D27*
X65798657Y-34957424D03*
X65798657Y-33937424D03*
D15*
X57797657Y-37015424D03*
X57797657Y-37975424D03*
D19*
X30520657Y-35971424D03*
X31480657Y-35971424D03*
D22*
X61732657Y-31907424D03*
X62752657Y-31907424D03*
D28*
X58264157Y-29367424D03*
X64189157Y-29367424D03*
D19*
X27980657Y-41813424D03*
X28940657Y-41813424D03*
D21*
X39382657Y-47627424D03*
X39382657Y-46667424D03*
D15*
X57670657Y-34983424D03*
X57670657Y-35943424D03*
D16*
X60720657Y-31907424D03*
X59700657Y-31907424D03*
D11*
X43418657Y-45496424D03*
X42458657Y-45496424D03*
D27*
X56654657Y-34957424D03*
X56654657Y-33937424D03*
D29*
X56654657Y-35969424D03*
X56654657Y-36989424D03*
X44589657Y-34318424D03*
X44589657Y-35338424D03*
D30*
X37718657Y-43705424D03*
X37718657Y-42105424D03*
X37718657Y-40505424D03*
X37718657Y-38905424D03*
X36118657Y-43705424D03*
X36118657Y-42105424D03*
X36118657Y-40505424D03*
X36118657Y-38905424D03*
X34518657Y-43705424D03*
X34518657Y-42105424D03*
X34518657Y-40505424D03*
X34518657Y-38905424D03*
X32918657Y-43705424D03*
X32918657Y-42105424D03*
X32918657Y-40505424D03*
X32918657Y-38905424D03*
D31*
X39206157Y-44505424D03*
X39206157Y-44105424D03*
X39206157Y-43705424D03*
X39206157Y-43305424D03*
X39206157Y-42905424D03*
X39206157Y-42505424D03*
X39206157Y-42105424D03*
X39206157Y-41705424D03*
X39206157Y-41305424D03*
X39206157Y-40905424D03*
X39206157Y-40505424D03*
X39206157Y-40105424D03*
X39206157Y-39705424D03*
X39206157Y-39305424D03*
X39206157Y-38905424D03*
X39206157Y-38505424D03*
X39206157Y-38105424D03*
D32*
X38518657Y-37417924D03*
X38118657Y-37417924D03*
X37718657Y-37417924D03*
X37318657Y-37417924D03*
X36918657Y-37417924D03*
X36518657Y-37417924D03*
X36118657Y-37417924D03*
X35718657Y-37417924D03*
X35318657Y-37417924D03*
X34918657Y-37417924D03*
X34518657Y-37417924D03*
X34118657Y-37417924D03*
X33718657Y-37417924D03*
X33318657Y-37417924D03*
X32918657Y-37417924D03*
X32518657Y-37417924D03*
X32118657Y-37417924D03*
D31*
X31431157Y-38105424D03*
X31431157Y-38505424D03*
X31431157Y-38905424D03*
X31431157Y-39305424D03*
X31431157Y-39705424D03*
X31431157Y-40105424D03*
X31431157Y-40505424D03*
X31431157Y-40905424D03*
X31431157Y-41305424D03*
X31431157Y-41705424D03*
X31431157Y-42105424D03*
X31431157Y-42505424D03*
X31431157Y-42905424D03*
X31431157Y-43305424D03*
X31431157Y-43705424D03*
X31431157Y-44105424D03*
X31431157Y-44505424D03*
D32*
X32118657Y-45192924D03*
X32518657Y-45192924D03*
X32918657Y-45192924D03*
X33318657Y-45192924D03*
X33718657Y-45192924D03*
X34118657Y-45192924D03*
X34518657Y-45192924D03*
X34918657Y-45192924D03*
X35318657Y-45192924D03*
X35718657Y-45192924D03*
X36118657Y-45192924D03*
X36518657Y-45192924D03*
X36918657Y-45192924D03*
X37318657Y-45192924D03*
X37718657Y-45192924D03*
X38118657Y-45192924D03*
X38518657Y-45192924D03*
D11*
X42656657Y-38511424D03*
X41696657Y-38511424D03*
D33*
X33822657Y-35775424D03*
X33822657Y-35188424D03*
X33822657Y-34601424D03*
X33322657Y-35188424D03*
X33322657Y-35775424D03*
X33322657Y-34601424D03*
D19*
X27726657Y-42829424D03*
X28686657Y-42829424D03*
D29*
X65798657Y-35969424D03*
X65798657Y-36989424D03*
D34*
X60792657Y-56013424D03*
X60792657Y-55513424D03*
X60792657Y-55013424D03*
X60792657Y-54513424D03*
X60792657Y-54013424D03*
X60792657Y-53513424D03*
X60792657Y-53013424D03*
D35*
X59932657Y-52153424D03*
X59432657Y-52153424D03*
X58932657Y-52153424D03*
X58432657Y-52153424D03*
X57932657Y-52153424D03*
X57432657Y-52153424D03*
X56932657Y-52153424D03*
D34*
X56072657Y-53013424D03*
X56072657Y-53513424D03*
X56072657Y-54013424D03*
X56072657Y-54513424D03*
X56072657Y-55013424D03*
X56072657Y-55513424D03*
X56072657Y-56013424D03*
D35*
X56932657Y-56873424D03*
X57432657Y-56873424D03*
X57932657Y-56873424D03*
X58432657Y-56873424D03*
X58932657Y-56873424D03*
X59432657Y-56873424D03*
X59932657Y-56873424D03*
D11*
X61706657Y-32923424D03*
X60746657Y-32923424D03*
X34401657Y-53243424D03*
X33441657Y-53243424D03*
D19*
X32298657Y-23144424D03*
X33258657Y-23144424D03*
D21*
X33286657Y-48008424D03*
X33286657Y-47048424D03*
D16*
X42432657Y-47782424D03*
X41412657Y-47782424D03*
D36*
X68338657Y-32500924D03*
X68338657Y-38425924D03*
D27*
X64274657Y-40037424D03*
X64274657Y-39017424D03*
D19*
X67350657Y-26827424D03*
X68310657Y-26827424D03*
D37*
X26174657Y-38972924D03*
X26174657Y-41097924D03*
D11*
X43418657Y-41432424D03*
X42458657Y-41432424D03*
D38*
X26490657Y-36648424D03*
X27890657Y-36648424D03*
X27890657Y-35548424D03*
X26490657Y-35548424D03*
D27*
X36461657Y-56674424D03*
X36461657Y-55654424D03*
D19*
X32362657Y-26573424D03*
X33322657Y-26573424D03*
D39*
X29476657Y-55402424D03*
X29476657Y-56672424D03*
X29476657Y-57942424D03*
X29476657Y-59212424D03*
X34426657Y-59212424D03*
X34426657Y-57942424D03*
X34426657Y-56672424D03*
X34426657Y-55402424D03*
D19*
X39664657Y-63403424D03*
X40624657Y-63403424D03*
D27*
X50177657Y-28607424D03*
X50177657Y-27587424D03*
D19*
X30520657Y-34955424D03*
X31480657Y-34955424D03*
D40*
X18379157Y-36987424D03*
X20254157Y-36987424D03*
D41*
X41033657Y-53277424D03*
X41033657Y-51177424D03*
D19*
X57317657Y-26827424D03*
X58277657Y-26827424D03*
D42*
X63512657Y-53217924D03*
X63512657Y-54792924D03*
D24*
X55892657Y-48658424D03*
X55892657Y-50208424D03*
D40*
X18379157Y-34447424D03*
X20254157Y-34447424D03*
D16*
X22620657Y-36987424D03*
X21600657Y-36987424D03*
D43*
X17670657Y-49154424D03*
X17670657Y-42854424D03*
X21470657Y-49154424D03*
X21470657Y-42854424D03*
D29*
X42630657Y-33141424D03*
X42630657Y-34161424D03*
D24*
X58686657Y-61104424D03*
X58686657Y-62654424D03*
D21*
X38366657Y-48135424D03*
X38366657Y-47175424D03*
D44*
X60701657Y-35954424D03*
X60701657Y-37004424D03*
X61751657Y-35954424D03*
X61751657Y-37004424D03*
D45*
X59364157Y-35504424D03*
X59364157Y-36154424D03*
X59364157Y-36804424D03*
X59364157Y-37454424D03*
D46*
X60251657Y-38341924D03*
X60901657Y-38341924D03*
X61551657Y-38341924D03*
X62201657Y-38341924D03*
D45*
X63089157Y-37454424D03*
X63089157Y-36804424D03*
X63089157Y-36154424D03*
X63089157Y-35504424D03*
D46*
X62201657Y-34616924D03*
X61551657Y-34616924D03*
X60901657Y-34616924D03*
X60251657Y-34616924D03*
D47*
X53479657Y-53448424D03*
X53479657Y-50498424D03*
M02*
