%TF.GenerationSoftware,KiCad,Pcbnew,9.0.5*%
%TF.CreationDate,2025-10-21T12:07:39+02:00*%
%TF.ProjectId,Harvest Testing,48617276-6573-4742-9054-657374696e67,rev?*%
%TF.SameCoordinates,Original*%
%TF.FileFunction,Copper,L1,Top*%
%TF.FilePolarity,Positive*%
%FSLAX46Y46*%
G04 Gerber Fmt 4.6, Leading zero omitted, Abs format (unit mm)*
G04 Created by KiCad (PCBNEW 9.0.5) date 2025-10-21 12:07:39*
%MOMM*%
%LPD*%
G01*
G04 APERTURE LIST*
%TA.AperFunction,ComponentPad*%
%ADD10R,1.700000X1.700000*%
%TD*%
%TA.AperFunction,ComponentPad*%
%ADD11C,1.700000*%
%TD*%
%TA.AperFunction,ViaPad*%
%ADD12C,1.500000*%
%TD*%
%TA.AperFunction,Conductor*%
%ADD13C,0.500000*%
%TD*%
G04 APERTURE END LIST*
D10*
%TO.P,BAT_1,1,Pin_1*%
%TO.N,/BAT+*%
X39370000Y-55880000D03*
D11*
%TO.P,BAT_1,2,Pin_2*%
X39370000Y-58420000D03*
%TO.P,BAT_1,3,Pin_3*%
%TO.N,/BATT*%
X39370000Y-60960000D03*
%TO.P,BAT_1,4,Pin_4*%
%TO.N,/GND*%
X39370000Y-63500000D03*
%TD*%
D10*
%TO.P,PV_1,1,Pin_1*%
%TO.N,/SRC*%
X39370000Y-44450000D03*
D11*
%TO.P,PV_1,2,Pin_2*%
%TO.N,/GND*%
X39370000Y-46990000D03*
%TD*%
D10*
%TO.P,DEBUG_AEM_1,1,Pin_1*%
%TO.N,/BATT*%
X39370000Y-73660000D03*
D11*
%TO.P,DEBUG_AEM_1,2,Pin_2*%
%TO.N,/SRC*%
X39370000Y-76200000D03*
%TO.P,DEBUG_AEM_1,3,Pin_3*%
%TO.N,/S2*%
X39370000Y-78740000D03*
%TO.P,DEBUG_AEM_1,4,Pin_4*%
%TO.N,/S1*%
X39370000Y-81280000D03*
%TO.P,DEBUG_AEM_1,5,Pin_5*%
%TO.N,/S0*%
X39370000Y-83820000D03*
%TO.P,DEBUG_AEM_1,6,Pin_6*%
%TO.N,/HVOUT*%
X39370000Y-86360000D03*
%TO.P,DEBUG_AEM_1,7,Pin_7*%
%TO.N,/LVOUT*%
X39370000Y-88900000D03*
%TO.P,DEBUG_AEM_1,8,Pin_8*%
%TO.N,/VBUCK*%
X39370000Y-91440000D03*
%TD*%
D10*
%TO.P,AEM19041_2,1,Pin_1*%
%TO.N,/BATT*%
X102870000Y-53340000D03*
D11*
%TO.P,AEM19041_2,2,Pin_2*%
%TO.N,unconnected-(AEM19041_2-Pin_2-Pad2)*%
X102870000Y-55880000D03*
%TO.P,AEM19041_2,3,Pin_3*%
%TO.N,/HVOUT*%
X102870000Y-58420000D03*
%TO.P,AEM19041_2,4,Pin_4*%
%TO.N,unconnected-(AEM19041_2-Pin_4-Pad4)*%
X102870000Y-60960000D03*
%TO.P,AEM19041_2,5,Pin_5*%
%TO.N,unconnected-(AEM19041_2-Pin_5-Pad5)*%
X102870000Y-63500000D03*
%TO.P,AEM19041_2,6,Pin_6*%
%TO.N,unconnected-(AEM19041_2-Pin_6-Pad6)*%
X102870000Y-66040000D03*
%TO.P,AEM19041_2,7,Pin_7*%
%TO.N,unconnected-(AEM19041_2-Pin_7-Pad7)*%
X102870000Y-68580000D03*
%TO.P,AEM19041_2,8,Pin_8*%
%TO.N,/LVOUT*%
X102870000Y-71120000D03*
%TO.P,AEM19041_2,9,Pin_9*%
%TO.N,/VBUCK*%
X102870000Y-73660000D03*
%TD*%
D10*
%TO.P,STM32_2,1,Pin_1*%
%TO.N,unconnected-(STM32_2-Pin_1-Pad1)*%
X118110000Y-53340000D03*
D11*
%TO.P,STM32_2,2,Pin_2*%
%TO.N,unconnected-(STM32_2-Pin_2-Pad2)*%
X120650000Y-53340000D03*
%TO.P,STM32_2,3,Pin_3*%
%TO.N,/SCL*%
X118110000Y-55880000D03*
%TO.P,STM32_2,4,Pin_4*%
%TO.N,unconnected-(STM32_2-Pin_4-Pad4)*%
X120650000Y-55880000D03*
%TO.P,STM32_2,5,Pin_5*%
%TO.N,/SDA*%
X118110000Y-58420000D03*
%TO.P,STM32_2,6,Pin_6*%
%TO.N,unconnected-(STM32_2-Pin_6-Pad6)*%
X120650000Y-58420000D03*
%TO.P,STM32_2,7,Pin_7*%
%TO.N,unconnected-(STM32_2-Pin_7-Pad7)*%
X118110000Y-60960000D03*
%TO.P,STM32_2,8,Pin_8*%
%TO.N,unconnected-(STM32_2-Pin_8-Pad8)*%
X120650000Y-60960000D03*
%TO.P,STM32_2,9,Pin_9*%
%TO.N,/GND*%
X118110000Y-63500000D03*
%TO.P,STM32_2,10,Pin_10*%
%TO.N,unconnected-(STM32_2-Pin_10-Pad10)*%
X120650000Y-63500000D03*
%TO.P,STM32_2,11,Pin_11*%
%TO.N,unconnected-(STM32_2-Pin_11-Pad11)*%
X118110000Y-66040000D03*
%TO.P,STM32_2,12,Pin_12*%
%TO.N,unconnected-(STM32_2-Pin_12-Pad12)*%
X120650000Y-66040000D03*
%TO.P,STM32_2,13,Pin_13*%
%TO.N,unconnected-(STM32_2-Pin_13-Pad13)*%
X118110000Y-68580000D03*
%TO.P,STM32_2,14,Pin_14*%
%TO.N,unconnected-(STM32_2-Pin_14-Pad14)*%
X120650000Y-68580000D03*
%TO.P,STM32_2,15,Pin_15*%
%TO.N,unconnected-(STM32_2-Pin_15-Pad15)*%
X118110000Y-71120000D03*
%TO.P,STM32_2,16,Pin_16*%
%TO.N,unconnected-(STM32_2-Pin_16-Pad16)*%
X120650000Y-71120000D03*
%TO.P,STM32_2,17,Pin_17*%
%TO.N,unconnected-(STM32_2-Pin_17-Pad17)*%
X118110000Y-73660000D03*
%TO.P,STM32_2,18,Pin_18*%
%TO.N,unconnected-(STM32_2-Pin_18-Pad18)*%
X120650000Y-73660000D03*
%TO.P,STM32_2,19,Pin_19*%
%TO.N,unconnected-(STM32_2-Pin_19-Pad19)*%
X118110000Y-76200000D03*
%TO.P,STM32_2,20,Pin_20*%
%TO.N,/GND*%
X120650000Y-76200000D03*
%TO.P,STM32_2,21,Pin_21*%
%TO.N,unconnected-(STM32_2-Pin_21-Pad21)*%
X118110000Y-78740000D03*
%TO.P,STM32_2,22,Pin_22*%
%TO.N,unconnected-(STM32_2-Pin_22-Pad22)*%
X120650000Y-78740000D03*
%TO.P,STM32_2,23,Pin_23*%
%TO.N,unconnected-(STM32_2-Pin_23-Pad23)*%
X118110000Y-81280000D03*
%TO.P,STM32_2,24,Pin_24*%
%TO.N,unconnected-(STM32_2-Pin_24-Pad24)*%
X120650000Y-81280000D03*
%TO.P,STM32_2,25,Pin_25*%
%TO.N,unconnected-(STM32_2-Pin_25-Pad25)*%
X118110000Y-83820000D03*
%TO.P,STM32_2,26,Pin_26*%
%TO.N,unconnected-(STM32_2-Pin_26-Pad26)*%
X120650000Y-83820000D03*
%TO.P,STM32_2,27,Pin_27*%
%TO.N,unconnected-(STM32_2-Pin_27-Pad27)*%
X118110000Y-86360000D03*
%TO.P,STM32_2,28,Pin_28*%
%TO.N,unconnected-(STM32_2-Pin_28-Pad28)*%
X120650000Y-86360000D03*
%TO.P,STM32_2,29,Pin_29*%
%TO.N,unconnected-(STM32_2-Pin_29-Pad29)*%
X118110000Y-88900000D03*
%TO.P,STM32_2,30,Pin_30*%
%TO.N,unconnected-(STM32_2-Pin_30-Pad30)*%
X120650000Y-88900000D03*
%TO.P,STM32_2,31,Pin_31*%
%TO.N,unconnected-(STM32_2-Pin_31-Pad31)*%
X118110000Y-91440000D03*
%TO.P,STM32_2,32,Pin_32*%
%TO.N,/GND*%
X120650000Y-91440000D03*
%TO.P,STM32_2,33,Pin_33*%
%TO.N,unconnected-(STM32_2-Pin_33-Pad33)*%
X118110000Y-93980000D03*
%TO.P,STM32_2,34,Pin_34*%
%TO.N,unconnected-(STM32_2-Pin_34-Pad34)*%
X120650000Y-93980000D03*
%TO.P,STM32_2,35,Pin_35*%
%TO.N,unconnected-(STM32_2-Pin_35-Pad35)*%
X118110000Y-96520000D03*
%TO.P,STM32_2,36,Pin_36*%
%TO.N,unconnected-(STM32_2-Pin_36-Pad36)*%
X120650000Y-96520000D03*
%TO.P,STM32_2,37,Pin_37*%
%TO.N,unconnected-(STM32_2-Pin_37-Pad37)*%
X118110000Y-99060000D03*
%TO.P,STM32_2,38,Pin_38*%
%TO.N,unconnected-(STM32_2-Pin_38-Pad38)*%
X120650000Y-99060000D03*
%TD*%
D10*
%TO.P,TSL2591,1,Pin_1*%
%TO.N,unconnected-(TSL2591-Pin_1-Pad1)*%
X134620000Y-71120000D03*
D11*
%TO.P,TSL2591,2,Pin_2*%
%TO.N,/3V3_TSL*%
X134620000Y-73660000D03*
%TO.P,TSL2591,3,Pin_3*%
%TO.N,/GND*%
X134620000Y-76200000D03*
%TO.P,TSL2591,4,Pin_4*%
%TO.N,/SCL_TSL*%
X134620000Y-78740000D03*
%TO.P,TSL2591,5,Pin_5*%
%TO.N,/SDA_TSL*%
X134620000Y-81280000D03*
%TO.P,TSL2591,6,Pin_6*%
%TO.N,unconnected-(TSL2591-Pin_6-Pad6)*%
X134620000Y-83820000D03*
%TD*%
D10*
%TO.P,JUMPER_TSL_1,1,Pin_1*%
%TO.N,/SDA*%
X134620000Y-52070000D03*
D11*
%TO.P,JUMPER_TSL_1,2,Pin_2*%
%TO.N,/SDA_TSL*%
X137160000Y-52070000D03*
%TO.P,JUMPER_TSL_1,3,Pin_3*%
%TO.N,/SCL*%
X134620000Y-54610000D03*
%TO.P,JUMPER_TSL_1,4,Pin_4*%
%TO.N,/SCL_TSL*%
X137160000Y-54610000D03*
%TO.P,JUMPER_TSL_1,5,Pin_5*%
%TO.N,/3V3*%
X134620000Y-57150000D03*
%TO.P,JUMPER_TSL_1,6,Pin_6*%
%TO.N,/3V3_TSL*%
X137160000Y-57150000D03*
%TD*%
D10*
%TO.P,AEM10941_1,1,Pin_1*%
%TO.N,unconnected-(AEM10941_1-Pin_1-Pad1)*%
X77470000Y-53340000D03*
D11*
%TO.P,AEM10941_1,2,Pin_2*%
%TO.N,unconnected-(AEM10941_1-Pin_2-Pad2)*%
X77470000Y-55880000D03*
%TO.P,AEM10941_1,3,Pin_3*%
%TO.N,/S2*%
X77470000Y-58420000D03*
%TO.P,AEM10941_1,4,Pin_4*%
%TO.N,/S1*%
X77470000Y-60960000D03*
%TO.P,AEM10941_1,5,Pin_5*%
%TO.N,/S0*%
X77470000Y-63500000D03*
%TO.P,AEM10941_1,6,Pin_6*%
%TO.N,unconnected-(AEM10941_1-Pin_6-Pad6)*%
X77470000Y-66040000D03*
%TO.P,AEM10941_1,7,Pin_7*%
%TO.N,/SRC*%
X77470000Y-68580000D03*
%TO.P,AEM10941_1,8,Pin_8*%
%TO.N,/GND*%
X77470000Y-71120000D03*
%TD*%
D10*
%TO.P,STM32_1,1,Pin_1*%
%TO.N,unconnected-(STM32_1-Pin_1-Pad1)*%
X57150000Y-53340000D03*
D11*
%TO.P,STM32_1,2,Pin_2*%
%TO.N,unconnected-(STM32_1-Pin_2-Pad2)*%
X59690000Y-53340000D03*
%TO.P,STM32_1,3,Pin_3*%
%TO.N,unconnected-(STM32_1-Pin_3-Pad3)*%
X57150000Y-55880000D03*
%TO.P,STM32_1,4,Pin_4*%
%TO.N,unconnected-(STM32_1-Pin_4-Pad4)*%
X59690000Y-55880000D03*
%TO.P,STM32_1,5,Pin_5*%
%TO.N,unconnected-(STM32_1-Pin_5-Pad5)*%
X57150000Y-58420000D03*
%TO.P,STM32_1,6,Pin_6*%
%TO.N,unconnected-(STM32_1-Pin_6-Pad6)*%
X59690000Y-58420000D03*
%TO.P,STM32_1,7,Pin_7*%
%TO.N,unconnected-(STM32_1-Pin_7-Pad7)*%
X57150000Y-60960000D03*
%TO.P,STM32_1,8,Pin_8*%
%TO.N,/GND*%
X59690000Y-60960000D03*
%TO.P,STM32_1,9,Pin_9*%
%TO.N,unconnected-(STM32_1-Pin_9-Pad9)*%
X57150000Y-63500000D03*
%TO.P,STM32_1,10,Pin_10*%
%TO.N,unconnected-(STM32_1-Pin_10-Pad10)*%
X59690000Y-63500000D03*
%TO.P,STM32_1,11,Pin_11*%
%TO.N,unconnected-(STM32_1-Pin_11-Pad11)*%
X57150000Y-66040000D03*
%TO.P,STM32_1,12,Pin_12*%
%TO.N,unconnected-(STM32_1-Pin_12-Pad12)*%
X59690000Y-66040000D03*
%TO.P,STM32_1,13,Pin_13*%
%TO.N,unconnected-(STM32_1-Pin_13-Pad13)*%
X57150000Y-68580000D03*
%TO.P,STM32_1,14,Pin_14*%
%TO.N,unconnected-(STM32_1-Pin_14-Pad14)*%
X59690000Y-68580000D03*
%TO.P,STM32_1,15,Pin_15*%
%TO.N,unconnected-(STM32_1-Pin_15-Pad15)*%
X57150000Y-71120000D03*
%TO.P,STM32_1,16,Pin_16*%
%TO.N,/3V3*%
X59690000Y-71120000D03*
%TO.P,STM32_1,17,Pin_17*%
%TO.N,unconnected-(STM32_1-Pin_17-Pad17)*%
X57150000Y-73660000D03*
%TO.P,STM32_1,18,Pin_18*%
%TO.N,unconnected-(STM32_1-Pin_18-Pad18)*%
X59690000Y-73660000D03*
%TO.P,STM32_1,19,Pin_19*%
%TO.N,/GND*%
X57150000Y-76200000D03*
%TO.P,STM32_1,20,Pin_20*%
X59690000Y-76200000D03*
%TO.P,STM32_1,21,Pin_21*%
%TO.N,unconnected-(STM32_1-Pin_21-Pad21)*%
X57150000Y-78740000D03*
%TO.P,STM32_1,22,Pin_22*%
%TO.N,unconnected-(STM32_1-Pin_22-Pad22)*%
X59690000Y-78740000D03*
%TO.P,STM32_1,23,Pin_23*%
%TO.N,unconnected-(STM32_1-Pin_23-Pad23)*%
X57150000Y-81280000D03*
%TO.P,STM32_1,24,Pin_24*%
%TO.N,unconnected-(STM32_1-Pin_24-Pad24)*%
X59690000Y-81280000D03*
%TO.P,STM32_1,25,Pin_25*%
%TO.N,unconnected-(STM32_1-Pin_25-Pad25)*%
X57150000Y-83820000D03*
%TO.P,STM32_1,26,Pin_26*%
%TO.N,unconnected-(STM32_1-Pin_26-Pad26)*%
X59690000Y-83820000D03*
%TO.P,STM32_1,27,Pin_27*%
%TO.N,unconnected-(STM32_1-Pin_27-Pad27)*%
X57150000Y-86360000D03*
%TO.P,STM32_1,28,Pin_28*%
%TO.N,unconnected-(STM32_1-Pin_28-Pad28)*%
X59690000Y-86360000D03*
%TO.P,STM32_1,29,Pin_29*%
%TO.N,unconnected-(STM32_1-Pin_29-Pad29)*%
X57150000Y-88900000D03*
%TO.P,STM32_1,30,Pin_30*%
%TO.N,unconnected-(STM32_1-Pin_30-Pad30)*%
X59690000Y-88900000D03*
%TO.P,STM32_1,31,Pin_31*%
%TO.N,unconnected-(STM32_1-Pin_31-Pad31)*%
X57150000Y-91440000D03*
%TO.P,STM32_1,32,Pin_32*%
%TO.N,unconnected-(STM32_1-Pin_32-Pad32)*%
X59690000Y-91440000D03*
%TO.P,STM32_1,33,Pin_33*%
%TO.N,unconnected-(STM32_1-Pin_33-Pad33)*%
X57150000Y-93980000D03*
%TO.P,STM32_1,34,Pin_34*%
%TO.N,unconnected-(STM32_1-Pin_34-Pad34)*%
X59690000Y-93980000D03*
%TO.P,STM32_1,35,Pin_35*%
%TO.N,unconnected-(STM32_1-Pin_35-Pad35)*%
X57150000Y-96520000D03*
%TO.P,STM32_1,36,Pin_36*%
%TO.N,unconnected-(STM32_1-Pin_36-Pad36)*%
X59690000Y-96520000D03*
%TO.P,STM32_1,37,Pin_37*%
%TO.N,unconnected-(STM32_1-Pin_37-Pad37)*%
X57150000Y-99060000D03*
%TO.P,STM32_1,38,Pin_38*%
%TO.N,unconnected-(STM32_1-Pin_38-Pad38)*%
X59690000Y-99060000D03*
%TD*%
D10*
%TO.P,JUMPER_INA_1,1,Pin_1*%
%TO.N,/SDA*%
X72390000Y-31755000D03*
D11*
%TO.P,JUMPER_INA_1,2,Pin_2*%
%TO.N,/SDA_INA*%
X72390000Y-29215000D03*
%TO.P,JUMPER_INA_1,3,Pin_3*%
%TO.N,/SCL*%
X74930000Y-31755000D03*
%TO.P,JUMPER_INA_1,4,Pin_4*%
%TO.N,/SCL_INA*%
X74930000Y-29215000D03*
%TO.P,JUMPER_INA_1,5,Pin_5*%
%TO.N,/3V3*%
X77470000Y-31755000D03*
%TO.P,JUMPER_INA_1,6,Pin_6*%
%TO.N,/3V3_INA*%
X77470000Y-29215000D03*
%TD*%
D10*
%TO.P,INA3221,1,Pin_1*%
%TO.N,/3V3_INA*%
X99060000Y-38070000D03*
D11*
%TO.P,INA3221,2,Pin_2*%
%TO.N,/GND*%
X101600000Y-38070000D03*
%TO.P,INA3221,3,Pin_3*%
%TO.N,/SCL_INA*%
X104140000Y-38070000D03*
%TO.P,INA3221,4,Pin_4*%
%TO.N,/SDA_INA*%
X106680000Y-38070000D03*
%TO.P,INA3221,5,Pin_5*%
%TO.N,unconnected-(INA3221-Pin_5-Pad5)*%
X109220000Y-38070000D03*
%TO.P,INA3221,6,Pin_6*%
%TO.N,unconnected-(INA3221-Pin_6-Pad6)*%
X111760000Y-38070000D03*
%TO.P,INA3221,7,Pin_7*%
%TO.N,unconnected-(INA3221-Pin_7-Pad7)*%
X114300000Y-38070000D03*
%TO.P,INA3221,8,Pin_8*%
%TO.N,unconnected-(INA3221-Pin_8-Pad8)*%
X116840000Y-38070000D03*
%TD*%
D10*
%TO.P,LOAD_1,1,Pin_1*%
%TO.N,/HVOUT*%
X39370000Y-34290000D03*
D11*
%TO.P,LOAD_1,2,Pin_2*%
%TO.N,/3V3*%
X39370000Y-36830000D03*
%TD*%
D12*
%TO.N,/3V3*%
X82550000Y-38100000D03*
X132080000Y-57150000D03*
X69850000Y-39370000D03*
X129540000Y-49530000D03*
X64135000Y-73025000D03*
%TO.N,/SDA*%
X111760000Y-53340000D03*
%TO.N,/SCL*%
X107950000Y-46990000D03*
X114300000Y-53340000D03*
%TO.N,/GND*%
X72390000Y-48260000D03*
%TD*%
D13*
%TO.N,/3V3*%
X62230000Y-71120000D02*
X59690000Y-71120000D01*
X129540000Y-54610000D02*
X132080000Y-57150000D01*
X129540000Y-49530000D02*
X129540000Y-54610000D01*
X69850000Y-69850000D02*
X66675000Y-73025000D01*
X66675000Y-73025000D02*
X64135000Y-73025000D01*
X64135000Y-73025000D02*
X62230000Y-71120000D01*
X69850000Y-39370000D02*
X71120000Y-38100000D01*
X69850000Y-39370000D02*
X69850000Y-69850000D01*
X71120000Y-38100000D02*
X82550000Y-38100000D01*
%TO.N,/SDA*%
X111760000Y-53340000D02*
X116840000Y-58420000D01*
X116840000Y-58420000D02*
X118110000Y-58420000D01*
%TO.N,/SCL*%
X107950000Y-46990000D02*
X114300000Y-53340000D01*
X114300000Y-53340000D02*
X116840000Y-55880000D01*
X116840000Y-55880000D02*
X118110000Y-55880000D01*
%TD*%
%TA.AperFunction,Conductor*%
%TO.N,/GND*%
G36*
X142048363Y-22110185D02*
G01*
X142069005Y-22126819D01*
X145513181Y-25570995D01*
X145546666Y-25632318D01*
X145549500Y-25658676D01*
X145549500Y-98801324D01*
X145529815Y-98868363D01*
X145513181Y-98889005D01*
X142069005Y-102333181D01*
X142007682Y-102366666D01*
X141981324Y-102369500D01*
X28197480Y-102369500D01*
X28130441Y-102349815D01*
X28110086Y-102333467D01*
X24642194Y-98888181D01*
X24608509Y-98826968D01*
X24605588Y-98800176D01*
X24605961Y-97701902D01*
X27709500Y-97701902D01*
X27709500Y-97938097D01*
X27746446Y-98171368D01*
X27819433Y-98395996D01*
X27893615Y-98541585D01*
X27926657Y-98606433D01*
X28065483Y-98797510D01*
X28232490Y-98964517D01*
X28423567Y-99103343D01*
X28471035Y-99127529D01*
X28634003Y-99210566D01*
X28634005Y-99210566D01*
X28634008Y-99210568D01*
X28754412Y-99249689D01*
X28858631Y-99283553D01*
X29091903Y-99320500D01*
X29091908Y-99320500D01*
X29328097Y-99320500D01*
X29561368Y-99283553D01*
X29785992Y-99210568D01*
X29996433Y-99103343D01*
X30187510Y-98964517D01*
X30354517Y-98797510D01*
X30493343Y-98606433D01*
X30600568Y-98395992D01*
X30673553Y-98171368D01*
X30698929Y-98011150D01*
X30710500Y-97938097D01*
X30710500Y-97701902D01*
X30673553Y-97468631D01*
X30600566Y-97244003D01*
X30544002Y-97132991D01*
X30493343Y-97033567D01*
X30354517Y-96842490D01*
X30187510Y-96675483D01*
X29996433Y-96536657D01*
X29785996Y-96429433D01*
X29561368Y-96356446D01*
X29328097Y-96319500D01*
X29328092Y-96319500D01*
X29091908Y-96319500D01*
X29091903Y-96319500D01*
X28858631Y-96356446D01*
X28634003Y-96429433D01*
X28423566Y-96536657D01*
X28314550Y-96615862D01*
X28232490Y-96675483D01*
X28232488Y-96675485D01*
X28232487Y-96675485D01*
X28065485Y-96842487D01*
X28065485Y-96842488D01*
X28065483Y-96842490D01*
X28005862Y-96924550D01*
X27926657Y-97033566D01*
X27819433Y-97244003D01*
X27746446Y-97468631D01*
X27709500Y-97701902D01*
X24605961Y-97701902D01*
X24614426Y-72762135D01*
X38019500Y-72762135D01*
X38019500Y-74557870D01*
X38019501Y-74557876D01*
X38025908Y-74617483D01*
X38076202Y-74752328D01*
X38076206Y-74752335D01*
X38162452Y-74867544D01*
X38162455Y-74867547D01*
X38277664Y-74953793D01*
X38277671Y-74953797D01*
X38409082Y-75002810D01*
X38465016Y-75044681D01*
X38489433Y-75110145D01*
X38474582Y-75178418D01*
X38453431Y-75206673D01*
X38339889Y-75320215D01*
X38214951Y-75492179D01*
X38118444Y-75681585D01*
X38052753Y-75883760D01*
X38019500Y-76093713D01*
X38019500Y-76306286D01*
X38052753Y-76516239D01*
X38118444Y-76718414D01*
X38214951Y-76907820D01*
X38339890Y-77079786D01*
X38490213Y-77230109D01*
X38662182Y-77355050D01*
X38670946Y-77359516D01*
X38721742Y-77407491D01*
X38738536Y-77475312D01*
X38715998Y-77541447D01*
X38670946Y-77580484D01*
X38662182Y-77584949D01*
X38490213Y-77709890D01*
X38339890Y-77860213D01*
X38214951Y-78032179D01*
X38118444Y-78221585D01*
X38052753Y-78423760D01*
X38019500Y-78633713D01*
X38019500Y-78846286D01*
X38052753Y-79056239D01*
X38118444Y-79258414D01*
X38214951Y-79447820D01*
X38339890Y-79619786D01*
X38490213Y-79770109D01*
X38662182Y-79895050D01*
X38670946Y-79899516D01*
X38721742Y-79947491D01*
X38738536Y-80015312D01*
X38715998Y-80081447D01*
X38670946Y-80120484D01*
X38662182Y-80124949D01*
X38490213Y-80249890D01*
X38339890Y-80400213D01*
X38214951Y-80572179D01*
X38118444Y-80761585D01*
X38052753Y-80963760D01*
X38019500Y-81173713D01*
X38019500Y-81386286D01*
X38052753Y-81596239D01*
X38118444Y-81798414D01*
X38214951Y-81987820D01*
X38339890Y-82159786D01*
X38490213Y-82310109D01*
X38662182Y-82435050D01*
X38670946Y-82439516D01*
X38721742Y-82487491D01*
X38738536Y-82555312D01*
X38715998Y-82621447D01*
X38670946Y-82660484D01*
X38662182Y-82664949D01*
X38490213Y-82789890D01*
X38339890Y-82940213D01*
X38214951Y-83112179D01*
X38118444Y-83301585D01*
X38052753Y-83503760D01*
X38019500Y-83713713D01*
X38019500Y-83926286D01*
X38052753Y-84136239D01*
X38118444Y-84338414D01*
X38214951Y-84527820D01*
X38339890Y-84699786D01*
X38490213Y-84850109D01*
X38662182Y-84975050D01*
X38670946Y-84979516D01*
X38721742Y-85027491D01*
X38738536Y-85095312D01*
X38715998Y-85161447D01*
X38670946Y-85200484D01*
X38662182Y-85204949D01*
X38490213Y-85329890D01*
X38339890Y-85480213D01*
X38214951Y-85652179D01*
X38118444Y-85841585D01*
X38052753Y-86043760D01*
X38019500Y-86253713D01*
X38019500Y-86466286D01*
X38052753Y-86676239D01*
X38118444Y-86878414D01*
X38214951Y-87067820D01*
X38339890Y-87239786D01*
X38490213Y-87390109D01*
X38662182Y-87515050D01*
X38670946Y-87519516D01*
X38721742Y-87567491D01*
X38738536Y-87635312D01*
X38715998Y-87701447D01*
X38670946Y-87740484D01*
X38662182Y-87744949D01*
X38490213Y-87869890D01*
X38339890Y-88020213D01*
X38214951Y-88192179D01*
X38118444Y-88381585D01*
X38052753Y-88583760D01*
X38019500Y-88793713D01*
X38019500Y-89006286D01*
X38052753Y-89216239D01*
X38118444Y-89418414D01*
X38214951Y-89607820D01*
X38339890Y-89779786D01*
X38490213Y-89930109D01*
X38662182Y-90055050D01*
X38670946Y-90059516D01*
X38721742Y-90107491D01*
X38738536Y-90175312D01*
X38715998Y-90241447D01*
X38670946Y-90280484D01*
X38662182Y-90284949D01*
X38490213Y-90409890D01*
X38339890Y-90560213D01*
X38214951Y-90732179D01*
X38118444Y-90921585D01*
X38052753Y-91123760D01*
X38019500Y-91333713D01*
X38019500Y-91546286D01*
X38052753Y-91756239D01*
X38118444Y-91958414D01*
X38214951Y-92147820D01*
X38339890Y-92319786D01*
X38490213Y-92470109D01*
X38662179Y-92595048D01*
X38662181Y-92595049D01*
X38662184Y-92595051D01*
X38851588Y-92691557D01*
X39053757Y-92757246D01*
X39263713Y-92790500D01*
X39263714Y-92790500D01*
X39476286Y-92790500D01*
X39476287Y-92790500D01*
X39686243Y-92757246D01*
X39888412Y-92691557D01*
X40077816Y-92595051D01*
X40099789Y-92579086D01*
X40249786Y-92470109D01*
X40249788Y-92470106D01*
X40249792Y-92470104D01*
X40400104Y-92319792D01*
X40400106Y-92319788D01*
X40400109Y-92319786D01*
X40525048Y-92147820D01*
X40525047Y-92147820D01*
X40525051Y-92147816D01*
X40621557Y-91958412D01*
X40687246Y-91756243D01*
X40720500Y-91546287D01*
X40720500Y-91333713D01*
X40687246Y-91123757D01*
X40621557Y-90921588D01*
X40525051Y-90732184D01*
X40525049Y-90732181D01*
X40525048Y-90732179D01*
X40400109Y-90560213D01*
X40249786Y-90409890D01*
X40077820Y-90284951D01*
X40077115Y-90284591D01*
X40069054Y-90280485D01*
X40018259Y-90232512D01*
X40001463Y-90164692D01*
X40023999Y-90098556D01*
X40069054Y-90059515D01*
X40077816Y-90055051D01*
X40099789Y-90039086D01*
X40249786Y-89930109D01*
X40249788Y-89930106D01*
X40249792Y-89930104D01*
X40400104Y-89779792D01*
X40400106Y-89779788D01*
X40400109Y-89779786D01*
X40525048Y-89607820D01*
X40525047Y-89607820D01*
X40525051Y-89607816D01*
X40621557Y-89418412D01*
X40687246Y-89216243D01*
X40720500Y-89006287D01*
X40720500Y-88793713D01*
X40687246Y-88583757D01*
X40621557Y-88381588D01*
X40525051Y-88192184D01*
X40525049Y-88192181D01*
X40525048Y-88192179D01*
X40400109Y-88020213D01*
X40249786Y-87869890D01*
X40077820Y-87744951D01*
X40077115Y-87744591D01*
X40069054Y-87740485D01*
X40018259Y-87692512D01*
X40001463Y-87624692D01*
X40023999Y-87558556D01*
X40069054Y-87519515D01*
X40077816Y-87515051D01*
X40099789Y-87499086D01*
X40249786Y-87390109D01*
X40249788Y-87390106D01*
X40249792Y-87390104D01*
X40400104Y-87239792D01*
X40400106Y-87239788D01*
X40400109Y-87239786D01*
X40525048Y-87067820D01*
X40525047Y-87067820D01*
X40525051Y-87067816D01*
X40621557Y-86878412D01*
X40687246Y-86676243D01*
X40720500Y-86466287D01*
X40720500Y-86253713D01*
X40687246Y-86043757D01*
X40621557Y-85841588D01*
X40525051Y-85652184D01*
X40525049Y-85652181D01*
X40525048Y-85652179D01*
X40400109Y-85480213D01*
X40249786Y-85329890D01*
X40077820Y-85204951D01*
X40077115Y-85204591D01*
X40069054Y-85200485D01*
X40018259Y-85152512D01*
X40001463Y-85084692D01*
X40023999Y-85018556D01*
X40069054Y-84979515D01*
X40077816Y-84975051D01*
X40099789Y-84959086D01*
X40249786Y-84850109D01*
X40249788Y-84850106D01*
X40249792Y-84850104D01*
X40400104Y-84699792D01*
X40400106Y-84699788D01*
X40400109Y-84699786D01*
X40525048Y-84527820D01*
X40525047Y-84527820D01*
X40525051Y-84527816D01*
X40621557Y-84338412D01*
X40687246Y-84136243D01*
X40720500Y-83926287D01*
X40720500Y-83713713D01*
X40687246Y-83503757D01*
X40621557Y-83301588D01*
X40525051Y-83112184D01*
X40525049Y-83112181D01*
X40525048Y-83112179D01*
X40400109Y-82940213D01*
X40249786Y-82789890D01*
X40077820Y-82664951D01*
X40077115Y-82664591D01*
X40069054Y-82660485D01*
X40018259Y-82612512D01*
X40001463Y-82544692D01*
X40023999Y-82478556D01*
X40069054Y-82439515D01*
X40077816Y-82435051D01*
X40099789Y-82419086D01*
X40249786Y-82310109D01*
X40249788Y-82310106D01*
X40249792Y-82310104D01*
X40400104Y-82159792D01*
X40400106Y-82159788D01*
X40400109Y-82159786D01*
X40525048Y-81987820D01*
X40525047Y-81987820D01*
X40525051Y-81987816D01*
X40621557Y-81798412D01*
X40687246Y-81596243D01*
X40720500Y-81386287D01*
X40720500Y-81173713D01*
X40687246Y-80963757D01*
X40621557Y-80761588D01*
X40525051Y-80572184D01*
X40525049Y-80572181D01*
X40525048Y-80572179D01*
X40400109Y-80400213D01*
X40249786Y-80249890D01*
X40077820Y-80124951D01*
X40077115Y-80124591D01*
X40069054Y-80120485D01*
X40018259Y-80072512D01*
X40001463Y-80004692D01*
X40023999Y-79938556D01*
X40069054Y-79899515D01*
X40077816Y-79895051D01*
X40099789Y-79879086D01*
X40249786Y-79770109D01*
X40249788Y-79770106D01*
X40249792Y-79770104D01*
X40400104Y-79619792D01*
X40400106Y-79619788D01*
X40400109Y-79619786D01*
X40525048Y-79447820D01*
X40525047Y-79447820D01*
X40525051Y-79447816D01*
X40621557Y-79258412D01*
X40687246Y-79056243D01*
X40720500Y-78846287D01*
X40720500Y-78633713D01*
X55799500Y-78633713D01*
X55799500Y-78846286D01*
X55832753Y-79056239D01*
X55898444Y-79258414D01*
X55994951Y-79447820D01*
X56119890Y-79619786D01*
X56270213Y-79770109D01*
X56442182Y-79895050D01*
X56450946Y-79899516D01*
X56501742Y-79947491D01*
X56518536Y-80015312D01*
X56495998Y-80081447D01*
X56450946Y-80120484D01*
X56442182Y-80124949D01*
X56270213Y-80249890D01*
X56119890Y-80400213D01*
X55994951Y-80572179D01*
X55898444Y-80761585D01*
X55832753Y-80963760D01*
X55799500Y-81173713D01*
X55799500Y-81386286D01*
X55832753Y-81596239D01*
X55898444Y-81798414D01*
X55994951Y-81987820D01*
X56119890Y-82159786D01*
X56270213Y-82310109D01*
X56442182Y-82435050D01*
X56450946Y-82439516D01*
X56501742Y-82487491D01*
X56518536Y-82555312D01*
X56495998Y-82621447D01*
X56450946Y-82660484D01*
X56442182Y-82664949D01*
X56270213Y-82789890D01*
X56119890Y-82940213D01*
X55994951Y-83112179D01*
X55898444Y-83301585D01*
X55832753Y-83503760D01*
X55799500Y-83713713D01*
X55799500Y-83926286D01*
X55832753Y-84136239D01*
X55898444Y-84338414D01*
X55994951Y-84527820D01*
X56119890Y-84699786D01*
X56270213Y-84850109D01*
X56442182Y-84975050D01*
X56450946Y-84979516D01*
X56501742Y-85027491D01*
X56518536Y-85095312D01*
X56495998Y-85161447D01*
X56450946Y-85200484D01*
X56442182Y-85204949D01*
X56270213Y-85329890D01*
X56119890Y-85480213D01*
X55994951Y-85652179D01*
X55898444Y-85841585D01*
X55832753Y-86043760D01*
X55799500Y-86253713D01*
X55799500Y-86466286D01*
X55832753Y-86676239D01*
X55898444Y-86878414D01*
X55994951Y-87067820D01*
X56119890Y-87239786D01*
X56270213Y-87390109D01*
X56442182Y-87515050D01*
X56450946Y-87519516D01*
X56501742Y-87567491D01*
X56518536Y-87635312D01*
X56495998Y-87701447D01*
X56450946Y-87740484D01*
X56442182Y-87744949D01*
X56270213Y-87869890D01*
X56119890Y-88020213D01*
X55994951Y-88192179D01*
X55898444Y-88381585D01*
X55832753Y-88583760D01*
X55799500Y-88793713D01*
X55799500Y-89006286D01*
X55832753Y-89216239D01*
X55898444Y-89418414D01*
X55994951Y-89607820D01*
X56119890Y-89779786D01*
X56270213Y-89930109D01*
X56442182Y-90055050D01*
X56450946Y-90059516D01*
X56501742Y-90107491D01*
X56518536Y-90175312D01*
X56495998Y-90241447D01*
X56450946Y-90280484D01*
X56442182Y-90284949D01*
X56270213Y-90409890D01*
X56119890Y-90560213D01*
X55994951Y-90732179D01*
X55898444Y-90921585D01*
X55832753Y-91123760D01*
X55799500Y-91333713D01*
X55799500Y-91546286D01*
X55832753Y-91756239D01*
X55898444Y-91958414D01*
X55994951Y-92147820D01*
X56119890Y-92319786D01*
X56270213Y-92470109D01*
X56442182Y-92595050D01*
X56450946Y-92599516D01*
X56501742Y-92647491D01*
X56518536Y-92715312D01*
X56495998Y-92781447D01*
X56450946Y-92820484D01*
X56442182Y-92824949D01*
X56270213Y-92949890D01*
X56119890Y-93100213D01*
X55994951Y-93272179D01*
X55898444Y-93461585D01*
X55832753Y-93663760D01*
X55799500Y-93873713D01*
X55799500Y-94086286D01*
X55832753Y-94296239D01*
X55898444Y-94498414D01*
X55994951Y-94687820D01*
X56119890Y-94859786D01*
X56270213Y-95010109D01*
X56442182Y-95135050D01*
X56450946Y-95139516D01*
X56501742Y-95187491D01*
X56518536Y-95255312D01*
X56495998Y-95321447D01*
X56450946Y-95360484D01*
X56442182Y-95364949D01*
X56270213Y-95489890D01*
X56119890Y-95640213D01*
X55994951Y-95812179D01*
X55898444Y-96001585D01*
X55832753Y-96203760D01*
X55814422Y-96319500D01*
X55799500Y-96413713D01*
X55799500Y-96626287D01*
X55832754Y-96836243D01*
X55896868Y-97033566D01*
X55898444Y-97038414D01*
X55994951Y-97227820D01*
X56119890Y-97399786D01*
X56270213Y-97550109D01*
X56442182Y-97675050D01*
X56450946Y-97679516D01*
X56501742Y-97727491D01*
X56518536Y-97795312D01*
X56495998Y-97861447D01*
X56450946Y-97900484D01*
X56442182Y-97904949D01*
X56270213Y-98029890D01*
X56119890Y-98180213D01*
X55994951Y-98352179D01*
X55898444Y-98541585D01*
X55832753Y-98743760D01*
X55815642Y-98851797D01*
X55799500Y-98953713D01*
X55799500Y-99166287D01*
X55809534Y-99229644D01*
X55831339Y-99367314D01*
X55832754Y-99376243D01*
X55845160Y-99414426D01*
X55898444Y-99578414D01*
X55994951Y-99767820D01*
X56119890Y-99939786D01*
X56270213Y-100090109D01*
X56442179Y-100215048D01*
X56442181Y-100215049D01*
X56442184Y-100215051D01*
X56631588Y-100311557D01*
X56833757Y-100377246D01*
X57043713Y-100410500D01*
X57043714Y-100410500D01*
X57256286Y-100410500D01*
X57256287Y-100410500D01*
X57466243Y-100377246D01*
X57668412Y-100311557D01*
X57857816Y-100215051D01*
X57879789Y-100199086D01*
X58029786Y-100090109D01*
X58029788Y-100090106D01*
X58029792Y-100090104D01*
X58180104Y-99939792D01*
X58180106Y-99939788D01*
X58180109Y-99939786D01*
X58305048Y-99767820D01*
X58305047Y-99767820D01*
X58305051Y-99767816D01*
X58309514Y-99759054D01*
X58357488Y-99708259D01*
X58425308Y-99691463D01*
X58491444Y-99713999D01*
X58530486Y-99759056D01*
X58534951Y-99767820D01*
X58659890Y-99939786D01*
X58810213Y-100090109D01*
X58982179Y-100215048D01*
X58982181Y-100215049D01*
X58982184Y-100215051D01*
X59171588Y-100311557D01*
X59373757Y-100377246D01*
X59583713Y-100410500D01*
X59583714Y-100410500D01*
X59796286Y-100410500D01*
X59796287Y-100410500D01*
X60006243Y-100377246D01*
X60208412Y-100311557D01*
X60397816Y-100215051D01*
X60419789Y-100199086D01*
X60569786Y-100090109D01*
X60569788Y-100090106D01*
X60569792Y-100090104D01*
X60720104Y-99939792D01*
X60720106Y-99939788D01*
X60720109Y-99939786D01*
X60845048Y-99767820D01*
X60845047Y-99767820D01*
X60845051Y-99767816D01*
X60941557Y-99578412D01*
X61007246Y-99376243D01*
X61040500Y-99166287D01*
X61040500Y-98953713D01*
X61007246Y-98743757D01*
X60941557Y-98541588D01*
X60845051Y-98352184D01*
X60845049Y-98352181D01*
X60845048Y-98352179D01*
X60720109Y-98180213D01*
X60569786Y-98029890D01*
X60397820Y-97904951D01*
X60397115Y-97904591D01*
X60389054Y-97900485D01*
X60338259Y-97852512D01*
X60321463Y-97784692D01*
X60343999Y-97718556D01*
X60389054Y-97679515D01*
X60397816Y-97675051D01*
X60461407Y-97628850D01*
X60569786Y-97550109D01*
X60569788Y-97550106D01*
X60569792Y-97550104D01*
X60720104Y-97399792D01*
X60720106Y-97399788D01*
X60720109Y-97399786D01*
X60845048Y-97227820D01*
X60845047Y-97227820D01*
X60845051Y-97227816D01*
X60941557Y-97038412D01*
X61007246Y-96836243D01*
X61040500Y-96626287D01*
X61040500Y-96413713D01*
X61007246Y-96203757D01*
X60941557Y-96001588D01*
X60845051Y-95812184D01*
X60845049Y-95812181D01*
X60845048Y-95812179D01*
X60720109Y-95640213D01*
X60569786Y-95489890D01*
X60397820Y-95364951D01*
X60397115Y-95364591D01*
X60389054Y-95360485D01*
X60338259Y-95312512D01*
X60321463Y-95244692D01*
X60343999Y-95178556D01*
X60389054Y-95139515D01*
X60397816Y-95135051D01*
X60419789Y-95119086D01*
X60569786Y-95010109D01*
X60569788Y-95010106D01*
X60569792Y-95010104D01*
X60720104Y-94859792D01*
X60720106Y-94859788D01*
X60720109Y-94859786D01*
X60845048Y-94687820D01*
X60845047Y-94687820D01*
X60845051Y-94687816D01*
X60941557Y-94498412D01*
X61007246Y-94296243D01*
X61040500Y-94086287D01*
X61040500Y-93873713D01*
X61007246Y-93663757D01*
X60941557Y-93461588D01*
X60845051Y-93272184D01*
X60845049Y-93272181D01*
X60845048Y-93272179D01*
X60720109Y-93100213D01*
X60569786Y-92949890D01*
X60397820Y-92824951D01*
X60397115Y-92824591D01*
X60389054Y-92820485D01*
X60338259Y-92772512D01*
X60321463Y-92704692D01*
X60343999Y-92638556D01*
X60389054Y-92599515D01*
X60397816Y-92595051D01*
X60419789Y-92579086D01*
X60569786Y-92470109D01*
X60569788Y-92470106D01*
X60569792Y-92470104D01*
X60720104Y-92319792D01*
X60720106Y-92319788D01*
X60720109Y-92319786D01*
X60845048Y-92147820D01*
X60845047Y-92147820D01*
X60845051Y-92147816D01*
X60941557Y-91958412D01*
X61007246Y-91756243D01*
X61040500Y-91546287D01*
X61040500Y-91333713D01*
X61007246Y-91123757D01*
X60941557Y-90921588D01*
X60845051Y-90732184D01*
X60845049Y-90732181D01*
X60845048Y-90732179D01*
X60720109Y-90560213D01*
X60569786Y-90409890D01*
X60397820Y-90284951D01*
X60397115Y-90284591D01*
X60389054Y-90280485D01*
X60338259Y-90232512D01*
X60321463Y-90164692D01*
X60343999Y-90098556D01*
X60389054Y-90059515D01*
X60397816Y-90055051D01*
X60419789Y-90039086D01*
X60569786Y-89930109D01*
X60569788Y-89930106D01*
X60569792Y-89930104D01*
X60720104Y-89779792D01*
X60720106Y-89779788D01*
X60720109Y-89779786D01*
X60845048Y-89607820D01*
X60845047Y-89607820D01*
X60845051Y-89607816D01*
X60941557Y-89418412D01*
X61007246Y-89216243D01*
X61040500Y-89006287D01*
X61040500Y-88793713D01*
X61007246Y-88583757D01*
X60941557Y-88381588D01*
X60845051Y-88192184D01*
X60845049Y-88192181D01*
X60845048Y-88192179D01*
X60720109Y-88020213D01*
X60569786Y-87869890D01*
X60397820Y-87744951D01*
X60397115Y-87744591D01*
X60389054Y-87740485D01*
X60338259Y-87692512D01*
X60321463Y-87624692D01*
X60343999Y-87558556D01*
X60389054Y-87519515D01*
X60397816Y-87515051D01*
X60419789Y-87499086D01*
X60569786Y-87390109D01*
X60569788Y-87390106D01*
X60569792Y-87390104D01*
X60720104Y-87239792D01*
X60720106Y-87239788D01*
X60720109Y-87239786D01*
X60845048Y-87067820D01*
X60845047Y-87067820D01*
X60845051Y-87067816D01*
X60941557Y-86878412D01*
X61007246Y-86676243D01*
X61040500Y-86466287D01*
X61040500Y-86253713D01*
X61007246Y-86043757D01*
X60941557Y-85841588D01*
X60845051Y-85652184D01*
X60845049Y-85652181D01*
X60845048Y-85652179D01*
X60720109Y-85480213D01*
X60569786Y-85329890D01*
X60397820Y-85204951D01*
X60397115Y-85204591D01*
X60389054Y-85200485D01*
X60338259Y-85152512D01*
X60321463Y-85084692D01*
X60343999Y-85018556D01*
X60389054Y-84979515D01*
X60397816Y-84975051D01*
X60419789Y-84959086D01*
X60569786Y-84850109D01*
X60569788Y-84850106D01*
X60569792Y-84850104D01*
X60720104Y-84699792D01*
X60720106Y-84699788D01*
X60720109Y-84699786D01*
X60845048Y-84527820D01*
X60845047Y-84527820D01*
X60845051Y-84527816D01*
X60941557Y-84338412D01*
X61007246Y-84136243D01*
X61040500Y-83926287D01*
X61040500Y-83713713D01*
X61007246Y-83503757D01*
X60941557Y-83301588D01*
X60845051Y-83112184D01*
X60845049Y-83112181D01*
X60845048Y-83112179D01*
X60720109Y-82940213D01*
X60569786Y-82789890D01*
X60397820Y-82664951D01*
X60397115Y-82664591D01*
X60389054Y-82660485D01*
X60338259Y-82612512D01*
X60321463Y-82544692D01*
X60343999Y-82478556D01*
X60389054Y-82439515D01*
X60397816Y-82435051D01*
X60419789Y-82419086D01*
X60569786Y-82310109D01*
X60569788Y-82310106D01*
X60569792Y-82310104D01*
X60720104Y-82159792D01*
X60720106Y-82159788D01*
X60720109Y-82159786D01*
X60845048Y-81987820D01*
X60845047Y-81987820D01*
X60845051Y-81987816D01*
X60941557Y-81798412D01*
X61007246Y-81596243D01*
X61040500Y-81386287D01*
X61040500Y-81173713D01*
X61007246Y-80963757D01*
X60941557Y-80761588D01*
X60845051Y-80572184D01*
X60845049Y-80572181D01*
X60845048Y-80572179D01*
X60720109Y-80400213D01*
X60569786Y-80249890D01*
X60397820Y-80124951D01*
X60397115Y-80124591D01*
X60389054Y-80120485D01*
X60338259Y-80072512D01*
X60321463Y-80004692D01*
X60343999Y-79938556D01*
X60389054Y-79899515D01*
X60397816Y-79895051D01*
X60419789Y-79879086D01*
X60569786Y-79770109D01*
X60569788Y-79770106D01*
X60569792Y-79770104D01*
X60720104Y-79619792D01*
X60720106Y-79619788D01*
X60720109Y-79619786D01*
X60845048Y-79447820D01*
X60845047Y-79447820D01*
X60845051Y-79447816D01*
X60941557Y-79258412D01*
X61007246Y-79056243D01*
X61040500Y-78846287D01*
X61040500Y-78633713D01*
X61007246Y-78423757D01*
X60941557Y-78221588D01*
X60845051Y-78032184D01*
X60845049Y-78032181D01*
X60845048Y-78032179D01*
X60720109Y-77860213D01*
X60569786Y-77709890D01*
X60397820Y-77584951D01*
X60208414Y-77488444D01*
X60208413Y-77488443D01*
X60208412Y-77488443D01*
X60006243Y-77422754D01*
X60006241Y-77422753D01*
X60006240Y-77422753D01*
X59844957Y-77397208D01*
X59796287Y-77389500D01*
X59583713Y-77389500D01*
X59535042Y-77397208D01*
X59373760Y-77422753D01*
X59171585Y-77488444D01*
X58982179Y-77584951D01*
X58810213Y-77709890D01*
X58659890Y-77860213D01*
X58534949Y-78032182D01*
X58530484Y-78040946D01*
X58482509Y-78091742D01*
X58414688Y-78108536D01*
X58348553Y-78085998D01*
X58309516Y-78040946D01*
X58305050Y-78032182D01*
X58180109Y-77860213D01*
X58029786Y-77709890D01*
X57857820Y-77584951D01*
X57668414Y-77488444D01*
X57668413Y-77488443D01*
X57668412Y-77488443D01*
X57466243Y-77422754D01*
X57466241Y-77422753D01*
X57466240Y-77422753D01*
X57304957Y-77397208D01*
X57256287Y-77389500D01*
X57043713Y-77389500D01*
X56995042Y-77397208D01*
X56833760Y-77422753D01*
X56631585Y-77488444D01*
X56442179Y-77584951D01*
X56270213Y-77709890D01*
X56119890Y-77860213D01*
X55994951Y-78032179D01*
X55898444Y-78221585D01*
X55832753Y-78423760D01*
X55799500Y-78633713D01*
X40720500Y-78633713D01*
X40687246Y-78423757D01*
X40621557Y-78221588D01*
X40525051Y-78032184D01*
X40525049Y-78032181D01*
X40525048Y-78032179D01*
X40400109Y-77860213D01*
X40249786Y-77709890D01*
X40077820Y-77584951D01*
X40077115Y-77584591D01*
X40069054Y-77580485D01*
X40018259Y-77532512D01*
X40001463Y-77464692D01*
X40023999Y-77398556D01*
X40069054Y-77359515D01*
X40077816Y-77355051D01*
X40099789Y-77339086D01*
X40249786Y-77230109D01*
X40249788Y-77230106D01*
X40249792Y-77230104D01*
X40400104Y-77079792D01*
X40400106Y-77079788D01*
X40400109Y-77079786D01*
X40525048Y-76907820D01*
X40525047Y-76907820D01*
X40525051Y-76907816D01*
X40621557Y-76718412D01*
X40687246Y-76516243D01*
X40720500Y-76306287D01*
X40720500Y-76093713D01*
X40687246Y-75883757D01*
X40621557Y-75681588D01*
X40525051Y-75492184D01*
X40525049Y-75492181D01*
X40525048Y-75492179D01*
X40400109Y-75320213D01*
X40286569Y-75206673D01*
X40253084Y-75145350D01*
X40258068Y-75075658D01*
X40299940Y-75019725D01*
X40330915Y-75002810D01*
X40462331Y-74953796D01*
X40577546Y-74867546D01*
X40663796Y-74752331D01*
X40714091Y-74617483D01*
X40720500Y-74557873D01*
X40720499Y-72762128D01*
X40714091Y-72702517D01*
X40664719Y-72570145D01*
X40663797Y-72567671D01*
X40663793Y-72567664D01*
X40577547Y-72452455D01*
X40577544Y-72452452D01*
X40462335Y-72366206D01*
X40462328Y-72366202D01*
X40327482Y-72315908D01*
X40327483Y-72315908D01*
X40267883Y-72309501D01*
X40267881Y-72309500D01*
X40267873Y-72309500D01*
X40267864Y-72309500D01*
X38472129Y-72309500D01*
X38472123Y-72309501D01*
X38412516Y-72315908D01*
X38277671Y-72366202D01*
X38277664Y-72366206D01*
X38162455Y-72452452D01*
X38162452Y-72452455D01*
X38076206Y-72567664D01*
X38076202Y-72567671D01*
X38025908Y-72702517D01*
X38019501Y-72762116D01*
X38019501Y-72762123D01*
X38019500Y-72762135D01*
X24614426Y-72762135D01*
X24620460Y-54982135D01*
X38019500Y-54982135D01*
X38019500Y-56777870D01*
X38019501Y-56777876D01*
X38025908Y-56837483D01*
X38076202Y-56972328D01*
X38076206Y-56972335D01*
X38162452Y-57087544D01*
X38162455Y-57087547D01*
X38277664Y-57173793D01*
X38277671Y-57173797D01*
X38409082Y-57222810D01*
X38465016Y-57264681D01*
X38489433Y-57330145D01*
X38474582Y-57398418D01*
X38453431Y-57426673D01*
X38339889Y-57540215D01*
X38214951Y-57712179D01*
X38118444Y-57901585D01*
X38052753Y-58103760D01*
X38019500Y-58313713D01*
X38019500Y-58526286D01*
X38052753Y-58736239D01*
X38118444Y-58938414D01*
X38214951Y-59127820D01*
X38339890Y-59299786D01*
X38490213Y-59450109D01*
X38662182Y-59575050D01*
X38670946Y-59579516D01*
X38721742Y-59627491D01*
X38738536Y-59695312D01*
X38715998Y-59761447D01*
X38670946Y-59800484D01*
X38662182Y-59804949D01*
X38490213Y-59929890D01*
X38339890Y-60080213D01*
X38214951Y-60252179D01*
X38118444Y-60441585D01*
X38052753Y-60643760D01*
X38019500Y-60853713D01*
X38019500Y-61066286D01*
X38052753Y-61276239D01*
X38118444Y-61478414D01*
X38214951Y-61667820D01*
X38339890Y-61839786D01*
X38490213Y-61990109D01*
X38662179Y-62115048D01*
X38662181Y-62115049D01*
X38662184Y-62115051D01*
X38851588Y-62211557D01*
X39053757Y-62277246D01*
X39263713Y-62310500D01*
X39263714Y-62310500D01*
X39476286Y-62310500D01*
X39476287Y-62310500D01*
X39686243Y-62277246D01*
X39888412Y-62211557D01*
X40077816Y-62115051D01*
X40099789Y-62099086D01*
X40249786Y-61990109D01*
X40249788Y-61990106D01*
X40249792Y-61990104D01*
X40400104Y-61839792D01*
X40400106Y-61839788D01*
X40400109Y-61839786D01*
X40525048Y-61667820D01*
X40525047Y-61667820D01*
X40525051Y-61667816D01*
X40621557Y-61478412D01*
X40687246Y-61276243D01*
X40720500Y-61066287D01*
X40720500Y-60853713D01*
X40687246Y-60643757D01*
X40621557Y-60441588D01*
X40525051Y-60252184D01*
X40525049Y-60252181D01*
X40525048Y-60252179D01*
X40400109Y-60080213D01*
X40249786Y-59929890D01*
X40077820Y-59804951D01*
X40077115Y-59804591D01*
X40069054Y-59800485D01*
X40018259Y-59752512D01*
X40001463Y-59684692D01*
X40023999Y-59618556D01*
X40069054Y-59579515D01*
X40077816Y-59575051D01*
X40099789Y-59559086D01*
X40249786Y-59450109D01*
X40249788Y-59450106D01*
X40249792Y-59450104D01*
X40400104Y-59299792D01*
X40400106Y-59299788D01*
X40400109Y-59299786D01*
X40525048Y-59127820D01*
X40525047Y-59127820D01*
X40525051Y-59127816D01*
X40621557Y-58938412D01*
X40687246Y-58736243D01*
X40720500Y-58526287D01*
X40720500Y-58313713D01*
X40687246Y-58103757D01*
X40621557Y-57901588D01*
X40525051Y-57712184D01*
X40525049Y-57712181D01*
X40525048Y-57712179D01*
X40400109Y-57540213D01*
X40286569Y-57426673D01*
X40253084Y-57365350D01*
X40258068Y-57295658D01*
X40299940Y-57239725D01*
X40330915Y-57222810D01*
X40462331Y-57173796D01*
X40577546Y-57087546D01*
X40663796Y-56972331D01*
X40714091Y-56837483D01*
X40720500Y-56777873D01*
X40720499Y-54982128D01*
X40714091Y-54922517D01*
X40679180Y-54828917D01*
X40663797Y-54787671D01*
X40663793Y-54787664D01*
X40577547Y-54672455D01*
X40577544Y-54672452D01*
X40462335Y-54586206D01*
X40462328Y-54586202D01*
X40327482Y-54535908D01*
X40327483Y-54535908D01*
X40267883Y-54529501D01*
X40267881Y-54529500D01*
X40267873Y-54529500D01*
X40267864Y-54529500D01*
X38472129Y-54529500D01*
X38472123Y-54529501D01*
X38412516Y-54535908D01*
X38277671Y-54586202D01*
X38277664Y-54586206D01*
X38162455Y-54672452D01*
X38162452Y-54672455D01*
X38076206Y-54787664D01*
X38076202Y-54787671D01*
X38025908Y-54922517D01*
X38021288Y-54965495D01*
X38019501Y-54982123D01*
X38019500Y-54982135D01*
X24620460Y-54982135D01*
X24621322Y-52442135D01*
X55799500Y-52442135D01*
X55799500Y-54237870D01*
X55799501Y-54237876D01*
X55805908Y-54297483D01*
X55856202Y-54432328D01*
X55856206Y-54432335D01*
X55942452Y-54547544D01*
X55942455Y-54547547D01*
X56057664Y-54633793D01*
X56057671Y-54633797D01*
X56189082Y-54682810D01*
X56245016Y-54724681D01*
X56269433Y-54790145D01*
X56254582Y-54858418D01*
X56233431Y-54886673D01*
X56119889Y-55000215D01*
X55994951Y-55172179D01*
X55898444Y-55361585D01*
X55832753Y-55563760D01*
X55799500Y-55773713D01*
X55799500Y-55986286D01*
X55832742Y-56196172D01*
X55832754Y-56196243D01*
X55885447Y-56358416D01*
X55898444Y-56398414D01*
X55994951Y-56587820D01*
X56119890Y-56759786D01*
X56270213Y-56910109D01*
X56442182Y-57035050D01*
X56450946Y-57039516D01*
X56501742Y-57087491D01*
X56518536Y-57155312D01*
X56495998Y-57221447D01*
X56450946Y-57260484D01*
X56442182Y-57264949D01*
X56270213Y-57389890D01*
X56119890Y-57540213D01*
X55994951Y-57712179D01*
X55898444Y-57901585D01*
X55832753Y-58103760D01*
X55799500Y-58313713D01*
X55799500Y-58526286D01*
X55832753Y-58736239D01*
X55898444Y-58938414D01*
X55994951Y-59127820D01*
X56119890Y-59299786D01*
X56270213Y-59450109D01*
X56442182Y-59575050D01*
X56450946Y-59579516D01*
X56501742Y-59627491D01*
X56518536Y-59695312D01*
X56495998Y-59761447D01*
X56450946Y-59800484D01*
X56442182Y-59804949D01*
X56270213Y-59929890D01*
X56119890Y-60080213D01*
X55994951Y-60252179D01*
X55898444Y-60441585D01*
X55832753Y-60643760D01*
X55799500Y-60853713D01*
X55799500Y-61066286D01*
X55832753Y-61276239D01*
X55898444Y-61478414D01*
X55994951Y-61667820D01*
X56119890Y-61839786D01*
X56270213Y-61990109D01*
X56442182Y-62115050D01*
X56450946Y-62119516D01*
X56501742Y-62167491D01*
X56518536Y-62235312D01*
X56495998Y-62301447D01*
X56450946Y-62340484D01*
X56442182Y-62344949D01*
X56270213Y-62469890D01*
X56119890Y-62620213D01*
X55994951Y-62792179D01*
X55898444Y-62981585D01*
X55832753Y-63183760D01*
X55799500Y-63393713D01*
X55799500Y-63606286D01*
X55832753Y-63816239D01*
X55898444Y-64018414D01*
X55994951Y-64207820D01*
X56119890Y-64379786D01*
X56270213Y-64530109D01*
X56442182Y-64655050D01*
X56450946Y-64659516D01*
X56501742Y-64707491D01*
X56518536Y-64775312D01*
X56495998Y-64841447D01*
X56450946Y-64880484D01*
X56442182Y-64884949D01*
X56270213Y-65009890D01*
X56119890Y-65160213D01*
X55994951Y-65332179D01*
X55898444Y-65521585D01*
X55832753Y-65723760D01*
X55799500Y-65933713D01*
X55799500Y-66146286D01*
X55832753Y-66356239D01*
X55898444Y-66558414D01*
X55994951Y-66747820D01*
X56119890Y-66919786D01*
X56270213Y-67070109D01*
X56442182Y-67195050D01*
X56450946Y-67199516D01*
X56501742Y-67247491D01*
X56518536Y-67315312D01*
X56495998Y-67381447D01*
X56450946Y-67420484D01*
X56442182Y-67424949D01*
X56270213Y-67549890D01*
X56119890Y-67700213D01*
X55994951Y-67872179D01*
X55898444Y-68061585D01*
X55832753Y-68263760D01*
X55799500Y-68473713D01*
X55799500Y-68686286D01*
X55832753Y-68896239D01*
X55898444Y-69098414D01*
X55994951Y-69287820D01*
X56119890Y-69459786D01*
X56270213Y-69610109D01*
X56442182Y-69735050D01*
X56450946Y-69739516D01*
X56501742Y-69787491D01*
X56518536Y-69855312D01*
X56495998Y-69921447D01*
X56450946Y-69960484D01*
X56442182Y-69964949D01*
X56270213Y-70089890D01*
X56119890Y-70240213D01*
X55994951Y-70412179D01*
X55898444Y-70601585D01*
X55832753Y-70803760D01*
X55799500Y-71013713D01*
X55799500Y-71226286D01*
X55832753Y-71436239D01*
X55898444Y-71638414D01*
X55994951Y-71827820D01*
X56119890Y-71999786D01*
X56270213Y-72150109D01*
X56442182Y-72275050D01*
X56450946Y-72279516D01*
X56501742Y-72327491D01*
X56518536Y-72395312D01*
X56495998Y-72461447D01*
X56450946Y-72500484D01*
X56442182Y-72504949D01*
X56270213Y-72629890D01*
X56119890Y-72780213D01*
X55994951Y-72952179D01*
X55898444Y-73141585D01*
X55832753Y-73343760D01*
X55799500Y-73553713D01*
X55799500Y-73766286D01*
X55832753Y-73976239D01*
X55898444Y-74178414D01*
X55994951Y-74367820D01*
X56119890Y-74539786D01*
X56270213Y-74690109D01*
X56442179Y-74815048D01*
X56442181Y-74815049D01*
X56442184Y-74815051D01*
X56631588Y-74911557D01*
X56833757Y-74977246D01*
X57043713Y-75010500D01*
X57043714Y-75010500D01*
X57256286Y-75010500D01*
X57256287Y-75010500D01*
X57466243Y-74977246D01*
X57668412Y-74911557D01*
X57857816Y-74815051D01*
X57944138Y-74752335D01*
X58029786Y-74690109D01*
X58029788Y-74690106D01*
X58029792Y-74690104D01*
X58180104Y-74539792D01*
X58180106Y-74539788D01*
X58180109Y-74539786D01*
X58305048Y-74367820D01*
X58305047Y-74367820D01*
X58305051Y-74367816D01*
X58309514Y-74359054D01*
X58357488Y-74308259D01*
X58425308Y-74291463D01*
X58491444Y-74313999D01*
X58530486Y-74359056D01*
X58534951Y-74367820D01*
X58659890Y-74539786D01*
X58810213Y-74690109D01*
X58982179Y-74815048D01*
X58982181Y-74815049D01*
X58982184Y-74815051D01*
X59171588Y-74911557D01*
X59373757Y-74977246D01*
X59583713Y-75010500D01*
X59583714Y-75010500D01*
X59796286Y-75010500D01*
X59796287Y-75010500D01*
X60006243Y-74977246D01*
X60208412Y-74911557D01*
X60397816Y-74815051D01*
X60484138Y-74752335D01*
X60569786Y-74690109D01*
X60569788Y-74690106D01*
X60569792Y-74690104D01*
X60720104Y-74539792D01*
X60720106Y-74539788D01*
X60720109Y-74539786D01*
X60845048Y-74367820D01*
X60845047Y-74367820D01*
X60845051Y-74367816D01*
X60941557Y-74178412D01*
X61007246Y-73976243D01*
X61040500Y-73766287D01*
X61040500Y-73553713D01*
X61007246Y-73343757D01*
X60941557Y-73141588D01*
X60845051Y-72952184D01*
X60845049Y-72952181D01*
X60845048Y-72952179D01*
X60720109Y-72780213D01*
X60569786Y-72629890D01*
X60397820Y-72504951D01*
X60397115Y-72504591D01*
X60389054Y-72500485D01*
X60338259Y-72452512D01*
X60321463Y-72384692D01*
X60343999Y-72318556D01*
X60389054Y-72279515D01*
X60397816Y-72275051D01*
X60484138Y-72212335D01*
X60569786Y-72150109D01*
X60569788Y-72150106D01*
X60569792Y-72150104D01*
X60720104Y-71999792D01*
X60720108Y-71999786D01*
X60776903Y-71921615D01*
X60832233Y-71878949D01*
X60877221Y-71870500D01*
X61867770Y-71870500D01*
X61934809Y-71890185D01*
X61955451Y-71906819D01*
X62852227Y-72803595D01*
X62885712Y-72864918D01*
X62887019Y-72910674D01*
X62884500Y-72926578D01*
X62884500Y-73123422D01*
X62915290Y-73317826D01*
X62976117Y-73505029D01*
X63053645Y-73657186D01*
X63065476Y-73680405D01*
X63181172Y-73839646D01*
X63320354Y-73978828D01*
X63479595Y-74094524D01*
X63532833Y-74121650D01*
X63654970Y-74183882D01*
X63654972Y-74183882D01*
X63654975Y-74183884D01*
X63755317Y-74216487D01*
X63842173Y-74244709D01*
X64036578Y-74275500D01*
X64036583Y-74275500D01*
X64233422Y-74275500D01*
X64427826Y-74244709D01*
X64615025Y-74183884D01*
X64790405Y-74094524D01*
X64949646Y-73978828D01*
X65088828Y-73839646D01*
X65098297Y-73826612D01*
X65153628Y-73783948D01*
X65198614Y-73775500D01*
X66748920Y-73775500D01*
X66846462Y-73756096D01*
X66893913Y-73746658D01*
X67030495Y-73690084D01*
X67079729Y-73657186D01*
X67153416Y-73607952D01*
X70432952Y-70328416D01*
X70482186Y-70254729D01*
X70515084Y-70205495D01*
X70571658Y-70068913D01*
X70593226Y-69960486D01*
X70600500Y-69923920D01*
X70600500Y-52442135D01*
X76119500Y-52442135D01*
X76119500Y-54237870D01*
X76119501Y-54237876D01*
X76125908Y-54297483D01*
X76176202Y-54432328D01*
X76176206Y-54432335D01*
X76262452Y-54547544D01*
X76262455Y-54547547D01*
X76377664Y-54633793D01*
X76377671Y-54633797D01*
X76509082Y-54682810D01*
X76565016Y-54724681D01*
X76589433Y-54790145D01*
X76574582Y-54858418D01*
X76553431Y-54886673D01*
X76439889Y-55000215D01*
X76314951Y-55172179D01*
X76218444Y-55361585D01*
X76152753Y-55563760D01*
X76119500Y-55773713D01*
X76119500Y-55986286D01*
X76152742Y-56196172D01*
X76152754Y-56196243D01*
X76205447Y-56358416D01*
X76218444Y-56398414D01*
X76314951Y-56587820D01*
X76439890Y-56759786D01*
X76590213Y-56910109D01*
X76762182Y-57035050D01*
X76770946Y-57039516D01*
X76821742Y-57087491D01*
X76838536Y-57155312D01*
X76815998Y-57221447D01*
X76770946Y-57260484D01*
X76762182Y-57264949D01*
X76590213Y-57389890D01*
X76439890Y-57540213D01*
X76314951Y-57712179D01*
X76218444Y-57901585D01*
X76152753Y-58103760D01*
X76119500Y-58313713D01*
X76119500Y-58526286D01*
X76152753Y-58736239D01*
X76218444Y-58938414D01*
X76314951Y-59127820D01*
X76439890Y-59299786D01*
X76590213Y-59450109D01*
X76762182Y-59575050D01*
X76770946Y-59579516D01*
X76821742Y-59627491D01*
X76838536Y-59695312D01*
X76815998Y-59761447D01*
X76770946Y-59800484D01*
X76762182Y-59804949D01*
X76590213Y-59929890D01*
X76439890Y-60080213D01*
X76314951Y-60252179D01*
X76218444Y-60441585D01*
X76152753Y-60643760D01*
X76119500Y-60853713D01*
X76119500Y-61066286D01*
X76152753Y-61276239D01*
X76218444Y-61478414D01*
X76314951Y-61667820D01*
X76439890Y-61839786D01*
X76590213Y-61990109D01*
X76762182Y-62115050D01*
X76770946Y-62119516D01*
X76821742Y-62167491D01*
X76838536Y-62235312D01*
X76815998Y-62301447D01*
X76770946Y-62340484D01*
X76762182Y-62344949D01*
X76590213Y-62469890D01*
X76439890Y-62620213D01*
X76314951Y-62792179D01*
X76218444Y-62981585D01*
X76152753Y-63183760D01*
X76119500Y-63393713D01*
X76119500Y-63606286D01*
X76152753Y-63816239D01*
X76218444Y-64018414D01*
X76314951Y-64207820D01*
X76439890Y-64379786D01*
X76590213Y-64530109D01*
X76762182Y-64655050D01*
X76770946Y-64659516D01*
X76821742Y-64707491D01*
X76838536Y-64775312D01*
X76815998Y-64841447D01*
X76770946Y-64880484D01*
X76762182Y-64884949D01*
X76590213Y-65009890D01*
X76439890Y-65160213D01*
X76314951Y-65332179D01*
X76218444Y-65521585D01*
X76152753Y-65723760D01*
X76119500Y-65933713D01*
X76119500Y-66146286D01*
X76152753Y-66356239D01*
X76218444Y-66558414D01*
X76314951Y-66747820D01*
X76439890Y-66919786D01*
X76590213Y-67070109D01*
X76762182Y-67195050D01*
X76770946Y-67199516D01*
X76821742Y-67247491D01*
X76838536Y-67315312D01*
X76815998Y-67381447D01*
X76770946Y-67420484D01*
X76762182Y-67424949D01*
X76590213Y-67549890D01*
X76439890Y-67700213D01*
X76314951Y-67872179D01*
X76218444Y-68061585D01*
X76152753Y-68263760D01*
X76119500Y-68473713D01*
X76119500Y-68686286D01*
X76152753Y-68896239D01*
X76218444Y-69098414D01*
X76314951Y-69287820D01*
X76439890Y-69459786D01*
X76590213Y-69610109D01*
X76762179Y-69735048D01*
X76762181Y-69735049D01*
X76762184Y-69735051D01*
X76951588Y-69831557D01*
X77153757Y-69897246D01*
X77363713Y-69930500D01*
X77363714Y-69930500D01*
X77576286Y-69930500D01*
X77576287Y-69930500D01*
X77786243Y-69897246D01*
X77988412Y-69831557D01*
X78177816Y-69735051D01*
X78199789Y-69719086D01*
X78349786Y-69610109D01*
X78349788Y-69610106D01*
X78349792Y-69610104D01*
X78500104Y-69459792D01*
X78500106Y-69459788D01*
X78500109Y-69459786D01*
X78625048Y-69287820D01*
X78625047Y-69287820D01*
X78625051Y-69287816D01*
X78721557Y-69098412D01*
X78787246Y-68896243D01*
X78820500Y-68686287D01*
X78820500Y-68473713D01*
X78787246Y-68263757D01*
X78721557Y-68061588D01*
X78625051Y-67872184D01*
X78625049Y-67872181D01*
X78625048Y-67872179D01*
X78500109Y-67700213D01*
X78349786Y-67549890D01*
X78177820Y-67424951D01*
X78177115Y-67424591D01*
X78169054Y-67420485D01*
X78118259Y-67372512D01*
X78101463Y-67304692D01*
X78123999Y-67238556D01*
X78169054Y-67199515D01*
X78177816Y-67195051D01*
X78199789Y-67179086D01*
X78349786Y-67070109D01*
X78349788Y-67070106D01*
X78349792Y-67070104D01*
X78500104Y-66919792D01*
X78500106Y-66919788D01*
X78500109Y-66919786D01*
X78625048Y-66747820D01*
X78625047Y-66747820D01*
X78625051Y-66747816D01*
X78721557Y-66558412D01*
X78787246Y-66356243D01*
X78820500Y-66146287D01*
X78820500Y-65933713D01*
X78787246Y-65723757D01*
X78721557Y-65521588D01*
X78625051Y-65332184D01*
X78625049Y-65332181D01*
X78625048Y-65332179D01*
X78500109Y-65160213D01*
X78349786Y-65009890D01*
X78177820Y-64884951D01*
X78177115Y-64884591D01*
X78169054Y-64880485D01*
X78118259Y-64832512D01*
X78101463Y-64764692D01*
X78123999Y-64698556D01*
X78169054Y-64659515D01*
X78177816Y-64655051D01*
X78199789Y-64639086D01*
X78349786Y-64530109D01*
X78349788Y-64530106D01*
X78349792Y-64530104D01*
X78500104Y-64379792D01*
X78500106Y-64379788D01*
X78500109Y-64379786D01*
X78625048Y-64207820D01*
X78625047Y-64207820D01*
X78625051Y-64207816D01*
X78721557Y-64018412D01*
X78787246Y-63816243D01*
X78820500Y-63606287D01*
X78820500Y-63393713D01*
X78787246Y-63183757D01*
X78721557Y-62981588D01*
X78625051Y-62792184D01*
X78625049Y-62792181D01*
X78625048Y-62792179D01*
X78500109Y-62620213D01*
X78349786Y-62469890D01*
X78177820Y-62344951D01*
X78177115Y-62344591D01*
X78169054Y-62340485D01*
X78118259Y-62292512D01*
X78101463Y-62224692D01*
X78123999Y-62158556D01*
X78169054Y-62119515D01*
X78177816Y-62115051D01*
X78199789Y-62099086D01*
X78349786Y-61990109D01*
X78349788Y-61990106D01*
X78349792Y-61990104D01*
X78500104Y-61839792D01*
X78500106Y-61839788D01*
X78500109Y-61839786D01*
X78625048Y-61667820D01*
X78625047Y-61667820D01*
X78625051Y-61667816D01*
X78721557Y-61478412D01*
X78787246Y-61276243D01*
X78820500Y-61066287D01*
X78820500Y-60853713D01*
X78787246Y-60643757D01*
X78721557Y-60441588D01*
X78625051Y-60252184D01*
X78625049Y-60252181D01*
X78625048Y-60252179D01*
X78500109Y-60080213D01*
X78349786Y-59929890D01*
X78177820Y-59804951D01*
X78177115Y-59804591D01*
X78169054Y-59800485D01*
X78118259Y-59752512D01*
X78101463Y-59684692D01*
X78123999Y-59618556D01*
X78169054Y-59579515D01*
X78177816Y-59575051D01*
X78199789Y-59559086D01*
X78349786Y-59450109D01*
X78349788Y-59450106D01*
X78349792Y-59450104D01*
X78500104Y-59299792D01*
X78500106Y-59299788D01*
X78500109Y-59299786D01*
X78625048Y-59127820D01*
X78625047Y-59127820D01*
X78625051Y-59127816D01*
X78721557Y-58938412D01*
X78787246Y-58736243D01*
X78820500Y-58526287D01*
X78820500Y-58313713D01*
X78787246Y-58103757D01*
X78721557Y-57901588D01*
X78625051Y-57712184D01*
X78625049Y-57712181D01*
X78625048Y-57712179D01*
X78500109Y-57540213D01*
X78349786Y-57389890D01*
X78177820Y-57264951D01*
X78177115Y-57264591D01*
X78169054Y-57260485D01*
X78118259Y-57212512D01*
X78101463Y-57144692D01*
X78123999Y-57078556D01*
X78169054Y-57039515D01*
X78177816Y-57035051D01*
X78264138Y-56972335D01*
X78349786Y-56910109D01*
X78349788Y-56910106D01*
X78349792Y-56910104D01*
X78500104Y-56759792D01*
X78500106Y-56759788D01*
X78500109Y-56759786D01*
X78625048Y-56587820D01*
X78625047Y-56587820D01*
X78625051Y-56587816D01*
X78721557Y-56398412D01*
X78787246Y-56196243D01*
X78820500Y-55986287D01*
X78820500Y-55773713D01*
X78787246Y-55563757D01*
X78721557Y-55361588D01*
X78625051Y-55172184D01*
X78625049Y-55172181D01*
X78625048Y-55172179D01*
X78500109Y-55000213D01*
X78386569Y-54886673D01*
X78353084Y-54825350D01*
X78358068Y-54755658D01*
X78399940Y-54699725D01*
X78430915Y-54682810D01*
X78562331Y-54633796D01*
X78677546Y-54547546D01*
X78763796Y-54432331D01*
X78814091Y-54297483D01*
X78820500Y-54237873D01*
X78820499Y-52442135D01*
X101519500Y-52442135D01*
X101519500Y-54237870D01*
X101519501Y-54237876D01*
X101525908Y-54297483D01*
X101576202Y-54432328D01*
X101576206Y-54432335D01*
X101662452Y-54547544D01*
X101662455Y-54547547D01*
X101777664Y-54633793D01*
X101777671Y-54633797D01*
X101909082Y-54682810D01*
X101965016Y-54724681D01*
X101989433Y-54790145D01*
X101974582Y-54858418D01*
X101953431Y-54886673D01*
X101839889Y-55000215D01*
X101714951Y-55172179D01*
X101618444Y-55361585D01*
X101552753Y-55563760D01*
X101519500Y-55773713D01*
X101519500Y-55986286D01*
X101552742Y-56196172D01*
X101552754Y-56196243D01*
X101605447Y-56358416D01*
X101618444Y-56398414D01*
X101714951Y-56587820D01*
X101839890Y-56759786D01*
X101990213Y-56910109D01*
X102162182Y-57035050D01*
X102170946Y-57039516D01*
X102221742Y-57087491D01*
X102238536Y-57155312D01*
X102215998Y-57221447D01*
X102170946Y-57260484D01*
X102162182Y-57264949D01*
X101990213Y-57389890D01*
X101839890Y-57540213D01*
X101714951Y-57712179D01*
X101618444Y-57901585D01*
X101552753Y-58103760D01*
X101519500Y-58313713D01*
X101519500Y-58526286D01*
X101552753Y-58736239D01*
X101618444Y-58938414D01*
X101714951Y-59127820D01*
X101839890Y-59299786D01*
X101990213Y-59450109D01*
X102162182Y-59575050D01*
X102170946Y-59579516D01*
X102221742Y-59627491D01*
X102238536Y-59695312D01*
X102215998Y-59761447D01*
X102170946Y-59800484D01*
X102162182Y-59804949D01*
X101990213Y-59929890D01*
X101839890Y-60080213D01*
X101714951Y-60252179D01*
X101618444Y-60441585D01*
X101552753Y-60643760D01*
X101519500Y-60853713D01*
X101519500Y-61066286D01*
X101552753Y-61276239D01*
X101618444Y-61478414D01*
X101714951Y-61667820D01*
X101839890Y-61839786D01*
X101990213Y-61990109D01*
X102162182Y-62115050D01*
X102170946Y-62119516D01*
X102221742Y-62167491D01*
X102238536Y-62235312D01*
X102215998Y-62301447D01*
X102170946Y-62340484D01*
X102162182Y-62344949D01*
X101990213Y-62469890D01*
X101839890Y-62620213D01*
X101714951Y-62792179D01*
X101618444Y-62981585D01*
X101552753Y-63183760D01*
X101519500Y-63393713D01*
X101519500Y-63606286D01*
X101552753Y-63816239D01*
X101618444Y-64018414D01*
X101714951Y-64207820D01*
X101839890Y-64379786D01*
X101990213Y-64530109D01*
X102162182Y-64655050D01*
X102170946Y-64659516D01*
X102221742Y-64707491D01*
X102238536Y-64775312D01*
X102215998Y-64841447D01*
X102170946Y-64880484D01*
X102162182Y-64884949D01*
X101990213Y-65009890D01*
X101839890Y-65160213D01*
X101714951Y-65332179D01*
X101618444Y-65521585D01*
X101552753Y-65723760D01*
X101519500Y-65933713D01*
X101519500Y-66146286D01*
X101552753Y-66356239D01*
X101618444Y-66558414D01*
X101714951Y-66747820D01*
X101839890Y-66919786D01*
X101990213Y-67070109D01*
X102162182Y-67195050D01*
X102170946Y-67199516D01*
X102221742Y-67247491D01*
X102238536Y-67315312D01*
X102215998Y-67381447D01*
X102170946Y-67420484D01*
X102162182Y-67424949D01*
X101990213Y-67549890D01*
X101839890Y-67700213D01*
X101714951Y-67872179D01*
X101618444Y-68061585D01*
X101552753Y-68263760D01*
X101519500Y-68473713D01*
X101519500Y-68686286D01*
X101552753Y-68896239D01*
X101618444Y-69098414D01*
X101714951Y-69287820D01*
X101839890Y-69459786D01*
X101990213Y-69610109D01*
X102162182Y-69735050D01*
X102170946Y-69739516D01*
X102221742Y-69787491D01*
X102238536Y-69855312D01*
X102215998Y-69921447D01*
X102170946Y-69960484D01*
X102162182Y-69964949D01*
X101990213Y-70089890D01*
X101839890Y-70240213D01*
X101714951Y-70412179D01*
X101618444Y-70601585D01*
X101552753Y-70803760D01*
X101519500Y-71013713D01*
X101519500Y-71226286D01*
X101552753Y-71436239D01*
X101618444Y-71638414D01*
X101714951Y-71827820D01*
X101839890Y-71999786D01*
X101990213Y-72150109D01*
X102162182Y-72275050D01*
X102170946Y-72279516D01*
X102221742Y-72327491D01*
X102238536Y-72395312D01*
X102215998Y-72461447D01*
X102170946Y-72500484D01*
X102162182Y-72504949D01*
X101990213Y-72629890D01*
X101839890Y-72780213D01*
X101714951Y-72952179D01*
X101618444Y-73141585D01*
X101552753Y-73343760D01*
X101519500Y-73553713D01*
X101519500Y-73766286D01*
X101552753Y-73976239D01*
X101618444Y-74178414D01*
X101714951Y-74367820D01*
X101839890Y-74539786D01*
X101990213Y-74690109D01*
X102162179Y-74815048D01*
X102162181Y-74815049D01*
X102162184Y-74815051D01*
X102351588Y-74911557D01*
X102553757Y-74977246D01*
X102763713Y-75010500D01*
X102763714Y-75010500D01*
X102976286Y-75010500D01*
X102976287Y-75010500D01*
X103186243Y-74977246D01*
X103388412Y-74911557D01*
X103577816Y-74815051D01*
X103664138Y-74752335D01*
X103749786Y-74690109D01*
X103749788Y-74690106D01*
X103749792Y-74690104D01*
X103900104Y-74539792D01*
X103900106Y-74539788D01*
X103900109Y-74539786D01*
X104025048Y-74367820D01*
X104025047Y-74367820D01*
X104025051Y-74367816D01*
X104121557Y-74178412D01*
X104187246Y-73976243D01*
X104220500Y-73766287D01*
X104220500Y-73553713D01*
X104187246Y-73343757D01*
X104121557Y-73141588D01*
X104025051Y-72952184D01*
X104025049Y-72952181D01*
X104025048Y-72952179D01*
X103900109Y-72780213D01*
X103749786Y-72629890D01*
X103577820Y-72504951D01*
X103577115Y-72504591D01*
X103569054Y-72500485D01*
X103518259Y-72452512D01*
X103501463Y-72384692D01*
X103523999Y-72318556D01*
X103569054Y-72279515D01*
X103577816Y-72275051D01*
X103664138Y-72212335D01*
X103749786Y-72150109D01*
X103749788Y-72150106D01*
X103749792Y-72150104D01*
X103900104Y-71999792D01*
X103900106Y-71999788D01*
X103900109Y-71999786D01*
X104025048Y-71827820D01*
X104025047Y-71827820D01*
X104025051Y-71827816D01*
X104121557Y-71638412D01*
X104187246Y-71436243D01*
X104220500Y-71226287D01*
X104220500Y-71013713D01*
X104187246Y-70803757D01*
X104121557Y-70601588D01*
X104025051Y-70412184D01*
X104025049Y-70412181D01*
X104025048Y-70412179D01*
X103900109Y-70240213D01*
X103749786Y-70089890D01*
X103577820Y-69964951D01*
X103577115Y-69964591D01*
X103569054Y-69960485D01*
X103518259Y-69912512D01*
X103501463Y-69844692D01*
X103523999Y-69778556D01*
X103569054Y-69739515D01*
X103577816Y-69735051D01*
X103599789Y-69719086D01*
X103749786Y-69610109D01*
X103749788Y-69610106D01*
X103749792Y-69610104D01*
X103900104Y-69459792D01*
X103900106Y-69459788D01*
X103900109Y-69459786D01*
X104025048Y-69287820D01*
X104025047Y-69287820D01*
X104025051Y-69287816D01*
X104121557Y-69098412D01*
X104187246Y-68896243D01*
X104220500Y-68686287D01*
X104220500Y-68473713D01*
X104187246Y-68263757D01*
X104121557Y-68061588D01*
X104025051Y-67872184D01*
X104025049Y-67872181D01*
X104025048Y-67872179D01*
X103900109Y-67700213D01*
X103749786Y-67549890D01*
X103577820Y-67424951D01*
X103577115Y-67424591D01*
X103569054Y-67420485D01*
X103518259Y-67372512D01*
X103501463Y-67304692D01*
X103523999Y-67238556D01*
X103569054Y-67199515D01*
X103577816Y-67195051D01*
X103599789Y-67179086D01*
X103749786Y-67070109D01*
X103749788Y-67070106D01*
X103749792Y-67070104D01*
X103900104Y-66919792D01*
X103900106Y-66919788D01*
X103900109Y-66919786D01*
X104025048Y-66747820D01*
X104025047Y-66747820D01*
X104025051Y-66747816D01*
X104121557Y-66558412D01*
X104187246Y-66356243D01*
X104220500Y-66146287D01*
X104220500Y-65933713D01*
X104187246Y-65723757D01*
X104121557Y-65521588D01*
X104025051Y-65332184D01*
X104025049Y-65332181D01*
X104025048Y-65332179D01*
X103900109Y-65160213D01*
X103749786Y-65009890D01*
X103577820Y-64884951D01*
X103577115Y-64884591D01*
X103569054Y-64880485D01*
X103518259Y-64832512D01*
X103501463Y-64764692D01*
X103523999Y-64698556D01*
X103569054Y-64659515D01*
X103577816Y-64655051D01*
X103599789Y-64639086D01*
X103749786Y-64530109D01*
X103749788Y-64530106D01*
X103749792Y-64530104D01*
X103900104Y-64379792D01*
X103900106Y-64379788D01*
X103900109Y-64379786D01*
X104025048Y-64207820D01*
X104025047Y-64207820D01*
X104025051Y-64207816D01*
X104121557Y-64018412D01*
X104187246Y-63816243D01*
X104220500Y-63606287D01*
X104220500Y-63393713D01*
X104187246Y-63183757D01*
X104121557Y-62981588D01*
X104025051Y-62792184D01*
X104025049Y-62792181D01*
X104025048Y-62792179D01*
X103900109Y-62620213D01*
X103749786Y-62469890D01*
X103577820Y-62344951D01*
X103577115Y-62344591D01*
X103569054Y-62340485D01*
X103518259Y-62292512D01*
X103501463Y-62224692D01*
X103523999Y-62158556D01*
X103569054Y-62119515D01*
X103577816Y-62115051D01*
X103599789Y-62099086D01*
X103749786Y-61990109D01*
X103749788Y-61990106D01*
X103749792Y-61990104D01*
X103900104Y-61839792D01*
X103900106Y-61839788D01*
X103900109Y-61839786D01*
X104025048Y-61667820D01*
X104025047Y-61667820D01*
X104025051Y-61667816D01*
X104121557Y-61478412D01*
X104187246Y-61276243D01*
X104220500Y-61066287D01*
X104220500Y-60853713D01*
X104187246Y-60643757D01*
X104121557Y-60441588D01*
X104025051Y-60252184D01*
X104025049Y-60252181D01*
X104025048Y-60252179D01*
X103900109Y-60080213D01*
X103749786Y-59929890D01*
X103577820Y-59804951D01*
X103577115Y-59804591D01*
X103569054Y-59800485D01*
X103518259Y-59752512D01*
X103501463Y-59684692D01*
X103523999Y-59618556D01*
X103569054Y-59579515D01*
X103577816Y-59575051D01*
X103599789Y-59559086D01*
X103749786Y-59450109D01*
X103749788Y-59450106D01*
X103749792Y-59450104D01*
X103900104Y-59299792D01*
X103900106Y-59299788D01*
X103900109Y-59299786D01*
X104025048Y-59127820D01*
X104025047Y-59127820D01*
X104025051Y-59127816D01*
X104121557Y-58938412D01*
X104187246Y-58736243D01*
X104220500Y-58526287D01*
X104220500Y-58313713D01*
X104187246Y-58103757D01*
X104121557Y-57901588D01*
X104025051Y-57712184D01*
X104025049Y-57712181D01*
X104025048Y-57712179D01*
X103900109Y-57540213D01*
X103749786Y-57389890D01*
X103577820Y-57264951D01*
X103577115Y-57264591D01*
X103569054Y-57260485D01*
X103518259Y-57212512D01*
X103501463Y-57144692D01*
X103523999Y-57078556D01*
X103569054Y-57039515D01*
X103577816Y-57035051D01*
X103664138Y-56972335D01*
X103749786Y-56910109D01*
X103749788Y-56910106D01*
X103749792Y-56910104D01*
X103900104Y-56759792D01*
X103900106Y-56759788D01*
X103900109Y-56759786D01*
X104025048Y-56587820D01*
X104025047Y-56587820D01*
X104025051Y-56587816D01*
X104121557Y-56398412D01*
X104187246Y-56196243D01*
X104220500Y-55986287D01*
X104220500Y-55773713D01*
X104187246Y-55563757D01*
X104121557Y-55361588D01*
X104025051Y-55172184D01*
X104025049Y-55172181D01*
X104025048Y-55172179D01*
X103900109Y-55000213D01*
X103786569Y-54886673D01*
X103753084Y-54825350D01*
X103758068Y-54755658D01*
X103799940Y-54699725D01*
X103830915Y-54682810D01*
X103962331Y-54633796D01*
X104077546Y-54547546D01*
X104163796Y-54432331D01*
X104214091Y-54297483D01*
X104220500Y-54237873D01*
X104220499Y-52442128D01*
X104214091Y-52382517D01*
X104172302Y-52270476D01*
X104163797Y-52247671D01*
X104163793Y-52247664D01*
X104077547Y-52132455D01*
X104077544Y-52132452D01*
X103962335Y-52046206D01*
X103962328Y-52046202D01*
X103827482Y-51995908D01*
X103827483Y-51995908D01*
X103767883Y-51989501D01*
X103767881Y-51989500D01*
X103767873Y-51989500D01*
X103767864Y-51989500D01*
X101972129Y-51989500D01*
X101972123Y-51989501D01*
X101912516Y-51995908D01*
X101777671Y-52046202D01*
X101777664Y-52046206D01*
X101662455Y-52132452D01*
X101662452Y-52132455D01*
X101576206Y-52247664D01*
X101576202Y-52247671D01*
X101525908Y-52382517D01*
X101521510Y-52423431D01*
X101519501Y-52442123D01*
X101519500Y-52442135D01*
X78820499Y-52442135D01*
X78820499Y-52442128D01*
X78814091Y-52382517D01*
X78772302Y-52270476D01*
X78763797Y-52247671D01*
X78763793Y-52247664D01*
X78677547Y-52132455D01*
X78677544Y-52132452D01*
X78562335Y-52046206D01*
X78562328Y-52046202D01*
X78427482Y-51995908D01*
X78427483Y-51995908D01*
X78367883Y-51989501D01*
X78367881Y-51989500D01*
X78367873Y-51989500D01*
X78367864Y-51989500D01*
X76572129Y-51989500D01*
X76572123Y-51989501D01*
X76512516Y-51995908D01*
X76377671Y-52046202D01*
X76377664Y-52046206D01*
X76262455Y-52132452D01*
X76262452Y-52132455D01*
X76176206Y-52247664D01*
X76176202Y-52247671D01*
X76125908Y-52382517D01*
X76121510Y-52423431D01*
X76119501Y-52442123D01*
X76119500Y-52442135D01*
X70600500Y-52442135D01*
X70600500Y-46891577D01*
X106699500Y-46891577D01*
X106699500Y-47088422D01*
X106730290Y-47282826D01*
X106791117Y-47470029D01*
X106880476Y-47645405D01*
X106996172Y-47804646D01*
X107135354Y-47943828D01*
X107294595Y-48059524D01*
X107377455Y-48101743D01*
X107469970Y-48148882D01*
X107469972Y-48148882D01*
X107469975Y-48148884D01*
X107570317Y-48181487D01*
X107657173Y-48209709D01*
X107851578Y-48240500D01*
X107851583Y-48240500D01*
X108048414Y-48240500D01*
X108048417Y-48240500D01*
X108064325Y-48237980D01*
X108133616Y-48246934D01*
X108171404Y-48272772D01*
X111776452Y-51877819D01*
X111809937Y-51939142D01*
X111804953Y-52008834D01*
X111763081Y-52064767D01*
X111697617Y-52089184D01*
X111688771Y-52089500D01*
X111661578Y-52089500D01*
X111467173Y-52120290D01*
X111279970Y-52181117D01*
X111104594Y-52270476D01*
X111050338Y-52309896D01*
X110945354Y-52386172D01*
X110945352Y-52386174D01*
X110945351Y-52386174D01*
X110806174Y-52525351D01*
X110806174Y-52525352D01*
X110806172Y-52525354D01*
X110760357Y-52588412D01*
X110690476Y-52684594D01*
X110601117Y-52859970D01*
X110540290Y-53047173D01*
X110509500Y-53241577D01*
X110509500Y-53438422D01*
X110540290Y-53632826D01*
X110601117Y-53820029D01*
X110647442Y-53910946D01*
X110690476Y-53995405D01*
X110806172Y-54154646D01*
X110945354Y-54293828D01*
X111104595Y-54409524D01*
X111187455Y-54451743D01*
X111279970Y-54498882D01*
X111279972Y-54498882D01*
X111279975Y-54498884D01*
X111374201Y-54529500D01*
X111467173Y-54559709D01*
X111661578Y-54590500D01*
X111661583Y-54590500D01*
X111858414Y-54590500D01*
X111858417Y-54590500D01*
X111874325Y-54587980D01*
X111943616Y-54596934D01*
X111981404Y-54622772D01*
X116361586Y-59002954D01*
X116391058Y-59022645D01*
X116435270Y-59052186D01*
X116484505Y-59085084D01*
X116484506Y-59085084D01*
X116484507Y-59085085D01*
X116484509Y-59085086D01*
X116587669Y-59127816D01*
X116621087Y-59141658D01*
X116621091Y-59141658D01*
X116621092Y-59141659D01*
X116766079Y-59170500D01*
X116766082Y-59170500D01*
X116766083Y-59170500D01*
X116913917Y-59170500D01*
X116922779Y-59170500D01*
X116989818Y-59190185D01*
X117023097Y-59221615D01*
X117079892Y-59299788D01*
X117230213Y-59450109D01*
X117402182Y-59575050D01*
X117410946Y-59579516D01*
X117461742Y-59627491D01*
X117478536Y-59695312D01*
X117455998Y-59761447D01*
X117410946Y-59800484D01*
X117402182Y-59804949D01*
X117230213Y-59929890D01*
X117079890Y-60080213D01*
X116954951Y-60252179D01*
X116858444Y-60441585D01*
X116792753Y-60643760D01*
X116759500Y-60853713D01*
X116759500Y-61066286D01*
X116792753Y-61276239D01*
X116858444Y-61478414D01*
X116954951Y-61667820D01*
X117079890Y-61839786D01*
X117230213Y-61990109D01*
X117402179Y-62115048D01*
X117402181Y-62115049D01*
X117402184Y-62115051D01*
X117591588Y-62211557D01*
X117793757Y-62277246D01*
X118003713Y-62310500D01*
X118003714Y-62310500D01*
X118216286Y-62310500D01*
X118216287Y-62310500D01*
X118426243Y-62277246D01*
X118628412Y-62211557D01*
X118817816Y-62115051D01*
X118839789Y-62099086D01*
X118989786Y-61990109D01*
X118989788Y-61990106D01*
X118989792Y-61990104D01*
X119140104Y-61839792D01*
X119140106Y-61839788D01*
X119140109Y-61839786D01*
X119265048Y-61667820D01*
X119265047Y-61667820D01*
X119265051Y-61667816D01*
X119269514Y-61659054D01*
X119317488Y-61608259D01*
X119385308Y-61591463D01*
X119451444Y-61613999D01*
X119490486Y-61659056D01*
X119494951Y-61667820D01*
X119619890Y-61839786D01*
X119770213Y-61990109D01*
X119942182Y-62115050D01*
X119950946Y-62119516D01*
X120001742Y-62167491D01*
X120018536Y-62235312D01*
X119995998Y-62301447D01*
X119950946Y-62340484D01*
X119942182Y-62344949D01*
X119770213Y-62469890D01*
X119619890Y-62620213D01*
X119494951Y-62792179D01*
X119398444Y-62981585D01*
X119332753Y-63183760D01*
X119299500Y-63393713D01*
X119299500Y-63606286D01*
X119332753Y-63816239D01*
X119398444Y-64018414D01*
X119494951Y-64207820D01*
X119619890Y-64379786D01*
X119770213Y-64530109D01*
X119942182Y-64655050D01*
X119950946Y-64659516D01*
X120001742Y-64707491D01*
X120018536Y-64775312D01*
X119995998Y-64841447D01*
X119950946Y-64880484D01*
X119942182Y-64884949D01*
X119770213Y-65009890D01*
X119619890Y-65160213D01*
X119494949Y-65332182D01*
X119490484Y-65340946D01*
X119442509Y-65391742D01*
X119374688Y-65408536D01*
X119308553Y-65385998D01*
X119269516Y-65340946D01*
X119265050Y-65332182D01*
X119140109Y-65160213D01*
X118989786Y-65009890D01*
X118817820Y-64884951D01*
X118628414Y-64788444D01*
X118628413Y-64788443D01*
X118628412Y-64788443D01*
X118426243Y-64722754D01*
X118426241Y-64722753D01*
X118426240Y-64722753D01*
X118264957Y-64697208D01*
X118216287Y-64689500D01*
X118003713Y-64689500D01*
X117955042Y-64697208D01*
X117793760Y-64722753D01*
X117591585Y-64788444D01*
X117402179Y-64884951D01*
X117230213Y-65009890D01*
X117079890Y-65160213D01*
X116954951Y-65332179D01*
X116858444Y-65521585D01*
X116792753Y-65723760D01*
X116759500Y-65933713D01*
X116759500Y-66146286D01*
X116792753Y-66356239D01*
X116858444Y-66558414D01*
X116954951Y-66747820D01*
X117079890Y-66919786D01*
X117230213Y-67070109D01*
X117402182Y-67195050D01*
X117410946Y-67199516D01*
X117461742Y-67247491D01*
X117478536Y-67315312D01*
X117455998Y-67381447D01*
X117410946Y-67420484D01*
X117402182Y-67424949D01*
X117230213Y-67549890D01*
X117079890Y-67700213D01*
X116954951Y-67872179D01*
X116858444Y-68061585D01*
X116792753Y-68263760D01*
X116759500Y-68473713D01*
X116759500Y-68686286D01*
X116792753Y-68896239D01*
X116858444Y-69098414D01*
X116954951Y-69287820D01*
X117079890Y-69459786D01*
X117230213Y-69610109D01*
X117402182Y-69735050D01*
X117410946Y-69739516D01*
X117461742Y-69787491D01*
X117478536Y-69855312D01*
X117455998Y-69921447D01*
X117410946Y-69960484D01*
X117402182Y-69964949D01*
X117230213Y-70089890D01*
X117079890Y-70240213D01*
X116954951Y-70412179D01*
X116858444Y-70601585D01*
X116792753Y-70803760D01*
X116759500Y-71013713D01*
X116759500Y-71226286D01*
X116792753Y-71436239D01*
X116858444Y-71638414D01*
X116954951Y-71827820D01*
X117079890Y-71999786D01*
X117230213Y-72150109D01*
X117402182Y-72275050D01*
X117410946Y-72279516D01*
X117461742Y-72327491D01*
X117478536Y-72395312D01*
X117455998Y-72461447D01*
X117410946Y-72500484D01*
X117402182Y-72504949D01*
X117230213Y-72629890D01*
X117079890Y-72780213D01*
X116954951Y-72952179D01*
X116858444Y-73141585D01*
X116792753Y-73343760D01*
X116759500Y-73553713D01*
X116759500Y-73766286D01*
X116792753Y-73976239D01*
X116858444Y-74178414D01*
X116954951Y-74367820D01*
X117079890Y-74539786D01*
X117230213Y-74690109D01*
X117402182Y-74815050D01*
X117410946Y-74819516D01*
X117461742Y-74867491D01*
X117478536Y-74935312D01*
X117455998Y-75001447D01*
X117410946Y-75040484D01*
X117402182Y-75044949D01*
X117230213Y-75169890D01*
X117079890Y-75320213D01*
X116954951Y-75492179D01*
X116858444Y-75681585D01*
X116792753Y-75883760D01*
X116759500Y-76093713D01*
X116759500Y-76306286D01*
X116792753Y-76516239D01*
X116858444Y-76718414D01*
X116954951Y-76907820D01*
X117079890Y-77079786D01*
X117230213Y-77230109D01*
X117402182Y-77355050D01*
X117410946Y-77359516D01*
X117461742Y-77407491D01*
X117478536Y-77475312D01*
X117455998Y-77541447D01*
X117410946Y-77580484D01*
X117402182Y-77584949D01*
X117230213Y-77709890D01*
X117079890Y-77860213D01*
X116954951Y-78032179D01*
X116858444Y-78221585D01*
X116792753Y-78423760D01*
X116759500Y-78633713D01*
X116759500Y-78846286D01*
X116792753Y-79056239D01*
X116858444Y-79258414D01*
X116954951Y-79447820D01*
X117079890Y-79619786D01*
X117230213Y-79770109D01*
X117402182Y-79895050D01*
X117410946Y-79899516D01*
X117461742Y-79947491D01*
X117478536Y-80015312D01*
X117455998Y-80081447D01*
X117410946Y-80120484D01*
X117402182Y-80124949D01*
X117230213Y-80249890D01*
X117079890Y-80400213D01*
X116954951Y-80572179D01*
X116858444Y-80761585D01*
X116792753Y-80963760D01*
X116759500Y-81173713D01*
X116759500Y-81386286D01*
X116792753Y-81596239D01*
X116858444Y-81798414D01*
X116954951Y-81987820D01*
X117079890Y-82159786D01*
X117230213Y-82310109D01*
X117402182Y-82435050D01*
X117410946Y-82439516D01*
X117461742Y-82487491D01*
X117478536Y-82555312D01*
X117455998Y-82621447D01*
X117410946Y-82660484D01*
X117402182Y-82664949D01*
X117230213Y-82789890D01*
X117079890Y-82940213D01*
X116954951Y-83112179D01*
X116858444Y-83301585D01*
X116792753Y-83503760D01*
X116759500Y-83713713D01*
X116759500Y-83926286D01*
X116792753Y-84136239D01*
X116858444Y-84338414D01*
X116954951Y-84527820D01*
X117079890Y-84699786D01*
X117230213Y-84850109D01*
X117402182Y-84975050D01*
X117410946Y-84979516D01*
X117461742Y-85027491D01*
X117478536Y-85095312D01*
X117455998Y-85161447D01*
X117410946Y-85200484D01*
X117402182Y-85204949D01*
X117230213Y-85329890D01*
X117079890Y-85480213D01*
X116954951Y-85652179D01*
X116858444Y-85841585D01*
X116792753Y-86043760D01*
X116759500Y-86253713D01*
X116759500Y-86466286D01*
X116792753Y-86676239D01*
X116858444Y-86878414D01*
X116954951Y-87067820D01*
X117079890Y-87239786D01*
X117230213Y-87390109D01*
X117402182Y-87515050D01*
X117410946Y-87519516D01*
X117461742Y-87567491D01*
X117478536Y-87635312D01*
X117455998Y-87701447D01*
X117410946Y-87740484D01*
X117402182Y-87744949D01*
X117230213Y-87869890D01*
X117079890Y-88020213D01*
X116954951Y-88192179D01*
X116858444Y-88381585D01*
X116792753Y-88583760D01*
X116759500Y-88793713D01*
X116759500Y-89006286D01*
X116792753Y-89216239D01*
X116858444Y-89418414D01*
X116954951Y-89607820D01*
X117079890Y-89779786D01*
X117230213Y-89930109D01*
X117402182Y-90055050D01*
X117410946Y-90059516D01*
X117461742Y-90107491D01*
X117478536Y-90175312D01*
X117455998Y-90241447D01*
X117410946Y-90280484D01*
X117402182Y-90284949D01*
X117230213Y-90409890D01*
X117079890Y-90560213D01*
X116954951Y-90732179D01*
X116858444Y-90921585D01*
X116792753Y-91123760D01*
X116759500Y-91333713D01*
X116759500Y-91546286D01*
X116792753Y-91756239D01*
X116858444Y-91958414D01*
X116954951Y-92147820D01*
X117079890Y-92319786D01*
X117230213Y-92470109D01*
X117402182Y-92595050D01*
X117410946Y-92599516D01*
X117461742Y-92647491D01*
X117478536Y-92715312D01*
X117455998Y-92781447D01*
X117410946Y-92820484D01*
X117402182Y-92824949D01*
X117230213Y-92949890D01*
X117079890Y-93100213D01*
X116954951Y-93272179D01*
X116858444Y-93461585D01*
X116792753Y-93663760D01*
X116759500Y-93873713D01*
X116759500Y-94086286D01*
X116792753Y-94296239D01*
X116858444Y-94498414D01*
X116954951Y-94687820D01*
X117079890Y-94859786D01*
X117230213Y-95010109D01*
X117402182Y-95135050D01*
X117410946Y-95139516D01*
X117461742Y-95187491D01*
X117478536Y-95255312D01*
X117455998Y-95321447D01*
X117410946Y-95360484D01*
X117402182Y-95364949D01*
X117230213Y-95489890D01*
X117079890Y-95640213D01*
X116954951Y-95812179D01*
X116858444Y-96001585D01*
X116792753Y-96203760D01*
X116774422Y-96319500D01*
X116759500Y-96413713D01*
X116759500Y-96626287D01*
X116792754Y-96836243D01*
X116856868Y-97033566D01*
X116858444Y-97038414D01*
X116954951Y-97227820D01*
X117079890Y-97399786D01*
X117230213Y-97550109D01*
X117402182Y-97675050D01*
X117410946Y-97679516D01*
X117461742Y-97727491D01*
X117478536Y-97795312D01*
X117455998Y-97861447D01*
X117410946Y-97900484D01*
X117402182Y-97904949D01*
X117230213Y-98029890D01*
X117079890Y-98180213D01*
X116954951Y-98352179D01*
X116858444Y-98541585D01*
X116792753Y-98743760D01*
X116775642Y-98851797D01*
X116759500Y-98953713D01*
X116759500Y-99166287D01*
X116769534Y-99229644D01*
X116791339Y-99367314D01*
X116792754Y-99376243D01*
X116805160Y-99414426D01*
X116858444Y-99578414D01*
X116954951Y-99767820D01*
X117079890Y-99939786D01*
X117230213Y-100090109D01*
X117402179Y-100215048D01*
X117402181Y-100215049D01*
X117402184Y-100215051D01*
X117591588Y-100311557D01*
X117793757Y-100377246D01*
X118003713Y-100410500D01*
X118003714Y-100410500D01*
X118216286Y-100410500D01*
X118216287Y-100410500D01*
X118426243Y-100377246D01*
X118628412Y-100311557D01*
X118817816Y-100215051D01*
X118839789Y-100199086D01*
X118989786Y-100090109D01*
X118989788Y-100090106D01*
X118989792Y-100090104D01*
X119140104Y-99939792D01*
X119140106Y-99939788D01*
X119140109Y-99939786D01*
X119265048Y-99767820D01*
X119265047Y-99767820D01*
X119265051Y-99767816D01*
X119269514Y-99759054D01*
X119317488Y-99708259D01*
X119385308Y-99691463D01*
X119451444Y-99713999D01*
X119490486Y-99759056D01*
X119494951Y-99767820D01*
X119619890Y-99939786D01*
X119770213Y-100090109D01*
X119942179Y-100215048D01*
X119942181Y-100215049D01*
X119942184Y-100215051D01*
X120131588Y-100311557D01*
X120333757Y-100377246D01*
X120543713Y-100410500D01*
X120543714Y-100410500D01*
X120756286Y-100410500D01*
X120756287Y-100410500D01*
X120966243Y-100377246D01*
X121168412Y-100311557D01*
X121357816Y-100215051D01*
X121379789Y-100199086D01*
X121529786Y-100090109D01*
X121529788Y-100090106D01*
X121529792Y-100090104D01*
X121680104Y-99939792D01*
X121680106Y-99939788D01*
X121680109Y-99939786D01*
X121805048Y-99767820D01*
X121805047Y-99767820D01*
X121805051Y-99767816D01*
X121901557Y-99578412D01*
X121967246Y-99376243D01*
X122000500Y-99166287D01*
X122000500Y-98953713D01*
X121967246Y-98743757D01*
X121901557Y-98541588D01*
X121805051Y-98352184D01*
X121805049Y-98352181D01*
X121805048Y-98352179D01*
X121680109Y-98180213D01*
X121529786Y-98029890D01*
X121357820Y-97904951D01*
X121357115Y-97904591D01*
X121349054Y-97900485D01*
X121346180Y-97897769D01*
X121342347Y-97896802D01*
X121320988Y-97873978D01*
X121298259Y-97852512D01*
X121297308Y-97848673D01*
X121294606Y-97845786D01*
X121288976Y-97815030D01*
X121281463Y-97784692D01*
X121282738Y-97780949D01*
X121282026Y-97777058D01*
X121293917Y-97748141D01*
X121303999Y-97718556D01*
X121307529Y-97715041D01*
X121308600Y-97712439D01*
X121317065Y-97705549D01*
X121320729Y-97701902D01*
X139469500Y-97701902D01*
X139469500Y-97938097D01*
X139506446Y-98171368D01*
X139579433Y-98395996D01*
X139653615Y-98541585D01*
X139686657Y-98606433D01*
X139825483Y-98797510D01*
X139992490Y-98964517D01*
X140183567Y-99103343D01*
X140231035Y-99127529D01*
X140394003Y-99210566D01*
X140394005Y-99210566D01*
X140394008Y-99210568D01*
X140514412Y-99249689D01*
X140618631Y-99283553D01*
X140851903Y-99320500D01*
X140851908Y-99320500D01*
X141088097Y-99320500D01*
X141321368Y-99283553D01*
X141545992Y-99210568D01*
X141756433Y-99103343D01*
X141947510Y-98964517D01*
X142114517Y-98797510D01*
X142253343Y-98606433D01*
X142360568Y-98395992D01*
X142433553Y-98171368D01*
X142458929Y-98011150D01*
X142470500Y-97938097D01*
X142470500Y-97701902D01*
X142433553Y-97468631D01*
X142360566Y-97244003D01*
X142304002Y-97132991D01*
X142253343Y-97033567D01*
X142114517Y-96842490D01*
X141947510Y-96675483D01*
X141756433Y-96536657D01*
X141545996Y-96429433D01*
X141321368Y-96356446D01*
X141088097Y-96319500D01*
X141088092Y-96319500D01*
X140851908Y-96319500D01*
X140851903Y-96319500D01*
X140618631Y-96356446D01*
X140394003Y-96429433D01*
X140183566Y-96536657D01*
X140074550Y-96615862D01*
X139992490Y-96675483D01*
X139992488Y-96675485D01*
X139992487Y-96675485D01*
X139825485Y-96842487D01*
X139825485Y-96842488D01*
X139825483Y-96842490D01*
X139765862Y-96924550D01*
X139686657Y-97033566D01*
X139579433Y-97244003D01*
X139506446Y-97468631D01*
X139469500Y-97701902D01*
X121320729Y-97701902D01*
X121334370Y-97688324D01*
X121341405Y-97683412D01*
X121357816Y-97675051D01*
X121501799Y-97570441D01*
X121529786Y-97550109D01*
X121529788Y-97550106D01*
X121529792Y-97550104D01*
X121680104Y-97399792D01*
X121680106Y-97399788D01*
X121680109Y-97399786D01*
X121805048Y-97227820D01*
X121805047Y-97227820D01*
X121805051Y-97227816D01*
X121901557Y-97038412D01*
X121967246Y-96836243D01*
X122000500Y-96626287D01*
X122000500Y-96413713D01*
X121967246Y-96203757D01*
X121901557Y-96001588D01*
X121805051Y-95812184D01*
X121805049Y-95812181D01*
X121805048Y-95812179D01*
X121680109Y-95640213D01*
X121529786Y-95489890D01*
X121357820Y-95364951D01*
X121357115Y-95364591D01*
X121349054Y-95360485D01*
X121298259Y-95312512D01*
X121281463Y-95244692D01*
X121303999Y-95178556D01*
X121349054Y-95139515D01*
X121357816Y-95135051D01*
X121379789Y-95119086D01*
X121529786Y-95010109D01*
X121529788Y-95010106D01*
X121529792Y-95010104D01*
X121680104Y-94859792D01*
X121680106Y-94859788D01*
X121680109Y-94859786D01*
X121805048Y-94687820D01*
X121805047Y-94687820D01*
X121805051Y-94687816D01*
X121901557Y-94498412D01*
X121967246Y-94296243D01*
X122000500Y-94086287D01*
X122000500Y-93873713D01*
X121967246Y-93663757D01*
X121901557Y-93461588D01*
X121805051Y-93272184D01*
X121805049Y-93272181D01*
X121805048Y-93272179D01*
X121680109Y-93100213D01*
X121529786Y-92949890D01*
X121357820Y-92824951D01*
X121168414Y-92728444D01*
X121168413Y-92728443D01*
X121168412Y-92728443D01*
X120966243Y-92662754D01*
X120966241Y-92662753D01*
X120966240Y-92662753D01*
X120804957Y-92637208D01*
X120756287Y-92629500D01*
X120543713Y-92629500D01*
X120495042Y-92637208D01*
X120333760Y-92662753D01*
X120131585Y-92728444D01*
X119942179Y-92824951D01*
X119770213Y-92949890D01*
X119619890Y-93100213D01*
X119494949Y-93272182D01*
X119490484Y-93280946D01*
X119442509Y-93331742D01*
X119374688Y-93348536D01*
X119308553Y-93325998D01*
X119269516Y-93280946D01*
X119265050Y-93272182D01*
X119140109Y-93100213D01*
X118989786Y-92949890D01*
X118817820Y-92824951D01*
X118817115Y-92824591D01*
X118809054Y-92820485D01*
X118758259Y-92772512D01*
X118741463Y-92704692D01*
X118763999Y-92638556D01*
X118809054Y-92599515D01*
X118817816Y-92595051D01*
X118839789Y-92579086D01*
X118989786Y-92470109D01*
X118989788Y-92470106D01*
X118989792Y-92470104D01*
X119140104Y-92319792D01*
X119140106Y-92319788D01*
X119140109Y-92319786D01*
X119265048Y-92147820D01*
X119265047Y-92147820D01*
X119265051Y-92147816D01*
X119361557Y-91958412D01*
X119427246Y-91756243D01*
X119460500Y-91546287D01*
X119460500Y-91333713D01*
X119427246Y-91123757D01*
X119361557Y-90921588D01*
X119265051Y-90732184D01*
X119265049Y-90732181D01*
X119265048Y-90732179D01*
X119140109Y-90560213D01*
X118989786Y-90409890D01*
X118817820Y-90284951D01*
X118817115Y-90284591D01*
X118809054Y-90280485D01*
X118758259Y-90232512D01*
X118741463Y-90164692D01*
X118763999Y-90098556D01*
X118809054Y-90059515D01*
X118817816Y-90055051D01*
X118839789Y-90039086D01*
X118989786Y-89930109D01*
X118989788Y-89930106D01*
X118989792Y-89930104D01*
X119140104Y-89779792D01*
X119140106Y-89779788D01*
X119140109Y-89779786D01*
X119265048Y-89607820D01*
X119265047Y-89607820D01*
X119265051Y-89607816D01*
X119269514Y-89599054D01*
X119317488Y-89548259D01*
X119385308Y-89531463D01*
X119451444Y-89553999D01*
X119490486Y-89599056D01*
X119494951Y-89607820D01*
X119619890Y-89779786D01*
X119770213Y-89930109D01*
X119942179Y-90055048D01*
X119942181Y-90055049D01*
X119942184Y-90055051D01*
X120131588Y-90151557D01*
X120333757Y-90217246D01*
X120543713Y-90250500D01*
X120543714Y-90250500D01*
X120756286Y-90250500D01*
X120756287Y-90250500D01*
X120966243Y-90217246D01*
X121168412Y-90151557D01*
X121357816Y-90055051D01*
X121379789Y-90039086D01*
X121529786Y-89930109D01*
X121529788Y-89930106D01*
X121529792Y-89930104D01*
X121680104Y-89779792D01*
X121680106Y-89779788D01*
X121680109Y-89779786D01*
X121805048Y-89607820D01*
X121805047Y-89607820D01*
X121805051Y-89607816D01*
X121901557Y-89418412D01*
X121967246Y-89216243D01*
X122000500Y-89006287D01*
X122000500Y-88793713D01*
X121967246Y-88583757D01*
X121901557Y-88381588D01*
X121805051Y-88192184D01*
X121805049Y-88192181D01*
X121805048Y-88192179D01*
X121680109Y-88020213D01*
X121529786Y-87869890D01*
X121357820Y-87744951D01*
X121357115Y-87744591D01*
X121349054Y-87740485D01*
X121298259Y-87692512D01*
X121281463Y-87624692D01*
X121303999Y-87558556D01*
X121349054Y-87519515D01*
X121357816Y-87515051D01*
X121379789Y-87499086D01*
X121529786Y-87390109D01*
X121529788Y-87390106D01*
X121529792Y-87390104D01*
X121680104Y-87239792D01*
X121680106Y-87239788D01*
X121680109Y-87239786D01*
X121805048Y-87067820D01*
X121805047Y-87067820D01*
X121805051Y-87067816D01*
X121901557Y-86878412D01*
X121967246Y-86676243D01*
X122000500Y-86466287D01*
X122000500Y-86253713D01*
X121967246Y-86043757D01*
X121901557Y-85841588D01*
X121805051Y-85652184D01*
X121805049Y-85652181D01*
X121805048Y-85652179D01*
X121680109Y-85480213D01*
X121529786Y-85329890D01*
X121357820Y-85204951D01*
X121357115Y-85204591D01*
X121349054Y-85200485D01*
X121298259Y-85152512D01*
X121281463Y-85084692D01*
X121303999Y-85018556D01*
X121349054Y-84979515D01*
X121357816Y-84975051D01*
X121379789Y-84959086D01*
X121529786Y-84850109D01*
X121529788Y-84850106D01*
X121529792Y-84850104D01*
X121680104Y-84699792D01*
X121680106Y-84699788D01*
X121680109Y-84699786D01*
X121805048Y-84527820D01*
X121805047Y-84527820D01*
X121805051Y-84527816D01*
X121901557Y-84338412D01*
X121967246Y-84136243D01*
X122000500Y-83926287D01*
X122000500Y-83713713D01*
X121967246Y-83503757D01*
X121901557Y-83301588D01*
X121805051Y-83112184D01*
X121805049Y-83112181D01*
X121805048Y-83112179D01*
X121680109Y-82940213D01*
X121529786Y-82789890D01*
X121357820Y-82664951D01*
X121357115Y-82664591D01*
X121349054Y-82660485D01*
X121298259Y-82612512D01*
X121281463Y-82544692D01*
X121303999Y-82478556D01*
X121349054Y-82439515D01*
X121357816Y-82435051D01*
X121379789Y-82419086D01*
X121529786Y-82310109D01*
X121529788Y-82310106D01*
X121529792Y-82310104D01*
X121680104Y-82159792D01*
X121680106Y-82159788D01*
X121680109Y-82159786D01*
X121805048Y-81987820D01*
X121805047Y-81987820D01*
X121805051Y-81987816D01*
X121901557Y-81798412D01*
X121967246Y-81596243D01*
X122000500Y-81386287D01*
X122000500Y-81173713D01*
X121967246Y-80963757D01*
X121901557Y-80761588D01*
X121805051Y-80572184D01*
X121805049Y-80572181D01*
X121805048Y-80572179D01*
X121680109Y-80400213D01*
X121529786Y-80249890D01*
X121357820Y-80124951D01*
X121357115Y-80124591D01*
X121349054Y-80120485D01*
X121298259Y-80072512D01*
X121281463Y-80004692D01*
X121303999Y-79938556D01*
X121349054Y-79899515D01*
X121357816Y-79895051D01*
X121379789Y-79879086D01*
X121529786Y-79770109D01*
X121529788Y-79770106D01*
X121529792Y-79770104D01*
X121680104Y-79619792D01*
X121680106Y-79619788D01*
X121680109Y-79619786D01*
X121805048Y-79447820D01*
X121805047Y-79447820D01*
X121805051Y-79447816D01*
X121901557Y-79258412D01*
X121967246Y-79056243D01*
X122000500Y-78846287D01*
X122000500Y-78633713D01*
X133269500Y-78633713D01*
X133269500Y-78846286D01*
X133302753Y-79056239D01*
X133368444Y-79258414D01*
X133464951Y-79447820D01*
X133589890Y-79619786D01*
X133740213Y-79770109D01*
X133912182Y-79895050D01*
X133920946Y-79899516D01*
X133971742Y-79947491D01*
X133988536Y-80015312D01*
X133965998Y-80081447D01*
X133920946Y-80120484D01*
X133912182Y-80124949D01*
X133740213Y-80249890D01*
X133589890Y-80400213D01*
X133464951Y-80572179D01*
X133368444Y-80761585D01*
X133302753Y-80963760D01*
X133269500Y-81173713D01*
X133269500Y-81386286D01*
X133302753Y-81596239D01*
X133368444Y-81798414D01*
X133464951Y-81987820D01*
X133589890Y-82159786D01*
X133740213Y-82310109D01*
X133912182Y-82435050D01*
X133920946Y-82439516D01*
X133971742Y-82487491D01*
X133988536Y-82555312D01*
X133965998Y-82621447D01*
X133920946Y-82660484D01*
X133912182Y-82664949D01*
X133740213Y-82789890D01*
X133589890Y-82940213D01*
X133464951Y-83112179D01*
X133368444Y-83301585D01*
X133302753Y-83503760D01*
X133269500Y-83713713D01*
X133269500Y-83926286D01*
X133302753Y-84136239D01*
X133368444Y-84338414D01*
X133464951Y-84527820D01*
X133589890Y-84699786D01*
X133740213Y-84850109D01*
X133912179Y-84975048D01*
X133912181Y-84975049D01*
X133912184Y-84975051D01*
X134101588Y-85071557D01*
X134303757Y-85137246D01*
X134513713Y-85170500D01*
X134513714Y-85170500D01*
X134726286Y-85170500D01*
X134726287Y-85170500D01*
X134936243Y-85137246D01*
X135138412Y-85071557D01*
X135327816Y-84975051D01*
X135349789Y-84959086D01*
X135499786Y-84850109D01*
X135499788Y-84850106D01*
X135499792Y-84850104D01*
X135650104Y-84699792D01*
X135650106Y-84699788D01*
X135650109Y-84699786D01*
X135775048Y-84527820D01*
X135775047Y-84527820D01*
X135775051Y-84527816D01*
X135871557Y-84338412D01*
X135937246Y-84136243D01*
X135970500Y-83926287D01*
X135970500Y-83713713D01*
X135937246Y-83503757D01*
X135871557Y-83301588D01*
X135775051Y-83112184D01*
X135775049Y-83112181D01*
X135775048Y-83112179D01*
X135650109Y-82940213D01*
X135499786Y-82789890D01*
X135327820Y-82664951D01*
X135327115Y-82664591D01*
X135319054Y-82660485D01*
X135268259Y-82612512D01*
X135251463Y-82544692D01*
X135273999Y-82478556D01*
X135319054Y-82439515D01*
X135327816Y-82435051D01*
X135349789Y-82419086D01*
X135499786Y-82310109D01*
X135499788Y-82310106D01*
X135499792Y-82310104D01*
X135650104Y-82159792D01*
X135650106Y-82159788D01*
X135650109Y-82159786D01*
X135775048Y-81987820D01*
X135775047Y-81987820D01*
X135775051Y-81987816D01*
X135871557Y-81798412D01*
X135937246Y-81596243D01*
X135970500Y-81386287D01*
X135970500Y-81173713D01*
X135937246Y-80963757D01*
X135871557Y-80761588D01*
X135775051Y-80572184D01*
X135775049Y-80572181D01*
X135775048Y-80572179D01*
X135650109Y-80400213D01*
X135499786Y-80249890D01*
X135327820Y-80124951D01*
X135327115Y-80124591D01*
X135319054Y-80120485D01*
X135268259Y-80072512D01*
X135251463Y-80004692D01*
X135273999Y-79938556D01*
X135319054Y-79899515D01*
X135327816Y-79895051D01*
X135349789Y-79879086D01*
X135499786Y-79770109D01*
X135499788Y-79770106D01*
X135499792Y-79770104D01*
X135650104Y-79619792D01*
X135650106Y-79619788D01*
X135650109Y-79619786D01*
X135775048Y-79447820D01*
X135775047Y-79447820D01*
X135775051Y-79447816D01*
X135871557Y-79258412D01*
X135937246Y-79056243D01*
X135970500Y-78846287D01*
X135970500Y-78633713D01*
X135937246Y-78423757D01*
X135871557Y-78221588D01*
X135775051Y-78032184D01*
X135775049Y-78032181D01*
X135775048Y-78032179D01*
X135650109Y-77860213D01*
X135499786Y-77709890D01*
X135327820Y-77584951D01*
X135138414Y-77488444D01*
X135138413Y-77488443D01*
X135138412Y-77488443D01*
X134936243Y-77422754D01*
X134936241Y-77422753D01*
X134936240Y-77422753D01*
X134774957Y-77397208D01*
X134726287Y-77389500D01*
X134513713Y-77389500D01*
X134465042Y-77397208D01*
X134303760Y-77422753D01*
X134101585Y-77488444D01*
X133912179Y-77584951D01*
X133740213Y-77709890D01*
X133589890Y-77860213D01*
X133464951Y-78032179D01*
X133368444Y-78221585D01*
X133302753Y-78423760D01*
X133269500Y-78633713D01*
X122000500Y-78633713D01*
X121967246Y-78423757D01*
X121901557Y-78221588D01*
X121805051Y-78032184D01*
X121805049Y-78032181D01*
X121805048Y-78032179D01*
X121680109Y-77860213D01*
X121529786Y-77709890D01*
X121357820Y-77584951D01*
X121168414Y-77488444D01*
X121168413Y-77488443D01*
X121168412Y-77488443D01*
X120966243Y-77422754D01*
X120966241Y-77422753D01*
X120966240Y-77422753D01*
X120804957Y-77397208D01*
X120756287Y-77389500D01*
X120543713Y-77389500D01*
X120495042Y-77397208D01*
X120333760Y-77422753D01*
X120131585Y-77488444D01*
X119942179Y-77584951D01*
X119770213Y-77709890D01*
X119619890Y-77860213D01*
X119494949Y-78032182D01*
X119490484Y-78040946D01*
X119442509Y-78091742D01*
X119374688Y-78108536D01*
X119308553Y-78085998D01*
X119269516Y-78040946D01*
X119265050Y-78032182D01*
X119140109Y-77860213D01*
X118989786Y-77709890D01*
X118817820Y-77584951D01*
X118817115Y-77584591D01*
X118809054Y-77580485D01*
X118758259Y-77532512D01*
X118741463Y-77464692D01*
X118763999Y-77398556D01*
X118809054Y-77359515D01*
X118817816Y-77355051D01*
X118839789Y-77339086D01*
X118989786Y-77230109D01*
X118989788Y-77230106D01*
X118989792Y-77230104D01*
X119140104Y-77079792D01*
X119140106Y-77079788D01*
X119140109Y-77079786D01*
X119265048Y-76907820D01*
X119265047Y-76907820D01*
X119265051Y-76907816D01*
X119361557Y-76718412D01*
X119427246Y-76516243D01*
X119460500Y-76306287D01*
X119460500Y-76093713D01*
X119427246Y-75883757D01*
X119361557Y-75681588D01*
X119265051Y-75492184D01*
X119265049Y-75492181D01*
X119265048Y-75492179D01*
X119140109Y-75320213D01*
X118989786Y-75169890D01*
X118817820Y-75044951D01*
X118817115Y-75044591D01*
X118809054Y-75040485D01*
X118758259Y-74992512D01*
X118741463Y-74924692D01*
X118763999Y-74858556D01*
X118809054Y-74819515D01*
X118817816Y-74815051D01*
X118904138Y-74752335D01*
X118989786Y-74690109D01*
X118989788Y-74690106D01*
X118989792Y-74690104D01*
X119140104Y-74539792D01*
X119140106Y-74539788D01*
X119140109Y-74539786D01*
X119265048Y-74367820D01*
X119265047Y-74367820D01*
X119265051Y-74367816D01*
X119269514Y-74359054D01*
X119317488Y-74308259D01*
X119385308Y-74291463D01*
X119451444Y-74313999D01*
X119490486Y-74359056D01*
X119494951Y-74367820D01*
X119619890Y-74539786D01*
X119770213Y-74690109D01*
X119942179Y-74815048D01*
X119942181Y-74815049D01*
X119942184Y-74815051D01*
X120131588Y-74911557D01*
X120333757Y-74977246D01*
X120543713Y-75010500D01*
X120543714Y-75010500D01*
X120756286Y-75010500D01*
X120756287Y-75010500D01*
X120966243Y-74977246D01*
X121168412Y-74911557D01*
X121357816Y-74815051D01*
X121444138Y-74752335D01*
X121529786Y-74690109D01*
X121529788Y-74690106D01*
X121529792Y-74690104D01*
X121680104Y-74539792D01*
X121680106Y-74539788D01*
X121680109Y-74539786D01*
X121805048Y-74367820D01*
X121805047Y-74367820D01*
X121805051Y-74367816D01*
X121901557Y-74178412D01*
X121967246Y-73976243D01*
X122000500Y-73766287D01*
X122000500Y-73553713D01*
X121967246Y-73343757D01*
X121901557Y-73141588D01*
X121805051Y-72952184D01*
X121805049Y-72952181D01*
X121805048Y-72952179D01*
X121680109Y-72780213D01*
X121529786Y-72629890D01*
X121357820Y-72504951D01*
X121357115Y-72504591D01*
X121349054Y-72500485D01*
X121298259Y-72452512D01*
X121281463Y-72384692D01*
X121303999Y-72318556D01*
X121349054Y-72279515D01*
X121357816Y-72275051D01*
X121444138Y-72212335D01*
X121529786Y-72150109D01*
X121529788Y-72150106D01*
X121529792Y-72150104D01*
X121680104Y-71999792D01*
X121680106Y-71999788D01*
X121680109Y-71999786D01*
X121805048Y-71827820D01*
X121805047Y-71827820D01*
X121805051Y-71827816D01*
X121901557Y-71638412D01*
X121967246Y-71436243D01*
X122000500Y-71226287D01*
X122000500Y-71013713D01*
X121967246Y-70803757D01*
X121901557Y-70601588D01*
X121805051Y-70412184D01*
X121791077Y-70392950D01*
X121717511Y-70291694D01*
X121717508Y-70291691D01*
X121690649Y-70254723D01*
X121680104Y-70240208D01*
X121662031Y-70222135D01*
X133269500Y-70222135D01*
X133269500Y-72017870D01*
X133269501Y-72017876D01*
X133275908Y-72077483D01*
X133326202Y-72212328D01*
X133326206Y-72212335D01*
X133412452Y-72327544D01*
X133412455Y-72327547D01*
X133527664Y-72413793D01*
X133527671Y-72413797D01*
X133659082Y-72462810D01*
X133715016Y-72504681D01*
X133739433Y-72570145D01*
X133724582Y-72638418D01*
X133703431Y-72666673D01*
X133589889Y-72780215D01*
X133464951Y-72952179D01*
X133368444Y-73141585D01*
X133302753Y-73343760D01*
X133269500Y-73553713D01*
X133269500Y-73766286D01*
X133302753Y-73976239D01*
X133368444Y-74178414D01*
X133464951Y-74367820D01*
X133589890Y-74539786D01*
X133740213Y-74690109D01*
X133912179Y-74815048D01*
X133912181Y-74815049D01*
X133912184Y-74815051D01*
X134101588Y-74911557D01*
X134303757Y-74977246D01*
X134513713Y-75010500D01*
X134513714Y-75010500D01*
X134726286Y-75010500D01*
X134726287Y-75010500D01*
X134936243Y-74977246D01*
X135138412Y-74911557D01*
X135327816Y-74815051D01*
X135414138Y-74752335D01*
X135499786Y-74690109D01*
X135499788Y-74690106D01*
X135499792Y-74690104D01*
X135650104Y-74539792D01*
X135650106Y-74539788D01*
X135650109Y-74539786D01*
X135775048Y-74367820D01*
X135775047Y-74367820D01*
X135775051Y-74367816D01*
X135871557Y-74178412D01*
X135937246Y-73976243D01*
X135970500Y-73766287D01*
X135970500Y-73553713D01*
X135937246Y-73343757D01*
X135871557Y-73141588D01*
X135775051Y-72952184D01*
X135775049Y-72952181D01*
X135775048Y-72952179D01*
X135650109Y-72780213D01*
X135536569Y-72666673D01*
X135503084Y-72605350D01*
X135508068Y-72535658D01*
X135549940Y-72479725D01*
X135580915Y-72462810D01*
X135712331Y-72413796D01*
X135827546Y-72327546D01*
X135913796Y-72212331D01*
X135964091Y-72077483D01*
X135970500Y-72017873D01*
X135970499Y-70222128D01*
X135964091Y-70162517D01*
X135929180Y-70068917D01*
X135913797Y-70027671D01*
X135913793Y-70027664D01*
X135827547Y-69912455D01*
X135827544Y-69912452D01*
X135712335Y-69826206D01*
X135712328Y-69826202D01*
X135577482Y-69775908D01*
X135577483Y-69775908D01*
X135517883Y-69769501D01*
X135517881Y-69769500D01*
X135517873Y-69769500D01*
X135517864Y-69769500D01*
X133722129Y-69769500D01*
X133722123Y-69769501D01*
X133662516Y-69775908D01*
X133527671Y-69826202D01*
X133527664Y-69826206D01*
X133412455Y-69912452D01*
X133412452Y-69912455D01*
X133326206Y-70027664D01*
X133326202Y-70027671D01*
X133275908Y-70162517D01*
X133271288Y-70205495D01*
X133269501Y-70222123D01*
X133269500Y-70222135D01*
X121662031Y-70222135D01*
X121529792Y-70089896D01*
X121529786Y-70089890D01*
X121357820Y-69964951D01*
X121357115Y-69964591D01*
X121349054Y-69960485D01*
X121298259Y-69912512D01*
X121281463Y-69844692D01*
X121303999Y-69778556D01*
X121349054Y-69739515D01*
X121357816Y-69735051D01*
X121379789Y-69719086D01*
X121529786Y-69610109D01*
X121529788Y-69610106D01*
X121529792Y-69610104D01*
X121680104Y-69459792D01*
X121680106Y-69459788D01*
X121680109Y-69459786D01*
X121805048Y-69287820D01*
X121805047Y-69287820D01*
X121805051Y-69287816D01*
X121901557Y-69098412D01*
X121967246Y-68896243D01*
X122000500Y-68686287D01*
X122000500Y-68473713D01*
X121967246Y-68263757D01*
X121901557Y-68061588D01*
X121805051Y-67872184D01*
X121805049Y-67872181D01*
X121805048Y-67872179D01*
X121680109Y-67700213D01*
X121529786Y-67549890D01*
X121357820Y-67424951D01*
X121357115Y-67424591D01*
X121349054Y-67420485D01*
X121298259Y-67372512D01*
X121281463Y-67304692D01*
X121303999Y-67238556D01*
X121349054Y-67199515D01*
X121357816Y-67195051D01*
X121379789Y-67179086D01*
X121529786Y-67070109D01*
X121529788Y-67070106D01*
X121529792Y-67070104D01*
X121680104Y-66919792D01*
X121680106Y-66919788D01*
X121680109Y-66919786D01*
X121805048Y-66747820D01*
X121805047Y-66747820D01*
X121805051Y-66747816D01*
X121901557Y-66558412D01*
X121967246Y-66356243D01*
X122000500Y-66146287D01*
X122000500Y-65933713D01*
X121967246Y-65723757D01*
X121901557Y-65521588D01*
X121805051Y-65332184D01*
X121805049Y-65332181D01*
X121805048Y-65332179D01*
X121680109Y-65160213D01*
X121529786Y-65009890D01*
X121357820Y-64884951D01*
X121357115Y-64884591D01*
X121349054Y-64880485D01*
X121298259Y-64832512D01*
X121281463Y-64764692D01*
X121303999Y-64698556D01*
X121349054Y-64659515D01*
X121357816Y-64655051D01*
X121379789Y-64639086D01*
X121529786Y-64530109D01*
X121529788Y-64530106D01*
X121529792Y-64530104D01*
X121680104Y-64379792D01*
X121680106Y-64379788D01*
X121680109Y-64379786D01*
X121805048Y-64207820D01*
X121805047Y-64207820D01*
X121805051Y-64207816D01*
X121901557Y-64018412D01*
X121967246Y-63816243D01*
X122000500Y-63606287D01*
X122000500Y-63393713D01*
X121967246Y-63183757D01*
X121901557Y-62981588D01*
X121805051Y-62792184D01*
X121805049Y-62792181D01*
X121805048Y-62792179D01*
X121680109Y-62620213D01*
X121529786Y-62469890D01*
X121357820Y-62344951D01*
X121357115Y-62344591D01*
X121349054Y-62340485D01*
X121298259Y-62292512D01*
X121281463Y-62224692D01*
X121303999Y-62158556D01*
X121349054Y-62119515D01*
X121357816Y-62115051D01*
X121379789Y-62099086D01*
X121529786Y-61990109D01*
X121529788Y-61990106D01*
X121529792Y-61990104D01*
X121680104Y-61839792D01*
X121680106Y-61839788D01*
X121680109Y-61839786D01*
X121805048Y-61667820D01*
X121805047Y-61667820D01*
X121805051Y-61667816D01*
X121901557Y-61478412D01*
X121967246Y-61276243D01*
X122000500Y-61066287D01*
X122000500Y-60853713D01*
X121967246Y-60643757D01*
X121901557Y-60441588D01*
X121805051Y-60252184D01*
X121805049Y-60252181D01*
X121805048Y-60252179D01*
X121680109Y-60080213D01*
X121529786Y-59929890D01*
X121357820Y-59804951D01*
X121357115Y-59804591D01*
X121349054Y-59800485D01*
X121298259Y-59752512D01*
X121281463Y-59684692D01*
X121303999Y-59618556D01*
X121349054Y-59579515D01*
X121357816Y-59575051D01*
X121379789Y-59559086D01*
X121529786Y-59450109D01*
X121529788Y-59450106D01*
X121529792Y-59450104D01*
X121680104Y-59299792D01*
X121680106Y-59299788D01*
X121680109Y-59299786D01*
X121805048Y-59127820D01*
X121805047Y-59127820D01*
X121805051Y-59127816D01*
X121901557Y-58938412D01*
X121967246Y-58736243D01*
X122000500Y-58526287D01*
X122000500Y-58313713D01*
X121967246Y-58103757D01*
X121901557Y-57901588D01*
X121805051Y-57712184D01*
X121805049Y-57712181D01*
X121805048Y-57712179D01*
X121680109Y-57540213D01*
X121529786Y-57389890D01*
X121357820Y-57264951D01*
X121357115Y-57264591D01*
X121349054Y-57260485D01*
X121298259Y-57212512D01*
X121281463Y-57144692D01*
X121303999Y-57078556D01*
X121349054Y-57039515D01*
X121357816Y-57035051D01*
X121444138Y-56972335D01*
X121529786Y-56910109D01*
X121529788Y-56910106D01*
X121529792Y-56910104D01*
X121680104Y-56759792D01*
X121680106Y-56759788D01*
X121680109Y-56759786D01*
X121805048Y-56587820D01*
X121805047Y-56587820D01*
X121805051Y-56587816D01*
X121901557Y-56398412D01*
X121967246Y-56196243D01*
X122000500Y-55986287D01*
X122000500Y-55773713D01*
X121967246Y-55563757D01*
X121901557Y-55361588D01*
X121805051Y-55172184D01*
X121805049Y-55172181D01*
X121805048Y-55172179D01*
X121680109Y-55000213D01*
X121529786Y-54849890D01*
X121357820Y-54724951D01*
X121353341Y-54722669D01*
X121349054Y-54720485D01*
X121298259Y-54672512D01*
X121281463Y-54604692D01*
X121303999Y-54538556D01*
X121349054Y-54499515D01*
X121357816Y-54495051D01*
X121444138Y-54432335D01*
X121529786Y-54370109D01*
X121529788Y-54370106D01*
X121529792Y-54370104D01*
X121680104Y-54219792D01*
X121680106Y-54219788D01*
X121680109Y-54219786D01*
X121805048Y-54047820D01*
X121805047Y-54047820D01*
X121805051Y-54047816D01*
X121901557Y-53858412D01*
X121967246Y-53656243D01*
X122000500Y-53446287D01*
X122000500Y-53233713D01*
X121967246Y-53023757D01*
X121901557Y-52821588D01*
X121805051Y-52632184D01*
X121805049Y-52632181D01*
X121805048Y-52632179D01*
X121680109Y-52460213D01*
X121529786Y-52309890D01*
X121357820Y-52184951D01*
X121168414Y-52088444D01*
X121168413Y-52088443D01*
X121168412Y-52088443D01*
X120966243Y-52022754D01*
X120966241Y-52022753D01*
X120966240Y-52022753D01*
X120804957Y-51997208D01*
X120756287Y-51989500D01*
X120543713Y-51989500D01*
X120495042Y-51997208D01*
X120333760Y-52022753D01*
X120131585Y-52088444D01*
X119942179Y-52184951D01*
X119770215Y-52309889D01*
X119656673Y-52423431D01*
X119595350Y-52456915D01*
X119525658Y-52451931D01*
X119469725Y-52410059D01*
X119452810Y-52379082D01*
X119403797Y-52247671D01*
X119403793Y-52247664D01*
X119317547Y-52132455D01*
X119317544Y-52132452D01*
X119202335Y-52046206D01*
X119202328Y-52046202D01*
X119067482Y-51995908D01*
X119067483Y-51995908D01*
X119007883Y-51989501D01*
X119007881Y-51989500D01*
X119007873Y-51989500D01*
X119007864Y-51989500D01*
X117212129Y-51989500D01*
X117212123Y-51989501D01*
X117152516Y-51995908D01*
X117017671Y-52046202D01*
X117017664Y-52046206D01*
X116902455Y-52132452D01*
X116902452Y-52132455D01*
X116816206Y-52247664D01*
X116816202Y-52247671D01*
X116765908Y-52382517D01*
X116761510Y-52423431D01*
X116759501Y-52442123D01*
X116759500Y-52442135D01*
X116759500Y-54237870D01*
X116759501Y-54237876D01*
X116765908Y-54297483D01*
X116816202Y-54432328D01*
X116816206Y-54432335D01*
X116856600Y-54486294D01*
X116881018Y-54551758D01*
X116866167Y-54620031D01*
X116816762Y-54669437D01*
X116748489Y-54684289D01*
X116683024Y-54659873D01*
X116669653Y-54648286D01*
X115582772Y-53561405D01*
X115549287Y-53500082D01*
X115547980Y-53454325D01*
X115548588Y-53450486D01*
X115550500Y-53438417D01*
X115550500Y-53241583D01*
X115550500Y-53241577D01*
X115519709Y-53047173D01*
X115488067Y-52949792D01*
X115458884Y-52859975D01*
X115458882Y-52859972D01*
X115458882Y-52859970D01*
X115382573Y-52710205D01*
X115369524Y-52684595D01*
X115253828Y-52525354D01*
X115114646Y-52386172D01*
X114955405Y-52270476D01*
X114780029Y-52181117D01*
X114592826Y-52120290D01*
X114398422Y-52089500D01*
X114398417Y-52089500D01*
X114201583Y-52089500D01*
X114185672Y-52092020D01*
X114116378Y-52083064D01*
X114078594Y-52057227D01*
X111535760Y-49514392D01*
X111452945Y-49431577D01*
X128289500Y-49431577D01*
X128289500Y-49628422D01*
X128320290Y-49822826D01*
X128381117Y-50010029D01*
X128470476Y-50185405D01*
X128586172Y-50344646D01*
X128725354Y-50483828D01*
X128738385Y-50493295D01*
X128781050Y-50548622D01*
X128789500Y-50593613D01*
X128789500Y-54683918D01*
X128789500Y-54683920D01*
X128789499Y-54683920D01*
X128818340Y-54828907D01*
X128818343Y-54828917D01*
X128874914Y-54965492D01*
X128874915Y-54965494D01*
X128874916Y-54965495D01*
X128898110Y-55000208D01*
X128907812Y-55014727D01*
X128907813Y-55014730D01*
X128957046Y-55088414D01*
X128957052Y-55088421D01*
X130797227Y-56928594D01*
X130830712Y-56989917D01*
X130832019Y-57035671D01*
X130831411Y-57039516D01*
X130829500Y-57051583D01*
X130829500Y-57248422D01*
X130860290Y-57442826D01*
X130921117Y-57630029D01*
X130967442Y-57720946D01*
X131010476Y-57805405D01*
X131126172Y-57964646D01*
X131265354Y-58103828D01*
X131424595Y-58219524D01*
X131507455Y-58261743D01*
X131599970Y-58308882D01*
X131599972Y-58308882D01*
X131599975Y-58308884D01*
X131700317Y-58341487D01*
X131787173Y-58369709D01*
X131981578Y-58400500D01*
X131981583Y-58400500D01*
X132178422Y-58400500D01*
X132372826Y-58369709D01*
X132560025Y-58308884D01*
X132735405Y-58219524D01*
X132894646Y-58103828D01*
X133033828Y-57964646D01*
X133149524Y-57805405D01*
X133183399Y-57738920D01*
X133231373Y-57688125D01*
X133299194Y-57671330D01*
X133365329Y-57693867D01*
X133404369Y-57738921D01*
X133464951Y-57857820D01*
X133589890Y-58029786D01*
X133740213Y-58180109D01*
X133912179Y-58305048D01*
X133912181Y-58305049D01*
X133912184Y-58305051D01*
X134101588Y-58401557D01*
X134303757Y-58467246D01*
X134513713Y-58500500D01*
X134513714Y-58500500D01*
X134726286Y-58500500D01*
X134726287Y-58500500D01*
X134936243Y-58467246D01*
X135138412Y-58401557D01*
X135327816Y-58305051D01*
X135445535Y-58219524D01*
X135499786Y-58180109D01*
X135499788Y-58180106D01*
X135499792Y-58180104D01*
X135650104Y-58029792D01*
X135650106Y-58029788D01*
X135650109Y-58029786D01*
X135775048Y-57857820D01*
X135775047Y-57857820D01*
X135775051Y-57857816D01*
X135779514Y-57849054D01*
X135827488Y-57798259D01*
X135895308Y-57781463D01*
X135961444Y-57803999D01*
X136000486Y-57849056D01*
X136004951Y-57857820D01*
X136129890Y-58029786D01*
X136280213Y-58180109D01*
X136452179Y-58305048D01*
X136452181Y-58305049D01*
X136452184Y-58305051D01*
X136641588Y-58401557D01*
X136843757Y-58467246D01*
X137053713Y-58500500D01*
X137053714Y-58500500D01*
X137266286Y-58500500D01*
X137266287Y-58500500D01*
X137476243Y-58467246D01*
X137678412Y-58401557D01*
X137867816Y-58305051D01*
X137985535Y-58219524D01*
X138039786Y-58180109D01*
X138039788Y-58180106D01*
X138039792Y-58180104D01*
X138190104Y-58029792D01*
X138190106Y-58029788D01*
X138190109Y-58029786D01*
X138315048Y-57857820D01*
X138315047Y-57857820D01*
X138315051Y-57857816D01*
X138411557Y-57668412D01*
X138477246Y-57466243D01*
X138510500Y-57256287D01*
X138510500Y-57043713D01*
X138477246Y-56833757D01*
X138411557Y-56631588D01*
X138315051Y-56442184D01*
X138315049Y-56442181D01*
X138315048Y-56442179D01*
X138190109Y-56270213D01*
X138039786Y-56119890D01*
X137867820Y-55994951D01*
X137860293Y-55991116D01*
X137859054Y-55990485D01*
X137808259Y-55942512D01*
X137791463Y-55874692D01*
X137813999Y-55808556D01*
X137859054Y-55769515D01*
X137867816Y-55765051D01*
X137889789Y-55749086D01*
X138039786Y-55640109D01*
X138039788Y-55640106D01*
X138039792Y-55640104D01*
X138190104Y-55489792D01*
X138190106Y-55489788D01*
X138190109Y-55489786D01*
X138315048Y-55317820D01*
X138315047Y-55317820D01*
X138315051Y-55317816D01*
X138411557Y-55128412D01*
X138477246Y-54926243D01*
X138510500Y-54716287D01*
X138510500Y-54503713D01*
X138477246Y-54293757D01*
X138411557Y-54091588D01*
X138315051Y-53902184D01*
X138315049Y-53902181D01*
X138315048Y-53902179D01*
X138190109Y-53730213D01*
X138039786Y-53579890D01*
X137867820Y-53454951D01*
X137866591Y-53454325D01*
X137859054Y-53450485D01*
X137808259Y-53402512D01*
X137791463Y-53334692D01*
X137813999Y-53268556D01*
X137859054Y-53229515D01*
X137867816Y-53225051D01*
X137954138Y-53162335D01*
X138039786Y-53100109D01*
X138039788Y-53100106D01*
X138039792Y-53100104D01*
X138190104Y-52949792D01*
X138190106Y-52949788D01*
X138190109Y-52949786D01*
X138315048Y-52777820D01*
X138315047Y-52777820D01*
X138315051Y-52777816D01*
X138411557Y-52588412D01*
X138477246Y-52386243D01*
X138510500Y-52176287D01*
X138510500Y-51963713D01*
X138477246Y-51753757D01*
X138411557Y-51551588D01*
X138315051Y-51362184D01*
X138315049Y-51362181D01*
X138315048Y-51362179D01*
X138190109Y-51190213D01*
X138039786Y-51039890D01*
X137867820Y-50914951D01*
X137678414Y-50818444D01*
X137678413Y-50818443D01*
X137678412Y-50818443D01*
X137476243Y-50752754D01*
X137476241Y-50752753D01*
X137476240Y-50752753D01*
X137314957Y-50727208D01*
X137266287Y-50719500D01*
X137053713Y-50719500D01*
X137005042Y-50727208D01*
X136843760Y-50752753D01*
X136641585Y-50818444D01*
X136452179Y-50914951D01*
X136280215Y-51039889D01*
X136166673Y-51153431D01*
X136105350Y-51186915D01*
X136035658Y-51181931D01*
X135979725Y-51140059D01*
X135962810Y-51109082D01*
X135913797Y-50977671D01*
X135913793Y-50977664D01*
X135827547Y-50862455D01*
X135827544Y-50862452D01*
X135712335Y-50776206D01*
X135712328Y-50776202D01*
X135577482Y-50725908D01*
X135577483Y-50725908D01*
X135517883Y-50719501D01*
X135517881Y-50719500D01*
X135517873Y-50719500D01*
X135517864Y-50719500D01*
X133722129Y-50719500D01*
X133722123Y-50719501D01*
X133662516Y-50725908D01*
X133527671Y-50776202D01*
X133527664Y-50776206D01*
X133412455Y-50862452D01*
X133412452Y-50862455D01*
X133326206Y-50977664D01*
X133326202Y-50977671D01*
X133275908Y-51112517D01*
X133269501Y-51172116D01*
X133269500Y-51172135D01*
X133269500Y-52967870D01*
X133269501Y-52967876D01*
X133275908Y-53027483D01*
X133326202Y-53162328D01*
X133326206Y-53162335D01*
X133412452Y-53277544D01*
X133412455Y-53277547D01*
X133527664Y-53363793D01*
X133527671Y-53363797D01*
X133659082Y-53412810D01*
X133715016Y-53454681D01*
X133739433Y-53520145D01*
X133724582Y-53588418D01*
X133703431Y-53616673D01*
X133589889Y-53730215D01*
X133464951Y-53902179D01*
X133368444Y-54091585D01*
X133302753Y-54293760D01*
X133290661Y-54370109D01*
X133269500Y-54503713D01*
X133269500Y-54716287D01*
X133270872Y-54724949D01*
X133302163Y-54922517D01*
X133302754Y-54926243D01*
X133355447Y-55088416D01*
X133368444Y-55128414D01*
X133464951Y-55317820D01*
X133589890Y-55489786D01*
X133740213Y-55640109D01*
X133912182Y-55765050D01*
X133920946Y-55769516D01*
X133971742Y-55817491D01*
X133988536Y-55885312D01*
X133965998Y-55951447D01*
X133920946Y-55990484D01*
X133912182Y-55994949D01*
X133740213Y-56119890D01*
X133589890Y-56270213D01*
X133464951Y-56442180D01*
X133404369Y-56561078D01*
X133356394Y-56611874D01*
X133288573Y-56628669D01*
X133222438Y-56606131D01*
X133183399Y-56561078D01*
X133161722Y-56518536D01*
X133149524Y-56494595D01*
X133033828Y-56335354D01*
X132894646Y-56196172D01*
X132735405Y-56080476D01*
X132560029Y-55991117D01*
X132372826Y-55930290D01*
X132178422Y-55899500D01*
X132178417Y-55899500D01*
X131981583Y-55899500D01*
X131965672Y-55902020D01*
X131896378Y-55893064D01*
X131858594Y-55867227D01*
X130326819Y-54335451D01*
X130293334Y-54274128D01*
X130290500Y-54247770D01*
X130290500Y-50593613D01*
X130310185Y-50526574D01*
X130341613Y-50493296D01*
X130354646Y-50483828D01*
X130493828Y-50344646D01*
X130609524Y-50185405D01*
X130698884Y-50010025D01*
X130759709Y-49822826D01*
X130790500Y-49628422D01*
X130790500Y-49431577D01*
X130759709Y-49237173D01*
X130698882Y-49049970D01*
X130609523Y-48874594D01*
X130493828Y-48715354D01*
X130354646Y-48576172D01*
X130195405Y-48460476D01*
X130020029Y-48371117D01*
X129832826Y-48310290D01*
X129638422Y-48279500D01*
X129638417Y-48279500D01*
X129441583Y-48279500D01*
X129441578Y-48279500D01*
X129247173Y-48310290D01*
X129059970Y-48371117D01*
X128884594Y-48460476D01*
X128793741Y-48526485D01*
X128725354Y-48576172D01*
X128725352Y-48576174D01*
X128725351Y-48576174D01*
X128586174Y-48715351D01*
X128586174Y-48715352D01*
X128586172Y-48715354D01*
X128536485Y-48783741D01*
X128470476Y-48874594D01*
X128381117Y-49049970D01*
X128320290Y-49237173D01*
X128289500Y-49431577D01*
X111452945Y-49431577D01*
X109232772Y-47211404D01*
X109199287Y-47150081D01*
X109197980Y-47104326D01*
X109200500Y-47088417D01*
X109200500Y-46891583D01*
X109200500Y-46891577D01*
X109169709Y-46697173D01*
X109108882Y-46509970D01*
X109019523Y-46334594D01*
X108903828Y-46175354D01*
X108764646Y-46036172D01*
X108605405Y-45920476D01*
X108430029Y-45831117D01*
X108242826Y-45770290D01*
X108048422Y-45739500D01*
X108048417Y-45739500D01*
X107851583Y-45739500D01*
X107851578Y-45739500D01*
X107657173Y-45770290D01*
X107469970Y-45831117D01*
X107294594Y-45920476D01*
X107203741Y-45986485D01*
X107135354Y-46036172D01*
X107135352Y-46036174D01*
X107135351Y-46036174D01*
X106996174Y-46175351D01*
X106996174Y-46175352D01*
X106996172Y-46175354D01*
X106946485Y-46243741D01*
X106880476Y-46334594D01*
X106791117Y-46509970D01*
X106730290Y-46697173D01*
X106699500Y-46891577D01*
X70600500Y-46891577D01*
X70600500Y-40433613D01*
X70620185Y-40366574D01*
X70651613Y-40333296D01*
X70664646Y-40323828D01*
X70803828Y-40184646D01*
X70919524Y-40025405D01*
X71008884Y-39850025D01*
X71069709Y-39662826D01*
X71100500Y-39468422D01*
X71100500Y-39271584D01*
X71100499Y-39271577D01*
X71097980Y-39255675D01*
X71106931Y-39186385D01*
X71132766Y-39148599D01*
X71394549Y-38886816D01*
X71455871Y-38853334D01*
X71482229Y-38850500D01*
X81486386Y-38850500D01*
X81553425Y-38870185D01*
X81586702Y-38901612D01*
X81596172Y-38914646D01*
X81735354Y-39053828D01*
X81894595Y-39169524D01*
X81977455Y-39211743D01*
X82069970Y-39258882D01*
X82069972Y-39258882D01*
X82069975Y-39258884D01*
X82170317Y-39291487D01*
X82257173Y-39319709D01*
X82451578Y-39350500D01*
X82451583Y-39350500D01*
X82648422Y-39350500D01*
X82842826Y-39319709D01*
X83030025Y-39258884D01*
X83205405Y-39169524D01*
X83364646Y-39053828D01*
X83503828Y-38914646D01*
X83619524Y-38755405D01*
X83708884Y-38580025D01*
X83769709Y-38392826D01*
X83798489Y-38211116D01*
X83800500Y-38198422D01*
X83800500Y-38001577D01*
X83769709Y-37807173D01*
X83738067Y-37709792D01*
X83708884Y-37619975D01*
X83708882Y-37619972D01*
X83708882Y-37619970D01*
X83619523Y-37444594D01*
X83612494Y-37434919D01*
X83503828Y-37285354D01*
X83390609Y-37172135D01*
X97709500Y-37172135D01*
X97709500Y-38967870D01*
X97709501Y-38967876D01*
X97715908Y-39027483D01*
X97766202Y-39162328D01*
X97766206Y-39162335D01*
X97852452Y-39277544D01*
X97852455Y-39277547D01*
X97967664Y-39363793D01*
X97967671Y-39363797D01*
X98102517Y-39414091D01*
X98102516Y-39414091D01*
X98109444Y-39414835D01*
X98162127Y-39420500D01*
X99957872Y-39420499D01*
X100017483Y-39414091D01*
X100152331Y-39363796D01*
X100267546Y-39277546D01*
X100353796Y-39162331D01*
X100404091Y-39027483D01*
X100410500Y-38967873D01*
X100410499Y-37963713D01*
X102789500Y-37963713D01*
X102789500Y-38176287D01*
X102822754Y-38386243D01*
X102885719Y-38580029D01*
X102888444Y-38588414D01*
X102984951Y-38777820D01*
X103109890Y-38949786D01*
X103260213Y-39100109D01*
X103432179Y-39225048D01*
X103432181Y-39225049D01*
X103432184Y-39225051D01*
X103621588Y-39321557D01*
X103823757Y-39387246D01*
X104033713Y-39420500D01*
X104033714Y-39420500D01*
X104246286Y-39420500D01*
X104246287Y-39420500D01*
X104456243Y-39387246D01*
X104658412Y-39321557D01*
X104847816Y-39225051D01*
X104924243Y-39169524D01*
X105019786Y-39100109D01*
X105019788Y-39100106D01*
X105019792Y-39100104D01*
X105170104Y-38949792D01*
X105170106Y-38949788D01*
X105170109Y-38949786D01*
X105295048Y-38777820D01*
X105295047Y-38777820D01*
X105295051Y-38777816D01*
X105299514Y-38769054D01*
X105347488Y-38718259D01*
X105415308Y-38701463D01*
X105481444Y-38723999D01*
X105520486Y-38769056D01*
X105524951Y-38777820D01*
X105649890Y-38949786D01*
X105800213Y-39100109D01*
X105972179Y-39225048D01*
X105972181Y-39225049D01*
X105972184Y-39225051D01*
X106161588Y-39321557D01*
X106363757Y-39387246D01*
X106573713Y-39420500D01*
X106573714Y-39420500D01*
X106786286Y-39420500D01*
X106786287Y-39420500D01*
X106996243Y-39387246D01*
X107198412Y-39321557D01*
X107387816Y-39225051D01*
X107464243Y-39169524D01*
X107559786Y-39100109D01*
X107559788Y-39100106D01*
X107559792Y-39100104D01*
X107710104Y-38949792D01*
X107710106Y-38949788D01*
X107710109Y-38949786D01*
X107835048Y-38777820D01*
X107835047Y-38777820D01*
X107835051Y-38777816D01*
X107839514Y-38769054D01*
X107887488Y-38718259D01*
X107955308Y-38701463D01*
X108021444Y-38723999D01*
X108060486Y-38769056D01*
X108064951Y-38777820D01*
X108189890Y-38949786D01*
X108340213Y-39100109D01*
X108512179Y-39225048D01*
X108512181Y-39225049D01*
X108512184Y-39225051D01*
X108701588Y-39321557D01*
X108903757Y-39387246D01*
X109113713Y-39420500D01*
X109113714Y-39420500D01*
X109326286Y-39420500D01*
X109326287Y-39420500D01*
X109536243Y-39387246D01*
X109738412Y-39321557D01*
X109927816Y-39225051D01*
X110004243Y-39169524D01*
X110099786Y-39100109D01*
X110099788Y-39100106D01*
X110099792Y-39100104D01*
X110250104Y-38949792D01*
X110250106Y-38949788D01*
X110250109Y-38949786D01*
X110375048Y-38777820D01*
X110375047Y-38777820D01*
X110375051Y-38777816D01*
X110379514Y-38769054D01*
X110427488Y-38718259D01*
X110495308Y-38701463D01*
X110561444Y-38723999D01*
X110600486Y-38769056D01*
X110604951Y-38777820D01*
X110729890Y-38949786D01*
X110880213Y-39100109D01*
X111052179Y-39225048D01*
X111052181Y-39225049D01*
X111052184Y-39225051D01*
X111241588Y-39321557D01*
X111443757Y-39387246D01*
X111653713Y-39420500D01*
X111653714Y-39420500D01*
X111866286Y-39420500D01*
X111866287Y-39420500D01*
X112076243Y-39387246D01*
X112278412Y-39321557D01*
X112467816Y-39225051D01*
X112544243Y-39169524D01*
X112639786Y-39100109D01*
X112639788Y-39100106D01*
X112639792Y-39100104D01*
X112790104Y-38949792D01*
X112790106Y-38949788D01*
X112790109Y-38949786D01*
X112915048Y-38777820D01*
X112915047Y-38777820D01*
X112915051Y-38777816D01*
X112919514Y-38769054D01*
X112967488Y-38718259D01*
X113035308Y-38701463D01*
X113101444Y-38723999D01*
X113140486Y-38769056D01*
X113144951Y-38777820D01*
X113269890Y-38949786D01*
X113420213Y-39100109D01*
X113592179Y-39225048D01*
X113592181Y-39225049D01*
X113592184Y-39225051D01*
X113781588Y-39321557D01*
X113983757Y-39387246D01*
X114193713Y-39420500D01*
X114193714Y-39420500D01*
X114406286Y-39420500D01*
X114406287Y-39420500D01*
X114616243Y-39387246D01*
X114818412Y-39321557D01*
X115007816Y-39225051D01*
X115084243Y-39169524D01*
X115179786Y-39100109D01*
X115179788Y-39100106D01*
X115179792Y-39100104D01*
X115330104Y-38949792D01*
X115330106Y-38949788D01*
X115330109Y-38949786D01*
X115455048Y-38777820D01*
X115455047Y-38777820D01*
X115455051Y-38777816D01*
X115459514Y-38769054D01*
X115507488Y-38718259D01*
X115575308Y-38701463D01*
X115641444Y-38723999D01*
X115680486Y-38769056D01*
X115684951Y-38777820D01*
X115809890Y-38949786D01*
X115960213Y-39100109D01*
X116132179Y-39225048D01*
X116132181Y-39225049D01*
X116132184Y-39225051D01*
X116321588Y-39321557D01*
X116523757Y-39387246D01*
X116733713Y-39420500D01*
X116733714Y-39420500D01*
X116946286Y-39420500D01*
X116946287Y-39420500D01*
X117156243Y-39387246D01*
X117358412Y-39321557D01*
X117547816Y-39225051D01*
X117624243Y-39169524D01*
X117719786Y-39100109D01*
X117719788Y-39100106D01*
X117719792Y-39100104D01*
X117870104Y-38949792D01*
X117870106Y-38949788D01*
X117870109Y-38949786D01*
X117995048Y-38777820D01*
X117995047Y-38777820D01*
X117995051Y-38777816D01*
X118091557Y-38588412D01*
X118157246Y-38386243D01*
X118190500Y-38176287D01*
X118190500Y-37963713D01*
X118157246Y-37753757D01*
X118091557Y-37551588D01*
X117995051Y-37362184D01*
X117995049Y-37362181D01*
X117995048Y-37362179D01*
X117870109Y-37190213D01*
X117719786Y-37039890D01*
X117547820Y-36914951D01*
X117358414Y-36818444D01*
X117358413Y-36818443D01*
X117358412Y-36818443D01*
X117156243Y-36752754D01*
X117156241Y-36752753D01*
X117156240Y-36752753D01*
X116994957Y-36727208D01*
X116946287Y-36719500D01*
X116733713Y-36719500D01*
X116685042Y-36727208D01*
X116523760Y-36752753D01*
X116321585Y-36818444D01*
X116132179Y-36914951D01*
X115960213Y-37039890D01*
X115809890Y-37190213D01*
X115684949Y-37362182D01*
X115680484Y-37370946D01*
X115632509Y-37421742D01*
X115564688Y-37438536D01*
X115498553Y-37415998D01*
X115459516Y-37370946D01*
X115455050Y-37362182D01*
X115330109Y-37190213D01*
X115179786Y-37039890D01*
X115007820Y-36914951D01*
X114818414Y-36818444D01*
X114818413Y-36818443D01*
X114818412Y-36818443D01*
X114616243Y-36752754D01*
X114616241Y-36752753D01*
X114616240Y-36752753D01*
X114454957Y-36727208D01*
X114406287Y-36719500D01*
X114193713Y-36719500D01*
X114145042Y-36727208D01*
X113983760Y-36752753D01*
X113781585Y-36818444D01*
X113592179Y-36914951D01*
X113420213Y-37039890D01*
X113269890Y-37190213D01*
X113144949Y-37362182D01*
X113140484Y-37370946D01*
X113092509Y-37421742D01*
X113024688Y-37438536D01*
X112958553Y-37415998D01*
X112919516Y-37370946D01*
X112915050Y-37362182D01*
X112790109Y-37190213D01*
X112639786Y-37039890D01*
X112467820Y-36914951D01*
X112278414Y-36818444D01*
X112278413Y-36818443D01*
X112278412Y-36818443D01*
X112076243Y-36752754D01*
X112076241Y-36752753D01*
X112076240Y-36752753D01*
X111914957Y-36727208D01*
X111866287Y-36719500D01*
X111653713Y-36719500D01*
X111605042Y-36727208D01*
X111443760Y-36752753D01*
X111241585Y-36818444D01*
X111052179Y-36914951D01*
X110880213Y-37039890D01*
X110729890Y-37190213D01*
X110604949Y-37362182D01*
X110600484Y-37370946D01*
X110552509Y-37421742D01*
X110484688Y-37438536D01*
X110418553Y-37415998D01*
X110379516Y-37370946D01*
X110375050Y-37362182D01*
X110250109Y-37190213D01*
X110099786Y-37039890D01*
X109927820Y-36914951D01*
X109738414Y-36818444D01*
X109738413Y-36818443D01*
X109738412Y-36818443D01*
X109536243Y-36752754D01*
X109536241Y-36752753D01*
X109536240Y-36752753D01*
X109374957Y-36727208D01*
X109326287Y-36719500D01*
X109113713Y-36719500D01*
X109065042Y-36727208D01*
X108903760Y-36752753D01*
X108701585Y-36818444D01*
X108512179Y-36914951D01*
X108340213Y-37039890D01*
X108189890Y-37190213D01*
X108064949Y-37362182D01*
X108060484Y-37370946D01*
X108012509Y-37421742D01*
X107944688Y-37438536D01*
X107878553Y-37415998D01*
X107839516Y-37370946D01*
X107835050Y-37362182D01*
X107710109Y-37190213D01*
X107559786Y-37039890D01*
X107387820Y-36914951D01*
X107198414Y-36818444D01*
X107198413Y-36818443D01*
X107198412Y-36818443D01*
X106996243Y-36752754D01*
X106996241Y-36752753D01*
X106996240Y-36752753D01*
X106834957Y-36727208D01*
X106786287Y-36719500D01*
X106573713Y-36719500D01*
X106525042Y-36727208D01*
X106363760Y-36752753D01*
X106161585Y-36818444D01*
X105972179Y-36914951D01*
X105800213Y-37039890D01*
X105649890Y-37190213D01*
X105524949Y-37362182D01*
X105520484Y-37370946D01*
X105472509Y-37421742D01*
X105404688Y-37438536D01*
X105338553Y-37415998D01*
X105299516Y-37370946D01*
X105295050Y-37362182D01*
X105170109Y-37190213D01*
X105019786Y-37039890D01*
X104847820Y-36914951D01*
X104658414Y-36818444D01*
X104658413Y-36818443D01*
X104658412Y-36818443D01*
X104456243Y-36752754D01*
X104456241Y-36752753D01*
X104456240Y-36752753D01*
X104294957Y-36727208D01*
X104246287Y-36719500D01*
X104033713Y-36719500D01*
X103985042Y-36727208D01*
X103823760Y-36752753D01*
X103621585Y-36818444D01*
X103432179Y-36914951D01*
X103260213Y-37039890D01*
X103109890Y-37190213D01*
X102984951Y-37362179D01*
X102888444Y-37551585D01*
X102822753Y-37753760D01*
X102805910Y-37860104D01*
X102789500Y-37963713D01*
X100410499Y-37963713D01*
X100410499Y-37172128D01*
X100404091Y-37112517D01*
X100353796Y-36977669D01*
X100353795Y-36977668D01*
X100353793Y-36977664D01*
X100267547Y-36862455D01*
X100267544Y-36862452D01*
X100152335Y-36776206D01*
X100152328Y-36776202D01*
X100017482Y-36725908D01*
X100017483Y-36725908D01*
X99957883Y-36719501D01*
X99957881Y-36719500D01*
X99957873Y-36719500D01*
X99957864Y-36719500D01*
X98162129Y-36719500D01*
X98162123Y-36719501D01*
X98102516Y-36725908D01*
X97967671Y-36776202D01*
X97967664Y-36776206D01*
X97852455Y-36862452D01*
X97852452Y-36862455D01*
X97766206Y-36977664D01*
X97766202Y-36977671D01*
X97715908Y-37112517D01*
X97709501Y-37172116D01*
X97709501Y-37172123D01*
X97709500Y-37172135D01*
X83390609Y-37172135D01*
X83364646Y-37146172D01*
X83205405Y-37030476D01*
X83030029Y-36941117D01*
X82842826Y-36880290D01*
X82648422Y-36849500D01*
X82648417Y-36849500D01*
X82451583Y-36849500D01*
X82451578Y-36849500D01*
X82257173Y-36880290D01*
X82069970Y-36941117D01*
X81894594Y-37030476D01*
X81803741Y-37096485D01*
X81735354Y-37146172D01*
X81735352Y-37146174D01*
X81735351Y-37146174D01*
X81596171Y-37285354D01*
X81586703Y-37298387D01*
X81531372Y-37341052D01*
X81486386Y-37349500D01*
X71046080Y-37349500D01*
X70901092Y-37378340D01*
X70901082Y-37378343D01*
X70764511Y-37434912D01*
X70764498Y-37434919D01*
X70641584Y-37517048D01*
X70641580Y-37517051D01*
X70071404Y-38087227D01*
X70010081Y-38120712D01*
X69964324Y-38122019D01*
X69948420Y-38119500D01*
X69948417Y-38119500D01*
X69751583Y-38119500D01*
X69751578Y-38119500D01*
X69557173Y-38150290D01*
X69369970Y-38211117D01*
X69194594Y-38300476D01*
X69103741Y-38366485D01*
X69035354Y-38416172D01*
X69035352Y-38416174D01*
X69035351Y-38416174D01*
X68896174Y-38555351D01*
X68896174Y-38555352D01*
X68896172Y-38555354D01*
X68846485Y-38623741D01*
X68780476Y-38714594D01*
X68691117Y-38889970D01*
X68630290Y-39077173D01*
X68599500Y-39271577D01*
X68599500Y-39468422D01*
X68630290Y-39662826D01*
X68691117Y-39850029D01*
X68780476Y-40025405D01*
X68896172Y-40184646D01*
X69035354Y-40323828D01*
X69048385Y-40333295D01*
X69091050Y-40388622D01*
X69099500Y-40433613D01*
X69099500Y-69487770D01*
X69079815Y-69554809D01*
X69063181Y-69575451D01*
X66400451Y-72238181D01*
X66339128Y-72271666D01*
X66312770Y-72274500D01*
X65198614Y-72274500D01*
X65131575Y-72254815D01*
X65098297Y-72223387D01*
X65088828Y-72210354D01*
X64949648Y-72071174D01*
X64949646Y-72071172D01*
X64790405Y-71955476D01*
X64723949Y-71921615D01*
X64615029Y-71866117D01*
X64427826Y-71805290D01*
X64233422Y-71774500D01*
X64233417Y-71774500D01*
X64036583Y-71774500D01*
X64036579Y-71774500D01*
X64020674Y-71777019D01*
X63951380Y-71768064D01*
X63913595Y-71742227D01*
X62708413Y-70537045D01*
X62659179Y-70504150D01*
X62626355Y-70482218D01*
X62585495Y-70454916D01*
X62585494Y-70454915D01*
X62585492Y-70454914D01*
X62585490Y-70454913D01*
X62448917Y-70398343D01*
X62448907Y-70398340D01*
X62303920Y-70369500D01*
X62303918Y-70369500D01*
X60877221Y-70369500D01*
X60810182Y-70349815D01*
X60776903Y-70318385D01*
X60720107Y-70240211D01*
X60569786Y-70089890D01*
X60397820Y-69964951D01*
X60397115Y-69964591D01*
X60389054Y-69960485D01*
X60338259Y-69912512D01*
X60321463Y-69844692D01*
X60343999Y-69778556D01*
X60389054Y-69739515D01*
X60397816Y-69735051D01*
X60419789Y-69719086D01*
X60569786Y-69610109D01*
X60569788Y-69610106D01*
X60569792Y-69610104D01*
X60720104Y-69459792D01*
X60720106Y-69459788D01*
X60720109Y-69459786D01*
X60845048Y-69287820D01*
X60845047Y-69287820D01*
X60845051Y-69287816D01*
X60941557Y-69098412D01*
X61007246Y-68896243D01*
X61040500Y-68686287D01*
X61040500Y-68473713D01*
X61007246Y-68263757D01*
X60941557Y-68061588D01*
X60845051Y-67872184D01*
X60845049Y-67872181D01*
X60845048Y-67872179D01*
X60720109Y-67700213D01*
X60569786Y-67549890D01*
X60397820Y-67424951D01*
X60397115Y-67424591D01*
X60389054Y-67420485D01*
X60338259Y-67372512D01*
X60321463Y-67304692D01*
X60343999Y-67238556D01*
X60389054Y-67199515D01*
X60397816Y-67195051D01*
X60419789Y-67179086D01*
X60569786Y-67070109D01*
X60569788Y-67070106D01*
X60569792Y-67070104D01*
X60720104Y-66919792D01*
X60720106Y-66919788D01*
X60720109Y-66919786D01*
X60845048Y-66747820D01*
X60845047Y-66747820D01*
X60845051Y-66747816D01*
X60941557Y-66558412D01*
X61007246Y-66356243D01*
X61040500Y-66146287D01*
X61040500Y-65933713D01*
X61007246Y-65723757D01*
X60941557Y-65521588D01*
X60845051Y-65332184D01*
X60845049Y-65332181D01*
X60845048Y-65332179D01*
X60720109Y-65160213D01*
X60569786Y-65009890D01*
X60397820Y-64884951D01*
X60397115Y-64884591D01*
X60389054Y-64880485D01*
X60338259Y-64832512D01*
X60321463Y-64764692D01*
X60343999Y-64698556D01*
X60389054Y-64659515D01*
X60397816Y-64655051D01*
X60419789Y-64639086D01*
X60569786Y-64530109D01*
X60569788Y-64530106D01*
X60569792Y-64530104D01*
X60720104Y-64379792D01*
X60720106Y-64379788D01*
X60720109Y-64379786D01*
X60845048Y-64207820D01*
X60845047Y-64207820D01*
X60845051Y-64207816D01*
X60941557Y-64018412D01*
X61007246Y-63816243D01*
X61040500Y-63606287D01*
X61040500Y-63393713D01*
X61007246Y-63183757D01*
X60941557Y-62981588D01*
X60845051Y-62792184D01*
X60845049Y-62792181D01*
X60845048Y-62792179D01*
X60720109Y-62620213D01*
X60569786Y-62469890D01*
X60397820Y-62344951D01*
X60208414Y-62248444D01*
X60208413Y-62248443D01*
X60208412Y-62248443D01*
X60006243Y-62182754D01*
X60006241Y-62182753D01*
X60006240Y-62182753D01*
X59844957Y-62157208D01*
X59796287Y-62149500D01*
X59583713Y-62149500D01*
X59535042Y-62157208D01*
X59373760Y-62182753D01*
X59171585Y-62248444D01*
X58982179Y-62344951D01*
X58810213Y-62469890D01*
X58659890Y-62620213D01*
X58534949Y-62792182D01*
X58530484Y-62800946D01*
X58482509Y-62851742D01*
X58414688Y-62868536D01*
X58348553Y-62845998D01*
X58309516Y-62800946D01*
X58305050Y-62792182D01*
X58180109Y-62620213D01*
X58029786Y-62469890D01*
X57857820Y-62344951D01*
X57857115Y-62344591D01*
X57849054Y-62340485D01*
X57798259Y-62292512D01*
X57781463Y-62224692D01*
X57803999Y-62158556D01*
X57849054Y-62119515D01*
X57857816Y-62115051D01*
X57879789Y-62099086D01*
X58029786Y-61990109D01*
X58029788Y-61990106D01*
X58029792Y-61990104D01*
X58180104Y-61839792D01*
X58180106Y-61839788D01*
X58180109Y-61839786D01*
X58305048Y-61667820D01*
X58305047Y-61667820D01*
X58305051Y-61667816D01*
X58401557Y-61478412D01*
X58467246Y-61276243D01*
X58500500Y-61066287D01*
X58500500Y-60853713D01*
X58467246Y-60643757D01*
X58401557Y-60441588D01*
X58305051Y-60252184D01*
X58305049Y-60252181D01*
X58305048Y-60252179D01*
X58180109Y-60080213D01*
X58029786Y-59929890D01*
X57857820Y-59804951D01*
X57857115Y-59804591D01*
X57849054Y-59800485D01*
X57798259Y-59752512D01*
X57781463Y-59684692D01*
X57803999Y-59618556D01*
X57849054Y-59579515D01*
X57857816Y-59575051D01*
X57879789Y-59559086D01*
X58029786Y-59450109D01*
X58029788Y-59450106D01*
X58029792Y-59450104D01*
X58180104Y-59299792D01*
X58180106Y-59299788D01*
X58180109Y-59299786D01*
X58305048Y-59127820D01*
X58305047Y-59127820D01*
X58305051Y-59127816D01*
X58309514Y-59119054D01*
X58357488Y-59068259D01*
X58425308Y-59051463D01*
X58491444Y-59073999D01*
X58530486Y-59119056D01*
X58534951Y-59127820D01*
X58659890Y-59299786D01*
X58810213Y-59450109D01*
X58982179Y-59575048D01*
X58982181Y-59575049D01*
X58982184Y-59575051D01*
X59171588Y-59671557D01*
X59373757Y-59737246D01*
X59583713Y-59770500D01*
X59583714Y-59770500D01*
X59796286Y-59770500D01*
X59796287Y-59770500D01*
X60006243Y-59737246D01*
X60208412Y-59671557D01*
X60397816Y-59575051D01*
X60419789Y-59559086D01*
X60569786Y-59450109D01*
X60569788Y-59450106D01*
X60569792Y-59450104D01*
X60720104Y-59299792D01*
X60720106Y-59299788D01*
X60720109Y-59299786D01*
X60845048Y-59127820D01*
X60845047Y-59127820D01*
X60845051Y-59127816D01*
X60941557Y-58938412D01*
X61007246Y-58736243D01*
X61040500Y-58526287D01*
X61040500Y-58313713D01*
X61007246Y-58103757D01*
X60941557Y-57901588D01*
X60845051Y-57712184D01*
X60845049Y-57712181D01*
X60845048Y-57712179D01*
X60720109Y-57540213D01*
X60569786Y-57389890D01*
X60397820Y-57264951D01*
X60397115Y-57264591D01*
X60389054Y-57260485D01*
X60338259Y-57212512D01*
X60321463Y-57144692D01*
X60343999Y-57078556D01*
X60389054Y-57039515D01*
X60397816Y-57035051D01*
X60484138Y-56972335D01*
X60569786Y-56910109D01*
X60569788Y-56910106D01*
X60569792Y-56910104D01*
X60720104Y-56759792D01*
X60720106Y-56759788D01*
X60720109Y-56759786D01*
X60845048Y-56587820D01*
X60845047Y-56587820D01*
X60845051Y-56587816D01*
X60941557Y-56398412D01*
X61007246Y-56196243D01*
X61040500Y-55986287D01*
X61040500Y-55773713D01*
X61007246Y-55563757D01*
X60941557Y-55361588D01*
X60845051Y-55172184D01*
X60845049Y-55172181D01*
X60845048Y-55172179D01*
X60720109Y-55000213D01*
X60569786Y-54849890D01*
X60397820Y-54724951D01*
X60393341Y-54722669D01*
X60389054Y-54720485D01*
X60338259Y-54672512D01*
X60321463Y-54604692D01*
X60343999Y-54538556D01*
X60389054Y-54499515D01*
X60397816Y-54495051D01*
X60484138Y-54432335D01*
X60569786Y-54370109D01*
X60569788Y-54370106D01*
X60569792Y-54370104D01*
X60720104Y-54219792D01*
X60720106Y-54219788D01*
X60720109Y-54219786D01*
X60845048Y-54047820D01*
X60845047Y-54047820D01*
X60845051Y-54047816D01*
X60941557Y-53858412D01*
X61007246Y-53656243D01*
X61040500Y-53446287D01*
X61040500Y-53233713D01*
X61007246Y-53023757D01*
X60941557Y-52821588D01*
X60845051Y-52632184D01*
X60845049Y-52632181D01*
X60845048Y-52632179D01*
X60720109Y-52460213D01*
X60569786Y-52309890D01*
X60397820Y-52184951D01*
X60208414Y-52088444D01*
X60208413Y-52088443D01*
X60208412Y-52088443D01*
X60006243Y-52022754D01*
X60006241Y-52022753D01*
X60006240Y-52022753D01*
X59844957Y-51997208D01*
X59796287Y-51989500D01*
X59583713Y-51989500D01*
X59535042Y-51997208D01*
X59373760Y-52022753D01*
X59171585Y-52088444D01*
X58982179Y-52184951D01*
X58810215Y-52309889D01*
X58696673Y-52423431D01*
X58635350Y-52456915D01*
X58565658Y-52451931D01*
X58509725Y-52410059D01*
X58492810Y-52379082D01*
X58443797Y-52247671D01*
X58443793Y-52247664D01*
X58357547Y-52132455D01*
X58357544Y-52132452D01*
X58242335Y-52046206D01*
X58242328Y-52046202D01*
X58107482Y-51995908D01*
X58107483Y-51995908D01*
X58047883Y-51989501D01*
X58047881Y-51989500D01*
X58047873Y-51989500D01*
X58047864Y-51989500D01*
X56252129Y-51989500D01*
X56252123Y-51989501D01*
X56192516Y-51995908D01*
X56057671Y-52046202D01*
X56057664Y-52046206D01*
X55942455Y-52132452D01*
X55942452Y-52132455D01*
X55856206Y-52247664D01*
X55856202Y-52247671D01*
X55805908Y-52382517D01*
X55801510Y-52423431D01*
X55799501Y-52442123D01*
X55799500Y-52442135D01*
X24621322Y-52442135D01*
X24624339Y-43552135D01*
X38019500Y-43552135D01*
X38019500Y-45347870D01*
X38019501Y-45347876D01*
X38025908Y-45407483D01*
X38076202Y-45542328D01*
X38076206Y-45542335D01*
X38162452Y-45657544D01*
X38162455Y-45657547D01*
X38277664Y-45743793D01*
X38277671Y-45743797D01*
X38412517Y-45794091D01*
X38412516Y-45794091D01*
X38419444Y-45794835D01*
X38472127Y-45800500D01*
X40267872Y-45800499D01*
X40327483Y-45794091D01*
X40462331Y-45743796D01*
X40577546Y-45657546D01*
X40663796Y-45542331D01*
X40714091Y-45407483D01*
X40720500Y-45347873D01*
X40720499Y-43552128D01*
X40714091Y-43492517D01*
X40663796Y-43357669D01*
X40663795Y-43357668D01*
X40663793Y-43357664D01*
X40577547Y-43242455D01*
X40577544Y-43242452D01*
X40462335Y-43156206D01*
X40462328Y-43156202D01*
X40327482Y-43105908D01*
X40327483Y-43105908D01*
X40267883Y-43099501D01*
X40267881Y-43099500D01*
X40267873Y-43099500D01*
X40267864Y-43099500D01*
X38472129Y-43099500D01*
X38472123Y-43099501D01*
X38412516Y-43105908D01*
X38277671Y-43156202D01*
X38277664Y-43156206D01*
X38162455Y-43242452D01*
X38162452Y-43242455D01*
X38076206Y-43357664D01*
X38076202Y-43357671D01*
X38025908Y-43492517D01*
X38019501Y-43552116D01*
X38019501Y-43552123D01*
X38019500Y-43552135D01*
X24624339Y-43552135D01*
X24627787Y-33392135D01*
X38019500Y-33392135D01*
X38019500Y-35187870D01*
X38019501Y-35187876D01*
X38025908Y-35247483D01*
X38076202Y-35382328D01*
X38076206Y-35382335D01*
X38162452Y-35497544D01*
X38162455Y-35497547D01*
X38277664Y-35583793D01*
X38277671Y-35583797D01*
X38409082Y-35632810D01*
X38465016Y-35674681D01*
X38489433Y-35740145D01*
X38474582Y-35808418D01*
X38453431Y-35836673D01*
X38339889Y-35950215D01*
X38214951Y-36122179D01*
X38118444Y-36311585D01*
X38052753Y-36513760D01*
X38019500Y-36723713D01*
X38019500Y-36936286D01*
X38052742Y-37146172D01*
X38052754Y-37146243D01*
X38097953Y-37285352D01*
X38118444Y-37348414D01*
X38214951Y-37537820D01*
X38339890Y-37709786D01*
X38490213Y-37860109D01*
X38662179Y-37985048D01*
X38662181Y-37985049D01*
X38662184Y-37985051D01*
X38851588Y-38081557D01*
X39053757Y-38147246D01*
X39263713Y-38180500D01*
X39263714Y-38180500D01*
X39476286Y-38180500D01*
X39476287Y-38180500D01*
X39686243Y-38147246D01*
X39888412Y-38081557D01*
X40077816Y-37985051D01*
X40107185Y-37963713D01*
X40249786Y-37860109D01*
X40249788Y-37860106D01*
X40249792Y-37860104D01*
X40400104Y-37709792D01*
X40400106Y-37709788D01*
X40400109Y-37709786D01*
X40525048Y-37537820D01*
X40525047Y-37537820D01*
X40525051Y-37537816D01*
X40621557Y-37348412D01*
X40687246Y-37146243D01*
X40720500Y-36936287D01*
X40720500Y-36723713D01*
X40687246Y-36513757D01*
X40621557Y-36311588D01*
X40525051Y-36122184D01*
X40525049Y-36122181D01*
X40525048Y-36122179D01*
X40400109Y-35950213D01*
X40286569Y-35836673D01*
X40253084Y-35775350D01*
X40258068Y-35705658D01*
X40299940Y-35649725D01*
X40330915Y-35632810D01*
X40462331Y-35583796D01*
X40577546Y-35497546D01*
X40663796Y-35382331D01*
X40714091Y-35247483D01*
X40720500Y-35187873D01*
X40720499Y-33392128D01*
X40714091Y-33332517D01*
X40663796Y-33197669D01*
X40663795Y-33197668D01*
X40663793Y-33197664D01*
X40577547Y-33082455D01*
X40577544Y-33082452D01*
X40462335Y-32996206D01*
X40462328Y-32996202D01*
X40327482Y-32945908D01*
X40327483Y-32945908D01*
X40267883Y-32939501D01*
X40267881Y-32939500D01*
X40267873Y-32939500D01*
X40267864Y-32939500D01*
X38472129Y-32939500D01*
X38472123Y-32939501D01*
X38412516Y-32945908D01*
X38277671Y-32996202D01*
X38277664Y-32996206D01*
X38162455Y-33082452D01*
X38162452Y-33082455D01*
X38076206Y-33197664D01*
X38076202Y-33197671D01*
X38025908Y-33332517D01*
X38019501Y-33392116D01*
X38019501Y-33392123D01*
X38019500Y-33392135D01*
X24627787Y-33392135D01*
X24629241Y-29108713D01*
X71039500Y-29108713D01*
X71039500Y-29321286D01*
X71072753Y-29531239D01*
X71138444Y-29733414D01*
X71234951Y-29922820D01*
X71359890Y-30094786D01*
X71473430Y-30208326D01*
X71506915Y-30269649D01*
X71501931Y-30339341D01*
X71460059Y-30395274D01*
X71429083Y-30412189D01*
X71297669Y-30461203D01*
X71297664Y-30461206D01*
X71182455Y-30547452D01*
X71182452Y-30547455D01*
X71096206Y-30662664D01*
X71096202Y-30662671D01*
X71045908Y-30797517D01*
X71039501Y-30857116D01*
X71039500Y-30857135D01*
X71039500Y-32652870D01*
X71039501Y-32652876D01*
X71045908Y-32712483D01*
X71096202Y-32847328D01*
X71096206Y-32847335D01*
X71182452Y-32962544D01*
X71182455Y-32962547D01*
X71297664Y-33048793D01*
X71297671Y-33048797D01*
X71432517Y-33099091D01*
X71432516Y-33099091D01*
X71439444Y-33099835D01*
X71492127Y-33105500D01*
X73287872Y-33105499D01*
X73347483Y-33099091D01*
X73482331Y-33048796D01*
X73597546Y-32962546D01*
X73683796Y-32847331D01*
X73732810Y-32715916D01*
X73774681Y-32659984D01*
X73840145Y-32635566D01*
X73908418Y-32650417D01*
X73936673Y-32671569D01*
X74050213Y-32785109D01*
X74222179Y-32910048D01*
X74222181Y-32910049D01*
X74222184Y-32910051D01*
X74411588Y-33006557D01*
X74613757Y-33072246D01*
X74823713Y-33105500D01*
X74823714Y-33105500D01*
X75036286Y-33105500D01*
X75036287Y-33105500D01*
X75246243Y-33072246D01*
X75448412Y-33006557D01*
X75637816Y-32910051D01*
X75724138Y-32847335D01*
X75809786Y-32785109D01*
X75809788Y-32785106D01*
X75809792Y-32785104D01*
X75960104Y-32634792D01*
X75960106Y-32634788D01*
X75960109Y-32634786D01*
X76085048Y-32462820D01*
X76085047Y-32462820D01*
X76085051Y-32462816D01*
X76089514Y-32454054D01*
X76137488Y-32403259D01*
X76205308Y-32386463D01*
X76271444Y-32408999D01*
X76310486Y-32454056D01*
X76314951Y-32462820D01*
X76439890Y-32634786D01*
X76590213Y-32785109D01*
X76762179Y-32910048D01*
X76762181Y-32910049D01*
X76762184Y-32910051D01*
X76951588Y-33006557D01*
X77153757Y-33072246D01*
X77363713Y-33105500D01*
X77363714Y-33105500D01*
X77576286Y-33105500D01*
X77576287Y-33105500D01*
X77786243Y-33072246D01*
X77988412Y-33006557D01*
X78177816Y-32910051D01*
X78264138Y-32847335D01*
X78349786Y-32785109D01*
X78349788Y-32785106D01*
X78349792Y-32785104D01*
X78500104Y-32634792D01*
X78500106Y-32634788D01*
X78500109Y-32634786D01*
X78625048Y-32462820D01*
X78625047Y-32462820D01*
X78625051Y-32462816D01*
X78721557Y-32273412D01*
X78787246Y-32071243D01*
X78820500Y-31861287D01*
X78820500Y-31648713D01*
X78787246Y-31438757D01*
X78721557Y-31236588D01*
X78625051Y-31047184D01*
X78625049Y-31047181D01*
X78625048Y-31047179D01*
X78500109Y-30875213D01*
X78349786Y-30724890D01*
X78177820Y-30599951D01*
X78177115Y-30599591D01*
X78169054Y-30595485D01*
X78118259Y-30547512D01*
X78101463Y-30479692D01*
X78123999Y-30413556D01*
X78169054Y-30374515D01*
X78177816Y-30370051D01*
X78267554Y-30304853D01*
X78349786Y-30245109D01*
X78349788Y-30245106D01*
X78349792Y-30245104D01*
X78500104Y-30094792D01*
X78500106Y-30094788D01*
X78500109Y-30094786D01*
X78625048Y-29922820D01*
X78625047Y-29922820D01*
X78625051Y-29922816D01*
X78721557Y-29733412D01*
X78787246Y-29531243D01*
X78820500Y-29321287D01*
X78820500Y-29108713D01*
X78787246Y-28898757D01*
X78721557Y-28696588D01*
X78625051Y-28507184D01*
X78625049Y-28507181D01*
X78625048Y-28507179D01*
X78500109Y-28335213D01*
X78349786Y-28184890D01*
X78177820Y-28059951D01*
X77988414Y-27963444D01*
X77988413Y-27963443D01*
X77988412Y-27963443D01*
X77786243Y-27897754D01*
X77786241Y-27897753D01*
X77786240Y-27897753D01*
X77624957Y-27872208D01*
X77576287Y-27864500D01*
X77363713Y-27864500D01*
X77315042Y-27872208D01*
X77153760Y-27897753D01*
X76951585Y-27963444D01*
X76762179Y-28059951D01*
X76590213Y-28184890D01*
X76439890Y-28335213D01*
X76314949Y-28507182D01*
X76310484Y-28515946D01*
X76262509Y-28566742D01*
X76194688Y-28583536D01*
X76128553Y-28560998D01*
X76089516Y-28515946D01*
X76085050Y-28507182D01*
X75960109Y-28335213D01*
X75809786Y-28184890D01*
X75637820Y-28059951D01*
X75448414Y-27963444D01*
X75448413Y-27963443D01*
X75448412Y-27963443D01*
X75246243Y-27897754D01*
X75246241Y-27897753D01*
X75246240Y-27897753D01*
X75084957Y-27872208D01*
X75036287Y-27864500D01*
X74823713Y-27864500D01*
X74775042Y-27872208D01*
X74613760Y-27897753D01*
X74411585Y-27963444D01*
X74222179Y-28059951D01*
X74050213Y-28184890D01*
X73899890Y-28335213D01*
X73774949Y-28507182D01*
X73770484Y-28515946D01*
X73722509Y-28566742D01*
X73654688Y-28583536D01*
X73588553Y-28560998D01*
X73549516Y-28515946D01*
X73545050Y-28507182D01*
X73420109Y-28335213D01*
X73269786Y-28184890D01*
X73097820Y-28059951D01*
X72908414Y-27963444D01*
X72908413Y-27963443D01*
X72908412Y-27963443D01*
X72706243Y-27897754D01*
X72706241Y-27897753D01*
X72706240Y-27897753D01*
X72544957Y-27872208D01*
X72496287Y-27864500D01*
X72283713Y-27864500D01*
X72235042Y-27872208D01*
X72073760Y-27897753D01*
X71871585Y-27963444D01*
X71682179Y-28059951D01*
X71510213Y-28184890D01*
X71359890Y-28335213D01*
X71234951Y-28507179D01*
X71138444Y-28696585D01*
X71072753Y-28898760D01*
X71039500Y-29108713D01*
X24629241Y-29108713D01*
X24630098Y-26581902D01*
X27709500Y-26581902D01*
X27709500Y-26818097D01*
X27746446Y-27051368D01*
X27819433Y-27275996D01*
X27926657Y-27486433D01*
X28065483Y-27677510D01*
X28232490Y-27844517D01*
X28423567Y-27983343D01*
X28522991Y-28034002D01*
X28634003Y-28090566D01*
X28634005Y-28090566D01*
X28634008Y-28090568D01*
X28754412Y-28129689D01*
X28858631Y-28163553D01*
X29091903Y-28200500D01*
X29091908Y-28200500D01*
X29328097Y-28200500D01*
X29561368Y-28163553D01*
X29785992Y-28090568D01*
X29996433Y-27983343D01*
X30187510Y-27844517D01*
X30354517Y-27677510D01*
X30493343Y-27486433D01*
X30600568Y-27275992D01*
X30673553Y-27051368D01*
X30698929Y-26891150D01*
X30710500Y-26818097D01*
X30710500Y-26581902D01*
X139469500Y-26581902D01*
X139469500Y-26818097D01*
X139506446Y-27051368D01*
X139579433Y-27275996D01*
X139686657Y-27486433D01*
X139825483Y-27677510D01*
X139992490Y-27844517D01*
X140183567Y-27983343D01*
X140282991Y-28034002D01*
X140394003Y-28090566D01*
X140394005Y-28090566D01*
X140394008Y-28090568D01*
X140514412Y-28129689D01*
X140618631Y-28163553D01*
X140851903Y-28200500D01*
X140851908Y-28200500D01*
X141088097Y-28200500D01*
X141321368Y-28163553D01*
X141545992Y-28090568D01*
X141756433Y-27983343D01*
X141947510Y-27844517D01*
X142114517Y-27677510D01*
X142253343Y-27486433D01*
X142360568Y-27275992D01*
X142433553Y-27051368D01*
X142458929Y-26891150D01*
X142470500Y-26818097D01*
X142470500Y-26581902D01*
X142433553Y-26348631D01*
X142360566Y-26124003D01*
X142253342Y-25913566D01*
X142114517Y-25722490D01*
X141947510Y-25555483D01*
X141756433Y-25416657D01*
X141721308Y-25398760D01*
X141545996Y-25309433D01*
X141321368Y-25236446D01*
X141088097Y-25199500D01*
X141088092Y-25199500D01*
X140851908Y-25199500D01*
X140851903Y-25199500D01*
X140618631Y-25236446D01*
X140394003Y-25309433D01*
X140183566Y-25416657D01*
X140074550Y-25495862D01*
X139992490Y-25555483D01*
X139992488Y-25555485D01*
X139992487Y-25555485D01*
X139825485Y-25722487D01*
X139825485Y-25722488D01*
X139825483Y-25722490D01*
X139765862Y-25804550D01*
X139686657Y-25913566D01*
X139579433Y-26124003D01*
X139506446Y-26348631D01*
X139469500Y-26581902D01*
X30710500Y-26581902D01*
X30673553Y-26348631D01*
X30600566Y-26124003D01*
X30493342Y-25913566D01*
X30354517Y-25722490D01*
X30187510Y-25555483D01*
X29996433Y-25416657D01*
X29961308Y-25398760D01*
X29785996Y-25309433D01*
X29561368Y-25236446D01*
X29328097Y-25199500D01*
X29328092Y-25199500D01*
X29091908Y-25199500D01*
X29091903Y-25199500D01*
X28858631Y-25236446D01*
X28634003Y-25309433D01*
X28423566Y-25416657D01*
X28314550Y-25495862D01*
X28232490Y-25555483D01*
X28232488Y-25555485D01*
X28232487Y-25555485D01*
X28065485Y-25722487D01*
X28065485Y-25722488D01*
X28065483Y-25722490D01*
X28005862Y-25804550D01*
X27926657Y-25913566D01*
X27819433Y-26124003D01*
X27746446Y-26348631D01*
X27709500Y-26581902D01*
X24630098Y-26581902D01*
X24630411Y-25658719D01*
X24650118Y-25591688D01*
X24666725Y-25571087D01*
X28110995Y-22126819D01*
X28172318Y-22093334D01*
X28198676Y-22090500D01*
X141981324Y-22090500D01*
X142048363Y-22110185D01*
G37*
%TD.AperFunction*%
%TD*%
M02*
