M48
; DRILL file {KiCad 9.0.5} date 2025-10-21T12:08:19+0200
; FORMAT={-:-/ absolute / metric / decimal}
; #@! TF.CreationDate,2025-10-21T12:08:19+02:00
; #@! TF.GenerationSoftware,Kicad,Pcbnew,9.0.5
; #@! TF.FileFunction,Plated,1,2,PTH
FMAT,2
METRIC
; #@! TA.AperFunction,Plated,PTH,ViaDrill
T1C0.850
; #@! TA.AperFunction,Plated,PTH,ComponentDrill
T2C1.000
%
G90
G05
T1
X64.135Y-73.025
X69.85Y-39.37
X72.39Y-48.26
X82.55Y-38.1
X107.95Y-46.99
X111.76Y-53.34
X114.3Y-53.34
X129.54Y-49.53
X132.08Y-57.15
T2
X39.37Y-34.29
X39.37Y-36.83
X39.37Y-44.45
X39.37Y-46.99
X39.37Y-55.88
X39.37Y-58.42
X39.37Y-60.96
X39.37Y-63.5
X39.37Y-73.66
X39.37Y-76.2
X39.37Y-78.74
X39.37Y-81.28
X39.37Y-83.82
X39.37Y-86.36
X39.37Y-88.9
X39.37Y-91.44
X57.15Y-53.34
X57.15Y-55.88
X57.15Y-58.42
X57.15Y-60.96
X57.15Y-63.5
X57.15Y-66.04
X57.15Y-68.58
X57.15Y-71.12
X57.15Y-73.66
X57.15Y-76.2
X57.15Y-78.74
X57.15Y-81.28
X57.15Y-83.82
X57.15Y-86.36
X57.15Y-88.9
X57.15Y-91.44
X57.15Y-93.98
X57.15Y-96.52
X57.15Y-99.06
X59.69Y-53.34
X59.69Y-55.88
X59.69Y-58.42
X59.69Y-60.96
X59.69Y-63.5
X59.69Y-66.04
X59.69Y-68.58
X59.69Y-71.12
X59.69Y-73.66
X59.69Y-76.2
X59.69Y-78.74
X59.69Y-81.28
X59.69Y-83.82
X59.69Y-86.36
X59.69Y-88.9
X59.69Y-91.44
X59.69Y-93.98
X59.69Y-96.52
X59.69Y-99.06
X72.39Y-29.215
X72.39Y-31.755
X74.93Y-29.215
X74.93Y-31.755
X77.47Y-29.215
X77.47Y-31.755
X77.47Y-53.34
X77.47Y-55.88
X77.47Y-58.42
X77.47Y-60.96
X77.47Y-63.5
X77.47Y-66.04
X77.47Y-68.58
X77.47Y-71.12
X99.06Y-38.07
X101.6Y-38.07
X102.87Y-53.34
X102.87Y-55.88
X102.87Y-58.42
X102.87Y-60.96
X102.87Y-63.5
X102.87Y-66.04
X102.87Y-68.58
X102.87Y-71.12
X102.87Y-73.66
X104.14Y-38.07
X106.68Y-38.07
X109.22Y-38.07
X111.76Y-38.07
X114.3Y-38.07
X116.84Y-38.07
X118.11Y-53.34
X118.11Y-55.88
X118.11Y-58.42
X118.11Y-60.96
X118.11Y-63.5
X118.11Y-66.04
X118.11Y-68.58
X118.11Y-71.12
X118.11Y-73.66
X118.11Y-76.2
X118.11Y-78.74
X118.11Y-81.28
X118.11Y-83.82
X118.11Y-86.36
X118.11Y-88.9
X118.11Y-91.44
X118.11Y-93.98
X118.11Y-96.52
X118.11Y-99.06
X120.65Y-53.34
X120.65Y-55.88
X120.65Y-58.42
X120.65Y-60.96
X120.65Y-63.5
X120.65Y-66.04
X120.65Y-68.58
X120.65Y-71.12
X120.65Y-73.66
X120.65Y-76.2
X120.65Y-78.74
X120.65Y-81.28
X120.65Y-83.82
X120.65Y-86.36
X120.65Y-88.9
X120.65Y-91.44
X120.65Y-93.98
X120.65Y-96.52
X120.65Y-99.06
X134.62Y-52.07
X134.62Y-54.61
X134.62Y-57.15
X134.62Y-71.12
X134.62Y-73.66
X134.62Y-76.2
X134.62Y-78.74
X134.62Y-81.28
X134.62Y-83.82
X137.16Y-52.07
X137.16Y-54.61
X137.16Y-57.15
M30
