G04 Layer_Physical_Order=1*
G04 Layer_Color=255*
%FSLAX44Y44*%
%MOMM*%
G71*
G01*
G75*
%ADD10R,0.5000X2.5000*%
%ADD11R,1.2000X4.9000*%
%ADD12R,0.3000X0.6500*%
%ADD13R,6.5000X6.5000*%
G04:AMPARAMS|DCode=14|XSize=0.25mm|YSize=1mm|CornerRadius=0mm|HoleSize=0mm|Usage=FLASHONLY|Rotation=270.000|XOffset=0mm|YOffset=0mm|HoleType=Round|Shape=Octagon|*
%AMOCTAGOND14*
4,1,8,0.5000,0.0625,0.5000,-0.0625,0.4375,-0.1250,-0.4375,-0.1250,-0.5000,-0.0625,-0.5000,0.0625,-0.4375,0.1250,0.4375,0.1250,0.5000,0.0625,0.0*
%
%ADD14OCTAGOND14*%

G04:AMPARAMS|DCode=15|XSize=0.25mm|YSize=1mm|CornerRadius=0mm|HoleSize=0mm|Usage=FLASHONLY|Rotation=180.000|XOffset=0mm|YOffset=0mm|HoleType=Round|Shape=Octagon|*
%AMOCTAGOND15*
4,1,8,0.0625,-0.5000,-0.0625,-0.5000,-0.1250,-0.4375,-0.1250,0.4375,-0.0625,0.5000,0.0625,0.5000,0.1250,0.4375,0.1250,-0.4375,0.0625,-0.5000,0.0*
%
%ADD15OCTAGOND15*%

%ADD16C,0.2540*%
%ADD17R,0.5080X0.6350*%
%ADD18R,0.6350X0.5080*%
%ADD19R,1.2500X1.0000*%
%ADD20R,1.0000X0.8000*%
%ADD21R,0.8500X0.7500*%
%ADD22R,1.5240X1.2700*%
%ADD23R,0.3000X0.3000*%
%ADD24C,0.2500*%
%ADD25C,0.4000*%
%ADD26C,0.2000*%
%ADD27C,0.4500*%
%ADD28C,0.1000*%
%ADD29C,0.2100*%
%ADD30C,0.1500*%
%ADD31C,0.3000*%
%ADD32C,0.2540*%
%ADD33C,0.1020*%
%ADD34C,1.8000*%
%ADD35R,1.8000X1.8000*%
%ADD36C,0.4000*%
G36*
X297961Y2039D02*
X2039D01*
Y397961D01*
X146000D01*
Y370810D01*
X146796D01*
Y301300D01*
X147049Y300032D01*
X147080Y299985D01*
Y295570D01*
X153080D01*
Y299895D01*
X153171Y300032D01*
X153424Y301300D01*
Y370810D01*
X154000D01*
Y397961D01*
X297961D01*
Y2039D01*
D02*
G37*
%LPC*%
G36*
X23000Y127991D02*
X20259Y127630D01*
X17705Y126572D01*
X15511Y124889D01*
X13828Y122695D01*
X12770Y120141D01*
X12409Y117400D01*
X12770Y114659D01*
X13828Y112105D01*
X15511Y109911D01*
X17705Y108228D01*
X20259Y107170D01*
X23000Y106809D01*
X25741Y107170D01*
X28295Y108228D01*
X30489Y109911D01*
X32172Y112105D01*
X33230Y114659D01*
X33591Y117400D01*
X33230Y120141D01*
X32172Y122695D01*
X30489Y124889D01*
X28295Y126572D01*
X25741Y127630D01*
X23000Y127991D01*
D02*
G37*
G36*
X277000Y204191D02*
X274259Y203830D01*
X271705Y202772D01*
X269511Y201089D01*
X267828Y198895D01*
X266770Y196341D01*
X266409Y193600D01*
X266770Y190859D01*
X267828Y188305D01*
X269511Y186111D01*
X271705Y184428D01*
X274259Y183370D01*
X277000Y183009D01*
X279741Y183370D01*
X282295Y184428D01*
X284489Y186111D01*
X286172Y188305D01*
X287230Y190859D01*
X287591Y193600D01*
X287230Y196341D01*
X286172Y198895D01*
X284489Y201089D01*
X282295Y202772D01*
X279741Y203830D01*
X277000Y204191D01*
D02*
G37*
G36*
X23000Y254991D02*
X20259Y254630D01*
X17705Y253572D01*
X15511Y251889D01*
X13828Y249695D01*
X12770Y247141D01*
X12409Y244400D01*
X12770Y241659D01*
X13828Y239105D01*
X15511Y236911D01*
X17705Y235228D01*
X20259Y234170D01*
X23000Y233809D01*
X25741Y234170D01*
X28295Y235228D01*
X30489Y236911D01*
X32172Y239105D01*
X33230Y241659D01*
X33591Y244400D01*
X33230Y247141D01*
X32172Y249695D01*
X30489Y251889D01*
X28295Y253572D01*
X25741Y254630D01*
X23000Y254991D01*
D02*
G37*
G36*
X277000Y229591D02*
X274259Y229230D01*
X271705Y228172D01*
X269511Y226489D01*
X267828Y224295D01*
X266770Y221741D01*
X266409Y219000D01*
X266770Y216259D01*
X267828Y213705D01*
X269511Y211511D01*
X271705Y209828D01*
X274259Y208770D01*
X277000Y208409D01*
X279741Y208770D01*
X282295Y209828D01*
X284489Y211511D01*
X286172Y213705D01*
X287230Y216259D01*
X287591Y219000D01*
X287230Y221741D01*
X286172Y224295D01*
X284489Y226489D01*
X282295Y228172D01*
X279741Y229230D01*
X277000Y229591D01*
D02*
G37*
G36*
Y102591D02*
X274259Y102230D01*
X271705Y101172D01*
X269511Y99489D01*
X267828Y97295D01*
X266770Y94741D01*
X266409Y92000D01*
X266770Y89259D01*
X267828Y86705D01*
X269511Y84511D01*
X271705Y82828D01*
X274259Y81770D01*
X277000Y81409D01*
X279741Y81770D01*
X282295Y82828D01*
X284489Y84511D01*
X286172Y86705D01*
X287230Y89259D01*
X287591Y92000D01*
X287230Y94741D01*
X286172Y97295D01*
X284489Y99489D01*
X282295Y101172D01*
X279741Y102230D01*
X277000Y102591D01*
D02*
G37*
G36*
Y178791D02*
X274259Y178430D01*
X271705Y177372D01*
X269511Y175689D01*
X267828Y173495D01*
X266770Y170941D01*
X266409Y168200D01*
X266770Y165459D01*
X267828Y162905D01*
X269511Y160711D01*
X271705Y159028D01*
X274259Y157970D01*
X277000Y157609D01*
X279741Y157970D01*
X282295Y159028D01*
X284489Y160711D01*
X286172Y162905D01*
X287230Y165459D01*
X287591Y168200D01*
X287230Y170941D01*
X286172Y173495D01*
X284489Y175689D01*
X282295Y177372D01*
X279741Y178430D01*
X277000Y178791D01*
D02*
G37*
G36*
X23000D02*
X20259Y178430D01*
X17705Y177372D01*
X15511Y175689D01*
X13828Y173495D01*
X12770Y170941D01*
X12409Y168200D01*
X12770Y165459D01*
X13828Y162905D01*
X15511Y160711D01*
X17705Y159028D01*
X20259Y157970D01*
X23000Y157609D01*
X25741Y157970D01*
X28295Y159028D01*
X30489Y160711D01*
X32172Y162905D01*
X33230Y165459D01*
X33591Y168200D01*
X33230Y170941D01*
X32172Y173495D01*
X30489Y175689D01*
X28295Y177372D01*
X25741Y178430D01*
X23000Y178791D01*
D02*
G37*
G36*
X277000Y153391D02*
X274259Y153030D01*
X271705Y151972D01*
X269511Y150289D01*
X267828Y148095D01*
X266770Y145541D01*
X266409Y142800D01*
X266770Y140059D01*
X267828Y137505D01*
X269511Y135311D01*
X271705Y133628D01*
X274259Y132570D01*
X277000Y132209D01*
X279741Y132570D01*
X282295Y133628D01*
X284489Y135311D01*
X286172Y137505D01*
X287230Y140059D01*
X287591Y142800D01*
X287230Y145541D01*
X286172Y148095D01*
X284489Y150289D01*
X282295Y151972D01*
X279741Y153030D01*
X277000Y153391D01*
D02*
G37*
G36*
X23000Y204191D02*
X20259Y203830D01*
X17705Y202772D01*
X15511Y201089D01*
X13828Y198895D01*
X12770Y196341D01*
X12409Y193600D01*
X12770Y190859D01*
X13828Y188305D01*
X15511Y186111D01*
X17705Y184428D01*
X20259Y183370D01*
X23000Y183009D01*
X25741Y183370D01*
X28295Y184428D01*
X30489Y186111D01*
X32172Y188305D01*
X33230Y190859D01*
X33591Y193600D01*
X33230Y196341D01*
X32172Y198895D01*
X30489Y201089D01*
X28295Y202772D01*
X25741Y203830D01*
X23000Y204191D01*
D02*
G37*
G36*
Y153391D02*
X20259Y153030D01*
X17705Y151972D01*
X15511Y150289D01*
X13828Y148095D01*
X12770Y145541D01*
X12409Y142800D01*
X12770Y140059D01*
X13828Y137505D01*
X15511Y135311D01*
X17705Y133628D01*
X20259Y132570D01*
X23000Y132209D01*
X25741Y132570D01*
X28295Y133628D01*
X30489Y135311D01*
X32172Y137505D01*
X33230Y140059D01*
X33591Y142800D01*
X33230Y145541D01*
X32172Y148095D01*
X30489Y150289D01*
X28295Y151972D01*
X25741Y153030D01*
X23000Y153391D01*
D02*
G37*
G36*
Y305791D02*
X20259Y305430D01*
X17705Y304372D01*
X15511Y302689D01*
X13828Y300495D01*
X12770Y297941D01*
X12409Y295200D01*
X12770Y292459D01*
X13828Y289905D01*
X15511Y287711D01*
X17705Y286028D01*
X20259Y284970D01*
X23000Y284609D01*
X25741Y284970D01*
X28295Y286028D01*
X30489Y287711D01*
X32172Y289905D01*
X33230Y292459D01*
X33591Y295200D01*
X33230Y297941D01*
X32172Y300495D01*
X30489Y302689D01*
X28295Y304372D01*
X25741Y305430D01*
X23000Y305791D01*
D02*
G37*
G36*
Y280391D02*
X20259Y280030D01*
X17705Y278972D01*
X15511Y277289D01*
X13828Y275095D01*
X12770Y272541D01*
X12409Y269800D01*
X12770Y267059D01*
X13828Y264505D01*
X15511Y262311D01*
X17705Y260628D01*
X20259Y259570D01*
X23000Y259209D01*
X25741Y259570D01*
X28295Y260628D01*
X30489Y262311D01*
X32172Y264505D01*
X33230Y267059D01*
X33591Y269800D01*
X33230Y272541D01*
X32172Y275095D01*
X30489Y277289D01*
X28295Y278972D01*
X25741Y280030D01*
X23000Y280391D01*
D02*
G37*
G36*
X69302Y26453D02*
X42302D01*
X41154Y25978D01*
X40679Y24830D01*
Y12830D01*
X41154Y11682D01*
X42302Y11206D01*
X69302D01*
X70450Y11682D01*
X70926Y12830D01*
Y24830D01*
X70450Y25978D01*
X69302Y26453D01*
D02*
G37*
G36*
X287500Y356500D02*
X266500D01*
Y335500D01*
X287500D01*
Y356500D01*
D02*
G37*
G36*
X23000Y331191D02*
X20259Y330830D01*
X17705Y329772D01*
X15511Y328089D01*
X13828Y325895D01*
X12770Y323341D01*
X12409Y320600D01*
X12770Y317859D01*
X13828Y315305D01*
X15511Y313111D01*
X17705Y311428D01*
X20259Y310370D01*
X23000Y310009D01*
X25741Y310370D01*
X28295Y311428D01*
X30489Y313111D01*
X32172Y315305D01*
X33230Y317859D01*
X33591Y320600D01*
X33230Y323341D01*
X32172Y325895D01*
X30489Y328089D01*
X28295Y329772D01*
X25741Y330830D01*
X23000Y331191D01*
D02*
G37*
G36*
X277000D02*
X274259Y330830D01*
X271705Y329772D01*
X269511Y328089D01*
X267828Y325895D01*
X266770Y323341D01*
X266409Y320600D01*
X266770Y317859D01*
X267828Y315305D01*
X269511Y313111D01*
X271705Y311428D01*
X274165Y310409D01*
X274065Y309909D01*
X255845D01*
X246442Y319312D01*
X245780Y319754D01*
X245000Y319909D01*
X193624D01*
X193541Y320033D01*
X192549Y320696D01*
X191378Y320929D01*
X190208Y320696D01*
X189215Y320033D01*
X188552Y319041D01*
X188319Y317870D01*
X188552Y316700D01*
X189215Y315707D01*
X190208Y315044D01*
X191378Y314811D01*
X192549Y315044D01*
X193541Y315707D01*
X193624Y315831D01*
X244155D01*
X253558Y306428D01*
X253558Y306428D01*
X254220Y305986D01*
X255000Y305831D01*
X273921D01*
X274020Y305331D01*
X271705Y304372D01*
X269511Y302689D01*
X267828Y300495D01*
X266770Y297941D01*
X266409Y295200D01*
X266770Y292459D01*
X267828Y289905D01*
X269511Y287711D01*
X271705Y286028D01*
X274259Y284970D01*
X277000Y284609D01*
X279741Y284970D01*
X282295Y286028D01*
X284489Y287711D01*
X286172Y289905D01*
X286670Y291109D01*
X287161Y291011D01*
Y273989D01*
X286670Y273891D01*
X286172Y275095D01*
X284489Y277289D01*
X282295Y278972D01*
X279741Y280030D01*
X277000Y280391D01*
X274259Y280030D01*
X271705Y278972D01*
X269511Y277289D01*
X267828Y275095D01*
X266770Y272541D01*
X266409Y269800D01*
X266770Y267059D01*
X267828Y264505D01*
X269511Y262311D01*
X271705Y260628D01*
X274259Y259570D01*
X276743Y259243D01*
X276757Y259237D01*
X277093Y258797D01*
X277110Y258720D01*
X276941Y257870D01*
X277174Y256700D01*
X277837Y255707D01*
X278192Y255470D01*
X278007Y254992D01*
X271924Y255919D01*
X269080Y256458D01*
X268596Y256578D01*
X268406Y256640D01*
X268346Y256673D01*
X268283Y256680D01*
X268260Y256687D01*
X268234Y256685D01*
X267941Y256717D01*
X267564Y256874D01*
X267455Y256828D01*
X257539Y266745D01*
Y294370D01*
X257539Y294370D01*
X257384Y295150D01*
X256942Y295812D01*
X256942Y295812D01*
X247812Y304942D01*
X247150Y305384D01*
X246370Y305539D01*
X208758D01*
X208758Y305539D01*
X207978Y305384D01*
X207316Y304942D01*
X207316Y304942D01*
X200568Y298194D01*
X200126Y297533D01*
X199807Y297400D01*
X199170Y297826D01*
X198000Y298059D01*
X196829Y297826D01*
X195837Y297163D01*
X195174Y296171D01*
X194941Y295000D01*
X195174Y293829D01*
X195837Y292837D01*
X195971Y292748D01*
Y286469D01*
X195530Y286233D01*
X195170Y286473D01*
X194000Y286706D01*
X192898Y286487D01*
X192675Y286686D01*
X192536Y286878D01*
X192759Y288000D01*
X192526Y289170D01*
X191863Y290163D01*
X190870Y290826D01*
X189700Y291059D01*
X188529Y290826D01*
X187537Y290163D01*
X186874Y289170D01*
X186641Y288000D01*
X186670Y287854D01*
X184083Y285267D01*
X183641Y284605D01*
X183486Y283825D01*
Y283587D01*
X183277Y283517D01*
X182986Y283504D01*
X182370Y284426D01*
X181378Y285089D01*
X180207Y285322D01*
X179545Y285190D01*
X179079Y285167D01*
X179079Y285167D01*
X178740Y285492D01*
X178740Y285492D01*
X178740Y285738D01*
Y287716D01*
X180927D01*
X181805Y287891D01*
X182549Y288388D01*
X184122Y289961D01*
X184619Y290706D01*
X184794Y291584D01*
X184794Y291584D01*
Y292533D01*
X185326Y293330D01*
X185559Y294500D01*
X185326Y295671D01*
X184663Y296663D01*
X183671Y297326D01*
X182500Y297559D01*
X181329Y297326D01*
X180337Y296663D01*
X179674Y295671D01*
X179441Y294500D01*
X179674Y293330D01*
X180044Y292777D01*
X179758Y292304D01*
X178740D01*
Y294685D01*
X170660D01*
Y289215D01*
X164340Y282894D01*
X156112D01*
X155234Y282719D01*
X154490Y282222D01*
X152559Y280291D01*
X152059Y280499D01*
Y283830D01*
X153080D01*
Y289830D01*
X147080D01*
Y283830D01*
X147981D01*
Y277705D01*
X147260Y276985D01*
Y266735D01*
X148635Y265360D01*
X151385D01*
X152010Y265985D01*
X152635Y265360D01*
X155385D01*
X156010Y265985D01*
X156635Y265360D01*
X159385D01*
X160010Y265985D01*
X160635Y265360D01*
X163385D01*
X164010Y265985D01*
X164635Y265360D01*
X167385D01*
X168010Y265985D01*
X168635Y265360D01*
X171385D01*
X172010Y265985D01*
X172635Y265360D01*
X175385D01*
X176010Y265985D01*
X176635Y265360D01*
X179385D01*
X180010Y265985D01*
X180635Y265360D01*
X183385D01*
X184010Y265985D01*
X184635Y265360D01*
X187385D01*
X188010Y265985D01*
X188635Y265360D01*
X191385D01*
X192010Y265985D01*
X192635Y265360D01*
X195385D01*
X196010Y265985D01*
X196635Y265360D01*
X199385D01*
X200010Y265985D01*
X200635Y265360D01*
X202288D01*
Y263453D01*
X202913Y262828D01*
X202288Y262203D01*
Y259453D01*
X202913Y258828D01*
X202288Y258203D01*
Y255453D01*
X202913Y254828D01*
X202288Y254203D01*
Y251453D01*
X202913Y250828D01*
X202288Y250203D01*
Y247453D01*
X202913Y246828D01*
X202288Y246203D01*
Y243453D01*
X202913Y242828D01*
X202288Y242203D01*
Y239453D01*
X202913Y238828D01*
X202288Y238203D01*
Y235453D01*
X202913Y234828D01*
X202288Y234203D01*
Y231453D01*
X202913Y230828D01*
X202288Y230203D01*
Y227453D01*
X202913Y226828D01*
X202288Y226203D01*
Y223453D01*
X202913Y222828D01*
X202288Y222203D01*
Y219453D01*
X202913Y218828D01*
X202288Y218203D01*
Y215453D01*
X202913Y214828D01*
X202288Y214203D01*
Y211453D01*
X202913Y210828D01*
X202288Y210203D01*
Y207453D01*
X202913Y206828D01*
X202288Y206203D01*
Y203453D01*
X202913Y202828D01*
X202288Y202203D01*
Y200296D01*
X200635D01*
X200010Y199671D01*
X199385Y200296D01*
X196635D01*
X196010Y199671D01*
X195385Y200296D01*
X192635D01*
X192010Y199671D01*
X191385Y200296D01*
X188635D01*
X188010Y199671D01*
X187385Y200296D01*
X184635D01*
X184010Y199671D01*
X183385Y200296D01*
X180635D01*
X180010Y199671D01*
X179385Y200296D01*
X176635D01*
X176010Y199671D01*
X175385Y200296D01*
X172635D01*
X172010Y199671D01*
X171385Y200296D01*
X168635D01*
X168010Y199671D01*
X167385Y200296D01*
X164635D01*
X164010Y199671D01*
X163385Y200296D01*
X160635D01*
X160010Y199671D01*
X159385Y200296D01*
X156635D01*
X156010Y199671D01*
X155385Y200296D01*
X152635D01*
X152010Y199671D01*
X151385Y200296D01*
X148635D01*
X148010Y199671D01*
X147385Y200296D01*
X144635D01*
X144010Y199671D01*
X143385Y200296D01*
X140635D01*
X140010Y199671D01*
X139385Y200296D01*
X137478D01*
Y202203D01*
X136853Y202828D01*
X137478Y203453D01*
Y206203D01*
X136853Y206828D01*
X137478Y207453D01*
Y210203D01*
X136853Y210828D01*
X137478Y211453D01*
Y214203D01*
X136853Y214828D01*
X137478Y215453D01*
Y218203D01*
X136853Y218828D01*
X137478Y219453D01*
Y222203D01*
X136853Y222828D01*
X137478Y223453D01*
Y226203D01*
X136853Y226828D01*
X137478Y227453D01*
Y230203D01*
X136853Y230828D01*
X137478Y231453D01*
Y234203D01*
X136103Y235578D01*
X125853D01*
X125614Y235338D01*
X125363Y235363D01*
X124370Y236026D01*
X123200Y236259D01*
X122029Y236026D01*
X121037Y235363D01*
X120374Y234370D01*
X120141Y233200D01*
X120374Y232029D01*
X120969Y231139D01*
X120208Y230630D01*
X119986Y230409D01*
X119040D01*
Y232535D01*
X110960D01*
Y230949D01*
X107540D01*
Y232565D01*
X99460D01*
Y230949D01*
X99063D01*
X97893Y230716D01*
X96900Y230053D01*
X83537Y216689D01*
X82874Y215697D01*
X82641Y214526D01*
X82641Y214526D01*
Y204387D01*
X78513Y200259D01*
X73646D01*
X73460Y200759D01*
X73912Y201850D01*
Y209700D01*
X73436Y210848D01*
X73555Y211340D01*
X73912Y212200D01*
Y215820D01*
X73436Y216968D01*
X72288Y217444D01*
X70347D01*
Y231751D01*
X88336D01*
X88336Y231751D01*
X89507Y231984D01*
X90499Y232647D01*
X95621Y237769D01*
X111553D01*
Y236153D01*
X119633D01*
Y237769D01*
X122680D01*
X123850Y238002D01*
X124843Y238665D01*
X125354Y238577D01*
X125853Y238078D01*
X136103D01*
X137478Y239453D01*
Y242203D01*
X136853Y242828D01*
X137478Y243453D01*
Y246203D01*
X136853Y246828D01*
X137478Y247453D01*
Y250203D01*
X136853Y250828D01*
X137478Y251453D01*
Y254203D01*
X136853Y254828D01*
X137478Y255453D01*
Y258203D01*
X136853Y258828D01*
X137478Y259453D01*
Y262203D01*
X136853Y262828D01*
X137478Y263453D01*
Y265360D01*
X139385D01*
X140010Y265985D01*
X140635Y265360D01*
X143385D01*
X144760Y266735D01*
Y276985D01*
X144304Y277441D01*
Y278300D01*
X144130Y279178D01*
X143632Y279922D01*
X139304Y284250D01*
Y285935D01*
X141040D01*
Y295285D01*
X132960D01*
Y286331D01*
X131930Y286126D01*
X131443Y285801D01*
X131040Y286133D01*
Y295385D01*
X122960D01*
Y286035D01*
X124767D01*
X124891Y285412D01*
X125388Y284668D01*
X128288Y281768D01*
X128350Y281726D01*
X128398Y281678D01*
X128756Y281439D01*
X128604Y280939D01*
X126047D01*
X121394Y285592D01*
X120733Y286034D01*
X119952Y286189D01*
X119800D01*
Y289400D01*
X108300D01*
Y278900D01*
X119800D01*
Y280765D01*
X120262Y280956D01*
X123760Y277458D01*
X124422Y277016D01*
X125202Y276861D01*
X134242D01*
X135260Y275842D01*
Y267578D01*
X125853D01*
X125142Y266867D01*
X104317D01*
X103246Y267938D01*
X103437Y268400D01*
X106300D01*
Y278900D01*
X94800D01*
Y268400D01*
X98511D01*
Y267750D01*
X98666Y266970D01*
X99108Y266308D01*
X102030Y263386D01*
X102030Y263386D01*
X102692Y262944D01*
X103472Y262789D01*
X124411D01*
X124602Y262327D01*
X124478Y262203D01*
Y259453D01*
X125103Y258828D01*
X124478Y258203D01*
Y255453D01*
X125103Y254828D01*
X124478Y254203D01*
Y251453D01*
X125103Y250828D01*
X124478Y250203D01*
Y247453D01*
X125103Y246828D01*
X124478Y246203D01*
Y243836D01*
X123978Y243568D01*
X123850Y243654D01*
X122680Y243887D01*
X119633D01*
Y245503D01*
X111553D01*
Y243887D01*
X94354D01*
X93183Y243654D01*
X92191Y242991D01*
X92191Y242991D01*
X87069Y237869D01*
X70399D01*
Y246109D01*
X76460D01*
Y261809D01*
X58220D01*
Y246109D01*
X64281D01*
Y235465D01*
X64181Y234962D01*
X64229Y234721D01*
Y217444D01*
X62288D01*
X61140Y216968D01*
X60664Y215820D01*
Y212200D01*
X61021Y211340D01*
X61140Y210848D01*
X60664Y209700D01*
Y201850D01*
X61116Y200759D01*
X60930Y200259D01*
X59947D01*
X39173Y221033D01*
X38379Y221563D01*
X38303Y221852D01*
X38203Y221910D01*
X38158Y222018D01*
X37678Y222217D01*
X37230Y222479D01*
X36988Y222512D01*
X36718Y222599D01*
X36326Y222773D01*
X30739Y226465D01*
X29460Y227434D01*
X29152Y227515D01*
X28295Y228172D01*
X25741Y229230D01*
X23000Y229591D01*
X20259Y229230D01*
X17705Y228172D01*
X15511Y226489D01*
X13828Y224295D01*
X12770Y221741D01*
X12409Y219000D01*
X12770Y216259D01*
X13828Y213705D01*
X15511Y211511D01*
X17705Y209828D01*
X20259Y208770D01*
X23000Y208409D01*
X25741Y208770D01*
X28295Y209828D01*
X29006Y210374D01*
X29293Y210441D01*
X31831Y212264D01*
X33918Y213654D01*
X35566Y214626D01*
X36179Y214935D01*
X36489Y215065D01*
X56517Y195037D01*
X57509Y194374D01*
X58680Y194141D01*
X58680Y194141D01*
X67000D01*
X67144Y194170D01*
X67288Y194141D01*
X79780D01*
X79780Y194141D01*
X80951Y194374D01*
X81943Y195037D01*
X86707Y199801D01*
X110960D01*
Y198185D01*
X119040D01*
Y200566D01*
X119360D01*
X120238Y200740D01*
X120982Y201238D01*
X123682Y203938D01*
X123978Y204381D01*
X124478Y204229D01*
Y203453D01*
X125103Y202828D01*
X124478Y202203D01*
Y199453D01*
X125853Y198078D01*
X135260D01*
Y188671D01*
X136635Y187296D01*
X136801D01*
X136862Y187148D01*
X137387Y186623D01*
Y101911D01*
X91899Y56424D01*
X35473D01*
X35140Y56757D01*
X35150Y56781D01*
X35102Y56895D01*
X35133Y57015D01*
X33517Y68101D01*
X33358Y68369D01*
X33230Y69341D01*
X32172Y71895D01*
X30489Y74089D01*
X28295Y75772D01*
X25741Y76830D01*
X23000Y77191D01*
X20259Y76830D01*
X17705Y75772D01*
X15511Y74089D01*
X13828Y71895D01*
X12770Y69341D01*
X12409Y66600D01*
X12770Y63859D01*
X13828Y61305D01*
X15511Y59111D01*
X17705Y57428D01*
X20259Y56370D01*
X21233Y56242D01*
X21502Y56083D01*
X29790Y54894D01*
X32416Y54499D01*
X32494Y54483D01*
X32661Y54516D01*
X32819Y54450D01*
X32843Y54461D01*
X33404Y53900D01*
X32843Y53340D01*
X32819Y53350D01*
X32705Y53302D01*
X32585Y53333D01*
X21499Y51717D01*
X21231Y51558D01*
X20259Y51430D01*
X17705Y50372D01*
X15511Y48689D01*
X13828Y46495D01*
X12770Y43941D01*
X12409Y41200D01*
X12770Y38459D01*
X13828Y35905D01*
X15511Y33711D01*
X17705Y32028D01*
X20259Y30970D01*
X23000Y30609D01*
X25741Y30970D01*
X28295Y32028D01*
X30489Y33711D01*
X32172Y35905D01*
X33230Y38459D01*
X33358Y39433D01*
X33517Y39702D01*
X34706Y47990D01*
X35101Y50616D01*
X35117Y50693D01*
X35107Y50745D01*
X35367Y51093D01*
X35612Y51176D01*
X93400D01*
X94548Y51652D01*
X142158Y99262D01*
X142634Y100410D01*
Y184482D01*
X143134Y184531D01*
X143174Y184329D01*
X143837Y183337D01*
X144830Y182674D01*
X146000Y182441D01*
X146601Y182561D01*
X146784Y182377D01*
X146952Y182121D01*
Y169640D01*
X145335D01*
Y161560D01*
X146991D01*
Y108850D01*
X146991Y108850D01*
X147224Y107680D01*
X147887Y106687D01*
X215667Y38907D01*
X216660Y38244D01*
X217830Y38011D01*
X217830Y38011D01*
X261679D01*
X261679Y38011D01*
X261725Y37905D01*
X262208Y37713D01*
X262661Y37458D01*
X262952Y37423D01*
X263268Y37331D01*
X263765Y37128D01*
X264359Y36836D01*
X269406Y33586D01*
X270706Y32641D01*
X270996Y32572D01*
X271705Y32028D01*
X274259Y30970D01*
X277000Y30609D01*
X279741Y30970D01*
X282295Y32028D01*
X284489Y33711D01*
X286172Y35905D01*
X287230Y38459D01*
X287591Y41200D01*
X287230Y43941D01*
X286172Y46495D01*
X284489Y48689D01*
X282295Y50372D01*
X279741Y51430D01*
X277000Y51791D01*
X274259Y51430D01*
X271705Y50372D01*
X270864Y49727D01*
X270562Y49651D01*
X268030Y47769D01*
X265942Y46335D01*
X264285Y45334D01*
X263666Y45016D01*
X263178Y44809D01*
X262874Y44716D01*
X262593Y44681D01*
X262125Y44414D01*
X261632Y44201D01*
X261603Y44129D01*
X219097D01*
X153109Y110117D01*
Y161560D01*
X154685D01*
Y169640D01*
X153069D01*
Y182194D01*
X152992Y182580D01*
X153346Y182933D01*
X154010Y182801D01*
X155181Y183034D01*
X156173Y183697D01*
X156836Y184689D01*
X157069Y185860D01*
X156883Y186796D01*
X157214Y187296D01*
X159385D01*
X160010Y187921D01*
X160635Y187296D01*
X163385D01*
X164010Y187921D01*
X164635Y187296D01*
X167385D01*
X168010Y187921D01*
X168635Y187296D01*
X171385D01*
X172010Y187921D01*
X172635Y187296D01*
X175385D01*
X176010Y187921D01*
X176635Y187296D01*
X179385D01*
X179509Y187420D01*
X179971Y187229D01*
Y184704D01*
X175106Y179839D01*
X166546D01*
X166463Y179963D01*
X165471Y180626D01*
X164300Y180859D01*
X163130Y180626D01*
X162600Y180272D01*
X162159Y180508D01*
Y180900D01*
X161926Y182071D01*
X161263Y183063D01*
X160271Y183726D01*
X159100Y183959D01*
X157929Y183726D01*
X156937Y183063D01*
X156274Y182071D01*
X156041Y180900D01*
Y175500D01*
X156041Y175500D01*
X156274Y174329D01*
X156937Y173337D01*
X156937Y173337D01*
X160337Y169937D01*
X160337Y169937D01*
X161329Y169274D01*
X162500Y169041D01*
X162500Y169041D01*
X185250D01*
X185251Y169041D01*
X186421Y169274D01*
X187413Y169937D01*
X190287Y172811D01*
X195000D01*
X196171Y173044D01*
X196967Y173576D01*
X197970D01*
Y171175D01*
X206050D01*
Y180525D01*
X205432D01*
X205241Y180986D01*
X206222Y181968D01*
X206719Y182712D01*
X206894Y183590D01*
Y187919D01*
X206719Y188797D01*
X206222Y189541D01*
X204760Y191003D01*
Y198078D01*
X213913D01*
X214432Y198027D01*
X214716Y197743D01*
Y180514D01*
X212970D01*
Y178133D01*
X211997D01*
X211201Y178665D01*
X210031Y178898D01*
X208860Y178665D01*
X207868Y178002D01*
X207205Y177010D01*
X206972Y175839D01*
X207205Y174669D01*
X207868Y173676D01*
X208860Y173013D01*
X210031Y172780D01*
X211201Y173013D01*
X211997Y173545D01*
X212970D01*
Y171164D01*
X221050D01*
Y180514D01*
X219304D01*
Y198860D01*
X219130Y199738D01*
X218632Y200482D01*
X216664Y202450D01*
X215920Y202947D01*
X215561Y203019D01*
X215288Y203453D01*
Y206203D01*
X215164Y206327D01*
X215356Y206789D01*
X223197D01*
X223250Y206736D01*
Y196370D01*
X226239D01*
X226335Y195910D01*
X226335D01*
Y187830D01*
X227130D01*
X227282Y187330D01*
X226837Y187033D01*
X226174Y186040D01*
X225941Y184870D01*
X226174Y183699D01*
X226837Y182707D01*
X226961Y182624D01*
Y180535D01*
X224960D01*
Y171185D01*
X233040D01*
Y173911D01*
X236376D01*
Y169370D01*
X236852Y168222D01*
X236886Y168052D01*
X236852Y168018D01*
X236376Y166870D01*
Y163250D01*
X236852Y162102D01*
X238000Y161626D01*
X240961D01*
Y161115D01*
X240837Y161033D01*
X240174Y160040D01*
X239941Y158870D01*
X240174Y157699D01*
X240837Y156707D01*
X241829Y156044D01*
X243000Y155811D01*
X244170Y156044D01*
X245163Y156707D01*
X245826Y157699D01*
X246059Y158870D01*
X245826Y160040D01*
X245163Y161033D01*
X245039Y161115D01*
Y161626D01*
X248000D01*
X249148Y162102D01*
X249624Y163250D01*
Y166870D01*
X249148Y168018D01*
X249114Y168052D01*
X249148Y168222D01*
X249624Y169370D01*
Y177220D01*
X249148Y178368D01*
X248000Y178844D01*
X238000D01*
X236852Y178368D01*
X236695Y177989D01*
X233040D01*
Y180535D01*
X231039D01*
Y182624D01*
X231163Y182707D01*
X231826Y183699D01*
X232059Y184870D01*
X231826Y186040D01*
X231163Y187033D01*
X230718Y187330D01*
X230870Y187830D01*
X235685D01*
Y195910D01*
X235685D01*
X235782Y196370D01*
X238750D01*
Y209370D01*
X226384D01*
X225484Y210270D01*
X225251Y210426D01*
X225276Y210737D01*
X225334Y210972D01*
X225930Y211370D01*
X238750D01*
Y215821D01*
X240960D01*
Y213185D01*
X249040D01*
Y222535D01*
X240960D01*
Y219899D01*
X238750D01*
Y224370D01*
X224625D01*
X224526Y224870D01*
X223863Y225863D01*
X223708Y225966D01*
Y226466D01*
X224263Y226837D01*
X224594Y227333D01*
X231878D01*
Y231261D01*
X235975D01*
X236014Y231222D01*
Y224974D01*
X242014D01*
Y229831D01*
X245460D01*
Y227235D01*
X253540D01*
Y236585D01*
X245460D01*
Y233909D01*
X242014D01*
Y234474D01*
X238530D01*
X238262Y234742D01*
X237600Y235184D01*
X236820Y235339D01*
X231878D01*
Y236683D01*
X223798D01*
Y235339D01*
X219000D01*
X219000Y235339D01*
X218220Y235184D01*
X217558Y234742D01*
X217558Y234742D01*
X215750Y232934D01*
X215288Y233125D01*
Y234203D01*
X214663Y234828D01*
X215288Y235453D01*
Y238203D01*
X214663Y238828D01*
X215288Y239453D01*
Y242203D01*
X214663Y242828D01*
X215288Y243453D01*
Y246203D01*
X215164Y246327D01*
X215356Y246789D01*
X216978D01*
X217759Y246944D01*
X218420Y247386D01*
X219452Y248418D01*
X219452Y248418D01*
X219894Y249079D01*
X220049Y249860D01*
X220049Y249860D01*
Y250789D01*
X223989D01*
X224769Y250944D01*
X225431Y251386D01*
X229864Y255820D01*
X235695D01*
Y263900D01*
X233060D01*
Y265343D01*
X237510D01*
Y276343D01*
X224839D01*
Y277100D01*
X224684Y277880D01*
X224242Y278542D01*
X224242Y278542D01*
X222939Y279845D01*
Y286654D01*
X223063Y286737D01*
X223726Y287729D01*
X223959Y288900D01*
X223726Y290070D01*
X223063Y291063D01*
X222071Y291726D01*
X220900Y291959D01*
X219729Y291726D01*
X218737Y291063D01*
X218074Y290070D01*
X217841Y288900D01*
X218074Y287729D01*
X218737Y286737D01*
X218861Y286654D01*
Y279762D01*
X218420Y279526D01*
X218181Y279686D01*
X217010Y279918D01*
X215840Y279686D01*
X214847Y279023D01*
X214184Y278030D01*
X213951Y276860D01*
X214184Y275689D01*
X214847Y274697D01*
X214971Y274614D01*
Y267227D01*
X214471Y267020D01*
X213913Y267578D01*
X204760D01*
Y276985D01*
X204049Y277695D01*
Y295908D01*
X209603Y301461D01*
X245525D01*
X253461Y293525D01*
Y265900D01*
X253616Y265120D01*
X254058Y264458D01*
X264571Y253945D01*
X264526Y253836D01*
X264585Y253695D01*
X264552Y253546D01*
X266492Y242843D01*
X266646Y242605D01*
X266770Y241659D01*
X267828Y239105D01*
X269511Y236911D01*
X271705Y235228D01*
X274259Y234170D01*
X277000Y233809D01*
X279741Y234170D01*
X282295Y235228D01*
X284489Y236911D01*
X286172Y239105D01*
X287230Y241659D01*
X287591Y244400D01*
X287230Y247141D01*
X286172Y249695D01*
X284489Y251889D01*
X282295Y253572D01*
X280361Y254373D01*
X280412Y254893D01*
X281171Y255044D01*
X281435Y255221D01*
X281544Y255207D01*
X281579Y255217D01*
X281584Y255216D01*
X281598Y255221D01*
X281600Y255222D01*
X281611Y255223D01*
X281921Y255245D01*
X282038Y255247D01*
X282600Y255487D01*
X283166Y255722D01*
X283170Y255732D01*
X283180Y255736D01*
X283218Y255831D01*
X284370D01*
X285150Y255986D01*
X285812Y256428D01*
X290642Y261258D01*
X291084Y261920D01*
X291239Y262700D01*
Y302500D01*
X291239Y302500D01*
X291084Y303280D01*
X290642Y303942D01*
X285272Y309312D01*
X284610Y309754D01*
X283830Y309909D01*
X279935D01*
X279835Y310409D01*
X282295Y311428D01*
X284489Y313111D01*
X286172Y315305D01*
X287230Y317859D01*
X287591Y320600D01*
X287230Y323341D01*
X286172Y325895D01*
X284489Y328089D01*
X282295Y329772D01*
X279741Y330830D01*
X277000Y331191D01*
D02*
G37*
G36*
X231000Y300929D02*
X229830Y300696D01*
X228837Y300033D01*
X228174Y299041D01*
X227941Y297870D01*
X228174Y296700D01*
X228706Y295903D01*
Y294377D01*
X224510D01*
Y283377D01*
X237510D01*
Y294377D01*
X233294D01*
Y295576D01*
X238050D01*
X247206Y286420D01*
Y248565D01*
X245460D01*
Y239215D01*
X253540D01*
Y248565D01*
X251794D01*
Y287370D01*
X251619Y288248D01*
X251122Y288992D01*
X240622Y299492D01*
X239878Y299989D01*
X239000Y300164D01*
X232967D01*
X232171Y300696D01*
X231000Y300929D01*
D02*
G37*
G36*
X239400Y253959D02*
X238230Y253726D01*
X237237Y253063D01*
X236574Y252071D01*
X236341Y250900D01*
X236574Y249729D01*
X236975Y249130D01*
Y247974D01*
X236014D01*
Y238474D01*
X242014D01*
Y247974D01*
X241297D01*
X241169Y248474D01*
X241563Y248737D01*
X242226Y249729D01*
X242459Y250900D01*
X242226Y252071D01*
X241563Y253063D01*
X240571Y253726D01*
X239400Y253959D01*
D02*
G37*
G36*
X99320Y261809D02*
X81080D01*
Y246109D01*
X99320D01*
Y252061D01*
X102127D01*
X102209Y251937D01*
X103202Y251274D01*
X104372Y251041D01*
X105542Y251274D01*
X106535Y251937D01*
X107198Y252929D01*
X107431Y254100D01*
X107198Y255271D01*
X106535Y256263D01*
X105542Y256926D01*
X104372Y257159D01*
X103202Y256926D01*
X102209Y256263D01*
X102127Y256139D01*
X99320D01*
Y261809D01*
D02*
G37*
%LPD*%
G36*
X33526Y51019D02*
X33502Y50900D01*
X33099Y48225D01*
X31910Y39933D01*
X21733Y50110D01*
X32819Y51726D01*
X33526Y51019D01*
D02*
G37*
G36*
X271661Y33955D02*
X270323Y34927D01*
X265159Y38252D01*
X264431Y38610D01*
X263804Y38865D01*
X263279Y39019D01*
X262856Y39070D01*
X262796Y43070D01*
X263214Y43123D01*
X263734Y43281D01*
X264354Y43545D01*
X265076Y43914D01*
X266823Y44970D01*
X268974Y46448D01*
X271531Y48348D01*
X271661Y33955D01*
D02*
G37*
G36*
X33526Y56781D02*
X32819Y56074D01*
X32700Y56098D01*
X30025Y56501D01*
X21733Y57690D01*
X31910Y67867D01*
X33526Y56781D01*
D02*
G37*
G36*
X122993Y225555D02*
X120438Y223000D01*
X119941Y222256D01*
X119766Y221378D01*
Y206635D01*
X119540Y206458D01*
X119040Y206701D01*
Y207535D01*
X110960D01*
Y205919D01*
X108171D01*
X108160Y205926D01*
X106990Y206158D01*
X105820Y205926D01*
X105809Y205919D01*
X88759D01*
Y213259D01*
X98998Y223499D01*
X99460Y223307D01*
Y223215D01*
X107540D01*
Y224831D01*
X110960D01*
Y223185D01*
X119040D01*
Y225311D01*
X121042D01*
X122018Y225505D01*
X122674Y225944D01*
X122993Y225555D01*
D02*
G37*
G36*
X29801Y225139D02*
X35544Y221344D01*
X36137Y221081D01*
X36625Y220923D01*
X37010Y220870D01*
Y216870D01*
X36610Y216819D01*
X36106Y216666D01*
X35498Y216410D01*
X34787Y216052D01*
X33054Y215030D01*
X30907Y213599D01*
X28346Y211759D01*
X28479Y226140D01*
X29801Y225139D01*
D02*
G37*
G36*
X280960Y259032D02*
X281030Y258998D01*
X281113Y258968D01*
X281207Y258942D01*
X281313Y258920D01*
X281430Y258902D01*
X281701Y258878D01*
X282018Y258870D01*
Y256870D01*
X281854Y256868D01*
X281430Y256838D01*
X281313Y256820D01*
X281207Y256798D01*
X281113Y256772D01*
X281030Y256742D01*
X280960Y256709D01*
X280901Y256671D01*
Y259069D01*
X280960Y259032D01*
D02*
G37*
G36*
X267759Y255143D02*
X268148Y255017D01*
X268732Y254871D01*
X271651Y254318D01*
X278267Y253310D01*
X268090Y243133D01*
X266150Y253836D01*
X267564Y255250D01*
X267759Y255143D01*
D02*
G37*
G36*
X248000Y169370D02*
X243000Y174370D01*
X238000Y169370D01*
Y177220D01*
X248000D01*
Y169370D01*
D02*
G37*
G36*
Y166870D02*
Y163250D01*
X238000D01*
Y166870D01*
X243000Y171870D01*
X248000Y166870D01*
D02*
G37*
G36*
X72288Y212200D02*
X67288Y207200D01*
X62288Y212200D01*
Y215820D01*
X72288D01*
Y212200D01*
D02*
G37*
G36*
Y201850D02*
X62288D01*
Y209700D01*
X67288Y204700D01*
X72288Y209700D01*
Y201850D01*
D02*
G37*
D10*
X150000Y384810D02*
D03*
D11*
X107500Y373380D02*
D03*
X192500D02*
D03*
D12*
X239014Y243224D02*
D03*
Y229724D02*
D03*
D13*
X170010Y232828D02*
D03*
D14*
X208788Y200828D02*
D03*
Y204828D02*
D03*
Y208828D02*
D03*
Y212828D02*
D03*
Y216828D02*
D03*
Y220828D02*
D03*
Y224828D02*
D03*
Y228828D02*
D03*
Y232828D02*
D03*
Y236828D02*
D03*
Y240828D02*
D03*
Y244828D02*
D03*
Y248828D02*
D03*
Y252828D02*
D03*
Y256828D02*
D03*
Y260828D02*
D03*
Y264828D02*
D03*
X130978D02*
D03*
Y260828D02*
D03*
Y256828D02*
D03*
Y252828D02*
D03*
Y248828D02*
D03*
Y244828D02*
D03*
Y240828D02*
D03*
Y236828D02*
D03*
Y232828D02*
D03*
Y228828D02*
D03*
Y224828D02*
D03*
Y220828D02*
D03*
Y216828D02*
D03*
Y212828D02*
D03*
Y208828D02*
D03*
Y204828D02*
D03*
Y200828D02*
D03*
D15*
X202010Y271860D02*
D03*
X198010D02*
D03*
X194010D02*
D03*
X190010D02*
D03*
X186010D02*
D03*
X182010D02*
D03*
X178010D02*
D03*
X174010D02*
D03*
X170010D02*
D03*
X166010D02*
D03*
X162010D02*
D03*
X158010D02*
D03*
X154010D02*
D03*
X150010D02*
D03*
X146010D02*
D03*
X142010D02*
D03*
X138010D02*
D03*
Y193796D02*
D03*
X142010D02*
D03*
X146010D02*
D03*
X150010D02*
D03*
X154010D02*
D03*
X158010D02*
D03*
X162010D02*
D03*
X166010D02*
D03*
X170010D02*
D03*
X174010D02*
D03*
X178010D02*
D03*
X182010D02*
D03*
X186010D02*
D03*
X190010D02*
D03*
X194010D02*
D03*
X198010D02*
D03*
X202010D02*
D03*
D16*
X67288Y203120D02*
D03*
Y213200D02*
D03*
X243000Y175950D02*
D03*
Y165870D02*
D03*
D17*
X127000Y290710D02*
D03*
Y302690D02*
D03*
X137000Y290610D02*
D03*
Y302590D02*
D03*
X227838Y243988D02*
D03*
Y232008D02*
D03*
X174700Y301990D02*
D03*
Y290010D02*
D03*
X245000Y205880D02*
D03*
Y217860D02*
D03*
X115000Y190880D02*
D03*
Y202860D02*
D03*
X115593Y252807D02*
D03*
Y240828D02*
D03*
X217010Y175839D02*
D03*
Y163860D02*
D03*
X229000Y175860D02*
D03*
Y163880D02*
D03*
X249500Y243890D02*
D03*
Y231910D02*
D03*
X202010Y163870D02*
D03*
Y175849D02*
D03*
X115000Y227860D02*
D03*
Y215880D02*
D03*
X103500Y215910D02*
D03*
Y227890D02*
D03*
D18*
X242990Y191870D02*
D03*
X231010D02*
D03*
X150010Y165600D02*
D03*
X161990D02*
D03*
X243000Y259860D02*
D03*
X231021D02*
D03*
D19*
X231000Y202870D02*
D03*
Y217870D02*
D03*
D20*
X231010Y288877D02*
D03*
Y270843D02*
D03*
D21*
X100550Y284150D02*
D03*
X114050D02*
D03*
Y273650D02*
D03*
X100550D02*
D03*
D22*
X90200Y253959D02*
D03*
X67340D02*
D03*
D23*
X150080Y298570D02*
D03*
Y286830D02*
D03*
Y292700D02*
D03*
X155080Y298570D02*
D03*
Y286830D02*
D03*
Y292700D02*
D03*
D24*
X217010Y176870D02*
X218041D01*
X137010Y283300D02*
Y290610D01*
X127010Y286290D02*
Y290710D01*
X154010Y278498D02*
X156112Y280600D01*
X165290D01*
X154010Y271860D02*
Y278498D01*
X202010Y190509D02*
Y193796D01*
Y175850D02*
Y181000D01*
X204600Y183590D01*
Y187919D01*
X202010Y190509D02*
X204600Y187919D01*
X182500Y291584D02*
Y294500D01*
X180927Y290010D02*
X182500Y291584D01*
X174700Y290010D02*
X180927D01*
X165290Y280600D02*
X174700Y290010D01*
X239000Y297870D02*
X249500Y287370D01*
Y243890D02*
Y287370D01*
X122060Y205560D02*
Y221378D01*
X119360Y202860D02*
X122060Y205560D01*
X115000Y202860D02*
X119360D01*
X231000Y297870D02*
X239000D01*
X231000Y288887D02*
X231010Y288877D01*
X231000Y288887D02*
Y297870D01*
X210031Y175839D02*
X217010D01*
X195000Y175870D02*
X201990D01*
X217010Y176870D02*
Y198860D01*
X208788Y200828D02*
X215042D01*
X217010Y198860D01*
Y175839D02*
X218041Y176870D01*
X122010Y228828D02*
X130978D01*
X125510Y224828D02*
X130978D01*
X122060Y221378D02*
X125510Y224828D01*
X127010Y286290D02*
X129910Y283390D01*
X129921Y283400D01*
X130021Y283300D01*
X133100D01*
X142010Y271860D02*
Y278300D01*
X133100Y283300D02*
X137010D01*
X142010Y278300D01*
D25*
X85440Y202860D02*
X115000D01*
X67288Y197200D02*
Y203120D01*
X99063Y227890D02*
X103500D01*
X85700Y214526D02*
X99063Y227890D01*
X67340Y234962D02*
Y253959D01*
X67240Y234962D02*
X67340Y234862D01*
X67288Y213200D02*
Y234810D01*
X88336D01*
X115593Y240828D02*
X122680D01*
X94354D02*
X115593D01*
X88336Y234810D02*
X94354Y240828D01*
X185251Y172100D02*
X189021Y175870D01*
X162500Y172100D02*
X185251D01*
X159100Y175500D02*
X162500Y172100D01*
X159100Y175500D02*
Y180900D01*
X79780Y197200D02*
X85440Y202860D01*
X85700Y203120D02*
Y214526D01*
X67288Y197200D02*
X79780D01*
X67000Y202832D02*
X67288Y203120D01*
X37010Y218870D02*
X58680Y197200D01*
X67000D02*
Y202832D01*
X58680Y197200D02*
X67000D01*
X23130Y218870D02*
X37010D01*
X150010Y165600D02*
Y182194D01*
X150050Y108850D02*
X217830Y41070D01*
X189021Y175870D02*
X195000D01*
X103500Y227890D02*
X114970D01*
X150050Y108850D02*
Y165600D01*
X217830Y41070D02*
X277000D01*
D26*
X90200Y253959D02*
X90341Y254100D01*
X104372D01*
X122680Y240828D02*
X130978D01*
X219240Y229000D02*
X222100D01*
X215068Y224828D02*
X219240Y229000D01*
X208788Y224828D02*
X215068D01*
X214528Y228828D02*
X219000Y233300D01*
X208788Y228828D02*
X214528D01*
X218828Y220828D02*
X221700Y223700D01*
X208788Y220828D02*
X218828D01*
X236820Y233300D02*
X239010Y231110D01*
X194500Y184900D02*
Y187800D01*
X194010Y188290D02*
X194500Y187800D01*
X194010Y188290D02*
Y193796D01*
X198010Y187290D02*
X199700Y185600D01*
X198010Y187290D02*
Y193796D01*
X208788Y260828D02*
X208860Y260900D01*
X217500D01*
X164300Y177800D02*
X175951D01*
X123572Y232828D02*
X130978D01*
X123200Y233200D02*
X123572Y232828D01*
X182010Y271860D02*
Y280460D01*
X180207Y282263D02*
X182010Y280460D01*
X186010Y271860D02*
Y278990D01*
X185525Y279475D02*
X186010Y278990D01*
X185525Y279475D02*
Y283825D01*
X189700Y288000D01*
X194010Y271860D02*
Y283637D01*
X194000Y283647D02*
X194010Y283637D01*
X198010Y279203D02*
Y294990D01*
X198000Y279193D02*
X198010Y279203D01*
X198000Y271870D02*
Y279193D01*
Y295000D02*
X198010Y294990D01*
X202010Y271860D02*
Y296752D01*
X202010Y271860D02*
X202010Y271860D01*
X198000Y271870D02*
X198010Y271860D01*
X190010D02*
Y279860D01*
X189970Y279899D02*
X190010Y279860D01*
X239014Y243224D02*
Y250514D01*
X239400Y250900D01*
X220900Y279000D02*
X222800Y277100D01*
X220900Y279000D02*
Y288900D01*
X222800Y259650D02*
Y277100D01*
X175951Y177800D02*
X182010Y183860D01*
X150010Y182271D02*
Y193796D01*
X255500Y265900D02*
X277000Y244400D01*
X280000Y257870D02*
X284370D01*
X255000Y307870D02*
X283830D01*
X23000Y219000D02*
X23130Y218870D01*
X208758Y303500D02*
X246370D01*
X202010Y296752D02*
X208758Y303500D01*
X246370D02*
X255500Y294370D01*
Y265900D02*
Y294370D01*
X216900Y163750D02*
X217010Y163860D01*
X191378Y317870D02*
X245000D01*
X208788Y216828D02*
X217170D01*
X202010Y163870D02*
X202184Y163696D01*
X245000Y317870D02*
X255000Y307870D01*
X219978Y256828D02*
X222800Y259650D01*
X231000Y217870D02*
X231010Y217860D01*
X245000D01*
X243000Y158870D02*
Y165870D01*
X229000Y175860D02*
Y184870D01*
Y175860D02*
X229090Y175950D01*
X243000D01*
X242990Y191870D02*
X244000D01*
X231000Y191880D02*
X231010Y191870D01*
X231000Y191880D02*
Y202870D01*
X224042Y208828D02*
X228010Y204860D01*
X208788Y208828D02*
X224042D01*
X201990Y175870D02*
X202010Y175850D01*
Y175850D02*
Y175850D01*
X217010Y265860D02*
Y276860D01*
X215978Y264828D02*
X217010Y265860D01*
X208788Y256828D02*
X219978D01*
X208788Y264828D02*
X215978D01*
X182010Y183860D02*
Y193796D01*
X243000Y259860D02*
Y267850D01*
X231010Y270843D02*
X231021Y270832D01*
Y259860D02*
Y270832D01*
X218010Y249860D02*
Y252828D01*
X239010Y231110D02*
X239771Y231870D01*
X208788Y252828D02*
X218010D01*
X216978Y248828D02*
X218010Y249860D01*
X208788Y248828D02*
X216978D01*
X202010Y175850D02*
X202010Y175849D01*
X103260Y284110D02*
X104021Y284870D01*
X103472Y264828D02*
X130978D01*
X218010Y252828D02*
X223989D01*
X231021Y259860D01*
X208788Y212828D02*
X224512D01*
X227990Y216306D01*
X284370Y257870D02*
X289200Y262700D01*
Y302500D01*
X283830Y307870D02*
X289200Y302500D01*
X138010Y271860D02*
Y275976D01*
X125202Y278900D02*
X135086D01*
X138010Y275976D01*
X119952Y284150D02*
X125202Y278900D01*
X114050Y284150D02*
X119952D01*
X100550Y267750D02*
X103472Y264828D01*
X100550Y267750D02*
Y273650D01*
X149936Y271934D02*
X150010Y271860D01*
X150021Y271870D01*
X219000Y233300D02*
X236820D01*
X239771Y231870D02*
X249500D01*
X227990Y216306D02*
Y219860D01*
X149896Y271974D02*
X149907Y271984D01*
X150020Y271870D02*
Y286930D01*
X101521Y285849D02*
X103260Y284110D01*
X243000Y190870D02*
X244000Y191870D01*
X229010Y243849D02*
Y251860D01*
D27*
X150110Y301300D02*
Y384700D01*
D28*
X146010Y184873D02*
X146100Y184783D01*
X146000Y184883D02*
X146010Y184873D01*
Y184694D02*
Y184873D01*
X146000Y184883D02*
Y185500D01*
X146010Y184694D02*
X146100Y184783D01*
X142010Y188296D02*
Y193796D01*
X141010Y187296D02*
X142010Y188296D01*
X141010Y100410D02*
Y187296D01*
X138010Y188296D02*
X139010Y187296D01*
X138010Y188296D02*
Y193796D01*
X139010Y101239D02*
Y187296D01*
X154010Y184748D02*
Y185860D01*
Y193796D01*
X23000Y41200D02*
X34600Y52800D01*
X93400D01*
X141010Y100410D01*
X23000Y66600D02*
X34800Y54800D01*
X92572D01*
X139010Y101239D01*
X146010Y184873D02*
Y193796D01*
D29*
X169503Y280100D02*
X172600D01*
X166010Y276607D02*
X169503Y280100D01*
X166010Y271860D02*
Y276607D01*
D30*
X150010Y182271D02*
X150049Y182232D01*
D31*
X114970Y227890D02*
X115000Y227860D01*
X121042D01*
X122010Y228828D01*
D32*
X120000Y-234765D02*
Y-250000D01*
X130157D01*
X135235D02*
Y-239843D01*
X140313Y-234765D01*
X145392Y-239843D01*
Y-250000D01*
Y-242383D01*
X135235D01*
X150470Y-234765D02*
Y-237304D01*
X155548Y-242383D01*
X160627Y-237304D01*
Y-234765D01*
X155548Y-242383D02*
Y-250000D01*
X175862Y-234765D02*
X165705D01*
Y-250000D01*
X175862D01*
X165705Y-242383D02*
X170784D01*
X180940Y-250000D02*
Y-234765D01*
X188558D01*
X191097Y-237304D01*
Y-242383D01*
X188558Y-244922D01*
X180940D01*
X186019D02*
X191097Y-250000D01*
X211410Y-234765D02*
X221567D01*
X216489D01*
Y-250000D01*
X234263Y-234765D02*
X229185D01*
X226646Y-237304D01*
Y-247461D01*
X229185Y-250000D01*
X234263D01*
X236802Y-247461D01*
Y-237304D01*
X234263Y-234765D01*
X241881Y-250000D02*
Y-234765D01*
X249498D01*
X252037Y-237304D01*
Y-242383D01*
X249498Y-244922D01*
X241881D01*
X0Y-174765D02*
Y-190000D01*
X7617D01*
X10157Y-187461D01*
Y-184922D01*
X7617Y-182383D01*
X0D01*
X7617D01*
X10157Y-179843D01*
Y-177304D01*
X7617Y-174765D01*
X0D01*
X22853D02*
X17774D01*
X15235Y-177304D01*
Y-187461D01*
X17774Y-190000D01*
X22853D01*
X25392Y-187461D01*
Y-177304D01*
X22853Y-174765D01*
X30470Y-190000D02*
Y-179843D01*
X35549Y-174765D01*
X40627Y-179843D01*
Y-190000D01*
Y-182383D01*
X30470D01*
X45705Y-190000D02*
Y-174765D01*
X53323D01*
X55862Y-177304D01*
Y-182383D01*
X53323Y-184922D01*
X45705D01*
X50784D02*
X55862Y-190000D01*
X60940Y-174765D02*
Y-190000D01*
X68558D01*
X71097Y-187461D01*
Y-177304D01*
X68558Y-174765D01*
X60940D01*
X91410Y-179843D02*
X93950D01*
Y-182383D01*
X91410D01*
Y-179843D01*
Y-187461D02*
X93950D01*
Y-190000D01*
X91410D01*
Y-187461D01*
X129498Y-177304D02*
X126959Y-174765D01*
X121881D01*
X119341Y-177304D01*
Y-179843D01*
X121881Y-182383D01*
X126959D01*
X129498Y-184922D01*
Y-187461D01*
X126959Y-190000D01*
X121881D01*
X119341Y-187461D01*
X134577Y-174765D02*
X144733D01*
X139655D01*
Y-190000D01*
X149811D02*
Y-174765D01*
X154890Y-179843D01*
X159968Y-174765D01*
Y-190000D01*
X165047Y-177304D02*
X167586Y-174765D01*
X172664D01*
X175203Y-177304D01*
Y-179843D01*
X172664Y-182383D01*
X170125D01*
X172664D01*
X175203Y-184922D01*
Y-187461D01*
X172664Y-190000D01*
X167586D01*
X165047Y-187461D01*
X190438Y-190000D02*
X180282D01*
X190438Y-179843D01*
Y-177304D01*
X187899Y-174765D01*
X182821D01*
X180282Y-177304D01*
X195517Y-174765D02*
Y-190000D01*
X200595Y-184922D01*
X205674Y-190000D01*
Y-174765D01*
X210752D02*
Y-190000D01*
X218369D01*
X220909Y-187461D01*
Y-184922D01*
X218369Y-182383D01*
X210752D01*
X218369D01*
X220909Y-179843D01*
Y-177304D01*
X218369Y-174765D01*
X210752D01*
X236144D02*
X225987D01*
Y-182383D01*
X231065Y-179843D01*
X233604D01*
X236144Y-182383D01*
Y-187461D01*
X233604Y-190000D01*
X228526D01*
X225987Y-187461D01*
X251379Y-174765D02*
X241222D01*
Y-182383D01*
X246300Y-179843D01*
X248839D01*
X251379Y-182383D01*
Y-187461D01*
X248839Y-190000D01*
X243761D01*
X241222Y-187461D01*
X256457Y-192539D02*
X266614D01*
X271692Y-174765D02*
Y-190000D01*
X279310D01*
X281849Y-187461D01*
Y-177304D01*
X279310Y-174765D01*
X271692D01*
X286927D02*
Y-190000D01*
X294545D01*
X297084Y-187461D01*
Y-184922D01*
X294545Y-182383D01*
X286927D01*
X294545D01*
X297084Y-179843D01*
Y-177304D01*
X294545Y-174765D01*
X286927D01*
X302162Y-192539D02*
X312319D01*
X327554Y-187461D02*
Y-177304D01*
X325015Y-174765D01*
X319937D01*
X317397Y-177304D01*
Y-187461D01*
X319937Y-190000D01*
X325015D01*
X322476Y-184922D02*
X327554Y-190000D01*
X325015D02*
X327554Y-187461D01*
X342789Y-174765D02*
X332632D01*
Y-182383D01*
X337711D01*
X332632D01*
Y-190000D01*
X347868D02*
Y-174765D01*
X358024Y-190000D01*
Y-174765D01*
X373259D02*
X368181Y-177304D01*
X363103Y-182383D01*
Y-187461D01*
X365642Y-190000D01*
X370720D01*
X373259Y-187461D01*
Y-184922D01*
X370720Y-182383D01*
X363103D01*
X378338Y-177304D02*
X380877Y-174765D01*
X385955D01*
X388494Y-177304D01*
Y-179843D01*
X385955Y-182383D01*
X388494Y-184922D01*
Y-187461D01*
X385955Y-190000D01*
X380877D01*
X378338Y-187461D01*
Y-184922D01*
X380877Y-182383D01*
X378338Y-179843D01*
Y-177304D01*
X380877Y-182383D02*
X385955D01*
X393573Y-192539D02*
X403729D01*
X408808Y-190000D02*
Y-174765D01*
X416425D01*
X418965Y-177304D01*
Y-182383D01*
X416425Y-184922D01*
X408808D01*
X0Y-220000D02*
Y-204765D01*
X7617D01*
X10157Y-207304D01*
Y-212383D01*
X7617Y-214922D01*
X0D01*
X5078D02*
X10157Y-220000D01*
X25392Y-204765D02*
X15235D01*
Y-220000D01*
X25392D01*
X15235Y-212383D02*
X20313D01*
X30470Y-204765D02*
Y-214922D01*
X35549Y-220000D01*
X40627Y-214922D01*
Y-204765D01*
X91410Y-209843D02*
X93950D01*
Y-212383D01*
X91410D01*
Y-209843D01*
Y-217461D02*
X93950D01*
Y-220000D01*
X91410D01*
Y-217461D01*
X119341Y-220000D02*
Y-209843D01*
X124420Y-204765D01*
X129498Y-209843D01*
Y-220000D01*
Y-212383D01*
X119341D01*
X10157Y-234765D02*
X0D01*
Y-242383D01*
X5078D01*
X0D01*
Y-250000D01*
X15235Y-234765D02*
X20313D01*
X17774D01*
Y-250000D01*
X15235D01*
X20313D01*
X27931Y-234765D02*
Y-250000D01*
X38088D01*
X43166D02*
Y-234765D01*
X48244Y-239843D01*
X53323Y-234765D01*
Y-250000D01*
X88871Y-239843D02*
X91410D01*
Y-242383D01*
X88871D01*
Y-239843D01*
Y-247461D02*
X91410D01*
Y-250000D01*
X88871D01*
Y-247461D01*
X0Y-264765D02*
Y-280000D01*
X7617D01*
X10157Y-277461D01*
Y-267304D01*
X7617Y-264765D01*
X0D01*
X15235Y-280000D02*
Y-264765D01*
X22853D01*
X25392Y-267304D01*
Y-272383D01*
X22853Y-274922D01*
X15235D01*
X20313D02*
X25392Y-280000D01*
X30470D02*
Y-269843D01*
X35549Y-264765D01*
X40627Y-269843D01*
Y-280000D01*
Y-272383D01*
X30470D01*
X45705Y-264765D02*
Y-280000D01*
X50784Y-274922D01*
X55862Y-280000D01*
Y-264765D01*
X60940Y-280000D02*
Y-264765D01*
X71097Y-280000D01*
Y-264765D01*
X91410Y-269843D02*
X93950D01*
Y-272383D01*
X91410D01*
Y-269843D01*
Y-277461D02*
X93950D01*
Y-280000D01*
X91410D01*
Y-277461D01*
X129498Y-267304D02*
X126959Y-264765D01*
X121881D01*
X119341Y-267304D01*
Y-277461D01*
X121881Y-280000D01*
X126959D01*
X129498Y-277461D01*
X144733Y-264765D02*
X134577D01*
Y-280000D01*
X144733D01*
X134577Y-272383D02*
X139655D01*
X149811Y-280000D02*
Y-264765D01*
X159968Y-280000D01*
Y-264765D01*
X165047D02*
X175203D01*
X170125D01*
Y-280000D01*
X180282Y-264765D02*
Y-277461D01*
X182821Y-280000D01*
X187899D01*
X190438Y-277461D01*
Y-264765D01*
X195517Y-280000D02*
Y-264765D01*
X200595Y-269843D01*
X205674Y-264765D01*
Y-280000D01*
X210752Y-272383D02*
X220909D01*
X225987Y-280000D02*
Y-269843D01*
X231065Y-264765D01*
X236144Y-269843D01*
Y-280000D01*
Y-272383D01*
X225987D01*
X241222Y-264765D02*
Y-280000D01*
X248839D01*
X251379Y-277461D01*
Y-267304D01*
X248839Y-264765D01*
X241222D01*
X266614D02*
X256457D01*
Y-280000D01*
X266614D01*
X256457Y-272383D02*
X261535D01*
X271692Y-280000D02*
Y-264765D01*
X281849Y-280000D01*
Y-264765D01*
X297084D02*
X286927D01*
Y-280000D01*
X297084D01*
X286927Y-272383D02*
X292006D01*
X309780Y-264765D02*
X304701D01*
X302162Y-267304D01*
Y-277461D01*
X304701Y-280000D01*
X309780D01*
X312319Y-277461D01*
Y-267304D01*
X309780Y-264765D01*
X0Y-294765D02*
Y-310000D01*
X7617D01*
X10157Y-307461D01*
Y-297304D01*
X7617Y-294765D01*
X0D01*
X15235Y-310000D02*
Y-299843D01*
X20313Y-294765D01*
X25392Y-299843D01*
Y-310000D01*
Y-302383D01*
X15235D01*
X30470Y-294765D02*
X40627D01*
X35549D01*
Y-310000D01*
X55862Y-294765D02*
X45705D01*
Y-310000D01*
X55862D01*
X45705Y-302383D02*
X50784D01*
X91410Y-299843D02*
X93950D01*
Y-302383D01*
X91410D01*
Y-299843D01*
Y-307461D02*
X93950D01*
Y-310000D01*
X91410D01*
Y-307461D01*
X129498Y-310000D02*
X119341D01*
X129498Y-299843D01*
Y-297304D01*
X126959Y-294765D01*
X121881D01*
X119341Y-297304D01*
X134577D02*
X137116Y-294765D01*
X142194D01*
X144733Y-297304D01*
Y-307461D01*
X142194Y-310000D01*
X137116D01*
X134577Y-307461D01*
Y-297304D01*
X149811Y-310000D02*
X154890D01*
X152351D01*
Y-294765D01*
X149811Y-297304D01*
X162507Y-294765D02*
X172664D01*
Y-297304D01*
X162507Y-307461D01*
Y-310000D01*
X177743D02*
X187899Y-299843D01*
X200595Y-310000D02*
Y-294765D01*
X192978Y-302383D01*
X203134D01*
X218369Y-294765D02*
X208213D01*
Y-302383D01*
X213291Y-299843D01*
X215830D01*
X218369Y-302383D01*
Y-307461D01*
X215830Y-310000D01*
X210752D01*
X208213Y-307461D01*
D33*
X46482Y21081D02*
Y16002D01*
X49384D01*
X49941Y20113D02*
X50424Y20355D01*
X51150Y21081D01*
Y16002D01*
D34*
X23000Y41200D02*
D03*
Y66600D02*
D03*
Y92000D02*
D03*
Y117400D02*
D03*
Y142800D02*
D03*
Y168200D02*
D03*
Y193600D02*
D03*
Y219000D02*
D03*
Y269800D02*
D03*
Y295200D02*
D03*
Y320600D02*
D03*
Y244400D02*
D03*
X277000Y41200D02*
D03*
Y66600D02*
D03*
Y92000D02*
D03*
Y117400D02*
D03*
Y142800D02*
D03*
Y168200D02*
D03*
Y193600D02*
D03*
Y219000D02*
D03*
Y269800D02*
D03*
Y295200D02*
D03*
Y320600D02*
D03*
Y244400D02*
D03*
D35*
X23000Y346000D02*
D03*
X277000D02*
D03*
D36*
X104372Y254100D02*
D03*
X191378Y317870D02*
D03*
X143386Y304014D02*
D03*
X142126Y322014D02*
D03*
X143486Y292514D02*
D03*
X156545Y303914D02*
D03*
X116726Y318884D02*
D03*
Y334124D02*
D03*
X182766D02*
D03*
X163286Y293614D02*
D03*
X117488Y381514D02*
D03*
Y366414D02*
D03*
X117346Y352114D02*
D03*
X170667Y395914D02*
D03*
X129564D02*
D03*
X116726Y395974D02*
D03*
X182766D02*
D03*
X156986Y387114D02*
D03*
Y395914D02*
D03*
X142415Y387014D02*
D03*
X142486Y395974D02*
D03*
X156300Y331012D02*
D03*
X133998Y354314D02*
D03*
X165686Y354514D02*
D03*
X156786Y379024D02*
D03*
X142215Y379124D02*
D03*
X143174Y345370D02*
D03*
X143486Y369124D02*
D03*
X156600Y345870D02*
D03*
X156635Y369100D02*
D03*
X156545Y359024D02*
D03*
X170486Y377924D02*
D03*
X133998Y336014D02*
D03*
X128686Y377224D02*
D03*
X142786Y331326D02*
D03*
X143586Y359024D02*
D03*
X165686Y336114D02*
D03*
X182863Y381514D02*
D03*
X182940Y366414D02*
D03*
X182886Y352114D02*
D03*
X169286Y321814D02*
D03*
X142786Y313814D02*
D03*
X156319Y313514D02*
D03*
X222100Y229000D02*
D03*
X221700Y223700D02*
D03*
X194500Y184900D02*
D03*
X199700Y185600D02*
D03*
X200500Y202100D02*
D03*
X200600Y222600D02*
D03*
Y243000D02*
D03*
X217500Y260900D02*
D03*
X159100Y180900D02*
D03*
X164300Y177800D02*
D03*
X146000Y185500D02*
D03*
X139300Y201900D02*
D03*
X123200Y233200D02*
D03*
X172600Y280100D02*
D03*
X180207Y282263D02*
D03*
X189970Y279899D02*
D03*
X194000Y283647D02*
D03*
X189700Y288000D02*
D03*
X198000Y295000D02*
D03*
X182500Y294500D02*
D03*
X180500Y263700D02*
D03*
X200600Y263500D02*
D03*
X239400Y250900D02*
D03*
X220900Y288900D02*
D03*
X167061Y165600D02*
D03*
X78718Y191000D02*
D03*
X67000Y197200D02*
D03*
X77526Y240700D02*
D03*
X49762Y196800D02*
D03*
X101600Y196850D02*
D03*
X65200Y184300D02*
D03*
X121468Y273200D02*
D03*
X80951Y221600D02*
D03*
X97900Y219100D02*
D03*
X53650Y225298D02*
D03*
X78288Y210100D02*
D03*
X102900Y235300D02*
D03*
X103437Y209900D02*
D03*
X115100D02*
D03*
X106990Y203100D02*
D03*
X32400Y206158D02*
D03*
X144600Y128700D02*
D03*
X164500Y184000D02*
D03*
X219400Y204000D02*
D03*
X215300Y284200D02*
D03*
X72300Y362500D02*
D03*
X89100Y348900D02*
D03*
X26100Y361900D02*
D03*
X36000Y245100D02*
D03*
X253200Y172276D02*
D03*
X113700Y291500D02*
D03*
X216900Y156900D02*
D03*
X217424Y338836D02*
D03*
X234188Y362966D02*
D03*
X231140Y352044D02*
D03*
X197104Y325882D02*
D03*
X217170Y216828D02*
D03*
X202288Y156900D02*
D03*
X280000Y257870D02*
D03*
X231000Y297870D02*
D03*
X101148Y291500D02*
D03*
X154010Y185860D02*
D03*
X251500Y205900D02*
D03*
X243000Y158870D02*
D03*
X229090Y156600D02*
D03*
X229000Y184870D02*
D03*
X243000Y184800D02*
D03*
X210031Y175839D02*
D03*
X195000Y175870D02*
D03*
X217010Y276860D02*
D03*
X243000Y267850D02*
D03*
X229010Y251860D02*
D03*
X115000Y184100D02*
D03*
X127200Y310200D02*
D03*
X129800Y272800D02*
D03*
X174400Y309700D02*
D03*
X50546Y59690D02*
D03*
X64770Y47752D02*
D03*
X78232Y59690D02*
D03*
X90678Y47244D02*
D03*
X97790Y66040D02*
D03*
X115062Y66548D02*
D03*
X105918Y83312D02*
D03*
X117602Y93726D02*
D03*
X105664Y104648D02*
D03*
X116840Y122174D02*
D03*
X106426Y130048D02*
D03*
X124968Y143764D02*
D03*
X112776Y147066D02*
D03*
X127762Y162560D02*
D03*
X144900Y159609D02*
D03*
X134112Y183134D02*
D03*
X102362Y53340D02*
D03*
X44196Y47244D02*
D03*
X5080Y378460D02*
D03*
X86360Y336550D02*
D03*
X99060Y316230D02*
D03*
X50800Y326390D02*
D03*
Y311150D02*
D03*
X78700Y287900D02*
D03*
X45300Y286100D02*
D03*
X75500Y268200D02*
D03*
X53340Y255270D02*
D03*
X32900Y228600D02*
D03*
X121920Y196850D02*
D03*
X91440Y184150D02*
D03*
X57100Y209200D02*
D03*
X68636Y159900D02*
D03*
X52200Y144300D02*
D03*
X101600Y161290D02*
D03*
X174475Y156900D02*
D03*
X174200Y149500D02*
D03*
X162560Y133350D02*
D03*
X155600Y146000D02*
D03*
X144780Y107950D02*
D03*
X147320Y82550D02*
D03*
X81280Y146050D02*
D03*
X28700Y154900D02*
D03*
X66040Y133350D02*
D03*
X81280Y123190D02*
D03*
X50800D02*
D03*
X26100Y282300D02*
D03*
X5080Y266700D02*
D03*
Y304800D02*
D03*
Y342900D02*
D03*
X15240Y339090D02*
D03*
X11900Y135300D02*
D03*
X5080Y147320D02*
D03*
X14400Y184100D02*
D03*
X5080Y185420D02*
D03*
Y223520D02*
D03*
X12700Y211000D02*
D03*
X15240Y29210D02*
D03*
X5080Y33020D02*
D03*
X23000Y54000D02*
D03*
X5080Y71120D02*
D03*
Y109220D02*
D03*
X15240Y105410D02*
D03*
Y15240D02*
D03*
X294640Y109220D02*
D03*
Y71120D02*
D03*
Y33020D02*
D03*
Y223520D02*
D03*
Y185420D02*
D03*
Y147320D02*
D03*
Y342900D02*
D03*
Y304800D02*
D03*
Y266700D02*
D03*
Y378460D02*
D03*
X73660Y5080D02*
D03*
X50800D02*
D03*
X27940D02*
D03*
X96520D02*
D03*
X119380D02*
D03*
X182880D02*
D03*
X160020D02*
D03*
X139700D02*
D03*
X203200D02*
D03*
X226060D02*
D03*
X248920D02*
D03*
X271780D02*
D03*
X73660Y30480D02*
D03*
X50800D02*
D03*
X96520D02*
D03*
X116840D02*
D03*
X182880D02*
D03*
X157480D02*
D03*
X137160D02*
D03*
X203200D02*
D03*
X226060D02*
D03*
X248920D02*
D03*
X40640Y29210D02*
D03*
X295910Y5334D02*
D03*
X284480Y29210D02*
D03*
X66040Y107950D02*
D03*
Y82550D02*
D03*
X81280Y92710D02*
D03*
X50800D02*
D03*
X119380Y49530D02*
D03*
X142240D02*
D03*
X160020D02*
D03*
X182880D02*
D03*
X144780Y64770D02*
D03*
X131500Y100100D02*
D03*
X172720Y74930D02*
D03*
X203200Y46990D02*
D03*
X228600D02*
D03*
X254000D02*
D03*
X214122Y60198D02*
D03*
X236982Y72390D02*
D03*
X220980Y100330D02*
D03*
X198120Y80010D02*
D03*
X246126Y94996D02*
D03*
X182880Y97790D02*
D03*
X198120Y118110D02*
D03*
X172720Y120650D02*
D03*
X190500Y146050D02*
D03*
X225044Y138430D02*
D03*
X248920Y125730D02*
D03*
X251460Y151130D02*
D03*
X210820Y194310D02*
D03*
X223520Y191770D02*
D03*
X256540Y224790D02*
D03*
X220980Y240030D02*
D03*
X256540D02*
D03*
X200660Y308610D02*
D03*
X241300D02*
D03*
X218440Y323850D02*
D03*
X243840Y331470D02*
D03*
X259080D02*
D03*
X256540Y300990D02*
D03*
X246822Y296400D02*
D03*
X241300Y283210D02*
D03*
X220980Y311150D02*
D03*
X226100Y280900D02*
D03*
X261620Y283210D02*
D03*
X159400Y222500D02*
D03*
X159600Y243100D02*
D03*
X138800Y222500D02*
D03*
Y243100D02*
D03*
X159400Y201700D02*
D03*
X180600Y243100D02*
D03*
X180500Y222600D02*
D03*
X180600Y201800D02*
D03*
X92004Y209100D02*
D03*
X85200Y314400D02*
D03*
X52900Y349300D02*
D03*
X70000Y323300D02*
D03*
X181600Y301200D02*
D03*
X148500Y263500D02*
D03*
X98000Y352000D02*
D03*
X98054Y366300D02*
D03*
X97977Y381400D02*
D03*
X108100Y345000D02*
D03*
X73660Y395860D02*
D03*
X50800D02*
D03*
X27940D02*
D03*
X5080D02*
D03*
X96520D02*
D03*
X294640D02*
D03*
X203200D02*
D03*
X226060D02*
D03*
X248920D02*
D03*
X271780D02*
D03*
X193100Y345000D02*
D03*
X202460Y352000D02*
D03*
X202602Y366300D02*
D03*
Y381400D02*
D03*
X271780Y378460D02*
D03*
X248920D02*
D03*
X226060D02*
D03*
X27940D02*
D03*
X50800D02*
D03*
X73660D02*
D03*
X137186Y310214D02*
D03*
X127086Y310314D02*
D03*
X174286Y309814D02*
D03*
X143700Y283300D02*
D03*
X168486Y307314D02*
D03*
X133100Y283300D02*
D03*
M02*
