G04 Layer_Color=65535*
%FSLAX44Y44*%
%MOMM*%
G71*
G01*
G75*
%ADD26C,0.2000*%
%ADD28C,0.1000*%
%ADD32C,0.2540*%
%ADD33C,0.1020*%
%ADD37C,0.0254*%
%ADD38C,0.0250*%
%ADD39C,0.0500*%
%ADD40C,0.1270*%
%ADD41C,0.0750*%
%ADD42C,0.0305*%
G36*
X213600Y4500D02*
X91500D01*
Y29500D01*
X213600D01*
Y4500D01*
D02*
G37*
G36*
X197100Y32800D02*
X107100D01*
Y57800D01*
X197100D01*
Y32800D01*
D02*
G37*
%LPC*%
G36*
X114277Y23468D02*
X105022D01*
X104975Y23444D01*
X104952Y23421D01*
X104929Y23398D01*
X104883Y23352D01*
X104837Y23282D01*
X104813Y23236D01*
Y23213D01*
X104790Y23120D01*
X104767Y23005D01*
X104744Y22935D01*
Y22889D01*
X104721Y22727D01*
Y22565D01*
Y22426D01*
Y22403D01*
Y22380D01*
Y22172D01*
X104744Y22010D01*
Y21917D01*
Y21871D01*
X104767Y21732D01*
X104790Y21639D01*
X104813Y21570D01*
Y21547D01*
X104883Y21408D01*
X104929Y21385D01*
Y21362D01*
X105045Y21316D01*
X108354D01*
Y10880D01*
X108377Y10741D01*
X108400Y10695D01*
Y10671D01*
X108469Y10625D01*
X108539Y10579D01*
X108585Y10556D01*
X108608D01*
X108747Y10532D01*
X108886D01*
X108979Y10509D01*
X109025D01*
X109233Y10486D01*
X109441Y10463D01*
X109927D01*
X110135Y10486D01*
X110251Y10509D01*
X110297D01*
X110459Y10532D01*
X110598D01*
X110668Y10556D01*
X110691D01*
X110807Y10602D01*
X110876Y10625D01*
X110899Y10671D01*
X110922D01*
X110969Y10741D01*
X110992Y10810D01*
Y10856D01*
Y10880D01*
Y21316D01*
X114231D01*
X114347Y21339D01*
X114393Y21362D01*
X114486Y21477D01*
X114509Y21524D01*
Y21547D01*
X114532Y21663D01*
X114555Y21755D01*
X114578Y21848D01*
Y21871D01*
X114601Y22033D01*
X114625Y22195D01*
Y22334D01*
Y22357D01*
Y22380D01*
Y22588D01*
X114601Y22750D01*
X114578Y22843D01*
Y22889D01*
X114555Y23028D01*
X114532Y23120D01*
X114509Y23190D01*
Y23213D01*
X114462Y23305D01*
X114439Y23352D01*
X114416Y23398D01*
X114393D01*
X114347Y23444D01*
X114277Y23468D01*
D02*
G37*
G36*
X148223Y23699D02*
X148061D01*
X147598Y23676D01*
X147390Y23653D01*
X147205Y23629D01*
X147043Y23606D01*
X146927Y23583D01*
X146835Y23560D01*
X146811D01*
X146395Y23468D01*
X146210Y23421D01*
X146071Y23375D01*
X145932Y23329D01*
X145840Y23282D01*
X145770Y23259D01*
X145747D01*
X145423Y23143D01*
X145145Y23028D01*
X145053Y22982D01*
X144983Y22935D01*
X144937Y22912D01*
X144914D01*
X144706Y22796D01*
X144567Y22704D01*
X144474Y22634D01*
X144451Y22611D01*
X144312Y22473D01*
X144289Y22426D01*
X144266Y22403D01*
X144220Y22287D01*
X144197Y22241D01*
Y22218D01*
X144173Y22033D01*
X144150Y21963D01*
Y21940D01*
Y21825D01*
Y21709D01*
Y21616D01*
Y21570D01*
Y21339D01*
X144173Y21154D01*
Y21038D01*
Y20992D01*
X144197Y20830D01*
Y20714D01*
X144220Y20645D01*
Y20621D01*
X144266Y20529D01*
X144289Y20459D01*
X144335Y20436D01*
Y20413D01*
X144451Y20367D01*
X144497D01*
X144590Y20390D01*
X144706Y20436D01*
X144798Y20482D01*
X144845Y20506D01*
X145030Y20621D01*
X145215Y20737D01*
X145377Y20830D01*
X145400Y20853D01*
X145423D01*
X145701Y20992D01*
X145955Y21084D01*
X146071Y21130D01*
X146164Y21154D01*
X146210Y21177D01*
X146233D01*
X146603Y21269D01*
X146927Y21316D01*
X147066Y21339D01*
X147274D01*
X147575Y21316D01*
X147806Y21269D01*
X147899Y21246D01*
X147968Y21223D01*
X147992Y21200D01*
X148015D01*
X148223Y21107D01*
X148385Y20992D01*
X148501Y20899D01*
X148524Y20853D01*
X148663Y20691D01*
X148755Y20529D01*
X148825Y20390D01*
X148848Y20367D01*
Y20344D01*
X148917Y20112D01*
X148940Y19927D01*
X148963Y19765D01*
Y19742D01*
Y19719D01*
X148940Y19441D01*
X148917Y19210D01*
X148894Y19094D01*
Y19025D01*
X148871Y18978D01*
Y18955D01*
X148778Y18655D01*
X148686Y18377D01*
X148616Y18261D01*
X148593Y18168D01*
X148547Y18099D01*
Y18076D01*
X148339Y17729D01*
X148130Y17382D01*
X148038Y17243D01*
X147968Y17127D01*
X147922Y17058D01*
X147899Y17035D01*
X147737Y16803D01*
X147575Y16595D01*
X147390Y16387D01*
X147228Y16179D01*
X147066Y16017D01*
X146950Y15878D01*
X146858Y15785D01*
X146835Y15762D01*
X144590Y13355D01*
X144451Y13217D01*
X144335Y13078D01*
X144266Y12985D01*
X144243Y12962D01*
X144173Y12846D01*
X144104Y12731D01*
X144058Y12638D01*
X144035Y12615D01*
X143988Y12476D01*
X143965Y12337D01*
X143942Y12222D01*
Y12199D01*
Y12175D01*
X143919Y11990D01*
Y11805D01*
Y11666D01*
Y11643D01*
Y11620D01*
Y11389D01*
X143942Y11204D01*
Y11088D01*
Y11042D01*
X143988Y10903D01*
X144035Y10810D01*
X144058Y10741D01*
X144081Y10718D01*
X144173Y10648D01*
X144266Y10602D01*
X144335Y10556D01*
X144359D01*
X144474Y10532D01*
X152180D01*
X152296Y10556D01*
X152342Y10579D01*
X152411Y10625D01*
X152457Y10671D01*
X152481Y10718D01*
Y10741D01*
X152504Y10856D01*
X152527Y10972D01*
X152550Y11065D01*
Y11088D01*
X152573Y11250D01*
X152596Y11412D01*
Y11551D01*
Y11574D01*
Y11597D01*
Y11782D01*
X152573Y11944D01*
X152550Y12037D01*
Y12083D01*
X152527Y12222D01*
X152504Y12314D01*
X152481Y12384D01*
X152457Y12407D01*
X152365Y12546D01*
X152342Y12569D01*
X152319Y12592D01*
X152249Y12638D01*
X152203Y12661D01*
X147043D01*
X148547Y14212D01*
X148940Y14605D01*
X149311Y14998D01*
X149634Y15322D01*
X149889Y15623D01*
X150097Y15855D01*
X150259Y16040D01*
X150352Y16132D01*
X150375Y16179D01*
X150629Y16502D01*
X150838Y16780D01*
X151023Y17035D01*
X151162Y17266D01*
X151277Y17474D01*
X151370Y17613D01*
X151416Y17706D01*
X151439Y17729D01*
X151578Y17983D01*
X151694Y18238D01*
X151763Y18469D01*
X151833Y18655D01*
X151902Y18816D01*
X151925Y18932D01*
X151948Y19025D01*
Y19048D01*
X152041Y19511D01*
X152064Y19719D01*
Y19904D01*
X152087Y20066D01*
Y20182D01*
Y20274D01*
Y20297D01*
Y20552D01*
X152041Y20806D01*
X152018Y21038D01*
X151972Y21246D01*
X151925Y21408D01*
X151879Y21524D01*
X151856Y21616D01*
X151833Y21639D01*
X151717Y21871D01*
X151601Y22079D01*
X151486Y22241D01*
X151347Y22403D01*
X151254Y22542D01*
X151162Y22634D01*
X151092Y22681D01*
X151069Y22704D01*
X150884Y22866D01*
X150676Y23005D01*
X150259Y23236D01*
X150097Y23305D01*
X149958Y23375D01*
X149843Y23421D01*
X149819D01*
X149542Y23514D01*
X149241Y23583D01*
X148940Y23629D01*
X148663Y23676D01*
X148431D01*
X148223Y23699D01*
D02*
G37*
G36*
X176939Y23537D02*
X176360D01*
X176129Y23514D01*
X176060D01*
X175990Y23491D01*
X175944D01*
X175782Y23468D01*
X175643Y23444D01*
X175574Y23421D01*
X175551Y23398D01*
X175458Y23352D01*
X175389Y23305D01*
X175365Y23259D01*
X175342Y23236D01*
X175296Y23051D01*
X175273Y22982D01*
Y22958D01*
X173005Y13055D01*
X172982D01*
X170529Y22912D01*
X170506Y23051D01*
X170483Y23143D01*
X170460Y23213D01*
X170437Y23236D01*
X170367Y23305D01*
X170298Y23375D01*
X170229Y23398D01*
X170205Y23421D01*
X170067Y23468D01*
X169928Y23491D01*
X169812Y23514D01*
X169766D01*
X169534Y23537D01*
X168701D01*
X168470Y23514D01*
X168377D01*
X168308Y23491D01*
X168262D01*
X168100Y23468D01*
X167961Y23444D01*
X167868Y23421D01*
X167845Y23398D01*
X167753Y23352D01*
X167683Y23282D01*
X167660Y23236D01*
X167637Y23213D01*
X167591Y23120D01*
X167544Y23028D01*
X167521Y22935D01*
Y22912D01*
X165161Y13055D01*
X162893Y22982D01*
X162870Y23097D01*
X162847Y23190D01*
X162824Y23236D01*
X162801Y23259D01*
X162754Y23329D01*
X162685Y23375D01*
X162639Y23421D01*
X162616D01*
X162500Y23468D01*
X162361Y23491D01*
X162245Y23514D01*
X162199D01*
X161968Y23537D01*
X161112D01*
X160973Y23514D01*
X160765D01*
X160695Y23491D01*
X160649D01*
X160464Y23468D01*
X160348Y23421D01*
X160255Y23375D01*
X160232Y23352D01*
X160163Y23259D01*
X160140Y23167D01*
X160117Y23097D01*
Y23051D01*
X160140Y22866D01*
X160186Y22704D01*
X160209Y22565D01*
X160232Y22519D01*
Y22496D01*
X163171Y11180D01*
X163217Y11019D01*
X163287Y10903D01*
X163310Y10810D01*
X163333Y10787D01*
X163426Y10695D01*
X163518Y10625D01*
X163587Y10602D01*
X163611Y10579D01*
X163796Y10556D01*
X163958Y10532D01*
X164120Y10509D01*
X164166D01*
X164467Y10486D01*
X164768Y10463D01*
X165462D01*
X165624Y10486D01*
X165832D01*
X165901Y10509D01*
X165971D01*
X166202Y10532D01*
X166364Y10556D01*
X166480Y10602D01*
X166503D01*
X166619Y10671D01*
X166711Y10741D01*
X166758Y10787D01*
X166781Y10810D01*
X166850Y10926D01*
X166896Y11042D01*
X166920Y11134D01*
Y11180D01*
X168886Y19395D01*
X168909D01*
X170969Y11180D01*
X171015Y11019D01*
X171061Y10903D01*
X171108Y10810D01*
Y10787D01*
X171200Y10695D01*
X171293Y10625D01*
X171385Y10602D01*
X171409Y10579D01*
X171594Y10556D01*
X171756Y10532D01*
X171918Y10509D01*
X171964D01*
X172242Y10486D01*
X172542Y10463D01*
X173214D01*
X173352Y10486D01*
X173561D01*
X173653Y10509D01*
X173699D01*
X173931Y10532D01*
X174116Y10556D01*
X174209Y10579D01*
X174255D01*
X174394Y10648D01*
X174486Y10718D01*
X174532Y10764D01*
X174556Y10787D01*
X174625Y10926D01*
X174694Y11042D01*
X174718Y11134D01*
X174741Y11180D01*
X177703Y22449D01*
X177749Y22704D01*
X177795Y22889D01*
Y22982D01*
Y23028D01*
Y23167D01*
X177749Y23282D01*
X177726Y23329D01*
X177703Y23352D01*
X177610Y23421D01*
X177494Y23468D01*
X177402Y23491D01*
X177355D01*
X177147Y23514D01*
X176939Y23537D01*
D02*
G37*
G36*
X100417Y23699D02*
X99792D01*
X99468Y23653D01*
X99191Y23629D01*
X98936Y23583D01*
X98728Y23537D01*
X98566Y23514D01*
X98473Y23468D01*
X98427D01*
X98149Y23375D01*
X97872Y23259D01*
X97640Y23143D01*
X97432Y23028D01*
X97270Y22912D01*
X97154Y22820D01*
X97062Y22773D01*
X97039Y22750D01*
X96830Y22565D01*
X96645Y22380D01*
X96483Y22172D01*
X96368Y22010D01*
X96252Y21848D01*
X96182Y21709D01*
X96136Y21616D01*
X96113Y21593D01*
X95997Y21316D01*
X95928Y21038D01*
X95858Y20760D01*
X95835Y20506D01*
X95812Y20297D01*
X95789Y20112D01*
Y19997D01*
Y19950D01*
Y19649D01*
X95835Y19395D01*
X95858Y19164D01*
X95905Y18955D01*
X95951Y18793D01*
X95974Y18655D01*
X96020Y18585D01*
Y18562D01*
X96206Y18168D01*
X96321Y17983D01*
X96414Y17845D01*
X96483Y17706D01*
X96553Y17613D01*
X96599Y17567D01*
X96622Y17544D01*
X96923Y17266D01*
X97200Y17035D01*
X97316Y16942D01*
X97409Y16873D01*
X97478Y16850D01*
X97501Y16826D01*
X97872Y16618D01*
X98057Y16526D01*
X98195Y16433D01*
X98334Y16364D01*
X98427Y16317D01*
X98496Y16294D01*
X98519Y16271D01*
X98890Y16109D01*
X99052Y16040D01*
X99214Y15970D01*
X99329Y15901D01*
X99422Y15878D01*
X99491Y15832D01*
X99515D01*
X99862Y15669D01*
X100023Y15600D01*
X100139Y15531D01*
X100255Y15461D01*
X100324Y15415D01*
X100371Y15392D01*
X100394Y15369D01*
X100648Y15184D01*
X100857Y14998D01*
X100972Y14860D01*
X101018Y14836D01*
Y14813D01*
X101111Y14698D01*
X101157Y14559D01*
X101250Y14304D01*
Y14212D01*
X101273Y14119D01*
Y14073D01*
Y14050D01*
X101250Y13795D01*
X101204Y13564D01*
X101157Y13471D01*
X101134Y13402D01*
X101111Y13379D01*
Y13355D01*
X100995Y13147D01*
X100857Y12985D01*
X100764Y12893D01*
X100741Y12846D01*
X100718D01*
X100510Y12708D01*
X100301Y12615D01*
X100209Y12569D01*
X100139Y12546D01*
X100093Y12522D01*
X100070D01*
X99792Y12476D01*
X99515Y12453D01*
X99399Y12430D01*
X98936D01*
X98705Y12453D01*
X98473Y12476D01*
X98288Y12522D01*
X98126Y12546D01*
X98010Y12569D01*
X97941Y12592D01*
X97918D01*
X97548Y12708D01*
X97386Y12777D01*
X97247Y12823D01*
X97131Y12870D01*
X97039Y12916D01*
X96992Y12939D01*
X96969D01*
X96692Y13078D01*
X96506Y13194D01*
X96368Y13286D01*
X96344Y13309D01*
X96321D01*
X96159Y13425D01*
X96020Y13471D01*
X95951Y13494D01*
X95858D01*
X95812Y13471D01*
X95766Y13448D01*
X95743Y13425D01*
X95696Y13379D01*
X95650Y13309D01*
X95627Y13263D01*
Y13240D01*
X95604Y13124D01*
X95581Y13009D01*
X95558Y12939D01*
Y12893D01*
Y12731D01*
Y12569D01*
Y12430D01*
Y12407D01*
Y12384D01*
Y12083D01*
X95581Y11852D01*
X95604Y11713D01*
Y11689D01*
Y11666D01*
X95650Y11504D01*
X95696Y11389D01*
X95743Y11319D01*
X95766Y11296D01*
X95905Y11180D01*
X96044Y11088D01*
X96159Y10995D01*
X96182Y10972D01*
X96206D01*
X96460Y10856D01*
X96692Y10764D01*
X96784Y10718D01*
X96877Y10695D01*
X96923Y10671D01*
X96946D01*
X97293Y10579D01*
X97617Y10486D01*
X97756Y10463D01*
X97872Y10440D01*
X97941Y10417D01*
X97964D01*
X98404Y10347D01*
X98612Y10324D01*
X98797D01*
X98982Y10301D01*
X99214D01*
X99584Y10324D01*
X99908Y10347D01*
X100232Y10394D01*
X100510Y10440D01*
X100741Y10486D01*
X100903Y10509D01*
X101018Y10556D01*
X101065D01*
X101389Y10671D01*
X101666Y10787D01*
X101944Y10903D01*
X102152Y11042D01*
X102338Y11134D01*
X102476Y11227D01*
X102569Y11296D01*
X102592Y11319D01*
X102823Y11528D01*
X103032Y11736D01*
X103194Y11944D01*
X103356Y12152D01*
X103448Y12314D01*
X103541Y12476D01*
X103587Y12569D01*
X103610Y12592D01*
X103749Y12893D01*
X103841Y13217D01*
X103911Y13518D01*
X103957Y13795D01*
X103980Y14027D01*
X104003Y14235D01*
Y14351D01*
Y14397D01*
Y14675D01*
X103957Y14929D01*
X103934Y15160D01*
X103888Y15369D01*
X103841Y15531D01*
X103795Y15646D01*
X103772Y15716D01*
X103749Y15739D01*
X103564Y16132D01*
X103448Y16317D01*
X103356Y16456D01*
X103263Y16572D01*
X103194Y16665D01*
X103147Y16711D01*
X103124Y16734D01*
X102823Y17035D01*
X102523Y17266D01*
X102407Y17359D01*
X102314Y17428D01*
X102245Y17451D01*
X102222Y17474D01*
X101852Y17706D01*
X101528Y17868D01*
X101389Y17937D01*
X101296Y17983D01*
X101227Y18030D01*
X101204D01*
X100833Y18192D01*
X100648Y18261D01*
X100510Y18331D01*
X100371Y18400D01*
X100278Y18423D01*
X100209Y18469D01*
X100185D01*
X99838Y18631D01*
X99561Y18793D01*
X99468Y18840D01*
X99376Y18886D01*
X99329Y18932D01*
X99306D01*
X99052Y19117D01*
X98843Y19302D01*
X98728Y19441D01*
X98681Y19464D01*
Y19488D01*
X98543Y19742D01*
X98473Y19997D01*
Y20089D01*
X98450Y20182D01*
Y20228D01*
Y20251D01*
X98473Y20459D01*
X98496Y20621D01*
X98519Y20737D01*
X98543Y20783D01*
X98635Y20968D01*
X98751Y21107D01*
X98843Y21200D01*
X98867Y21223D01*
X99029Y21339D01*
X99214Y21454D01*
X99353Y21501D01*
X99376Y21524D01*
X99399D01*
X99653Y21593D01*
X99885Y21616D01*
X100000Y21639D01*
X100139D01*
X100533Y21616D01*
X100718Y21593D01*
X100857Y21570D01*
X100972Y21547D01*
X101088Y21524D01*
X101134Y21501D01*
X101157D01*
X101481Y21385D01*
X101736Y21292D01*
X101828Y21269D01*
X101898Y21223D01*
X101944Y21200D01*
X101967D01*
X102199Y21084D01*
X102384Y20992D01*
X102500Y20922D01*
X102546Y20899D01*
X102708Y20830D01*
X102823Y20783D01*
X102893Y20760D01*
X102985D01*
X103032Y20783D01*
X103078Y20806D01*
X103147Y20922D01*
X103170Y20968D01*
Y20992D01*
X103194Y21107D01*
X103217Y21200D01*
X103240Y21292D01*
Y21316D01*
X103263Y21477D01*
Y21639D01*
Y21778D01*
Y21801D01*
Y21825D01*
Y21986D01*
Y22125D01*
X103240Y22218D01*
Y22241D01*
Y22357D01*
X103217Y22473D01*
X103194Y22519D01*
Y22542D01*
X103147Y22681D01*
X103124Y22704D01*
Y22727D01*
X103101Y22796D01*
X103055Y22866D01*
X103032Y22889D01*
X103008Y22912D01*
X102916Y22982D01*
X102777Y23074D01*
X102638Y23120D01*
X102615Y23143D01*
X102592D01*
X102361Y23259D01*
X102129Y23352D01*
X102037Y23375D01*
X101967Y23398D01*
X101921Y23421D01*
X101898D01*
X101597Y23491D01*
X101319Y23560D01*
X101204Y23583D01*
X101111D01*
X101065Y23606D01*
X101042D01*
X100695Y23653D01*
X100417Y23699D01*
D02*
G37*
G36*
X158728Y16572D02*
X154494D01*
X154332Y16526D01*
X154216Y16456D01*
X154147Y16387D01*
X154123Y16341D01*
X154100Y16248D01*
X154077Y16109D01*
X154054Y15855D01*
X154031Y15716D01*
Y15623D01*
Y15554D01*
Y15531D01*
Y15345D01*
X154054Y15184D01*
Y15045D01*
X154077Y14929D01*
X154100Y14836D01*
Y14790D01*
X154123Y14767D01*
Y14744D01*
X154239Y14605D01*
X154355Y14536D01*
X154447Y14512D01*
X158659D01*
X158821Y14536D01*
X158913Y14628D01*
X158983Y14698D01*
X159006Y14721D01*
X159052Y14813D01*
X159075Y14952D01*
X159098Y15207D01*
X159122Y15345D01*
Y15438D01*
Y15508D01*
Y15531D01*
Y15739D01*
X159098Y15878D01*
X159075Y15993D01*
Y16017D01*
X159052Y16155D01*
X159029Y16248D01*
X159006Y16317D01*
X158983Y16341D01*
X158937Y16410D01*
X158890Y16456D01*
X158867Y16502D01*
X158844D01*
X158798Y16549D01*
X158728Y16572D01*
D02*
G37*
G36*
X130336Y23468D02*
X128416D01*
X128161Y23444D01*
X127953Y23421D01*
X127814Y23398D01*
X127791Y23375D01*
X127768D01*
X127583Y23305D01*
X127421Y23213D01*
X127328Y23143D01*
X127282Y23120D01*
X127143Y22958D01*
X127027Y22820D01*
X126935Y22681D01*
X126911Y22658D01*
Y22634D01*
X126796Y22403D01*
X126703Y22195D01*
X126680Y22079D01*
X126657Y22010D01*
X126634Y21963D01*
Y21940D01*
X123741Y14258D01*
X123695D01*
X120895Y21963D01*
X120803Y22241D01*
X120710Y22473D01*
X120641Y22611D01*
X120618Y22634D01*
Y22658D01*
X120479Y22866D01*
X120340Y23005D01*
X120247Y23097D01*
X120224Y23120D01*
X120201D01*
X120016Y23236D01*
X119831Y23329D01*
X119692Y23352D01*
X119669Y23375D01*
X119646D01*
X119391Y23421D01*
X119137Y23468D01*
X116962D01*
X116823Y23421D01*
X116591Y23329D01*
X116522Y23282D01*
X116453Y23236D01*
X116429Y23213D01*
X116406Y23190D01*
X116314Y23074D01*
X116267Y22958D01*
X116175Y22704D01*
Y22588D01*
X116152Y22496D01*
Y22426D01*
Y22403D01*
Y10880D01*
X116175Y10741D01*
X116198Y10695D01*
Y10671D01*
X116244Y10625D01*
X116314Y10579D01*
X116360Y10556D01*
X116383D01*
X116522Y10532D01*
X116638D01*
X116730Y10509D01*
X116777D01*
X116985Y10486D01*
X117170Y10463D01*
X117633D01*
X117818Y10486D01*
X117933Y10509D01*
X117980D01*
X118142Y10532D01*
X118280D01*
X118350Y10556D01*
X118373D01*
X118466Y10602D01*
X118535Y10625D01*
X118581Y10671D01*
X118628Y10741D01*
X118651Y10810D01*
Y10856D01*
Y10880D01*
Y21408D01*
X122284Y10880D01*
X122307Y10810D01*
X122353Y10741D01*
X122376Y10695D01*
X122399Y10671D01*
X122561Y10579D01*
X122608Y10556D01*
X122631D01*
X122770Y10532D01*
X122885D01*
X122978Y10509D01*
X123024D01*
X123232Y10486D01*
X123418Y10463D01*
X123857D01*
X124019Y10486D01*
X124181D01*
X124343Y10509D01*
X124482D01*
X124551Y10532D01*
X124574D01*
X124690Y10579D01*
X124760Y10602D01*
X124806Y10648D01*
X124829D01*
X124945Y10810D01*
X124968Y10856D01*
Y10880D01*
X128716Y21408D01*
X128740D01*
Y10880D01*
X128763Y10741D01*
X128786Y10695D01*
Y10671D01*
X128855Y10625D01*
X128925Y10579D01*
X128971Y10556D01*
X128994D01*
X129110Y10532D01*
X129226D01*
X129318Y10509D01*
X129364D01*
X129573Y10486D01*
X129758Y10463D01*
X130220D01*
X130406Y10486D01*
X130521Y10509D01*
X130568D01*
X130730Y10532D01*
X130868D01*
X130938Y10556D01*
X130961D01*
X131053Y10602D01*
X131123Y10625D01*
X131169Y10671D01*
X131215Y10741D01*
X131239Y10810D01*
Y10856D01*
Y10880D01*
Y22403D01*
Y22588D01*
X131215Y22727D01*
X131192Y22820D01*
X131169Y22843D01*
X131100Y22982D01*
X131030Y23074D01*
X130984Y23143D01*
X130961Y23167D01*
X130868Y23259D01*
X130753Y23329D01*
X130683Y23352D01*
X130637Y23375D01*
X130498Y23421D01*
X130336Y23468D01*
D02*
G37*
G36*
X137995Y23699D02*
X137671D01*
X137162Y23676D01*
X136931Y23653D01*
X136723Y23629D01*
X136561Y23606D01*
X136445Y23583D01*
X136352Y23560D01*
X136329D01*
X135913Y23468D01*
X135728Y23421D01*
X135566Y23375D01*
X135427Y23329D01*
X135334Y23282D01*
X135265Y23259D01*
X135242D01*
X134918Y23143D01*
X134686Y23028D01*
X134594Y22982D01*
X134524Y22935D01*
X134478Y22912D01*
X134455D01*
X134270Y22796D01*
X134154Y22704D01*
X134085Y22634D01*
X134062Y22611D01*
X133969Y22496D01*
X133923Y22449D01*
Y22426D01*
X133853Y22311D01*
X133830Y22264D01*
Y22241D01*
X133807Y22172D01*
Y22079D01*
Y22010D01*
Y21986D01*
Y21848D01*
Y21709D01*
Y21616D01*
Y21593D01*
Y21570D01*
Y21362D01*
Y21200D01*
Y21107D01*
Y21061D01*
X133830Y20945D01*
X133853Y20853D01*
X133876Y20806D01*
Y20783D01*
X133946Y20691D01*
X133969Y20645D01*
X134062Y20621D01*
X134108D01*
X134224Y20645D01*
X134339Y20691D01*
X134432Y20737D01*
X134478Y20760D01*
X134686Y20876D01*
X134895Y20992D01*
X134964Y21038D01*
X135034Y21084D01*
X135080Y21107D01*
X135103D01*
X135381Y21246D01*
X135658Y21362D01*
X135751Y21385D01*
X135843Y21431D01*
X135890Y21454D01*
X135913D01*
X136260Y21547D01*
X136584Y21593D01*
X136723Y21616D01*
X136908D01*
X137209Y21593D01*
X137463Y21547D01*
X137556Y21524D01*
X137625Y21501D01*
X137671Y21477D01*
X137695D01*
X137926Y21385D01*
X138111Y21269D01*
X138204Y21177D01*
X138250Y21130D01*
X138389Y20968D01*
X138481Y20806D01*
X138551Y20668D01*
X138574Y20645D01*
Y20621D01*
X138643Y20413D01*
X138666Y20205D01*
X138689Y20066D01*
Y20020D01*
Y19997D01*
X138666Y19696D01*
X138620Y19441D01*
X138574Y19349D01*
X138551Y19279D01*
X138527Y19233D01*
Y19210D01*
X138389Y18978D01*
X138227Y18770D01*
X138088Y18655D01*
X138065Y18631D01*
X138042Y18608D01*
X137810Y18446D01*
X137556Y18307D01*
X137463Y18284D01*
X137371Y18238D01*
X137324Y18215D01*
X137301D01*
X136954Y18145D01*
X136630Y18122D01*
X136491Y18099D01*
X135149D01*
X135010Y18076D01*
X134964Y18053D01*
X134941D01*
X134872Y18007D01*
X134848Y17960D01*
X134802Y17914D01*
Y17891D01*
X134779Y17798D01*
X134756Y17729D01*
X134733Y17636D01*
Y17613D01*
X134710Y17474D01*
Y17312D01*
Y17197D01*
Y17174D01*
Y17150D01*
Y16942D01*
X134733Y16780D01*
Y16688D01*
Y16641D01*
X134756Y16526D01*
X134779Y16433D01*
X134802Y16364D01*
Y16341D01*
X134918Y16248D01*
X134941Y16202D01*
X134964D01*
X135103Y16179D01*
X136561D01*
X136792Y16155D01*
X137000Y16132D01*
X137185Y16109D01*
X137324Y16063D01*
X137440Y16040D01*
X137509Y16017D01*
X137533D01*
X137903Y15901D01*
X138042Y15832D01*
X138180Y15762D01*
X138273Y15716D01*
X138342Y15669D01*
X138389Y15646D01*
X138412Y15623D01*
X138643Y15415D01*
X138805Y15207D01*
X138875Y15137D01*
X138921Y15068D01*
X138944Y15022D01*
Y14998D01*
X139060Y14721D01*
X139106Y14466D01*
X139129Y14374D01*
Y14281D01*
Y14235D01*
Y14212D01*
X139106Y13911D01*
X139060Y13679D01*
X139013Y13587D01*
X138990Y13518D01*
X138967Y13471D01*
Y13448D01*
X138851Y13217D01*
X138689Y13055D01*
X138574Y12939D01*
X138551Y12893D01*
X138527D01*
X138296Y12731D01*
X138065Y12615D01*
X137949Y12569D01*
X137880Y12546D01*
X137833Y12522D01*
X137810D01*
X137486Y12453D01*
X137162Y12430D01*
X137047Y12407D01*
X136838D01*
X136376Y12430D01*
X136190Y12453D01*
X136028Y12476D01*
X135866D01*
X135774Y12499D01*
X135704Y12522D01*
X135681D01*
X135334Y12638D01*
X135172Y12685D01*
X135034Y12731D01*
X134941Y12777D01*
X134848Y12800D01*
X134802Y12823D01*
X134779D01*
X134524Y12939D01*
X134339Y13032D01*
X134200Y13101D01*
X134177Y13124D01*
X134154D01*
X133992Y13217D01*
X133900Y13240D01*
X133830Y13263D01*
X133807D01*
X133715Y13240D01*
X133622Y13170D01*
X133599Y13101D01*
X133576Y13078D01*
X133553Y12985D01*
X133529Y12893D01*
X133506Y12685D01*
Y12569D01*
Y12476D01*
Y12430D01*
Y12407D01*
Y12199D01*
Y12037D01*
Y11944D01*
Y11898D01*
X133529Y11759D01*
Y11666D01*
X133553Y11597D01*
Y11574D01*
X133599Y11481D01*
X133622Y11389D01*
X133645Y11342D01*
Y11319D01*
X133738Y11204D01*
X133761Y11180D01*
X133784Y11157D01*
X133876Y11088D01*
X134015Y11019D01*
X134108Y10949D01*
X134154Y10926D01*
X134409Y10810D01*
X134640Y10718D01*
X134733Y10671D01*
X134825Y10648D01*
X134872Y10625D01*
X134895D01*
X135242Y10556D01*
X135566Y10486D01*
X135704Y10463D01*
X135820Y10440D01*
X135890Y10417D01*
X135913D01*
X136352Y10347D01*
X136561Y10324D01*
X136746D01*
X136931Y10301D01*
X137162D01*
X137556Y10324D01*
X137926Y10347D01*
X138273Y10394D01*
X138574Y10440D01*
X138805Y10486D01*
X138990Y10509D01*
X139106Y10556D01*
X139152D01*
X139476Y10671D01*
X139800Y10787D01*
X140055Y10903D01*
X140309Y11042D01*
X140494Y11134D01*
X140633Y11227D01*
X140726Y11296D01*
X140749Y11319D01*
X140980Y11528D01*
X141188Y11736D01*
X141374Y11967D01*
X141512Y12152D01*
X141628Y12337D01*
X141721Y12476D01*
X141767Y12569D01*
X141790Y12592D01*
X141906Y12870D01*
X141998Y13170D01*
X142068Y13471D01*
X142114Y13726D01*
X142137Y13957D01*
X142160Y14142D01*
Y14258D01*
Y14304D01*
X142137Y14721D01*
X142091Y14906D01*
X142068Y15068D01*
X142022Y15207D01*
X141975Y15299D01*
X141952Y15369D01*
Y15392D01*
X141767Y15739D01*
X141674Y15901D01*
X141582Y16040D01*
X141512Y16132D01*
X141443Y16225D01*
X141397Y16271D01*
X141374Y16294D01*
X141073Y16572D01*
X140772Y16780D01*
X140633Y16873D01*
X140541Y16919D01*
X140471Y16965D01*
X140448D01*
X140032Y17127D01*
X139823Y17197D01*
X139638Y17243D01*
X139476Y17266D01*
X139337Y17289D01*
X139245Y17312D01*
X139222D01*
Y17335D01*
X139615Y17451D01*
X139800Y17521D01*
X139939Y17590D01*
X140055Y17659D01*
X140147Y17706D01*
X140194Y17752D01*
X140217D01*
X140518Y17983D01*
X140749Y18192D01*
X140842Y18284D01*
X140911Y18354D01*
X140934Y18400D01*
X140957Y18423D01*
X141142Y18747D01*
X141281Y19048D01*
X141327Y19164D01*
X141374Y19256D01*
X141397Y19325D01*
Y19349D01*
X141489Y19742D01*
X141512Y19927D01*
X141536Y20089D01*
X141559Y20251D01*
Y20367D01*
Y20436D01*
Y20459D01*
Y20737D01*
X141512Y20992D01*
X141489Y21200D01*
X141443Y21408D01*
X141397Y21570D01*
X141350Y21686D01*
X141327Y21778D01*
X141304Y21801D01*
X141188Y22033D01*
X141073Y22218D01*
X140957Y22403D01*
X140818Y22565D01*
X140726Y22681D01*
X140633Y22773D01*
X140564Y22820D01*
X140541Y22843D01*
X140356Y22982D01*
X140147Y23120D01*
X139754Y23305D01*
X139569Y23375D01*
X139430Y23421D01*
X139337Y23468D01*
X139314D01*
X138759Y23606D01*
X138481Y23653D01*
X138227Y23676D01*
X137995Y23699D01*
D02*
G37*
G36*
X184112Y23468D02*
X180433D01*
X180202Y23444D01*
X180040Y23375D01*
X179924Y23282D01*
X179878Y23259D01*
X179808Y23190D01*
X179762Y23074D01*
X179692Y22889D01*
Y22773D01*
X179669Y22704D01*
Y22658D01*
Y22634D01*
Y11342D01*
Y11180D01*
X179692Y11065D01*
X179785Y10856D01*
X179855Y10764D01*
X179878Y10718D01*
X180063Y10602D01*
X180248Y10556D01*
X180387Y10532D01*
X184158D01*
X184436Y10556D01*
X184667D01*
X184876Y10579D01*
X185061Y10602D01*
X185177D01*
X185269Y10625D01*
X185292D01*
X185755Y10718D01*
X185963Y10764D01*
X186148Y10810D01*
X186287Y10833D01*
X186403Y10880D01*
X186472Y10903D01*
X186495D01*
X186889Y11065D01*
X187074Y11157D01*
X187213Y11227D01*
X187328Y11296D01*
X187444Y11366D01*
X187491Y11389D01*
X187514Y11412D01*
X187838Y11666D01*
X188092Y11898D01*
X188185Y12013D01*
X188254Y12083D01*
X188277Y12129D01*
X188300Y12152D01*
X188532Y12499D01*
X188694Y12823D01*
X188763Y12939D01*
X188809Y13055D01*
X188833Y13124D01*
Y13147D01*
X188948Y13587D01*
X188995Y13795D01*
X189018Y13980D01*
X189041Y14142D01*
Y14281D01*
Y14374D01*
Y14397D01*
X189018Y14860D01*
X188971Y15068D01*
X188948Y15253D01*
X188902Y15392D01*
X188856Y15508D01*
X188833Y15577D01*
Y15600D01*
X188647Y15970D01*
X188555Y16132D01*
X188486Y16271D01*
X188393Y16364D01*
X188347Y16456D01*
X188300Y16502D01*
X188277Y16526D01*
X187999Y16780D01*
X187745Y16988D01*
X187629Y17058D01*
X187537Y17104D01*
X187491Y17150D01*
X187467D01*
X187120Y17312D01*
X186796Y17428D01*
X186658Y17474D01*
X186565Y17498D01*
X186495Y17521D01*
X186472D01*
X186773Y17659D01*
X187005Y17798D01*
X187097Y17845D01*
X187167Y17891D01*
X187190Y17937D01*
X187213D01*
X187444Y18145D01*
X187629Y18331D01*
X187745Y18469D01*
X187791Y18492D01*
Y18516D01*
X187953Y18793D01*
X188046Y19025D01*
X188092Y19140D01*
X188115Y19210D01*
X188138Y19256D01*
Y19279D01*
X188231Y19603D01*
X188254Y19881D01*
X188277Y19997D01*
Y20089D01*
Y20159D01*
Y20182D01*
X188254Y20482D01*
X188231Y20760D01*
X188185Y20992D01*
X188138Y21223D01*
X188069Y21385D01*
X188023Y21501D01*
X187999Y21593D01*
X187976Y21616D01*
X187861Y21848D01*
X187722Y22033D01*
X187560Y22218D01*
X187421Y22357D01*
X187305Y22473D01*
X187190Y22565D01*
X187120Y22611D01*
X187097Y22634D01*
X186889Y22773D01*
X186658Y22912D01*
X186426Y23005D01*
X186195Y23097D01*
X186010Y23167D01*
X185848Y23213D01*
X185755Y23259D01*
X185709D01*
X185385Y23329D01*
X185038Y23375D01*
X184714Y23421D01*
X184390Y23444D01*
X184112Y23468D01*
D02*
G37*
G36*
X208385D02*
X202230D01*
X201999Y23444D01*
X201837Y23375D01*
X201744Y23305D01*
X201721Y23282D01*
X201652Y23120D01*
X201605Y22935D01*
X201582Y22773D01*
Y22727D01*
Y22704D01*
Y17104D01*
X201605Y16850D01*
X201652Y16688D01*
X201675Y16572D01*
X201698Y16549D01*
X201814Y16479D01*
X201953Y16433D01*
X202068Y16410D01*
X202115D01*
X202439Y16433D01*
X202716Y16456D01*
X202832D01*
X202924Y16479D01*
X202994D01*
X203364Y16526D01*
X203711Y16549D01*
X204313D01*
X204544Y16526D01*
X204753Y16502D01*
X204938Y16479D01*
X205076Y16456D01*
X205192Y16433D01*
X205261Y16410D01*
X205285D01*
X205632Y16294D01*
X205771Y16225D01*
X205886Y16155D01*
X205979Y16109D01*
X206071Y16063D01*
X206095Y16040D01*
X206118Y16017D01*
X206326Y15808D01*
X206465Y15600D01*
X206511Y15508D01*
X206557Y15438D01*
X206581Y15392D01*
Y15369D01*
X206673Y15091D01*
X206719Y14813D01*
X206742Y14698D01*
Y14605D01*
Y14559D01*
Y14536D01*
X206719Y14142D01*
X206696Y13980D01*
X206650Y13842D01*
X206627Y13726D01*
X206581Y13633D01*
X206557Y13587D01*
Y13564D01*
X206395Y13286D01*
X206233Y13078D01*
X206095Y12939D01*
X206071Y12916D01*
X206048Y12893D01*
X205794Y12731D01*
X205516Y12615D01*
X205400Y12569D01*
X205331Y12546D01*
X205261Y12522D01*
X205238D01*
X204891Y12453D01*
X204544Y12430D01*
X204405Y12407D01*
X203966D01*
X203734Y12430D01*
X203526D01*
X203364Y12453D01*
X203225Y12476D01*
X203133D01*
X203063Y12499D01*
X203040D01*
X202716Y12592D01*
X202462Y12661D01*
X202369Y12708D01*
X202300Y12731D01*
X202253Y12754D01*
X202230D01*
X202022Y12870D01*
X201837Y12962D01*
X201744Y13009D01*
X201698Y13032D01*
X201559Y13101D01*
X201467Y13124D01*
X201420Y13147D01*
X201328D01*
X201282Y13124D01*
X201258Y13101D01*
X201235Y13078D01*
X201212Y13032D01*
X201166Y12985D01*
X201143Y12939D01*
Y12916D01*
X201120Y12823D01*
X201096Y12708D01*
X201073Y12638D01*
Y12592D01*
Y12453D01*
Y12291D01*
Y12175D01*
Y12152D01*
Y12129D01*
Y11944D01*
Y11805D01*
Y11713D01*
Y11666D01*
Y11551D01*
X201096Y11458D01*
Y11389D01*
Y11366D01*
X201143Y11227D01*
X201166Y11180D01*
Y11157D01*
X201235Y11042D01*
X201282Y11019D01*
Y10995D01*
X201374Y10926D01*
X201513Y10856D01*
X201605Y10810D01*
X201652Y10787D01*
X201883Y10695D01*
X202115Y10625D01*
X202207Y10602D01*
X202277Y10579D01*
X202323Y10556D01*
X202346D01*
X202693Y10486D01*
X202994Y10440D01*
X203133Y10417D01*
X203225D01*
X203295Y10394D01*
X203318D01*
X203734Y10347D01*
X203920Y10324D01*
X204105D01*
X204266Y10301D01*
X204475D01*
X204891Y10324D01*
X205285Y10347D01*
X205632Y10394D01*
X205933Y10440D01*
X206187Y10486D01*
X206372Y10532D01*
X206488Y10579D01*
X206534D01*
X206881Y10695D01*
X207182Y10833D01*
X207460Y10972D01*
X207691Y11111D01*
X207876Y11250D01*
X208015Y11342D01*
X208108Y11412D01*
X208131Y11435D01*
X208362Y11666D01*
X208570Y11898D01*
X208756Y12129D01*
X208894Y12361D01*
X209010Y12546D01*
X209103Y12708D01*
X209149Y12800D01*
X209172Y12846D01*
X209288Y13170D01*
X209380Y13494D01*
X209450Y13795D01*
X209496Y14096D01*
X209519Y14351D01*
X209542Y14536D01*
Y14675D01*
Y14721D01*
X209519Y15068D01*
X209496Y15369D01*
X209450Y15646D01*
X209403Y15878D01*
X209334Y16063D01*
X209288Y16225D01*
X209265Y16317D01*
X209242Y16341D01*
X209126Y16595D01*
X208987Y16826D01*
X208848Y17035D01*
X208709Y17197D01*
X208570Y17335D01*
X208478Y17428D01*
X208409Y17498D01*
X208385Y17521D01*
X208177Y17683D01*
X207946Y17845D01*
X207714Y17960D01*
X207506Y18076D01*
X207321Y18145D01*
X207159Y18215D01*
X207066Y18261D01*
X207020D01*
X206719Y18354D01*
X206395Y18400D01*
X206071Y18446D01*
X205794Y18492D01*
X205539D01*
X205354Y18516D01*
X204660D01*
X204567Y18492D01*
X204197D01*
X203966Y18469D01*
X203896D01*
X203827Y18446D01*
X203757D01*
Y21223D01*
X208339D01*
X208409Y21246D01*
X208455Y21269D01*
X208570Y21362D01*
X208617Y21431D01*
X208640Y21477D01*
X208686Y21593D01*
X208709Y21732D01*
X208732Y22033D01*
X208756Y22148D01*
Y22264D01*
Y22334D01*
Y22357D01*
Y22565D01*
X208732Y22727D01*
X208709Y22820D01*
Y22866D01*
X208686Y23005D01*
X208663Y23097D01*
X208640Y23167D01*
Y23190D01*
X208594Y23282D01*
X208547Y23352D01*
X208524Y23375D01*
X208501Y23398D01*
X208455Y23444D01*
X208385Y23468D01*
D02*
G37*
G36*
X197996D02*
X191841D01*
X191609Y23444D01*
X191447Y23375D01*
X191355Y23305D01*
X191332Y23282D01*
X191262Y23120D01*
X191216Y22935D01*
X191193Y22773D01*
Y22727D01*
Y22704D01*
Y17104D01*
X191216Y16850D01*
X191262Y16688D01*
X191285Y16572D01*
X191308Y16549D01*
X191424Y16479D01*
X191563Y16433D01*
X191679Y16410D01*
X191725D01*
X192049Y16433D01*
X192327Y16456D01*
X192442D01*
X192535Y16479D01*
X192604D01*
X192974Y16526D01*
X193322Y16549D01*
X193923D01*
X194155Y16526D01*
X194363Y16502D01*
X194548Y16479D01*
X194687Y16456D01*
X194802Y16433D01*
X194872Y16410D01*
X194895D01*
X195242Y16294D01*
X195381Y16225D01*
X195497Y16155D01*
X195589Y16109D01*
X195682Y16063D01*
X195705Y16040D01*
X195728Y16017D01*
X195936Y15808D01*
X196075Y15600D01*
X196122Y15508D01*
X196168Y15438D01*
X196191Y15392D01*
Y15369D01*
X196283Y15091D01*
X196330Y14813D01*
X196353Y14698D01*
Y14605D01*
Y14559D01*
Y14536D01*
X196330Y14142D01*
X196307Y13980D01*
X196260Y13842D01*
X196237Y13726D01*
X196191Y13633D01*
X196168Y13587D01*
Y13564D01*
X196006Y13286D01*
X195844Y13078D01*
X195705Y12939D01*
X195682Y12916D01*
X195659Y12893D01*
X195404Y12731D01*
X195126Y12615D01*
X195011Y12569D01*
X194941Y12546D01*
X194872Y12522D01*
X194849D01*
X194502Y12453D01*
X194155Y12430D01*
X194016Y12407D01*
X193576D01*
X193345Y12430D01*
X193137D01*
X192974Y12453D01*
X192836Y12476D01*
X192743D01*
X192674Y12499D01*
X192651D01*
X192327Y12592D01*
X192072Y12661D01*
X191980Y12708D01*
X191910Y12731D01*
X191864Y12754D01*
X191841D01*
X191632Y12870D01*
X191447Y12962D01*
X191355Y13009D01*
X191308Y13032D01*
X191170Y13101D01*
X191077Y13124D01*
X191031Y13147D01*
X190938D01*
X190892Y13124D01*
X190869Y13101D01*
X190846Y13078D01*
X190823Y13032D01*
X190776Y12985D01*
X190753Y12939D01*
Y12916D01*
X190730Y12823D01*
X190707Y12708D01*
X190684Y12638D01*
Y12592D01*
Y12453D01*
Y12291D01*
Y12175D01*
Y12152D01*
Y12129D01*
Y11944D01*
Y11805D01*
Y11713D01*
Y11666D01*
Y11551D01*
X190707Y11458D01*
Y11389D01*
Y11366D01*
X190753Y11227D01*
X190776Y11180D01*
Y11157D01*
X190846Y11042D01*
X190892Y11019D01*
Y10995D01*
X190984Y10926D01*
X191123Y10856D01*
X191216Y10810D01*
X191262Y10787D01*
X191494Y10695D01*
X191725Y10625D01*
X191817Y10602D01*
X191887Y10579D01*
X191933Y10556D01*
X191956D01*
X192304Y10486D01*
X192604Y10440D01*
X192743Y10417D01*
X192836D01*
X192905Y10394D01*
X192928D01*
X193345Y10347D01*
X193530Y10324D01*
X193715D01*
X193877Y10301D01*
X194085D01*
X194502Y10324D01*
X194895Y10347D01*
X195242Y10394D01*
X195543Y10440D01*
X195798Y10486D01*
X195983Y10532D01*
X196098Y10579D01*
X196145D01*
X196492Y10695D01*
X196793Y10833D01*
X197070Y10972D01*
X197302Y11111D01*
X197487Y11250D01*
X197626Y11342D01*
X197718Y11412D01*
X197741Y11435D01*
X197973Y11666D01*
X198181Y11898D01*
X198366Y12129D01*
X198505Y12361D01*
X198620Y12546D01*
X198713Y12708D01*
X198759Y12800D01*
X198783Y12846D01*
X198898Y13170D01*
X198991Y13494D01*
X199060Y13795D01*
X199107Y14096D01*
X199130Y14351D01*
X199153Y14536D01*
Y14675D01*
Y14721D01*
X199130Y15068D01*
X199107Y15369D01*
X199060Y15646D01*
X199014Y15878D01*
X198944Y16063D01*
X198898Y16225D01*
X198875Y16317D01*
X198852Y16341D01*
X198736Y16595D01*
X198597Y16826D01*
X198459Y17035D01*
X198320Y17197D01*
X198181Y17335D01*
X198088Y17428D01*
X198019Y17498D01*
X197996Y17521D01*
X197787Y17683D01*
X197556Y17845D01*
X197325Y17960D01*
X197117Y18076D01*
X196931Y18145D01*
X196769Y18215D01*
X196677Y18261D01*
X196630D01*
X196330Y18354D01*
X196006Y18400D01*
X195682Y18446D01*
X195404Y18492D01*
X195150D01*
X194965Y18516D01*
X194270D01*
X194178Y18492D01*
X193808D01*
X193576Y18469D01*
X193507D01*
X193437Y18446D01*
X193368D01*
Y21223D01*
X197950D01*
X198019Y21246D01*
X198065Y21269D01*
X198181Y21362D01*
X198227Y21431D01*
X198250Y21477D01*
X198297Y21593D01*
X198320Y21732D01*
X198343Y22033D01*
X198366Y22148D01*
Y22264D01*
Y22334D01*
Y22357D01*
Y22565D01*
X198343Y22727D01*
X198320Y22820D01*
Y22866D01*
X198297Y23005D01*
X198273Y23097D01*
X198250Y23167D01*
Y23190D01*
X198204Y23282D01*
X198158Y23352D01*
X198135Y23375D01*
X198111Y23398D01*
X198065Y23444D01*
X197996Y23468D01*
D02*
G37*
%LPD*%
G36*
X183973Y21477D02*
X184135Y21454D01*
X184274D01*
X184390Y21431D01*
X184459Y21408D01*
X184506Y21385D01*
X184529D01*
X184783Y21292D01*
X184968Y21177D01*
X185084Y21107D01*
X185130Y21061D01*
X185292Y20899D01*
X185408Y20737D01*
X185477Y20598D01*
X185501Y20575D01*
Y20552D01*
X185593Y20320D01*
X185616Y20089D01*
X185639Y19997D01*
Y19927D01*
Y19881D01*
Y19858D01*
X185616Y19603D01*
X185593Y19395D01*
X185570Y19302D01*
X185547Y19233D01*
X185524Y19210D01*
Y19187D01*
X185431Y18955D01*
X185315Y18793D01*
X185223Y18678D01*
X185177Y18631D01*
X184991Y18469D01*
X184806Y18354D01*
X184667Y18284D01*
X184621Y18261D01*
X184598D01*
X184459Y18215D01*
X184320Y18192D01*
X184020Y18168D01*
X183904Y18145D01*
X182238D01*
Y21501D01*
X183788D01*
X183973Y21477D01*
D02*
G37*
G36*
X184274Y16202D02*
X184459Y16179D01*
X184644Y16155D01*
X184760Y16132D01*
X184876Y16109D01*
X184922Y16086D01*
X184945D01*
X185269Y15970D01*
X185501Y15855D01*
X185593Y15808D01*
X185662Y15762D01*
X185686Y15716D01*
X185709D01*
X185894Y15531D01*
X186033Y15322D01*
X186125Y15184D01*
X186148Y15137D01*
Y15114D01*
X186241Y14836D01*
X186287Y14582D01*
X186310Y14466D01*
Y14374D01*
Y14327D01*
Y14304D01*
X186287Y14003D01*
X186241Y13772D01*
X186195Y13679D01*
X186171Y13610D01*
X186148Y13564D01*
Y13541D01*
X186010Y13309D01*
X185871Y13147D01*
X185755Y13032D01*
X185732Y12985D01*
X185709D01*
X185501Y12823D01*
X185292Y12731D01*
X185200Y12685D01*
X185130Y12661D01*
X185084Y12638D01*
X185061D01*
X184760Y12592D01*
X184459Y12569D01*
X184320Y12546D01*
X182238D01*
Y16225D01*
X184043D01*
X184274Y16202D01*
D02*
G37*
%LPC*%
G36*
X169038Y51768D02*
X161171D01*
X161101Y51744D01*
X161078Y51721D01*
X161055Y51698D01*
X161009Y51629D01*
X160962Y51559D01*
X160939Y51513D01*
X160916Y51490D01*
X160893Y51374D01*
X160870Y51258D01*
X160847Y51166D01*
Y51120D01*
X160823Y50958D01*
Y50796D01*
Y50657D01*
Y50634D01*
Y50610D01*
Y50402D01*
X160847Y50217D01*
Y50078D01*
X160870Y49939D01*
X160893Y49847D01*
Y49777D01*
X160916Y49754D01*
Y49731D01*
X160962Y49639D01*
X161009Y49592D01*
X161124Y49500D01*
X161217Y49477D01*
X166701D01*
X162096Y39365D01*
X162050Y39249D01*
X162027Y39156D01*
X162004Y39110D01*
Y39087D01*
X162050Y39018D01*
X162096Y38948D01*
X162143Y38925D01*
X162166Y38902D01*
X162304Y38856D01*
X162443Y38833D01*
X162559Y38809D01*
X162605D01*
X162883Y38786D01*
X163161Y38763D01*
X163739D01*
X163924Y38786D01*
X164109D01*
X164294Y38809D01*
X164433D01*
X164526Y38833D01*
X164549D01*
X164665Y38879D01*
X164757Y38902D01*
X164804Y38948D01*
X164827D01*
X164942Y39087D01*
X164989Y39133D01*
Y39156D01*
X169246Y49014D01*
X169316Y49153D01*
X169362Y49268D01*
X169385Y49361D01*
Y49384D01*
X169431Y49500D01*
X169454Y49616D01*
X169478Y49708D01*
Y49731D01*
X169501Y49870D01*
X169524Y50009D01*
X169547Y50101D01*
Y50125D01*
X169570Y50310D01*
Y50472D01*
Y50587D01*
Y50610D01*
Y50634D01*
Y50888D01*
X169547Y51073D01*
X169524Y51166D01*
Y51212D01*
X169478Y51374D01*
X169454Y51467D01*
X169431Y51536D01*
X169408Y51559D01*
X169362Y51629D01*
X169293Y51675D01*
X169246Y51721D01*
X169223D01*
X169131Y51744D01*
X169038Y51768D01*
D02*
G37*
G36*
X187526Y51837D02*
X186277D01*
X186184Y51814D01*
X186045D01*
X185837Y51791D01*
X185698Y51768D01*
X185583Y51744D01*
X185560Y51721D01*
X185444Y51675D01*
X185374Y51629D01*
X185328Y51582D01*
X185305Y51559D01*
X185259Y51490D01*
X185212Y51397D01*
X185189Y51328D01*
Y51305D01*
X181186Y39804D01*
X181117Y39573D01*
X181070Y39388D01*
X181024Y39295D01*
Y39249D01*
Y39110D01*
X181047Y39018D01*
X181070Y38948D01*
X181094Y38925D01*
X181209Y38879D01*
X181325Y38833D01*
X181418Y38809D01*
X181464D01*
X181695Y38786D01*
X181927Y38763D01*
X182482D01*
X182690Y38786D01*
X182875D01*
X183060Y38809D01*
X183199Y38833D01*
X183269Y38856D01*
X183292D01*
X183384Y38902D01*
X183454Y38948D01*
X183477Y38971D01*
X183500Y38995D01*
X183593Y39156D01*
X183616Y39203D01*
Y39226D01*
X184426Y41794D01*
X189308D01*
X190164Y39156D01*
X190234Y39018D01*
X190257Y38971D01*
Y38948D01*
X190326Y38902D01*
X190396Y38856D01*
X190442Y38833D01*
X190465D01*
X190604Y38809D01*
X190743D01*
X190858Y38786D01*
X190905D01*
X191159Y38763D01*
X192039D01*
X192270Y38786D01*
X192362D01*
X192432Y38809D01*
X192478D01*
X192663Y38833D01*
X192779Y38879D01*
X192848Y38902D01*
X192872Y38925D01*
X192941Y39018D01*
Y39110D01*
Y39203D01*
Y39226D01*
X192918Y39411D01*
X192872Y39596D01*
X192825Y39735D01*
X192802Y39781D01*
Y39804D01*
X188799Y51282D01*
X188753Y51397D01*
X188683Y51490D01*
X188660Y51536D01*
X188637Y51559D01*
X188568Y51629D01*
X188475Y51675D01*
X188383Y51721D01*
X188359D01*
X188197Y51768D01*
X188036Y51791D01*
X187897Y51814D01*
X187688D01*
X187526Y51837D01*
D02*
G37*
G36*
X156473D02*
X155617D01*
X155525Y51814D01*
X155386D01*
X155154Y51791D01*
X154992Y51768D01*
X154877Y51744D01*
X154830D01*
X154692Y51698D01*
X154599Y51675D01*
X154530Y51652D01*
X154507Y51629D01*
X154437Y51582D01*
X154391Y51513D01*
X154345Y51490D01*
Y51467D01*
X150318Y44386D01*
X150249Y44247D01*
X150179Y44131D01*
X150156Y44039D01*
X150133Y44016D01*
X150110Y43900D01*
X150064Y43784D01*
X150041Y43692D01*
Y43669D01*
X150017Y43530D01*
Y43391D01*
X149994Y43275D01*
Y43252D01*
Y43229D01*
Y43044D01*
Y42882D01*
Y42743D01*
Y42720D01*
Y42697D01*
Y42419D01*
X150017Y42234D01*
Y42095D01*
Y42072D01*
Y42049D01*
X150064Y41887D01*
X150087Y41794D01*
X150133Y41725D01*
Y41702D01*
X150203Y41632D01*
X150249Y41586D01*
X150295Y41540D01*
X150318D01*
X150480Y41517D01*
X155525D01*
Y39156D01*
X155548Y39041D01*
X155571Y38995D01*
Y38971D01*
X155617Y38925D01*
X155687Y38879D01*
X155733Y38856D01*
X155756D01*
X155895Y38833D01*
X156011D01*
X156103Y38809D01*
X156149D01*
X156358Y38786D01*
X156543Y38763D01*
X157006D01*
X157214Y38786D01*
X157330Y38809D01*
X157376D01*
X157538Y38833D01*
X157653D01*
X157723Y38856D01*
X157746D01*
X157862Y38902D01*
X157931Y38925D01*
X157954Y38971D01*
X157977D01*
X158024Y39041D01*
X158047Y39110D01*
Y39133D01*
Y39156D01*
Y41517D01*
X159204D01*
X159273Y41540D01*
X159319Y41563D01*
X159412Y41656D01*
X159458Y41725D01*
X159481Y41771D01*
X159528Y41887D01*
X159551Y42003D01*
X159574Y42257D01*
X159597Y42373D01*
Y42465D01*
Y42535D01*
Y42558D01*
Y42743D01*
X159574Y42928D01*
X159551Y43067D01*
Y43183D01*
X159528Y43252D01*
X159505Y43322D01*
X159481Y43368D01*
X159435Y43460D01*
X159389Y43507D01*
X159296Y43599D01*
X159227Y43622D01*
X158047D01*
Y51397D01*
X158024Y51467D01*
X158000Y51536D01*
X157954Y51559D01*
X157931Y51582D01*
X157838Y51652D01*
X157746Y51698D01*
X157653Y51721D01*
X157607D01*
X157422Y51744D01*
X157237Y51768D01*
X157098Y51791D01*
X157029D01*
X156751Y51814D01*
X156473Y51837D01*
D02*
G37*
G36*
X125443Y51768D02*
X123523D01*
X123268Y51744D01*
X123060Y51721D01*
X122921Y51698D01*
X122898Y51675D01*
X122875D01*
X122690Y51606D01*
X122528Y51513D01*
X122435Y51444D01*
X122389Y51420D01*
X122250Y51258D01*
X122135Y51120D01*
X122042Y50981D01*
X122019Y50958D01*
Y50935D01*
X121903Y50703D01*
X121811Y50495D01*
X121787Y50379D01*
X121764Y50310D01*
X121741Y50263D01*
Y50240D01*
X118849Y42558D01*
X118802D01*
X116003Y50263D01*
X115910Y50541D01*
X115817Y50773D01*
X115748Y50911D01*
X115725Y50935D01*
Y50958D01*
X115586Y51166D01*
X115447Y51305D01*
X115355Y51397D01*
X115331Y51420D01*
X115308D01*
X115123Y51536D01*
X114938Y51629D01*
X114799Y51652D01*
X114776Y51675D01*
X114753D01*
X114499Y51721D01*
X114244Y51768D01*
X112069D01*
X111930Y51721D01*
X111699Y51629D01*
X111629Y51582D01*
X111560Y51536D01*
X111537Y51513D01*
X111514Y51490D01*
X111421Y51374D01*
X111375Y51258D01*
X111282Y51004D01*
Y50888D01*
X111259Y50796D01*
Y50726D01*
Y50703D01*
Y39180D01*
X111282Y39041D01*
X111305Y38995D01*
Y38971D01*
X111351Y38925D01*
X111421Y38879D01*
X111467Y38856D01*
X111490D01*
X111629Y38833D01*
X111745D01*
X111837Y38809D01*
X111884D01*
X112092Y38786D01*
X112277Y38763D01*
X112740D01*
X112925Y38786D01*
X113041Y38809D01*
X113087D01*
X113249Y38833D01*
X113388D01*
X113457Y38856D01*
X113480D01*
X113573Y38902D01*
X113642Y38925D01*
X113689Y38971D01*
X113735Y39041D01*
X113758Y39110D01*
Y39156D01*
Y39180D01*
Y49708D01*
X117391Y39180D01*
X117414Y39110D01*
X117460Y39041D01*
X117483Y38995D01*
X117507Y38971D01*
X117669Y38879D01*
X117715Y38856D01*
X117738D01*
X117877Y38833D01*
X117992D01*
X118085Y38809D01*
X118131D01*
X118340Y38786D01*
X118525Y38763D01*
X118964D01*
X119126Y38786D01*
X119288D01*
X119450Y38809D01*
X119589D01*
X119658Y38833D01*
X119682D01*
X119797Y38879D01*
X119867Y38902D01*
X119913Y38948D01*
X119936D01*
X120052Y39110D01*
X120075Y39156D01*
Y39180D01*
X123824Y49708D01*
X123847D01*
Y39180D01*
X123870Y39041D01*
X123893Y38995D01*
Y38971D01*
X123962Y38925D01*
X124032Y38879D01*
X124078Y38856D01*
X124101D01*
X124217Y38833D01*
X124333D01*
X124425Y38809D01*
X124472D01*
X124680Y38786D01*
X124865Y38763D01*
X125328D01*
X125513Y38786D01*
X125628Y38809D01*
X125675D01*
X125837Y38833D01*
X125976D01*
X126045Y38856D01*
X126068D01*
X126161Y38902D01*
X126230Y38925D01*
X126276Y38971D01*
X126323Y39041D01*
X126346Y39110D01*
Y39156D01*
Y39180D01*
Y50703D01*
Y50888D01*
X126323Y51027D01*
X126299Y51120D01*
X126276Y51143D01*
X126207Y51282D01*
X126138Y51374D01*
X126091Y51444D01*
X126068Y51467D01*
X125976Y51559D01*
X125860Y51629D01*
X125791Y51652D01*
X125744Y51675D01*
X125605Y51721D01*
X125443Y51768D01*
D02*
G37*
G36*
X175934Y51999D02*
X175610D01*
X175193Y51976D01*
X174823Y51953D01*
X174476Y51883D01*
X174198Y51837D01*
X173944Y51768D01*
X173782Y51698D01*
X173666Y51675D01*
X173620Y51652D01*
X173319Y51513D01*
X173041Y51374D01*
X172810Y51212D01*
X172602Y51073D01*
X172439Y50935D01*
X172324Y50819D01*
X172231Y50749D01*
X172208Y50726D01*
X172023Y50495D01*
X171838Y50263D01*
X171699Y50009D01*
X171583Y49801D01*
X171468Y49592D01*
X171398Y49454D01*
X171375Y49361D01*
X171352Y49315D01*
X171259Y49014D01*
X171190Y48690D01*
X171144Y48389D01*
X171121Y48112D01*
X171097Y47880D01*
X171074Y47695D01*
Y47579D01*
Y47533D01*
Y47186D01*
X171097Y46885D01*
X171144Y46607D01*
X171167Y46353D01*
X171213Y46145D01*
X171236Y46006D01*
X171259Y45890D01*
Y45867D01*
X171352Y45612D01*
X171444Y45381D01*
X171560Y45173D01*
X171653Y44988D01*
X171768Y44849D01*
X171838Y44733D01*
X171884Y44664D01*
X171907Y44641D01*
X172092Y44455D01*
X172278Y44293D01*
X172486Y44178D01*
X172671Y44062D01*
X172833Y43969D01*
X172972Y43900D01*
X173064Y43877D01*
X173087Y43854D01*
X173365Y43761D01*
X173666Y43715D01*
X173967Y43669D01*
X174244Y43622D01*
X174476D01*
X174684Y43599D01*
X175147D01*
X175424Y43622D01*
X175679Y43669D01*
X175910Y43715D01*
X176072Y43738D01*
X176211Y43784D01*
X176304Y43808D01*
X176327D01*
X176558Y43900D01*
X176767Y43969D01*
X176975Y44062D01*
X177137Y44131D01*
X177253Y44201D01*
X177345Y44270D01*
X177414Y44293D01*
X177438Y44317D01*
X177391Y43784D01*
X177368Y43553D01*
X177345Y43345D01*
X177299Y43160D01*
X177276Y43021D01*
X177253Y42928D01*
Y42905D01*
X177183Y42674D01*
X177090Y42442D01*
X177021Y42234D01*
X176929Y42072D01*
X176836Y41933D01*
X176790Y41817D01*
X176743Y41748D01*
X176720Y41725D01*
X176420Y41378D01*
X176257Y41239D01*
X176119Y41123D01*
X175980Y41031D01*
X175864Y40961D01*
X175795Y40938D01*
X175772Y40915D01*
X175540Y40823D01*
X175309Y40753D01*
X175077Y40707D01*
X174846Y40684D01*
X174661Y40661D01*
X174499Y40637D01*
X174360D01*
X174013Y40661D01*
X173735Y40684D01*
X173643D01*
X173550Y40707D01*
X173481D01*
X173203Y40753D01*
X172972Y40799D01*
X172879Y40823D01*
X172810Y40846D01*
X172764D01*
X172532Y40915D01*
X172370Y40961D01*
X172254Y41008D01*
X172208D01*
X172069Y41054D01*
X171977Y41077D01*
X171884D01*
X171768Y41054D01*
X171745Y41031D01*
X171722D01*
X171699Y41008D01*
X171653Y40961D01*
X171630Y40915D01*
Y40892D01*
X171607Y40799D01*
X171583Y40707D01*
X171560Y40637D01*
Y40591D01*
Y40429D01*
Y40267D01*
Y40128D01*
Y40082D01*
Y40059D01*
Y39828D01*
X171583Y39642D01*
X171607Y39550D01*
Y39504D01*
X171653Y39365D01*
X171699Y39272D01*
X171722Y39203D01*
X171745Y39180D01*
X171838Y39110D01*
X171954Y39064D01*
X172046Y39018D01*
X172092Y38995D01*
X172301Y38925D01*
X172486Y38879D01*
X172648Y38856D01*
X172671Y38833D01*
X172694D01*
X172972Y38763D01*
X173226Y38717D01*
X173319Y38694D01*
X173411D01*
X173458Y38671D01*
X173481D01*
X173782Y38624D01*
X174059Y38601D01*
X174337D01*
X174777Y38624D01*
X175193Y38647D01*
X175540Y38694D01*
X175841Y38763D01*
X176096Y38809D01*
X176281Y38856D01*
X176396Y38879D01*
X176443Y38902D01*
X176767Y39041D01*
X177067Y39180D01*
X177322Y39318D01*
X177553Y39457D01*
X177715Y39573D01*
X177854Y39666D01*
X177947Y39735D01*
X177970Y39758D01*
X178201Y39966D01*
X178386Y40198D01*
X178571Y40406D01*
X178710Y40614D01*
X178826Y40776D01*
X178918Y40915D01*
X178965Y41008D01*
X178988Y41031D01*
X179242Y41586D01*
X179358Y41841D01*
X179451Y42095D01*
X179520Y42280D01*
X179566Y42442D01*
X179613Y42535D01*
Y42581D01*
X179752Y43183D01*
X179821Y43460D01*
X179844Y43715D01*
X179890Y43923D01*
Y44085D01*
X179914Y44178D01*
Y44224D01*
X179960Y44849D01*
X179983Y45127D01*
X180006Y45381D01*
Y45589D01*
Y45751D01*
Y45844D01*
Y45890D01*
Y46214D01*
X179983Y46515D01*
Y46792D01*
X179960Y47024D01*
X179937Y47232D01*
Y47394D01*
X179914Y47487D01*
Y47533D01*
X179890Y47834D01*
X179844Y48088D01*
X179798Y48343D01*
X179752Y48551D01*
X179728Y48736D01*
X179682Y48875D01*
X179659Y48968D01*
Y48991D01*
X179497Y49477D01*
X179428Y49685D01*
X179335Y49870D01*
X179266Y50032D01*
X179196Y50148D01*
X179173Y50217D01*
X179150Y50240D01*
X178895Y50610D01*
X178757Y50773D01*
X178618Y50911D01*
X178502Y51027D01*
X178433Y51096D01*
X178363Y51143D01*
X178340Y51166D01*
X177947Y51420D01*
X177577Y51606D01*
X177414Y51675D01*
X177299Y51721D01*
X177206Y51768D01*
X177183D01*
X176651Y51906D01*
X176396Y51953D01*
X176142Y51976D01*
X175934Y51999D01*
D02*
G37*
G36*
X133612Y51768D02*
X129932D01*
X129701Y51744D01*
X129539Y51675D01*
X129423Y51582D01*
X129377Y51559D01*
X129308Y51490D01*
X129261Y51374D01*
X129192Y51189D01*
Y51073D01*
X129169Y51004D01*
Y50958D01*
Y50935D01*
Y39642D01*
Y39481D01*
X129192Y39365D01*
X129284Y39156D01*
X129354Y39064D01*
X129377Y39018D01*
X129562Y38902D01*
X129747Y38856D01*
X129886Y38833D01*
X133658D01*
X133935Y38856D01*
X134167D01*
X134375Y38879D01*
X134560Y38902D01*
X134676D01*
X134769Y38925D01*
X134792D01*
X135254Y39018D01*
X135463Y39064D01*
X135648Y39110D01*
X135787Y39133D01*
X135902Y39180D01*
X135972Y39203D01*
X135995D01*
X136388Y39365D01*
X136573Y39457D01*
X136712Y39527D01*
X136828Y39596D01*
X136944Y39666D01*
X136990Y39689D01*
X137013Y39712D01*
X137337Y39966D01*
X137592Y40198D01*
X137684Y40314D01*
X137753Y40383D01*
X137777Y40429D01*
X137800Y40452D01*
X138031Y40799D01*
X138193Y41123D01*
X138263Y41239D01*
X138309Y41355D01*
X138332Y41424D01*
Y41447D01*
X138448Y41887D01*
X138494Y42095D01*
X138517Y42280D01*
X138540Y42442D01*
Y42581D01*
Y42674D01*
Y42697D01*
X138517Y43160D01*
X138471Y43368D01*
X138448Y43553D01*
X138401Y43692D01*
X138355Y43808D01*
X138332Y43877D01*
Y43900D01*
X138147Y44270D01*
X138054Y44432D01*
X137985Y44571D01*
X137892Y44664D01*
X137846Y44756D01*
X137800Y44802D01*
X137777Y44826D01*
X137499Y45080D01*
X137245Y45289D01*
X137129Y45358D01*
X137036Y45404D01*
X136990Y45450D01*
X136967D01*
X136620Y45612D01*
X136296Y45728D01*
X136157Y45774D01*
X136064Y45798D01*
X135995Y45821D01*
X135972D01*
X136273Y45960D01*
X136504Y46098D01*
X136597Y46145D01*
X136666Y46191D01*
X136689Y46237D01*
X136712D01*
X136944Y46445D01*
X137129Y46631D01*
X137245Y46769D01*
X137291Y46792D01*
Y46816D01*
X137453Y47093D01*
X137545Y47325D01*
X137592Y47440D01*
X137615Y47510D01*
X137638Y47556D01*
Y47579D01*
X137730Y47903D01*
X137753Y48181D01*
X137777Y48297D01*
Y48389D01*
Y48459D01*
Y48482D01*
X137753Y48783D01*
X137730Y49060D01*
X137684Y49292D01*
X137638Y49523D01*
X137568Y49685D01*
X137522Y49801D01*
X137499Y49893D01*
X137476Y49916D01*
X137360Y50148D01*
X137221Y50333D01*
X137059Y50518D01*
X136920Y50657D01*
X136805Y50773D01*
X136689Y50865D01*
X136620Y50911D01*
X136597Y50935D01*
X136388Y51073D01*
X136157Y51212D01*
X135926Y51305D01*
X135694Y51397D01*
X135509Y51467D01*
X135347Y51513D01*
X135254Y51559D01*
X135208D01*
X134884Y51629D01*
X134537Y51675D01*
X134213Y51721D01*
X133889Y51744D01*
X133612Y51768D01*
D02*
G37*
G36*
X145389Y51860D02*
X144603D01*
X144510Y51837D01*
X144256D01*
X144186Y51814D01*
X144024D01*
X143978Y51791D01*
X143955D01*
X143862Y51744D01*
X143839Y51721D01*
X141062Y49916D01*
X140924Y49824D01*
X140900Y49801D01*
X140877Y49777D01*
X140785Y49662D01*
X140762Y49616D01*
Y49592D01*
X140715Y49407D01*
Y49338D01*
Y49315D01*
Y49199D01*
Y49060D01*
Y48968D01*
Y48945D01*
Y48921D01*
Y48667D01*
X140738Y48505D01*
Y48389D01*
Y48343D01*
X140762Y48204D01*
X140785Y48112D01*
X140831Y48065D01*
Y48042D01*
X140900Y47996D01*
X141062D01*
X141201Y48019D01*
X141317Y48065D01*
X141410Y48112D01*
X141456Y48135D01*
X143538Y49292D01*
Y40869D01*
X141039D01*
X140993Y40846D01*
X140970Y40823D01*
X140947Y40799D01*
X140900Y40753D01*
X140854Y40684D01*
X140831Y40637D01*
Y40614D01*
X140808Y40522D01*
X140785Y40406D01*
X140762Y40337D01*
Y40290D01*
X140738Y40152D01*
Y39990D01*
Y39874D01*
Y39851D01*
Y39828D01*
Y39642D01*
X140762Y39481D01*
Y39388D01*
Y39342D01*
X140785Y39226D01*
X140808Y39133D01*
X140831Y39064D01*
Y39041D01*
X140877Y38971D01*
X140924Y38925D01*
X140970Y38879D01*
X141062Y38833D01*
X148236D01*
X148351Y38856D01*
X148398Y38879D01*
X148444Y38925D01*
X148490Y38971D01*
X148513Y39018D01*
Y39041D01*
X148560Y39133D01*
X148583Y39226D01*
X148606Y39318D01*
Y39342D01*
X148629Y39504D01*
X148652Y39666D01*
Y39781D01*
Y39804D01*
Y39828D01*
Y40013D01*
X148629Y40175D01*
X148606Y40267D01*
Y40290D01*
X148583Y40429D01*
X148560Y40522D01*
X148537Y40591D01*
Y40614D01*
X148490Y40707D01*
X148444Y40753D01*
X148421Y40799D01*
X148398D01*
X148351Y40846D01*
X148282Y40869D01*
X146153D01*
Y51536D01*
X146130Y51652D01*
X146107Y51675D01*
X146061Y51721D01*
X146014Y51744D01*
X145968Y51768D01*
X145945D01*
X145829Y51791D01*
X145714Y51814D01*
X145621Y51837D01*
X145575D01*
X145389Y51860D01*
D02*
G37*
%LPD*%
G36*
X188683Y43808D02*
X185027D01*
X186855Y49315D01*
X188683Y43808D01*
D02*
G37*
G36*
X155525Y43622D02*
X152100D01*
X155501Y49569D01*
X155525D01*
Y43622D01*
D02*
G37*
G36*
X175818Y49963D02*
X176072Y49893D01*
X176165Y49870D01*
X176234Y49824D01*
X176281Y49801D01*
X176304D01*
X176443Y49731D01*
X176558Y49616D01*
X176743Y49430D01*
X176813Y49315D01*
X176859Y49245D01*
X176905Y49199D01*
Y49176D01*
X176998Y48991D01*
X177067Y48806D01*
X177160Y48435D01*
X177206Y48273D01*
X177229Y48135D01*
X177253Y48042D01*
Y48019D01*
X177299Y47741D01*
X177345Y47440D01*
X177368Y47140D01*
Y46839D01*
X177391Y46607D01*
Y46399D01*
Y46260D01*
Y46237D01*
Y46214D01*
X177067Y46029D01*
X176767Y45890D01*
X176651Y45821D01*
X176558Y45774D01*
X176489Y45751D01*
X176466D01*
X176072Y45659D01*
X175887Y45635D01*
X175725Y45612D01*
X175586Y45589D01*
X175378D01*
X175054Y45612D01*
X174800Y45659D01*
X174707D01*
X174638Y45682D01*
X174592Y45705D01*
X174568D01*
X174360Y45821D01*
X174175Y45960D01*
X174082Y46052D01*
X174036Y46098D01*
X173920Y46330D01*
X173828Y46538D01*
X173805Y46631D01*
X173782Y46700D01*
X173759Y46746D01*
Y46769D01*
X173712Y47093D01*
X173689Y47394D01*
X173666Y47533D01*
Y47625D01*
Y47695D01*
Y47718D01*
X173689Y48065D01*
X173712Y48343D01*
X173735Y48459D01*
Y48551D01*
X173759Y48597D01*
Y48621D01*
X173851Y48898D01*
X173967Y49130D01*
X174013Y49222D01*
X174059Y49292D01*
X174082Y49315D01*
Y49338D01*
X174268Y49546D01*
X174453Y49685D01*
X174615Y49777D01*
X174638Y49801D01*
X174661D01*
X174939Y49916D01*
X175193Y49963D01*
X175309Y49986D01*
X175471D01*
X175818Y49963D01*
D02*
G37*
G36*
X133473Y49777D02*
X133635Y49754D01*
X133774D01*
X133889Y49731D01*
X133959Y49708D01*
X134005Y49685D01*
X134028D01*
X134283Y49592D01*
X134468Y49477D01*
X134583Y49407D01*
X134630Y49361D01*
X134792Y49199D01*
X134907Y49037D01*
X134977Y48898D01*
X135000Y48875D01*
Y48852D01*
X135092Y48621D01*
X135116Y48389D01*
X135139Y48297D01*
Y48227D01*
Y48181D01*
Y48158D01*
X135116Y47903D01*
X135092Y47695D01*
X135069Y47602D01*
X135046Y47533D01*
X135023Y47510D01*
Y47487D01*
X134930Y47255D01*
X134815Y47093D01*
X134722Y46978D01*
X134676Y46931D01*
X134491Y46769D01*
X134306Y46654D01*
X134167Y46584D01*
X134121Y46561D01*
X134097D01*
X133959Y46515D01*
X133820Y46492D01*
X133519Y46469D01*
X133403Y46445D01*
X131737D01*
Y49801D01*
X133288D01*
X133473Y49777D01*
D02*
G37*
G36*
X133774Y44502D02*
X133959Y44479D01*
X134144Y44455D01*
X134260Y44432D01*
X134375Y44409D01*
X134422Y44386D01*
X134445D01*
X134769Y44270D01*
X135000Y44155D01*
X135092Y44108D01*
X135162Y44062D01*
X135185Y44016D01*
X135208D01*
X135393Y43831D01*
X135532Y43622D01*
X135625Y43484D01*
X135648Y43437D01*
Y43414D01*
X135740Y43137D01*
X135787Y42882D01*
X135810Y42766D01*
Y42674D01*
Y42627D01*
Y42604D01*
X135787Y42304D01*
X135740Y42072D01*
X135694Y41979D01*
X135671Y41910D01*
X135648Y41864D01*
Y41841D01*
X135509Y41609D01*
X135370Y41447D01*
X135254Y41332D01*
X135231Y41285D01*
X135208D01*
X135000Y41123D01*
X134792Y41031D01*
X134699Y40985D01*
X134630Y40961D01*
X134583Y40938D01*
X134560D01*
X134260Y40892D01*
X133959Y40869D01*
X133820Y40846D01*
X131737D01*
Y44525D01*
X133542D01*
X133774Y44502D01*
D02*
G37*
D26*
X217864Y369797D02*
X214532D01*
X216198D01*
Y361466D01*
X214532Y359800D01*
X212866D01*
X211200Y361466D01*
X221197Y359800D02*
X224529D01*
X222863D01*
Y369797D01*
X221197Y368131D01*
X39016Y349367D02*
X39968Y349843D01*
X41396Y351272D01*
Y341274D01*
X255316Y351167D02*
X256268Y351643D01*
X257696Y353072D01*
Y343074D01*
X92000Y349094D02*
X92952Y349570D01*
X94380Y350998D01*
Y341000D01*
D28*
X210010Y195490D02*
Y197644D01*
X207348Y192828D02*
X210010Y195490D01*
X205316Y192828D02*
X207348D01*
X210010Y267494D02*
Y272828D01*
X204808D02*
X210010D01*
X130010Y267494D02*
Y272828D01*
X135212D01*
X130010Y192828D02*
Y197898D01*
Y192828D02*
X135212D01*
X96632Y269174D02*
X98322D01*
Y267304D02*
Y269174D01*
X96632Y268994D02*
X98322Y267304D01*
X96632Y268994D02*
Y269174D01*
D32*
X99598Y245831D02*
Y262087D01*
X83850Y245831D02*
X99598D01*
X83850Y262087D02*
X99598D01*
X57942D02*
X73690D01*
X57942Y245831D02*
X73690D01*
X57942D02*
Y262087D01*
X130157Y-237304D02*
X127618Y-234765D01*
X122539D01*
X120000Y-237304D01*
Y-239843D01*
X122539Y-242383D01*
X127618D01*
X130157Y-244922D01*
Y-247461D01*
X127618Y-250000D01*
X122539D01*
X120000Y-247461D01*
X135235Y-234765D02*
X140313D01*
X137774D01*
Y-250000D01*
X135235D01*
X140313D01*
X147931Y-234765D02*
Y-250000D01*
X158088D01*
X163166Y-234765D02*
Y-250000D01*
Y-244922D01*
X173323Y-234765D01*
X165705Y-242383D01*
X173323Y-250000D01*
X188558Y-237304D02*
X186019Y-234765D01*
X180940D01*
X178401Y-237304D01*
Y-239843D01*
X180940Y-242383D01*
X186019D01*
X188558Y-244922D01*
Y-247461D01*
X186019Y-250000D01*
X180940D01*
X178401Y-247461D01*
X203793Y-237304D02*
X201254Y-234765D01*
X196175D01*
X193636Y-237304D01*
Y-247461D01*
X196175Y-250000D01*
X201254D01*
X203793Y-247461D01*
X208871Y-250000D02*
Y-234765D01*
X216489D01*
X219028Y-237304D01*
Y-242383D01*
X216489Y-244922D01*
X208871D01*
X213950D02*
X219028Y-250000D01*
X234263Y-234765D02*
X224106D01*
Y-250000D01*
X234263D01*
X224106Y-242383D02*
X229185D01*
X249498Y-234765D02*
X239341D01*
Y-250000D01*
X249498D01*
X239341Y-242383D02*
X244420D01*
X254576Y-250000D02*
Y-234765D01*
X264733Y-250000D01*
Y-234765D01*
X285047D02*
X295203D01*
X290125D01*
Y-250000D01*
X307899Y-234765D02*
X302821D01*
X300282Y-237304D01*
Y-247461D01*
X302821Y-250000D01*
X307899D01*
X310438Y-247461D01*
Y-237304D01*
X307899Y-234765D01*
X315517Y-250000D02*
Y-234765D01*
X323134D01*
X325673Y-237304D01*
Y-242383D01*
X323134Y-244922D01*
X315517D01*
X0Y-174765D02*
Y-190000D01*
X7617D01*
X10157Y-187461D01*
Y-184922D01*
X7617Y-182383D01*
X0D01*
X7617D01*
X10157Y-179843D01*
Y-177304D01*
X7617Y-174765D01*
X0D01*
X22853D02*
X17774D01*
X15235Y-177304D01*
Y-187461D01*
X17774Y-190000D01*
X22853D01*
X25392Y-187461D01*
Y-177304D01*
X22853Y-174765D01*
X30470Y-190000D02*
Y-179843D01*
X35549Y-174765D01*
X40627Y-179843D01*
Y-190000D01*
Y-182383D01*
X30470D01*
X45705Y-190000D02*
Y-174765D01*
X53323D01*
X55862Y-177304D01*
Y-182383D01*
X53323Y-184922D01*
X45705D01*
X50784D02*
X55862Y-190000D01*
X60940Y-174765D02*
Y-190000D01*
X68558D01*
X71097Y-187461D01*
Y-177304D01*
X68558Y-174765D01*
X60940D01*
X91410Y-179843D02*
X93950D01*
Y-182383D01*
X91410D01*
Y-179843D01*
Y-187461D02*
X93950D01*
Y-190000D01*
X91410D01*
Y-187461D01*
X129498Y-177304D02*
X126959Y-174765D01*
X121881D01*
X119341Y-177304D01*
Y-179843D01*
X121881Y-182383D01*
X126959D01*
X129498Y-184922D01*
Y-187461D01*
X126959Y-190000D01*
X121881D01*
X119341Y-187461D01*
X134577Y-174765D02*
X144733D01*
X139655D01*
Y-190000D01*
X149811D02*
Y-174765D01*
X154890Y-179843D01*
X159968Y-174765D01*
Y-190000D01*
X165047Y-177304D02*
X167586Y-174765D01*
X172664D01*
X175203Y-177304D01*
Y-179843D01*
X172664Y-182383D01*
X170125D01*
X172664D01*
X175203Y-184922D01*
Y-187461D01*
X172664Y-190000D01*
X167586D01*
X165047Y-187461D01*
X190438Y-190000D02*
X180282D01*
X190438Y-179843D01*
Y-177304D01*
X187899Y-174765D01*
X182821D01*
X180282Y-177304D01*
X195517Y-174765D02*
Y-190000D01*
X200595Y-184922D01*
X205674Y-190000D01*
Y-174765D01*
X210752D02*
Y-190000D01*
X218369D01*
X220909Y-187461D01*
Y-184922D01*
X218369Y-182383D01*
X210752D01*
X218369D01*
X220909Y-179843D01*
Y-177304D01*
X218369Y-174765D01*
X210752D01*
X236144D02*
X225987D01*
Y-182383D01*
X231065Y-179843D01*
X233604D01*
X236144Y-182383D01*
Y-187461D01*
X233604Y-190000D01*
X228526D01*
X225987Y-187461D01*
X251379Y-174765D02*
X241222D01*
Y-182383D01*
X246300Y-179843D01*
X248839D01*
X251379Y-182383D01*
Y-187461D01*
X248839Y-190000D01*
X243761D01*
X241222Y-187461D01*
X256457Y-192539D02*
X266614D01*
X271692Y-174765D02*
Y-190000D01*
X279310D01*
X281849Y-187461D01*
Y-177304D01*
X279310Y-174765D01*
X271692D01*
X286927D02*
Y-190000D01*
X294545D01*
X297084Y-187461D01*
Y-184922D01*
X294545Y-182383D01*
X286927D01*
X294545D01*
X297084Y-179843D01*
Y-177304D01*
X294545Y-174765D01*
X286927D01*
X302162Y-192539D02*
X312319D01*
X327554Y-187461D02*
Y-177304D01*
X325015Y-174765D01*
X319937D01*
X317397Y-177304D01*
Y-187461D01*
X319937Y-190000D01*
X325015D01*
X322476Y-184922D02*
X327554Y-190000D01*
X325015D02*
X327554Y-187461D01*
X342789Y-174765D02*
X332632D01*
Y-182383D01*
X337711D01*
X332632D01*
Y-190000D01*
X347868D02*
Y-174765D01*
X358024Y-190000D01*
Y-174765D01*
X373259D02*
X368181Y-177304D01*
X363103Y-182383D01*
Y-187461D01*
X365642Y-190000D01*
X370720D01*
X373259Y-187461D01*
Y-184922D01*
X370720Y-182383D01*
X363103D01*
X378338Y-177304D02*
X380877Y-174765D01*
X385955D01*
X388494Y-177304D01*
Y-179843D01*
X385955Y-182383D01*
X388494Y-184922D01*
Y-187461D01*
X385955Y-190000D01*
X380877D01*
X378338Y-187461D01*
Y-184922D01*
X380877Y-182383D01*
X378338Y-179843D01*
Y-177304D01*
X380877Y-182383D02*
X385955D01*
X393573Y-192539D02*
X403729D01*
X408808Y-190000D02*
Y-174765D01*
X416425D01*
X418965Y-177304D01*
Y-182383D01*
X416425Y-184922D01*
X408808D01*
X0Y-220000D02*
Y-204765D01*
X7617D01*
X10157Y-207304D01*
Y-212383D01*
X7617Y-214922D01*
X0D01*
X5078D02*
X10157Y-220000D01*
X25392Y-204765D02*
X15235D01*
Y-220000D01*
X25392D01*
X15235Y-212383D02*
X20313D01*
X30470Y-204765D02*
Y-214922D01*
X35549Y-220000D01*
X40627Y-214922D01*
Y-204765D01*
X91410Y-209843D02*
X93950D01*
Y-212383D01*
X91410D01*
Y-209843D01*
Y-217461D02*
X93950D01*
Y-220000D01*
X91410D01*
Y-217461D01*
X119341Y-220000D02*
Y-209843D01*
X124420Y-204765D01*
X129498Y-209843D01*
Y-220000D01*
Y-212383D01*
X119341D01*
X10157Y-234765D02*
X0D01*
Y-242383D01*
X5078D01*
X0D01*
Y-250000D01*
X15235Y-234765D02*
X20313D01*
X17774D01*
Y-250000D01*
X15235D01*
X20313D01*
X27931Y-234765D02*
Y-250000D01*
X38088D01*
X43166D02*
Y-234765D01*
X48244Y-239843D01*
X53323Y-234765D01*
Y-250000D01*
X88871Y-239843D02*
X91410D01*
Y-242383D01*
X88871D01*
Y-239843D01*
Y-247461D02*
X91410D01*
Y-250000D01*
X88871D01*
Y-247461D01*
X0Y-264765D02*
Y-280000D01*
X7617D01*
X10157Y-277461D01*
Y-267304D01*
X7617Y-264765D01*
X0D01*
X15235Y-280000D02*
Y-264765D01*
X22853D01*
X25392Y-267304D01*
Y-272383D01*
X22853Y-274922D01*
X15235D01*
X20313D02*
X25392Y-280000D01*
X30470D02*
Y-269843D01*
X35549Y-264765D01*
X40627Y-269843D01*
Y-280000D01*
Y-272383D01*
X30470D01*
X45705Y-264765D02*
Y-280000D01*
X50784Y-274922D01*
X55862Y-280000D01*
Y-264765D01*
X60940Y-280000D02*
Y-264765D01*
X71097Y-280000D01*
Y-264765D01*
X91410Y-269843D02*
X93950D01*
Y-272383D01*
X91410D01*
Y-269843D01*
Y-277461D02*
X93950D01*
Y-280000D01*
X91410D01*
Y-277461D01*
X129498Y-267304D02*
X126959Y-264765D01*
X121881D01*
X119341Y-267304D01*
Y-277461D01*
X121881Y-280000D01*
X126959D01*
X129498Y-277461D01*
X144733Y-264765D02*
X134577D01*
Y-280000D01*
X144733D01*
X134577Y-272383D02*
X139655D01*
X149811Y-280000D02*
Y-264765D01*
X159968Y-280000D01*
Y-264765D01*
X165047D02*
X175203D01*
X170125D01*
Y-280000D01*
X180282Y-264765D02*
Y-277461D01*
X182821Y-280000D01*
X187899D01*
X190438Y-277461D01*
Y-264765D01*
X195517Y-280000D02*
Y-264765D01*
X200595Y-269843D01*
X205674Y-264765D01*
Y-280000D01*
X210752Y-272383D02*
X220909D01*
X225987Y-280000D02*
Y-269843D01*
X231065Y-264765D01*
X236144Y-269843D01*
Y-280000D01*
Y-272383D01*
X225987D01*
X241222Y-264765D02*
Y-280000D01*
X248839D01*
X251379Y-277461D01*
Y-267304D01*
X248839Y-264765D01*
X241222D01*
X266614D02*
X256457D01*
Y-280000D01*
X266614D01*
X256457Y-272383D02*
X261535D01*
X271692Y-280000D02*
Y-264765D01*
X281849Y-280000D01*
Y-264765D01*
X297084D02*
X286927D01*
Y-280000D01*
X297084D01*
X286927Y-272383D02*
X292006D01*
X309780Y-264765D02*
X304701D01*
X302162Y-267304D01*
Y-277461D01*
X304701Y-280000D01*
X309780D01*
X312319Y-277461D01*
Y-267304D01*
X309780Y-264765D01*
X0Y-294765D02*
Y-310000D01*
X7617D01*
X10157Y-307461D01*
Y-297304D01*
X7617Y-294765D01*
X0D01*
X15235Y-310000D02*
Y-299843D01*
X20313Y-294765D01*
X25392Y-299843D01*
Y-310000D01*
Y-302383D01*
X15235D01*
X30470Y-294765D02*
X40627D01*
X35549D01*
Y-310000D01*
X55862Y-294765D02*
X45705D01*
Y-310000D01*
X55862D01*
X45705Y-302383D02*
X50784D01*
X91410Y-299843D02*
X93950D01*
Y-302383D01*
X91410D01*
Y-299843D01*
Y-307461D02*
X93950D01*
Y-310000D01*
X91410D01*
Y-307461D01*
X129498Y-310000D02*
X119341D01*
X129498Y-299843D01*
Y-297304D01*
X126959Y-294765D01*
X121881D01*
X119341Y-297304D01*
X134577D02*
X137116Y-294765D01*
X142194D01*
X144733Y-297304D01*
Y-307461D01*
X142194Y-310000D01*
X137116D01*
X134577Y-307461D01*
Y-297304D01*
X149811Y-310000D02*
X154890D01*
X152351D01*
Y-294765D01*
X149811Y-297304D01*
X162507Y-294765D02*
X172664D01*
Y-297304D01*
X162507Y-307461D01*
Y-310000D01*
X177743D02*
X187899Y-299843D01*
X200595Y-310000D02*
Y-294765D01*
X192978Y-302383D01*
X203134D01*
X218369Y-294765D02*
X208213D01*
Y-302383D01*
X213291Y-299843D01*
X215830D01*
X218369Y-302383D01*
Y-307461D01*
X215830Y-310000D01*
X210752D01*
X208213Y-307461D01*
D33*
X129000Y179478D02*
Y175246D01*
X129846Y174400D01*
X131539D01*
X132386Y175246D01*
Y179478D01*
X134078Y174400D02*
X135771D01*
X134925D01*
Y179478D01*
X134078Y178632D01*
X64886Y195032D02*
X64039Y195878D01*
X62346D01*
X61500Y195032D01*
Y194186D01*
X62346Y193339D01*
X64039D01*
X64886Y192493D01*
Y191646D01*
X64039Y190800D01*
X62346D01*
X61500Y191646D01*
X66578Y195878D02*
Y190800D01*
X69117D01*
X69964Y191646D01*
Y192493D01*
X69117Y193339D01*
X66578D01*
X69117D01*
X69964Y194186D01*
Y195032D01*
X69117Y195878D01*
X66578D01*
X71657Y190800D02*
X73349D01*
X72503D01*
Y195878D01*
X71657Y195032D01*
X90742Y219386D02*
X89896Y218539D01*
Y216846D01*
X90742Y216000D01*
X94128D01*
X94974Y216846D01*
Y218539D01*
X94128Y219386D01*
X94974Y221078D02*
Y222771D01*
Y221925D01*
X89896D01*
X90742Y221078D01*
X94974Y225310D02*
Y227003D01*
Y226157D01*
X89896D01*
X90742Y225310D01*
X114104Y264935D02*
X113354Y264186D01*
Y262686D01*
X114104Y261936D01*
X117103D01*
X117853Y262686D01*
Y264186D01*
X117103Y264935D01*
X117853Y266435D02*
Y267934D01*
Y267185D01*
X113354D01*
X114104Y266435D01*
Y270184D02*
X113354Y270933D01*
Y272433D01*
X114104Y273183D01*
X114854D01*
X115604Y272433D01*
Y271683D01*
Y272433D01*
X116353Y273183D01*
X117103D01*
X117853Y272433D01*
Y270933D01*
X117103Y270184D01*
X125268Y316186D02*
X124422Y315339D01*
Y313646D01*
X125268Y312800D01*
X128654D01*
X129500Y313646D01*
Y315339D01*
X128654Y316186D01*
X129500Y317878D02*
Y319571D01*
Y318725D01*
X124422D01*
X125268Y317878D01*
X135868Y314386D02*
X135022Y313539D01*
Y311846D01*
X135868Y311000D01*
X139254D01*
X140100Y311846D01*
Y313539D01*
X139254Y314386D01*
X140100Y319464D02*
Y316078D01*
X136714Y319464D01*
X135868D01*
X135022Y318617D01*
Y316925D01*
X135868Y316078D01*
X216748Y235786D02*
X215902Y234939D01*
Y233246D01*
X216748Y232400D01*
X220134D01*
X220980Y233246D01*
Y234939D01*
X220134Y235786D01*
X220980Y237478D02*
Y239171D01*
Y238325D01*
X215902D01*
X216748Y237478D01*
X215902Y245096D02*
X216748Y243403D01*
X218441Y241710D01*
X220134D01*
X220980Y242557D01*
Y244249D01*
X220134Y245096D01*
X219287D01*
X218441Y244249D01*
Y241710D01*
X112868Y172986D02*
X112022Y172139D01*
Y170446D01*
X112868Y169600D01*
X116254D01*
X117100Y170446D01*
Y172139D01*
X116254Y172986D01*
X112022Y174678D02*
Y178064D01*
X112868D01*
X116254Y174678D01*
X117100D01*
X185468Y295186D02*
X184622Y294339D01*
Y292646D01*
X185468Y291800D01*
X188854D01*
X189700Y292646D01*
Y294339D01*
X188854Y295186D01*
X184622Y300264D02*
X185468Y298571D01*
X187161Y296878D01*
X188854D01*
X189700Y297725D01*
Y299417D01*
X188854Y300264D01*
X188007D01*
X187161Y299417D01*
Y296878D01*
X254386Y193532D02*
X253539Y194378D01*
X251846D01*
X251000Y193532D01*
Y190146D01*
X251846Y189300D01*
X253539D01*
X254386Y190146D01*
X256078Y189300D02*
X257771D01*
X256925D01*
Y194378D01*
X256078Y193532D01*
X262850Y189300D02*
Y194378D01*
X260310Y191839D01*
X263696D01*
X254268Y209086D02*
X253422Y208239D01*
Y206546D01*
X254268Y205700D01*
X257654D01*
X258500Y206546D01*
Y208239D01*
X257654Y209086D01*
X258500Y210778D02*
Y212471D01*
Y211625D01*
X253422D01*
X254268Y210778D01*
X253422Y218396D02*
Y215010D01*
X255961D01*
X255114Y216703D01*
Y217549D01*
X255961Y218396D01*
X257654D01*
X258500Y217549D01*
Y215857D01*
X257654Y215010D01*
X200268Y142786D02*
X199422Y141939D01*
Y140246D01*
X200268Y139400D01*
X203654D01*
X204500Y140246D01*
Y141939D01*
X203654Y142786D01*
X199422Y147864D02*
Y144478D01*
X201961D01*
X201114Y146171D01*
Y147017D01*
X201961Y147864D01*
X203654D01*
X204500Y147017D01*
Y145325D01*
X203654Y144478D01*
X215658Y143886D02*
X214812Y143039D01*
Y141346D01*
X215658Y140500D01*
X219044D01*
X219890Y141346D01*
Y143039D01*
X219044Y143886D01*
X215658Y145578D02*
X214812Y146425D01*
Y148118D01*
X215658Y148964D01*
X216505D01*
X217351Y148118D01*
X218198Y148964D01*
X219044D01*
X219890Y148118D01*
Y146425D01*
X219044Y145578D01*
X218198D01*
X217351Y146425D01*
X216505Y145578D01*
X215658D01*
X217351Y146425D02*
Y148118D01*
X153544Y157132D02*
X152697Y157978D01*
X151004D01*
X150158Y157132D01*
Y153746D01*
X151004Y152900D01*
X152697D01*
X153544Y153746D01*
X155236D02*
X156083Y152900D01*
X157775D01*
X158622Y153746D01*
Y157132D01*
X157775Y157978D01*
X156083D01*
X155236Y157132D01*
Y156286D01*
X156083Y155439D01*
X158622D01*
X254846Y261432D02*
X253999Y262278D01*
X252306D01*
X251460Y261432D01*
Y258046D01*
X252306Y257200D01*
X253999D01*
X254846Y258046D01*
X256538Y257200D02*
X258231D01*
X257385D01*
Y262278D01*
X256538Y261432D01*
X260770D02*
X261617Y262278D01*
X263309D01*
X264156Y261432D01*
Y258046D01*
X263309Y257200D01*
X261617D01*
X260770Y258046D01*
Y261432D01*
X61100Y271478D02*
Y266400D01*
X64486D01*
X69564D02*
X66178D01*
X69564Y269786D01*
Y270632D01*
X68717Y271478D01*
X67025D01*
X66178Y270632D01*
X228822Y303000D02*
X233900D01*
Y306386D01*
X229668Y308078D02*
X228822Y308925D01*
Y310618D01*
X229668Y311464D01*
X230514D01*
X231361Y310618D01*
Y309771D01*
Y310618D01*
X232207Y311464D01*
X233054D01*
X233900Y310618D01*
Y308925D01*
X233054Y308078D01*
X262593Y231700D02*
X257515D01*
Y234239D01*
X258361Y235086D01*
X260054D01*
X260900Y234239D01*
Y231700D01*
Y233393D02*
X262593Y235086D01*
Y236778D02*
Y238471D01*
Y237625D01*
X257515D01*
X258361Y236778D01*
X232000Y144500D02*
X226922D01*
Y147039D01*
X227768Y147886D01*
X229461D01*
X230307Y147039D01*
Y144500D01*
Y146193D02*
X232000Y147886D01*
Y152964D02*
Y149578D01*
X228614Y152964D01*
X227768D01*
X226922Y152118D01*
Y150425D01*
X227768Y149578D01*
X241768Y144256D02*
X240922Y143409D01*
Y141716D01*
X241768Y140870D01*
X242614D01*
X243461Y141716D01*
Y143409D01*
X244307Y144256D01*
X245154D01*
X246000Y143409D01*
Y141716D01*
X245154Y140870D01*
X240922Y145948D02*
X246000D01*
Y148488D01*
X245154Y149334D01*
X244307D01*
X243461Y148488D01*
Y145948D01*
Y148488D01*
X242614Y149334D01*
X241768D01*
X240922Y148488D01*
Y145948D01*
X246000Y154412D02*
Y151027D01*
X242614Y154412D01*
X241768D01*
X240922Y153566D01*
Y151873D01*
X241768Y151027D01*
X104290Y303989D02*
X107675Y298910D01*
Y303989D02*
X104290Y298910D01*
X109368D02*
X111061D01*
X110215D01*
Y303989D01*
X109368Y303142D01*
X214922Y205870D02*
X220000Y209256D01*
X214922D02*
X220000Y205870D01*
Y214334D02*
Y210948D01*
X216614Y214334D01*
X215768D01*
X214922Y213487D01*
Y211795D01*
X215768Y210948D01*
X234500Y253078D02*
Y248000D01*
X237039D01*
X237886Y248846D01*
Y252232D01*
X237039Y253078D01*
X234500D01*
X239578Y248000D02*
X241271D01*
X240425D01*
Y253078D01*
X239578Y252232D01*
X101968Y197786D02*
X101122Y196939D01*
Y195246D01*
X101968Y194400D01*
X105354D01*
X106200Y195246D01*
Y196939D01*
X105354Y197786D01*
X106200Y199478D02*
Y201171D01*
Y200325D01*
X101122D01*
X101968Y199478D01*
X106200Y207096D02*
Y203710D01*
X102814Y207096D01*
X101968D01*
X101122Y206250D01*
Y204557D01*
X101968Y203710D01*
X160392Y289227D02*
Y285841D01*
X162931D01*
Y287534D01*
Y285841D01*
X165471D01*
X160392Y290920D02*
X165471D01*
Y294305D01*
X160392Y295998D02*
Y299384D01*
Y297691D01*
X165471D01*
Y301076D02*
Y302769D01*
Y301923D01*
X160392D01*
X161239Y301076D01*
D37*
X65256Y139854D02*
X133582D01*
X64240Y139600D02*
X134090D01*
X62970Y139346D02*
X134090D01*
X62462Y139092D02*
X134090D01*
X61700Y138838D02*
X134090D01*
X61192Y138584D02*
X134090D01*
X60684Y138330D02*
X134090D01*
X60176Y138076D02*
X134090D01*
X59922Y137822D02*
X133836D01*
X59414Y137568D02*
X133836D01*
X59160Y137314D02*
X133582D01*
X58652Y137060D02*
X133582D01*
X58398Y136806D02*
X133582D01*
X58144Y136552D02*
X133328D01*
X57890Y136298D02*
X133328D01*
X57636Y136044D02*
X133074D01*
X57382Y135790D02*
X133074D01*
X57128Y135536D02*
X132820D01*
X57128Y135282D02*
X132820D01*
X56874Y135028D02*
X132820D01*
X56620Y134774D02*
X132566D01*
X56620Y134520D02*
X132566D01*
X56366Y134266D02*
X132566D01*
X56112Y134012D02*
X132312D01*
X56112Y133758D02*
X132312D01*
X55858Y133504D02*
X132058D01*
X55604Y133250D02*
X132058D01*
X55604Y132996D02*
X131804D01*
X55604Y132742D02*
X131550D01*
X55350Y132488D02*
X131042D01*
X55350Y132234D02*
X69574D01*
X55350Y131980D02*
X68812D01*
X55096Y131726D02*
X67796D01*
X54842Y131472D02*
X67034D01*
X54842Y131218D02*
X66780D01*
X54842Y130964D02*
X66526D01*
X54588Y130710D02*
X66018D01*
X54588Y130456D02*
X65510D01*
X54588Y130202D02*
X65002D01*
X54334Y129948D02*
X64748D01*
X54334Y129694D02*
X64494D01*
X54080Y129440D02*
X64240D01*
X54080Y129186D02*
X63986D01*
X53826Y128932D02*
X63732D01*
X53826Y128678D02*
X63478D01*
X53572Y128424D02*
X63224D01*
X53572Y128170D02*
X62970D01*
X53572Y127916D02*
X62716D01*
X53318Y127662D02*
X62716D01*
X53318Y127408D02*
X62462D01*
X53318Y127154D02*
X62208D01*
X53064Y126900D02*
X62208D01*
X53064Y126646D02*
X62208D01*
X52810Y126392D02*
X61954D01*
X52810Y126138D02*
X61700D01*
X52556Y125884D02*
X61700D01*
X52556Y125630D02*
X61446D01*
X52556Y125376D02*
X61446D01*
X52302Y125122D02*
X61446D01*
X52302Y124868D02*
X61192D01*
X52048Y124614D02*
X61192D01*
X52048Y124360D02*
X61192D01*
X51794Y124106D02*
X60938D01*
X51794Y123852D02*
X60938D01*
X51794Y123598D02*
X60938D01*
X70844D02*
X104372D01*
X114278D02*
X127232D01*
X51540Y123344D02*
X60938D01*
X70336D02*
X104626D01*
X114024D02*
X127486D01*
X51540Y123090D02*
X60684D01*
X70082D02*
X104626D01*
X113770D02*
X127486D01*
X51540Y122836D02*
X60684D01*
X69828D02*
X104626D01*
X113516D02*
X127486D01*
X51286Y122582D02*
X60684D01*
X69574D02*
X104626D01*
X113516D02*
X127740D01*
X51286Y122328D02*
X60938D01*
X69574D02*
X104626D01*
X113262D02*
X127740D01*
X51032Y122074D02*
X60684D01*
X69320D02*
X104372D01*
X113262D02*
X127486D01*
X51032Y121820D02*
X60684D01*
X69320D02*
X104372D01*
X113008D02*
X127232D01*
X50778Y121566D02*
X60684D01*
X69320D02*
X104372D01*
X113008D02*
X127232D01*
X50778Y121312D02*
X60684D01*
X69320D02*
X104118D01*
X113008D02*
X127232D01*
X50524Y121058D02*
X60684D01*
X69574D02*
X103864D01*
X112754D02*
X126978D01*
X50524Y120804D02*
X60684D01*
X69574D02*
X103864D01*
X112754D02*
X126978D01*
X50524Y120550D02*
X60684D01*
X69574D02*
X103864D01*
X112500D02*
X126724D01*
X50270Y120296D02*
X60684D01*
X69574D02*
X103610D01*
X112500D02*
X126724D01*
X50270Y120042D02*
X60684D01*
X69828D02*
X103610D01*
X112246D02*
X126724D01*
X50270Y119788D02*
X60684D01*
X69828D02*
X103610D01*
X112246D02*
X126470D01*
X50016Y119534D02*
X60684D01*
X70082D02*
X103356D01*
X112246D02*
X126470D01*
X50016Y119280D02*
X60938D01*
X70336D02*
X103356D01*
X111992D02*
X126216D01*
X49762Y119026D02*
X60938D01*
X70590D02*
X103102D01*
X111992D02*
X126216D01*
X49762Y118772D02*
X61192D01*
X71098D02*
X103102D01*
X111992D02*
X125962D01*
X49508Y118518D02*
X61192D01*
X71352D02*
X103102D01*
X111738D02*
X125962D01*
X49508Y118264D02*
X61192D01*
X71606D02*
X102848D01*
X111738D02*
X125962D01*
X49508Y118010D02*
X61446D01*
X71860D02*
X102848D01*
X111484D02*
X125708D01*
X49254Y117756D02*
X61446D01*
X72114D02*
X102594D01*
X111484D02*
X125708D01*
X49254Y117502D02*
X61446D01*
X72368D02*
X102594D01*
X111230D02*
X125454D01*
X49000Y117248D02*
X61700D01*
X72622D02*
X102594D01*
X111230D02*
X125454D01*
X49000Y116994D02*
X61700D01*
X72876D02*
X102340D01*
X110976D02*
X125454D01*
X49000Y116740D02*
X61954D01*
X73130D02*
X102340D01*
X110976D02*
X125200D01*
X48746Y116486D02*
X61954D01*
X73384D02*
X102086D01*
X110976D02*
X125200D01*
X48746Y116232D02*
X62208D01*
X73638D02*
X102086D01*
X110722D02*
X124946D01*
X48492Y115978D02*
X62208D01*
X73892D02*
X101832D01*
X110722D02*
X124946D01*
X48492Y115724D02*
X62462D01*
X74146D02*
X101832D01*
X110468D02*
X124692D01*
X48238Y115470D02*
X62462D01*
X74400D02*
X101832D01*
X110468D02*
X124692D01*
X48238Y115216D02*
X62716D01*
X74654D02*
X101578D01*
X110468D02*
X124692D01*
X48238Y114962D02*
X62716D01*
X74908D02*
X101578D01*
X110214D02*
X124438D01*
X47984Y114708D02*
X62970D01*
X75416D02*
X101578D01*
X110214D02*
X124438D01*
X47984Y114454D02*
X63224D01*
X75670D02*
X101324D01*
X109960D02*
X124184D01*
X47730Y114200D02*
X63478D01*
X75924D02*
X101324D01*
X109960D02*
X124184D01*
X47730Y113946D02*
X63732D01*
X76178D02*
X101070D01*
X109706D02*
X123930D01*
X47730Y113692D02*
X63986D01*
X76432D02*
X101070D01*
X109706D02*
X123930D01*
X47476Y113438D02*
X64240D01*
X76686D02*
X100816D01*
X109706D02*
X123930D01*
X47476Y113184D02*
X64494D01*
X76940D02*
X100816D01*
X109452D02*
X123676D01*
X47222Y112930D02*
X64748D01*
X77194D02*
X100816D01*
X109452D02*
X123676D01*
X47222Y112676D02*
X65002D01*
X77702D02*
X100562D01*
X109198D02*
X123422D01*
X47222Y112422D02*
X65256D01*
X77956D02*
X100562D01*
X109198D02*
X123422D01*
X46968Y112168D02*
X65510D01*
X78210D02*
X100308D01*
X108944D02*
X123422D01*
X46968Y111914D02*
X65764D01*
X78464D02*
X100308D01*
X108944D02*
X123168D01*
X46714Y111660D02*
X66018D01*
X78718D02*
X100054D01*
X108944D02*
X123168D01*
X46714Y111406D02*
X66272D01*
X78972D02*
X100054D01*
X108690D02*
X122914D01*
X46460Y111152D02*
X66526D01*
X79226D02*
X100054D01*
X108690D02*
X122914D01*
X46460Y110898D02*
X67034D01*
X79480D02*
X99800D01*
X108690D02*
X122660D01*
X46460Y110644D02*
X67288D01*
X79734D02*
X99800D01*
X108436D02*
X122660D01*
X46206Y110390D02*
X67542D01*
X79988D02*
X99546D01*
X108436D02*
X122660D01*
X46206Y110136D02*
X67796D01*
X80242D02*
X99546D01*
X108182D02*
X122406D01*
X45952Y109882D02*
X68050D01*
X80496D02*
X99546D01*
X108182D02*
X122406D01*
X45952Y109628D02*
X68304D01*
X80750D02*
X99292D01*
X107928D02*
X122152D01*
X45952Y109374D02*
X68558D01*
X81004D02*
X99292D01*
X107928D02*
X122152D01*
X45698Y109120D02*
X68812D01*
X81258D02*
X99038D01*
X107928D02*
X122152D01*
X45698Y108866D02*
X69066D01*
X81512D02*
X99038D01*
X107674D02*
X121898D01*
X45444Y108612D02*
X69320D01*
X81766D02*
X99038D01*
X107674D02*
X121898D01*
X45444Y108358D02*
X69828D01*
X81766D02*
X98784D01*
X107420D02*
X121644D01*
X45190Y108104D02*
X69828D01*
X82020D02*
X98784D01*
X107420D02*
X121644D01*
X45190Y107850D02*
X70082D01*
X82274D02*
X98784D01*
X107420D02*
X121390D01*
X45190Y107596D02*
X70590D01*
X82274D02*
X98530D01*
X107166D02*
X121390D01*
X44936Y107342D02*
X70590D01*
X82528D02*
X98276D01*
X107166D02*
X121390D01*
X44936Y107088D02*
X70844D01*
X82528D02*
X98276D01*
X106912D02*
X121136D01*
X44682Y106834D02*
X71352D01*
X82782D02*
X98276D01*
X106912D02*
X121136D01*
X44682Y106580D02*
X71606D01*
X83036D02*
X98022D01*
X106658D02*
X120882D01*
X44428Y106326D02*
X71860D01*
X83036D02*
X98022D01*
X106658D02*
X120882D01*
X44428Y106072D02*
X72114D01*
X83036D02*
X98022D01*
X106658D02*
X120628D01*
X44428Y105818D02*
X72368D01*
X83290D02*
X97768D01*
X106404D02*
X120628D01*
X44174Y105564D02*
X72622D01*
X83290D02*
X97768D01*
X106404D02*
X120374D01*
X44174Y105310D02*
X72876D01*
X83290D02*
X97514D01*
X106150D02*
X120374D01*
X44174Y105056D02*
X73130D01*
X83544D02*
X97514D01*
X106150D02*
X120374D01*
X43920Y104802D02*
X73384D01*
X83544D02*
X97260D01*
X106150D02*
X120120D01*
X43920Y104548D02*
X73892D01*
X83544D02*
X97260D01*
X105896D02*
X120120D01*
X43666Y104294D02*
X74146D01*
X83798D02*
X97260D01*
X105896D02*
X120120D01*
X43666Y104040D02*
X74400D01*
X83798D02*
X97006D01*
X105642D02*
X119866D01*
X43412Y103786D02*
X74654D01*
X83798D02*
X97006D01*
X105642D02*
X119866D01*
X43412Y103532D02*
X74908D01*
X83798D02*
X96752D01*
X105388D02*
X119612D01*
X43412Y103278D02*
X75162D01*
X83798D02*
X96752D01*
X105388D02*
X119612D01*
X43158Y103024D02*
X75416D01*
X83798D02*
X96752D01*
X105388D02*
X119358D01*
X43158Y102770D02*
X75416D01*
X83798D02*
X96498D01*
X105134D02*
X119358D01*
X42904Y102516D02*
X75416D01*
X83798D02*
X96498D01*
X105134D02*
X119104D01*
X42904Y102262D02*
X75416D01*
X84052D02*
X96244D01*
X104880D02*
X119104D01*
X42904Y102008D02*
X75416D01*
X84052D02*
X96244D01*
X104880D02*
X119104D01*
X42650Y101754D02*
X75416D01*
X84052D02*
X96244D01*
X104626D02*
X118850D01*
X42650Y101500D02*
X75416D01*
X84052D02*
X95990D01*
X104626D02*
X118850D01*
X42396Y101246D02*
X75416D01*
X84052D02*
X95990D01*
X104626D02*
X118850D01*
X42396Y100992D02*
X75416D01*
X84052D02*
X95736D01*
X104372D02*
X118596D01*
X42142Y100738D02*
X75416D01*
X83798D02*
X95736D01*
X104372D02*
X118596D01*
X42142Y100484D02*
X75162D01*
X83798D02*
X95736D01*
X104118D02*
X118342D01*
X42142Y100230D02*
X74908D01*
X83798D02*
X95482D01*
X104118D02*
X118342D01*
X42396Y99976D02*
X74654D01*
X83798D02*
X95482D01*
X104118D02*
X118088D01*
X42650Y99722D02*
X74146D01*
X83798D02*
X95228D01*
X103864D02*
X118088D01*
X83798Y99468D02*
X95228D01*
X103864D02*
X117834D01*
X83798Y99214D02*
X94974D01*
X103610D02*
X117834D01*
X83544Y98960D02*
X94974D01*
X103610D02*
X117834D01*
X83544Y98706D02*
X94974D01*
X103356D02*
X117580D01*
X83544Y98452D02*
X94720D01*
X103356D02*
X117580D01*
X83290Y98198D02*
X94720D01*
X103356D02*
X117326D01*
X83290Y97944D02*
X94466D01*
X103102D02*
X117326D01*
X83290Y97690D02*
X94466D01*
X103102D02*
X117072D01*
X83036Y97436D02*
X94466D01*
X103102D02*
X117072D01*
X83036Y97182D02*
X94212D01*
X102848D02*
X116818D01*
X82782Y96928D02*
X94212D01*
X102594D02*
X116818D01*
X82782Y96674D02*
X93958D01*
X102594D02*
X116564D01*
X82528Y96420D02*
X93958D01*
X102594D02*
X116564D01*
X82528Y96166D02*
X93958D01*
X102340D02*
X116310D01*
X82274Y95912D02*
X93704D01*
X102340D02*
X116056D01*
X82274Y95658D02*
X93704D01*
X102340D02*
X115802D01*
X82020Y95404D02*
X93450D01*
X102086D02*
X115548D01*
X81766Y95150D02*
X93450D01*
X102086D02*
X115294D01*
X81512Y94896D02*
X93196D01*
X101832D02*
X115040D01*
X81512Y94642D02*
X93196D01*
X101832D02*
X114786D01*
X81258Y94388D02*
X93196D01*
X101578D02*
X114532D01*
X81004Y94134D02*
X92942D01*
X101578D02*
X114278D01*
X80750Y93880D02*
X92942D01*
X101578D02*
X114024D01*
X80496Y93626D02*
X92942D01*
X101578D02*
X113770D01*
X80242Y93372D02*
X92688D01*
X101324D02*
X113516D01*
X79988Y93118D02*
X92434D01*
X101070D02*
X113262D01*
X79480Y92864D02*
X92434D01*
X101070D02*
X113008D01*
X79226Y92610D02*
X92434D01*
X101070D02*
X112500D01*
X78972Y92356D02*
X92180D01*
X100816D02*
X111992D01*
X78464Y92102D02*
X92180D01*
X100816D02*
X111484D01*
X77956Y91848D02*
X91926D01*
X100816D02*
X111230D01*
X77448Y91594D02*
X91672D01*
X100816D02*
X110468D01*
X77448Y91340D02*
X91672D01*
X100816D02*
X109706D01*
X77448Y91086D02*
X91164D01*
X100816D02*
X108690D01*
X77448Y90832D02*
X90656D01*
X101070D02*
X106912D01*
X77702Y90578D02*
X90148D01*
X101578D02*
X105896D01*
D38*
X234950Y228346D02*
Y244602D01*
Y228346D02*
X236728D01*
X234950Y244602D02*
X236728D01*
X241300Y228346D02*
X243078D01*
Y244602D01*
X241300D02*
X243078D01*
D39*
X241300Y245110D02*
X243078D01*
Y245618D01*
X241300D02*
X243078D01*
X241300Y245110D02*
Y245618D01*
Y245110D02*
X241554Y245364D01*
X243078D01*
X241300Y243586D02*
X243078D01*
Y244094D01*
X241300D02*
X243078D01*
X241300Y243586D02*
Y244094D01*
Y243586D02*
X241554Y243840D01*
X243078D01*
X234950Y245110D02*
X236728D01*
Y245618D01*
X234950D02*
X236728D01*
X234950Y245110D02*
Y245618D01*
Y245110D02*
X235204Y245364D01*
X236728D01*
X234950Y243586D02*
X236728D01*
Y244094D01*
X234950D02*
X236728D01*
X234950Y243586D02*
Y244094D01*
Y243586D02*
X235204Y243840D01*
X236728D01*
X105014Y270772D02*
X109586D01*
X117460Y277630D02*
Y280170D01*
X105014Y287028D02*
X109586D01*
X97140Y277630D02*
Y280170D01*
X145772Y282537D02*
X159371D01*
Y302846D01*
X147375D02*
X159371D01*
X145772Y301242D02*
X147375Y302846D01*
X145772Y282537D02*
Y301242D01*
D40*
X214521Y186698D02*
X221419Y191565D01*
X212021Y182167D02*
X215744Y187922D01*
X212021Y191565D02*
X215744Y187922D01*
X212021Y191565D02*
X214307D01*
X212021Y189279D02*
X214307Y191565D01*
X212021Y188008D02*
Y189279D01*
Y188008D02*
X215577Y191565D01*
X216593D01*
X212021Y186992D02*
X216593Y191565D01*
X212021Y185723D02*
Y186992D01*
Y185723D02*
X217863Y191565D01*
X219387D01*
X212021Y184198D02*
X219387Y191565D01*
X212021Y182167D02*
Y184198D01*
Y182167D02*
X221419Y191565D01*
X212021D02*
X221419D01*
X212021Y182167D02*
Y191565D01*
X123190Y285778D02*
X131064D01*
X123190Y307622D02*
X131064D01*
Y285778D02*
Y292890D01*
X123190Y285778D02*
Y292890D01*
Y300510D02*
Y307622D01*
X131064Y300510D02*
Y307622D01*
X133190Y285678D02*
X141064D01*
X133190Y307522D02*
X141064D01*
Y285678D02*
Y292790D01*
X133190Y285678D02*
Y292790D01*
Y300410D02*
Y307522D01*
X141064Y300410D02*
Y307522D01*
X223774Y248920D02*
X231648D01*
X223774Y227076D02*
X231648D01*
X223774Y241808D02*
Y248920D01*
X231648Y241808D02*
Y248920D01*
Y227076D02*
Y234188D01*
X223774Y227076D02*
Y234188D01*
X170636Y306922D02*
X178510D01*
X170636Y285078D02*
X178510D01*
X170636Y299810D02*
Y306922D01*
X178510Y299810D02*
Y306922D01*
Y285078D02*
Y292190D01*
X170636Y285078D02*
Y292190D01*
X247922Y188060D02*
Y195934D01*
X226078Y188060D02*
Y195934D01*
X240810D02*
X247922D01*
X240810Y188060D02*
X247922D01*
X226078D02*
X233190D01*
X226078Y195934D02*
X233190D01*
X241190Y200948D02*
X249064D01*
X241190Y222792D02*
X249064D01*
Y200948D02*
Y208060D01*
X241190Y200948D02*
Y208060D01*
Y215680D02*
Y222792D01*
X249064Y215680D02*
Y222792D01*
X223380Y209220D02*
Y211760D01*
X238620Y209220D02*
Y211760D01*
X237106Y284305D02*
Y293957D01*
X224914Y284305D02*
Y293957D01*
X237106Y265763D02*
Y276685D01*
X224914Y293957D02*
X237106D01*
X224914Y265763D02*
X237106D01*
X224914D02*
Y276685D01*
X111190Y185948D02*
X119064D01*
X111190Y207792D02*
X119064D01*
Y185948D02*
Y193060D01*
X111190Y185948D02*
Y193060D01*
Y200680D02*
Y207792D01*
X119064Y200680D02*
Y207792D01*
X111529Y257740D02*
X119403D01*
X111529Y235896D02*
X119403D01*
X111529Y250627D02*
Y257740D01*
X119403Y250627D02*
Y257740D01*
Y235896D02*
Y243008D01*
X111529Y235896D02*
Y243008D01*
X212946Y180771D02*
X220820D01*
X212946Y158927D02*
X220820D01*
X212946Y173659D02*
Y180771D01*
X220820Y173659D02*
Y180771D01*
Y158927D02*
Y166039D01*
X212946Y158927D02*
Y166039D01*
X145078Y161536D02*
Y169410D01*
X166922Y161536D02*
Y169410D01*
X145078Y161536D02*
X152190D01*
X145078Y169410D02*
X152190D01*
X159810D02*
X166922D01*
X159810Y161536D02*
X166922D01*
X247932Y256050D02*
Y263924D01*
X226088Y256050D02*
Y263924D01*
X240820D02*
X247932D01*
X240820Y256050D02*
X247932D01*
X226088D02*
X233200D01*
X226088Y263924D02*
X233200D01*
X225190Y158948D02*
X233064D01*
X225190Y180792D02*
X233064D01*
Y158948D02*
Y166060D01*
X225190Y158948D02*
Y166060D01*
Y173680D02*
Y180792D01*
X233064Y173680D02*
Y180792D01*
X245690Y226978D02*
X253564D01*
X245690Y248822D02*
X253564D01*
Y226978D02*
Y234090D01*
X245690Y226978D02*
Y234090D01*
Y241710D02*
Y248822D01*
X253564Y241710D02*
Y248822D01*
X198200Y158938D02*
X206074D01*
X198200Y180782D02*
X206074D01*
Y158938D02*
Y166050D01*
X198200Y158938D02*
Y166050D01*
Y173670D02*
Y180782D01*
X206074Y173670D02*
Y180782D01*
X119064Y225680D02*
Y232792D01*
X111190Y225680D02*
Y232792D01*
Y210948D02*
Y218060D01*
X119064Y210948D02*
Y218060D01*
X111190Y232792D02*
X119064D01*
X111190Y210948D02*
X119064D01*
X99690Y210978D02*
X107564D01*
X99690Y232822D02*
X107564D01*
Y210978D02*
Y218090D01*
X99690Y210978D02*
Y218090D01*
Y225710D02*
Y232822D01*
X107564Y225710D02*
Y232822D01*
D41*
X73130Y201342D02*
Y216328D01*
X61446Y201342D02*
X73130D01*
X61446D02*
Y216328D01*
X73130D01*
X237158Y162742D02*
Y177728D01*
X248842D01*
Y162742D02*
Y177728D01*
X237158Y162742D02*
X248842D01*
D42*
X219281Y63652D02*
X224158D01*
X217147Y63957D02*
X226291D01*
X215623Y64262D02*
X227815D01*
X214404Y64567D02*
X229034D01*
X213490Y64872D02*
X229949D01*
X212575Y65176D02*
X230863D01*
X211966Y65481D02*
X231473D01*
X211051Y65786D02*
X232387D01*
X210442Y66091D02*
X232997D01*
X209832Y66396D02*
X233606D01*
X209222Y66700D02*
X234216D01*
X208918Y67005D02*
X234521D01*
X208308Y67310D02*
X235130D01*
X208003Y67615D02*
X235740D01*
X207394Y67920D02*
X236045D01*
X206784Y68224D02*
X236654D01*
X206479Y68529D02*
X236959D01*
X206174Y68834D02*
X237264D01*
X205565Y69139D02*
X237874D01*
X205260Y69444D02*
X238178D01*
X204955Y69748D02*
X238483D01*
X204650Y70053D02*
X238788D01*
X204346Y70358D02*
X239093D01*
X204041Y70663D02*
X239398D01*
X203736Y70968D02*
X239702D01*
X203431Y71272D02*
X240007D01*
X203126Y71577D02*
X240312D01*
X202822Y71882D02*
X240617D01*
X224158Y72187D02*
X240922D01*
X202517D02*
X218976D01*
X225986Y72492D02*
X241226D01*
X202212D02*
X217452D01*
X226901Y72796D02*
X241531D01*
X201907D02*
X216233D01*
X227815Y73101D02*
X241836D01*
X201602D02*
X215318D01*
X228730Y73406D02*
X242141D01*
X201602D02*
X214709D01*
X229339Y73711D02*
X242446D01*
X201298D02*
X214099D01*
X229949Y74016D02*
X242446D01*
X200993D02*
X213490D01*
X230558Y74320D02*
X242750D01*
X200688D02*
X212880D01*
X230863Y74625D02*
X242750D01*
X200688D02*
X212270D01*
X231473Y74930D02*
X243055D01*
X200383D02*
X211966D01*
X231778Y75235D02*
X243360D01*
X200078D02*
X211356D01*
X232387Y75540D02*
X243665D01*
X200078D02*
X211051D01*
X232692Y75844D02*
X243665D01*
X199774D02*
X210746D01*
X232997Y76149D02*
X243970D01*
X199469D02*
X210442D01*
X233302Y76454D02*
X243970D01*
X199469D02*
X209832D01*
X233606Y76759D02*
X244274D01*
X199164D02*
X209527D01*
X233911Y77064D02*
X244579D01*
X199164D02*
X209222D01*
X234216Y77368D02*
X244579D01*
X198859D02*
X208918D01*
X234521Y77673D02*
X244884D01*
X219890D02*
X224158D01*
X198554D02*
X208613D01*
X234826Y77978D02*
X244884D01*
X218671D02*
X225377D01*
X198554D02*
X208613D01*
X235130Y78283D02*
X245189D01*
X217757D02*
X226291D01*
X198250D02*
X208308D01*
X235435Y78588D02*
X245189D01*
X216842D02*
X226901D01*
X198250D02*
X208003D01*
X235740Y78892D02*
X245494D01*
X216233D02*
X227510D01*
X198250D02*
X207698D01*
X235740Y79197D02*
X245494D01*
X215623D02*
X228120D01*
X200383D02*
X207394D01*
X197945D02*
X200078D01*
X236045Y79502D02*
X245494D01*
X215318D02*
X228425D01*
X200688D02*
X207394D01*
X197945D02*
X199774D01*
X236350Y79807D02*
X245798D01*
X214709D02*
X229034D01*
X200993D02*
X207089D01*
X197640D02*
X199469D01*
X236350Y80112D02*
X245798D01*
X214404D02*
X229339D01*
X201298D02*
X206784D01*
X197640D02*
X199164D01*
X236654Y80416D02*
X245798D01*
X214099D02*
X229644D01*
X201602D02*
X206784D01*
X197640D02*
X198859D01*
X236654Y80721D02*
X246103D01*
X225682D02*
X229949D01*
X213794D02*
X222024D01*
X201907D02*
X206479D01*
X197335D02*
X198554D01*
X236959Y81026D02*
X246103D01*
X226901D02*
X230558D01*
X213490D02*
X220805D01*
X202212D02*
X206479D01*
X200078D02*
X200383D01*
X197335D02*
X198250D01*
X236959Y81331D02*
X246408D01*
X227510D02*
X230558D01*
X213185D02*
X220195D01*
X202517D02*
X206174D01*
X199774D02*
X200688D01*
X197030D02*
X197945D01*
X237264Y81636D02*
X246408D01*
X228120D02*
X230863D01*
X212880D02*
X219586D01*
X202822D02*
X206174D01*
X199469D02*
X200993D01*
X197030D02*
X197640D01*
X237264Y81940D02*
X246408D01*
X228730D02*
X231168D01*
X212575D02*
X218976D01*
X203126D02*
X205870D01*
X199164D02*
X201298D01*
X197030D02*
X197335D01*
X237569Y82245D02*
X246713D01*
X229034D02*
X231473D01*
X212270D02*
X218671D01*
X203736D02*
X205870D01*
X198859D02*
X201602D01*
X237569Y82550D02*
X246713D01*
X229644D02*
X231778D01*
X212270D02*
X218366D01*
X203736D02*
X205565D01*
X198554D02*
X201907D01*
X237874Y82855D02*
X246713D01*
X229949D02*
X231778D01*
X211966D02*
X218062D01*
X204041D02*
X205565D01*
X198250D02*
X202212D01*
X237874Y83160D02*
X246713D01*
X230254D02*
X232082D01*
X211661D02*
X217452D01*
X204346D02*
X205565D01*
X197945D02*
X202517D01*
X237874Y83464D02*
X246713D01*
X230558D02*
X232387D01*
X211661D02*
X217452D01*
X204955D02*
X205260D01*
X197640D02*
X202822D01*
X238178Y83769D02*
X247018D01*
X230863D02*
X232387D01*
X211356D02*
X217147D01*
X197335D02*
X203126D01*
X238178Y84074D02*
X247018D01*
X231168D02*
X232692D01*
X211051D02*
X216842D01*
X197030D02*
X203431D01*
X238178Y84379D02*
X247018D01*
X231168D02*
X232692D01*
X211051D02*
X216538D01*
X197030D02*
X203736D01*
X238483Y84684D02*
X247018D01*
X231473D02*
X232997D01*
X210746D02*
X216538D01*
X196726D02*
X204041D01*
X238483Y84988D02*
X247322D01*
X231473D02*
X232997D01*
X210746D02*
X216233D01*
X196116D02*
X204346D01*
X238483Y85293D02*
X247322D01*
X231778D02*
X233302D01*
X210746D02*
X216233D01*
X196116D02*
X204650D01*
X238483Y85598D02*
X247322D01*
X231778D02*
X233302D01*
X210442D02*
X215928D01*
X195506D02*
X204955D01*
X238788Y85903D02*
X247322D01*
X232082D02*
X233302D01*
X210442D02*
X215928D01*
X195202D02*
X205260D01*
X238788Y86208D02*
X247322D01*
X210442D02*
X215623D01*
X194897D02*
X205565D01*
X238788Y86512D02*
X247322D01*
X210442D02*
X215623D01*
X194592D02*
X205870D01*
X238788Y86817D02*
X247322D01*
X210137D02*
X215623D01*
X194592D02*
X206174D01*
X238788Y87122D02*
X247322D01*
X210137D02*
X215318D01*
X194287D02*
X206479D01*
X238788Y87427D02*
X247322D01*
X210137D02*
X215318D01*
X193678D02*
X206784D01*
X239093Y87732D02*
X247627D01*
X210137D02*
X215318D01*
X193678D02*
X207089D01*
X239093Y88036D02*
X247627D01*
X209832D02*
X233911D01*
X193373D02*
X207394D01*
X239093Y88341D02*
X247627D01*
X209832D02*
X233911D01*
X192763D02*
X207698D01*
X239093Y88646D02*
X247627D01*
X209832D02*
X233911D01*
X192458D02*
X208003D01*
X239093Y88951D02*
X247627D01*
X209832D02*
X233911D01*
X192458D02*
X208308D01*
X239093Y89256D02*
X247627D01*
X209832D02*
X233911D01*
X192154D02*
X208613D01*
X234826Y89560D02*
X251590D01*
X209832D02*
X233911D01*
X195811D02*
X204346D01*
X235130Y89865D02*
X251590D01*
X209832D02*
X233911D01*
X195811D02*
X204346D01*
X235740Y90170D02*
X251285D01*
X209832D02*
X233911D01*
X195811D02*
X204346D01*
X235740Y90475D02*
X250980D01*
X209832D02*
X233911D01*
X195811D02*
X204346D01*
X236045Y90780D02*
X250675D01*
X209832D02*
X233911D01*
X195811D02*
X204346D01*
X236350Y91084D02*
X250370D01*
X210137D02*
X233911D01*
X195811D02*
X204346D01*
X236654Y91389D02*
X250066D01*
X228120D02*
X233911D01*
X210137D02*
X215623D01*
X196116D02*
X204346D01*
X236959Y91694D02*
X249761D01*
X227815D02*
X233606D01*
X210137D02*
X215623D01*
X196116D02*
X204346D01*
X237264Y91999D02*
X249456D01*
X227815D02*
X233606D01*
X210137D02*
X215623D01*
X196116D02*
X204346D01*
X237874Y92304D02*
X249151D01*
X227510D02*
X233606D01*
X210137D02*
X215928D01*
X196116D02*
X204650D01*
X238178Y92608D02*
X248846D01*
X227510D02*
X233606D01*
X210442D02*
X215928D01*
X196116D02*
X204650D01*
X238483Y92913D02*
X248542D01*
X227206D02*
X233606D01*
X210442D02*
X216233D01*
X196116D02*
X204650D01*
X238788Y93218D02*
X248237D01*
X227206D02*
X233302D01*
X210442D02*
X216538D01*
X196116D02*
X204650D01*
X239093Y93523D02*
X247932D01*
X226901D02*
X233302D01*
X210442D02*
X216842D01*
X196116D02*
X204955D01*
X239398Y93828D02*
X247627D01*
X226596D02*
X233302D01*
X210746D02*
X216842D01*
X196421D02*
X204955D01*
X239702Y94132D02*
X247322D01*
X226291D02*
X232997D01*
X210746D02*
X217147D01*
X196421D02*
X204955D01*
X240007Y94437D02*
X247018D01*
X225986D02*
X232997D01*
X211051D02*
X217452D01*
X196421D02*
X204955D01*
X240312Y94742D02*
X246713D01*
X225377D02*
X232692D01*
X211051D02*
X218062D01*
X196421D02*
X205260D01*
X240617Y95047D02*
X246408D01*
X238178D02*
X238483D01*
X225072D02*
X232692D01*
X211356D02*
X218366D01*
X196421D02*
X205260D01*
X240922Y95352D02*
X246103D01*
X237874D02*
X238788D01*
X224462D02*
X232387D01*
X211356D02*
X218976D01*
X196726D02*
X205260D01*
X241226Y95656D02*
X245798D01*
X237874D02*
X239093D01*
X223548D02*
X232387D01*
X211356D02*
X219890D01*
X196726D02*
X205565D01*
X241531Y95961D02*
X245494D01*
X237874D02*
X239398D01*
X211661D02*
X232082D01*
X196726D02*
X205565D01*
X241836Y96266D02*
X245189D01*
X237569D02*
X239702D01*
X211966D02*
X231778D01*
X196726D02*
X205565D01*
X242141Y96571D02*
X244884D01*
X237569D02*
X240007D01*
X212270D02*
X231778D01*
X197030D02*
X205870D01*
X242446Y96876D02*
X244579D01*
X237264D02*
X240312D01*
X212270D02*
X231473D01*
X197030D02*
X205870D01*
X246103Y97180D02*
X246408D01*
X242750D02*
X244274D01*
X237264D02*
X240617D01*
X212575D02*
X231168D01*
X197030D02*
X206174D01*
X245798Y97485D02*
X246408D01*
X243055D02*
X243970D01*
X236959D02*
X240922D01*
X212880D02*
X230863D01*
X197030D02*
X206174D01*
X245494Y97790D02*
X246103D01*
X243360D02*
X243665D01*
X236959D02*
X241226D01*
X213185D02*
X230558D01*
X197335D02*
X206479D01*
X245189Y98095D02*
X246103D01*
X236654D02*
X241531D01*
X213490D02*
X230254D01*
X197335D02*
X206479D01*
X244884Y98400D02*
X246103D01*
X236350D02*
X242141D01*
X213794D02*
X229949D01*
X197640D02*
X206784D01*
X244579Y98704D02*
X245798D01*
X236350D02*
X242446D01*
X214099D02*
X229644D01*
X197640D02*
X207089D01*
X244274Y99009D02*
X245798D01*
X236045D02*
X242750D01*
X214404D02*
X229339D01*
X197640D02*
X207089D01*
X243970Y99314D02*
X245494D01*
X236045D02*
X243055D01*
X215014D02*
X229034D01*
X197945D02*
X207394D01*
X243665Y99619D02*
X245494D01*
X235740D02*
X243360D01*
X215318D02*
X228425D01*
X197945D02*
X207698D01*
X235435Y99924D02*
X245494D01*
X215928D02*
X228120D01*
X198250D02*
X207698D01*
X235130Y100228D02*
X245189D01*
X216233D02*
X227510D01*
X198250D02*
X208003D01*
X234826Y100533D02*
X245189D01*
X216842D02*
X226901D01*
X198250D02*
X208308D01*
X234826Y100838D02*
X244884D01*
X217757D02*
X225986D01*
X198554D02*
X208613D01*
X234521Y101143D02*
X244884D01*
X218671D02*
X225072D01*
X198554D02*
X208918D01*
X234216Y101448D02*
X244579D01*
X220195D02*
X223853D01*
X198859D02*
X208918D01*
X233911Y101752D02*
X244579D01*
X198859D02*
X209527D01*
X233606Y102057D02*
X244274D01*
X199164D02*
X209832D01*
X233302Y102362D02*
X243970D01*
X199469D02*
X210137D01*
X232997Y102667D02*
X243970D01*
X199469D02*
X210442D01*
X232692Y102972D02*
X243665D01*
X199774D02*
X210746D01*
X232082Y103276D02*
X243665D01*
X199774D02*
X211051D01*
X231778Y103581D02*
X243360D01*
X200078D02*
X211356D01*
X231168Y103886D02*
X243055D01*
X200383D02*
X211966D01*
X230863Y104191D02*
X243055D01*
X200688D02*
X212575D01*
X230254Y104496D02*
X242750D01*
X200688D02*
X212880D01*
X229644Y104800D02*
X242446D01*
X200993D02*
X213490D01*
X229034Y105105D02*
X242141D01*
X201298D02*
X214099D01*
X228425Y105410D02*
X242141D01*
X201298D02*
X214709D01*
X227815Y105715D02*
X241836D01*
X201602D02*
X215623D01*
X226596Y106020D02*
X241531D01*
X201907D02*
X216538D01*
X225377Y106324D02*
X241226D01*
X202212D02*
X217757D01*
X223853Y106629D02*
X240922D01*
X202517D02*
X219281D01*
X202822Y106934D02*
X240617D01*
X203126Y107239D02*
X240617D01*
X203431Y107544D02*
X240007D01*
X203736Y107848D02*
X239702D01*
X204041Y108153D02*
X239398D01*
X204346Y108458D02*
X239093D01*
X204650Y108763D02*
X238788D01*
X204955Y109068D02*
X238483D01*
X205260Y109372D02*
X238178D01*
X205565Y109677D02*
X237874D01*
X206174Y109982D02*
X237264D01*
X206479Y110287D02*
X236959D01*
X206784Y110592D02*
X236654D01*
X207394Y110896D02*
X236045D01*
X207698Y111201D02*
X235740D01*
X208308Y111506D02*
X235130D01*
X208918Y111811D02*
X234521D01*
X209222Y112116D02*
X234216D01*
X209832Y112420D02*
X233606D01*
X210442Y112725D02*
X232997D01*
X211051Y113030D02*
X232387D01*
X211966Y113335D02*
X231473D01*
X212575Y113640D02*
X230863D01*
X213490Y113944D02*
X229949D01*
X214404Y114249D02*
X229034D01*
X215623Y114554D02*
X227815D01*
X216842Y114859D02*
X226596D01*
X219281Y115164D02*
X224158D01*
M02*
