G04 Layer_Color=8421504*
%FSLAX44Y44*%
%MOMM*%
G71*
G01*
G75*
%ADD10R,0.5000X2.5000*%
%ADD11R,1.2000X4.9000*%
%ADD12R,0.3000X0.6500*%
G04:AMPARAMS|DCode=14|XSize=0.25mm|YSize=1mm|CornerRadius=0mm|HoleSize=0mm|Usage=FLASHONLY|Rotation=270.000|XOffset=0mm|YOffset=0mm|HoleType=Round|Shape=Octagon|*
%AMOCTAGOND14*
4,1,8,0.5000,0.0625,0.5000,-0.0625,0.4375,-0.1250,-0.4375,-0.1250,-0.5000,-0.0625,-0.5000,0.0625,-0.4375,0.1250,0.4375,0.1250,0.5000,0.0625,0.0*
%
%ADD14OCTAGOND14*%

G04:AMPARAMS|DCode=15|XSize=0.25mm|YSize=1mm|CornerRadius=0mm|HoleSize=0mm|Usage=FLASHONLY|Rotation=180.000|XOffset=0mm|YOffset=0mm|HoleType=Round|Shape=Octagon|*
%AMOCTAGOND15*
4,1,8,0.0625,-0.5000,-0.0625,-0.5000,-0.1250,-0.4375,-0.1250,0.4375,-0.0625,0.5000,0.0625,0.5000,0.1250,0.4375,0.1250,-0.4375,0.0625,-0.5000,0.0*
%
%ADD15OCTAGOND15*%

%ADD17R,0.5080X0.6350*%
%ADD18R,0.6350X0.5080*%
%ADD19R,1.2500X1.0000*%
%ADD20R,1.0000X0.8000*%
%ADD21R,0.8500X0.7500*%
%ADD22R,1.5240X1.2700*%
%ADD23R,0.3000X0.3000*%
%ADD32C,0.2540*%
%ADD43R,1.7600X1.7600*%
%ADD44R,1.7600X1.7600*%
%ADD45R,1.7600X1.7600*%
D10*
X150000Y384810D02*
D03*
D11*
X107500Y373380D02*
D03*
X192500D02*
D03*
D12*
X239014Y243224D02*
D03*
Y229724D02*
D03*
D14*
X208788Y200828D02*
D03*
Y204828D02*
D03*
Y208828D02*
D03*
Y212828D02*
D03*
Y216828D02*
D03*
Y220828D02*
D03*
Y224828D02*
D03*
Y228828D02*
D03*
Y232828D02*
D03*
Y236828D02*
D03*
Y240828D02*
D03*
Y244828D02*
D03*
Y248828D02*
D03*
Y252828D02*
D03*
Y256828D02*
D03*
Y260828D02*
D03*
Y264828D02*
D03*
X130978D02*
D03*
Y260828D02*
D03*
Y256828D02*
D03*
Y252828D02*
D03*
Y248828D02*
D03*
Y244828D02*
D03*
Y240828D02*
D03*
Y236828D02*
D03*
Y232828D02*
D03*
Y228828D02*
D03*
Y224828D02*
D03*
Y220828D02*
D03*
Y216828D02*
D03*
Y212828D02*
D03*
Y208828D02*
D03*
Y204828D02*
D03*
Y200828D02*
D03*
D15*
X202010Y271860D02*
D03*
X198010D02*
D03*
X194010D02*
D03*
X190010D02*
D03*
X186010D02*
D03*
X182010D02*
D03*
X178010D02*
D03*
X174010D02*
D03*
X170010D02*
D03*
X166010D02*
D03*
X162010D02*
D03*
X158010D02*
D03*
X154010D02*
D03*
X150010D02*
D03*
X146010D02*
D03*
X142010D02*
D03*
X138010D02*
D03*
Y193796D02*
D03*
X142010D02*
D03*
X146010D02*
D03*
X150010D02*
D03*
X154010D02*
D03*
X158010D02*
D03*
X162010D02*
D03*
X166010D02*
D03*
X170010D02*
D03*
X174010D02*
D03*
X178010D02*
D03*
X182010D02*
D03*
X186010D02*
D03*
X190010D02*
D03*
X194010D02*
D03*
X198010D02*
D03*
X202010D02*
D03*
D17*
X127000Y290710D02*
D03*
Y302690D02*
D03*
X137000Y290610D02*
D03*
Y302590D02*
D03*
X227838Y243988D02*
D03*
Y232008D02*
D03*
X174700Y301990D02*
D03*
Y290010D02*
D03*
X245000Y205880D02*
D03*
Y217860D02*
D03*
X115000Y190880D02*
D03*
Y202860D02*
D03*
X115593Y252807D02*
D03*
Y240828D02*
D03*
X217010Y175839D02*
D03*
Y163860D02*
D03*
X229000Y175860D02*
D03*
Y163880D02*
D03*
X249500Y243890D02*
D03*
Y231910D02*
D03*
X202010Y163870D02*
D03*
Y175849D02*
D03*
X115000Y227860D02*
D03*
Y215880D02*
D03*
X103500Y215910D02*
D03*
Y227890D02*
D03*
D18*
X242990Y191870D02*
D03*
X231010D02*
D03*
X150010Y165600D02*
D03*
X161990D02*
D03*
X243000Y259860D02*
D03*
X231021D02*
D03*
D19*
X231000Y202870D02*
D03*
Y217870D02*
D03*
D20*
X231010Y288877D02*
D03*
Y270843D02*
D03*
D21*
X100550Y284150D02*
D03*
X114050D02*
D03*
Y273650D02*
D03*
X100550D02*
D03*
D22*
X90200Y253959D02*
D03*
X67340D02*
D03*
D23*
X150080Y298570D02*
D03*
Y286830D02*
D03*
Y292700D02*
D03*
X155080Y298570D02*
D03*
Y286830D02*
D03*
Y292700D02*
D03*
D32*
X120000Y-234765D02*
X130157D01*
X125078D01*
Y-250000D01*
X142853Y-234765D02*
X137774D01*
X135235Y-237304D01*
Y-247461D01*
X137774Y-250000D01*
X142853D01*
X145392Y-247461D01*
Y-237304D01*
X142853Y-234765D01*
X150470Y-250000D02*
Y-234765D01*
X158088D01*
X160627Y-237304D01*
Y-242383D01*
X158088Y-244922D01*
X150470D01*
X180940Y-250000D02*
Y-234765D01*
X188558D01*
X191097Y-237304D01*
Y-242383D01*
X188558Y-244922D01*
X180940D01*
X196175Y-250000D02*
Y-239843D01*
X201254Y-234765D01*
X206332Y-239843D01*
Y-250000D01*
Y-242383D01*
X196175D01*
X221567Y-237304D02*
X219028Y-234765D01*
X213950D01*
X211410Y-237304D01*
Y-239843D01*
X213950Y-242383D01*
X219028D01*
X221567Y-244922D01*
Y-247461D01*
X219028Y-250000D01*
X213950D01*
X211410Y-247461D01*
X226646Y-234765D02*
X236802D01*
X231724D01*
Y-250000D01*
X252037Y-234765D02*
X241881D01*
Y-250000D01*
X252037D01*
X241881Y-242383D02*
X246959D01*
X0Y-174765D02*
Y-190000D01*
X7617D01*
X10157Y-187461D01*
Y-184922D01*
X7617Y-182383D01*
X0D01*
X7617D01*
X10157Y-179843D01*
Y-177304D01*
X7617Y-174765D01*
X0D01*
X22853D02*
X17774D01*
X15235Y-177304D01*
Y-187461D01*
X17774Y-190000D01*
X22853D01*
X25392Y-187461D01*
Y-177304D01*
X22853Y-174765D01*
X30470Y-190000D02*
Y-179843D01*
X35549Y-174765D01*
X40627Y-179843D01*
Y-190000D01*
Y-182383D01*
X30470D01*
X45705Y-190000D02*
Y-174765D01*
X53323D01*
X55862Y-177304D01*
Y-182383D01*
X53323Y-184922D01*
X45705D01*
X50784D02*
X55862Y-190000D01*
X60940Y-174765D02*
Y-190000D01*
X68558D01*
X71097Y-187461D01*
Y-177304D01*
X68558Y-174765D01*
X60940D01*
X91410Y-179843D02*
X93950D01*
Y-182383D01*
X91410D01*
Y-179843D01*
Y-187461D02*
X93950D01*
Y-190000D01*
X91410D01*
Y-187461D01*
X129498Y-177304D02*
X126959Y-174765D01*
X121881D01*
X119341Y-177304D01*
Y-179843D01*
X121881Y-182383D01*
X126959D01*
X129498Y-184922D01*
Y-187461D01*
X126959Y-190000D01*
X121881D01*
X119341Y-187461D01*
X134577Y-174765D02*
X144733D01*
X139655D01*
Y-190000D01*
X149811D02*
Y-174765D01*
X154890Y-179843D01*
X159968Y-174765D01*
Y-190000D01*
X165047Y-177304D02*
X167586Y-174765D01*
X172664D01*
X175203Y-177304D01*
Y-179843D01*
X172664Y-182383D01*
X170125D01*
X172664D01*
X175203Y-184922D01*
Y-187461D01*
X172664Y-190000D01*
X167586D01*
X165047Y-187461D01*
X190438Y-190000D02*
X180282D01*
X190438Y-179843D01*
Y-177304D01*
X187899Y-174765D01*
X182821D01*
X180282Y-177304D01*
X195517Y-174765D02*
Y-190000D01*
X200595Y-184922D01*
X205674Y-190000D01*
Y-174765D01*
X210752D02*
Y-190000D01*
X218369D01*
X220909Y-187461D01*
Y-184922D01*
X218369Y-182383D01*
X210752D01*
X218369D01*
X220909Y-179843D01*
Y-177304D01*
X218369Y-174765D01*
X210752D01*
X236144D02*
X225987D01*
Y-182383D01*
X231065Y-179843D01*
X233604D01*
X236144Y-182383D01*
Y-187461D01*
X233604Y-190000D01*
X228526D01*
X225987Y-187461D01*
X251379Y-174765D02*
X241222D01*
Y-182383D01*
X246300Y-179843D01*
X248839D01*
X251379Y-182383D01*
Y-187461D01*
X248839Y-190000D01*
X243761D01*
X241222Y-187461D01*
X256457Y-192539D02*
X266614D01*
X271692Y-174765D02*
Y-190000D01*
X279310D01*
X281849Y-187461D01*
Y-177304D01*
X279310Y-174765D01*
X271692D01*
X286927D02*
Y-190000D01*
X294545D01*
X297084Y-187461D01*
Y-184922D01*
X294545Y-182383D01*
X286927D01*
X294545D01*
X297084Y-179843D01*
Y-177304D01*
X294545Y-174765D01*
X286927D01*
X302162Y-192539D02*
X312319D01*
X327554Y-187461D02*
Y-177304D01*
X325015Y-174765D01*
X319937D01*
X317397Y-177304D01*
Y-187461D01*
X319937Y-190000D01*
X325015D01*
X322476Y-184922D02*
X327554Y-190000D01*
X325015D02*
X327554Y-187461D01*
X342789Y-174765D02*
X332632D01*
Y-182383D01*
X337711D01*
X332632D01*
Y-190000D01*
X347868D02*
Y-174765D01*
X358024Y-190000D01*
Y-174765D01*
X373259D02*
X368181Y-177304D01*
X363103Y-182383D01*
Y-187461D01*
X365642Y-190000D01*
X370720D01*
X373259Y-187461D01*
Y-184922D01*
X370720Y-182383D01*
X363103D01*
X378338Y-177304D02*
X380877Y-174765D01*
X385955D01*
X388494Y-177304D01*
Y-179843D01*
X385955Y-182383D01*
X388494Y-184922D01*
Y-187461D01*
X385955Y-190000D01*
X380877D01*
X378338Y-187461D01*
Y-184922D01*
X380877Y-182383D01*
X378338Y-179843D01*
Y-177304D01*
X380877Y-182383D02*
X385955D01*
X393573Y-192539D02*
X403729D01*
X408808Y-190000D02*
Y-174765D01*
X416425D01*
X418965Y-177304D01*
Y-182383D01*
X416425Y-184922D01*
X408808D01*
X0Y-220000D02*
Y-204765D01*
X7617D01*
X10157Y-207304D01*
Y-212383D01*
X7617Y-214922D01*
X0D01*
X5078D02*
X10157Y-220000D01*
X25392Y-204765D02*
X15235D01*
Y-220000D01*
X25392D01*
X15235Y-212383D02*
X20313D01*
X30470Y-204765D02*
Y-214922D01*
X35549Y-220000D01*
X40627Y-214922D01*
Y-204765D01*
X91410Y-209843D02*
X93950D01*
Y-212383D01*
X91410D01*
Y-209843D01*
Y-217461D02*
X93950D01*
Y-220000D01*
X91410D01*
Y-217461D01*
X119341Y-220000D02*
Y-209843D01*
X124420Y-204765D01*
X129498Y-209843D01*
Y-220000D01*
Y-212383D01*
X119341D01*
X10157Y-234765D02*
X0D01*
Y-242383D01*
X5078D01*
X0D01*
Y-250000D01*
X15235Y-234765D02*
X20313D01*
X17774D01*
Y-250000D01*
X15235D01*
X20313D01*
X27931Y-234765D02*
Y-250000D01*
X38088D01*
X43166D02*
Y-234765D01*
X48244Y-239843D01*
X53323Y-234765D01*
Y-250000D01*
X88871Y-239843D02*
X91410D01*
Y-242383D01*
X88871D01*
Y-239843D01*
Y-247461D02*
X91410D01*
Y-250000D01*
X88871D01*
Y-247461D01*
X0Y-264765D02*
Y-280000D01*
X7617D01*
X10157Y-277461D01*
Y-267304D01*
X7617Y-264765D01*
X0D01*
X15235Y-280000D02*
Y-264765D01*
X22853D01*
X25392Y-267304D01*
Y-272383D01*
X22853Y-274922D01*
X15235D01*
X20313D02*
X25392Y-280000D01*
X30470D02*
Y-269843D01*
X35549Y-264765D01*
X40627Y-269843D01*
Y-280000D01*
Y-272383D01*
X30470D01*
X45705Y-264765D02*
Y-280000D01*
X50784Y-274922D01*
X55862Y-280000D01*
Y-264765D01*
X60940Y-280000D02*
Y-264765D01*
X71097Y-280000D01*
Y-264765D01*
X91410Y-269843D02*
X93950D01*
Y-272383D01*
X91410D01*
Y-269843D01*
Y-277461D02*
X93950D01*
Y-280000D01*
X91410D01*
Y-277461D01*
X129498Y-267304D02*
X126959Y-264765D01*
X121881D01*
X119341Y-267304D01*
Y-277461D01*
X121881Y-280000D01*
X126959D01*
X129498Y-277461D01*
X144733Y-264765D02*
X134577D01*
Y-280000D01*
X144733D01*
X134577Y-272383D02*
X139655D01*
X149811Y-280000D02*
Y-264765D01*
X159968Y-280000D01*
Y-264765D01*
X165047D02*
X175203D01*
X170125D01*
Y-280000D01*
X180282Y-264765D02*
Y-277461D01*
X182821Y-280000D01*
X187899D01*
X190438Y-277461D01*
Y-264765D01*
X195517Y-280000D02*
Y-264765D01*
X200595Y-269843D01*
X205674Y-264765D01*
Y-280000D01*
X210752Y-272383D02*
X220909D01*
X225987Y-280000D02*
Y-269843D01*
X231065Y-264765D01*
X236144Y-269843D01*
Y-280000D01*
Y-272383D01*
X225987D01*
X241222Y-264765D02*
Y-280000D01*
X248839D01*
X251379Y-277461D01*
Y-267304D01*
X248839Y-264765D01*
X241222D01*
X266614D02*
X256457D01*
Y-280000D01*
X266614D01*
X256457Y-272383D02*
X261535D01*
X271692Y-280000D02*
Y-264765D01*
X281849Y-280000D01*
Y-264765D01*
X297084D02*
X286927D01*
Y-280000D01*
X297084D01*
X286927Y-272383D02*
X292006D01*
X309780Y-264765D02*
X304701D01*
X302162Y-267304D01*
Y-277461D01*
X304701Y-280000D01*
X309780D01*
X312319Y-277461D01*
Y-267304D01*
X309780Y-264765D01*
X0Y-294765D02*
Y-310000D01*
X7617D01*
X10157Y-307461D01*
Y-297304D01*
X7617Y-294765D01*
X0D01*
X15235Y-310000D02*
Y-299843D01*
X20313Y-294765D01*
X25392Y-299843D01*
Y-310000D01*
Y-302383D01*
X15235D01*
X30470Y-294765D02*
X40627D01*
X35549D01*
Y-310000D01*
X55862Y-294765D02*
X45705D01*
Y-310000D01*
X55862D01*
X45705Y-302383D02*
X50784D01*
X91410Y-299843D02*
X93950D01*
Y-302383D01*
X91410D01*
Y-299843D01*
Y-307461D02*
X93950D01*
Y-310000D01*
X91410D01*
Y-307461D01*
X129498Y-310000D02*
X119341D01*
X129498Y-299843D01*
Y-297304D01*
X126959Y-294765D01*
X121881D01*
X119341Y-297304D01*
X134577D02*
X137116Y-294765D01*
X142194D01*
X144733Y-297304D01*
Y-307461D01*
X142194Y-310000D01*
X137116D01*
X134577Y-307461D01*
Y-297304D01*
X149811Y-310000D02*
X154890D01*
X152351D01*
Y-294765D01*
X149811Y-297304D01*
X162507Y-294765D02*
X172664D01*
Y-297304D01*
X162507Y-307461D01*
Y-310000D01*
X177743D02*
X187899Y-299843D01*
X200595Y-310000D02*
Y-294765D01*
X192978Y-302383D01*
X203134D01*
X218369Y-294765D02*
X208213D01*
Y-302383D01*
X213291Y-299843D01*
X215830D01*
X218369Y-302383D01*
Y-307461D01*
X215830Y-310000D01*
X210752D01*
X208213Y-307461D01*
D43*
X191256Y253238D02*
D03*
X169920D02*
D03*
X149092Y253492D02*
D03*
Y232738D02*
D03*
X149018Y212090D02*
D03*
X169666D02*
D03*
X191002Y212344D02*
D03*
D44*
X191256Y232828D02*
D03*
D45*
X170010Y232828D02*
D03*
M02*
