G04 Layer_Physical_Order=2*
G04 Layer_Color=16711680*
%FSLAX44Y44*%
%MOMM*%
G71*
G01*
G75*
%ADD11R,1.2000X4.9000*%
%ADD24C,0.2500*%
%ADD25C,0.4000*%
%ADD26C,0.2000*%
%ADD32C,0.2540*%
%ADD33C,0.1020*%
%ADD34C,1.8000*%
%ADD35R,1.8000X1.8000*%
%ADD36C,0.4000*%
G36*
X297961Y2039D02*
X2039D01*
Y397961D01*
X297961D01*
Y2039D01*
D02*
G37*
%LPC*%
G36*
X210000Y178929D02*
X210000Y178929D01*
X195000D01*
X193829Y178696D01*
X192837Y178033D01*
X192174Y177041D01*
X191941Y175870D01*
X192174Y174699D01*
X192837Y173707D01*
X193829Y173044D01*
X195000Y172811D01*
X208733D01*
X218807Y162737D01*
X219799Y162074D01*
X220970Y161841D01*
X220970Y161841D01*
X235703D01*
X240837Y156707D01*
X241829Y156044D01*
X243000Y155811D01*
X244170Y156044D01*
X245163Y156707D01*
X245826Y157699D01*
X246059Y158870D01*
X245826Y160040D01*
X245163Y161033D01*
X239133Y167063D01*
X238141Y167726D01*
X236970Y167959D01*
X236970Y167959D01*
X222237D01*
X212163Y178033D01*
X211171Y178696D01*
X210000Y178929D01*
D02*
G37*
G36*
X277000Y204191D02*
X274259Y203830D01*
X271705Y202772D01*
X269511Y201089D01*
X267828Y198895D01*
X266770Y196341D01*
X266409Y193600D01*
X266770Y190859D01*
X267828Y188305D01*
X268259Y187743D01*
X259555Y179039D01*
X225245D01*
X212972Y191312D01*
X212310Y191754D01*
X211530Y191909D01*
X196270D01*
X195490Y191754D01*
X194828Y191312D01*
X194828Y191312D01*
X193058Y189542D01*
X192616Y188880D01*
X192461Y188100D01*
Y187146D01*
X192337Y187063D01*
X191674Y186070D01*
X191441Y184900D01*
X191674Y183729D01*
X192337Y182737D01*
X193330Y182074D01*
X194500Y181841D01*
X195671Y182074D01*
X196663Y182737D01*
X197537Y183437D01*
X198529Y182774D01*
X199700Y182541D01*
X200870Y182774D01*
X201863Y183437D01*
X201945Y183561D01*
X209327D01*
X221630Y171258D01*
X221630Y171258D01*
X222291Y170816D01*
X223072Y170661D01*
X241025D01*
X244928Y166758D01*
X244928Y166758D01*
X245590Y166316D01*
X246370Y166161D01*
X246370Y166161D01*
X261463D01*
X261508Y166052D01*
X261648Y165994D01*
X261731Y165866D01*
X270671Y159669D01*
X270948Y159609D01*
X271705Y159028D01*
X274259Y157970D01*
X277000Y157609D01*
X279741Y157970D01*
X282295Y159028D01*
X284489Y160711D01*
X286172Y162905D01*
X287230Y165459D01*
X287591Y168200D01*
X287230Y170941D01*
X286172Y173495D01*
X284489Y175689D01*
X282295Y177372D01*
X279741Y178430D01*
X277000Y178791D01*
X274259Y178430D01*
X271705Y177372D01*
X270931Y176778D01*
X270633Y176704D01*
X265265Y172756D01*
X262874Y171126D01*
X262446Y170869D01*
X262269Y170778D01*
X262203Y170759D01*
X262153Y170720D01*
X262132Y170708D01*
X262114Y170688D01*
X261884Y170504D01*
X261508Y170348D01*
X261463Y170239D01*
X247215D01*
X243763Y173691D01*
X244289Y174961D01*
X260400D01*
X261180Y175116D01*
X261842Y175558D01*
X271143Y184859D01*
X271705Y184428D01*
X274259Y183370D01*
X277000Y183009D01*
X279741Y183370D01*
X282295Y184428D01*
X284489Y186111D01*
X286172Y188305D01*
X287230Y190859D01*
X287591Y193600D01*
X287230Y196341D01*
X286172Y198895D01*
X284489Y201089D01*
X282295Y202772D01*
X279741Y203830D01*
X277000Y204191D01*
D02*
G37*
G36*
X23000Y229591D02*
X20259Y229230D01*
X17705Y228172D01*
X15511Y226489D01*
X13828Y224295D01*
X12770Y221741D01*
X12409Y219000D01*
X12770Y216259D01*
X13828Y213705D01*
X15511Y211511D01*
X17705Y209828D01*
X20259Y208770D01*
X23000Y208409D01*
X25741Y208770D01*
X28295Y209828D01*
X30489Y211511D01*
X32172Y213705D01*
X33230Y216259D01*
X33591Y219000D01*
X33230Y221741D01*
X32172Y224295D01*
X30489Y226489D01*
X28295Y228172D01*
X25741Y229230D01*
X23000Y229591D01*
D02*
G37*
G36*
Y77191D02*
X20259Y76830D01*
X17705Y75772D01*
X15511Y74089D01*
X13828Y71895D01*
X12770Y69341D01*
X12409Y66600D01*
X12770Y63859D01*
X13828Y61305D01*
X15511Y59111D01*
X17705Y57428D01*
X20259Y56370D01*
X23000Y56009D01*
X25741Y56370D01*
X28295Y57428D01*
X30489Y59111D01*
X32172Y61305D01*
X33230Y63859D01*
X33591Y66600D01*
X33230Y69341D01*
X32172Y71895D01*
X30489Y74089D01*
X28295Y75772D01*
X25741Y76830D01*
X23000Y77191D01*
D02*
G37*
G36*
X69302Y26453D02*
X42302D01*
X41154Y25978D01*
X40679Y24830D01*
Y12830D01*
X41154Y11682D01*
X42302Y11206D01*
X69302D01*
X70450Y11682D01*
X70926Y12830D01*
Y24830D01*
X70450Y25978D01*
X69302Y26453D01*
D02*
G37*
G36*
X23000Y51791D02*
X20259Y51430D01*
X17705Y50372D01*
X15511Y48689D01*
X13828Y46495D01*
X12770Y43941D01*
X12409Y41200D01*
X12770Y38459D01*
X13828Y35905D01*
X15511Y33711D01*
X17705Y32028D01*
X20259Y30970D01*
X23000Y30609D01*
X25741Y30970D01*
X28295Y32028D01*
X30489Y33711D01*
X32172Y35905D01*
X33230Y38459D01*
X33591Y41200D01*
X33230Y43941D01*
X32172Y46495D01*
X30489Y48689D01*
X28295Y50372D01*
X25741Y51430D01*
X23000Y51791D01*
D02*
G37*
G36*
X277000D02*
X274259Y51430D01*
X271705Y50372D01*
X269511Y48689D01*
X267828Y46495D01*
X266770Y43941D01*
X266409Y41200D01*
X266770Y38459D01*
X267828Y35905D01*
X269511Y33711D01*
X271705Y32028D01*
X274259Y30970D01*
X277000Y30609D01*
X279741Y30970D01*
X282295Y32028D01*
X284489Y33711D01*
X286172Y35905D01*
X287230Y38459D01*
X287591Y41200D01*
X287230Y43941D01*
X286172Y46495D01*
X284489Y48689D01*
X282295Y50372D01*
X279741Y51430D01*
X277000Y51791D01*
D02*
G37*
G36*
X287500Y356500D02*
X266500D01*
Y348517D01*
X266325Y348502D01*
X265988Y348493D01*
X265438Y348248D01*
X264883Y348018D01*
X264874Y347997D01*
X264853Y347988D01*
X264823Y347909D01*
X252170D01*
X251390Y347754D01*
X250728Y347312D01*
X250728Y347312D01*
X246858Y343442D01*
X246416Y342780D01*
X246261Y342000D01*
Y306555D01*
X235689Y295983D01*
X234759Y296061D01*
X233936Y297250D01*
X234059Y297870D01*
X233826Y299041D01*
X233163Y300033D01*
X233163Y300033D01*
X230808Y302388D01*
X229816Y303051D01*
X228645Y303284D01*
X228645Y303284D01*
X188225D01*
X188225Y303284D01*
X187054Y303051D01*
X186062Y302388D01*
X181233Y297559D01*
X178069D01*
X177775Y297878D01*
X177246Y298829D01*
X177339Y299300D01*
Y300947D01*
X191232Y314840D01*
X191378Y314811D01*
X192549Y315044D01*
X193541Y315707D01*
X194204Y316700D01*
X194437Y317870D01*
X194204Y319041D01*
X193541Y320033D01*
X192549Y320696D01*
X191378Y320929D01*
X190208Y320696D01*
X189215Y320033D01*
X188552Y319041D01*
X188319Y317870D01*
X188348Y317724D01*
X173858Y303234D01*
X173416Y302572D01*
X173261Y301792D01*
Y300145D01*
X155022Y281906D01*
X154580Y281244D01*
X154425Y280464D01*
Y263387D01*
X152577Y261539D01*
X144736D01*
X141439Y264836D01*
Y284186D01*
X141439Y284186D01*
X141284Y284966D01*
X140842Y285628D01*
X140842Y285628D01*
X136028Y290442D01*
X135366Y290884D01*
X134586Y291039D01*
X122100D01*
X121320Y290884D01*
X120658Y290442D01*
X114455Y284239D01*
X62245D01*
X35429Y311055D01*
X35474Y311164D01*
X35415Y311305D01*
X35448Y311454D01*
X33508Y322157D01*
X33354Y322396D01*
X33230Y323341D01*
X32172Y325895D01*
X30489Y328089D01*
X28295Y329772D01*
X25741Y330830D01*
X23000Y331191D01*
X20259Y330830D01*
X17705Y329772D01*
X15511Y328089D01*
X13828Y325895D01*
X12770Y323341D01*
X12409Y320600D01*
X12770Y317859D01*
X13828Y315305D01*
X15511Y313111D01*
X17705Y311428D01*
X20259Y310370D01*
X21226Y310243D01*
X21488Y310085D01*
X28076Y309081D01*
X30920Y308542D01*
X31404Y308422D01*
X31594Y308360D01*
X31654Y308327D01*
X31717Y308320D01*
X31740Y308313D01*
X31766Y308315D01*
X32059Y308282D01*
X32436Y308126D01*
X32545Y308171D01*
X59958Y280758D01*
X59958Y280758D01*
X60620Y280316D01*
X61400Y280161D01*
X61400Y280161D01*
X115300D01*
X116080Y280316D01*
X116742Y280758D01*
X122945Y286961D01*
X130893D01*
X131278Y285691D01*
X130937Y285463D01*
X130274Y284471D01*
X130041Y283300D01*
X130274Y282129D01*
X130937Y281137D01*
X132241Y279833D01*
Y260000D01*
X132241Y260000D01*
X132474Y258829D01*
X133137Y257837D01*
X136974Y254000D01*
X126578Y243604D01*
X125985Y242717D01*
X125791Y242589D01*
X124573Y242372D01*
X111222Y255722D01*
X110478Y256219D01*
X109600Y256394D01*
X106339D01*
X105542Y256926D01*
X104372Y257159D01*
X103202Y256926D01*
X102209Y256263D01*
X101546Y255271D01*
X101313Y254100D01*
X101546Y252929D01*
X102209Y251937D01*
X103202Y251274D01*
X104372Y251041D01*
X105542Y251274D01*
X106339Y251806D01*
X108650D01*
X120906Y239550D01*
Y235167D01*
X120374Y234370D01*
X120141Y233200D01*
X120374Y232029D01*
X120575Y231729D01*
X119896Y230459D01*
X78200D01*
X78200Y230459D01*
X77030Y230226D01*
X76037Y229563D01*
X76037Y229563D01*
X64837Y218363D01*
X64174Y217370D01*
X63941Y216200D01*
X63941Y216200D01*
Y197200D01*
X64174Y196029D01*
X64837Y195037D01*
X65830Y194374D01*
X67000Y194141D01*
X68170Y194374D01*
X69163Y195037D01*
X69826Y196029D01*
X70059Y197200D01*
Y214933D01*
X79467Y224341D01*
X125400D01*
X125400Y224341D01*
X126571Y224574D01*
X127563Y225237D01*
X130904Y228578D01*
X130904Y228578D01*
X131567Y229571D01*
X131800Y230741D01*
Y240174D01*
X142567Y250941D01*
X154918D01*
X154918Y250941D01*
X156089Y251174D01*
X157081Y251837D01*
X163463Y258219D01*
X164126Y259211D01*
X164359Y260382D01*
Y278033D01*
X177767Y291441D01*
X182086D01*
X182637Y290358D01*
X182655Y290214D01*
X178765Y286324D01*
X178323Y285662D01*
X178168Y284882D01*
Y284508D01*
X178044Y284426D01*
X177381Y283433D01*
X177148Y282263D01*
X177381Y281092D01*
X178044Y280100D01*
X179036Y279437D01*
X180207Y279204D01*
X181378Y279437D01*
X182370Y280100D01*
X183033Y281092D01*
X183266Y282263D01*
X183033Y283433D01*
X182476Y284267D01*
X185489Y287281D01*
X186867Y286863D01*
X186874Y286829D01*
X187537Y285837D01*
X188529Y285174D01*
X189700Y284941D01*
X190129Y283732D01*
X190034Y283066D01*
X189790Y282922D01*
X188800Y282725D01*
X187808Y282062D01*
X187145Y281070D01*
X186912Y279899D01*
X187145Y278729D01*
X187808Y277737D01*
X187931Y277654D01*
Y268100D01*
X175812Y255982D01*
X174639Y256468D01*
Y277854D01*
X174763Y277937D01*
X175426Y278930D01*
X175659Y280100D01*
X175426Y281271D01*
X174763Y282263D01*
X173771Y282926D01*
X172600Y283159D01*
X171430Y282926D01*
X170437Y282263D01*
X169774Y281271D01*
X169541Y280100D01*
X169774Y278930D01*
X170437Y277937D01*
X170561Y277854D01*
Y255445D01*
X162858Y247742D01*
X162416Y247080D01*
X162261Y246300D01*
Y194588D01*
X162416Y193808D01*
X162858Y193146D01*
X167061Y188943D01*
Y181091D01*
X165791Y180412D01*
X165471Y180626D01*
X164300Y180859D01*
X163399Y180679D01*
X163274Y180702D01*
X162560Y181141D01*
X162159Y181505D01*
Y189400D01*
X162159Y189400D01*
X161926Y190571D01*
X161263Y191563D01*
X161263Y191563D01*
X143763Y209063D01*
X142771Y209726D01*
X141600Y209959D01*
X141600Y209959D01*
X133050D01*
X131880Y209726D01*
X130887Y209063D01*
X130887Y209063D01*
X127983Y206158D01*
X106990D01*
X105820Y205926D01*
X104827Y205263D01*
X104164Y204270D01*
X103931Y203100D01*
X104164Y201929D01*
X104827Y200937D01*
X105820Y200274D01*
X106990Y200041D01*
X129250D01*
X129250Y200041D01*
X130421Y200274D01*
X131413Y200937D01*
X134317Y203841D01*
X140333D01*
X154051Y190123D01*
X154049Y190046D01*
X153551Y188827D01*
X152840Y188686D01*
X151847Y188023D01*
X151184Y187030D01*
X150966Y185933D01*
X150184Y185290D01*
X149000Y185796D01*
X148826Y186670D01*
X148163Y187663D01*
X147170Y188326D01*
X146000Y188559D01*
X144830Y188326D01*
X143837Y187663D01*
X143174Y186670D01*
X142941Y185500D01*
X142987Y185271D01*
X137745Y180028D01*
X58729D01*
X46539Y192219D01*
Y273700D01*
X46539Y273700D01*
X46384Y274480D01*
X45942Y275142D01*
X35429Y285655D01*
X35474Y285764D01*
X35415Y285905D01*
X35448Y286054D01*
X33508Y296757D01*
X33354Y296996D01*
X33230Y297941D01*
X32172Y300495D01*
X30489Y302689D01*
X28295Y304372D01*
X25741Y305430D01*
X23000Y305791D01*
X20259Y305430D01*
X17705Y304372D01*
X15511Y302689D01*
X13828Y300495D01*
X12770Y297941D01*
X12409Y295200D01*
X12770Y292459D01*
X13828Y289905D01*
X15511Y287711D01*
X17705Y286028D01*
X20259Y284970D01*
X21226Y284843D01*
X21488Y284685D01*
X28076Y283681D01*
X30920Y283142D01*
X31404Y283022D01*
X31594Y282960D01*
X31654Y282927D01*
X31717Y282920D01*
X31740Y282913D01*
X31766Y282915D01*
X32059Y282882D01*
X32436Y282726D01*
X32545Y282771D01*
X42461Y272855D01*
Y255019D01*
X41191Y254493D01*
X35429Y260255D01*
X35474Y260364D01*
X35415Y260505D01*
X35448Y260654D01*
X33508Y271357D01*
X33354Y271595D01*
X33230Y272541D01*
X32172Y275095D01*
X30489Y277289D01*
X28295Y278972D01*
X25741Y280030D01*
X23000Y280391D01*
X20259Y280030D01*
X17705Y278972D01*
X15511Y277289D01*
X13828Y275095D01*
X12770Y272541D01*
X12409Y269800D01*
X12770Y267059D01*
X13828Y264505D01*
X15511Y262311D01*
X17705Y260628D01*
X20259Y259570D01*
X21226Y259443D01*
X21488Y259285D01*
X28076Y258281D01*
X30920Y257742D01*
X31404Y257622D01*
X31594Y257560D01*
X31654Y257527D01*
X31717Y257520D01*
X31740Y257513D01*
X31766Y257515D01*
X32059Y257482D01*
X32436Y257326D01*
X32545Y257371D01*
X38761Y251155D01*
Y233319D01*
X37491Y232793D01*
X35429Y234855D01*
X35474Y234964D01*
X35415Y235105D01*
X35448Y235254D01*
X33508Y245957D01*
X33354Y246196D01*
X33230Y247141D01*
X32172Y249695D01*
X30489Y251889D01*
X28295Y253572D01*
X25741Y254630D01*
X23000Y254991D01*
X20259Y254630D01*
X17705Y253572D01*
X15511Y251889D01*
X13828Y249695D01*
X12770Y247141D01*
X12409Y244400D01*
X12770Y241659D01*
X13828Y239105D01*
X15511Y236911D01*
X17705Y235228D01*
X20259Y234170D01*
X21226Y234043D01*
X21488Y233885D01*
X28076Y232881D01*
X30920Y232342D01*
X31404Y232222D01*
X31594Y232160D01*
X31654Y232127D01*
X31717Y232120D01*
X31740Y232113D01*
X31766Y232115D01*
X32059Y232082D01*
X32436Y231926D01*
X32545Y231971D01*
X35055Y229462D01*
Y186506D01*
X35124Y186156D01*
X33954Y185530D01*
X31741Y187743D01*
X32172Y188305D01*
X33230Y190859D01*
X33591Y193600D01*
X33230Y196341D01*
X32172Y198895D01*
X30489Y201089D01*
X28295Y202772D01*
X25741Y203830D01*
X23000Y204191D01*
X20259Y203830D01*
X17705Y202772D01*
X15511Y201089D01*
X13828Y198895D01*
X12770Y196341D01*
X12409Y193600D01*
X12770Y190859D01*
X13828Y188305D01*
X15511Y186111D01*
X17705Y184428D01*
X19441Y183709D01*
X19188Y182439D01*
X16300D01*
X16300Y182439D01*
X15520Y182284D01*
X14858Y181842D01*
X14858Y181842D01*
X8958Y175942D01*
X8516Y175280D01*
X8361Y174500D01*
Y155400D01*
X8516Y154620D01*
X8958Y153958D01*
X10572Y152345D01*
X10526Y152236D01*
X10585Y152095D01*
X10552Y151946D01*
X12492Y141243D01*
X12646Y141004D01*
X12770Y140059D01*
X13828Y137505D01*
X15511Y135311D01*
X17705Y133628D01*
X20259Y132570D01*
X23000Y132209D01*
X25741Y132570D01*
X28295Y133628D01*
X30489Y135311D01*
X32172Y137505D01*
X33230Y140059D01*
X33591Y142800D01*
X33230Y145541D01*
X32172Y148095D01*
X30489Y150289D01*
X28295Y151972D01*
X25741Y153030D01*
X24774Y153157D01*
X24512Y153315D01*
X17924Y154319D01*
X15080Y154858D01*
X14596Y154978D01*
X14406Y155040D01*
X14346Y155073D01*
X14283Y155080D01*
X14260Y155087D01*
X14234Y155085D01*
X13941Y155118D01*
X13564Y155274D01*
X13455Y155229D01*
X12439Y156245D01*
Y162940D01*
X13709Y163192D01*
X13828Y162905D01*
X15511Y160711D01*
X17705Y159028D01*
X20259Y157970D01*
X21226Y157843D01*
X21488Y157685D01*
X28076Y156681D01*
X30920Y156142D01*
X31404Y156022D01*
X31594Y155960D01*
X31654Y155927D01*
X31717Y155920D01*
X31740Y155913D01*
X31766Y155915D01*
X32059Y155882D01*
X32436Y155726D01*
X32545Y155771D01*
X37898Y150418D01*
X38560Y149976D01*
X39340Y149820D01*
X163760D01*
X164540Y149976D01*
X165202Y150418D01*
X175788Y161004D01*
X176961Y160518D01*
Y143715D01*
X152555Y119309D01*
X38559D01*
X38523Y119401D01*
X38378Y119463D01*
X38294Y119596D01*
X29406Y125874D01*
X29121Y125938D01*
X28295Y126572D01*
X25741Y127630D01*
X23000Y127991D01*
X20259Y127630D01*
X17705Y126572D01*
X15511Y124889D01*
X13828Y122695D01*
X12770Y120141D01*
X12409Y117400D01*
X12770Y114659D01*
X13828Y112105D01*
X15511Y109911D01*
X17705Y108228D01*
X20259Y107170D01*
X23000Y106809D01*
X25741Y107170D01*
X28295Y108228D01*
X29002Y108770D01*
X29290Y108838D01*
X34687Y112735D01*
X37094Y114345D01*
X37524Y114598D01*
X37706Y114689D01*
X37774Y114709D01*
X37825Y114749D01*
X37841Y114757D01*
X37854Y114772D01*
X38088Y114958D01*
X38460Y115105D01*
X38514Y115231D01*
X153400D01*
X154180Y115386D01*
X154842Y115828D01*
X180442Y141428D01*
X180884Y142090D01*
X181039Y142870D01*
Y194550D01*
X180884Y195330D01*
X180442Y195992D01*
X180442Y195992D01*
X176239Y200195D01*
Y242155D01*
X199942Y265858D01*
X200384Y266520D01*
X200539Y267300D01*
Y268810D01*
X201809Y269307D01*
X207058Y264058D01*
X207058Y264058D01*
X207720Y263616D01*
X208500Y263461D01*
X214076D01*
X214754Y262191D01*
X214674Y262071D01*
X214441Y260900D01*
X214470Y260754D01*
X205958Y252242D01*
X205516Y251580D01*
X205361Y250800D01*
Y242445D01*
X183568Y220652D01*
X183126Y219991D01*
X182971Y219210D01*
Y161860D01*
X183126Y161079D01*
X183568Y160418D01*
X226128Y117858D01*
X226790Y117416D01*
X227570Y117261D01*
X227570Y117261D01*
X248725D01*
X264518Y101468D01*
X264469Y101347D01*
X264527Y101210D01*
X264497Y101064D01*
X266502Y90377D01*
X266654Y90144D01*
X266770Y89259D01*
X267828Y86705D01*
X269511Y84511D01*
X271705Y82828D01*
X274259Y81770D01*
X277000Y81409D01*
X279741Y81770D01*
X282295Y82828D01*
X284489Y84511D01*
X286172Y86705D01*
X287230Y89259D01*
X287591Y92000D01*
X287230Y94741D01*
X286172Y97295D01*
X284489Y99489D01*
X282295Y101172D01*
X279741Y102230D01*
X278713Y102365D01*
X278445Y102525D01*
X271847Y103487D01*
X268999Y104008D01*
X268515Y104126D01*
X268328Y104186D01*
X268269Y104217D01*
X268207Y104224D01*
X268180Y104233D01*
X268149Y104230D01*
X267859Y104261D01*
X267476Y104415D01*
X267379Y104374D01*
X251012Y120742D01*
X250350Y121184D01*
X249570Y121339D01*
X228415D01*
X210393Y139361D01*
X210919Y140631D01*
X261486D01*
X261540Y140505D01*
X261677Y140451D01*
X261758Y140328D01*
X270748Y134212D01*
X271016Y134157D01*
X271705Y133628D01*
X274259Y132570D01*
X277000Y132209D01*
X279741Y132570D01*
X282295Y133628D01*
X284489Y135311D01*
X286172Y137505D01*
X287230Y140059D01*
X287591Y142800D01*
X287230Y145541D01*
X286172Y148095D01*
X284489Y150289D01*
X282295Y151972D01*
X279741Y153030D01*
X277000Y153391D01*
X274259Y153030D01*
X271705Y151972D01*
X270861Y151325D01*
X270557Y151247D01*
X265220Y147247D01*
X262842Y145595D01*
X262418Y145336D01*
X262244Y145245D01*
X262181Y145227D01*
X262133Y145188D01*
X262106Y145174D01*
X262085Y145149D01*
X261859Y144966D01*
X261478Y144801D01*
X261441Y144709D01*
X210575D01*
X190139Y165145D01*
Y216655D01*
X211152Y237668D01*
X212422Y237142D01*
Y225239D01*
X212577Y224458D01*
X213019Y223797D01*
X215972Y220844D01*
X215620Y219400D01*
X215007Y218991D01*
X214344Y217998D01*
X214111Y216828D01*
X214344Y215657D01*
X215007Y214665D01*
X216000Y214002D01*
X217170Y213769D01*
X217316Y213798D01*
X226961Y204153D01*
Y187115D01*
X226837Y187033D01*
X226174Y186040D01*
X225941Y184870D01*
X226174Y183699D01*
X226837Y182707D01*
X227829Y182044D01*
X229000Y181811D01*
X230170Y182044D01*
X231163Y182707D01*
X231826Y183699D01*
X232059Y184870D01*
X231826Y186040D01*
X231163Y187033D01*
X231039Y187115D01*
Y204998D01*
X230884Y205778D01*
X230442Y206440D01*
X221321Y215561D01*
X221847Y216831D01*
X266695D01*
X266770Y216259D01*
X267828Y213705D01*
X269511Y211511D01*
X271705Y209828D01*
X274259Y208770D01*
X277000Y208409D01*
X279741Y208770D01*
X282295Y209828D01*
X284489Y211511D01*
X286172Y213705D01*
X287230Y216259D01*
X287591Y219000D01*
X287230Y221741D01*
X286172Y224295D01*
X284489Y226489D01*
X282295Y228172D01*
X281356Y228561D01*
X281609Y229831D01*
X281970D01*
X282750Y229986D01*
X283412Y230428D01*
X290142Y237158D01*
X290142Y237158D01*
X290584Y237820D01*
X290739Y238600D01*
Y308900D01*
X290584Y309680D01*
X290142Y310342D01*
X289429Y311055D01*
X289474Y311164D01*
X289415Y311305D01*
X289448Y311454D01*
X287508Y322157D01*
X287354Y322396D01*
X287230Y323341D01*
X286172Y325895D01*
X284489Y328089D01*
X282295Y329772D01*
X279741Y330830D01*
X277000Y331191D01*
X274259Y330830D01*
X271705Y329772D01*
X269511Y328089D01*
X267828Y325895D01*
X266770Y323341D01*
X266409Y320600D01*
X266770Y317859D01*
X267828Y315305D01*
X269511Y313111D01*
X271705Y311428D01*
X274259Y310370D01*
X275226Y310243D01*
X275488Y310085D01*
X282076Y309081D01*
X284920Y308542D01*
X285404Y308422D01*
X285594Y308360D01*
X285654Y308327D01*
X285717Y308320D01*
X285740Y308313D01*
X286544Y307563D01*
X286661Y306953D01*
Y301944D01*
X285391Y301513D01*
X284489Y302689D01*
X282295Y304372D01*
X279741Y305430D01*
X277000Y305791D01*
X274259Y305430D01*
X271705Y304372D01*
X270861Y303725D01*
X270557Y303647D01*
X265220Y299647D01*
X262842Y297995D01*
X262418Y297736D01*
X262244Y297645D01*
X262181Y297627D01*
X262133Y297588D01*
X262106Y297574D01*
X262085Y297549D01*
X261859Y297366D01*
X261478Y297201D01*
X261441Y297109D01*
X257000D01*
X257000Y297109D01*
X256220Y296954D01*
X255558Y296512D01*
X255558Y296512D01*
X248513Y289467D01*
X223846D01*
X223726Y290070D01*
X223063Y291063D01*
X222123Y291691D01*
X222105Y291786D01*
X222461Y292961D01*
X224359D01*
X225261Y292058D01*
X225261Y292058D01*
X225923Y291616D01*
X226703Y291461D01*
X236090D01*
X236870Y291616D01*
X237532Y292058D01*
X249742Y304268D01*
X250184Y304930D01*
X250339Y305710D01*
Y341155D01*
X253015Y343831D01*
X264823D01*
X264853Y343752D01*
X264874Y343743D01*
X264883Y343722D01*
X265438Y343492D01*
X265988Y343247D01*
X266325Y343238D01*
X266500Y343223D01*
Y335500D01*
X287500D01*
Y356500D01*
D02*
G37*
%LPD*%
G36*
X271595Y161003D02*
X262656Y167200D01*
Y169200D01*
X262869Y169262D01*
X263234Y169448D01*
X263749Y169758D01*
X266204Y171431D01*
X271595Y175397D01*
Y161003D01*
D02*
G37*
G36*
X271661Y135555D02*
X262671Y141670D01*
X262642Y143670D01*
X262854Y143733D01*
X263217Y143921D01*
X263730Y144235D01*
X266171Y145930D01*
X271531Y149948D01*
X271661Y135555D01*
D02*
G37*
G36*
X37358Y118270D02*
X37329Y116270D01*
X37114Y116209D01*
X36748Y116025D01*
X36229Y115720D01*
X33761Y114069D01*
X28339Y110155D01*
X28469Y124548D01*
X37358Y118270D01*
D02*
G37*
G36*
X261540Y292905D02*
X261677Y292851D01*
X261758Y292728D01*
X270748Y286612D01*
X271016Y286557D01*
X271705Y286028D01*
X274259Y284970D01*
X277000Y284609D01*
X279741Y284970D01*
X282295Y286028D01*
X284489Y287711D01*
X285391Y288887D01*
X286661Y288456D01*
Y276544D01*
X285391Y276113D01*
X284489Y277289D01*
X282295Y278972D01*
X279741Y280030D01*
X277000Y280391D01*
X274259Y280030D01*
X271705Y278972D01*
X270861Y278325D01*
X270557Y278247D01*
X265220Y274247D01*
X262842Y272595D01*
X262418Y272336D01*
X262244Y272245D01*
X262181Y272227D01*
X262133Y272188D01*
X262106Y272174D01*
X262085Y272149D01*
X261859Y271966D01*
X261478Y271801D01*
X261441Y271709D01*
X257845D01*
X251252Y278302D01*
X250591Y278744D01*
X249810Y278899D01*
X219256D01*
X219173Y279023D01*
X218181Y279686D01*
X217010Y279918D01*
X215840Y279686D01*
X214847Y279023D01*
X214184Y278030D01*
X214009Y277150D01*
X212739Y277275D01*
Y288655D01*
X217045Y292961D01*
X219338D01*
X219695Y291786D01*
X219677Y291691D01*
X218737Y291063D01*
X218074Y290070D01*
X217841Y288900D01*
X218074Y287729D01*
X218737Y286737D01*
X219729Y286074D01*
X220900Y285841D01*
X221090Y285879D01*
X221592Y285544D01*
X222372Y285389D01*
X222372Y285389D01*
X249358D01*
X250138Y285544D01*
X250800Y285986D01*
X257845Y293031D01*
X261486D01*
X261540Y292905D01*
D02*
G37*
G36*
X13759Y153543D02*
X14148Y153417D01*
X14732Y153271D01*
X17651Y152718D01*
X24267Y151710D01*
X14090Y141533D01*
X12150Y152236D01*
X13564Y153650D01*
X13759Y153543D01*
D02*
G37*
G36*
X267687Y102686D02*
X268076Y102562D01*
X268661Y102420D01*
X271583Y101885D01*
X278210Y100918D01*
X268098Y90676D01*
X266093Y101363D01*
X267492Y102792D01*
X267687Y102686D01*
D02*
G37*
G36*
X287850Y311164D02*
X286436Y309750D01*
X286241Y309857D01*
X285852Y309983D01*
X285268Y310129D01*
X282349Y310682D01*
X275733Y311690D01*
X285910Y321867D01*
X287850Y311164D01*
D02*
G37*
G36*
X268061Y343870D02*
X268041Y344060D01*
X267980Y344230D01*
X267878Y344380D01*
X267736Y344510D01*
X267553Y344620D01*
X267330Y344710D01*
X267066Y344780D01*
X266761Y344830D01*
X266416Y344860D01*
X266031Y344870D01*
Y346870D01*
X266416Y346880D01*
X266761Y346910D01*
X267066Y346960D01*
X267330Y347030D01*
X267553Y347120D01*
X267736Y347230D01*
X267878Y347360D01*
X267980Y347510D01*
X268041Y347680D01*
X268061Y347870D01*
Y343870D01*
D02*
G37*
G36*
X271661Y287955D02*
X262671Y294070D01*
X262642Y296070D01*
X262854Y296133D01*
X263217Y296321D01*
X263730Y296635D01*
X266171Y298330D01*
X271531Y302348D01*
X271661Y287955D01*
D02*
G37*
G36*
X33850Y311164D02*
X32436Y309750D01*
X32241Y309857D01*
X31852Y309983D01*
X31268Y310129D01*
X28349Y310682D01*
X21733Y311690D01*
X31910Y321867D01*
X33850Y311164D01*
D02*
G37*
G36*
Y234964D02*
X32436Y233550D01*
X32241Y233657D01*
X31852Y233783D01*
X31268Y233929D01*
X28349Y234482D01*
X21733Y235490D01*
X31910Y245667D01*
X33850Y234964D01*
D02*
G37*
G36*
X272644Y228561D02*
X271705Y228172D01*
X269511Y226489D01*
X267828Y224295D01*
X266770Y221741D01*
X266661Y220909D01*
X224971D01*
X224292Y222179D01*
X224526Y222530D01*
X224759Y223700D01*
X224526Y224870D01*
X223863Y225863D01*
Y226570D01*
X224263Y226837D01*
X224926Y227829D01*
X225159Y229000D01*
X226083Y229831D01*
X272391D01*
X272644Y228561D01*
D02*
G37*
G36*
X230971Y261245D02*
Y247248D01*
X221334Y237610D01*
X221126Y237472D01*
X221126Y237472D01*
X217771Y234116D01*
X216500Y234642D01*
Y245217D01*
X226232Y254948D01*
X226232Y254948D01*
X226674Y255610D01*
X226829Y256390D01*
X226829Y256390D01*
Y263591D01*
X228099Y264117D01*
X230971Y261245D01*
D02*
G37*
G36*
X255558Y268228D02*
X255558Y268228D01*
X256220Y267786D01*
X257000Y267631D01*
X261486D01*
X261540Y267505D01*
X261677Y267451D01*
X261758Y267328D01*
X270748Y261212D01*
X270829Y261066D01*
X270281Y259909D01*
X246370D01*
X246370Y259909D01*
X245590Y259754D01*
X244928Y259312D01*
X239546Y253930D01*
X239400Y253959D01*
X238230Y253726D01*
X237237Y253063D01*
X236574Y252071D01*
X236341Y250900D01*
X236574Y249729D01*
X237237Y248737D01*
X238230Y248074D01*
X239400Y247841D01*
X240571Y248074D01*
X241563Y248737D01*
X242226Y249729D01*
X242459Y250900D01*
X242430Y251046D01*
X247215Y255831D01*
X273993D01*
X274259Y254630D01*
X271705Y253572D01*
X269511Y251889D01*
X267828Y249695D01*
X266770Y247141D01*
X266409Y244400D01*
X266770Y241659D01*
X267828Y239105D01*
X269511Y236911D01*
X271705Y235228D01*
X271823Y235179D01*
X271571Y233909D01*
X225196D01*
X224819Y234450D01*
X224627Y235136D01*
X234452Y244961D01*
X234452Y244961D01*
X234894Y245623D01*
X235049Y246403D01*
X235049Y246404D01*
Y262090D01*
X235049Y262090D01*
X234894Y262870D01*
X234452Y263532D01*
X224433Y273550D01*
X224453Y273828D01*
X224851Y274820D01*
X248966D01*
X255558Y268228D01*
D02*
G37*
G36*
X33850Y260364D02*
X32436Y258950D01*
X32241Y259057D01*
X31852Y259183D01*
X31268Y259329D01*
X28349Y259882D01*
X21733Y260890D01*
X31910Y271067D01*
X33850Y260364D01*
D02*
G37*
G36*
Y158764D02*
X32436Y157350D01*
X32241Y157457D01*
X31852Y157583D01*
X31268Y157729D01*
X28349Y158282D01*
X21733Y159290D01*
X31910Y169467D01*
X33850Y158764D01*
D02*
G37*
G36*
X170361Y173210D02*
Y165945D01*
X161649Y157233D01*
X55551D01*
X49240Y163544D01*
X49821Y164677D01*
X49861Y164719D01*
X159365D01*
X160146Y164874D01*
X160807Y165316D01*
X169188Y173696D01*
X170361Y173210D01*
D02*
G37*
G36*
X271661Y262555D02*
X262671Y268670D01*
X262642Y270670D01*
X262854Y270733D01*
X263217Y270921D01*
X263730Y271235D01*
X266171Y272930D01*
X271531Y276948D01*
X271661Y262555D01*
D02*
G37*
G36*
X33850Y285764D02*
X32436Y284350D01*
X32241Y284457D01*
X31852Y284583D01*
X31268Y284729D01*
X28349Y285282D01*
X21733Y286290D01*
X31910Y296467D01*
X33850Y285764D01*
D02*
G37*
D11*
X192500Y373380D02*
D03*
X107500D02*
D03*
D24*
X109600Y254100D02*
X123300Y240400D01*
X104372Y254100D02*
X109600D01*
X123200Y233200D02*
Y240300D01*
X123300Y240400D01*
D25*
X141600Y206900D02*
X159100Y189400D01*
Y180900D02*
Y189400D01*
X133050Y206900D02*
X141600D01*
X129250Y203100D02*
X133050Y206900D01*
X125400Y227400D02*
X128741Y230741D01*
X78200Y227400D02*
X125400D01*
X67000Y216200D02*
X78200Y227400D01*
X176500Y294500D02*
X182500D01*
X161300Y279300D02*
X176500Y294500D01*
X161300Y260382D02*
Y279300D01*
X182500Y294500D02*
X188225Y300225D01*
X228645D01*
X67000Y197200D02*
Y216200D01*
X106990Y203100D02*
X129250D01*
X154918Y254000D02*
X161300Y260382D01*
X236970Y164900D02*
X243000Y158870D01*
X220970Y164900D02*
X236970D01*
X210031Y175839D02*
X220970Y164900D01*
X228645Y300225D02*
X231000Y297870D01*
X210000Y175870D02*
X210031Y175839D01*
X195000Y175870D02*
X210000D01*
X133100Y283300D02*
X135300Y281100D01*
Y260000D02*
Y281100D01*
Y260000D02*
X141300Y254000D01*
X128741Y230741D02*
Y241441D01*
X141300Y254000D01*
X154918D01*
D26*
X175300Y301792D02*
X191378Y317870D01*
X222100Y229000D02*
X224970Y231870D01*
X218100Y227300D02*
X221700Y223700D01*
X218100Y227300D02*
Y231562D01*
X214461Y225239D02*
X220830Y218870D01*
X214461Y225239D02*
Y246061D01*
X224970Y231870D02*
X281970D01*
X218100Y231562D02*
X222568Y236030D01*
X241870Y172700D02*
X246370Y168200D01*
X223072Y172700D02*
X241870D01*
X210172Y185600D02*
X223072Y172700D01*
X260400Y177000D02*
X277000Y193600D01*
X224400Y177000D02*
X260400D01*
X211530Y189870D02*
X224400Y177000D01*
X194500Y184900D02*
Y188100D01*
X196270Y189870D01*
X211530D01*
X199700Y185600D02*
X210172D01*
X233010Y246403D02*
Y262090D01*
X222927Y272174D02*
X233010Y262090D01*
X214226Y272174D02*
X222927D01*
X224790Y256390D02*
Y265210D01*
X221190Y268810D02*
X224790Y265210D01*
X211690Y268810D02*
X221190D01*
X221510Y258510D02*
Y263590D01*
X210600Y247600D02*
X221510Y258510D01*
X210600Y240000D02*
Y247600D01*
X214461Y246061D02*
X224790Y256390D01*
X188100Y217500D02*
X210600Y240000D01*
X207400Y250800D02*
X217500Y260900D01*
X207400Y241600D02*
Y250800D01*
X185010Y219210D02*
X207400Y241600D01*
X219600Y265500D02*
X221510Y263590D01*
X208500Y265500D02*
X219600D01*
X202900Y271100D02*
X208500Y265500D01*
X206800Y273700D02*
X211690Y268810D01*
X210700Y275700D02*
X214226Y272174D01*
X206800Y273700D02*
Y290990D01*
X210700Y275700D02*
Y289500D01*
X175600Y163700D02*
Y193300D01*
X163760Y151860D02*
X175600Y163700D01*
X39340Y151860D02*
X163760D01*
X159365Y166758D02*
X169100Y176493D01*
X49842Y166758D02*
X159365D01*
X23000Y193600D02*
X49842Y166758D01*
X157100Y170600D02*
X164300Y177800D01*
X53000Y170600D02*
X157100D01*
X37094Y186506D02*
X53000Y170600D01*
X164300Y194588D02*
X169100Y189788D01*
Y176493D02*
Y189788D01*
X167800Y196074D02*
X172400Y191474D01*
Y165100D02*
Y191474D01*
X162494Y155194D02*
X172400Y165100D01*
X171058Y197842D02*
X175600Y193300D01*
X174200Y199350D02*
X179000Y194550D01*
Y142870D02*
Y194550D01*
X153400Y117270D02*
X179000Y142870D01*
X146000Y185400D02*
Y185500D01*
X138589Y177989D02*
X146000Y185400D01*
X57885Y177989D02*
X138589D01*
X164300Y246300D02*
X172600Y254600D01*
X175300Y299300D02*
Y301792D01*
X156464Y280464D02*
X175300Y299300D01*
X156464Y262542D02*
Y280464D01*
X172600Y254600D02*
Y280100D01*
X180207Y284882D02*
X187383Y292058D01*
X180207Y282263D02*
Y284882D01*
X189970Y267335D02*
Y279899D01*
Y267335D02*
X190010Y267295D01*
X194010Y267053D02*
Y283637D01*
X194000Y283647D02*
X194010Y283637D01*
X189700Y288000D02*
X195678D01*
X198500Y267300D02*
Y285178D01*
X196343Y291000D02*
X199400D01*
X195285Y292058D02*
X196343Y291000D01*
X187383Y292058D02*
X195285D01*
X198000Y295000D02*
X202790D01*
X195678Y288000D02*
X198500Y285178D01*
X174200Y243000D02*
X198500Y267300D01*
X199400Y291000D02*
X202900Y287500D01*
X202790Y295000D02*
X206800Y290990D01*
X194010Y267053D02*
X194010Y267053D01*
X171058Y244101D02*
X194010Y267053D01*
X202900Y271100D02*
Y287500D01*
X190010Y267295D02*
X190010Y267295D01*
X167800Y245085D02*
X190010Y267295D01*
X167800Y196074D02*
Y245085D01*
X171058Y197842D02*
Y244101D01*
X174200Y199350D02*
Y243000D01*
X246370Y257870D02*
X280000D01*
X239400Y250900D02*
X246370Y257870D01*
X222637Y236030D02*
X233010Y246403D01*
X222568Y236030D02*
X222637D01*
X222372Y287428D02*
X249358D01*
X220900Y288900D02*
X222372Y287428D01*
X54706Y155194D02*
X162494D01*
X164300Y194588D02*
Y246300D01*
X188100Y164300D02*
X209730Y142670D01*
X188100Y164300D02*
Y217500D01*
X185010Y161860D02*
Y219210D01*
X29500Y180400D02*
X54706Y155194D01*
X16300Y180400D02*
X29500D01*
X37094Y186506D02*
Y230306D01*
X55510Y174200D02*
X142351D01*
X40800Y188910D02*
X55510Y174200D01*
X40800Y188910D02*
Y252000D01*
X142351Y174200D02*
X154010Y185860D01*
X23000Y295200D02*
X44500Y273700D01*
Y191374D02*
Y273700D01*
Y191374D02*
X57885Y177989D01*
X23000Y269800D02*
X40800Y252000D01*
X23000Y244400D02*
X37094Y230306D01*
X10400Y174500D02*
X16300Y180400D01*
X23000Y168200D02*
X39340Y151860D01*
X153422Y259500D02*
X156464Y262542D01*
X143891Y259500D02*
X153422D01*
X115300Y282200D02*
X122100Y289000D01*
X248300Y305710D02*
Y342000D01*
X236090Y293500D02*
X248300Y305710D01*
X226703Y293500D02*
X236090D01*
X225203Y295000D02*
X226703Y293500D01*
X249358Y287428D02*
X257000Y295070D01*
X216200Y295000D02*
X225203D01*
X210700Y289500D02*
X216200Y295000D01*
X10400Y155400D02*
Y174500D01*
Y155400D02*
X23000Y142800D01*
X277000Y320600D02*
X288700Y308900D01*
Y238600D02*
Y308900D01*
X281970Y231870D02*
X288700Y238600D01*
X246370Y168200D02*
X269870D01*
X270000Y168070D01*
X269870Y168200D02*
X270000D01*
X248300Y342000D02*
X252170Y345870D01*
X229000Y184870D02*
Y204998D01*
X217170Y216828D02*
X229000Y204998D01*
X217010Y276860D02*
X249810D01*
X257000Y269670D01*
X30100Y117270D02*
X153400D01*
X30000Y117370D02*
X30100Y117270D01*
X185010Y161860D02*
X227570Y119300D01*
X249570D01*
X23000Y320600D02*
X61400Y282200D01*
X115300D01*
X122100Y289000D02*
X134586D01*
X139400Y263991D02*
X143891Y259500D01*
X139400Y263991D02*
Y284186D01*
X134586Y289000D02*
X139400Y284186D01*
X26435Y146235D02*
X30000Y142670D01*
X257000Y269670D02*
X277000D01*
X220830Y218870D02*
X277000D01*
X209730Y142670D02*
X277000D01*
X257000Y295070D02*
X277000D01*
X249570Y119300D02*
X277000Y91870D01*
X252170Y345870D02*
X277000D01*
D32*
X120000Y-234765D02*
Y-250000D01*
X130157D01*
X135235D02*
Y-239843D01*
X140313Y-234765D01*
X145392Y-239843D01*
Y-250000D01*
Y-242383D01*
X135235D01*
X150470Y-234765D02*
Y-237304D01*
X155548Y-242383D01*
X160627Y-237304D01*
Y-234765D01*
X155548Y-242383D02*
Y-250000D01*
X175862Y-234765D02*
X165705D01*
Y-250000D01*
X175862D01*
X165705Y-242383D02*
X170784D01*
X180940Y-250000D02*
Y-234765D01*
X188558D01*
X191097Y-237304D01*
Y-242383D01*
X188558Y-244922D01*
X180940D01*
X186019D02*
X191097Y-250000D01*
X211410Y-234765D02*
Y-250000D01*
X219028D01*
X221567Y-247461D01*
Y-244922D01*
X219028Y-242383D01*
X211410D01*
X219028D01*
X221567Y-239843D01*
Y-237304D01*
X219028Y-234765D01*
X211410D01*
X234263D02*
X229185D01*
X226646Y-237304D01*
Y-247461D01*
X229185Y-250000D01*
X234263D01*
X236802Y-247461D01*
Y-237304D01*
X234263Y-234765D01*
X241881D02*
X252037D01*
X246959D01*
Y-250000D01*
X257116Y-234765D02*
X267272D01*
X262194D01*
Y-250000D01*
X279968Y-234765D02*
X274890D01*
X272351Y-237304D01*
Y-247461D01*
X274890Y-250000D01*
X279968D01*
X282507Y-247461D01*
Y-237304D01*
X279968Y-234765D01*
X287586Y-250000D02*
Y-234765D01*
X292664Y-239843D01*
X297743Y-234765D01*
Y-250000D01*
X0Y-174765D02*
Y-190000D01*
X7617D01*
X10157Y-187461D01*
Y-184922D01*
X7617Y-182383D01*
X0D01*
X7617D01*
X10157Y-179843D01*
Y-177304D01*
X7617Y-174765D01*
X0D01*
X22853D02*
X17774D01*
X15235Y-177304D01*
Y-187461D01*
X17774Y-190000D01*
X22853D01*
X25392Y-187461D01*
Y-177304D01*
X22853Y-174765D01*
X30470Y-190000D02*
Y-179843D01*
X35549Y-174765D01*
X40627Y-179843D01*
Y-190000D01*
Y-182383D01*
X30470D01*
X45705Y-190000D02*
Y-174765D01*
X53323D01*
X55862Y-177304D01*
Y-182383D01*
X53323Y-184922D01*
X45705D01*
X50784D02*
X55862Y-190000D01*
X60940Y-174765D02*
Y-190000D01*
X68558D01*
X71097Y-187461D01*
Y-177304D01*
X68558Y-174765D01*
X60940D01*
X91410Y-179843D02*
X93950D01*
Y-182383D01*
X91410D01*
Y-179843D01*
Y-187461D02*
X93950D01*
Y-190000D01*
X91410D01*
Y-187461D01*
X129498Y-177304D02*
X126959Y-174765D01*
X121881D01*
X119341Y-177304D01*
Y-179843D01*
X121881Y-182383D01*
X126959D01*
X129498Y-184922D01*
Y-187461D01*
X126959Y-190000D01*
X121881D01*
X119341Y-187461D01*
X134577Y-174765D02*
X144733D01*
X139655D01*
Y-190000D01*
X149811D02*
Y-174765D01*
X154890Y-179843D01*
X159968Y-174765D01*
Y-190000D01*
X165047Y-177304D02*
X167586Y-174765D01*
X172664D01*
X175203Y-177304D01*
Y-179843D01*
X172664Y-182383D01*
X170125D01*
X172664D01*
X175203Y-184922D01*
Y-187461D01*
X172664Y-190000D01*
X167586D01*
X165047Y-187461D01*
X190438Y-190000D02*
X180282D01*
X190438Y-179843D01*
Y-177304D01*
X187899Y-174765D01*
X182821D01*
X180282Y-177304D01*
X195517Y-174765D02*
Y-190000D01*
X200595Y-184922D01*
X205674Y-190000D01*
Y-174765D01*
X210752D02*
Y-190000D01*
X218369D01*
X220909Y-187461D01*
Y-184922D01*
X218369Y-182383D01*
X210752D01*
X218369D01*
X220909Y-179843D01*
Y-177304D01*
X218369Y-174765D01*
X210752D01*
X236144D02*
X225987D01*
Y-182383D01*
X231065Y-179843D01*
X233604D01*
X236144Y-182383D01*
Y-187461D01*
X233604Y-190000D01*
X228526D01*
X225987Y-187461D01*
X251379Y-174765D02*
X241222D01*
Y-182383D01*
X246300Y-179843D01*
X248839D01*
X251379Y-182383D01*
Y-187461D01*
X248839Y-190000D01*
X243761D01*
X241222Y-187461D01*
X256457Y-192539D02*
X266614D01*
X271692Y-174765D02*
Y-190000D01*
X279310D01*
X281849Y-187461D01*
Y-177304D01*
X279310Y-174765D01*
X271692D01*
X286927D02*
Y-190000D01*
X294545D01*
X297084Y-187461D01*
Y-184922D01*
X294545Y-182383D01*
X286927D01*
X294545D01*
X297084Y-179843D01*
Y-177304D01*
X294545Y-174765D01*
X286927D01*
X302162Y-192539D02*
X312319D01*
X327554Y-187461D02*
Y-177304D01*
X325015Y-174765D01*
X319937D01*
X317397Y-177304D01*
Y-187461D01*
X319937Y-190000D01*
X325015D01*
X322476Y-184922D02*
X327554Y-190000D01*
X325015D02*
X327554Y-187461D01*
X342789Y-174765D02*
X332632D01*
Y-182383D01*
X337711D01*
X332632D01*
Y-190000D01*
X347868D02*
Y-174765D01*
X358024Y-190000D01*
Y-174765D01*
X373259D02*
X368181Y-177304D01*
X363103Y-182383D01*
Y-187461D01*
X365642Y-190000D01*
X370720D01*
X373259Y-187461D01*
Y-184922D01*
X370720Y-182383D01*
X363103D01*
X378338Y-177304D02*
X380877Y-174765D01*
X385955D01*
X388494Y-177304D01*
Y-179843D01*
X385955Y-182383D01*
X388494Y-184922D01*
Y-187461D01*
X385955Y-190000D01*
X380877D01*
X378338Y-187461D01*
Y-184922D01*
X380877Y-182383D01*
X378338Y-179843D01*
Y-177304D01*
X380877Y-182383D02*
X385955D01*
X393573Y-192539D02*
X403729D01*
X408808Y-190000D02*
Y-174765D01*
X416425D01*
X418965Y-177304D01*
Y-182383D01*
X416425Y-184922D01*
X408808D01*
X0Y-220000D02*
Y-204765D01*
X7617D01*
X10157Y-207304D01*
Y-212383D01*
X7617Y-214922D01*
X0D01*
X5078D02*
X10157Y-220000D01*
X25392Y-204765D02*
X15235D01*
Y-220000D01*
X25392D01*
X15235Y-212383D02*
X20313D01*
X30470Y-204765D02*
Y-214922D01*
X35549Y-220000D01*
X40627Y-214922D01*
Y-204765D01*
X91410Y-209843D02*
X93950D01*
Y-212383D01*
X91410D01*
Y-209843D01*
Y-217461D02*
X93950D01*
Y-220000D01*
X91410D01*
Y-217461D01*
X119341Y-220000D02*
Y-209843D01*
X124420Y-204765D01*
X129498Y-209843D01*
Y-220000D01*
Y-212383D01*
X119341D01*
X10157Y-234765D02*
X0D01*
Y-242383D01*
X5078D01*
X0D01*
Y-250000D01*
X15235Y-234765D02*
X20313D01*
X17774D01*
Y-250000D01*
X15235D01*
X20313D01*
X27931Y-234765D02*
Y-250000D01*
X38088D01*
X43166D02*
Y-234765D01*
X48244Y-239843D01*
X53323Y-234765D01*
Y-250000D01*
X88871Y-239843D02*
X91410D01*
Y-242383D01*
X88871D01*
Y-239843D01*
Y-247461D02*
X91410D01*
Y-250000D01*
X88871D01*
Y-247461D01*
X0Y-264765D02*
Y-280000D01*
X7617D01*
X10157Y-277461D01*
Y-267304D01*
X7617Y-264765D01*
X0D01*
X15235Y-280000D02*
Y-264765D01*
X22853D01*
X25392Y-267304D01*
Y-272383D01*
X22853Y-274922D01*
X15235D01*
X20313D02*
X25392Y-280000D01*
X30470D02*
Y-269843D01*
X35549Y-264765D01*
X40627Y-269843D01*
Y-280000D01*
Y-272383D01*
X30470D01*
X45705Y-264765D02*
Y-280000D01*
X50784Y-274922D01*
X55862Y-280000D01*
Y-264765D01*
X60940Y-280000D02*
Y-264765D01*
X71097Y-280000D01*
Y-264765D01*
X91410Y-269843D02*
X93950D01*
Y-272383D01*
X91410D01*
Y-269843D01*
Y-277461D02*
X93950D01*
Y-280000D01*
X91410D01*
Y-277461D01*
X129498Y-267304D02*
X126959Y-264765D01*
X121881D01*
X119341Y-267304D01*
Y-277461D01*
X121881Y-280000D01*
X126959D01*
X129498Y-277461D01*
X144733Y-264765D02*
X134577D01*
Y-280000D01*
X144733D01*
X134577Y-272383D02*
X139655D01*
X149811Y-280000D02*
Y-264765D01*
X159968Y-280000D01*
Y-264765D01*
X165047D02*
X175203D01*
X170125D01*
Y-280000D01*
X180282Y-264765D02*
Y-277461D01*
X182821Y-280000D01*
X187899D01*
X190438Y-277461D01*
Y-264765D01*
X195517Y-280000D02*
Y-264765D01*
X200595Y-269843D01*
X205674Y-264765D01*
Y-280000D01*
X210752Y-272383D02*
X220909D01*
X225987Y-280000D02*
Y-269843D01*
X231065Y-264765D01*
X236144Y-269843D01*
Y-280000D01*
Y-272383D01*
X225987D01*
X241222Y-264765D02*
Y-280000D01*
X248839D01*
X251379Y-277461D01*
Y-267304D01*
X248839Y-264765D01*
X241222D01*
X266614D02*
X256457D01*
Y-280000D01*
X266614D01*
X256457Y-272383D02*
X261535D01*
X271692Y-280000D02*
Y-264765D01*
X281849Y-280000D01*
Y-264765D01*
X297084D02*
X286927D01*
Y-280000D01*
X297084D01*
X286927Y-272383D02*
X292006D01*
X309780Y-264765D02*
X304701D01*
X302162Y-267304D01*
Y-277461D01*
X304701Y-280000D01*
X309780D01*
X312319Y-277461D01*
Y-267304D01*
X309780Y-264765D01*
X0Y-294765D02*
Y-310000D01*
X7617D01*
X10157Y-307461D01*
Y-297304D01*
X7617Y-294765D01*
X0D01*
X15235Y-310000D02*
Y-299843D01*
X20313Y-294765D01*
X25392Y-299843D01*
Y-310000D01*
Y-302383D01*
X15235D01*
X30470Y-294765D02*
X40627D01*
X35549D01*
Y-310000D01*
X55862Y-294765D02*
X45705D01*
Y-310000D01*
X55862D01*
X45705Y-302383D02*
X50784D01*
X91410Y-299843D02*
X93950D01*
Y-302383D01*
X91410D01*
Y-299843D01*
Y-307461D02*
X93950D01*
Y-310000D01*
X91410D01*
Y-307461D01*
X129498Y-310000D02*
X119341D01*
X129498Y-299843D01*
Y-297304D01*
X126959Y-294765D01*
X121881D01*
X119341Y-297304D01*
X134577D02*
X137116Y-294765D01*
X142194D01*
X144733Y-297304D01*
Y-307461D01*
X142194Y-310000D01*
X137116D01*
X134577Y-307461D01*
Y-297304D01*
X149811Y-310000D02*
X154890D01*
X152351D01*
Y-294765D01*
X149811Y-297304D01*
X162507Y-294765D02*
X172664D01*
Y-297304D01*
X162507Y-307461D01*
Y-310000D01*
X177743D02*
X187899Y-299843D01*
X200595Y-310000D02*
Y-294765D01*
X192978Y-302383D01*
X203134D01*
X218369Y-294765D02*
X208213D01*
Y-302383D01*
X213291Y-299843D01*
X215830D01*
X218369Y-302383D01*
Y-307461D01*
X215830Y-310000D01*
X210752D01*
X208213Y-307461D01*
D33*
X59436Y21589D02*
Y16510D01*
X62338D01*
X63136Y20380D02*
Y20622D01*
X63378Y21105D01*
X63620Y21347D01*
X64104Y21589D01*
X65071D01*
X65555Y21347D01*
X65797Y21105D01*
X66039Y20622D01*
Y20138D01*
X65797Y19654D01*
X65313Y18929D01*
X62895Y16510D01*
X66280D01*
D34*
X23000Y41200D02*
D03*
Y66600D02*
D03*
Y92000D02*
D03*
Y117400D02*
D03*
Y142800D02*
D03*
Y168200D02*
D03*
Y193600D02*
D03*
Y219000D02*
D03*
Y269800D02*
D03*
Y295200D02*
D03*
Y320600D02*
D03*
Y244400D02*
D03*
X277000Y41200D02*
D03*
Y66600D02*
D03*
Y92000D02*
D03*
Y117400D02*
D03*
Y142800D02*
D03*
Y168200D02*
D03*
Y193600D02*
D03*
Y219000D02*
D03*
Y269800D02*
D03*
Y295200D02*
D03*
Y320600D02*
D03*
Y244400D02*
D03*
D35*
X23000Y346000D02*
D03*
X277000D02*
D03*
D36*
X104372Y254100D02*
D03*
X191378Y317870D02*
D03*
X143386Y304014D02*
D03*
X142126Y322014D02*
D03*
X143486Y292514D02*
D03*
X156545Y303914D02*
D03*
X116726Y318884D02*
D03*
Y334124D02*
D03*
X182766D02*
D03*
X163286Y293614D02*
D03*
X117488Y381514D02*
D03*
Y366414D02*
D03*
X117346Y352114D02*
D03*
X170667Y395914D02*
D03*
X129564D02*
D03*
X116726Y395974D02*
D03*
X182766D02*
D03*
X156986Y387114D02*
D03*
Y395914D02*
D03*
X142415Y387014D02*
D03*
X142486Y395974D02*
D03*
X156300Y331012D02*
D03*
X133998Y354314D02*
D03*
X165686Y354514D02*
D03*
X156786Y379024D02*
D03*
X142215Y379124D02*
D03*
X143174Y345370D02*
D03*
X143486Y369124D02*
D03*
X156600Y345870D02*
D03*
X156635Y369100D02*
D03*
X156545Y359024D02*
D03*
X170486Y377924D02*
D03*
X133998Y336014D02*
D03*
X128686Y377224D02*
D03*
X142786Y331326D02*
D03*
X143586Y359024D02*
D03*
X165686Y336114D02*
D03*
X182863Y381514D02*
D03*
X182940Y366414D02*
D03*
X182886Y352114D02*
D03*
X169286Y321814D02*
D03*
X142786Y313814D02*
D03*
X156319Y313514D02*
D03*
X222100Y229000D02*
D03*
X221700Y223700D02*
D03*
X194500Y184900D02*
D03*
X199700Y185600D02*
D03*
X200500Y202100D02*
D03*
X200600Y222600D02*
D03*
Y243000D02*
D03*
X217500Y260900D02*
D03*
X159100Y180900D02*
D03*
X164300Y177800D02*
D03*
X146000Y185500D02*
D03*
X139300Y201900D02*
D03*
X123200Y233200D02*
D03*
X172600Y280100D02*
D03*
X180207Y282263D02*
D03*
X189970Y279899D02*
D03*
X194000Y283647D02*
D03*
X189700Y288000D02*
D03*
X198000Y295000D02*
D03*
X182500Y294500D02*
D03*
X180500Y263700D02*
D03*
X200600Y263500D02*
D03*
X239400Y250900D02*
D03*
X220900Y288900D02*
D03*
X167061Y165600D02*
D03*
X78718Y191000D02*
D03*
X67000Y197200D02*
D03*
X77526Y240700D02*
D03*
X49762Y196800D02*
D03*
X101600Y196850D02*
D03*
X65200Y184300D02*
D03*
X121468Y273200D02*
D03*
X80951Y221600D02*
D03*
X97900Y219100D02*
D03*
X53650Y225298D02*
D03*
X78288Y210100D02*
D03*
X102900Y235300D02*
D03*
X103437Y209900D02*
D03*
X115100D02*
D03*
X106990Y203100D02*
D03*
X32400Y206158D02*
D03*
X144600Y128700D02*
D03*
X164500Y184000D02*
D03*
X219400Y204000D02*
D03*
X215300Y284200D02*
D03*
X72300Y362500D02*
D03*
X89100Y348900D02*
D03*
X26100Y361900D02*
D03*
X36000Y245100D02*
D03*
X253200Y172276D02*
D03*
X113700Y291500D02*
D03*
X216900Y156900D02*
D03*
X217424Y338836D02*
D03*
X234188Y362966D02*
D03*
X231140Y352044D02*
D03*
X197104Y325882D02*
D03*
X217170Y216828D02*
D03*
X202288Y156900D02*
D03*
X280000Y257870D02*
D03*
X231000Y297870D02*
D03*
X101148Y291500D02*
D03*
X154010Y185860D02*
D03*
X251500Y205900D02*
D03*
X243000Y158870D02*
D03*
X229090Y156600D02*
D03*
X229000Y184870D02*
D03*
X243000Y184800D02*
D03*
X210031Y175839D02*
D03*
X195000Y175870D02*
D03*
X217010Y276860D02*
D03*
X243000Y267850D02*
D03*
X229010Y251860D02*
D03*
X115000Y184100D02*
D03*
X127200Y310200D02*
D03*
X129800Y272800D02*
D03*
X174400Y309700D02*
D03*
X50546Y59690D02*
D03*
X64770Y47752D02*
D03*
X78232Y59690D02*
D03*
X90678Y47244D02*
D03*
X97790Y66040D02*
D03*
X115062Y66548D02*
D03*
X105918Y83312D02*
D03*
X117602Y93726D02*
D03*
X105664Y104648D02*
D03*
X116840Y122174D02*
D03*
X106426Y130048D02*
D03*
X124968Y143764D02*
D03*
X112776Y147066D02*
D03*
X127762Y162560D02*
D03*
X144900Y159609D02*
D03*
X134112Y183134D02*
D03*
X102362Y53340D02*
D03*
X44196Y47244D02*
D03*
X5080Y378460D02*
D03*
X86360Y336550D02*
D03*
X99060Y316230D02*
D03*
X50800Y326390D02*
D03*
Y311150D02*
D03*
X78700Y287900D02*
D03*
X45300Y286100D02*
D03*
X75500Y268200D02*
D03*
X53340Y255270D02*
D03*
X32900Y228600D02*
D03*
X121920Y196850D02*
D03*
X91440Y184150D02*
D03*
X57100Y209200D02*
D03*
X68636Y159900D02*
D03*
X52200Y144300D02*
D03*
X101600Y161290D02*
D03*
X174475Y156900D02*
D03*
X174200Y149500D02*
D03*
X162560Y133350D02*
D03*
X155600Y146000D02*
D03*
X144780Y107950D02*
D03*
X147320Y82550D02*
D03*
X81280Y146050D02*
D03*
X28700Y154900D02*
D03*
X66040Y133350D02*
D03*
X81280Y123190D02*
D03*
X50800D02*
D03*
X26100Y282300D02*
D03*
X5080Y266700D02*
D03*
Y304800D02*
D03*
Y342900D02*
D03*
X15240Y339090D02*
D03*
X11900Y135300D02*
D03*
X5080Y147320D02*
D03*
X14400Y184100D02*
D03*
X5080Y185420D02*
D03*
Y223520D02*
D03*
X12700Y211000D02*
D03*
X15240Y29210D02*
D03*
X5080Y33020D02*
D03*
X23000Y54000D02*
D03*
X5080Y71120D02*
D03*
Y109220D02*
D03*
X15240Y105410D02*
D03*
Y15240D02*
D03*
X294640Y109220D02*
D03*
Y71120D02*
D03*
Y33020D02*
D03*
Y223520D02*
D03*
Y185420D02*
D03*
Y147320D02*
D03*
Y342900D02*
D03*
Y304800D02*
D03*
Y266700D02*
D03*
Y378460D02*
D03*
X73660Y5080D02*
D03*
X50800D02*
D03*
X27940D02*
D03*
X96520D02*
D03*
X119380D02*
D03*
X182880D02*
D03*
X160020D02*
D03*
X139700D02*
D03*
X203200D02*
D03*
X226060D02*
D03*
X248920D02*
D03*
X271780D02*
D03*
X73660Y30480D02*
D03*
X50800D02*
D03*
X96520D02*
D03*
X116840D02*
D03*
X182880D02*
D03*
X157480D02*
D03*
X137160D02*
D03*
X203200D02*
D03*
X226060D02*
D03*
X248920D02*
D03*
X40640Y29210D02*
D03*
X295910Y5334D02*
D03*
X284480Y29210D02*
D03*
X66040Y107950D02*
D03*
Y82550D02*
D03*
X81280Y92710D02*
D03*
X50800D02*
D03*
X119380Y49530D02*
D03*
X142240D02*
D03*
X160020D02*
D03*
X182880D02*
D03*
X144780Y64770D02*
D03*
X131500Y100100D02*
D03*
X172720Y74930D02*
D03*
X203200Y46990D02*
D03*
X228600D02*
D03*
X254000D02*
D03*
X214122Y60198D02*
D03*
X236982Y72390D02*
D03*
X220980Y100330D02*
D03*
X198120Y80010D02*
D03*
X246126Y94996D02*
D03*
X182880Y97790D02*
D03*
X198120Y118110D02*
D03*
X172720Y120650D02*
D03*
X190500Y146050D02*
D03*
X225044Y138430D02*
D03*
X248920Y125730D02*
D03*
X251460Y151130D02*
D03*
X210820Y194310D02*
D03*
X223520Y191770D02*
D03*
X256540Y224790D02*
D03*
X220980Y240030D02*
D03*
X256540D02*
D03*
X200660Y308610D02*
D03*
X241300D02*
D03*
X218440Y323850D02*
D03*
X243840Y331470D02*
D03*
X259080D02*
D03*
X256540Y300990D02*
D03*
X246822Y296400D02*
D03*
X241300Y283210D02*
D03*
X220980Y311150D02*
D03*
X226100Y280900D02*
D03*
X261620Y283210D02*
D03*
X159400Y222500D02*
D03*
X159600Y243100D02*
D03*
X138800Y222500D02*
D03*
Y243100D02*
D03*
X159400Y201700D02*
D03*
X180600Y243100D02*
D03*
X180500Y222600D02*
D03*
X180600Y201800D02*
D03*
X92004Y209100D02*
D03*
X85200Y314400D02*
D03*
X52900Y349300D02*
D03*
X70000Y323300D02*
D03*
X181600Y301200D02*
D03*
X148500Y263500D02*
D03*
X98000Y352000D02*
D03*
X98054Y366300D02*
D03*
X97977Y381400D02*
D03*
X108100Y345000D02*
D03*
X73660Y395860D02*
D03*
X50800D02*
D03*
X27940D02*
D03*
X5080D02*
D03*
X96520D02*
D03*
X294640D02*
D03*
X203200D02*
D03*
X226060D02*
D03*
X248920D02*
D03*
X271780D02*
D03*
X193100Y345000D02*
D03*
X202460Y352000D02*
D03*
X202602Y366300D02*
D03*
Y381400D02*
D03*
X271780Y378460D02*
D03*
X248920D02*
D03*
X226060D02*
D03*
X27940D02*
D03*
X50800D02*
D03*
X73660D02*
D03*
X137186Y310214D02*
D03*
X127086Y310314D02*
D03*
X174286Y309814D02*
D03*
X143700Y283300D02*
D03*
X168486Y307314D02*
D03*
X133100Y283300D02*
D03*
M02*
