M48
;Layer_Color=9474304
;FILE_FORMAT=4:4
METRIC,LZ
;TYPE=PLATED
T1F00S00C0.2000
T2F00S00C1.0000
%
T01
X0007366Y0000508
X0009652
X0011938
X001397
X0016002
X0018288
X002032
X0022606
X0024892
X0027178
X0029591Y00005334
X0029464Y0003302
X0028448Y0002921
X0024892Y0003048
X00254Y0004699
X002286
X0022606Y0003048
X002032
Y0004699
X0018288Y0004953
Y0003048
X0015748
X0013716
X0011684
X0009652
X00090678Y00047244
X00102362Y0005334
X0011938Y0004953
X0014224
X0016002
X00214122Y00060198
X00078232Y0005969
X0006477Y00047752
X0007366Y0003048
X000508
X0004064Y0002921
X00044196Y00047244
X00050546Y0005969
X00023Y00054
X0001524Y0002921
X0000508Y0003302
X0001524Y0001524
X0002794Y0000508
X000508
Y0009271
Y0012319
X000522Y001443
X000287Y001549
X0000508Y0014732
X000119Y001353
X0000508Y0010922
X0001524Y0010541
X0000508Y0007112
Y0018542
X000144Y001841
X000127Y00211
X0000508Y0022352
X000329Y002286
X00036Y002451
X0005334Y0025527
X0005365Y00225298
X000571Y002092
X00049762Y001968
X000324Y00206158
X000261Y002823
X000453Y002861
X000508Y0031115
Y0032639
X000529Y003493
X000508Y0037846
Y0039586
X0002794
Y0037846
X000261Y003619
X0001524Y0033909
X0000508Y003429
Y0037846
Y0039586
Y003048
Y002667
X000755Y002682
X000787Y002879
X00101148Y002915
X001137
X00121468Y002732
X001298Y002728
X001331Y002833
X001437
X00143486Y00292514
X00143386Y00304014
X00142786Y00313814
X00142126Y00322014
X00142786Y00331326
X00133998Y00336014
Y00354314
X00143586Y00359024
X00143486Y00369124
X00142215Y00379124
X00142415Y00387014
X00142486Y00395974
X00129564Y00395914
X00116726Y00395974
X00117488Y00381514
Y00366414
X00117346Y00352114
X001081Y00345
X00098Y00352
X000891Y003489
X0008636Y0033655
X000852Y003144
X0009906Y0031623
X00116726Y00318884
Y00334124
X00127086Y00310314
X001272Y003102
X00137186Y00310214
X00156319Y00313514
X00156545Y00303914
X00168486Y00307314
X001744Y003097
X00174286Y00309814
X001816Y003012
X001825Y002945
X001897Y00288
X0018997Y00279899
X00194Y00283647
X00180207Y00282263
X001726Y002801
X00163286Y00293614
X00169286Y00321814
X00165686Y00336114
X001563Y00331012
X001566Y0034587
X00156545Y00359024
X00156635Y003691
X00156786Y00379024
X00156986Y00387114
Y00395914
X00170667
X00182766Y00395974
X00182863Y00381514
X0018294Y00366414
X00182886Y00352114
X001931Y00345
X0020246Y00352
X00202602Y003663
Y003814
X002032Y0039586
X0022606
Y0037846
X0024892
Y0039586
X0027178
Y0037846
X0029464
Y0039586
Y003429
Y003048
Y002667
X0028Y0025787
X0025654Y0024003
Y0022479
X002515Y002059
X00243Y001848
X00229Y0018487
X0022352Y0019177
X0021082Y0019431
X002005Y002021
X001997Y001856
X001945Y001849
X00195Y0017587
X00210031Y00175839
X002169Y001569
X0022909Y001566
X00243Y0015887
X0025146Y0015113
X002532Y00172276
X0024892Y0012573
X00246126Y00094996
X0022098Y0010033
X0018288Y0009779
X0017272Y0007493
X0019812Y0008001
Y0011811
X0017272Y0012065
X0016256Y0013335
X001556Y00146
X001742Y001495
X00174475Y001569
X00167061Y001656
X001643Y001778
X001645Y00184
X001591Y001809
X0015401Y0018586
X00146Y001855
X00134112Y00183134
X00115Y001841
X0012192Y0019685
X001151Y002099
X00103437
X0010699Y002031
X001016Y0019685
X00092004Y002091
X00078288Y002101
X00080951Y002216
X000979Y002191
X001029Y002353
X00104372Y002541
X001232Y002332
X001388Y002431
Y002225
X001594
X001596Y002431
X001806
X002006Y00243
Y002226
X001805
X001806Y002018
X001594Y002017
X001393Y002019
X001449Y00159609
X00127762Y0016256
X00124968Y00143764
X00112776Y00147066
X00106426Y00130048
X0011684Y00122174
X00105664Y00104648
X00105918Y00083312
X00117602Y00093726
X001315Y001001
X0014478Y0010795
X001446Y001287
X0014732Y0008255
X0014478Y0006477
X00115062Y00066548
X0009779Y0006604
X0008128Y0009271
X0006604Y0008255
Y0010795
Y0013335
X0008128Y0012319
Y0014605
X00068636Y001599
X000652Y001843
X00067Y001972
X00078718Y00191
X0009144Y0018415
X001016Y0016129
X00077526Y002407
X0007Y003233
X000723Y003625
X0007366Y0037846
Y0039586
X0009652
X00097977Y003814
X00098054Y003663
X00128686Y00377224
X00170486Y00377924
X00165686Y00354514
X00143174Y0034537
X00182766Y00334124
X00197104Y00325882
X00191378Y0031787
X0020066Y0030861
X00198Y00295
X002153Y002842
X0021701Y0027686
X002261Y002809
X002209Y002889
X00231Y0029787
X00246822Y002964
X0025654Y0030099
X002413Y0030861
X0022098Y0031115
X0021844Y0032385
X00217424Y00338836
X0023114Y00352044
X00234188Y00362966
X0024384Y0033147
X0025908
X0026162Y0028321
X002413
X00243Y0026785
X002394Y002509
X0022901Y0025186
X0022098Y0024003
X002221Y00229
X002217Y002237
X0021717Y00216828
X002194Y00204
X002175Y002609
X002006Y002635
X001805Y002637
X001485Y002635
X001905Y0014605
X00202288Y001569
X00225044Y0013843
X00236982Y0007239
X0029464Y0007112
Y0010922
Y0014732
Y0018542
Y0022352
T02
X00277Y000412
X00023
Y000666
Y00092
Y001174
Y001428
Y001682
Y001936
Y00219
Y002444
Y002698
Y002952
Y003206
Y00346
X00277
Y003206
Y002952
Y002698
Y002444
Y00219
Y001936
Y001682
Y001428
Y001174
Y00092
Y000666
M30
